<?xml version="1.0" encoding="UTF-8"?>
<svg id="Layer_1" xmlns="http://www.w3.org/2000/svg" xmlns:xlink="http://www.w3.org/1999/xlink" version="1.1" viewBox="0 0 411.3 155.8">
  <!-- Generator: Adobe Illustrator 29.2.1, SVG Export Plug-In . SVG Version: 2.1.0 Build 116)  -->
  <defs>
    <style>
      .st0, .st1, .st2, .st3 {
        fill: none;
      }

      .st4 {
        isolation: isolate;
        opacity: .1;
      }

      .st5 {
        fill: #7ec01b;
      }

      .st6 {
        fill: #ccc;
      }

      .st1 {
        stroke-width: 2px;
      }

      .st1, .st2 {
        stroke: #000;
      }

      .st1, .st2, .st3 {
        stroke-linejoin: round;
      }

      .st7 {
        clip-path: url(#clippath-17);
      }

      .st8 {
        clip-path: url(#clippath-19);
      }

      .st9 {
        clip-path: url(#clippath-11);
      }

      .st10 {
        clip-path: url(#clippath-16);
      }

      .st11 {
        clip-path: url(#clippath-18);
      }

      .st12 {
        clip-path: url(#clippath-10);
      }

      .st13 {
        clip-path: url(#clippath-15);
      }

      .st14 {
        clip-path: url(#clippath-13);
      }

      .st15 {
        clip-path: url(#clippath-14);
      }

      .st16 {
        clip-path: url(#clippath-12);
      }

      .st17 {
        clip-path: url(#clippath-31);
      }

      .st18 {
        clip-path: url(#clippath-32);
      }

      .st19 {
        clip-path: url(#clippath-33);
      }

      .st20 {
        clip-path: url(#clippath-34);
      }

      .st21 {
        clip-path: url(#clippath-35);
      }

      .st22 {
        clip-path: url(#clippath-39);
      }

      .st23 {
        clip-path: url(#clippath-30);
      }

      .st24 {
        clip-path: url(#clippath-36);
      }

      .st25 {
        clip-path: url(#clippath-37);
      }

      .st26 {
        clip-path: url(#clippath-38);
      }

      .st27 {
        clip-path: url(#clippath-27);
      }

      .st28 {
        clip-path: url(#clippath-29);
      }

      .st29 {
        clip-path: url(#clippath-26);
      }

      .st30 {
        clip-path: url(#clippath-28);
      }

      .st31 {
        clip-path: url(#clippath-20);
      }

      .st32 {
        clip-path: url(#clippath-21);
      }

      .st33 {
        clip-path: url(#clippath-22);
      }

      .st34 {
        clip-path: url(#clippath-23);
      }

      .st35 {
        clip-path: url(#clippath-24);
      }

      .st36 {
        clip-path: url(#clippath-25);
      }

      .st37 {
        clip-path: url(#clippath-41);
      }

      .st38 {
        clip-path: url(#clippath-42);
      }

      .st39 {
        clip-path: url(#clippath-43);
      }

      .st40 {
        clip-path: url(#clippath-44);
      }

      .st41 {
        clip-path: url(#clippath-45);
      }

      .st42 {
        clip-path: url(#clippath-40);
      }

      .st43 {
        clip-path: url(#clippath-46);
      }

      .st44 {
        clip-path: url(#clippath-47);
      }

      .st45 {
        clip-path: url(#clippath-48);
      }

      .st2 {
        stroke-width: .5px;
      }

      .st46 {
        clip-path: url(#clippath-1);
      }

      .st47 {
        clip-path: url(#clippath-3);
      }

      .st48 {
        clip-path: url(#clippath-4);
      }

      .st49 {
        clip-path: url(#clippath-2);
      }

      .st50 {
        clip-path: url(#clippath-7);
      }

      .st51 {
        clip-path: url(#clippath-6);
      }

      .st52 {
        clip-path: url(#clippath-9);
      }

      .st53 {
        clip-path: url(#clippath-8);
      }

      .st54 {
        clip-path: url(#clippath-5);
      }

      .st55 {
        fill: #fff;
      }

      .st56 {
        fill: #f2f2f2;
      }

      .st57 {
        clip-path: url(#clippath);
      }

      .st3 {
        stroke: #fff;
        stroke-width: 3px;
      }
    </style>
    <clipPath id="clippath">
      <rect class="st0" x="26.8" y="54.4" width="62.4" height="18.1"/>
    </clipPath>
    <clipPath id="clippath-1">
      <rect class="st0" x="26.8" y="54.4" width="62.4" height="18.1"/>
    </clipPath>
    <clipPath id="clippath-2">
      <rect class="st0" x="26.8" y="54.4" width="62.4" height="18.1"/>
    </clipPath>
    <clipPath id="clippath-3">
      <rect class="st0" x="26.8" y=".7" width="77.7" height="72.6"/>
    </clipPath>
    <clipPath id="clippath-4">
      <rect class="st0" x="28.1" y="27" width="12.4" height="11.6"/>
    </clipPath>
    <clipPath id="clippath-5">
      <rect class="st0" x="28.1" y="27" width="12.4" height="11.6"/>
    </clipPath>
    <clipPath id="clippath-6">
      <rect class="st0" x="28.1" y="27" width="12.4" height="11.6"/>
    </clipPath>
    <clipPath id="clippath-7">
      <rect class="st0" x="126.5" y="54.4" width="62.4" height="18.1"/>
    </clipPath>
    <clipPath id="clippath-8">
      <rect class="st0" x="126.5" y="54.4" width="62.4" height="18.1"/>
    </clipPath>
    <clipPath id="clippath-9">
      <rect class="st0" x="126.5" y="54.4" width="62.4" height="18.1"/>
    </clipPath>
    <clipPath id="clippath-10">
      <rect class="st0" x="126.5" y=".7" width="77.7" height="72.6"/>
    </clipPath>
    <clipPath id="clippath-11">
      <rect class="st0" x="128.3" y="27" width="12.4" height="11.6"/>
    </clipPath>
    <clipPath id="clippath-12">
      <rect class="st0" x="128.3" y="27" width="12.4" height="11.6"/>
    </clipPath>
    <clipPath id="clippath-13">
      <rect class="st0" x="128.3" y="27" width="12.4" height="11.6"/>
    </clipPath>
    <clipPath id="clippath-14">
      <rect class="st0" x="227.7" y="54.4" width="62.4" height="18.1"/>
    </clipPath>
    <clipPath id="clippath-15">
      <rect class="st0" x="227.7" y="54.4" width="62.4" height="18.1"/>
    </clipPath>
    <clipPath id="clippath-16">
      <rect class="st0" x="227.7" y="54.4" width="62.4" height="18.1"/>
    </clipPath>
    <clipPath id="clippath-17">
      <rect class="st0" x="227.7" y=".7" width="77.7" height="72.6"/>
    </clipPath>
    <clipPath id="clippath-18">
      <rect class="st0" x="229.4" y="27" width="12.4" height="11.6"/>
    </clipPath>
    <clipPath id="clippath-19">
      <rect class="st0" x="229.4" y="27" width="12.4" height="11.6"/>
    </clipPath>
    <clipPath id="clippath-20">
      <rect class="st0" x="229.4" y="27" width="12.4" height="11.6"/>
    </clipPath>
    <clipPath id="clippath-21">
      <rect class="st0" x="182.7" y="130.1" width="62.4" height="18.1"/>
    </clipPath>
    <clipPath id="clippath-22">
      <rect class="st0" x="182.7" y="130.1" width="62.4" height="18.1"/>
    </clipPath>
    <clipPath id="clippath-23">
      <rect class="st0" x="182.7" y="130.1" width="62.4" height="18.1"/>
    </clipPath>
    <clipPath id="clippath-24">
      <rect class="st0" x="182.7" y="76.4" width="77.7" height="72.6"/>
    </clipPath>
    <clipPath id="clippath-25">
      <rect class="st0" x="183.9" y="102.7" width="12.4" height="11.6"/>
    </clipPath>
    <clipPath id="clippath-26">
      <rect class="st0" x="183.9" y="102.7" width="12.4" height="11.6"/>
    </clipPath>
    <clipPath id="clippath-27">
      <rect class="st0" x="183.9" y="102.7" width="12.4" height="11.6"/>
    </clipPath>
    <clipPath id="clippath-28">
      <rect class="st0" x="253.3" y="130.1" width="62.4" height="18.1"/>
    </clipPath>
    <clipPath id="clippath-29">
      <rect class="st0" x="253.3" y="130.1" width="62.4" height="18.1"/>
    </clipPath>
    <clipPath id="clippath-30">
      <rect class="st0" x="253.3" y="130.1" width="62.4" height="18.1"/>
    </clipPath>
    <clipPath id="clippath-31">
      <rect class="st0" x="253.3" y="76.4" width="77.7" height="72.6"/>
    </clipPath>
    <clipPath id="clippath-32">
      <rect class="st0" x="255" y="102.7" width="12.4" height="11.6"/>
    </clipPath>
    <clipPath id="clippath-33">
      <rect class="st0" x="255" y="102.7" width="12.4" height="11.6"/>
    </clipPath>
    <clipPath id="clippath-34">
      <rect class="st0" x="255" y="102.7" width="12.4" height="11.6"/>
    </clipPath>
    <clipPath id="clippath-35">
      <rect class="st0" x="324.2" y="130.1" width="62.4" height="18.1"/>
    </clipPath>
    <clipPath id="clippath-36">
      <rect class="st0" x="324.2" y="130.1" width="62.4" height="18.1"/>
    </clipPath>
    <clipPath id="clippath-37">
      <rect class="st0" x="324.2" y="130.1" width="62.4" height="18.1"/>
    </clipPath>
    <clipPath id="clippath-38">
      <rect class="st0" x="324.2" y="76.4" width="77.7" height="72.6"/>
    </clipPath>
    <clipPath id="clippath-39">
      <rect class="st0" x="325.9" y="102.7" width="12.4" height="11.6"/>
    </clipPath>
    <clipPath id="clippath-40">
      <rect class="st0" x="325.9" y="102.7" width="12.4" height="11.6"/>
    </clipPath>
    <clipPath id="clippath-41">
      <rect class="st0" x="325.9" y="102.7" width="12.4" height="11.6"/>
    </clipPath>
    <clipPath id="clippath-42">
      <rect class="st0" x="26.8" y="130.1" width="62.4" height="18.1"/>
    </clipPath>
    <clipPath id="clippath-43">
      <rect class="st0" x="26.8" y="130.1" width="62.4" height="18.1"/>
    </clipPath>
    <clipPath id="clippath-44">
      <rect class="st0" x="26.8" y="130.1" width="62.4" height="18.1"/>
    </clipPath>
    <clipPath id="clippath-45">
      <rect class="st0" x="26.8" y="76.4" width="77.7" height="72.6"/>
    </clipPath>
    <clipPath id="clippath-46">
      <rect class="st0" x="28.1" y="102.7" width="12.4" height="11.6"/>
    </clipPath>
    <clipPath id="clippath-47">
      <rect class="st0" x="28.1" y="102.7" width="12.4" height="11.6"/>
    </clipPath>
    <clipPath id="clippath-48">
      <rect class="st0" x="28.1" y="102.7" width="12.4" height="11.6"/>
    </clipPath>
  </defs>
  <g>
    <path d="M42.7,14.8v-5h-1.9v-1.2c.3,0,.5,0,.8,0s.5-.1.7-.3c.2-.1.4-.3.5-.5.1-.2.2-.4.3-.7h1.2v7.7h-1.6Z"/>
    <path d="M46.5,9.1c.2-.5.4-.9.6-1.2s.6-.5.9-.7c.3-.1.7-.2,1.1-.2s.8,0,1.1.2c.3.1.6.4.9.7s.5.7.6,1.2c.1.5.2,1.1.2,1.9s0,1.4-.2,1.9c-.2.5-.4.9-.6,1.2-.3.3-.6.5-.9.7-.3.1-.7.2-1.1.2s-.7,0-1.1-.2c-.3-.1-.6-.4-.9-.7-.3-.3-.5-.7-.6-1.2s-.2-1.2-.2-1.9,0-1.4.2-1.9ZM47.8,11.7c0,.3,0,.6.1.9,0,.3.2.5.4.7.2.2.4.3.7.3s.6-.1.7-.3.3-.5.4-.7c0-.3.1-.6.1-.9s0-.6,0-.8,0-.3,0-.5,0-.4,0-.6c0-.2,0-.4-.1-.6,0-.2-.1-.4-.2-.5,0-.2-.2-.3-.4-.4s-.3-.1-.5-.1-.4,0-.5.1-.3.2-.4.4c0,.2-.2.3-.2.5s0,.4-.1.6c0,.2,0,.4,0,.6,0,.2,0,.3,0,.5,0,.2,0,.5,0,.8Z"/>
  </g>
  <g>
    <path d="M82.2,59.3c0-.4.1-.7.3-1s.4-.5.7-.6.6-.3.9-.3c.3,0,.7,0,1,0s.6,0,.9,0c.3,0,.6.1.9.2s.5.3.6.5c.2.2.2.5.2.9v3.1c0,.3,0,.5,0,.8,0,.2,0,.4.2.6h-1.7c0,0,0-.2,0-.3s0-.2,0-.3c-.3.3-.6.5-.9.6-.4.1-.7.2-1.1.2s-.6,0-.8-.1c-.2,0-.5-.2-.7-.3-.2-.1-.3-.3-.4-.6-.1-.2-.2-.5-.2-.8s0-.6.2-.8c.1-.2.3-.4.5-.5s.4-.2.7-.3c.2,0,.5-.1.7-.2s.5,0,.7,0c.2,0,.5,0,.6-.1.2,0,.3-.1.4-.2.1,0,.2-.2.2-.4,0-.2,0-.3,0-.4,0-.1-.1-.2-.2-.2,0,0-.2,0-.3-.1-.1,0-.3,0-.4,0-.3,0-.6,0-.8.2s-.3.4-.3.7h-1.7ZM86,60.6c0,0-.2.1-.3.1-.1,0-.2,0-.3,0s-.2,0-.4,0c-.1,0-.3,0-.4,0-.1,0-.2,0-.4,0-.1,0-.2,0-.3.2,0,0-.2.1-.2.2s0,.2,0,.4,0,.3,0,.4.1.2.2.2c0,0,.2,0,.3.1.1,0,.3,0,.4,0,.3,0,.6,0,.8-.2.2-.1.3-.2.4-.4,0-.2.1-.3.2-.5s0-.3,0-.4v-.6Z"/>
    <path d="M92.1,59.9v-1.2h5.9v1.2h-5.9ZM92.1,62.4v-1.2h5.9v1.2h-5.9Z"/>
    <path d="M104.7,63.5v-5.3h-2v-1.2c.3,0,.6,0,.8,0s.5-.1.7-.3c.2-.1.4-.3.5-.5.1-.2.2-.5.3-.8h1.3v8.2h-1.7Z"/>
    <path d="M108.8,57.4c.2-.5.4-1,.6-1.3.3-.3.6-.6.9-.7.4-.1.7-.2,1.1-.2s.8,0,1.2.2.7.4,1,.7c.3.3.5.8.7,1.3.2.5.2,1.2.2,2s0,1.5-.2,2c-.2.5-.4,1-.7,1.3-.3.3-.6.6-1,.7s-.7.2-1.2.2-.8,0-1.1-.2c-.4-.1-.7-.4-.9-.7-.3-.3-.5-.8-.6-1.3-.2-.5-.2-1.2-.2-2s0-1.5.2-2ZM110.2,60.2c0,.3,0,.6.1,1,0,.3.2.6.4.8.2.2.4.3.8.3s.6-.1.8-.3c.2-.2.3-.5.4-.8,0-.3.1-.6.1-1s0-.6,0-.8,0-.3,0-.5c0-.2,0-.4,0-.6,0-.2,0-.4-.1-.6,0-.2-.1-.4-.2-.6-.1-.2-.2-.3-.4-.4s-.3-.2-.6-.2-.4,0-.6.2-.3.2-.4.4c0,.2-.2.3-.2.6,0,.2,0,.4-.1.6,0,.2,0,.4,0,.6,0,.2,0,.4,0,.5,0,.2,0,.5,0,.8Z"/>
  </g>
  <g>
    <path d="M84,141.7c0,.1.2.2.3.3.1,0,.2.1.4.2s.3,0,.5,0,.2,0,.4,0c.1,0,.2,0,.3-.1.1,0,.2-.1.3-.2,0,0,.1-.2.1-.4,0-.2-.2-.4-.5-.6s-.8-.2-1.4-.4c-.2,0-.5-.1-.7-.2-.2,0-.4-.2-.6-.3s-.3-.3-.4-.5c-.1-.2-.2-.4-.2-.7,0-.4,0-.7.2-1,.2-.2.4-.4.6-.6.2-.1.5-.2.8-.3.3,0,.6,0,1,0s.6,0,.9,0c.3,0,.6.2.8.3.2.1.4.3.6.6.2.2.3.6.3.9h-1.6c0-.3-.1-.5-.4-.6-.2-.1-.5-.2-.8-.2s-.2,0-.3,0c-.1,0-.2,0-.3,0,0,0-.2,0-.2.2,0,0,0,.2,0,.3s0,.3.2.4c.1,0,.2.2.4.2s.4.1.6.2c.2,0,.5,0,.7.2.2,0,.5.1.7.2.2,0,.4.2.6.3.2.1.3.3.4.5.1.2.2.4.2.7,0,.4,0,.7-.2,1s-.4.5-.6.6c-.3.2-.5.3-.9.3-.3,0-.7,0-1,0s-.7,0-1-.1c-.3,0-.6-.2-.9-.3-.3-.2-.5-.4-.6-.6-.2-.3-.3-.6-.3-1h1.6c0,.2,0,.3.1.5Z"/>
    <path d="M93,143.2v-.8h0c-.2.3-.5.6-.8.8-.3.2-.7.2-1,.2s-.8,0-1.1-.2c-.3-.1-.5-.3-.7-.5-.2-.2-.3-.5-.3-.8,0-.3,0-.6,0-1v-3.7h1.7v3.4c0,.5,0,.9.2,1.1s.4.4.8.4.8-.1,1-.4c.2-.3.3-.7.3-1.3v-3.2h1.7v6h-1.6Z"/>
    <path d="M97.4,137.1v.8h0c.2-.3.5-.6.8-.7.3-.2.7-.3,1.1-.3s.7,0,1,.2.6.4.7.8c.2-.3.4-.5.7-.7s.7-.3,1.1-.3.6,0,.9.1c.3,0,.5.2.7.4.2.2.3.4.5.7.1.3.2.6.2,1v4h-1.7v-3.4c0-.2,0-.4,0-.6,0-.2,0-.3-.1-.5,0-.1-.2-.2-.3-.3-.1,0-.3-.1-.6-.1s-.4,0-.6.1c-.1,0-.3.2-.3.3,0,.1-.1.3-.2.5s0,.4,0,.6v3.4h-1.7v-3.4c0-.2,0-.4,0-.5,0-.2,0-.3,0-.5,0-.1-.2-.3-.3-.4-.1,0-.3-.1-.6-.1s-.2,0-.3,0-.3.1-.4.2c-.1,0-.2.2-.3.4,0,.2-.1.4-.1.7v3.5h-1.7v-6h1.6Z"/>
    <path d="M108,137.1v.8h0c.2-.3.5-.6.8-.7.3-.2.7-.3,1.1-.3s.7,0,1,.2.6.4.7.8c.2-.3.4-.5.7-.7s.7-.3,1.1-.3.6,0,.9.1c.3,0,.5.2.7.4.2.2.3.4.5.7.1.3.2.6.2,1v4h-1.7v-3.4c0-.2,0-.4,0-.6,0-.2,0-.3-.1-.5,0-.1-.2-.2-.3-.3-.1,0-.3-.1-.6-.1s-.4,0-.6.1c-.1,0-.3.2-.3.3,0,.1-.1.3-.2.5s0,.4,0,.6v3.4h-1.7v-3.4c0-.2,0-.4,0-.5,0-.2,0-.3,0-.5,0-.1-.2-.3-.3-.4-.1,0-.3-.1-.6-.1s-.2,0-.3,0-.3.1-.4.2c-.1,0-.2.2-.3.4,0,.2-.1.4-.1.7v3.5h-1.7v-6h1.6Z"/>
    <path d="M116.8,139c0-.4.1-.7.3-1s.4-.5.7-.6.6-.3.9-.3c.3,0,.7,0,1,0s.6,0,.9,0c.3,0,.6.1.9.2s.5.3.6.5c.2.2.2.5.2.9v3.1c0,.3,0,.5,0,.8,0,.2,0,.4.2.6h-1.7c0,0,0-.2,0-.3s0-.2,0-.3c-.3.3-.6.5-.9.6-.4.1-.7.2-1.1.2s-.6,0-.8-.1c-.2,0-.5-.2-.7-.3-.2-.1-.3-.3-.4-.6-.1-.2-.2-.5-.2-.8s0-.6.2-.8c.1-.2.3-.4.5-.5s.4-.2.7-.3c.2,0,.5-.1.7-.2s.5,0,.7,0c.2,0,.5,0,.6-.1.2,0,.3-.1.4-.2.1,0,.2-.2.2-.4,0-.2,0-.3,0-.4,0-.1-.1-.2-.2-.2,0,0-.2,0-.3-.1-.1,0-.3,0-.4,0-.3,0-.6,0-.8.2s-.3.4-.3.7h-1.7ZM120.7,140.2c0,0-.2.1-.3.1-.1,0-.2,0-.3,0s-.2,0-.4,0c-.1,0-.3,0-.4,0-.1,0-.2,0-.4,0-.1,0-.2,0-.3.2,0,0-.2.1-.2.2s0,.2,0,.4,0,.3,0,.4.1.2.2.2c0,0,.2,0,.3.1.1,0,.3,0,.4,0,.3,0,.6,0,.8-.2.2-.1.3-.2.4-.4,0-.2.1-.3.2-.5s0-.3,0-.4v-.6Z"/>
    <path d="M126.9,137.1v1.1h-1.2v3c0,.3,0,.5.1.6s.3.1.6.1.2,0,.3,0c0,0,.2,0,.2,0v1.3c-.1,0-.3,0-.5,0s-.3,0-.5,0c-.3,0-.5,0-.7,0-.2,0-.4-.1-.6-.2-.2-.1-.3-.2-.4-.4s-.2-.4-.2-.7v-3.6h-1v-1.1h1v-1.8h1.7v1.8h1.2Z"/>
    <path d="M127.7,136.2v-1.4h1.7v1.4h-1.7ZM129.4,137.1v6h-1.7v-6h1.7Z"/>
    <path d="M130.7,138.8c.1-.4.4-.7.6-1,.3-.3.6-.5,1-.6.4-.2.8-.2,1.3-.2s.9,0,1.3.2c.4.2.7.4,1,.6.3.3.5.6.6,1,.1.4.2.8.2,1.3s0,.9-.2,1.3c-.1.4-.4.7-.6,1-.3.3-.6.5-1,.6-.4.1-.8.2-1.3.2s-.9,0-1.3-.2c-.4-.1-.7-.4-1-.6-.3-.3-.5-.6-.6-1-.1-.4-.2-.8-.2-1.3s0-.9.2-1.3ZM132.2,140.9c0,.2.1.4.2.6s.3.3.4.4c.2.1.4.2.7.2s.5,0,.7-.2c.2-.1.3-.3.5-.4.1-.2.2-.4.2-.6,0-.2,0-.5,0-.7s0-.5,0-.7c0-.2-.1-.4-.2-.6-.1-.2-.3-.3-.5-.4-.2-.1-.4-.2-.7-.2s-.5,0-.7.2c-.2.1-.3.3-.4.4s-.2.4-.2.6c0,.2,0,.5,0,.7s0,.5,0,.7Z"/>
    <path d="M139.4,137.1v.8h0c.2-.3.5-.6.8-.8.3-.2.7-.2,1-.2s.8,0,1.1.2.5.3.7.5c.2.2.3.5.3.8,0,.3,0,.6,0,1v3.7h-1.7v-3.4c0-.5,0-.9-.2-1.1s-.4-.4-.8-.4-.8.1-1,.4c-.2.3-.3.7-.3,1.3v3.2h-1.7v-6h1.6Z"/>
  </g>
  <path class="st2" d="M62.9,32.7"/>
  <g class="st57">
    <g class="st4">
      <g class="st46">
        <g class="st49">
          <polygon points="26.8 69 47.2 72.6 76.2 72.6 89.3 60.2 69.7 54.4 55.1 54.4 26.8 69"/>
        </g>
      </g>
    </g>
  </g>
  <g class="st47">
    <polygon class="st55" points="27.6 38.5 40.6 26.1 70.4 26.1 70.4 55.2 57.3 68.2 27.6 68.2 27.6 38.5"/>
    <polygon class="st1" points="27.6 38.5 40.6 26.1 70.4 26.1 70.4 55.2 57.3 68.2 27.6 68.2 27.6 38.5"/>
    <polygon class="st6" points="57.3 67.1 57.3 38.6 69.7 26.8 69.7 55 57.3 67.1"/>
  </g>
  <g>
    <rect class="st56" x="28.3" y="38.5" width="29" height="29"/>
    <line class="st2" x1="40.8" y1="26.8" x2="40.8" y2="38.5"/>
    <line class="st2" x1="27.6" y1="38.6" x2="57.3" y2="38.6"/>
    <polyline class="st2" points="57.1 67.5 57.1 38.6 70.2 26.3"/>
    <polygon points="42.8 29 45.7 29 45.7 16.7 48.6 16.7 48.6 29 51.5 29 47.2 35.6 42.8 29"/>
    <polygon class="st3" points="42.8 29 45.7 29 45.7 16.7 48.6 16.7 48.6 29 51.5 29 47.2 35.6 42.8 29"/>
    <polygon class="st5" points="42.8 29 45.7 29 45.7 16.7 48.6 16.7 48.6 29 51.5 29 47.2 35.6 42.8 29"/>
  </g>
  <g class="st48">
    <g class="st4">
      <g class="st54">
        <g class="st51">
          <polygon points="28.1 38.7 40.4 38.7 40.4 27 28.1 38.7"/>
        </g>
      </g>
    </g>
  </g>
  <g>
    <path d="M140.2,8.9c.1-.4.3-.7.5-1s.5-.5.9-.7c.4-.2.8-.2,1.2-.2s.7,0,1,.2.6.3.8.5c.2.2.4.5.6.8s.2.6.2,1,0,.7-.2,1c-.1.3-.3.5-.5.7-.2.2-.4.4-.7.6-.3.2-.5.4-.8.5-.3.2-.5.4-.8.6-.2.2-.5.4-.7.7h3.6v1.3h-5.7c0-.4,0-.8.2-1.2s.3-.6.5-.9c.2-.3.5-.5.8-.7.3-.2.6-.4.9-.7.2-.1.3-.2.5-.4.2-.1.4-.3.5-.4.2-.1.3-.3.4-.5.1-.2.2-.4.2-.6,0-.4-.1-.7-.3-.9-.2-.2-.5-.3-.8-.3s-.4,0-.6.2c-.2.1-.3.2-.4.4s-.2.4-.2.6c0,.2,0,.4,0,.6h-1.5c0-.4,0-.8.2-1.2Z"/>
    <path d="M146.2,9.1c.2-.5.4-.9.6-1.2s.6-.5.9-.7c.3-.1.7-.2,1.1-.2s.8,0,1.1.2c.3.1.6.4.9.7s.5.7.6,1.2c.1.5.2,1.1.2,1.9s0,1.4-.2,1.9c-.2.5-.4.9-.6,1.2-.3.3-.6.5-.9.7-.3.1-.7.2-1.1.2s-.7,0-1.1-.2c-.3-.1-.6-.4-.9-.7-.3-.3-.5-.7-.6-1.2s-.2-1.2-.2-1.9,0-1.4.2-1.9ZM147.6,11.7c0,.3,0,.6.1.9,0,.3.2.5.4.7.2.2.4.3.7.3s.6-.1.7-.3.3-.5.4-.7c0-.3.1-.6.1-.9s0-.6,0-.8,0-.3,0-.5,0-.4,0-.6c0-.2,0-.4-.1-.6,0-.2-.1-.4-.2-.5,0-.2-.2-.3-.4-.4s-.3-.1-.5-.1-.4,0-.5.1-.3.2-.4.4c0,.2-.2.3-.2.5s0,.4-.1.6c0,.2,0,.4,0,.6,0,.2,0,.3,0,.5,0,.2,0,.5,0,.8Z"/>
  </g>
  <g>
    <path d="M183.6,55.2v3h0c.2-.3.5-.5.8-.7.3-.1.7-.2,1.1-.2s.6,0,.9.2.6.3.8.6c.2.3.4.6.6,1,.1.4.2.9.2,1.4s0,1-.2,1.4c-.1.4-.3.7-.6,1-.2.3-.5.4-.8.6s-.6.2-.9.2c-.4,0-.8,0-1.2-.2s-.6-.4-.8-.7h0v.8h-1.6v-8.3h1.7ZM186.3,59.8c0-.2-.1-.4-.3-.6s-.3-.3-.4-.4c-.2-.1-.4-.2-.6-.2s-.5,0-.6.2c-.2.1-.3.2-.4.4s-.2.4-.3.6c0,.2,0,.5,0,.7s0,.5,0,.7c0,.2.1.4.3.6s.3.3.4.4c.2.1.4.2.6.2s.5,0,.6-.2c.2-.1.3-.2.4-.4s.2-.4.3-.6c0-.2,0-.5,0-.7s0-.5,0-.7Z"/>
    <path d="M192.3,59.9v-1.2h5.9v1.2h-5.9ZM192.3,62.4v-1.2h5.9v1.2h-5.9Z"/>
    <path d="M202.5,57.2c.1-.4.3-.7.6-1,.2-.3.6-.5.9-.7.4-.2.8-.2,1.3-.2s.7,0,1.1.2c.3.1.6.3.9.5.3.2.5.5.6.8s.2.7.2,1.1,0,.8-.2,1.1-.3.6-.5.8c-.2.2-.5.4-.7.6-.3.2-.6.4-.8.6-.3.2-.6.4-.8.6-.3.2-.5.5-.7.7h3.9v1.4h-6c0-.5,0-.9.2-1.2s.3-.7.6-.9c.2-.3.5-.5.8-.8.3-.2.6-.5,1-.7.2-.1.4-.2.6-.4.2-.1.4-.3.6-.4.2-.2.3-.3.4-.5s.2-.4.2-.7c0-.4-.1-.7-.3-.9-.2-.2-.5-.3-.9-.3s-.4,0-.6.2c-.2.1-.3.3-.4.4-.1.2-.2.4-.2.6,0,.2,0,.4,0,.7h-1.6c0-.5,0-.9.2-1.3Z"/>
    <path d="M208.9,57.4c.2-.5.4-1,.6-1.3.3-.3.6-.6.9-.7.4-.1.7-.2,1.1-.2s.8,0,1.2.2.7.4,1,.7c.3.3.5.8.7,1.3.2.5.2,1.2.2,2s0,1.5-.2,2c-.2.5-.4,1-.7,1.3-.3.3-.6.6-1,.7s-.7.2-1.2.2-.8,0-1.1-.2c-.4-.1-.7-.4-.9-.7-.3-.3-.5-.8-.6-1.3-.2-.5-.2-1.2-.2-2s0-1.5.2-2ZM210.3,60.2c0,.3,0,.6.1,1,0,.3.2.6.4.8.2.2.4.3.8.3s.6-.1.8-.3c.2-.2.3-.5.4-.8,0-.3.1-.6.1-1s0-.6,0-.8,0-.3,0-.5c0-.2,0-.4,0-.6,0-.2,0-.4-.1-.6,0-.2-.1-.4-.2-.6-.1-.2-.2-.3-.4-.4s-.3-.2-.6-.2-.4,0-.6.2-.3.2-.4.4c0,.2-.2.3-.2.6,0,.2,0,.4-.1.6,0,.2,0,.4,0,.6,0,.2,0,.4,0,.5,0,.2,0,.5,0,.8Z"/>
  </g>
  <path class="st2" d="M129.2,31.3"/>
  <g class="st50">
    <g class="st4">
      <g class="st53">
        <g class="st52">
          <polygon points="126.5 69 146.9 72.6 175.9 72.6 189 60.2 169.4 54.4 154.8 54.4 126.5 69"/>
        </g>
      </g>
    </g>
  </g>
  <g class="st12">
    <polygon class="st55" points="127.3 38.5 140.3 26.1 170.1 26.1 170.1 55.2 157 68.2 127.3 68.2 127.3 38.5"/>
    <polygon class="st1" points="127.3 38.5 140.3 26.1 170.1 26.1 170.1 55.2 157 68.2 127.3 68.2 127.3 38.5"/>
    <polygon class="st6" points="157 67.1 157 38.6 169.4 26.8 169.4 55 157 67.1"/>
  </g>
  <g>
    <rect class="st56" x="128" y="38.5" width="29" height="29"/>
    <line class="st2" x1="140.5" y1="26.8" x2="140.5" y2="38.5"/>
    <line class="st2" x1="127.3" y1="38.6" x2="157" y2="38.6"/>
    <polyline class="st2" points="156.8 67.5 156.8 38.6 169.9 26.3"/>
    <polygon points="142.5 29 145.4 29 145.4 16.7 148.3 16.7 148.3 29 151.2 29 146.9 35.6 142.5 29"/>
    <polygon class="st3" points="142.5 29 145.4 29 145.4 16.7 148.3 16.7 148.3 29 151.2 29 146.9 35.6 142.5 29"/>
    <polygon class="st5" points="142.5 29 145.4 29 145.4 16.7 148.3 16.7 148.3 29 151.2 29 146.9 35.6 142.5 29"/>
  </g>
  <g class="st9">
    <g class="st4">
      <g class="st16">
        <g class="st14">
          <polygon points="128.3 38.7 140.6 38.7 140.6 27 128.3 38.7"/>
        </g>
      </g>
    </g>
  </g>
  <g>
    <path d="M243.9,10.2c.2,0,.4,0,.5-.1s.3-.2.4-.3c.1-.1.2-.3.2-.5,0-.3-.1-.6-.3-.8-.2-.2-.5-.3-.8-.3s-.7.1-.9.4c-.2.3-.3.6-.3,1h-1.5c0-.4,0-.8.2-1.1s.3-.6.5-.8c.2-.2.5-.4.8-.5.3-.1.7-.2,1.1-.2s.6,0,.9.1c.3,0,.6.2.8.4.2.2.4.4.6.7.2.3.2.6.2.9s0,.7-.3,1-.4.5-.8.6h0c.4.1.8.3,1,.6.2.3.4.7.4,1.1s0,.8-.2,1.1-.4.6-.6.8c-.3.2-.6.4-.9.5-.3.1-.7.2-1.1.2s-.8,0-1.2-.2c-.4-.1-.7-.3-.9-.5-.2-.2-.4-.5-.6-.9s-.2-.7-.2-1.2h1.5c0,.2,0,.4,0,.6s.1.3.3.5c.1.1.2.2.4.3.2,0,.4.1.6.1.4,0,.6-.1.9-.3.2-.2.4-.5.4-.9s0-.5-.2-.7c-.1-.2-.3-.3-.4-.3-.2,0-.4-.1-.6-.1-.2,0-.4,0-.6,0v-1.1c.2,0,.3,0,.5,0Z"/>
    <path d="M247.4,9.1c.2-.5.4-.9.6-1.2s.6-.5.9-.7c.3-.1.7-.2,1.1-.2s.8,0,1.1.2c.3.1.6.4.9.7.3.3.5.7.6,1.2.1.5.2,1.1.2,1.9s0,1.4-.2,1.9c-.2.5-.4.9-.6,1.2-.3.3-.6.5-.9.7-.3.1-.7.2-1.1.2s-.7,0-1.1-.2c-.3-.1-.6-.4-.9-.7-.3-.3-.5-.7-.6-1.2s-.2-1.2-.2-1.9,0-1.4.2-1.9ZM248.7,11.7c0,.3,0,.6.1.9,0,.3.2.5.4.7s.4.3.7.3.6-.1.7-.3c.2-.2.3-.5.4-.7,0-.3.1-.6.1-.9s0-.6,0-.8,0-.3,0-.5,0-.4,0-.6c0-.2,0-.4-.1-.6,0-.2-.1-.4-.2-.5,0-.2-.2-.3-.4-.4s-.3-.1-.5-.1-.4,0-.5.1c-.1,0-.3.2-.4.4,0,.2-.2.3-.2.5,0,.2,0,.4-.1.6,0,.2,0,.4,0,.6s0,.3,0,.5c0,.2,0,.5,0,.8Z"/>
  </g>
  <g>
    <path d="M286.1,58.6c-.3,0-.5,0-.7.2-.2.1-.3.3-.4.5-.1.2-.2.4-.2.6,0,.2,0,.5,0,.7s0,.4,0,.7c0,.2.1.4.2.6.1.2.2.3.4.4.2.1.4.2.7.2.4,0,.7-.1.9-.3.2-.2.3-.5.4-.9h1.6c-.1.8-.4,1.4-.9,1.8-.5.4-1.2.6-2,.6s-.9,0-1.2-.2c-.4-.2-.7-.4-1-.6-.3-.3-.5-.6-.6-1-.1-.4-.2-.8-.2-1.2s0-.9.2-1.3.3-.7.6-1c.3-.3.6-.5,1-.7.4-.2.8-.2,1.3-.2s.7,0,1,.1.6.2.9.4c.3.2.5.4.6.7.2.3.3.6.3,1h-1.6c-.1-.7-.5-1-1.2-1Z"/>
    <path d="M293,59.9v-1.2h5.9v1.2h-5.9ZM293,62.4v-1.2h5.9v1.2h-5.9Z"/>
    <path d="M305.9,58.7c.2,0,.4,0,.6-.1.2,0,.3-.2.4-.3s.2-.3.2-.6c0-.3-.1-.6-.3-.8-.2-.2-.5-.3-.8-.3s-.7.1-.9.4c-.2.3-.3.6-.3,1h-1.6c0-.4,0-.8.2-1.1s.3-.6.6-.9.5-.4.9-.6.7-.2,1.1-.2.7,0,1,.1c.3,0,.6.2.9.4.3.2.5.4.6.7.2.3.2.6.2,1s0,.7-.3,1c-.2.3-.5.5-.9.6h0c.5.1.8.3,1.1.7.3.3.4.7.4,1.2s0,.8-.2,1.1-.4.6-.7.8c-.3.2-.6.4-1,.5s-.7.2-1.1.2-.9,0-1.3-.2c-.4-.1-.7-.3-1-.6-.3-.3-.5-.6-.6-.9-.1-.4-.2-.8-.2-1.3h1.6c0,.2,0,.4.1.6,0,.2.2.4.3.5.1.1.3.3.4.3.2,0,.4.1.6.1.4,0,.7-.1.9-.3.3-.2.4-.5.4-.9s0-.5-.2-.7-.3-.3-.5-.4c-.2,0-.4-.1-.6-.1-.2,0-.4,0-.6,0v-1.2c.2,0,.4,0,.6,0Z"/>
    <path d="M309.7,57.4c.2-.5.4-1,.6-1.3.3-.3.6-.6.9-.7.4-.1.7-.2,1.1-.2s.8,0,1.2.2.7.4,1,.7c.3.3.5.8.7,1.3.2.5.2,1.2.2,2s0,1.5-.2,2c-.2.5-.4,1-.7,1.3-.3.3-.6.6-1,.7s-.7.2-1.2.2-.8,0-1.1-.2c-.4-.1-.7-.4-.9-.7-.3-.3-.5-.8-.6-1.3-.2-.5-.2-1.2-.2-2s0-1.5.2-2ZM311.1,60.2c0,.3,0,.6.1,1,0,.3.2.6.4.8.2.2.4.3.8.3s.6-.1.8-.3c.2-.2.3-.5.4-.8,0-.3.1-.6.1-1s0-.6,0-.8,0-.3,0-.5c0-.2,0-.4,0-.6,0-.2,0-.4-.1-.6,0-.2-.1-.4-.2-.6-.1-.2-.2-.3-.4-.4s-.3-.2-.6-.2-.4,0-.6.2-.3.2-.4.4c0,.2-.2.3-.2.6,0,.2,0,.4-.1.6,0,.2,0,.4,0,.6,0,.2,0,.4,0,.5,0,.2,0,.5,0,.8Z"/>
  </g>
  <g class="st15">
    <g class="st4">
      <g class="st13">
        <g class="st10">
          <polygon points="227.7 69 248 72.6 277.1 72.6 290.2 60.2 270.6 54.4 256 54.4 227.7 69"/>
        </g>
      </g>
    </g>
  </g>
  <g class="st7">
    <polygon class="st55" points="228.4 38.5 241.5 26.1 271.3 26.1 271.3 55.2 258.2 68.2 228.4 68.2 228.4 38.5"/>
    <polygon class="st1" points="228.4 38.5 241.5 26.1 271.3 26.1 271.3 55.2 258.2 68.2 228.4 68.2 228.4 38.5"/>
    <polygon class="st6" points="258.2 67.1 258.2 38.6 270.6 26.8 270.6 55 258.2 67.1"/>
  </g>
  <g>
    <rect class="st56" x="229.2" y="38.5" width="29" height="29"/>
    <line class="st2" x1="241.7" y1="26.8" x2="241.7" y2="38.5"/>
    <line class="st2" x1="228.4" y1="38.6" x2="258.2" y2="38.6"/>
    <polyline class="st2" points="258 67.5 258 38.6 271.1 26.3"/>
    <polygon points="243.7 29 246.6 29 246.6 16.7 249.5 16.7 249.5 29 252.4 29 248 35.6 243.7 29"/>
    <polygon class="st3" points="243.7 29 246.6 29 246.6 16.7 249.5 16.7 249.5 29 252.4 29 248 35.6 243.7 29"/>
    <polygon class="st5" points="243.7 29 246.6 29 246.6 16.7 249.5 16.7 249.5 29 252.4 29 248 35.6 243.7 29"/>
  </g>
  <g class="st11">
    <g class="st4">
      <g class="st8">
        <g class="st31">
          <polygon points="229.4 38.7 241.8 38.7 241.8 27 229.4 38.7"/>
        </g>
      </g>
    </g>
  </g>
  <path d="M39.9,53.1c0-.4.1-.7.3-1,.2-.3.4-.5.7-.6.3-.2.6-.3.9-.3.3,0,.7,0,1,0s.6,0,.9,0c.3,0,.6.1.9.2.3.1.5.3.6.5.2.2.2.5.2.9v3.1c0,.3,0,.5,0,.8,0,.2,0,.4.2.6h-1.7c0,0,0-.2,0-.3,0,0,0-.2,0-.3-.3.3-.6.5-.9.6s-.7.2-1.1.2-.6,0-.8-.1c-.2,0-.5-.2-.7-.3-.2-.1-.3-.3-.4-.6-.1-.2-.2-.5-.2-.8s0-.6.2-.8c.1-.2.3-.4.5-.5.2-.1.4-.2.7-.3.2,0,.5-.1.7-.2s.5,0,.7,0c.2,0,.5,0,.6-.1.2,0,.3-.1.4-.2.1,0,.2-.2.2-.4,0-.2,0-.3,0-.4s-.1-.2-.2-.2c0,0-.2,0-.3-.1-.1,0-.3,0-.4,0-.3,0-.6,0-.8.2-.2.1-.3.4-.3.7h-1.7ZM43.7,54.3c0,0-.2.1-.3.1-.1,0-.2,0-.3,0-.1,0-.2,0-.4,0-.1,0-.3,0-.4,0-.1,0-.2,0-.4,0-.1,0-.2,0-.3.2,0,0-.2.1-.2.2s0,.2,0,.4,0,.3,0,.4.1.2.2.2c0,0,.2,0,.3.1.1,0,.3,0,.4,0,.3,0,.6,0,.8-.2.2-.1.3-.2.4-.4s.1-.3.2-.5,0-.3,0-.4v-.6Z"/>
  <path d="M140.8,49.1v3h0c.2-.3.5-.5.8-.7.3-.1.7-.2,1.1-.2s.6,0,.9.2.6.3.8.6.4.6.6,1c.1.4.2.9.2,1.4s0,1-.2,1.4c-.1.4-.3.7-.6,1s-.5.4-.8.6-.6.2-.9.2c-.4,0-.8,0-1.2-.2s-.6-.4-.8-.7h0v.8h-1.6v-8.3h1.7ZM143.5,53.6c0-.2-.1-.4-.3-.6-.1-.2-.3-.3-.4-.4-.2-.1-.4-.2-.6-.2s-.5,0-.6.2c-.2.1-.3.2-.4.4-.1.2-.2.4-.3.6,0,.2,0,.5,0,.7s0,.5,0,.7c0,.2.1.4.3.6.1.2.3.3.4.4.2.1.4.2.6.2s.5,0,.6-.2c.2-.1.3-.2.4-.4.1-.2.2-.4.3-.6,0-.2,0-.5,0-.7s0-.5,0-.7Z"/>
  <path d="M243.1,52.3c-.3,0-.5,0-.7.2-.2.1-.3.3-.4.5-.1.2-.2.4-.2.6,0,.2,0,.5,0,.7s0,.4,0,.7c0,.2.1.4.2.6.1.2.2.3.4.4.2.1.4.2.7.2.4,0,.7-.1.9-.3.2-.2.3-.5.4-.9h1.6c-.1.8-.4,1.4-.9,1.8-.5.4-1.2.6-2,.6s-.9,0-1.2-.2c-.4-.2-.7-.4-1-.6s-.5-.6-.6-1c-.1-.4-.2-.8-.2-1.2s0-.9.2-1.3.3-.7.6-1c.3-.3.6-.5,1-.7s.8-.2,1.3-.2.7,0,1,.1c.3,0,.6.2.9.4.3.2.5.4.6.7.2.3.3.6.3,1h-1.6c-.1-.7-.5-1-1.2-1Z"/>
  <path d="M244.1,124.7v1.2h-2.2v2.2h-1.2v-2.2h-2.2v-1.2h2.2v-2.2h1.2v2.2h2.2Z"/>
  <path d="M316,124.7v1.2h-2.2v2.2h-1.2v-2.2h-2.2v-1.2h2.2v-2.2h1.2v2.2h2.2Z"/>
  <path class="st2" d="M218.8,108.4"/>
  <g class="st32">
    <g class="st4">
      <g class="st33">
        <g class="st34">
          <polygon points="182.7 144.6 203 148.2 232 148.2 245.1 135.9 225.5 130.1 211 130.1 182.7 144.6"/>
        </g>
      </g>
    </g>
  </g>
  <g class="st35">
    <polygon class="st55" points="183.4 114.1 196.5 101.8 226.2 101.8 226.2 130.8 213.2 143.9 183.4 143.9 183.4 114.1"/>
    <polygon class="st1" points="183.4 114.1 196.5 101.8 226.2 101.8 226.2 130.8 213.2 143.9 183.4 143.9 183.4 114.1"/>
    <polygon class="st6" points="213.2 142.8 213.2 114.3 225.5 102.5 225.5 130.6 213.2 142.8"/>
  </g>
  <rect class="st56" x="184.1" y="114.1" width="29" height="29"/>
  <line class="st2" x1="196.6" y1="102.5" x2="196.6" y2="114.1"/>
  <line class="st2" x1="183.4" y1="114.3" x2="213.2" y2="114.3"/>
  <polyline class="st2" points="213 143.2 213 114.3 226 102"/>
  <g>
    <polygon points="157.4 120.4 157.4 123.3 169.7 123.3 169.7 126.2 157.4 126.2 157.4 129.1 150.8 124.7 157.4 120.4"/>
    <polygon class="st3" points="157.4 120.4 157.4 123.3 169.7 123.3 169.7 126.2 157.4 126.2 157.4 129.1 150.8 124.7 157.4 120.4"/>
    <polygon class="st5" points="157.4 120.4 157.4 123.3 169.7 123.3 169.7 126.2 157.4 126.2 157.4 129.1 150.8 124.7 157.4 120.4"/>
  </g>
  <g class="st36">
    <g class="st4">
      <g class="st29">
        <g class="st27">
          <polygon points="183.9 114.3 196.3 114.3 196.3 102.7 183.9 114.3"/>
        </g>
      </g>
    </g>
  </g>
  <path class="st2" d="M255.9,106.9"/>
  <g class="st30">
    <g class="st4">
      <g class="st28">
        <g class="st23">
          <polygon points="253.3 144.6 273.6 148.2 302.7 148.2 315.7 135.9 296.1 130.1 281.6 130.1 253.3 144.6"/>
        </g>
      </g>
    </g>
  </g>
  <g class="st17">
    <polygon class="st55" points="254 114.1 267.1 101.8 296.9 101.8 296.9 130.8 283.8 143.9 254 143.9 254 114.1"/>
    <polygon class="st1" points="254 114.1 267.1 101.8 296.9 101.8 296.9 130.8 283.8 143.9 254 143.9 254 114.1"/>
    <polygon class="st6" points="283.8 142.8 283.8 114.3 296.1 102.5 296.1 130.6 283.8 142.8"/>
  </g>
  <rect class="st56" x="254.7" y="114.1" width="29" height="29"/>
  <line class="st2" x1="267.3" y1="102.5" x2="267.3" y2="114.1"/>
  <line class="st2" x1="254" y1="114.3" x2="283.8" y2="114.3"/>
  <polyline class="st2" points="283.6 143.2 283.6 114.3 296.7 102"/>
  <g class="st18">
    <g class="st4">
      <g class="st19">
        <g class="st20">
          <polygon points="255 114.3 267.4 114.3 267.4 102.7 255 114.3"/>
        </g>
      </g>
    </g>
  </g>
  <g class="st21">
    <g class="st4">
      <g class="st24">
        <g class="st25">
          <polygon points="324.2 144.6 344.5 148.2 373.5 148.2 386.6 135.9 367 130.1 352.5 130.1 324.2 144.6"/>
        </g>
      </g>
    </g>
  </g>
  <g class="st26">
    <polygon class="st55" points="324.9 114.1 338 101.8 367.7 101.8 367.7 130.8 354.7 143.9 324.9 143.9 324.9 114.1"/>
    <polygon class="st1" points="324.9 114.1 338 101.8 367.7 101.8 367.7 130.8 354.7 143.9 324.9 143.9 324.9 114.1"/>
    <polygon class="st6" points="354.7 142.8 354.7 114.3 367 102.5 367 130.6 354.7 142.8"/>
  </g>
  <rect class="st56" x="325.6" y="113.1" width="29" height="30.1"/>
  <line class="st2" x1="338.1" y1="101" x2="338.1" y2="113.1"/>
  <line class="st2" x1="324.9" y1="113.2" x2="354.7" y2="113.2"/>
  <polyline class="st2" points="354.5 144.2 354.5 114.2 367.6 101.5"/>
  <g class="st22">
    <g class="st4">
      <g class="st42">
        <g class="st37">
          <polygon points="325.9 114.3 338.3 114.3 338.3 102.7 325.9 114.3"/>
        </g>
      </g>
    </g>
  </g>
  <path d="M195.7,128.7c0-.4.1-.7.3-1,.2-.3.4-.5.7-.6.3-.2.6-.3.9-.3.3,0,.7,0,1,0s.6,0,.9,0c.3,0,.6.1.8.2s.5.3.6.5c.2.2.2.5.2.9v3.1c0,.3,0,.5,0,.8,0,.2,0,.4.2.6h-1.7c0,0,0-.2,0-.3,0,0,0-.2,0-.3-.3.3-.6.5-.9.6-.4.1-.7.2-1.1.2s-.6,0-.8-.1c-.2,0-.5-.2-.7-.3-.2-.1-.3-.3-.4-.6-.1-.2-.2-.5-.2-.8s0-.6.2-.8c.1-.2.3-.4.5-.5.2-.1.4-.2.7-.3.2,0,.5-.1.7-.2s.5,0,.7,0c.2,0,.5,0,.6-.1.2,0,.3-.1.4-.2.1,0,.2-.2.2-.4,0-.2,0-.3,0-.4,0-.1-.1-.2-.2-.2,0,0-.2,0-.3-.1-.1,0-.3,0-.4,0-.3,0-.6,0-.8.2-.2.1-.3.4-.3.7h-1.7ZM199.5,129.9c0,0-.2.1-.3.1-.1,0-.2,0-.3,0s-.2,0-.4,0c-.1,0-.3,0-.4,0-.1,0-.2,0-.4,0-.1,0-.2,0-.3.2,0,0-.2.1-.2.2s0,.2,0,.4,0,.3,0,.4.1.2.2.2c0,0,.2,0,.3.1.1,0,.3,0,.4,0,.3,0,.6,0,.8-.2.2-.1.3-.2.4-.4,0-.2.1-.3.2-.5s0-.3,0-.4v-.6Z"/>
  <path class="st2" d="M62.9,108.4"/>
  <g class="st38">
    <g class="st4">
      <g class="st39">
        <g class="st40">
          <polygon points="26.8 144.6 47.2 148.2 76.2 148.2 89.3 135.9 69.7 130.1 55.1 130.1 26.8 144.6"/>
        </g>
      </g>
    </g>
  </g>
  <g class="st41">
    <polygon class="st55" points="27.6 114.1 40.6 101.8 70.4 101.8 70.4 130.8 57.3 143.9 27.6 143.9 27.6 114.1"/>
    <polygon class="st1" points="27.6 114.1 40.6 101.8 70.4 101.8 70.4 130.8 57.3 143.9 27.6 143.9 27.6 114.1"/>
    <polygon class="st6" points="57.3 142.8 57.3 114.3 69.7 102.5 69.7 130.6 57.3 142.8"/>
  </g>
  <rect class="st56" x="28.3" y="114.1" width="29" height="29"/>
  <line class="st2" x1="40.8" y1="102.5" x2="40.8" y2="114.1"/>
  <line class="st2" x1="27.6" y1="114.3" x2="57.3" y2="114.3"/>
  <polyline class="st2" points="57.1 143.2 57.1 114.3 70.2 102"/>
  <g class="st43">
    <g class="st4">
      <g class="st44">
        <g class="st45">
          <polygon points="28.1 114.3 40.4 114.3 40.4 102.7 28.1 114.3"/>
        </g>
      </g>
    </g>
  </g>
  <g>
    <path d="M30.3,129.5c0,0,0,0,.1.1,0,0,.1,0,.2,0s.1,0,.2,0,.1,0,.2,0,.1,0,.1,0,0,0,.1,0c0,0,0,0,0-.2,0-.1,0-.2-.2-.2-.1,0-.3-.1-.6-.2-.1,0-.2,0-.3,0,0,0-.2,0-.3-.1s-.1-.1-.2-.2c0,0,0-.2,0-.3,0-.2,0-.3,0-.4,0-.1.2-.2.3-.3.1,0,.2-.1.4-.1.1,0,.3,0,.4,0s.3,0,.4,0c.1,0,.2,0,.4.1.1,0,.2.1.3.3,0,.1.1.2.1.4h-.7c0-.1,0-.2-.2-.3,0,0-.2,0-.3,0s0,0-.1,0c0,0,0,0-.1,0,0,0,0,0,0,0,0,0,0,0,0,.1s0,.1,0,.2c0,0,.1,0,.2,0s.2,0,.3,0c0,0,.2,0,.3,0,.1,0,.2,0,.3,0s.2,0,.3.1c0,0,.1.1.2.2,0,0,0,.2,0,.3,0,.2,0,.3-.1.4s-.2.2-.3.3-.2.1-.4.1-.3,0-.4,0-.3,0-.4,0c-.1,0-.3,0-.4-.1-.1,0-.2-.2-.3-.3,0-.1-.1-.3-.1-.4h.7c0,0,0,.1,0,.2Z"/>
    <path d="M34.1,130.1v-.4h0c0,.2-.2.3-.4.3-.1,0-.3.1-.4.1s-.3,0-.5,0-.2-.1-.3-.2-.1-.2-.1-.3,0-.3,0-.4v-1.6h.7v1.5c0,.2,0,.4.1.5,0,.1.2.2.4.2s.3,0,.4-.2c0-.1.1-.3.1-.6v-1.4h.7v2.6h-.7Z"/>
    <path d="M36,127.5v.3h0c0-.1.2-.2.3-.3.1,0,.3-.1.5-.1s.3,0,.4,0c.1,0,.2.2.3.3,0-.1.2-.2.3-.3.1,0,.3-.1.5-.1s.3,0,.4,0c.1,0,.2,0,.3.2,0,0,.1.2.2.3s0,.3,0,.4v1.7h-.7v-1.5c0,0,0-.2,0-.2s0-.1,0-.2c0,0,0-.1-.1-.1,0,0-.1,0-.2,0s-.2,0-.2,0c0,0-.1,0-.1.1s0,.1,0,.2c0,0,0,.2,0,.2v1.4h-.7v-1.5c0,0,0-.2,0-.2,0,0,0-.1,0-.2,0,0,0-.1-.1-.2,0,0-.1,0-.3,0s0,0-.1,0c0,0-.1,0-.2,0s0,.1-.1.2c0,0,0,.2,0,.3v1.5h-.7v-2.6h.7Z"/>
    <path d="M40.6,127.5v.3h0c0-.1.2-.2.3-.3.1,0,.3-.1.5-.1s.3,0,.4,0c.1,0,.2.2.3.3,0-.1.2-.2.3-.3.1,0,.3-.1.5-.1s.3,0,.4,0c.1,0,.2,0,.3.2,0,0,.1.2.2.3s0,.3,0,.4v1.7h-.7v-1.5c0,0,0-.2,0-.2s0-.1,0-.2c0,0,0-.1-.1-.1,0,0-.1,0-.2,0s-.2,0-.2,0c0,0-.1,0-.1.1s0,.1,0,.2c0,0,0,.2,0,.2v1.4h-.7v-1.5c0,0,0-.2,0-.2,0,0,0-.1,0-.2,0,0,0-.1-.1-.2,0,0-.1,0-.3,0s0,0-.1,0c0,0-.1,0-.2,0s0,.1-.1.2c0,0,0,.2,0,.3v1.5h-.7v-2.6h.7Z"/>
    <path d="M44.4,128.3c0-.2,0-.3.1-.4,0-.1.2-.2.3-.3.1,0,.2-.1.4-.1s.3,0,.4,0,.3,0,.4,0c.1,0,.3,0,.4.1.1,0,.2.1.3.2,0,0,.1.2.1.4v1.3c0,.1,0,.2,0,.3,0,.1,0,.2,0,.2h-.7s0,0,0-.1c0,0,0,0,0-.1-.1.1-.2.2-.4.2s-.3,0-.5,0-.2,0-.3,0c-.1,0-.2,0-.3-.1s-.1-.1-.2-.2,0-.2,0-.3,0-.3,0-.4.1-.2.2-.2.2,0,.3-.1.2,0,.3,0c.1,0,.2,0,.3,0,.1,0,.2,0,.3,0,0,0,.1,0,.2,0,0,0,0,0,0-.2,0,0,0-.1,0-.2,0,0,0,0,0-.1,0,0,0,0-.1,0,0,0-.1,0-.2,0-.1,0-.2,0-.3,0,0,0-.1.2-.1.3h-.7ZM46,128.8s0,0-.1,0c0,0,0,0-.1,0s-.1,0-.2,0-.1,0-.2,0c0,0-.1,0-.2,0s0,0-.1,0c0,0,0,0,0,.1,0,0,0,0,0,.2s0,.1,0,.2c0,0,0,0,0,.1,0,0,0,0,.1,0,0,0,.1,0,.2,0,.1,0,.2,0,.3,0,0,0,.1-.1.2-.2,0,0,0-.1,0-.2s0-.1,0-.2v-.3Z"/>
    <path d="M48.7,127.5v.5h-.5v1.3c0,.1,0,.2,0,.2s.1,0,.2,0,0,0,.1,0c0,0,0,0,.1,0v.5c0,0-.1,0-.2,0,0,0-.1,0-.2,0-.1,0-.2,0-.3,0,0,0-.2,0-.3,0,0,0-.1-.1-.2-.2,0,0,0-.2,0-.3v-1.5h-.4v-.5h.4v-.8h.7v.8h.5Z"/>
    <path d="M49.1,127.1v-.6h.7v.6h-.7ZM49.8,127.5v2.6h-.7v-2.6h.7Z"/>
    <path d="M50.3,128.2c0-.2.2-.3.3-.4s.3-.2.4-.3c.2,0,.3,0,.5,0s.4,0,.6,0c.2,0,.3.2.4.3s.2.3.3.4,0,.4,0,.6,0,.4,0,.6c0,.2-.2.3-.3.4s-.3.2-.4.3-.3,0-.6,0-.4,0-.5,0c-.2,0-.3-.2-.4-.3s-.2-.3-.3-.4c0-.2,0-.4,0-.6s0-.4,0-.6ZM51,129.1c0,0,0,.2.1.3,0,0,.1.1.2.2s.2,0,.3,0,.2,0,.3,0c0,0,.1-.1.2-.2s0-.2.1-.3,0-.2,0-.3,0-.2,0-.3c0-.1,0-.2-.1-.3,0,0-.1-.1-.2-.2,0,0-.2,0-.3,0s-.2,0-.3,0c0,0-.1.1-.2.2,0,0,0,.2-.1.3,0,0,0,.2,0,.3s0,.2,0,.3Z"/>
    <path d="M54.1,127.5v.4h0c0-.2.2-.3.4-.3.1,0,.3-.1.4-.1s.3,0,.5,0c.1,0,.2.1.3.2,0,0,.1.2.1.3s0,.3,0,.4v1.6h-.7v-1.5c0-.2,0-.4-.1-.5,0-.1-.2-.2-.4-.2s-.3,0-.4.2c0,.1-.1.3-.1.6v1.4h-.7v-2.6h.7Z"/>
  </g>
  <path d="M267.6,124.7v3h0c.2-.3.5-.5.8-.7s.7-.2,1.1-.2.6,0,.9.2.6.3.8.6c.2.3.4.6.6,1,.1.4.2.9.2,1.4s0,1-.2,1.4c-.1.4-.3.7-.6,1-.2.3-.5.4-.8.6s-.6.2-.9.2c-.4,0-.8,0-1.2-.2-.3-.1-.6-.4-.8-.7h0v.8h-1.6v-8.3h1.7ZM270.2,129.3c0-.2-.1-.4-.3-.6-.1-.2-.3-.3-.4-.4-.2-.1-.4-.2-.6-.2s-.5,0-.6.2c-.2.1-.3.2-.4.4s-.2.4-.3.6c0,.2,0,.5,0,.7s0,.5,0,.7c0,.2.1.4.3.6s.3.3.4.4c.2.1.4.2.6.2s.5,0,.6-.2c.2-.1.3-.2.4-.4.1-.2.2-.4.3-.6,0-.2,0-.5,0-.7s0-.5,0-.7Z"/>
  <path d="M339.6,128c-.3,0-.5,0-.7.2-.2.1-.3.3-.4.5-.1.2-.2.4-.2.6,0,.2,0,.5,0,.7s0,.4,0,.7c0,.2.1.4.2.6.1.2.2.3.4.4.2.1.4.2.7.2.4,0,.7-.1.9-.3.2-.2.3-.5.4-.9h1.6c-.1.8-.4,1.4-.9,1.8-.5.4-1.2.6-2,.6s-.9,0-1.2-.2c-.4-.2-.7-.4-1-.6-.3-.3-.5-.6-.6-1-.1-.4-.2-.8-.2-1.2s0-.9.2-1.3.3-.7.6-1,.6-.5,1-.7c.4-.2.8-.2,1.3-.2s.7,0,1,.1.6.2.9.4c.3.2.5.4.6.7.2.3.3.6.3,1h-1.6c-.1-.7-.5-1-1.2-1Z"/>
</svg>