<?xml version="1.0" encoding="UTF-8"?>
<svg id="Layer_1" xmlns="http://www.w3.org/2000/svg" version="1.1" viewBox="0 0 618.7 119">
  <!-- Generator: Adobe Illustrator 29.2.1, SVG Export Plug-In . SVG Version: 2.1.0 Build 116)  -->
  <defs>
    <style>
      .st0 {
        stroke: #231f20;
      }

      .st0, .st1 {
        fill: none;
        stroke-miterlimit: 10;
      }

      .st0, .st2 {
        opacity: .5;
      }

      .st3 {
        fill: gray;
      }

      .st1 {
        stroke: #7ec01b;
        stroke-width: 4px;
      }

      .st4 {
        fill: #7ec01b;
      }

      .st5 {
        opacity: .2;
      }

      .st5, .st2 {
        fill: #6abd45;
      }
    </style>
  </defs>
  <rect class="st2" x="201.9" y="5.7" width="151.7" height="15.4"/>
  <rect class="st2" x="195.6" y="27.4" width="28.1" height="15.4" transform="translate(174.5 244.7) rotate(-90)"/>
  <g>
    <path class="st3" d="M409,126.6c-.2.1-.2.1-.4.4-.6.6-1.3,1.3-2.1,1.8v3.8c0,.5,0,.7,0,1h-.8c0-.2,0-.4,0-.9v-3.4c-1.2.7-1.8,1-3.5,1.6-.1-.3-.2-.4-.4-.6,1.7-.4,3.2-1.2,4.7-2.3.8-.6,1.5-1.3,1.7-1.7l.6.4Z"/>
    <path class="st3" d="M411.6,132.5c.7,0,1.8-.3,2.6-.7,1.7-.8,2.9-2.1,3.7-4,.2.3.3.4.5.5-.7,1.6-1.6,2.6-2.7,3.4-.9.6-1.9,1-3.4,1.3-.2,0-.3,0-.5.1l-.2-.8ZM412.2,126.9c1,.6,1.5,1.1,2.2,1.7l-.5.6c-.6-.7-1.4-1.3-2.1-1.8l.4-.5Z"/>
    <path class="st3" d="M424.3,129.3c-.1,2.3-.9,3.4-2.9,4.2-.1-.3-.2-.4-.4-.6,1.9-.6,2.6-1.6,2.6-3.6h-2.4c-.6,0-.8,0-1,0v-.7c.3,0,.5,0,1,0h5.3c.6,0,.7,0,1,0v.7c-.3,0-.5,0-1,0h-2.2ZM421,126.5c.3,0,.5,0,1,0h2.7c.5,0,.7,0,1,0v.6c-.1,0-.5,0-1,0h-2.7c-.6,0-.8,0-1,0v-.7ZM426.3,125.7c.4.5.6.9.9,1.4l-.5.3c-.2-.5-.6-1.2-.9-1.5l.5-.2ZM427.4,125.4c.4.5.6.9.9,1.4l-.5.3c-.2-.4-.5-1-.9-1.4l.4-.2Z"/>
    <path class="st3" d="M429.6,132.5c.7,0,1.8-.3,2.6-.7,1.7-.8,2.9-2.1,3.7-4,.2.3.3.4.5.5-.7,1.6-1.6,2.6-2.7,3.4-.9.6-1.9,1-3.4,1.3-.2,0-.3,0-.5.1l-.2-.8ZM430.2,126.9c1,.6,1.5,1.1,2.2,1.7l-.5.6c-.6-.7-1.4-1.3-2.1-1.8l.4-.5Z"/>
    <path class="st3" d="M440,133.6c0-.2,0-.5,0-.9v-5.6c0-.5,0-.7,0-.9h.8c0,.2,0,.4,0,.9v1.7c1.4.5,2.4,1,4,1.9l-.4.7c-.8-.6-2.1-1.3-3.4-1.8-.1,0-.2,0-.3-.2h0c0,.2,0,.3,0,.5v2.7c0,.5,0,.7,0,1h-.8Z"/>
    <path class="st3" d="M447.2,127.3c.2,0,.3,0,.3,0,.1,0,.2,0,.5,0,.5,0,.6,0,1.7-.1h1.4c1.1-.2,1.2-.2,1.5-.2h.5c.8,0,.9,0,1.1-.1v.7c-.3,0-.6,0-1,.1-.6.2-1.2.5-1.7.9-.7.6-1.1,1.3-1.1,2.1s.5,1.4,1.3,1.7c.4.2,1,.3,1.4.3h0v.7c-.2,0-.2,0-.4,0-.9-.2-1.4-.3-1.9-.7-.6-.4-1-1.1-1-1.8s.6-2,1.7-2.8c.3-.2.5-.3.9-.5-.5,0-1,.1-2,.2-1.8.1-2.8.2-3.1.3v-.7ZM453.2,128.7c.4.5.7.9.9,1.4l-.5.3c-.2-.5-.6-1.2-.9-1.4l.5-.2ZM454.2,128.2c.4.5.6.8.9,1.4l-.5.3c-.2-.4-.6-1-.9-1.4l.4-.2Z"/>
    <path class="st3" d="M462.9,127.7c0,0,0,.1-.2.6-.5,1.7-1.2,2.8-2.2,3.7-.8.8-1.7,1.3-2.8,1.7-.1-.3-.2-.4-.4-.6,1.2-.3,2.5-1.1,3.3-2,.7-.8,1.3-1.9,1.6-3.2h-4.6c-.5,0-.7,0-1,0v-.7c.3,0,.5,0,1,0h4.3c.2,0,.3,0,.5,0-.4-.6-.5-.9-.8-1.2l.5-.2c.5.5.8,1,1,1.4l-.3.2.2.3ZM463.2,125.4c.4.5.6.8.9,1.4l-.5.3c-.2-.4-.6-1-.9-1.4l.4-.2Z"/>
    <path class="st3" d="M466.4,132.5v.6h-.7c0-.2,0-.4,0-.7v-4.9c0-.4,0-.5,0-.7.2,0,.4,0,.7,0h4.8c.4,0,.5,0,.7,0,0,.2,0,.3,0,.7v4.9c0,.3,0,.5,0,.7h-.7v-.6h-4.8ZM471.3,127.5h-4.8v4.4h4.8v-4.4Z"/>
    <path class="st3" d="M475.6,128.3c.4.6.6,1,.9,2l-.6.2c-.2-.8-.5-1.4-.8-2l.6-.2ZM480.7,128.3q0,.1-.2.7c-.1.6-.5,1.5-.8,2-.6,1.1-1.6,1.9-3,2.6-.1-.2-.2-.3-.4-.5,1.4-.6,2.2-1.3,2.9-2.4.3-.6.6-1.2.8-1.9,0-.3,0-.5,0-.6h0c0,0,.7,0,.7,0ZM477.4,128c.5.9.6,1.2.9,1.9l-.6.2c-.2-.6-.4-1.3-.8-2l.5-.2Z"/>
    <path class="st3" d="M486.9,126.1q0,.1-.2.4c-.2.5-.3.6-.4.8q.1,0,2.7,0c.3,0,.3,0,.5,0l.4.4c0,.1,0,.1-.2.4-.4,1.3-1,2.5-1.8,3.4-.8.9-1.8,1.7-3.1,2.3-.1-.3-.2-.4-.5-.5,1.4-.6,2.3-1.2,3.2-2.3.7-.8,1.2-1.9,1.5-3h-3c-.5.9-1.3,1.7-2.2,2.4-.2-.2-.2-.3-.5-.5,1-.6,1.6-1.4,2.3-2.5.3-.6.5-1,.6-1.3l.7.2Z"/>
    <path class="st3" d="M499.2,134c-.7-.8-1-1.2-1.3-1.9-.3-.7-.4-1.4-.4-2.2s.1-1.5.4-2.2c.3-.7.6-1.2,1.3-1.9h.8c-.8.8-1.1,1.2-1.4,1.9-.3.7-.5,1.5-.5,2.3s.2,1.6.5,2.3c.3.7.6,1.1,1.4,1.9h-.8Z"/>
    <path class="st3" d="M501.1,128.3c.3,0,1.3-.1,2-.2.2-.7.3-1.5.3-1.9h0c0-.1.7,0,.7,0,0,.2,0,.4-.2.9,0,.3-.1.6-.2,1,.2,0,.3,0,.5,0,.6,0,1,.1,1.3.4.3.3.4.7.4,1.4,0,1.4-.2,2.6-.6,3.1-.2.3-.5.4-.9.4s-.8,0-1.4-.4c0-.1,0-.2,0-.3s0-.2,0-.4c.5.3,1,.4,1.3.4s.4-.1.5-.4c.2-.6.4-1.5.4-2.5s-.3-1.3-1.1-1.3-.3,0-.6,0c-.3,1.4-.7,2.6-1.4,3.8-.1.2-.3.6-.6,1.1l-.6-.4c.3-.4.6-.9.9-1.6.4-.9.7-1.7,1-2.9-.8.1-1.2.2-1.3.2-.2,0-.3,0-.5.1v-.6ZM507.1,127.5c.9,1,1.5,1.9,1.9,3.2l-.6.3c-.3-1.2-1-2.3-1.8-3.2l.5-.3Z"/>
    <path class="st3" d="M510.3,127.6c.3,0,.6,0,1.1,0s.3,0,.5,0c.2-1.1.2-1.3.2-1.7h.7q0,.3-.2.9c0,.3,0,.4-.1.7.7,0,1.2-.2,1.6-.3v.6s0,0-.2,0c-.5,0-1.1.2-1.5.2-.1.7-.4,1.7-.6,2.5-.3,1-.6,1.6-1,2.7l-.7-.3c.7-1.2,1.4-3.2,1.7-5-.2,0-.3,0-.6,0s-.4,0-.7,0h0s0,0-.2,0v-.6ZM514.4,130.9c-.2.2-.2.2-.3.3-.1.2-.2.4-.2.6,0,.5.5.8,1.6.8s1.5-.1,2-.3v.7s0,0-.3,0c-.6.1-1.1.2-1.6.2-1.5,0-2.2-.5-2.2-1.4s.1-.7.6-1.3l.5.3ZM517.2,129.3c-.4,0-.7,0-1.1,0-.8,0-1.4,0-2.3.3v-.6c1-.2,1.6-.3,2.3-.3s.3,0,1,0v.6Z"/>
    <path class="st3" d="M525.9,133.2c-.4-.4-1.1-.9-1.8-1.3-.2,0-.4-.2-.6-.3q0,.2,0,.3c0,.5,0,.8-.2,1-.3.4-.8.6-1.5.6s-1.1-.1-1.4-.4c-.3-.2-.5-.6-.5-.9,0-.6.5-1.1,1.3-1.2.3,0,.5,0,.9,0s.4,0,.8,0t0-.1s0,0,0,0c0,0,0-.3,0-.5,0-.1,0-.3,0-.5-.3,0-.8,0-1.1,0-.5,0-1,0-1.5,0,0,0-.2,0-.2,0h0v-.6c.4,0,1.2.1,2.1.1s.5,0,.8,0v-1.2c-.3,0-.4,0-.6,0-.7,0-1.4,0-2.2,0,0,0-.1,0-.2,0s0,0-.1,0v-.6c.4.1,1.3.2,2.3.2s.5,0,.8,0q0-1.1,0-1.3h.7c0,.2,0,.6,0,1.3,1.2,0,2.2-.2,2.7-.4v.6q-.1,0-.6,0c-.8.1-1.1.2-2.1.2q0,.7,0,1.2c1.2,0,2-.2,2.5-.4v.6c0,0-.2,0-.5,0-.6,0-1.3.2-2,.2q0,.5,0,1.4c.8.2,1.6.6,2.5,1.3.1.1.2.1.3.2l-.4.6ZM522.8,131.5c-.3,0-.5,0-.9,0-.9,0-1.5.3-1.5.8s.4.7,1.2.7.8,0,1-.3c.1-.1.2-.4.2-.8v-.3Z"/>
    <path class="st3" d="M530.4,126.1c0,.2-.1.4-.2.9-.1.9-.3,1.9-.3,2.3h0q0,0,0-.3c.1-.5.3-.9.5-1.3.5-.8,1.1-1.2,1.8-1.2s1.1.3,1.4.8c.4.6.5,1.2.5,2.2,0,1.6-.7,2.9-2.1,3.5s-1,.4-1.6.5c-.1-.3-.2-.4-.4-.6.8-.1,1.3-.3,1.8-.6,1.1-.6,1.5-1.5,1.5-3s-.5-2.3-1.4-2.3-1.3.5-1.8,1.6c-.3.7-.5,1.4-.5,2s0,0,0,.2h-.6c0,0,0-.2,0-.2v-.9c0,0,0-.2,0-.2,0-.9,0-1.7.3-3.3,0-.1,0-.2,0-.3h.7Z"/>
    <path class="st3" d="M536.7,134c.8-.8,1.1-1.2,1.4-1.9.3-.7.5-1.5.5-2.3s-.2-1.6-.5-2.3c-.3-.7-.6-1.1-1.4-1.9h.8c.7.8,1,1.2,1.3,1.9.3.7.4,1.4.4,2.2s-.1,1.5-.4,2.2c-.3.7-.6,1.2-1.3,1.9h-.8Z"/>
    <path class="st3" d="M548.6,127.2c.3-.6.4-.9.4-1.2h.7q0,.2-.2.6c-.1.3-.2.5-.3.6q.1,0,.2,0c1.4,0,2.3-.2,2.8-.3v.6c0,0-.1,0-.3,0-.9.1-1.9.2-3,.2-.3.5-.5.9-.8,1.3,0,.1-.3.3-.3.3,0,0-.1,0-.1,0,0,0,0,0,0,0h0s0,0,0,0q.3-.3.4-.3c.4-.3.9-.4,1.4-.4.7,0,1.1.3,1.2,1,.7-.3,1.2-.4,1.6-.6.4-.2.5-.2.6-.3l.3.6c-.5,0-1.3.4-2.4.8,0,.2,0,.3,0,.5s0,.3,0,.5c0,.2,0,.3,0,.4,0,.1,0,.2,0,.3h-.6c0-.2,0-.7,0-1.3s0-.2,0-.3c-1.2.6-1.7,1-1.7,1.5s.6.9,1.8.9,1.9-.1,2.4-.4v.7c0,0,0,0-.3,0-.7.1-1.5.2-2.2.2-1.6,0-2.4-.5-2.4-1.4s.3-1,.9-1.4c.3-.2.7-.5,1.3-.7,0-.5-.3-.7-.7-.7s-1.3.3-2,1c-.4.3-.5.5-.7.7l-.5-.5c.6-.5,1.4-1.4,2-2.6t0-.1s-.1,0-.2,0c-.1,0-1,0-1.3,0h-.1c0,0,0,0-.2,0v-.6c.3,0,1,0,1.9,0h.1Z"/>
    <path class="st3" d="M555.9,126.7c-.4,0-.5,0-.8,0v-.6c.3,0,.5,0,.8,0h2.8c.3,0,.5,0,.8,0v.6c-.2,0-.4,0-.8,0h-.2v2.2h.3c.4,0,.6,0,.8,0v.6c-.2,0-.4,0-.8,0h-.3v3.4c0,.4,0,.7,0,.9h-.7c0-.3,0-.5,0-.9v-3.4h-1.4c0,.7,0,1.2-.2,1.6-.2,1.1-.6,1.9-1.3,2.7-.2-.2-.2-.3-.5-.4,1-.9,1.4-2.1,1.4-4h-.4c-.3,0-.6,0-.8,0v-.6c.2,0,.5,0,.8,0h.4v-2.2h-.2ZM556.7,129h1.4v-2.2h-1.4v2.2ZM563.1,130.9q-.2.2-.6.7c-.4.4-1,1-1.5,1.4-.5.4-.9.6-1.6.9,0-.2-.2-.3-.4-.5,1.1-.4,2.1-1.1,2.9-2,.3-.3.5-.6.6-.9l.5.4ZM562.5,126.2c-.1,0-.2.2-.5.4-.9.8-1.5,1.3-2.4,1.7-.1-.2-.2-.3-.4-.5.8-.3,1.4-.8,2.1-1.4.4-.3.5-.5.6-.7l.5.4ZM562.8,128.5c-.1,0-.2.2-.4.4-.8.9-1.7,1.5-2.8,2.1-.1-.2-.2-.4-.4-.5.9-.4,1.5-.8,2.3-1.5.3-.3.5-.6.7-.8l.5.4Z"/>
    <path class="st3" d="M571.2,128.8s-.1.2-.3.6c-.5,1.2-.7,1.5-1.2,2.2.3.6.5.9.9,1.2.2.1.3.2.4.2.1,0,.3-.5.4-1.3.2.2.3.3.5.4-.1.6-.2.8-.3,1.1-.1.3-.3.4-.6.4s-.6-.2-.9-.6c-.3-.3-.5-.6-.7-1-.7.8-1.5,1.3-2.5,1.8-.1-.2-.2-.3-.4-.5,1.1-.5,1.9-1,2.7-1.9-.4-1-.7-2.2-.8-3.7h-3.2c0,.8,0,1.1,0,1.5h1.7c.3,0,.5,0,.7,0q0,.2,0,1c0,1-.1,1.7-.3,1.9-.1.3-.3.4-.8.4s-.5,0-.9,0c0-.2,0-.4-.1-.6.5.1.8.1,1.1.1s.4,0,.4-.5c0-.4.1-1.1.1-1.8h-1.8c0,1.2-.1,1.8-.3,2.5-.2.6-.3,1-.7,1.6-.2-.2-.3-.3-.5-.4.3-.5.5-.8.6-1.4.2-.8.3-2,.3-3.8s0-.7,0-1.1c.3,0,.6,0,1.1,0h2.7c0-1.1,0-1.3,0-1.5h.7c0,.2,0,.4,0,.7s0,.3,0,.7h2c.5,0,.7,0,1,0v.6c-.3,0-.5,0-1,0h-1.9c0,1.3.3,2.4.6,3.2.5-.8,1-1.8,1.1-2.5l.6.2ZM570.7,127.1c-.5-.5-.7-.6-1.3-1l.4-.3c.6.3.7.4,1.3.9l-.4.4Z"/>
    <path class="st3" d="M577.3,126.6c0-.2,0-.3,0-.5h.7c0,.3,0,.4,0,1.1h0c1.7,0,2.4,0,2.7,0v.6c-.3,0-.6,0-1.7,0s-.2,0-1,0v1.8c.2.4.2.7.2,1.1,0,.9-.4,1.8-1.2,2.3-.4.3-.8.5-1.4.7-.2-.3-.2-.4-.4-.6.7-.2,1.1-.4,1.5-.7.7-.5,1-1.1,1-1.9,0,.2-.1.3-.2.4-.3.3-.7.5-1.1.5-.9,0-1.5-.6-1.5-1.4s.7-1.5,1.6-1.5.8.1,1,.4c0-.1,0-.2,0-.5s0-.1,0-.2v-.5c-1.8,0-3.6.1-4.2.2v-.7c.1,0,.2,0,.3,0q.3,0,1.7,0c.9,0,1.6,0,2.2,0v-.7ZM576.9,129.3c-.2,0-.4-.1-.6-.1-.6,0-1,.4-1,.9s.4.9.9.9,1.1-.4,1.1-1.1-.1-.5-.4-.6Z"/>
    <path class="st3" d="M583.5,126.6c.3,0,.4,0,.8,0,.7,0,1.9,0,2.8-.1.2,0,.3,0,.4,0l.4.5c-.1,0-.2,0-.5.4-1.2,1.2-2.3,2.2-3,2.6h0c.7-.3,1.4-.5,2.2-.5,1.5,0,2.5.7,2.5,1.9s-1.3,2.3-3.3,2.3-2-.5-2-1.3.6-1.1,1.3-1.1,1.1.3,1.5.7c.2.3.3.5.4.9.9-.3,1.4-.8,1.4-1.6s-.7-1.4-1.9-1.4-2.7.6-3.8,1.5l-.4-.6c.3-.2.6-.4,1.3-.9,1-.8,2.4-2,3-2.6q0,0,.1-.1s0,0,0,0h0s0,0,0,0t0,0c-.3,0-1.4.1-2.7.2-.2,0-.3,0-.5,0v-.7ZM585.2,131.7c-.5,0-.7.2-.7.6s.1.4.4.5c.2.1.6.2,1,.2s.3,0,.7,0c-.2-.8-.6-1.3-1.3-1.3Z"/>
  </g>
  <g>
    <path d="M202.6,9.6v-1.4h1.7v1.4h-1.7ZM204.3,10.5v6.2h-1.7v-6.2h1.7Z"/>
    <path d="M205,11.7v-1.1h1v-.5c0-.6.2-1,.5-1.4.3-.4.9-.5,1.6-.5s.3,0,.5,0c.2,0,.3,0,.4,0v1.3c-.2,0-.4,0-.6,0s-.4,0-.5.2-.1.3-.1.5v.4h1.2v1.1h-1.2v5.1h-1.7v-5.1h-1Z"/>
    <path d="M214.4,15.2c0,.1.2.2.3.3s.3.1.4.2c.2,0,.3,0,.5,0s.2,0,.4,0c.1,0,.3,0,.4-.1.1,0,.2-.1.3-.2,0,0,.1-.2.1-.4,0-.3-.2-.4-.5-.6-.3-.1-.8-.3-1.4-.4-.2,0-.5-.1-.7-.2s-.4-.2-.6-.3c-.2-.1-.3-.3-.4-.5-.1-.2-.2-.4-.2-.7,0-.4,0-.7.2-1,.2-.3.4-.5.6-.6.3-.1.5-.3.9-.3.3,0,.6,0,1,0s.7,0,1,0,.6.2.8.3c.2.2.5.4.6.6s.3.6.3,1h-1.6c0-.3-.1-.5-.4-.7-.2-.1-.5-.2-.8-.2s-.2,0-.3,0c-.1,0-.2,0-.3,0,0,0-.2,0-.2.2s0,.2,0,.3,0,.3.2.4c.1,0,.3.2.4.2.2,0,.4.1.6.2.2,0,.5.1.7.2.2,0,.5.1.7.2s.4.2.6.3.3.3.4.5c.1.2.2.4.2.7,0,.4,0,.8-.2,1-.2.3-.4.5-.6.7s-.6.3-.9.4c-.3,0-.7.1-1,.1s-.7,0-1.1-.1c-.3,0-.6-.2-.9-.4s-.5-.4-.7-.7-.3-.6-.3-1h1.6c0,.2,0,.3.1.5Z"/>
    <path d="M219.3,12.4c0-.4.1-.7.3-1,.2-.3.4-.5.7-.6.3-.2.6-.3.9-.3.3,0,.7-.1,1-.1s.6,0,.9,0c.3,0,.6.1.9.3s.5.3.6.5.3.5.3.9v3.2c0,.3,0,.5,0,.8,0,.3,0,.4.2.6h-1.7c0,0,0-.2,0-.3s0-.2,0-.3c-.3.3-.6.5-1,.6-.4.1-.7.2-1.1.2s-.6,0-.8-.1c-.3,0-.5-.2-.7-.3-.2-.2-.3-.3-.5-.6s-.2-.5-.2-.8,0-.6.2-.9.3-.4.5-.5c.2-.1.4-.2.7-.3.3,0,.5-.1.8-.2.3,0,.5,0,.8,0,.2,0,.5,0,.7-.1.2,0,.3-.1.5-.2.1,0,.2-.2.2-.4,0-.2,0-.3,0-.4s-.1-.2-.2-.3c-.1,0-.2-.1-.3-.1-.1,0-.3,0-.4,0-.3,0-.6,0-.8.2-.2.1-.3.4-.3.7h-1.7ZM223.3,13.7c0,0-.2.1-.3.1-.1,0-.2,0-.3,0s-.3,0-.4,0-.3,0-.4,0c-.1,0-.3,0-.4,0s-.2,0-.3.2c0,0-.2.2-.2.3,0,.1,0,.2,0,.4s0,.3,0,.4.1.2.2.2c0,0,.2.1.3.1.1,0,.3,0,.4,0,.3,0,.6,0,.8-.2.2-.1.3-.2.4-.4,0-.2.1-.3.2-.5,0-.2,0-.3,0-.4v-.6Z"/>
    <path d="M228,10.5v.8h0c.2-.3.5-.6.8-.7.3-.2.7-.3,1.1-.3s.8,0,1.1.2c.3.2.6.4.7.8.2-.3.4-.5.8-.7.3-.2.7-.3,1.1-.3s.6,0,.9.1c.3,0,.5.2.7.4.2.2.4.4.5.7.1.3.2.6.2,1v4.2h-1.7v-3.5c0-.2,0-.4,0-.6,0-.2,0-.3-.1-.5,0-.1-.2-.2-.3-.3-.1,0-.3-.1-.6-.1s-.4,0-.6.1c-.1,0-.3.2-.3.4s-.1.3-.2.5c0,.2,0,.4,0,.6v3.5h-1.7v-3.5c0-.2,0-.4,0-.5,0-.2,0-.3-.1-.5,0-.2-.2-.3-.3-.4-.1,0-.3-.1-.6-.1s-.2,0-.3,0c-.1,0-.3.1-.4.2s-.2.2-.3.4c0,.2-.1.4-.1.7v3.6h-1.7v-6.2h1.6Z"/>
    <path d="M238.8,10.5v.8h0c.2-.3.5-.6.8-.7.3-.2.7-.2,1.1-.2s.9,0,1.3.3c.4.2.6.4.9.7.2.3.4.7.5,1.1.1.4.2.8.2,1.3s0,.8-.2,1.2c-.1.4-.3.7-.5,1-.2.3-.5.5-.9.7-.3.2-.7.3-1.2.3s-.7,0-1.1-.2c-.3-.2-.6-.4-.8-.7h0v2.9h-1.7v-8.4h1.6ZM241,15.4c.2-.1.3-.3.5-.4.1-.2.2-.4.2-.6,0-.2,0-.5,0-.7s0-.5,0-.7c0-.2-.1-.5-.3-.6s-.3-.3-.5-.5c-.2-.1-.4-.2-.7-.2s-.5,0-.7.2c-.2.1-.3.3-.5.5-.1.2-.2.4-.2.6,0,.2,0,.5,0,.7s0,.5,0,.7c0,.2.1.5.3.6.1.2.3.3.5.4.2.1.4.2.7.2s.5,0,.7-.2Z"/>
    <path d="M246.3,8.2v8.6h-1.7v-8.6h1.7Z"/>
    <path d="M249.4,15.2c.3.2.6.4,1.1.4s.6,0,.9-.3c.2-.2.4-.4.5-.5h1.5c-.2.7-.6,1.3-1.1,1.6-.5.3-1.1.5-1.8.5s-.9,0-1.3-.2c-.4-.2-.7-.4-1-.7-.3-.3-.5-.6-.6-1s-.2-.8-.2-1.3,0-.9.2-1.3c.2-.4.4-.7.6-1,.3-.3.6-.5,1-.7.4-.2.8-.3,1.3-.3s1,.1,1.4.3.7.5,1,.8c.3.3.4.7.5,1.2.1.4.2.9.1,1.4h-4.5c0,.6.2,1,.4,1.2ZM251.3,12c-.2-.2-.5-.3-.9-.3s-.5,0-.7.1c-.2,0-.3.2-.4.3s-.2.3-.2.4,0,.3,0,.4h2.8c0-.4-.2-.8-.4-1Z"/>
    <path d="M259.8,17.6v.6h-6v-.6h6Z"/>
    <path d="M262,16.7l-2.1-6.2h1.8l1.3,4.2h0l1.3-4.2h1.7l-2.1,6.2h-1.9Z"/>
    <path d="M266.7,12.4c0-.4.1-.7.3-1,.2-.3.4-.5.7-.6.3-.2.6-.3.9-.3.3,0,.7-.1,1-.1s.6,0,.9,0c.3,0,.6.1.9.3s.5.3.6.5.3.5.3.9v3.2c0,.3,0,.5,0,.8,0,.3,0,.4.2.6h-1.7c0,0,0-.2,0-.3s0-.2,0-.3c-.3.3-.6.5-1,.6-.4.1-.7.2-1.1.2s-.6,0-.8-.1c-.3,0-.5-.2-.7-.3-.2-.2-.3-.3-.5-.6s-.2-.5-.2-.8,0-.6.2-.9.3-.4.5-.5c.2-.1.4-.2.7-.3.3,0,.5-.1.8-.2.3,0,.5,0,.8,0,.2,0,.5,0,.7-.1.2,0,.3-.1.5-.2.1,0,.2-.2.2-.4,0-.2,0-.3,0-.4s-.1-.2-.2-.3c-.1,0-.2-.1-.3-.1-.1,0-.3,0-.4,0-.3,0-.6,0-.8.2-.2.1-.3.4-.3.7h-1.7ZM270.6,13.7c0,0-.2.1-.3.1-.1,0-.2,0-.3,0s-.3,0-.4,0-.3,0-.4,0c-.1,0-.3,0-.4,0s-.2,0-.3.2c0,0-.2.2-.2.3,0,.1,0,.2,0,.4s0,.3,0,.4.1.2.2.2c0,0,.2.1.3.1.1,0,.3,0,.4,0,.3,0,.6,0,.8-.2.2-.1.3-.2.4-.4,0-.2.1-.3.2-.5,0-.2,0-.3,0-.4v-.6Z"/>
    <path d="M275.2,10.5v1.2h0c0-.2.2-.4.3-.5.1-.2.3-.3.5-.4.2-.1.4-.2.6-.3.2,0,.4,0,.6,0s.2,0,.4,0v1.6c0,0-.2,0-.3,0-.1,0-.2,0-.3,0-.3,0-.6,0-.8.2-.2.1-.4.2-.5.4-.1.2-.2.4-.3.6,0,.2,0,.5,0,.8v2.8h-1.7v-6.2h1.6Z"/>
    <path d="M278.3,9.6v-1.4h1.7v1.4h-1.7ZM280,10.5v6.2h-1.7v-6.2h1.7Z"/>
    <path d="M281.3,12.4c0-.4.1-.7.3-1,.2-.3.4-.5.7-.6.3-.2.6-.3.9-.3.3,0,.7-.1,1-.1s.6,0,.9,0c.3,0,.6.1.9.3s.5.3.6.5.3.5.3.9v3.2c0,.3,0,.5,0,.8,0,.3,0,.4.2.6h-1.7c0,0,0-.2,0-.3s0-.2,0-.3c-.3.3-.6.5-1,.6-.4.1-.7.2-1.1.2s-.6,0-.8-.1c-.3,0-.5-.2-.7-.3-.2-.2-.3-.3-.5-.6s-.2-.5-.2-.8,0-.6.2-.9.3-.4.5-.5c.2-.1.4-.2.7-.3.3,0,.5-.1.8-.2.3,0,.5,0,.8,0,.2,0,.5,0,.7-.1.2,0,.3-.1.5-.2.1,0,.2-.2.2-.4,0-.2,0-.3,0-.4s-.1-.2-.2-.3c-.1,0-.2-.1-.3-.1-.1,0-.3,0-.4,0-.3,0-.6,0-.8.2-.2.1-.3.4-.3.7h-1.7ZM285.2,13.7c0,0-.2.1-.3.1-.1,0-.2,0-.3,0s-.3,0-.4,0-.3,0-.4,0c-.1,0-.3,0-.4,0s-.2,0-.3.2c0,0-.2.2-.2.3,0,.1,0,.2,0,.4s0,.3,0,.4.1.2.2.2c0,0,.2.1.3.1.1,0,.3,0,.4,0,.3,0,.6,0,.8-.2.2-.1.3-.2.4-.4,0-.2.1-.3.2-.5,0-.2,0-.3,0-.4v-.6Z"/>
    <path d="M290,8.2v3.1h0c.2-.3.5-.6.8-.7.4-.1.7-.2,1.1-.2s.6,0,.9.2c.3.1.6.3.8.6.2.3.4.6.6,1,.2.4.2.9.2,1.5s0,1.1-.2,1.5c-.2.4-.4.8-.6,1-.2.3-.5.5-.8.6s-.6.2-.9.2c-.5,0-.9,0-1.2-.2s-.6-.4-.8-.7h0v.8h-1.6v-8.6h1.7ZM292.7,12.9c0-.2-.1-.5-.3-.6-.1-.2-.3-.3-.5-.4-.2-.1-.4-.2-.7-.2s-.5,0-.6.2c-.2.1-.3.3-.5.4-.1.2-.2.4-.3.6,0,.2,0,.5,0,.8s0,.5,0,.7c0,.2.1.5.3.6.1.2.3.3.5.4.2.1.4.2.6.2s.5,0,.7-.2c.2-.1.3-.3.5-.4.1-.2.2-.4.3-.6,0-.2,0-.5,0-.7s0-.5,0-.8Z"/>
    <path d="M297.3,8.2v8.6h-1.7v-8.6h1.7Z"/>
    <path d="M300.5,15.2c.3.2.6.4,1.1.4s.6,0,.9-.3c.2-.2.4-.4.5-.5h1.5c-.2.7-.6,1.3-1.1,1.6-.5.3-1.1.5-1.8.5s-.9,0-1.3-.2c-.4-.2-.7-.4-1-.7-.3-.3-.5-.6-.6-1s-.2-.8-.2-1.3,0-.9.2-1.3c.2-.4.4-.7.6-1,.3-.3.6-.5,1-.7.4-.2.8-.3,1.3-.3s1,.1,1.4.3.7.5,1,.8c.3.3.4.7.5,1.2.1.4.2.9.1,1.4h-4.5c0,.6.2,1,.4,1.2ZM302.4,12c-.2-.2-.5-.3-.9-.3s-.5,0-.7.1c-.2,0-.3.2-.4.3s-.2.3-.2.4,0,.3,0,.4h2.8c0-.4-.2-.8-.4-1Z"/>
    <path d="M308.8,13.1v-1.3h6.1v1.3h-6.1ZM308.8,15.6v-1.3h6.1v1.3h-6.1Z"/>
    <path d="M316,13.1v-1.3h6.1v1.3h-6.1ZM316,15.6v-1.3h6.1v1.3h-6.1Z"/>
    <path d="M329.3,11.7c.2,0,.4,0,.6-.1.2,0,.3-.2.4-.3.1-.1.2-.3.2-.6,0-.4-.1-.6-.4-.8-.2-.2-.5-.3-.8-.3s-.8.1-1,.4c-.2.3-.3.6-.3,1.1h-1.6c0-.4,0-.8.2-1.2.1-.4.3-.7.6-.9.3-.3.6-.5.9-.6s.7-.2,1.2-.2.7,0,1,.1.6.2.9.5c.3.2.5.4.7.7.2.3.3.6.3,1s0,.8-.3,1.1c-.2.3-.5.5-.9.6h0c.5.1.8.4,1.1.7.3.3.4.8.4,1.2s0,.8-.3,1.2c-.2.3-.4.6-.7.9-.3.2-.6.4-1,.5-.4.1-.8.2-1.2.2s-.9,0-1.3-.2c-.4-.1-.7-.3-1-.6-.3-.3-.5-.6-.6-1-.1-.4-.2-.8-.2-1.3h1.6c0,.2,0,.4.1.6s.2.4.3.5c.1.1.3.3.4.4.2,0,.4.1.6.1.4,0,.7-.1,1-.4.3-.2.4-.6.4-1s0-.6-.2-.7-.3-.3-.5-.4-.4-.1-.6-.1c-.2,0-.4,0-.7,0v-1.2c.2,0,.4,0,.6,0Z"/>
    <path d="M333.2,10.4c.2-.6.4-1,.7-1.3.3-.3.6-.6,1-.7s.8-.2,1.2-.2.8,0,1.2.2.7.4,1,.7c.3.3.5.8.7,1.3s.2,1.2.2,2.1,0,1.5-.2,2.1-.4,1-.7,1.4c-.3.3-.6.6-1,.7s-.8.2-1.2.2-.8,0-1.2-.2-.7-.4-1-.7c-.3-.3-.5-.8-.7-1.4s-.2-1.3-.2-2.1,0-1.5.2-2.1ZM334.7,13.4c0,.3,0,.7.1,1s.2.6.4.8c.2.2.4.3.8.3s.6-.1.8-.3c.2-.2.3-.5.4-.8s.1-.6.1-1c0-.3,0-.6,0-.9s0-.3,0-.5c0-.2,0-.4,0-.6,0-.2,0-.4-.1-.6,0-.2-.1-.4-.2-.6s-.2-.3-.4-.4c-.2-.1-.4-.2-.6-.2s-.4,0-.6.2c-.2.1-.3.2-.4.4s-.2.4-.2.6c0,.2,0,.4-.1.6,0,.2,0,.4,0,.6,0,.2,0,.4,0,.5,0,.2,0,.5,0,.9Z"/>
    <path d="M340.1,12.5v-1.8h1.9v1.8h-1.9ZM342,14.9v1.8h-1.9v-1.8h1.9Z"/>
    <path d="M230.7,39.2c0,.1.2.2.3.3s.3.1.4.2c.2,0,.3,0,.5,0s.2,0,.4,0c.1,0,.3,0,.4-.1.1,0,.2-.1.3-.2,0,0,.1-.2.1-.4,0-.3-.2-.4-.5-.6-.3-.1-.8-.3-1.4-.4-.2,0-.5-.1-.7-.2s-.4-.2-.6-.3c-.2-.1-.3-.3-.4-.5-.1-.2-.2-.4-.2-.7,0-.4,0-.7.2-1,.2-.3.4-.5.6-.6.3-.1.5-.3.9-.3.3,0,.6,0,1,0s.7,0,1,0,.6.2.8.3c.2.2.5.4.6.6s.3.6.3,1h-1.6c0-.3-.1-.5-.4-.7-.2-.1-.5-.2-.8-.2s-.2,0-.3,0c-.1,0-.2,0-.3,0,0,0-.2,0-.2.2s0,.2,0,.3,0,.3.2.4c.1,0,.3.2.4.2.2,0,.4.1.6.2.2,0,.5.1.7.2.2,0,.5.1.7.2s.4.2.6.3.3.3.4.5c.1.2.2.4.2.7,0,.4,0,.8-.2,1-.2.3-.4.5-.6.7s-.6.3-.9.4c-.3,0-.7.1-1,.1s-.7,0-1.1-.1c-.3,0-.6-.2-.9-.4s-.5-.4-.7-.7-.3-.6-.3-1h1.6c0,.2,0,.3.1.5Z"/>
    <path d="M235.6,36.4c0-.4.1-.7.3-1,.2-.3.4-.5.7-.6.3-.2.6-.3.9-.3.3,0,.7-.1,1-.1s.6,0,.9,0c.3,0,.6.1.9.3s.5.3.6.5.3.5.3.9v3.2c0,.3,0,.5,0,.8,0,.3,0,.4.2.6h-1.7c0,0,0-.2,0-.3s0-.2,0-.3c-.3.3-.6.5-1,.6-.4.1-.7.2-1.1.2s-.6,0-.8-.1c-.3,0-.5-.2-.7-.3-.2-.2-.3-.3-.5-.6s-.2-.5-.2-.8,0-.6.2-.9.3-.4.5-.5c.2-.1.4-.2.7-.3.3,0,.5-.1.8-.2.3,0,.5,0,.8,0,.2,0,.5,0,.7-.1.2,0,.3-.1.5-.2.1,0,.2-.2.2-.4,0-.2,0-.3,0-.4s-.1-.2-.2-.3c-.1,0-.2-.1-.3-.1-.1,0-.3,0-.4,0-.3,0-.6,0-.8.2-.2.1-.3.4-.3.7h-1.7ZM239.5,37.7c0,0-.2.1-.3.1-.1,0-.2,0-.3,0s-.3,0-.4,0-.3,0-.4,0c-.1,0-.3,0-.4,0s-.2,0-.3.2c0,0-.2.2-.2.3,0,.1,0,.2,0,.4s0,.3,0,.4.1.2.2.2c0,0,.2.1.3.1.1,0,.3,0,.4,0,.3,0,.6,0,.8-.2.2-.1.3-.2.4-.4,0-.2.1-.3.2-.5,0-.2,0-.3,0-.4v-.6Z"/>
    <path d="M244.2,34.5v.8h0c.2-.3.5-.6.8-.7.3-.2.7-.3,1.1-.3s.8,0,1.1.2c.3.2.6.4.7.8.2-.3.4-.5.8-.7.3-.2.7-.3,1.1-.3s.6,0,.9.1c.3,0,.5.2.7.4.2.2.4.4.5.7.1.3.2.6.2,1v4.2h-1.7v-3.5c0-.2,0-.4,0-.6,0-.2,0-.3-.1-.5,0-.1-.2-.2-.3-.3-.1,0-.3-.1-.6-.1s-.4,0-.6.1c-.1,0-.3.2-.3.4s-.1.3-.2.5c0,.2,0,.4,0,.6v3.5h-1.7v-3.5c0-.2,0-.4,0-.5,0-.2,0-.3-.1-.5,0-.2-.2-.3-.3-.4-.1,0-.3-.1-.6-.1s-.2,0-.3,0c-.1,0-.3.1-.4.2s-.2.2-.3.4c0,.2-.1.4-.1.7v3.6h-1.7v-6.2h1.6Z"/>
    <path d="M255.1,34.5v.8h0c.2-.3.5-.6.8-.7.3-.2.7-.2,1.1-.2s.9,0,1.3.3c.4.2.6.4.9.7.2.3.4.7.5,1.1.1.4.2.8.2,1.3s0,.8-.2,1.2c-.1.4-.3.7-.5,1-.2.3-.5.5-.9.7-.3.2-.7.3-1.2.3s-.7,0-1.1-.2c-.3-.2-.6-.4-.8-.7h0v2.9h-1.7v-8.4h1.6ZM257.3,39.4c.2-.1.3-.3.5-.4.1-.2.2-.4.2-.6,0-.2,0-.5,0-.7s0-.5,0-.7c0-.2-.1-.5-.3-.6s-.3-.3-.5-.5c-.2-.1-.4-.2-.7-.2s-.5,0-.7.2c-.2.1-.3.3-.5.5-.1.2-.2.4-.2.6,0,.2,0,.5,0,.7s0,.5,0,.7c0,.2.1.5.3.6.1.2.3.3.5.4.2.1.4.2.7.2s.5,0,.7-.2Z"/>
    <path d="M262.5,32.2v8.6h-1.7v-8.6h1.7Z"/>
    <path d="M265.7,39.2c.3.2.6.4,1.1.4s.6,0,.9-.3c.2-.2.4-.4.5-.5h1.5c-.2.7-.6,1.3-1.1,1.6-.5.3-1.1.5-1.8.5s-.9,0-1.3-.2c-.4-.2-.7-.4-1-.7-.3-.3-.5-.6-.6-1s-.2-.8-.2-1.3,0-.9.2-1.3c.2-.4.4-.7.6-1,.3-.3.6-.5,1-.7.4-.2.8-.3,1.3-.3s1,.1,1.4.3.7.5,1,.8c.3.3.4.7.5,1.2.1.4.2.9.1,1.4h-4.5c0,.6.2,1,.4,1.2ZM267.6,36c-.2-.2-.5-.3-.9-.3s-.5,0-.7.1c-.2,0-.3.2-.4.3s-.2.3-.2.4,0,.3,0,.4h2.8c0-.4-.2-.8-.4-1Z"/>
    <path d="M276.1,41.6v.6h-6v-.6h6Z"/>
    <path d="M278.3,40.7l-2.1-6.2h1.8l1.3,4.2h0l1.3-4.2h1.7l-2.1,6.2h-1.9Z"/>
    <path d="M282.9,36.4c0-.4.1-.7.3-1,.2-.3.4-.5.7-.6.3-.2.6-.3.9-.3.3,0,.7-.1,1-.1s.6,0,.9,0c.3,0,.6.1.9.3s.5.3.6.5.3.5.3.9v3.2c0,.3,0,.5,0,.8,0,.3,0,.4.2.6h-1.7c0,0,0-.2,0-.3s0-.2,0-.3c-.3.3-.6.5-1,.6-.4.1-.7.2-1.1.2s-.6,0-.8-.1c-.3,0-.5-.2-.7-.3-.2-.2-.3-.3-.5-.6s-.2-.5-.2-.8,0-.6.2-.9.3-.4.5-.5c.2-.1.4-.2.7-.3.3,0,.5-.1.8-.2.3,0,.5,0,.8,0,.2,0,.5,0,.7-.1.2,0,.3-.1.5-.2.1,0,.2-.2.2-.4,0-.2,0-.3,0-.4s-.1-.2-.2-.3c-.1,0-.2-.1-.3-.1-.1,0-.3,0-.4,0-.3,0-.6,0-.8.2-.2.1-.3.4-.3.7h-1.7ZM286.9,37.7c0,0-.2.1-.3.1-.1,0-.2,0-.3,0s-.3,0-.4,0-.3,0-.4,0c-.1,0-.3,0-.4,0s-.2,0-.3.2c0,0-.2.2-.2.3,0,.1,0,.2,0,.4s0,.3,0,.4.1.2.2.2c0,0,.2.1.3.1.1,0,.3,0,.4,0,.3,0,.6,0,.8-.2.2-.1.3-.2.4-.4,0-.2.1-.3.2-.5,0-.2,0-.3,0-.4v-.6Z"/>
    <path d="M291.5,34.5v1.2h0c0-.2.2-.4.3-.5.1-.2.3-.3.5-.4.2-.1.4-.2.6-.3.2,0,.4,0,.6,0s.2,0,.4,0v1.6c0,0-.2,0-.3,0-.1,0-.2,0-.3,0-.3,0-.6,0-.8.2-.2.1-.4.2-.5.4-.1.2-.2.4-.3.6,0,.2,0,.5,0,.8v2.8h-1.7v-6.2h1.6Z"/>
    <path d="M294.6,33.6v-1.4h1.7v1.4h-1.7ZM296.3,34.5v6.2h-1.7v-6.2h1.7Z"/>
    <path d="M297.6,36.4c0-.4.1-.7.3-1,.2-.3.4-.5.7-.6.3-.2.6-.3.9-.3.3,0,.7-.1,1-.1s.6,0,.9,0c.3,0,.6.1.9.3s.5.3.6.5.3.5.3.9v3.2c0,.3,0,.5,0,.8,0,.3,0,.4.2.6h-1.7c0,0,0-.2,0-.3s0-.2,0-.3c-.3.3-.6.5-1,.6-.4.1-.7.2-1.1.2s-.6,0-.8-.1c-.3,0-.5-.2-.7-.3-.2-.2-.3-.3-.5-.6s-.2-.5-.2-.8,0-.6.2-.9.3-.4.5-.5c.2-.1.4-.2.7-.3.3,0,.5-.1.8-.2.3,0,.5,0,.8,0,.2,0,.5,0,.7-.1.2,0,.3-.1.5-.2.1,0,.2-.2.2-.4,0-.2,0-.3,0-.4s-.1-.2-.2-.3c-.1,0-.2-.1-.3-.1-.1,0-.3,0-.4,0-.3,0-.6,0-.8.2-.2.1-.3.4-.3.7h-1.7ZM301.5,37.7c0,0-.2.1-.3.1-.1,0-.2,0-.3,0s-.3,0-.4,0-.3,0-.4,0c-.1,0-.3,0-.4,0s-.2,0-.3.2c0,0-.2.2-.2.3,0,.1,0,.2,0,.4s0,.3,0,.4.1.2.2.2c0,0,.2.1.3.1.1,0,.3,0,.4,0,.3,0,.6,0,.8-.2.2-.1.3-.2.4-.4,0-.2.1-.3.2-.5,0-.2,0-.3,0-.4v-.6Z"/>
    <path d="M306.2,32.2v3.1h0c.2-.3.5-.6.8-.7.4-.1.7-.2,1.1-.2s.6,0,.9.2c.3.1.6.3.8.6.2.3.4.6.6,1,.2.4.2.9.2,1.5s0,1.1-.2,1.5c-.2.4-.4.8-.6,1-.2.3-.5.5-.8.6s-.6.2-.9.2c-.5,0-.9,0-1.2-.2s-.6-.4-.8-.7h0v.8h-1.6v-8.6h1.7ZM309,36.9c0-.2-.1-.5-.3-.6-.1-.2-.3-.3-.5-.4-.2-.1-.4-.2-.7-.2s-.5,0-.6.2c-.2.1-.3.3-.5.4-.1.2-.2.4-.3.6,0,.2,0,.5,0,.8s0,.5,0,.7c0,.2.1.5.3.6.1.2.3.3.5.4.2.1.4.2.6.2s.5,0,.7-.2c.2-.1.3-.3.5-.4.1-.2.2-.4.3-.6,0-.2,0-.5,0-.7s0-.5,0-.8Z"/>
    <path d="M313.6,32.2v8.6h-1.7v-8.6h1.7Z"/>
    <path d="M316.8,39.2c.3.2.6.4,1.1.4s.6,0,.9-.3c.2-.2.4-.4.5-.5h1.5c-.2.7-.6,1.3-1.1,1.6-.5.3-1.1.5-1.8.5s-.9,0-1.3-.2c-.4-.2-.7-.4-1-.7-.3-.3-.5-.6-.6-1s-.2-.8-.2-1.3,0-.9.2-1.3c.2-.4.4-.7.6-1,.3-.3.6-.5,1-.7.4-.2.8-.3,1.3-.3s1,.1,1.4.3.7.5,1,.8c.3.3.4.7.5,1.2.1.4.2.9.1,1.4h-4.5c0,.6.2,1,.4,1.2ZM318.7,36c-.2-.2-.5-.3-.9-.3s-.5,0-.7.1c-.2,0-.3.2-.4.3s-.2.3-.2.4,0,.3,0,.4h2.8c0-.4-.2-.8-.4-1Z"/>
    <path d="M325.1,37.1v-1.3h6.1v1.3h-6.1ZM325.1,39.6v-1.3h6.1v1.3h-6.1Z"/>
    <path d="M335.6,34.4c.2-.6.4-1,.7-1.3.3-.3.6-.6,1-.7s.8-.2,1.2-.2.8,0,1.2.2.7.4,1,.7c.3.3.5.8.7,1.3s.2,1.2.2,2.1,0,1.5-.2,2.1-.4,1-.7,1.4c-.3.3-.6.6-1,.7s-.8.2-1.2.2-.8,0-1.2-.2-.7-.4-1-.7c-.3-.3-.5-.8-.7-1.4s-.2-1.3-.2-2.1,0-1.5.2-2.1ZM337,37.4c0,.3,0,.7.1,1s.2.6.4.8c.2.2.4.3.8.3s.6-.1.8-.3c.2-.2.3-.5.4-.8s.1-.6.1-1c0-.3,0-.6,0-.9s0-.3,0-.5c0-.2,0-.4,0-.6,0-.2,0-.4-.1-.6,0-.2-.1-.4-.2-.6s-.2-.3-.4-.4c-.2-.1-.4-.2-.6-.2s-.4,0-.6.2c-.2.1-.3.2-.4.4s-.2.4-.2.6c0,.2,0,.4-.1.6,0,.2,0,.4,0,.6,0,.2,0,.4,0,.5,0,.2,0,.5,0,.9Z"/>
    <path d="M204.4,63.2c.3.2.6.4,1.1.4s.6,0,.9-.3c.2-.2.4-.4.5-.5h1.5c-.2.7-.6,1.3-1.1,1.6-.5.3-1.1.5-1.8.5s-.9,0-1.3-.2c-.4-.2-.7-.4-1-.7-.3-.3-.5-.6-.6-1s-.2-.8-.2-1.3,0-.9.2-1.3c.2-.4.4-.7.6-1,.3-.3.6-.5,1-.7.4-.2.8-.3,1.3-.3s1,.1,1.4.3.7.5,1,.8c.3.3.4.7.5,1.2.1.4.2.9.1,1.4h-4.5c0,.6.2,1,.4,1.2ZM206.3,60c-.2-.2-.5-.3-.9-.3s-.5,0-.7.1c-.2,0-.3.2-.4.3s-.2.3-.2.4,0,.3,0,.4h2.8c0-.4-.2-.8-.4-1Z"/>
    <path d="M211.2,56.2v8.6h-1.7v-8.6h1.7Z"/>
    <path d="M214,63.2c0,.1.2.2.3.3s.3.1.4.2c.2,0,.3,0,.5,0s.2,0,.4,0c.1,0,.3,0,.4-.1.1,0,.2-.1.3-.2,0,0,.1-.2.1-.4,0-.3-.2-.4-.5-.6-.3-.1-.8-.3-1.4-.4-.2,0-.5-.1-.7-.2s-.4-.2-.6-.3c-.2-.1-.3-.3-.4-.5-.1-.2-.2-.4-.2-.7,0-.4,0-.7.2-1,.2-.3.4-.5.6-.6.3-.1.5-.3.9-.3.3,0,.6,0,1,0s.7,0,1,0,.6.2.8.3c.2.2.5.4.6.6s.3.6.3,1h-1.6c0-.3-.1-.5-.4-.7-.2-.1-.5-.2-.8-.2s-.2,0-.3,0c-.1,0-.2,0-.3,0,0,0-.2,0-.2.2s0,.2,0,.3,0,.3.2.4c.1,0,.3.2.4.2.2,0,.4.1.6.2.2,0,.5.1.7.2.2,0,.5.1.7.2s.4.2.6.3.3.3.4.5c.1.2.2.4.2.7,0,.4,0,.8-.2,1-.2.3-.4.5-.6.7s-.6.3-.9.4c-.3,0-.7.1-1,.1s-.7,0-1.1-.1c-.3,0-.6-.2-.9-.4s-.5-.4-.7-.7-.3-.6-.3-1h1.6c0,.2,0,.3.1.5Z"/>
    <path d="M220.8,63.2c.3.2.6.4,1.1.4s.6,0,.9-.3c.2-.2.4-.4.5-.5h1.5c-.2.7-.6,1.3-1.1,1.6-.5.3-1.1.5-1.8.5s-.9,0-1.3-.2c-.4-.2-.7-.4-1-.7-.3-.3-.5-.6-.6-1s-.2-.8-.2-1.3,0-.9.2-1.3c.2-.4.4-.7.6-1,.3-.3.6-.5,1-.7.4-.2.8-.3,1.3-.3s1,.1,1.4.3.7.5,1,.8c.3.3.4.7.5,1.2.1.4.2.9.1,1.4h-4.5c0,.6.2,1,.4,1.2ZM222.7,60c-.2-.2-.5-.3-.9-.3s-.5,0-.7.1c-.2,0-.3.2-.4.3s-.2.3-.2.4,0,.3,0,.4h2.8c0-.4-.2-.8-.4-1Z"/>
    <path d="M225.9,60.5v-1.8h1.9v1.8h-1.9ZM227.8,62.9v1.8h-1.9v-1.8h1.9Z"/>
    <path d="M230.7,87.2c0,.1.2.2.3.3s.3.1.4.2c.2,0,.3,0,.5,0s.2,0,.4,0c.1,0,.3,0,.4-.1.1,0,.2-.1.3-.2,0,0,.1-.2.1-.4,0-.3-.2-.4-.5-.6-.3-.1-.8-.3-1.4-.4-.2,0-.5-.1-.7-.2s-.4-.2-.6-.3c-.2-.1-.3-.3-.4-.5-.1-.2-.2-.4-.2-.7,0-.4,0-.7.2-1,.2-.3.4-.5.6-.6.3-.1.5-.3.9-.3.3,0,.6,0,1,0s.7,0,1,0,.6.2.8.3c.2.2.5.4.6.6s.3.6.3,1h-1.6c0-.3-.1-.5-.4-.7-.2-.1-.5-.2-.8-.2s-.2,0-.3,0c-.1,0-.2,0-.3,0,0,0-.2,0-.2.2s0,.2,0,.3,0,.3.2.4c.1,0,.3.2.4.2.2,0,.4.1.6.2.2,0,.5.1.7.2.2,0,.5.1.7.2s.4.2.6.3.3.3.4.5c.1.2.2.4.2.7,0,.4,0,.8-.2,1-.2.3-.4.5-.6.7s-.6.3-.9.4c-.3,0-.7.1-1,.1s-.7,0-1.1-.1c-.3,0-.6-.2-.9-.4s-.5-.4-.7-.7-.3-.6-.3-1h1.6c0,.2,0,.3.1.5Z"/>
    <path d="M235.6,84.4c0-.4.1-.7.3-1,.2-.3.4-.5.7-.6.3-.2.6-.3.9-.3.3,0,.7-.1,1-.1s.6,0,.9,0c.3,0,.6.1.9.3s.5.3.6.5.3.5.3.9v3.2c0,.3,0,.5,0,.8,0,.3,0,.4.2.6h-1.7c0,0,0-.2,0-.3s0-.2,0-.3c-.3.3-.6.5-1,.6-.4.1-.7.2-1.1.2s-.6,0-.8-.1c-.3,0-.5-.2-.7-.3-.2-.2-.3-.3-.5-.6s-.2-.5-.2-.8,0-.6.2-.9.3-.4.5-.5c.2-.1.4-.2.7-.3.3,0,.5-.1.8-.2.3,0,.5,0,.8,0,.2,0,.5,0,.7-.1.2,0,.3-.1.5-.2.1,0,.2-.2.2-.4,0-.2,0-.3,0-.4s-.1-.2-.2-.3c-.1,0-.2-.1-.3-.1-.1,0-.3,0-.4,0-.3,0-.6,0-.8.2-.2.1-.3.4-.3.7h-1.7ZM239.5,85.7c0,0-.2.1-.3.1-.1,0-.2,0-.3,0s-.3,0-.4,0-.3,0-.4,0c-.1,0-.3,0-.4,0s-.2,0-.3.2c0,0-.2.2-.2.3,0,.1,0,.2,0,.4s0,.3,0,.4.1.2.2.2c0,0,.2.1.3.1.1,0,.3,0,.4,0,.3,0,.6,0,.8-.2.2-.1.3-.2.4-.4,0-.2.1-.3.2-.5,0-.2,0-.3,0-.4v-.6Z"/>
    <path d="M244.2,82.5v.8h0c.2-.3.5-.6.8-.7.3-.2.7-.3,1.1-.3s.8,0,1.1.2c.3.2.6.4.7.8.2-.3.4-.5.8-.7.3-.2.7-.3,1.1-.3s.6,0,.9.1c.3,0,.5.2.7.4.2.2.4.4.5.7.1.3.2.6.2,1v4.2h-1.7v-3.5c0-.2,0-.4,0-.6,0-.2,0-.3-.1-.5,0-.1-.2-.2-.3-.3-.1,0-.3-.1-.6-.1s-.4,0-.6.1c-.1,0-.3.2-.3.4s-.1.3-.2.5c0,.2,0,.4,0,.6v3.5h-1.7v-3.5c0-.2,0-.4,0-.5,0-.2,0-.3-.1-.5,0-.2-.2-.3-.3-.4-.1,0-.3-.1-.6-.1s-.2,0-.3,0c-.1,0-.3.1-.4.2s-.2.2-.3.4c0,.2-.1.4-.1.7v3.6h-1.7v-6.2h1.6Z"/>
    <path d="M255.1,82.5v.8h0c.2-.3.5-.6.8-.7.3-.2.7-.2,1.1-.2s.9,0,1.3.3c.4.2.6.4.9.7.2.3.4.7.5,1.1.1.4.2.8.2,1.3s0,.8-.2,1.2c-.1.4-.3.7-.5,1-.2.3-.5.5-.9.7-.3.2-.7.3-1.2.3s-.7,0-1.1-.2c-.3-.2-.6-.4-.8-.7h0v2.9h-1.7v-8.4h1.6ZM257.3,87.4c.2-.1.3-.3.5-.4.1-.2.2-.4.2-.6,0-.2,0-.5,0-.7s0-.5,0-.7c0-.2-.1-.5-.3-.6s-.3-.3-.5-.5c-.2-.1-.4-.2-.7-.2s-.5,0-.7.2c-.2.1-.3.3-.5.5-.1.2-.2.4-.2.6,0,.2,0,.5,0,.7s0,.5,0,.7c0,.2.1.5.3.6.1.2.3.3.5.4.2.1.4.2.7.2s.5,0,.7-.2Z"/>
    <path d="M262.5,80.2v8.6h-1.7v-8.6h1.7Z"/>
    <path d="M265.7,87.2c.3.2.6.4,1.1.4s.6,0,.9-.3c.2-.2.4-.4.5-.5h1.5c-.2.7-.6,1.3-1.1,1.6-.5.3-1.1.5-1.8.5s-.9,0-1.3-.2c-.4-.2-.7-.4-1-.7-.3-.3-.5-.6-.6-1s-.2-.8-.2-1.3,0-.9.2-1.3c.2-.4.4-.7.6-1,.3-.3.6-.5,1-.7.4-.2.8-.3,1.3-.3s1,.1,1.4.3.7.5,1,.8c.3.3.4.7.5,1.2.1.4.2.9.1,1.4h-4.5c0,.6.2,1,.4,1.2ZM267.6,84c-.2-.2-.5-.3-.9-.3s-.5,0-.7.1c-.2,0-.3.2-.4.3s-.2.3-.2.4,0,.3,0,.4h2.8c0-.4-.2-.8-.4-1Z"/>
    <path d="M276.1,89.6v.6h-6v-.6h6Z"/>
    <path d="M278.3,88.7l-2.1-6.2h1.8l1.3,4.2h0l1.3-4.2h1.7l-2.1,6.2h-1.9Z"/>
    <path d="M282.9,84.4c0-.4.1-.7.3-1,.2-.3.4-.5.7-.6.3-.2.6-.3.9-.3.3,0,.7-.1,1-.1s.6,0,.9,0c.3,0,.6.1.9.3s.5.3.6.5.3.5.3.9v3.2c0,.3,0,.5,0,.8,0,.3,0,.4.2.6h-1.7c0,0,0-.2,0-.3s0-.2,0-.3c-.3.3-.6.5-1,.6-.4.1-.7.2-1.1.2s-.6,0-.8-.1c-.3,0-.5-.2-.7-.3-.2-.2-.3-.3-.5-.6s-.2-.5-.2-.8,0-.6.2-.9.3-.4.5-.5c.2-.1.4-.2.7-.3.3,0,.5-.1.8-.2.3,0,.5,0,.8,0,.2,0,.5,0,.7-.1.2,0,.3-.1.5-.2.1,0,.2-.2.2-.4,0-.2,0-.3,0-.4s-.1-.2-.2-.3c-.1,0-.2-.1-.3-.1-.1,0-.3,0-.4,0-.3,0-.6,0-.8.2-.2.1-.3.4-.3.7h-1.7ZM286.9,85.7c0,0-.2.1-.3.1-.1,0-.2,0-.3,0s-.3,0-.4,0-.3,0-.4,0c-.1,0-.3,0-.4,0s-.2,0-.3.2c0,0-.2.2-.2.3,0,.1,0,.2,0,.4s0,.3,0,.4.1.2.2.2c0,0,.2.1.3.1.1,0,.3,0,.4,0,.3,0,.6,0,.8-.2.2-.1.3-.2.4-.4,0-.2.1-.3.2-.5,0-.2,0-.3,0-.4v-.6Z"/>
    <path d="M291.5,82.5v1.2h0c0-.2.2-.4.3-.5.1-.2.3-.3.5-.4.2-.1.4-.2.6-.3.2,0,.4,0,.6,0s.2,0,.4,0v1.6c0,0-.2,0-.3,0-.1,0-.2,0-.3,0-.3,0-.6,0-.8.2-.2.1-.4.2-.5.4-.1.2-.2.4-.3.6,0,.2,0,.5,0,.8v2.8h-1.7v-6.2h1.6Z"/>
    <path d="M294.6,81.6v-1.4h1.7v1.4h-1.7ZM296.3,82.5v6.2h-1.7v-6.2h1.7Z"/>
    <path d="M297.6,84.4c0-.4.1-.7.3-1,.2-.3.4-.5.7-.6.3-.2.6-.3.9-.3.3,0,.7-.1,1-.1s.6,0,.9,0c.3,0,.6.1.9.3s.5.3.6.5.3.5.3.9v3.2c0,.3,0,.5,0,.8,0,.3,0,.4.2.6h-1.7c0,0,0-.2,0-.3s0-.2,0-.3c-.3.3-.6.5-1,.6-.4.1-.7.2-1.1.2s-.6,0-.8-.1c-.3,0-.5-.2-.7-.3-.2-.2-.3-.3-.5-.6s-.2-.5-.2-.8,0-.6.2-.9.3-.4.5-.5c.2-.1.4-.2.7-.3.3,0,.5-.1.8-.2.3,0,.5,0,.8,0,.2,0,.5,0,.7-.1.2,0,.3-.1.5-.2.1,0,.2-.2.2-.4,0-.2,0-.3,0-.4s-.1-.2-.2-.3c-.1,0-.2-.1-.3-.1-.1,0-.3,0-.4,0-.3,0-.6,0-.8.2-.2.1-.3.4-.3.7h-1.7ZM301.5,85.7c0,0-.2.1-.3.1-.1,0-.2,0-.3,0s-.3,0-.4,0-.3,0-.4,0c-.1,0-.3,0-.4,0s-.2,0-.3.2c0,0-.2.2-.2.3,0,.1,0,.2,0,.4s0,.3,0,.4.1.2.2.2c0,0,.2.1.3.1.1,0,.3,0,.4,0,.3,0,.6,0,.8-.2.2-.1.3-.2.4-.4,0-.2.1-.3.2-.5,0-.2,0-.3,0-.4v-.6Z"/>
    <path d="M306.2,80.2v3.1h0c.2-.3.5-.6.8-.7.4-.1.7-.2,1.1-.2s.6,0,.9.2c.3.1.6.3.8.6.2.3.4.6.6,1,.2.4.2.9.2,1.5s0,1.1-.2,1.5c-.2.4-.4.8-.6,1-.2.3-.5.5-.8.6s-.6.2-.9.2c-.5,0-.9,0-1.2-.2s-.6-.4-.8-.7h0v.8h-1.6v-8.6h1.7ZM309,84.9c0-.2-.1-.5-.3-.6-.1-.2-.3-.3-.5-.4-.2-.1-.4-.2-.7-.2s-.5,0-.6.2c-.2.1-.3.3-.5.4-.1.2-.2.4-.3.6,0,.2,0,.5,0,.8s0,.5,0,.7c0,.2.1.5.3.6.1.2.3.3.5.4.2.1.4.2.6.2s.5,0,.7-.2c.2-.1.3-.3.5-.4.1-.2.2-.4.3-.6,0-.2,0-.5,0-.7s0-.5,0-.8Z"/>
    <path d="M313.6,80.2v8.6h-1.7v-8.6h1.7Z"/>
    <path d="M316.8,87.2c.3.2.6.4,1.1.4s.6,0,.9-.3c.2-.2.4-.4.5-.5h1.5c-.2.7-.6,1.3-1.1,1.6-.5.3-1.1.5-1.8.5s-.9,0-1.3-.2c-.4-.2-.7-.4-1-.7-.3-.3-.5-.6-.6-1s-.2-.8-.2-1.3,0-.9.2-1.3c.2-.4.4-.7.6-1,.3-.3.6-.5,1-.7.4-.2.8-.3,1.3-.3s1,.1,1.4.3.7.5,1,.8c.3.3.4.7.5,1.2.1.4.2.9.1,1.4h-4.5c0,.6.2,1,.4,1.2ZM318.7,84c-.2-.2-.5-.3-.9-.3s-.5,0-.7.1c-.2,0-.3.2-.4.3s-.2.3-.2.4,0,.3,0,.4h2.8c0-.4-.2-.8-.4-1Z"/>
    <path d="M325.1,85.1v-1.3h6.1v1.3h-6.1ZM325.1,87.6v-1.3h6.1v1.3h-6.1Z"/>
    <path d="M338.1,88.7v-5.4h-2.1v-1.3c.3,0,.6,0,.9,0,.3,0,.5-.1.7-.3.2-.1.4-.3.6-.5.2-.2.3-.5.3-.8h1.4v8.4h-1.7Z"/>
    <path d="M342.2,82.4c.2-.6.4-1,.7-1.3.3-.3.6-.6,1-.7s.8-.2,1.2-.2.8,0,1.2.2.7.4,1,.7c.3.3.5.8.7,1.3s.2,1.2.2,2.1,0,1.5-.2,2.1-.4,1-.7,1.4c-.3.3-.6.6-1,.7s-.8.2-1.2.2-.8,0-1.2-.2-.7-.4-1-.7c-.3-.3-.5-.8-.7-1.4s-.2-1.3-.2-2.1,0-1.5.2-2.1ZM343.7,85.4c0,.3,0,.7.1,1s.2.6.4.8c.2.2.4.3.8.3s.6-.1.8-.3c.2-.2.3-.5.4-.8s.1-.6.1-1c0-.3,0-.6,0-.9s0-.3,0-.5c0-.2,0-.4,0-.6,0-.2,0-.4-.1-.6,0-.2-.1-.4-.2-.6s-.2-.3-.4-.4c-.2-.1-.4-.2-.6-.2s-.4,0-.6.2c-.2.1-.3.2-.4.4s-.2.4-.2.6c0,.2,0,.4-.1.6,0,.2,0,.4,0,.6,0,.2,0,.4,0,.5,0,.2,0,.5,0,.9Z"/>
    <path d="M204.2,106.5v.8h0c.2-.3.5-.6.8-.7.3-.2.7-.2,1.1-.2s.9,0,1.3.3c.4.2.6.4.9.7.2.3.4.7.5,1.1.1.4.2.8.2,1.3s0,.8-.2,1.2c-.1.4-.3.7-.5,1-.2.3-.5.5-.9.7-.3.2-.7.3-1.2.3s-.7,0-1.1-.2c-.3-.2-.6-.4-.8-.7h0v2.9h-1.7v-8.4h1.6ZM206.4,111.4c.2-.1.3-.3.5-.4.1-.2.2-.4.2-.6,0-.2,0-.5,0-.7s0-.5,0-.7c0-.2-.1-.5-.3-.6s-.3-.3-.5-.5c-.2-.1-.4-.2-.7-.2s-.5,0-.7.2c-.2.1-.3.3-.5.5-.1.2-.2.4-.2.6,0,.2,0,.5,0,.7s0,.5,0,.7c0,.2.1.5.3.6.1.2.3.3.5.4.2.1.4.2.7.2s.5,0,.7-.2Z"/>
    <path d="M211.5,106.5v1.2h0c0-.2.2-.4.3-.5.1-.2.3-.3.5-.4.2-.1.4-.2.6-.3.2,0,.4,0,.6,0s.2,0,.4,0v1.6c0,0-.2,0-.3,0-.1,0-.2,0-.3,0-.3,0-.6,0-.8.2-.2.1-.4.2-.5.4-.1.2-.2.4-.3.6,0,.2,0,.5,0,.8v2.8h-1.7v-6.2h1.6Z"/>
    <path d="M214.6,105.6v-1.4h1.7v1.4h-1.7ZM216.3,106.5v6.2h-1.7v-6.2h1.7Z"/>
    <path d="M219.3,106.5v.9h0c.2-.4.5-.6.8-.8.3-.2.7-.2,1.1-.2s.8,0,1.1.2.5.3.7.5.3.5.4.8c0,.3.1.7.1,1.1v3.8h-1.7v-3.5c0-.5,0-.9-.2-1.1s-.4-.4-.9-.4-.8.1-1,.4c-.2.3-.3.7-.3,1.4v3.3h-1.7v-6.2h1.6Z"/>
    <path d="M228.2,106.5v1.1h-1.2v3.1c0,.3,0,.5.1.6,0,0,.3.1.6.1s.2,0,.3,0c0,0,.2,0,.3,0v1.3c-.1,0-.3,0-.5,0-.2,0-.3,0-.5,0-.3,0-.5,0-.8,0-.2,0-.4-.1-.6-.2s-.3-.3-.4-.4-.2-.4-.2-.8v-3.7h-1v-1.1h1v-1.9h1.7v1.9h1.2Z"/>
    <path d="M234.3,106.6c-.2.9-.3,1.8-.3,2.8s.1,1.9.3,2.8c.2.9.5,1.8,1,2.7h-1.4c-.5-.8-.9-1.7-1.2-2.6s-.4-1.8-.4-2.8,0-.9.1-1.4c0-.5.2-1,.3-1.5.1-.5.3-1,.5-1.4.2-.5.4-.9.7-1.3h1.4c-.5.8-.8,1.7-1,2.6Z"/>
    <path d="M237.3,111.2c0,.1.2.2.3.3s.3.1.4.2c.2,0,.3,0,.5,0s.2,0,.4,0c.1,0,.3,0,.4-.1.1,0,.2-.1.3-.2,0,0,.1-.2.1-.4,0-.3-.2-.4-.5-.6-.3-.1-.8-.3-1.4-.4-.2,0-.5-.1-.7-.2s-.4-.2-.6-.3c-.2-.1-.3-.3-.4-.5-.1-.2-.2-.4-.2-.7,0-.4,0-.7.2-1,.2-.3.4-.5.6-.6.3-.1.5-.3.9-.3.3,0,.6,0,1,0s.7,0,1,0,.6.2.8.3c.2.2.5.4.6.6s.3.6.3,1h-1.6c0-.3-.1-.5-.4-.7-.2-.1-.5-.2-.8-.2s-.2,0-.3,0c-.1,0-.2,0-.3,0,0,0-.2,0-.2.2s0,.2,0,.3,0,.3.2.4c.1,0,.3.2.4.2.2,0,.4.1.6.2.2,0,.5.1.7.2.2,0,.5.1.7.2s.4.2.6.3.3.3.4.5c.1.2.2.4.2.7,0,.4,0,.8-.2,1-.2.3-.4.5-.6.7s-.6.3-.9.4c-.3,0-.7.1-1,.1s-.7,0-1.1-.1c-.3,0-.6-.2-.9-.4s-.5-.4-.7-.7-.3-.6-.3-1h1.6c0,.2,0,.3.1.5Z"/>
    <path d="M242.2,108.4c0-.4.1-.7.3-1,.2-.3.4-.5.7-.6.3-.2.6-.3.9-.3.3,0,.7-.1,1-.1s.6,0,.9,0c.3,0,.6.1.9.3s.5.3.6.5.3.5.3.9v3.2c0,.3,0,.5,0,.8,0,.3,0,.4.2.6h-1.7c0,0,0-.2,0-.3s0-.2,0-.3c-.3.3-.6.5-1,.6-.4.1-.7.2-1.1.2s-.6,0-.8-.1c-.3,0-.5-.2-.7-.3-.2-.2-.3-.3-.5-.6s-.2-.5-.2-.8,0-.6.2-.9.3-.4.5-.5c.2-.1.4-.2.7-.3.3,0,.5-.1.8-.2.3,0,.5,0,.8,0,.2,0,.5,0,.7-.1.2,0,.3-.1.5-.2.1,0,.2-.2.2-.4,0-.2,0-.3,0-.4s-.1-.2-.2-.3c-.1,0-.2-.1-.3-.1-.1,0-.3,0-.4,0-.3,0-.6,0-.8.2-.2.1-.3.4-.3.7h-1.7ZM246.2,109.7c0,0-.2.1-.3.1-.1,0-.2,0-.3,0s-.3,0-.4,0-.3,0-.4,0c-.1,0-.3,0-.4,0s-.2,0-.3.2c0,0-.2.2-.2.3,0,.1,0,.2,0,.4s0,.3,0,.4.1.2.2.2c0,0,.2.1.3.1.1,0,.3,0,.4,0,.3,0,.6,0,.8-.2.2-.1.3-.2.4-.4,0-.2.1-.3.2-.5,0-.2,0-.3,0-.4v-.6Z"/>
    <path d="M250.9,106.5v.8h0c.2-.3.5-.6.8-.7.3-.2.7-.3,1.1-.3s.8,0,1.1.2c.3.2.6.4.7.8.2-.3.4-.5.8-.7.3-.2.7-.3,1.1-.3s.6,0,.9.1c.3,0,.5.2.7.4.2.2.4.4.5.7.1.3.2.6.2,1v4.2h-1.7v-3.5c0-.2,0-.4,0-.6,0-.2,0-.3-.1-.5,0-.1-.2-.2-.3-.3-.1,0-.3-.1-.6-.1s-.4,0-.6.1c-.1,0-.3.2-.3.4s-.1.3-.2.5c0,.2,0,.4,0,.6v3.5h-1.7v-3.5c0-.2,0-.4,0-.5,0-.2,0-.3-.1-.5,0-.2-.2-.3-.3-.4-.1,0-.3-.1-.6-.1s-.2,0-.3,0c-.1,0-.3.1-.4.2s-.2.2-.3.4c0,.2-.1.4-.1.7v3.6h-1.7v-6.2h1.6Z"/>
    <path d="M261.7,106.5v.8h0c.2-.3.5-.6.8-.7.3-.2.7-.2,1.1-.2s.9,0,1.3.3c.4.2.6.4.9.7.2.3.4.7.5,1.1.1.4.2.8.2,1.3s0,.8-.2,1.2c-.1.4-.3.7-.5,1-.2.3-.5.5-.9.7-.3.2-.7.3-1.2.3s-.7,0-1.1-.2c-.3-.2-.6-.4-.8-.7h0v2.9h-1.7v-8.4h1.6ZM263.9,111.4c.2-.1.3-.3.5-.4.1-.2.2-.4.2-.6,0-.2,0-.5,0-.7s0-.5,0-.7c0-.2-.1-.5-.3-.6s-.3-.3-.5-.5c-.2-.1-.4-.2-.7-.2s-.5,0-.7.2c-.2.1-.3.3-.5.5-.1.2-.2.4-.2.6,0,.2,0,.5,0,.7s0,.5,0,.7c0,.2.1.5.3.6.1.2.3.3.5.4.2.1.4.2.7.2s.5,0,.7-.2Z"/>
    <path d="M269.2,104.2v8.6h-1.7v-8.6h1.7Z"/>
    <path d="M272.3,111.2c.3.2.6.4,1.1.4s.6,0,.9-.3c.2-.2.4-.4.5-.5h1.5c-.2.7-.6,1.3-1.1,1.6-.5.3-1.1.5-1.8.5s-.9,0-1.3-.2c-.4-.2-.7-.4-1-.7-.3-.3-.5-.6-.6-1s-.2-.8-.2-1.3,0-.9.2-1.3c.2-.4.4-.7.6-1,.3-.3.6-.5,1-.7.4-.2.8-.3,1.3-.3s1,.1,1.4.3.7.5,1,.8c.3.3.4.7.5,1.2.1.4.2.9.1,1.4h-4.5c0,.6.2,1,.4,1.2ZM274.2,108c-.2-.2-.5-.3-.9-.3s-.5,0-.7.1c-.2,0-.3.2-.4.3s-.2.3-.2.4,0,.3,0,.4h2.8c0-.4-.2-.8-.4-1Z"/>
    <path d="M282.7,113.6v.6h-6v-.6h6Z"/>
    <path d="M284.9,112.7l-2.1-6.2h1.8l1.3,4.2h0l1.3-4.2h1.7l-2.1,6.2h-1.9Z"/>
    <path d="M289.6,108.4c0-.4.1-.7.3-1,.2-.3.4-.5.7-.6.3-.2.6-.3.9-.3.3,0,.7-.1,1-.1s.6,0,.9,0c.3,0,.6.1.9.3s.5.3.6.5.3.5.3.9v3.2c0,.3,0,.5,0,.8,0,.3,0,.4.2.6h-1.7c0,0,0-.2,0-.3s0-.2,0-.3c-.3.3-.6.5-1,.6-.4.1-.7.2-1.1.2s-.6,0-.8-.1c-.3,0-.5-.2-.7-.3-.2-.2-.3-.3-.5-.6s-.2-.5-.2-.8,0-.6.2-.9.3-.4.5-.5c.2-.1.4-.2.7-.3.3,0,.5-.1.8-.2.3,0,.5,0,.8,0,.2,0,.5,0,.7-.1.2,0,.3-.1.5-.2.1,0,.2-.2.2-.4,0-.2,0-.3,0-.4s-.1-.2-.2-.3c-.1,0-.2-.1-.3-.1-.1,0-.3,0-.4,0-.3,0-.6,0-.8.2-.2.1-.3.4-.3.7h-1.7ZM293.5,109.7c0,0-.2.1-.3.1-.1,0-.2,0-.3,0s-.3,0-.4,0-.3,0-.4,0c-.1,0-.3,0-.4,0s-.2,0-.3.2c0,0-.2.2-.2.3,0,.1,0,.2,0,.4s0,.3,0,.4.1.2.2.2c0,0,.2.1.3.1.1,0,.3,0,.4,0,.3,0,.6,0,.8-.2.2-.1.3-.2.4-.4,0-.2.1-.3.2-.5,0-.2,0-.3,0-.4v-.6Z"/>
    <path d="M298.1,106.5v1.2h0c0-.2.2-.4.3-.5.1-.2.3-.3.5-.4.2-.1.4-.2.6-.3.2,0,.4,0,.6,0s.2,0,.4,0v1.6c0,0-.2,0-.3,0-.1,0-.2,0-.3,0-.3,0-.6,0-.8.2-.2.1-.4.2-.5.4-.1.2-.2.4-.3.6,0,.2,0,.5,0,.8v2.8h-1.7v-6.2h1.6Z"/>
    <path d="M301.2,105.6v-1.4h1.7v1.4h-1.7ZM302.9,106.5v6.2h-1.7v-6.2h1.7Z"/>
    <path d="M304.2,108.4c0-.4.1-.7.3-1,.2-.3.4-.5.7-.6.3-.2.6-.3.9-.3.3,0,.7-.1,1-.1s.6,0,.9,0c.3,0,.6.1.9.3s.5.3.6.5.3.5.3.9v3.2c0,.3,0,.5,0,.8,0,.3,0,.4.2.6h-1.7c0,0,0-.2,0-.3s0-.2,0-.3c-.3.3-.6.5-1,.6-.4.1-.7.2-1.1.2s-.6,0-.8-.1c-.3,0-.5-.2-.7-.3-.2-.2-.3-.3-.5-.6s-.2-.5-.2-.8,0-.6.2-.9.3-.4.5-.5c.2-.1.4-.2.7-.3.3,0,.5-.1.8-.2.3,0,.5,0,.8,0,.2,0,.5,0,.7-.1.2,0,.3-.1.5-.2.1,0,.2-.2.2-.4,0-.2,0-.3,0-.4s-.1-.2-.2-.3c-.1,0-.2-.1-.3-.1-.1,0-.3,0-.4,0-.3,0-.6,0-.8.2-.2.1-.3.4-.3.7h-1.7ZM308.1,109.7c0,0-.2.1-.3.1-.1,0-.2,0-.3,0s-.3,0-.4,0-.3,0-.4,0c-.1,0-.3,0-.4,0s-.2,0-.3.2c0,0-.2.2-.2.3,0,.1,0,.2,0,.4s0,.3,0,.4.1.2.2.2c0,0,.2.1.3.1.1,0,.3,0,.4,0,.3,0,.6,0,.8-.2.2-.1.3-.2.4-.4,0-.2.1-.3.2-.5,0-.2,0-.3,0-.4v-.6Z"/>
    <path d="M312.9,104.2v3.1h0c.2-.3.5-.6.8-.7.4-.1.7-.2,1.1-.2s.6,0,.9.2c.3.1.6.3.8.6.2.3.4.6.6,1,.2.4.2.9.2,1.5s0,1.1-.2,1.5c-.2.4-.4.8-.6,1-.2.3-.5.5-.8.6s-.6.2-.9.2c-.5,0-.9,0-1.2-.2s-.6-.4-.8-.7h0v.8h-1.6v-8.6h1.7ZM315.6,108.9c0-.2-.1-.5-.3-.6-.1-.2-.3-.3-.5-.4-.2-.1-.4-.2-.7-.2s-.5,0-.6.2c-.2.1-.3.3-.5.4-.1.2-.2.4-.3.6,0,.2,0,.5,0,.8s0,.5,0,.7c0,.2.1.5.3.6.1.2.3.3.5.4.2.1.4.2.6.2s.5,0,.7-.2c.2-.1.3-.3.5-.4.1-.2.2-.4.3-.6,0-.2,0-.5,0-.7s0-.5,0-.8Z"/>
    <path d="M320.2,104.2v8.6h-1.7v-8.6h1.7Z"/>
    <path d="M323.4,111.2c.3.2.6.4,1.1.4s.6,0,.9-.3c.2-.2.4-.4.5-.5h1.5c-.2.7-.6,1.3-1.1,1.6-.5.3-1.1.5-1.8.5s-.9,0-1.3-.2c-.4-.2-.7-.4-1-.7-.3-.3-.5-.6-.6-1s-.2-.8-.2-1.3,0-.9.2-1.3c.2-.4.4-.7.6-1,.3-.3.6-.5,1-.7.4-.2.8-.3,1.3-.3s1,.1,1.4.3.7.5,1,.8c.3.3.4.7.5,1.2.1.4.2.9.1,1.4h-4.5c0,.6.2,1,.4,1.2ZM325.3,108c-.2-.2-.5-.3-.9-.3s-.5,0-.7.1c-.2,0-.3.2-.4.3s-.2.3-.2.4,0,.3,0,.4h2.8c0-.4-.2-.8-.4-1Z"/>
    <path d="M328.7,112.3c.2-.9.3-1.8.3-2.8s-.1-1.9-.3-2.8c-.2-.9-.5-1.8-1-2.7h1.4c.5.8.9,1.7,1.2,2.6.3.9.4,1.9.4,2.8s0,.9,0,1.4c0,.5-.2,1-.3,1.5-.1.5-.3,1-.5,1.4-.2.5-.4.9-.7,1.2h-1.4c.4-.8.8-1.7,1-2.6Z"/>
  </g>
  <g>
    <path d="M415.5,13.6c.9,0,1.5,0,2.1-.1v1.9c-.6,0-1.3-.1-2.2-.1h-3.6c1.5,1.4,3.6,2.6,6.4,3.4-.5.8-.7,1-1.1,2-1.9-.8-2.7-1.2-4-2.1-1.2-.8-1.8-1.3-2.6-2.2,0,.7,0,1,0,1.3v1.7c0,.8,0,1.2.1,1.7h-2.2c.1-.6.1-1,.1-1.7v-1.6c0-.4,0-.8,0-1.3-.9,1-1.5,1.6-2.6,2.3-1.1.8-2.1,1.3-3.5,1.9-.3-.7-.5-1.2-1.1-1.9,2.2-.6,4.6-1.9,6-3.3h-3.4c-.9,0-1.6,0-2.2.1v-1.9c.5,0,.9.1,1.7.1h5.1v-.8c0-.5,0-.7,0-1.2h2.1c0,.4,0,.7,0,1.2v.7h5ZM414.9,6.4c-.2.1-.2.2-.5.5-1,1.1-1.9,1.9-3,2.6,1.8.7,3.9,1.2,6.6,1.5-.4.6-.6,1.1-.9,1.9-3.7-.6-5.7-1.3-7.6-2.3-.9.5-1.5.7-2.8,1.2-1.7.6-2.5.8-4.6,1.2-.2-.7-.3-1.1-.7-1.7,2.5-.3,4.5-.8,6.5-1.7-.7-.6-1.1-.9-1.9-1.7-1.2.9-1.8,1.3-3.2,1.9-.3-.6-.5-1-1.1-1.5,1.4-.6,2.3-1,3.4-1.9,1-.8,1.7-1.5,2.2-2.3l2.2.4c-.2.2-.5.5-1,1h3.7c.8,0,1.1,0,1.6-.1l1.1,1.1ZM407.5,7c.6.7,1.2,1.2,2.2,1.7.9-.6,1.4-.9,2.2-1.7h-4.4Z"/>
    <path d="M421.3,13.7c0-.6,0-1.2,0-2-.4.8-.8,1.4-1.5,2.1-.3-1.2-.5-1.6-.8-2.2,1.4-1.5,2.3-3.1,3.1-5.1.4-1,.5-1.6.6-2.3l2,.6c0,.3-.1.4-.3.8-.4,1.4-.6,1.8-1.3,3.2v10.2c0,.8,0,1.4,0,2.1h-2.2c0-.7.1-1.2.1-2.1v-5.2ZM429.2,6.4c0-.8,0-1.3-.1-1.9h2.2c-.1.6-.1,1-.1,1.9v1.7h2.2c.9,0,1.4,0,1.9-.1v2.1c-.8,0-1.4-.1-1.9-.1h-2.3v3.4h2.8c.9,0,1.4,0,2-.1v2.1c-.6,0-1.2-.1-2-.1h-2.8v3.7c0,1,0,1.4.1,2.1h-2.2c0-.6.1-1.2.1-2.1v-3.7h-3.1c-.8,0-1.5,0-2,.1v-2.1c.5,0,1.2.1,2,.1h3.1v-3.4h-2.5c-.5,1.1-.8,1.6-1.5,2.6-.5-.5-.6-.6-1.6-1.3.8-1.1,1.4-2.3,1.9-3.7.3-.9.5-1.6.6-2.3l2,.5c-.1.4-.2.5-.3,1.1-.2.6-.3.8-.4,1.2h1.8v-1.7Z"/>
  </g>
  <g>
    <line class="st3" x1="392.5" y1="13" x2="358.6" y2="13"/>
    <g>
      <line class="st1" x1="392.5" y1="13" x2="363.2" y2="13"/>
      <polygon class="st4" points="371.2 6.2 364.4 13 371.2 19.8 365.4 19.8 358.6 13 365.4 6.2 371.2 6.2"/>
    </g>
  </g>
  <g>
    <path d="M407.5,30c.7,0,1,0,1.5,0q0,.4,0,1c-.2,3.6-.7,5.6-1.8,7.9.8,1.2,1.5,1.8,2.4,2.3,1.1.5,2.9.8,5.5.8s1.9,0,3.4-.1c-.3.8-.4,1.2-.6,2.1-.6,0-1.7,0-2.3,0-1.6,0-3.6-.2-4.9-.4-1.8-.3-3.2-1.3-4.5-3-1.1,1.6-2.1,2.6-3.7,3.9-.3-.8-.6-1.3-1.1-1.8,1.8-1.3,2.8-2.4,3.8-3.9-.6-1.3-.8-1.7-1.2-3.1-.5,1-.8,1.4-1.4,2.4-.4-.9-.6-1.2-1.2-1.9,1-1.2,1.6-2.5,2.1-4.3.4-1.3.7-3,.7-3.8s0-.1,0-.3l2,.2c0,.3-.1.5-.2,1,0,.4,0,.6-.2,1.1h1.9ZM405.2,31.7c-.1.6-.3.9-.5,1.5.6,2.1.7,2.5,1.2,3.7.6-1.5.8-2.8,1-5.2h-1.8ZM411.9,30.6c0,3-.1,4.6-.4,6.1-.3,1.7-.7,2.7-1.6,4-.5-.6-.8-.9-1.6-1.3,1.5-1.8,1.8-3.5,1.8-9.3s0-1,0-1.4c.3,0,.7,0,1.4,0h2.4c.8,0,1.3,0,1.6,0,0,.4,0,.9,0,1.6v7.8c0,.3,0,.3.4.3s.5,0,.6-.6c0-.5.1-1.3.2-2.8.6.3,1,.5,1.5.5,0,2.3-.2,3.4-.5,4-.3.6-.8.8-1.9.8-1.7,0-2.1-.3-2.1-1.3v-8.4h-1.6Z"/>
    <path d="M420.8,30.5c-.6,0-.9,0-1.4,0v-1.9c.4,0,.9.1,1.6.1h2.5c.7,0,1.2,0,1.6-.1v1.9c-.5,0-.8,0-1.3,0h-.5v3.5h.4c.5,0,.7,0,1.1,0v1.8c-.4,0-.7,0-1.1,0h-.4v3.5c.8-.3,1-.4,1.8-.8v1.9c-1.5.8-2.2,1.1-5,2.2h-.4c0,.1-.5-1.9-.5-1.9.6-.1,1-.3,2.2-.7v-4.3h-.6c-.5,0-.8,0-1.2,0v-1.9c.4,0,.7,0,1.3,0h.6v-3.5h-.7ZM429.5,40.3h-2c-1,0-1.4,0-1.9,0v-1.8c.5,0,.8,0,1.9,0h2v-1.5h-1.7c-1.2,0-1.6,0-2.2,0q0-.4,0-2.2v-4.1c0-1.2,0-1.8,0-2.4.7,0,1.3,0,2.4,0h5c1.3,0,1.9,0,2.3,0,0,.5,0,1.4,0,2.5v3.8c0,1.3,0,1.9,0,2.4-.6,0-.9,0-2,0h-2.1v1.5h2.3c1,0,1.4,0,1.9,0v1.9c-.5,0-1,0-1.9,0h-2.3v1.9h2.9c1,0,1.4,0,1.9,0v1.9c-.6,0-1.1,0-2,0h-7.6c-1,0-1.4,0-2,0v-1.9c.5,0,.9,0,1.8,0h3.2v-1.9ZM427.5,30.3v1.8h2v-1.8h-2ZM427.5,33.6v1.8h2v-1.8h-2ZM431.3,32.1h2.1v-1.8h-2.1v1.8ZM431.3,35.4h2.1v-1.8h-2.1v1.8Z"/>
  </g>
  <g>
    <line class="st3" x1="392.5" y1="36.5" x2="358.6" y2="36.5"/>
    <g>
      <line class="st1" x1="392.5" y1="36.5" x2="363.2" y2="36.5"/>
      <polygon class="st4" points="371.2 29.7 364.4 36.5 371.2 43.3 365.4 43.3 358.6 36.5 365.4 29.7 371.2 29.7"/>
    </g>
  </g>
  <g>
    <path d="M415.5,61.8c.9,0,1.5,0,2.1-.1v1.9c-.6,0-1.3-.1-2.2-.1h-3.6c1.5,1.4,3.6,2.6,6.4,3.4-.5.8-.7,1-1.1,2-1.9-.8-2.7-1.2-4-2.1-1.2-.8-1.8-1.3-2.6-2.2,0,.7,0,1,0,1.3v1.7c0,.8,0,1.2.1,1.7h-2.2c.1-.6.1-1,.1-1.7v-1.6c0-.4,0-.8,0-1.3-.9,1-1.5,1.6-2.6,2.3-1.1.8-2.1,1.3-3.5,1.9-.3-.7-.5-1.2-1.1-1.9,2.2-.6,4.6-1.9,6-3.3h-3.4c-.9,0-1.6,0-2.2.1v-1.9c.5,0,.9.1,1.7.1h5.1v-.8c0-.5,0-.7,0-1.2h2.1c0,.4,0,.7,0,1.2v.7h5ZM414.9,54.6c-.2.1-.2.2-.5.5-1,1.1-1.9,1.9-3,2.6,1.8.7,3.9,1.2,6.6,1.5-.4.6-.6,1.1-.9,1.9-3.7-.6-5.7-1.3-7.6-2.3-.9.5-1.5.7-2.8,1.2-1.7.6-2.5.8-4.6,1.2-.2-.7-.3-1.1-.7-1.7,2.5-.3,4.5-.8,6.5-1.7-.7-.6-1.1-.9-1.9-1.7-1.2.9-1.8,1.3-3.2,1.9-.3-.6-.5-1-1.1-1.5,1.4-.6,2.3-1,3.4-1.9,1-.8,1.7-1.5,2.2-2.3l2.2.4c-.2.2-.5.5-1,1h3.7c.8,0,1.1,0,1.6-.1l1.1,1.1ZM407.5,55.2c.6.7,1.2,1.2,2.2,1.7.9-.6,1.4-.9,2.2-1.7h-4.4Z"/>
    <path d="M421.3,61.9c0-.6,0-1.2,0-2-.4.8-.8,1.4-1.5,2.1-.3-1.2-.5-1.6-.8-2.2,1.4-1.5,2.3-3.1,3.1-5.1.4-1,.5-1.6.6-2.3l2,.6c0,.3-.1.4-.3.8-.4,1.4-.6,1.8-1.3,3.2v10.2c0,.8,0,1.4,0,2.1h-2.2c0-.7.1-1.2.1-2.1v-5.2ZM429.2,54.6c0-.8,0-1.3-.1-1.9h2.2c-.1.6-.1,1-.1,1.9v1.7h2.2c.9,0,1.4,0,1.9-.1v2.1c-.8,0-1.4-.1-1.9-.1h-2.3v3.4h2.8c.9,0,1.4,0,2-.1v2.1c-.6,0-1.2-.1-2-.1h-2.8v3.7c0,1,0,1.4.1,2.1h-2.2c0-.6.1-1.2.1-2.1v-3.7h-3.1c-.8,0-1.5,0-2,.1v-2.1c.5,0,1.2.1,2,.1h3.1v-3.4h-2.5c-.5,1.1-.8,1.6-1.5,2.6-.5-.5-.6-.6-1.6-1.3.8-1.1,1.4-2.3,1.9-3.7.3-.9.5-1.6.6-2.3l2,.5c-.1.4-.2.5-.3,1.1-.2.6-.3.8-.4,1.2h1.8v-1.7Z"/>
  </g>
  <g>
    <line class="st3" x1="392.5" y1="61.2" x2="358.6" y2="61.2"/>
    <g>
      <line class="st1" x1="392.5" y1="61.2" x2="363.2" y2="61.2"/>
      <polygon class="st4" points="371.2 54.4 364.4 61.2 371.2 68 365.4 68 358.6 61.2 365.4 54.4 371.2 54.4"/>
    </g>
  </g>
  <g>
    <path d="M407.5,78.2c.7,0,1,0,1.5,0q0,.4,0,1c-.2,3.6-.7,5.6-1.8,7.9.8,1.2,1.5,1.8,2.4,2.3,1.1.5,2.9.8,5.5.8s1.9,0,3.4-.1c-.3.8-.4,1.2-.6,2.1-.6,0-1.7,0-2.3,0-1.6,0-3.6-.2-4.9-.4-1.8-.3-3.2-1.3-4.5-3-1.1,1.6-2.1,2.6-3.7,3.9-.3-.8-.6-1.3-1.1-1.8,1.8-1.3,2.8-2.4,3.8-3.9-.6-1.3-.8-1.7-1.2-3.1-.5,1-.8,1.4-1.4,2.4-.4-.9-.6-1.2-1.2-1.9,1-1.2,1.6-2.5,2.1-4.3.4-1.3.7-3,.7-3.8s0-.1,0-.3l2,.2c0,.3-.1.5-.2,1,0,.4,0,.6-.2,1.1h1.9ZM405.2,79.9c-.1.6-.3.9-.5,1.5.6,2.1.7,2.5,1.2,3.7.6-1.5.8-2.8,1-5.2h-1.8ZM411.9,78.8c0,3-.1,4.6-.4,6.1-.3,1.7-.7,2.7-1.6,4-.5-.6-.8-.9-1.6-1.3,1.5-1.8,1.8-3.5,1.8-9.3s0-1,0-1.4c.3,0,.7,0,1.4,0h2.4c.8,0,1.3,0,1.6,0,0,.4,0,.9,0,1.6v7.8c0,.3,0,.3.4.3s.5,0,.6-.6c0-.5.1-1.3.2-2.8.6.3,1,.5,1.5.5,0,2.3-.2,3.4-.5,4-.3.6-.8.8-1.9.8-1.7,0-2.1-.3-2.1-1.3v-8.4h-1.6Z"/>
    <path d="M420.8,78.7c-.6,0-.9,0-1.4,0v-1.9c.4,0,.9.1,1.6.1h2.5c.7,0,1.2,0,1.6-.1v1.9c-.5,0-.8,0-1.3,0h-.5v3.5h.4c.5,0,.7,0,1.1,0v1.8c-.4,0-.7,0-1.1,0h-.4v3.5c.8-.3,1-.4,1.8-.8v1.9c-1.5.8-2.2,1.1-5,2.2h-.4c0,.1-.5-1.9-.5-1.9.6-.1,1-.3,2.2-.7v-4.3h-.6c-.5,0-.8,0-1.2,0v-1.9c.4,0,.7,0,1.3,0h.6v-3.5h-.7ZM429.5,88.5h-2c-1,0-1.4,0-1.9,0v-1.8c.5,0,.8,0,1.9,0h2v-1.5h-1.7c-1.2,0-1.6,0-2.2,0q0-.4,0-2.2v-4.1c0-1.2,0-1.8,0-2.4.7,0,1.3,0,2.4,0h5c1.3,0,1.9,0,2.3,0,0,.5,0,1.4,0,2.5v3.8c0,1.3,0,1.9,0,2.4-.6,0-.9,0-2,0h-2.1v1.5h2.3c1,0,1.4,0,1.9,0v1.9c-.5,0-1,0-1.9,0h-2.3v1.9h2.9c1,0,1.4,0,1.9,0v1.9c-.6,0-1.1,0-2,0h-7.6c-1,0-1.4,0-2,0v-1.9c.5,0,.9,0,1.8,0h3.2v-1.9ZM427.5,78.5v1.8h2v-1.8h-2ZM427.5,81.8v1.8h2v-1.8h-2ZM431.3,80.3h2.1v-1.8h-2.1v1.8ZM431.3,83.6h2.1v-1.8h-2.1v1.8Z"/>
  </g>
  <g>
    <line class="st3" x1="392.5" y1="84.7" x2="358.6" y2="84.7"/>
    <g>
      <line class="st1" x1="392.5" y1="84.7" x2="363.2" y2="84.7"/>
      <polygon class="st4" points="371.2 77.9 364.4 84.7 371.2 91.5 365.4 91.5 358.6 84.7 365.4 77.9 371.2 77.9"/>
    </g>
  </g>
  <rect class="st5" x="201.9" y="53.6" width="151.7" height="15.4"/>
  <rect class="st5" x="195.6" y="75.4" width="28.1" height="15.4" transform="translate(126.5 292.7) rotate(-90)"/>
  <polyline class="st0" points="202.2 90.9 202.2 96.2 226.2 96.2 226.2 90.9"/>
  <polyline class="st0" points="202.2 43.9 202.2 49.2 226.2 49.2 226.2 43.9"/>
  <g>
    <path class="st3" d="M162.4,43.1c-.2.1-.2.1-.4.4-.6.6-1.3,1.3-2.1,1.8v3.8c0,.5,0,.7,0,1h-.8c0-.2,0-.4,0-.9v-3.4c-1.2.7-1.8,1-3.5,1.6-.1-.3-.2-.4-.4-.6,1.7-.4,3.2-1.2,4.7-2.3.8-.6,1.5-1.3,1.7-1.7l.6.4Z"/>
    <path class="st3" d="M165,49.1c.7,0,1.8-.3,2.6-.7,1.7-.8,2.9-2.1,3.7-4,.2.3.3.4.5.5-.7,1.6-1.6,2.6-2.7,3.4-.9.6-1.9,1-3.4,1.3-.2,0-.3,0-.5.1l-.2-.8ZM165.6,43.5c1,.6,1.5,1.1,2.2,1.7l-.5.6c-.6-.7-1.4-1.3-2.1-1.8l.4-.5Z"/>
    <path class="st3" d="M177.7,45.9c-.1,2.3-.9,3.4-2.9,4.2-.1-.3-.2-.4-.4-.6,1.9-.6,2.6-1.6,2.6-3.6h-2.4c-.6,0-.8,0-1,0v-.7c.3,0,.5,0,1,0h5.3c.6,0,.7,0,1,0v.7c-.3,0-.5,0-1,0h-2.2ZM174.4,43.1c.3,0,.5,0,1,0h2.7c.5,0,.7,0,1,0v.6c-.1,0-.5,0-1,0h-2.7c-.6,0-.8,0-1,0v-.7ZM179.7,42.3c.4.5.6.9.9,1.4l-.5.3c-.2-.5-.6-1.2-.9-1.5l.5-.2ZM180.8,42c.4.5.6.9.9,1.4l-.5.3c-.2-.4-.5-1-.9-1.4l.4-.2Z"/>
    <path class="st3" d="M183,49.1c.7,0,1.8-.3,2.6-.7,1.7-.8,2.9-2.1,3.7-4,.2.3.3.4.5.5-.7,1.6-1.6,2.6-2.7,3.4-.9.6-1.9,1-3.4,1.3-.2,0-.3,0-.5.1l-.2-.8ZM183.6,43.5c1,.6,1.5,1.1,2.2,1.7l-.5.6c-.6-.7-1.4-1.3-2.1-1.8l.4-.5Z"/>
    <path class="st3" d="M193.4,50.1c0-.2,0-.5,0-.9v-5.6c0-.5,0-.7,0-.9h.8c0,.2,0,.4,0,.9v1.7c1.4.5,2.4,1,4,1.9l-.4.7c-.8-.6-2.1-1.3-3.4-1.8-.1,0-.2,0-.3-.2h0c0,.2,0,.3,0,.5v2.7c0,.5,0,.7,0,1h-.8Z"/>
  </g>
  <g>
    <path class="st3" d="M162.4,89.5c-.2.1-.2.1-.4.4-.6.6-1.3,1.3-2.1,1.8v3.8c0,.5,0,.7,0,1h-.8c0-.2,0-.4,0-.9v-3.4c-1.2.7-1.8,1-3.5,1.6-.1-.3-.2-.4-.4-.6,1.7-.4,3.2-1.2,4.7-2.3.8-.6,1.5-1.3,1.7-1.7l.6.4Z"/>
    <path class="st3" d="M165,95.4c.7,0,1.8-.3,2.6-.7,1.7-.8,2.9-2.1,3.7-4,.2.3.3.4.5.5-.7,1.6-1.6,2.6-2.7,3.4-.9.6-1.9,1-3.4,1.3-.2,0-.3,0-.5.1l-.2-.8ZM165.6,89.8c1,.6,1.5,1.1,2.2,1.7l-.5.6c-.6-.7-1.4-1.3-2.1-1.8l.4-.5Z"/>
    <path class="st3" d="M177.7,92.2c-.1,2.3-.9,3.4-2.9,4.2-.1-.3-.2-.4-.4-.6,1.9-.6,2.6-1.6,2.6-3.6h-2.4c-.6,0-.8,0-1,0v-.7c.3,0,.5,0,1,0h5.3c.6,0,.7,0,1,0v.7c-.3,0-.5,0-1,0h-2.2ZM174.4,89.4c.3,0,.5,0,1,0h2.7c.5,0,.7,0,1,0v.6c-.1,0-.5,0-1,0h-2.7c-.6,0-.8,0-1,0v-.7ZM179.7,88.6c.4.5.6.9.9,1.4l-.5.3c-.2-.5-.6-1.2-.9-1.5l.5-.2ZM180.8,88.3c.4.5.6.9.9,1.4l-.5.3c-.2-.4-.5-1-.9-1.4l.4-.2Z"/>
    <path class="st3" d="M183,95.4c.7,0,1.8-.3,2.6-.7,1.7-.8,2.9-2.1,3.7-4,.2.3.3.4.5.5-.7,1.6-1.6,2.6-2.7,3.4-.9.6-1.9,1-3.4,1.3-.2,0-.3,0-.5.1l-.2-.8ZM183.6,89.8c1,.6,1.5,1.1,2.2,1.7l-.5.6c-.6-.7-1.4-1.3-2.1-1.8l.4-.5Z"/>
    <path class="st3" d="M193.4,96.4c0-.2,0-.5,0-.9v-5.6c0-.5,0-.7,0-.9h.8c0,.2,0,.4,0,.9v1.7c1.4.5,2.4,1,4,1.9l-.4.7c-.8-.6-2.1-1.3-3.4-1.8-.1,0-.2,0-.3-.2h0c0,.2,0,.3,0,.5v2.7c0,.5,0,.7,0,1h-.8Z"/>
  </g>
</svg>