<?xml version="1.0" encoding="UTF-8"?>
<svg id="Layer_1" xmlns="http://www.w3.org/2000/svg" version="1.1" viewBox="0 0 618.7 116.5">
  <!-- Generator: Adobe Illustrator 29.2.1, SVG Export Plug-In . SVG Version: 2.1.0 Build 116)  -->
  <defs>
    <style>
      .st0 {
        fill: gray;
      }

      .st1 {
        stroke-width: 3px;
      }

      .st1, .st2 {
        fill: none;
        stroke: #7ec01b;
        stroke-miterlimit: 10;
      }

      .st3 {
        fill: #7ec01b;
      }

      .st2 {
        stroke-width: .5px;
      }

      .st4 {
        fill: #6abd45;
        opacity: .2;
      }
    </style>
  </defs>
  <g>
    <path d="M341.7,65.5v1h-1.8c0-.3,0-.7,0-1.2v-8c0-.5,0-.8,0-1.2.3,0,.6,0,1.2,0h8c.6,0,.9,0,1.2,0,0,.4,0,.6,0,1.2v8c0,.5,0,.9,0,1.2h-1.8v-1h-6.7ZM348.5,57.7h-6.7v6.2h6.7v-6.2Z"/>
    <path d="M352.7,59.9c.6,0,.9,0,2.3,0h7.5c1.4,0,1.7,0,2.3,0v1.9c-.6,0-.7,0-2.3,0h-7.4c-1.6,0-1.7,0-2.3,0v-1.9Z"/>
    <path d="M377.7,58c-.1.3-.1.4-.2.9,0,1.6-.2,3.7-.3,4.7-.4,2.4-.9,3-2.5,3s-1,0-1.7-.2c0-.9,0-1.1-.3-1.8.8.2,1.4.3,1.8.3s.8-.3,1-1.5c.2-1,.3-2.9.3-4.5h-3.3c-.2,1.8-.5,2.8-1.1,4-.8,1.5-2,2.8-3.8,3.9-.5-.7-.7-1-1.3-1.5,1.8-.9,2.9-2,3.6-3.5.4-.8.6-1.5.7-2.4,0-.2,0-.3,0-.4h-2.3c-.9,0-1.1,0-1.5,0v-1.7c.5,0,.8.1,1.5.1h2.5c0-.5,0-1.4,0-1.8v-.3c0-.2,0-.3,0-.5h1.9c0,.2,0,.3,0,.5,0,0,0,.2,0,.3q0,.3,0,1c0,.3,0,.4,0,.9h3.1c.6,0,.8,0,1.1-.1l.8.7Z"/>
    <path d="M383.7,55.4q0,.4-.1,3.1c0,2.7-.4,4.3-1.1,5.8-.5,1-1,1.7-1.9,2.6-.5-.7-.8-.9-1.4-1.4.7-.6,1-.9,1.4-1.6,1-1.6,1.3-3.4,1.3-7.3s0-.9,0-1.3h1.9ZM387.4,55.3c0,.4,0,.6,0,1.3v8c.9-.5,1.5-.9,2.1-1.6.6-.8,1.1-1.5,1.4-2.6.5.6.7.8,1.3,1.3-.6,1.4-1.3,2.4-2.2,3.3-.8.7-1.5,1.1-3,1.7-.3.1-.4.2-.6.3l-.9-1c0-.4.1-.7.1-1.5v-7.9c0,0,0-.4,0-.4,0-.3,0-.7,0-.9h1.9Z"/>
    <path d="M403.5,62.8q-.2.2-.8.8c-.6.6-1.2,1.1-1.8,1.5,1.5.5,2.7.7,5,.8-.4.5-.6,1-.8,1.6-1.6-.2-2.3-.4-3.5-.7-.9-.3-1.4-.4-2.2-.8-1.8.8-3.2,1.2-6,1.5-.2-.6-.4-1-.8-1.5,2.2,0,3.5-.2,5.2-.9-.6-.4-1-.7-1.5-1.2-.7.5-1.3.7-2.1,1-.3-.5-.4-.8-.9-1.2,1.1-.3,2.1-.8,3-1.5.7-.6,1.1-1,1.5-1.5l1.4.6q0,0-.2.3s0,0-.2.2c0,0,0,0-.1.2h2.6c.6,0,1,0,1.2,0l.9,1ZM396.7,57.9c-.4.8-.6,1.2-1.1,1.8-.4.5-.7.8-1.3,1.4-.1-.1-.2-.2-.3-.3q-.4-.3-.5-.4l-.2-.2c0,0-.1,0-.2-.1.6-.4.9-.7,1.2-1.1.5-.6.8-1,1.1-1.8l1.4.6ZM394.7,57.1c-.7,0-1.1,0-1.6,0v-1.5c.4,0,.9,0,1.7,0h3.7v-.3c0-.4,0-.6,0-.9h1.8c0,.3,0,.5,0,.9v.3h3.7c.7,0,1.2,0,1.7,0v1.5c-.5,0-1,0-1.7,0h-2.2v2.8c0,.8-.3,1.1-1.3,1.1s-.8,0-1.1,0c0-.5-.2-.9-.4-1.4.4,0,.7,0,1.1,0s.3,0,.3-.3v-2.3h-1.3c0,1.3-.2,2-.6,2.7-.4.7-.9,1.2-1.8,1.8-.3-.4-.7-.6-1.2-.9,1.1-.6,1.5-.9,1.8-1.6.3-.5.4-1.1.4-1.9h-2.7ZM397.6,63.1c.5.5,1.1.9,1.8,1.3.7-.4,1.1-.7,1.8-1.3h-3.6ZM403,57.4c1,.9,1.6,1.6,2.5,2.7l-1.3,1c-.8-1.2-1.2-1.8-2.4-2.9l1.1-.8Z"/>
    <path d="M413,57.1c.4,0,.7,0,.9,0v1.3c-.2,0-.5,0-.9,0h-.9c.3.3.5.5,1.2.9-.4.4-.4.5-.8,1.1-.7-.6-.9-.8-1.2-1.3,0,.3,0,.5,0,.6v.5c0,.2,0,.3,0,.5h-1.5c0-.2,0-.3,0-.5v-.5c0-.1,0-.4,0-.6-.8,1-1.2,1.5-2.3,2.2-.3-.5-.5-.7-.9-1.2,1.1-.6,1.8-1.1,2.2-1.8h-.8c-.5,0-.9,0-1.2,0v-1.3c.3,0,.6,0,1.2,0h1.7v-1.7c0-.4,0-.7,0-1h1.5c0,.3,0,.5,0,.9v1.7h1.7ZM412.3,66.7c-.5-.4-.7-.5-1.3-.9-.9.8-1.7,1.2-3.3,1.7-.2-.5-.4-.9-.7-1.3,1.3-.3,2-.5,2.8-1-.7-.3-1.1-.5-2.1-.8.4-.6.6-.8.9-1.4h-.4c-.5,0-.8,0-1.1,0v-1.4c.3,0,.6,0,1.1,0h1.1c.1-.3.2-.5.4-1l1.5.3c-.1.3-.2.4-.3.7h2.2c.5,0,.8,0,1,0v1.4c-.3,0-.5,0-1.1,0-.3.9-.4,1.2-.8,1.8.6.3.7.3,1.1.6l-.8,1.3ZM408.6,54.7c.5.8.7,1.1,1,1.8l-1.2.5c-.3-.8-.5-1.2-.9-1.9l1.2-.4ZM410,62.9c-.2.3-.2.4-.5.8.6.2.8.3,1.2.5.3-.4.5-.8.6-1.2h-1.3ZM413.8,55.2c-.5,1.1-.6,1.2-1.1,1.9l-1.2-.5c.4-.6.8-1.2,1-1.9l1.3.5ZM419.9,58.3c-.3,0-.4,0-1,0-.1,2.3-.5,4-1.4,5.5.8,1,1.6,1.6,2.7,2.2-.3.4-.6.9-.8,1.5-1.1-.6-2-1.5-2.7-2.4-.9,1-2,1.9-3.2,2.5-.3-.7-.4-1-.8-1.4.6-.3.8-.4,1.1-.6.8-.5,1.4-1.1,2-1.8-.7-1.2-.9-2-1.2-3.3-.3.4-.4.5-.6.9-.3-.4-.6-.7-1-1,.9-1.1,1.5-2.3,1.9-4,.2-.7.3-1.5.3-1.9l1.5.3c0,.2,0,.3-.2.8,0,.4-.2.8-.4,1.4h2.4c.7,0,1,0,1.3,0v1.5ZM415.7,58.3q-.1.3-.2.4c.2,1.5.5,2.5,1.1,3.7.5-1.2.8-2.4.9-4.1h-1.8Z"/>
    <path d="M425,67.5c-.8-1.1-1.1-1.7-1.5-2.8-.5-1.3-.7-2.5-.7-3.9s.2-2.5.7-3.7c.4-1,.7-1.6,1.5-2.8h2c-1,1.2-1.4,1.9-1.8,2.8-.5,1.1-.7,2.3-.7,3.7s.2,2.7.7,3.8c.4.9.8,1.5,1.8,2.8h-2Z"/>
    <path d="M438.6,62.6c-.3.4-.6.8-.9,1.3-1.5-1-2.7-2.2-3.4-3.6-.2.5-.4.9-.7,1.3-.7,1-1.4,1.7-2.7,2.5-.2-.4-.5-.8-.9-1.2v2.7c0,.9,0,1.3,0,1.7h-1.7c0-.5,0-1,0-1.7v-8c0-.6,0-1,0-1.4.5,0,.9,0,1.6,0h3.4c0-.3,0-.5,0-.8,0-.6,0-.9,0-1.2h1.8c0,.3,0,.4,0,.7q0,.2,0,.8t0,.5h3.6c.8,0,1.1,0,1.6,0,0,.4,0,.8,0,1.4v8c0,.6,0,.8-.2,1-.3.4-.8.5-2.1.5s-.8,0-1.4,0c0-.7-.2-1.1-.4-1.6.7,0,1.3.2,1.8.2s.8,0,.8-.4v-2.7ZM430,62.8c1.1-.7,1.8-1.3,2.3-2.1.5-.8.8-1.7,1-2.9h-3.3v5ZM434.9,57.8c0,.4,0,.4,0,.7.4.9,1,1.7,1.6,2.3.6.6,1.2,1.1,2.2,1.6v-4.6h-3.7Z"/>
    <path d="M445.4,56.1c0-.3,0-.9,0-1.1,0,.2-.2.5-.2.7-.2.8-.4,1.2-.8,2.1v7.8c0,.8,0,1.3,0,1.8h-1.6c0-.5,0-1.1,0-1.8v-3.8c0-.6,0-1.1,0-1.7-.3.5-.5.9-.9,1.4-.2-.6-.4-1.1-.7-1.6.9-1.1,1.6-2.3,2.1-3.7.3-.7.4-1.2.5-1.8l1.4.5c.3,0,.5,0,1,0h2.5c.4,0,.7,0,1,0,0,.4,0,.7,0,1.3v6.6c0,.6,0,.9,0,1.2-.4,0-.6,0-.9,0h-2.6c-.4,0-.6,0-.9,0,0-.2,0-.3,0-.4v-.9s0-6.6,0-6.6ZM447.5,64.8c-.5,1.2-1,1.8-1.9,2.7-.5-.6-.7-.8-1.1-1.1.9-.7,1.3-1.2,1.8-2.3l1.2.7ZM446.7,57.6h1.7v-1.3h-1.7v1.3ZM446.7,60.1h1.7v-1.3h-1.7v1.3ZM446.7,62.7h1.7v-1.4h-1.7v1.4ZM448.9,64.2c.5.9.9,1.4,1.8,2.2-.4.3-.7.6-1.1,1-.8-.9-1.2-1.4-1.8-2.5l1.2-.7ZM450.6,64c0-.4,0-.6,0-1.3v-5.9c0-.6,0-.9,0-1.3h1.5c0,.3,0,.6,0,1.3v5.9c0,.7,0,1,0,1.3h-1.5ZM454.4,54.8c0,.4,0,.9,0,1.6v9.4c0,1.2-.4,1.5-2.3,1.5s-.3,0-.7,0c0-.7-.1-1-.3-1.4.5,0,.9,0,1.3,0s.6,0,.6-.4v-9.2c0-.7,0-1.1,0-1.6h1.6Z"/>
    <path d="M455.7,67.5c1-1.2,1.4-1.9,1.8-2.8.5-1.2.7-2.4.7-3.8s-.2-2.6-.7-3.7c-.4-.9-.8-1.6-1.8-2.8h2c.8,1.1,1.1,1.7,1.5,2.8.5,1.3.7,2.4.7,3.7s-.2,2.6-.7,3.9c-.4,1-.7,1.6-1.5,2.8h-2Z"/>
  </g>
  <g>
    <path d="M106.3,69.1c0,.8,0,1.3,0,1.7h-1.6c0-.4,0-.9,0-1.7v-9.2c0-.7,0-1.1,0-1.6.4,0,.7,0,1.4,0h2.5c.7,0,1.1,0,1.4,0,0,.4,0,.8,0,1.3v2c0,.6,0,1,0,1.3-.4,0-.8,0-1.3,0h-2.6v6.3ZM106.3,60.1h2.5v-.7h-2.5v.7ZM106.3,61.7h2.5v-.7h-2.5v.7ZM111.5,67.3c.7.7,1.3,1,2.5,1.3-.2.3-.2.3-.3.6.5,0,.7,0,1,0s.4,0,.4-.4v-6.2h-2.8c-.5,0-.9,0-1.3,0,0-.3,0-.6,0-1.3v-2c0-.5,0-.9,0-1.3.4,0,.7,0,1.4,0h2.7c.7,0,1.1,0,1.4,0,0,.5,0,.9,0,1.6v9.3c0,1.3-.3,1.6-2,1.6s-.4,0-.8,0c0-.5,0-.8-.2-1.1,0,.2,0,.3-.2.5-1.1-.4-2-1.1-2.7-1.9-.6,1.1-1.5,1.8-3.2,2.3-.2-.5-.4-.8-.8-1.2,1-.2,1.4-.4,1.8-.7.5-.3.9-.7,1.1-1.2h-1.4c-.5,0-.9,0-1.2,0v-1.3c.3,0,.6,0,1.1,0h1.7c0-.3,0-.4,0-.9h-1.6c-.4,0-.7,0-1,0v-1.2c.3,0,.5,0,1,0h.5c-.2-.4-.3-.5-.7-1l1.3-.3c.4.5.5.8.8,1.3h1.1c.3-.4.4-.6.6-1.3l1.4.3c-.2.4-.3.6-.6,1h.5c.5,0,.7,0,1,0v1.2c-.3,0-.6,0-1,0h-1.9c0,.3,0,.6,0,.9h2c.5,0,.8,0,1.1,0v1.3c-.3,0-.6,0-1.1,0h-1.8ZM112.5,60.1h2.6v-.7h-2.6v.7ZM112.5,61.7h2.6v-.7h-2.6v.7Z"/>
    <path d="M124.3,60.6c.4,0,.7,0,.9,0v1.3c-.2,0-.5,0-.9,0h-.9c.3.3.5.5,1.2.9-.4.4-.4.5-.8,1.1-.7-.6-.9-.8-1.2-1.3,0,.3,0,.5,0,.6v.5c0,.2,0,.3,0,.5h-1.5c0-.2,0-.3,0-.5v-.5c0-.1,0-.4,0-.6-.8,1-1.2,1.5-2.3,2.2-.3-.5-.5-.7-.9-1.2,1.1-.6,1.8-1.1,2.2-1.8h-.8c-.5,0-.9,0-1.2,0v-1.3c.3,0,.6,0,1.2,0h1.7v-1.7c0-.4,0-.7,0-1h1.5c0,.3,0,.5,0,.9v1.7h1.7ZM123.6,70.1c-.5-.4-.7-.5-1.3-.9-.9.8-1.7,1.2-3.3,1.7-.2-.5-.4-.9-.7-1.3,1.3-.3,2-.5,2.8-1-.7-.3-1.1-.5-2.1-.8.4-.6.6-.8.9-1.4h-.4c-.5,0-.8,0-1.1,0v-1.4c.3,0,.6,0,1.1,0h1.1c.1-.3.2-.5.4-1l1.5.3c-.1.3-.2.4-.3.7h2.2c.5,0,.8,0,1,0v1.4c-.3,0-.5,0-1.1,0-.3.9-.4,1.2-.8,1.8.6.3.7.3,1.1.6l-.8,1.3ZM119.9,58.1c.5.8.7,1.1,1,1.8l-1.2.5c-.3-.8-.5-1.2-.9-1.9l1.2-.4ZM121.4,66.4c-.2.3-.2.4-.5.8.6.2.8.3,1.2.5.3-.4.5-.8.6-1.2h-1.3ZM125.2,58.6c-.5,1.1-.6,1.2-1.1,1.9l-1.2-.5c.4-.6.8-1.2,1-1.9l1.3.5ZM131.3,61.8c-.3,0-.4,0-1,0-.1,2.3-.5,4-1.4,5.5.8,1,1.6,1.6,2.7,2.2-.3.4-.6.9-.8,1.5-1.1-.6-2-1.5-2.7-2.4-.9,1-2,1.9-3.2,2.5-.3-.7-.4-1-.8-1.4.6-.3.8-.4,1.1-.6.8-.5,1.4-1.1,2-1.8-.7-1.2-.9-2-1.2-3.3-.3.4-.4.5-.6.9-.3-.4-.6-.7-1-1,.9-1.1,1.5-2.3,1.9-4,.2-.7.3-1.5.3-1.9l1.5.3c0,.2,0,.3-.2.8,0,.4-.2.8-.4,1.4h2.4c.7,0,1,0,1.3,0v1.5ZM127,61.7q-.1.3-.2.4c.2,1.5.5,2.5,1.1,3.7.5-1.2.8-2.4.9-4.1h-1.8Z"/>
    <path d="M143,61c-.1.2-.2.3-.2.6-1.1,4.4-3.6,7.3-8,9.1-.4-.7-.6-1.1-1.2-1.7,3.9-1.2,6.4-3.8,7.3-7.5h-6.7c-1,0-1.3,0-1.8,0v-1.8c.5,0,.8,0,1.8,0h6.4c.5,0,.7,0,1,0-.2-.5-.5-.9-.9-1.4l1-.4c.5.7.9,1.3,1.2,2.2l-.6.2.5.5ZM143.8,60c-.3-.8-.7-1.5-1.2-2.2l1-.4c.6.7.9,1.3,1.2,2.1l-1,.4Z"/>
    <path d="M148.2,68.9v1h-1.8c0-.3,0-.7,0-1.2v-8c0-.5,0-.8,0-1.2.3,0,.6,0,1.2,0h8c.6,0,.9,0,1.2,0,0,.4,0,.6,0,1.2v8c0,.5,0,.9,0,1.2h-1.8v-1h-6.7ZM154.9,61.1h-6.7v6.2h6.7v-6.2Z"/>
    <path d="M160.8,61.7c.6,1.1.9,1.8,1.4,3.3l-1.6.5c-.4-1.4-.6-2.2-1.3-3.4l1.5-.4ZM168.9,61.8c0,.2-.1.3-.2.7-.4,1.9-1,3.4-1.9,4.7-1,1.4-2.2,2.3-4.3,3.4-.4-.6-.5-.8-1.1-1.4,1-.4,1.6-.7,2.4-1.3,1.6-1.2,2.6-2.6,3.2-4.9.2-.7.3-1.2.3-1.6l1.7.4ZM163.8,61.1c.7,1.4,1,2,1.4,3.2l-1.6.5c-.3-1.1-.7-2.1-1.3-3.3l1.5-.4Z"/>
    <path d="M181.6,60.8c-.1.2-.2.3-.4.8-.6,2.1-1.6,4-2.9,5.4-1.3,1.5-2.8,2.6-5,3.6-.4-.7-.6-.9-1.2-1.5,1.4-.6,2.2-1,3.1-1.7,2-1.5,3.3-3.4,4.1-5.9h-4.2c-.9,1.4-1.9,2.6-3.3,3.7-.4-.6-.6-.8-1.4-1.2,1.6-1.1,2.6-2.2,3.6-4.1.4-.8.7-1.3.7-1.8l1.9.4q0,.1-.2.4t-.2.4-.2.4-.2.4c.2,0,.4,0,.7,0h3.1c.5,0,.7,0,1-.2l.9.9Z"/>
  </g>
  <g>
    <line class="st0" x1="334" y1="61.2" x2="300.1" y2="61.2"/>
    <g>
      <line class="st1" x1="334" y1="61.2" x2="303.6" y2="61.2"/>
      <polygon class="st3" points="309.6 56.1 304.5 61.2 309.6 66.3 305.2 66.3 300.1 61.2 305.2 56.1 309.6 56.1"/>
    </g>
  </g>
  <g>
    <path d="M348.4,11.8c-.1.2-.2.3-.4.8-.8,2.5-1.5,3.7-2.8,5.3-1.2,1.4-3,2.7-5,3.5-.4-.7-.6-1-1.2-1.5,3.7-1.4,6-3.9,7.2-7.5h-4.2c-.8,1.3-2.1,2.8-3.3,3.7-.4-.6-.6-.8-1.4-1.2,1.5-1,2.6-2.3,3.6-4.1.4-.8.7-1.4.7-1.9l1.9.4c0,.1-.1.2-.2.4-.1.3-.2.5-.4.8,0,.1,0,.1,0,.2v.2c0,0,.3,0,.6,0h3.1c.4,0,.6,0,.7,0-.3-.7-.6-1.1-1-1.8l1-.4c.5.7.9,1.3,1.2,2.2l-.6.2.5.5ZM349.3,10.8c-.3-.8-.7-1.5-1.2-2.2l1-.3c.6.7.9,1.3,1.2,2.1l-1,.4Z"/>
    <path d="M353.6,19.6v1h-1.8c0-.3,0-.7,0-1.2v-8c0-.5,0-.8,0-1.2.3,0,.6,0,1.2,0h8c.6,0,.9,0,1.2,0,0,.4,0,.6,0,1.2v8c0,.5,0,.9,0,1.2h-1.8v-1h-6.7ZM360.4,11.8h-6.7v6.2h6.7v-6.2Z"/>
    <path d="M364.6,14.1c.6,0,.9,0,2.3,0h7.5c1.4,0,1.7,0,2.3,0v1.9c-.6,0-.7,0-2.3,0h-7.4c-1.6,0-1.7,0-2.3,0v-1.9Z"/>
    <path d="M382.8,10.3c0,.2,0,.2,0,.3v.2s0,.4,0,.4v.3c-.6,4-1.7,6.8-3.6,8.9-.7-.6-.9-.8-1.6-1.2.8-.8,1.4-1.7,2-3,.6-1.3,1.1-3,1.3-4.8,0-.6.1-1.1.1-1.4v-.2l1.9.3ZM386.8,10c0,.6.3,2,.6,3.2.7,2.6,1.7,4.5,3.1,6.1-.7.4-1,.7-1.5,1.3-1.9-2.2-3.2-5.4-3.7-9.2,0-.6-.1-.8-.2-1l1.7-.3ZM388,9.1c.5.7.8,1.3,1.2,2.3l-1.1.3c-.3-.9-.6-1.5-1.1-2.3l1.1-.3ZM389.9,11.2c-.3-.9-.7-1.6-1.1-2.2l1-.3c.5.7.8,1.3,1.1,2.2l-1.1.3Z"/>
    <path d="M395.8,9.6q0,.4-.1,3.1c0,2.7-.4,4.3-1.1,5.8-.5,1-1,1.7-1.9,2.6-.5-.7-.8-.9-1.4-1.4.7-.6,1-.9,1.4-1.6,1-1.6,1.3-3.4,1.3-7.3s0-.9,0-1.3h1.9ZM399.6,9.4c0,.4,0,.6,0,1.3v8c.9-.5,1.5-.9,2.1-1.6.6-.8,1-1.5,1.4-2.6.5.6.7.8,1.3,1.3-.6,1.4-1.3,2.4-2.2,3.3-.8.7-1.5,1.1-3,1.7-.3.1-.4.2-.6.3l-.9-1c0-.4.1-.7.1-1.5v-7.9c0,0,0-.4,0-.4,0-.3,0-.7,0-.9h1.9Z"/>
    <path d="M415.7,16.9q-.2.2-.8.8c-.6.6-1.2,1.1-1.8,1.5,1.5.5,2.7.7,5,.8-.4.5-.6,1-.8,1.6-1.6-.2-2.3-.4-3.5-.7-.9-.3-1.4-.4-2.2-.8-1.8.8-3.2,1.2-6,1.5-.2-.6-.4-1-.8-1.5,2.2,0,3.5-.2,5.2-.9-.6-.4-1-.7-1.5-1.2-.7.5-1.3.7-2.1,1-.3-.5-.4-.8-.9-1.2,1.1-.3,2.1-.8,3-1.5.7-.6,1.1-1,1.5-1.5l1.4.6q0,0-.2.3s0,0-.2.2c0,0,0,0-.1.2h2.6c.6,0,1,0,1.2,0l.9,1ZM408.8,12.1c-.4.8-.6,1.2-1.1,1.8-.4.5-.7.8-1.3,1.4-.1-.1-.2-.2-.3-.3q-.4-.3-.5-.4l-.2-.2c0,0-.1,0-.2-.1.6-.4.9-.7,1.2-1.1.5-.6.8-1,1.1-1.8l1.4.6ZM406.8,11.2c-.7,0-1.1,0-1.6,0v-1.5c.4,0,.9,0,1.7,0h3.7v-.3c0-.4,0-.6,0-.9h1.8c0,.3,0,.5,0,.9v.3h3.7c.7,0,1.2,0,1.7,0v1.5c-.5,0-1,0-1.7,0h-2.2v2.8c0,.8-.3,1.1-1.3,1.1s-.8,0-1.1,0c0-.5-.2-.9-.4-1.4.4,0,.7,0,1.1,0s.3,0,.3-.3v-2.3h-1.3c0,1.3-.2,2-.6,2.7-.4.7-.9,1.2-1.8,1.8-.3-.4-.7-.6-1.2-.9,1.1-.6,1.5-.9,1.8-1.6.3-.5.4-1.1.4-1.9h-2.7ZM409.7,17.2c.5.5,1.1.9,1.8,1.3.7-.4,1.1-.7,1.8-1.3h-3.6ZM415.1,11.6c1,.9,1.6,1.6,2.5,2.7l-1.3,1c-.8-1.2-1.2-1.8-2.4-2.9l1.1-.8Z"/>
    <path d="M425.1,11.3c.4,0,.7,0,.9,0v1.3c-.2,0-.5,0-.9,0h-.9c.3.3.5.5,1.2.9-.4.4-.4.5-.8,1.1-.7-.6-.9-.8-1.2-1.3,0,.3,0,.5,0,.6v.5c0,.2,0,.3,0,.5h-1.5c0-.2,0-.3,0-.5v-.5c0-.1,0-.4,0-.6-.8,1-1.2,1.5-2.3,2.2-.3-.5-.5-.7-.9-1.2,1.1-.6,1.8-1.1,2.2-1.8h-.8c-.5,0-.9,0-1.2,0v-1.3c.3,0,.6,0,1.2,0h1.7v-1.7c0-.4,0-.7,0-1h1.5c0,.3,0,.5,0,.9v1.7h1.7ZM424.4,20.8c-.5-.4-.7-.5-1.3-.9-.9.8-1.7,1.2-3.3,1.7-.2-.5-.4-.9-.7-1.3,1.3-.3,2-.5,2.8-1-.7-.3-1.1-.5-2.1-.8.4-.6.6-.8.9-1.4h-.4c-.5,0-.8,0-1.1,0v-1.4c.3,0,.6,0,1.1,0h1.1c.1-.3.2-.5.4-1l1.5.3c-.1.3-.2.4-.3.7h2.2c.5,0,.8,0,1,0v1.4c-.3,0-.5,0-1.1,0-.3.9-.4,1.2-.8,1.8.6.3.7.3,1.1.6l-.8,1.3ZM420.7,8.8c.5.8.7,1.1,1,1.8l-1.2.5c-.3-.8-.5-1.2-.9-1.9l1.2-.4ZM422.1,17.1c-.2.3-.2.4-.5.8.6.2.8.3,1.2.5.3-.4.5-.8.6-1.2h-1.3ZM425.9,9.3c-.5,1.1-.6,1.2-1.1,1.9l-1.2-.5c.4-.6.8-1.2,1-1.9l1.3.5ZM432,12.5c-.3,0-.4,0-1,0-.1,2.3-.5,4-1.4,5.5.8,1,1.6,1.6,2.7,2.2-.3.4-.6.9-.8,1.5-1.1-.6-2-1.5-2.7-2.4-.9,1-2,1.9-3.2,2.5-.3-.7-.4-1-.8-1.4.6-.3.8-.4,1.1-.6.8-.5,1.4-1.1,2-1.8-.7-1.2-.9-2-1.2-3.3-.3.4-.4.5-.6.9-.3-.4-.6-.7-1-1,.9-1.1,1.5-2.3,1.9-4,.2-.7.3-1.5.3-1.9l1.5.3c0,.2,0,.3-.2.8,0,.4-.2.8-.4,1.4h2.4c.7,0,1,0,1.3,0v1.5ZM427.8,12.4q-.1.3-.2.4c.2,1.5.5,2.5,1.1,3.7.5-1.2.8-2.4.9-4.1h-1.8Z"/>
    <path d="M437.1,21.7c-.8-1.1-1.1-1.7-1.5-2.8-.5-1.3-.7-2.5-.7-3.9s.2-2.5.7-3.7c.4-1,.7-1.6,1.5-2.8h2c-1,1.2-1.4,1.9-1.8,2.8-.5,1.1-.7,2.3-.7,3.7s.2,2.7.7,3.8c.4.9.8,1.5,1.8,2.8h-2Z"/>
    <path d="M443.3,13.7c.7.5,1.1.9,1.5,1.4.4-1.1.6-1.8.9-3.3h-2c-.6,1.6-1.5,3-2.7,4.3-.3-.6-.4-.8-.9-1.3,1.1-1.2,2-2.6,2.6-4.4.2-.6.4-1.4.4-1.8l1.6.3c0,.3-.2.4-.3.8,0,.3-.2.5-.2.8h2c.5,0,.8,0,1.1,0,0,.3,0,.3-.1,1,.4.8.6,1.2,1.4,2v-3.1c0-.7,0-1.1,0-1.6h1.7c0,.5,0,.9,0,1.6v4.6c.4.3.7.5,1.3.9,1,.6,1.2.7,1.9.9-.3.4-.6.9-.8,1.5-1.1-.6-1.6-.9-2.4-1.5v3c0,.8,0,1.2,0,1.9h-1.7c0-.6,0-1.1,0-1.9v-4.3c-.8-.8-1.2-1.3-1.7-2-.4,1.8-1,3.4-1.9,4.7-.9,1.3-2.1,2.5-3.5,3.5-.3-.5-.7-.9-1.1-1.3.7-.4,1-.6,1.7-1.2,1-.9,1.6-1.6,2.1-2.6-.5-.6-1-1.1-1.7-1.6l.8-1.1Z"/>
    <path d="M457.6,10.3c0-.3,0-.9,0-1.1,0,.2-.2.5-.2.7-.2.8-.4,1.2-.8,2.1v7.8c0,.8,0,1.3,0,1.8h-1.6c0-.5,0-1.1,0-1.8v-3.8c0-.6,0-1.1,0-1.7-.3.5-.5.9-.9,1.4-.2-.6-.4-1.1-.7-1.6.9-1.1,1.6-2.3,2.1-3.7.3-.7.4-1.2.5-1.8l1.4.5c.3,0,.5,0,1,0h2.5c.4,0,.7,0,1,0,0,.4,0,.7,0,1.3v6.6c0,.6,0,.9,0,1.2-.4,0-.6,0-.9,0h-2.6c-.4,0-.6,0-.9,0,0-.2,0-.3,0-.4v-.9s0-6.6,0-6.6ZM459.6,19c-.5,1.2-1,1.8-1.9,2.7-.5-.6-.7-.8-1.1-1.1.9-.7,1.3-1.2,1.8-2.3l1.2.7ZM458.9,11.8h1.7v-1.3h-1.7v1.3ZM458.9,14.3h1.7v-1.3h-1.7v1.3ZM458.9,16.9h1.7v-1.4h-1.7v1.4ZM461,18.3c.5.9.9,1.4,1.8,2.2-.4.3-.7.6-1.1,1-.8-.9-1.2-1.4-1.8-2.5l1.2-.7ZM462.7,18.2c0-.4,0-.6,0-1.3v-5.9c0-.6,0-.9,0-1.3h1.5c0,.3,0,.6,0,1.3v5.9c0,.7,0,1,0,1.3h-1.5ZM466.6,8.9c0,.4,0,.9,0,1.6v9.4c0,1.2-.4,1.5-2.3,1.5s-.3,0-.7,0c0-.7-.1-1-.3-1.4.5,0,.9,0,1.3,0s.6,0,.6-.4v-9.2c0-.7,0-1.1,0-1.6h1.6Z"/>
    <path d="M467.9,21.7c1-1.2,1.4-1.9,1.8-2.8.5-1.2.7-2.4.7-3.8s-.2-2.6-.7-3.7c-.4-.9-.8-1.6-1.8-2.8h2c.8,1.1,1.1,1.7,1.5,2.8.5,1.3.7,2.4.7,3.7s-.2,2.6-.7,3.9c-.4,1-.7,1.6-1.5,2.8h-2Z"/>
  </g>
  <g>
    <line class="st0" x1="334" y1="15.7" x2="300.1" y2="15.7"/>
    <g>
      <line class="st1" x1="334" y1="15.7" x2="303.6" y2="15.7"/>
      <polygon class="st3" points="309.6 10.6 304.5 15.7 309.6 20.8 305.2 20.8 300.1 15.7 305.2 10.6 309.6 10.6"/>
    </g>
  </g>
  <rect class="st4" x="227.5" y="50.5" width="86.1" height="38.5"/>
  <g>
    <path d="M208.2,44.2c-.2.3-.5.6-.8.7s-.7.2-1.1.2-.9,0-1.2-.3c-.4-.2-.6-.4-.9-.7-.2-.3-.4-.7-.5-1.1-.1-.4-.2-.8-.2-1.2s0-.8.2-1.2.3-.7.5-1c.2-.3.5-.5.9-.7s.7-.3,1.2-.3.7,0,1,.2c.3.2.6.4.8.7h0v-3.1h1.7v8.6h-1.6v-.8h0ZM208.2,41.1c0-.2-.1-.4-.2-.6-.1-.2-.3-.3-.4-.4-.2-.1-.4-.2-.7-.2s-.5,0-.7.2c-.2.1-.3.3-.5.4-.1.2-.2.4-.3.6,0,.2,0,.5,0,.7s0,.5,0,.7c0,.2.1.5.3.6s.3.3.5.5c.2.1.4.2.7.2s.5,0,.7-.2c.2-.1.3-.3.5-.4.1-.2.2-.4.2-.6,0-.2,0-.5,0-.7s0-.5,0-.7Z"/>
    <path d="M213,43.5c.3.2.6.4,1.1.4s.6,0,.9-.3c.2-.2.4-.4.5-.5h1.5c-.2.7-.6,1.3-1.1,1.6-.5.3-1.1.5-1.8.5s-.9,0-1.3-.2c-.4-.2-.7-.4-1-.7-.3-.3-.5-.6-.6-1-.1-.4-.2-.8-.2-1.3s0-.9.2-1.3c.2-.4.4-.7.6-1,.3-.3.6-.5,1-.7s.8-.3,1.3-.3,1,.1,1.4.3c.4.2.7.5,1,.8.3.3.4.7.5,1.2.1.4.2.9.1,1.4h-4.5c0,.6.2,1,.4,1.2ZM214.9,40.3c-.2-.2-.5-.3-.9-.3s-.5,0-.7.1c-.2,0-.3.2-.4.3-.1.1-.2.3-.2.4s0,.3,0,.4h2.8c0-.4-.2-.8-.4-1Z"/>
    <path d="M217.4,39.9v-1.1h1v-.5c0-.6.2-1,.5-1.4.3-.4.9-.5,1.6-.5s.3,0,.5,0c.2,0,.3,0,.4,0v1.3c-.2,0-.4,0-.6,0s-.4,0-.5.2c-.1.1-.2.3-.2.5v.4h1.2v1.1h-1.2v5.1h-1.7v-5.1h-1Z"/>
    <path d="M224.7,39.9v-1.1h1v-.5c0-.6.2-1,.5-1.4.3-.4.9-.5,1.6-.5s.3,0,.5,0c.2,0,.3,0,.4,0v1.3c-.2,0-.4,0-.6,0s-.4,0-.5.2c-.1.1-.2.3-.2.5v.4h1.2v1.1h-1.2v5.1h-1.7v-5.1h-1Z"/>
    <path d="M233.6,45v-.9h0c-.2.4-.5.6-.8.8s-.7.2-1.1.2-.8,0-1.1-.2-.5-.3-.7-.5c-.2-.2-.3-.5-.4-.8,0-.3-.1-.7-.1-1.1v-3.8h1.7v3.5c0,.5,0,.9.2,1.1.2.3.4.4.9.4s.8-.1,1-.4c.2-.3.3-.7.3-1.4v-3.3h1.7v6.2h-1.6Z"/>
    <path d="M238.1,38.8v.9h0c.2-.4.5-.6.8-.8.3-.2.7-.2,1.1-.2s.8,0,1.1.2.5.3.7.5.3.5.4.8c0,.3.1.7.1,1.1v3.8h-1.7v-3.5c0-.5,0-.9-.2-1.1s-.4-.4-.9-.4-.8.1-1,.4c-.2.3-.3.7-.3,1.4v3.3h-1.7v-6.2h1.6Z"/>
    <path d="M246.6,39.9c-.3,0-.5,0-.7.2-.2.1-.3.3-.5.5-.1.2-.2.4-.2.6s0,.5,0,.7,0,.5,0,.7c0,.2.1.4.2.6s.3.3.4.5c.2.1.4.2.7.2.4,0,.7-.1.9-.3s.4-.5.4-.9h1.6c-.1.8-.4,1.5-1,1.9-.5.4-1.2.6-2,.6s-.9,0-1.3-.2c-.4-.2-.7-.4-1-.7-.3-.3-.5-.6-.6-1s-.2-.8-.2-1.3,0-.9.2-1.3c.1-.4.3-.8.6-1.1.3-.3.6-.5,1-.7.4-.2.8-.3,1.3-.3s.7,0,1.1.1.6.2.9.4c.3.2.5.4.7.7s.3.6.3,1h-1.7c-.1-.7-.5-1.1-1.3-1.1Z"/>
    <path d="M253.9,38.8v1.1h-1.2v3.1c0,.3,0,.5.1.6,0,0,.3.1.6.1s.2,0,.3,0c0,0,.2,0,.3,0v1.3c-.1,0-.3,0-.5,0-.2,0-.3,0-.5,0-.3,0-.5,0-.8,0-.2,0-.4-.1-.6-.2-.2-.1-.3-.3-.4-.4-.1-.2-.2-.4-.2-.8v-3.7h-1v-1.1h1v-1.9h1.7v1.9h1.2Z"/>
    <path d="M254.8,37.8v-1.4h1.7v1.4h-1.7ZM256.5,38.8v6.2h-1.7v-6.2h1.7Z"/>
    <path d="M257.9,40.6c.2-.4.4-.7.6-1,.3-.3.6-.5,1-.7.4-.2.8-.2,1.3-.2s.9,0,1.3.2c.4.2.7.4,1,.7.3.3.5.6.6,1,.2.4.2.9.2,1.3s0,.9-.2,1.3c-.2.4-.4.7-.6,1-.3.3-.6.5-1,.7-.4.2-.8.2-1.3.2s-.9,0-1.3-.2c-.4-.2-.7-.4-1-.7-.3-.3-.5-.6-.6-1-.2-.4-.2-.8-.2-1.3s0-.9.2-1.3ZM259.4,42.6c0,.2.1.4.2.6.1.2.3.3.5.4.2.1.4.2.7.2s.5,0,.7-.2c.2-.1.4-.3.5-.4.1-.2.2-.4.2-.6,0-.2,0-.5,0-.7s0-.5,0-.7c0-.2-.1-.5-.2-.6-.1-.2-.3-.3-.5-.5-.2-.1-.4-.2-.7-.2s-.5,0-.7.2c-.2.1-.3.3-.5.5-.1.2-.2.4-.2.6,0,.2,0,.5,0,.7s0,.5,0,.7Z"/>
    <path d="M266.8,38.8v.9h0c.2-.4.5-.6.8-.8.3-.2.7-.2,1.1-.2s.8,0,1.1.2.5.3.7.5.3.5.4.8c0,.3.1.7.1,1.1v3.8h-1.7v-3.5c0-.5,0-.9-.2-1.1s-.4-.4-.9-.4-.8.1-1,.4c-.2.3-.3.7-.3,1.4v3.3h-1.7v-6.2h1.6Z"/>
    <path d="M277.6,45.9v.6h-6v-.6h6Z"/>
    <path d="M281.2,39.9c-.3,0-.5,0-.7.2-.2.1-.3.3-.5.5-.1.2-.2.4-.2.6s0,.5,0,.7,0,.5,0,.7c0,.2.1.4.2.6s.3.3.4.5c.2.1.4.2.7.2.4,0,.7-.1.9-.3s.4-.5.4-.9h1.6c-.1.8-.4,1.5-1,1.9-.5.4-1.2.6-2,.6s-.9,0-1.3-.2c-.4-.2-.7-.4-1-.7-.3-.3-.5-.6-.6-1s-.2-.8-.2-1.3,0-.9.2-1.3c.1-.4.3-.8.6-1.1.3-.3.6-.5,1-.7.4-.2.8-.3,1.3-.3s.7,0,1.1.1.6.2.9.4c.3.2.5.4.7.7s.3.6.3,1h-1.7c-.1-.7-.5-1.1-1.3-1.1Z"/>
    <path d="M285.1,40.7c0-.4.1-.7.3-1s.4-.5.7-.6c.3-.2.6-.3.9-.3.3,0,.7-.1,1-.1s.6,0,.9,0c.3,0,.6.1.9.3.3.1.5.3.6.5s.3.5.3.9v3.2c0,.3,0,.5,0,.8,0,.3,0,.4.2.6h-1.7c0,0,0-.2,0-.3,0-.1,0-.2,0-.3-.3.3-.6.5-1,.6-.4.1-.7.2-1.1.2s-.6,0-.8-.1c-.3,0-.5-.2-.7-.3-.2-.2-.3-.3-.5-.6-.1-.2-.2-.5-.2-.8s0-.6.2-.9.3-.4.5-.5c.2-.1.4-.2.7-.3.3,0,.5-.1.8-.2.3,0,.5,0,.8,0s.5,0,.7-.1c.2,0,.3-.1.5-.2.1,0,.2-.2.2-.4,0-.2,0-.3,0-.4,0-.1-.1-.2-.2-.3-.1,0-.2-.1-.3-.1-.1,0-.3,0-.4,0-.3,0-.6,0-.8.2s-.3.4-.3.7h-1.7ZM289,42c0,0-.2.1-.3.1-.1,0-.2,0-.3,0s-.3,0-.4,0c-.1,0-.3,0-.4,0-.1,0-.3,0-.4,0s-.2,0-.3.2c0,0-.2.2-.2.3,0,.1,0,.2,0,.4s0,.3,0,.4c0,.1.1.2.2.2,0,0,.2.1.3.1.1,0,.3,0,.4,0,.3,0,.6,0,.8-.2.2-.1.3-.2.4-.4,0-.2.1-.3.2-.5,0-.2,0-.3,0-.4v-.6Z"/>
    <path d="M293.8,36.4v8.6h-1.7v-8.6h1.7Z"/>
    <path d="M298.1,39.9c-.3,0-.5,0-.7.2-.2.1-.3.3-.5.5-.1.2-.2.4-.2.6s0,.5,0,.7,0,.5,0,.7c0,.2.1.4.2.6s.3.3.4.5c.2.1.4.2.7.2.4,0,.7-.1.9-.3s.4-.5.4-.9h1.6c-.1.8-.4,1.5-1,1.9-.5.4-1.2.6-2,.6s-.9,0-1.3-.2c-.4-.2-.7-.4-1-.7-.3-.3-.5-.6-.6-1s-.2-.8-.2-1.3,0-.9.2-1.3c.1-.4.3-.8.6-1.1.3-.3.6-.5,1-.7.4-.2.8-.3,1.3-.3s.7,0,1.1.1.6.2.9.4c.3.2.5.4.7.7s.3.6.3,1h-1.7c-.1-.7-.5-1.1-1.3-1.1Z"/>
    <path d="M302,38.5c.1-.4.3-.8.6-1.1s.6-.5,1-.7c.4-.2.8-.3,1.3-.3s.8,0,1.1.2c.3.1.7.3.9.5.3.2.5.5.6.8s.2.7.2,1.1,0,.8-.2,1.1c-.1.3-.3.6-.5.8-.2.2-.5.5-.8.6-.3.2-.6.4-.9.6-.3.2-.6.4-.8.6-.3.2-.5.5-.7.8h4v1.5h-6.2c0-.5,0-.9.2-1.3.1-.4.3-.7.6-1,.2-.3.5-.5.8-.8.3-.2.7-.5,1-.7.2-.1.4-.3.6-.4.2-.1.4-.3.6-.4s.3-.3.4-.5c.1-.2.2-.4.2-.7,0-.4-.1-.7-.4-1-.2-.2-.5-.3-.9-.3s-.5,0-.6.2c-.2.1-.3.3-.4.5-.1.2-.2.4-.2.6s0,.5,0,.7h-1.6c0-.5,0-.9.2-1.3Z"/>
    <path d="M310.7,38.9c-.2.9-.3,1.8-.3,2.8s.1,1.9.3,2.8.5,1.8,1,2.7h-1.4c-.5-.8-.9-1.7-1.2-2.6-.3-.9-.4-1.8-.4-2.8s0-.9.1-1.4.2-1,.3-1.5c.1-.5.3-1,.5-1.4.2-.5.4-.9.7-1.3h1.4c-.5.8-.8,1.7-1,2.6Z"/>
    <path d="M312.5,44.5c.2-.9.3-1.8.3-2.8s-.1-1.9-.3-2.8c-.2-.9-.5-1.8-1-2.7h1.4c.5.8.9,1.7,1.2,2.6s.4,1.9.4,2.8,0,.9,0,1.4c0,.5-.2,1-.3,1.5-.1.5-.3,1-.5,1.4-.2.5-.4.9-.7,1.2h-1.4c.4-.8.8-1.7,1-2.6Z"/>
    <path d="M315.9,40.8v-1.8h1.9v1.8h-1.9ZM317.8,43.2v1.8h-1.9v-1.8h1.9Z"/>
    <path d="M232.1,65.4l-2.1-6.2h1.8l1.3,4.2h0l1.3-4.2h1.7l-2.1,6.2h-1.9Z"/>
    <path d="M236.7,61.1c0-.4.1-.7.3-1,.2-.3.4-.5.7-.6.3-.2.6-.3.9-.3s.7-.1,1-.1.6,0,.9,0c.3,0,.6.1.9.3.3.1.5.3.6.5s.3.5.3.9v3.2c0,.3,0,.5,0,.8,0,.3,0,.4.2.6h-1.7c0,0,0-.2,0-.3,0-.1,0-.2,0-.3-.3.3-.6.5-1,.6-.4.1-.7.2-1.1.2s-.6,0-.8-.1c-.3,0-.5-.2-.7-.3-.2-.2-.3-.3-.5-.6-.1-.2-.2-.5-.2-.8s0-.6.2-.9.3-.4.5-.5.4-.2.7-.3c.3,0,.5-.1.8-.2.3,0,.5,0,.8,0,.2,0,.5,0,.7-.1.2,0,.3-.1.5-.2.1,0,.2-.2.2-.4,0-.2,0-.3,0-.4,0-.1-.1-.2-.2-.3s-.2-.1-.3-.1c-.1,0-.3,0-.4,0-.3,0-.6,0-.8.2-.2.1-.3.4-.3.7h-1.7ZM240.6,62.4c0,0-.2.1-.3.1-.1,0-.2,0-.3,0s-.3,0-.4,0c-.1,0-.3,0-.4,0-.1,0-.3,0-.4,0s-.2,0-.3.2-.2.2-.2.3c0,.1,0,.2,0,.4s0,.3,0,.4c0,.1.1.2.2.2,0,0,.2.1.3.1.1,0,.3,0,.4,0,.3,0,.6,0,.8-.2.2-.1.3-.2.4-.4,0-.2.1-.3.2-.5,0-.2,0-.3,0-.4v-.6Z"/>
    <path d="M245.3,59.2v1.2h0c0-.2.2-.4.3-.5s.3-.3.5-.4c.2-.1.4-.2.6-.3.2,0,.4,0,.6,0s.2,0,.4,0v1.6c0,0-.2,0-.3,0-.1,0-.2,0-.3,0-.3,0-.6,0-.8.2s-.4.2-.5.4c-.1.2-.2.4-.3.6,0,.2,0,.5,0,.8v2.8h-1.7v-6.2h1.6Z"/>
    <path d="M253.7,66.3v.6h-6v-.6h6Z"/>
    <path d="M256.1,63.9c.3.2.6.4,1.1.4s.6,0,.9-.3c.2-.2.4-.4.5-.5h1.5c-.2.7-.6,1.3-1.1,1.6-.5.3-1.1.5-1.8.5s-.9,0-1.3-.2c-.4-.2-.7-.4-1-.7-.3-.3-.5-.6-.6-1-.1-.4-.2-.8-.2-1.3s0-.9.2-1.3c.2-.4.4-.7.6-1,.3-.3.6-.5,1-.7s.8-.3,1.3-.3,1,.1,1.4.3c.4.2.7.5,1,.8.3.3.4.7.5,1.2.1.4.2.9.1,1.4h-4.5c0,.6.2,1,.4,1.2ZM258.1,60.7c-.2-.2-.5-.3-.9-.3s-.5,0-.7.1c-.2,0-.3.2-.4.3-.1.1-.2.3-.2.4s0,.3,0,.4h2.8c0-.4-.2-.8-.4-1Z"/>
    <path d="M264.5,61.7v-1.3h6.1v1.3h-6.1ZM264.5,64.3v-1.3h6.1v1.3h-6.1Z"/>
    <path d="M277.4,65.4v-5.4h-2.1v-1.3c.3,0,.6,0,.9,0,.3,0,.5-.1.7-.3.2-.1.4-.3.6-.5.2-.2.3-.5.3-.8h1.4v8.4h-1.7Z"/>
    <path d="M281.6,59.1c.2-.6.4-1,.7-1.3s.6-.6,1-.7.8-.2,1.2-.2.8,0,1.2.2.7.4,1,.7.5.8.7,1.3.2,1.2.2,2.1,0,1.5-.2,2.1-.4,1-.7,1.4c-.3.3-.6.6-1,.7s-.8.2-1.2.2-.8,0-1.2-.2-.7-.4-1-.7c-.3-.3-.5-.8-.7-1.4s-.2-1.3-.2-2.1,0-1.5.2-2.1ZM283.1,62c0,.3,0,.7.1,1s.2.6.4.8c.2.2.4.3.8.3s.6-.1.8-.3c.2-.2.3-.5.4-.8s.1-.6.2-1c0-.3,0-.6,0-.9s0-.3,0-.5c0-.2,0-.4,0-.6,0-.2,0-.4-.1-.6s-.1-.4-.2-.6c-.1-.2-.2-.3-.4-.4s-.4-.2-.6-.2-.4,0-.6.2-.3.2-.4.4c-.1.2-.2.4-.2.6s0,.4-.1.6c0,.2,0,.4,0,.6,0,.2,0,.4,0,.5,0,.2,0,.5,0,.9Z"/>
    <path d="M232.1,73.6v.8h0c.2-.3.5-.6.8-.7.3-.2.7-.2,1.1-.2s.9,0,1.3.3c.4.2.6.4.9.7.2.3.4.7.5,1.1.1.4.2.8.2,1.3s0,.8-.2,1.2c-.1.4-.3.7-.5,1s-.5.5-.9.7c-.3.2-.7.3-1.2.3s-.7,0-1.1-.2c-.3-.2-.6-.4-.8-.7h0v2.9h-1.7v-8.4h1.6ZM234.4,78.5c.2-.1.3-.3.5-.4.1-.2.2-.4.2-.6,0-.2,0-.5,0-.7s0-.5,0-.7c0-.2-.1-.5-.3-.6s-.3-.3-.5-.5c-.2-.1-.4-.2-.7-.2s-.5,0-.7.2c-.2.1-.3.3-.5.5s-.2.4-.2.6c0,.2,0,.5,0,.7s0,.5,0,.7c0,.2.1.5.3.6.1.2.3.3.5.4.2.1.4.2.7.2s.5,0,.7-.2Z"/>
    <path d="M239.5,73.6v1.2h0c0-.2.2-.4.3-.5s.3-.3.5-.4c.2-.1.4-.2.6-.3.2,0,.4,0,.6,0s.2,0,.4,0v1.6c0,0-.2,0-.3,0-.1,0-.2,0-.3,0-.3,0-.6,0-.8.2s-.4.2-.5.4c-.1.2-.2.4-.3.6,0,.2,0,.5,0,.8v2.8h-1.7v-6.2h1.6Z"/>
    <path d="M242.6,72.6v-1.4h1.7v1.4h-1.7ZM244.3,73.6v6.2h-1.7v-6.2h1.7Z"/>
    <path d="M247.2,73.6v.9h0c.2-.4.5-.6.8-.8.3-.2.7-.2,1.1-.2s.8,0,1.1.2.5.3.7.5.3.5.4.8c0,.3.1.7.1,1.1v3.8h-1.7v-3.5c0-.5,0-.9-.2-1.1s-.4-.4-.9-.4-.8.1-1,.4c-.2.3-.3.7-.3,1.4v3.3h-1.7v-6.2h1.6Z"/>
    <path d="M256.1,73.6v1.1h-1.2v3.1c0,.3,0,.5.1.6,0,0,.3.1.6.1s.2,0,.3,0c0,0,.2,0,.3,0v1.3c-.1,0-.3,0-.5,0-.2,0-.3,0-.5,0-.3,0-.5,0-.8,0-.2,0-.4-.1-.6-.2-.2-.1-.3-.3-.4-.4-.1-.2-.2-.4-.2-.8v-3.7h-1v-1.1h1v-1.9h1.7v1.9h1.2Z"/>
    <path d="M259,73.7c-.2.9-.3,1.8-.3,2.8s.1,1.9.3,2.8c.2.9.5,1.8,1,2.7h-1.4c-.5-.8-.9-1.7-1.2-2.6-.3-.9-.4-1.8-.4-2.8s0-.9.1-1.4c0-.5.2-1,.3-1.5.1-.5.3-1,.5-1.4.2-.5.4-.9.7-1.3h1.4c-.5.8-.8,1.7-1,2.6Z"/>
    <path d="M262,79.8l-2.1-6.2h1.8l1.3,4.2h0l1.3-4.2h1.7l-2.1,6.2h-1.9Z"/>
    <path d="M266.7,75.5c0-.4.1-.7.3-1,.2-.3.4-.5.7-.6.3-.2.6-.3.9-.3s.7-.1,1-.1.6,0,.9,0c.3,0,.6.1.9.3.3.1.5.3.6.5s.3.5.3.9v3.2c0,.3,0,.5,0,.8,0,.3,0,.4.2.6h-1.7c0,0,0-.2,0-.3,0-.1,0-.2,0-.3-.3.3-.6.5-1,.6-.4.1-.7.2-1.1.2s-.6,0-.8-.1c-.3,0-.5-.2-.7-.3-.2-.2-.3-.3-.5-.6-.1-.2-.2-.5-.2-.8s0-.6.2-.9.3-.4.5-.5.4-.2.7-.3c.3,0,.5-.1.8-.2.3,0,.5,0,.8,0,.2,0,.5,0,.7-.1.2,0,.3-.1.5-.2.1,0,.2-.2.2-.4,0-.2,0-.3,0-.4,0-.1-.1-.2-.2-.3s-.2-.1-.3-.1c-.1,0-.3,0-.4,0-.3,0-.6,0-.8.2-.2.1-.3.4-.3.7h-1.7ZM270.6,76.8c0,0-.2.1-.3.1-.1,0-.2,0-.3,0s-.3,0-.4,0c-.1,0-.3,0-.4,0-.1,0-.3,0-.4,0s-.2,0-.3.2-.2.2-.2.3c0,.1,0,.2,0,.4s0,.3,0,.4c0,.1.1.2.2.2,0,0,.2.1.3.1.1,0,.3,0,.4,0,.3,0,.6,0,.8-.2.2-.1.3-.2.4-.4,0-.2.1-.3.2-.5,0-.2,0-.3,0-.4v-.6Z"/>
    <path d="M275.3,73.6v1.2h0c0-.2.2-.4.3-.5s.3-.3.5-.4c.2-.1.4-.2.6-.3.2,0,.4,0,.6,0s.2,0,.4,0v1.6c0,0-.2,0-.3,0-.1,0-.2,0-.3,0-.3,0-.6,0-.8.2s-.4.2-.5.4c-.1.2-.2.4-.3.6,0,.2,0,.5,0,.8v2.8h-1.7v-6.2h1.6Z"/>
    <path d="M283.7,80.7v.6h-6v-.6h6Z"/>
    <path d="M286.1,78.3c.3.2.6.4,1.1.4s.6,0,.9-.3c.2-.2.4-.4.5-.5h1.5c-.2.7-.6,1.3-1.1,1.6-.5.3-1.1.5-1.8.5s-.9,0-1.3-.2c-.4-.2-.7-.4-1-.7-.3-.3-.5-.6-.6-1-.1-.4-.2-.8-.2-1.3s0-.9.2-1.3c.2-.4.4-.7.6-1,.3-.3.6-.5,1-.7.4-.2.8-.3,1.3-.3s1,.1,1.4.3c.4.2.7.5,1,.8.3.3.4.7.5,1.2s.2.9.1,1.4h-4.5c0,.6.2,1,.4,1.2ZM288.1,75.1c-.2-.2-.5-.3-.9-.3s-.5,0-.7.1c-.2,0-.3.2-.4.3-.1.1-.2.3-.2.4s0,.3,0,.4h2.8c0-.4-.2-.8-.4-1Z"/>
    <path d="M291.5,79.3c.2-.9.3-1.8.3-2.8s-.1-1.9-.3-2.8c-.2-.9-.5-1.8-1-2.7h1.4c.5.8.9,1.7,1.2,2.6.3.9.4,1.9.4,2.8s0,.9,0,1.4c0,.5-.2,1-.3,1.5s-.3,1-.5,1.4-.4.9-.7,1.2h-1.4c.4-.8.8-1.7,1-2.6Z"/>
  </g>
  <g>
    <path d="M205.8,19l-2.1-6.2h1.8l1.3,4.2h0l1.3-4.2h1.7l-2.1,6.2h-1.9Z"/>
    <path d="M210.4,14.7c0-.4.1-.7.3-1,.2-.3.4-.5.7-.6.3-.2.6-.3.9-.3.3,0,.7-.1,1-.1s.6,0,.9,0c.3,0,.6.1.9.3s.5.3.6.5.3.5.3.9v3.2c0,.3,0,.5,0,.8,0,.3,0,.4.2.6h-1.7c0,0,0-.2,0-.3s0-.2,0-.3c-.3.3-.6.5-1,.6-.4.1-.7.2-1.1.2s-.6,0-.8-.1c-.3,0-.5-.2-.7-.3-.2-.2-.3-.3-.5-.6s-.2-.5-.2-.8,0-.6.2-.9.3-.4.5-.5c.2-.1.4-.2.7-.3.3,0,.5-.1.8-.2.3,0,.5,0,.8,0,.2,0,.5,0,.7-.1.2,0,.3-.1.5-.2.1,0,.2-.2.2-.4,0-.2,0-.3,0-.4s-.1-.2-.2-.3c-.1,0-.2-.1-.3-.1-.1,0-.3,0-.4,0-.3,0-.6,0-.8.2-.2.1-.3.4-.3.7h-1.7ZM214.4,15.9c0,0-.2.1-.3.1-.1,0-.2,0-.3,0s-.3,0-.4,0-.3,0-.4,0c-.1,0-.3,0-.4,0s-.2,0-.3.2c0,0-.2.2-.2.3,0,.1,0,.2,0,.4s0,.3,0,.4.1.2.2.2c0,0,.2.1.3.1.1,0,.3,0,.4,0,.3,0,.6,0,.8-.2.2-.1.3-.2.4-.4,0-.2.1-.3.2-.5,0-.2,0-.3,0-.4v-.6Z"/>
    <path d="M219,12.8v1.2h0c0-.2.2-.4.3-.5.1-.2.3-.3.5-.4.2-.1.4-.2.6-.3.2,0,.4,0,.6,0s.2,0,.4,0v1.6c0,0-.2,0-.3,0-.1,0-.2,0-.3,0-.3,0-.6,0-.8.2-.2.1-.4.2-.5.4-.1.2-.2.4-.3.6,0,.2,0,.5,0,.8v2.8h-1.7v-6.2h1.6Z"/>
    <path d="M227.4,19.9v.6h-6v-.6h6Z"/>
    <path d="M229.9,17.5c.3.2.6.4,1.1.4s.6,0,.9-.3c.2-.2.4-.4.5-.5h1.5c-.2.7-.6,1.3-1.1,1.6-.5.3-1.1.5-1.8.5s-.9,0-1.3-.2c-.4-.2-.7-.4-1-.7-.3-.3-.5-.6-.6-1s-.2-.8-.2-1.3,0-.9.2-1.3c.2-.4.4-.7.6-1,.3-.3.6-.5,1-.7.4-.2.8-.3,1.3-.3s1,.1,1.4.3.7.5,1,.8c.3.3.4.7.5,1.2.1.4.2.9.1,1.4h-4.5c0,.6.2,1,.4,1.2ZM231.8,14.2c-.2-.2-.5-.3-.9-.3s-.5,0-.7.1c-.2,0-.3.2-.4.3s-.2.3-.2.4,0,.3,0,.4h2.8c0-.4-.2-.8-.4-1Z"/>
    <path d="M238.2,15.3v-1.3h6.1v1.3h-6.1ZM238.2,17.9v-1.3h6.1v1.3h-6.1Z"/>
    <path d="M251.2,19v-5.4h-2.1v-1.3c.3,0,.6,0,.9,0,.3,0,.5-.1.7-.3.2-.1.4-.3.6-.5.2-.2.3-.5.3-.8h1.4v8.4h-1.7Z"/>
    <path d="M255.4,12.7c.2-.6.4-1,.7-1.3.3-.3.6-.6,1-.7s.8-.2,1.2-.2.8,0,1.2.2.7.4,1,.7c.3.3.5.8.7,1.3s.2,1.2.2,2.1,0,1.5-.2,2.1-.4,1-.7,1.4c-.3.3-.6.6-1,.7s-.8.2-1.2.2-.8,0-1.2-.2-.7-.4-1-.7c-.3-.3-.5-.8-.7-1.4s-.2-1.3-.2-2.1,0-1.5.2-2.1ZM256.8,15.6c0,.3,0,.7.1,1s.2.6.4.8c.2.2.4.3.8.3s.6-.1.8-.3c.2-.2.3-.5.4-.8s.1-.6.1-1c0-.3,0-.6,0-.9s0-.3,0-.5c0-.2,0-.4,0-.6,0-.2,0-.4-.1-.6,0-.2-.1-.4-.2-.6s-.2-.3-.4-.4c-.2-.1-.4-.2-.6-.2s-.4,0-.6.2c-.2.1-.3.2-.4.4s-.2.4-.2.6c0,.2,0,.4-.1.6,0,.2,0,.4,0,.6,0,.2,0,.4,0,.5,0,.2,0,.5,0,.9Z"/>
    <path d="M262,12.7c.2-.6.4-1,.7-1.3.3-.3.6-.6,1-.7s.8-.2,1.2-.2.8,0,1.2.2.7.4,1,.7c.3.3.5.8.7,1.3s.2,1.2.2,2.1,0,1.5-.2,2.1-.4,1-.7,1.4c-.3.3-.6.6-1,.7s-.8.2-1.2.2-.8,0-1.2-.2-.7-.4-1-.7c-.3-.3-.5-.8-.7-1.4s-.2-1.3-.2-2.1,0-1.5.2-2.1ZM263.5,15.6c0,.3,0,.7.1,1s.2.6.4.8c.2.2.4.3.8.3s.6-.1.8-.3c.2-.2.3-.5.4-.8s.1-.6.1-1c0-.3,0-.6,0-.9s0-.3,0-.5c0-.2,0-.4,0-.6,0-.2,0-.4-.1-.6,0-.2-.1-.4-.2-.6s-.2-.3-.4-.4c-.2-.1-.4-.2-.6-.2s-.4,0-.6.2c-.2.1-.3.2-.4.4s-.2.4-.2.6c0,.2,0,.4-.1.6,0,.2,0,.4,0,.6,0,.2,0,.4,0,.5,0,.2,0,.5,0,.9Z"/>
  </g>
  <g>
    <path d="M205.5,100v.8h0c.2-.3.5-.6.8-.7.3-.2.7-.2,1.1-.2s.9,0,1.3.3c.4.2.6.4.9.7.2.3.4.7.5,1.1.1.4.2.8.2,1.3s0,.8-.2,1.2c-.1.4-.3.7-.5,1-.2.3-.5.5-.9.7-.3.2-.7.3-1.2.3s-.7,0-1.1-.2c-.3-.2-.6-.4-.8-.7h0v2.9h-1.7v-8.4h1.6ZM207.7,104.9c.2-.1.3-.3.5-.4.1-.2.2-.4.2-.6,0-.2,0-.5,0-.7s0-.5,0-.7c0-.2-.1-.5-.3-.6s-.3-.3-.5-.5c-.2-.1-.4-.2-.7-.2s-.5,0-.7.2c-.2.1-.3.3-.5.5-.1.2-.2.4-.2.6,0,.2,0,.5,0,.7s0,.5,0,.7c0,.2.1.5.3.6.1.2.3.3.5.4.2.1.4.2.7.2s.5,0,.7-.2Z"/>
    <path d="M212.8,100v1.2h0c0-.2.2-.4.3-.5.1-.2.3-.3.5-.4.2-.1.4-.2.6-.3.2,0,.4,0,.6,0s.2,0,.4,0v1.6c0,0-.2,0-.3,0-.1,0-.2,0-.3,0-.3,0-.6,0-.8.2-.2.1-.4.2-.5.4-.1.2-.2.4-.3.6,0,.2,0,.5,0,.8v2.8h-1.7v-6.2h1.6Z"/>
    <path d="M215.9,99.1v-1.4h1.7v1.4h-1.7ZM217.6,100v6.2h-1.7v-6.2h1.7Z"/>
    <path d="M220.6,100v.9h0c.2-.4.5-.6.8-.8.3-.2.7-.2,1.1-.2s.8,0,1.1.2.5.3.7.5.3.5.4.8c0,.3.1.7.1,1.1v3.8h-1.7v-3.5c0-.5,0-.9-.2-1.1s-.4-.4-.9-.4-.8.1-1,.4c-.2.3-.3.7-.3,1.4v3.3h-1.7v-6.2h1.6Z"/>
    <path d="M229.5,100v1.1h-1.2v3.1c0,.3,0,.5.1.6,0,0,.3.1.6.1s.2,0,.3,0c0,0,.2,0,.3,0v1.3c-.1,0-.3,0-.5,0-.2,0-.3,0-.5,0-.3,0-.5,0-.8,0-.2,0-.4-.1-.6-.2s-.3-.3-.4-.4-.2-.4-.2-.8v-3.7h-1v-1.1h1v-1.9h1.7v1.9h1.2Z"/>
    <path d="M232.3,100.1c-.2.9-.3,1.8-.3,2.8s.1,1.9.3,2.8c.2.9.5,1.8,1,2.7h-1.4c-.5-.8-.9-1.7-1.2-2.6s-.4-1.8-.4-2.8,0-.9.1-1.4c0-.5.2-1,.3-1.5.1-.5.3-1,.5-1.4.2-.5.4-.9.7-1.3h1.4c-.5.8-.8,1.7-1,2.6Z"/>
    <path d="M235.4,106.2l-2.1-6.2h1.8l1.3,4.2h0l1.3-4.2h1.7l-2.1,6.2h-1.9Z"/>
    <path d="M240,101.9c0-.4.1-.7.3-1,.2-.3.4-.5.7-.6.3-.2.6-.3.9-.3.3,0,.7-.1,1-.1s.6,0,.9,0c.3,0,.6.1.9.3s.5.3.6.5.3.5.3.9v3.2c0,.3,0,.5,0,.8,0,.3,0,.4.2.6h-1.7c0,0,0-.2,0-.3s0-.2,0-.3c-.3.3-.6.5-1,.6-.4.1-.7.2-1.1.2s-.6,0-.8-.1c-.3,0-.5-.2-.7-.3-.2-.2-.3-.3-.5-.6s-.2-.5-.2-.8,0-.6.2-.9.3-.4.5-.5c.2-.1.4-.2.7-.3.3,0,.5-.1.8-.2.3,0,.5,0,.8,0,.2,0,.5,0,.7-.1.2,0,.3-.1.5-.2.1,0,.2-.2.2-.4,0-.2,0-.3,0-.4s-.1-.2-.2-.3c-.1,0-.2-.1-.3-.1-.1,0-.3,0-.4,0-.3,0-.6,0-.8.2-.2.1-.3.4-.3.7h-1.7ZM243.9,103.2c0,0-.2.1-.3.1-.1,0-.2,0-.3,0s-.3,0-.4,0-.3,0-.4,0c-.1,0-.3,0-.4,0s-.2,0-.3.2c0,0-.2.2-.2.3,0,.1,0,.2,0,.4s0,.3,0,.4.1.2.2.2c0,0,.2.1.3.1.1,0,.3,0,.4,0,.3,0,.6,0,.8-.2.2-.1.3-.2.4-.4,0-.2.1-.3.2-.5,0-.2,0-.3,0-.4v-.6Z"/>
    <path d="M248.6,100v1.2h0c0-.2.2-.4.3-.5.1-.2.3-.3.5-.4.2-.1.4-.2.6-.3.2,0,.4,0,.6,0s.2,0,.4,0v1.6c0,0-.2,0-.3,0-.1,0-.2,0-.3,0-.3,0-.6,0-.8.2-.2.1-.4.2-.5.4-.1.2-.2.4-.3.6,0,.2,0,.5,0,.8v2.8h-1.7v-6.2h1.6Z"/>
    <path d="M257,107.1v.6h-6v-.6h6Z"/>
    <path d="M259.4,104.7c.3.2.6.4,1.1.4s.6,0,.9-.3c.2-.2.4-.4.5-.5h1.5c-.2.7-.6,1.3-1.1,1.6-.5.3-1.1.5-1.8.5s-.9,0-1.3-.2c-.4-.2-.7-.4-1-.7-.3-.3-.5-.6-.6-1s-.2-.8-.2-1.3,0-.9.2-1.3c.2-.4.4-.7.6-1,.3-.3.6-.5,1-.7.4-.2.8-.3,1.3-.3s1,.1,1.4.3.7.5,1,.8c.3.3.4.7.5,1.2.1.4.2.9.1,1.4h-4.5c0,.6.2,1,.4,1.2ZM261.4,101.5c-.2-.2-.5-.3-.9-.3s-.5,0-.7.1c-.2,0-.3.2-.4.3s-.2.3-.2.4,0,.3,0,.4h2.8c0-.4-.2-.8-.4-1Z"/>
    <path d="M264.8,105.8c.2-.9.3-1.8.3-2.8s-.1-1.9-.3-2.8c-.2-.9-.5-1.8-1-2.7h1.4c.5.8.9,1.7,1.2,2.6.3.9.4,1.9.4,2.8s0,.9,0,1.4c0,.5-.2,1-.3,1.5-.1.5-.3,1-.5,1.4-.2.5-.4.9-.7,1.2h-1.4c.4-.8.8-1.7,1-2.6Z"/>
  </g>
  <polyline class="st2" points="193.5 42 188.2 42 188.2 91.7 193.5 91.7"/>
</svg>