<?xml version="1.0" encoding="UTF-8"?>
<svg id="Layer_1" xmlns="http://www.w3.org/2000/svg" version="1.1" viewBox="0 0 618.7 231.6">
  <!-- Generator: Adobe Illustrator 29.1.0, SVG Export Plug-In . SVG Version: 2.1.0 Build 142)  -->
  <defs>
    <style>
      .st0 {
        opacity: .5;
        stroke-width: 2px;
      }

      .st0, .st1, .st2, .st3, .st4, .st5, .st6 {
        stroke: #000;
        stroke-miterlimit: 10;
      }

      .st0, .st7 {
        fill: #fff;
      }

      .st1 {
        stroke-dasharray: 4 4;
      }

      .st1, .st2, .st3, .st4, .st5, .st6 {
        fill: none;
      }

      .st1, .st2, .st4, .st5, .st6 {
        stroke-width: .5px;
      }

      .st4 {
        stroke-dasharray: 5 5;
      }

      .st5 {
        stroke-dasharray: 4.2 4.2;
      }

      .st6 {
        stroke-dasharray: 4.2 4.2;
      }

      .st8 {
        fill: #4d5357;
      }
    </style>
  </defs>
  <rect class="st0" x="42.9" y="6.8" width="142.6" height="20.5"/>
  <rect class="st0" x="42.9" y="59" width="142.6" height="113.1"/>
  <g>
    <path d="M105,13c.5,0,.7,0,.9,0,0,.3,0,.4-.1.9-.2,1.7-.7,3.4-1.4,4.7,1,1.7,2.4,2.3,5.6,2.3s1.4,0,2.3-.1c-.2.3-.2.5-.3.9-.5,0-1.6,0-2.1,0-1.3,0-2.7-.2-3.5-.5-.9-.3-1.7-.9-2.3-2-.7,1.1-1.3,1.8-2.5,2.9-.2-.3-.3-.5-.5-.7,1.3-1,2-1.7,2.7-2.9-.3-.7-.6-1.6-1-2.8-.4.9-.5,1.2-1.1,2-.2-.3-.3-.4-.5-.6.8-1.1,1.2-2,1.6-3.4.2-.8.4-1.8.4-2.3s0,0,0-.2h.8c0,.3,0,.4-.2.8,0,.3,0,.5-.2,1h1.4ZM103.5,13.7c-.1.5-.2.7-.3,1,.3,1.5.5,2.2.9,3.2.6-1.2.8-2.3,1-4.1h-1.7ZM107.8,12.7c0,1.9,0,2.9-.2,4-.2,1.3-.6,2.1-1.3,3.1-.4-.4-.4-.4-.6-.6.7-.7,1-1.4,1.2-2.4.2-.9.3-2.1.3-3.7s0-.8,0-1c.2,0,.3,0,.8,0h1.3c.6,0,.9,0,1.1,0,0,.2,0,.6,0,1.1v5.4c0,.2,0,.3.5.3s.5,0,.6-.5c0-.4,0-.9.1-1.8.3.1.4.2.7.3-.2,2.6-.3,2.8-1.5,2.8s-1.2-.1-1.2-.7v-6.1h-1.6Z"/>
    <path d="M114.2,12.6c-.5,0-.6,0-.9,0v-.8c.3,0,.5,0,1,0h1.8c.5,0,.7,0,1,0v.8c-.3,0-.5,0-.9,0h-.6v2.8h.5c.3,0,.5,0,.8,0v.8c-.3,0-.5,0-.8,0h-.5v3c.6-.3.8-.3,1.4-.7v.8c-1.1.6-1.4.7-3.1,1.4-.3.1-.3.1-.5.2l-.2-.8c.4,0,.8-.2,1.7-.5v-3.3h-.6c-.3,0-.5,0-.8,0v-.8c.3,0,.4,0,.8,0h.6v-2.8h-.6ZM118.8,17.2c-.8,0-1.2,0-1.5,0,0-.2,0-.3,0-.4q0-.3,0-.9v-2.6c0-.8,0-1.2,0-1.5.4,0,.7,0,1.5,0h3.2c.8,0,1.2,0,1.5,0,0,.3,0,.8,0,1.5v2.4c0,.8,0,1.2,0,1.5-.4,0-.8,0-1.4,0h-1.4v1.4h1.8c.6,0,.9,0,1.2,0v.8c-.3,0-.6,0-1.2,0h-1.8v1.8h2.2c.6,0,.9,0,1.2,0v.8c-.3,0-.6,0-1.2,0h-5.4c-.6,0-.9,0-1.2,0v-.8c.3,0,.6,0,1.1,0h2.5v-1.8h-1.6c-.6,0-.8,0-1.2,0v-.8c.3,0,.6,0,1.2,0h1.6v-1.4h-1.2ZM118.1,12.5v1.7h1.9v-1.7h-1.9ZM118.1,14.9v1.7h1.9v-1.7h-1.9ZM120.8,14.2h2v-1.7h-2v1.7ZM120.8,16.6h2v-1.7h-2v1.7Z"/>
    <path d="M126.5,12c.3,0,.5,0,1,0h.8c.4,0,.6,0,1,0,0,.7-.1,1.3-.1,2v5.8c0,.6,0,.9,0,1.4h-1.1c0-.4,0-.8,0-1.4v-6.9h-.6c-.4,0-.7,0-1,0v-.9Z"/>
  </g>
  <rect class="st0" x="42.9" y="204.3" width="142.6" height="20.5"/>
  <g>
    <path d="M105,210.5c.5,0,.7,0,.9,0,0,.3,0,.4-.1.9-.2,1.7-.7,3.4-1.4,4.7,1,1.7,2.4,2.3,5.6,2.3s1.4,0,2.3-.1c-.2.3-.2.5-.3.9-.5,0-1.6,0-2.1,0-1.3,0-2.7-.2-3.5-.5-.9-.3-1.7-.9-2.3-2-.7,1.1-1.3,1.8-2.5,2.9-.2-.3-.3-.5-.5-.7,1.3-1,2-1.7,2.7-2.9-.3-.7-.6-1.6-1-2.8-.4.9-.5,1.2-1.1,2-.2-.3-.3-.4-.5-.6.8-1.1,1.2-2,1.6-3.4.2-.8.4-1.8.4-2.3s0,0,0-.2h.8c0,.3,0,.4-.2.8,0,.3,0,.5-.2,1h1.4ZM103.5,211.2c-.1.5-.2.7-.3,1,.3,1.5.5,2.2.9,3.2.6-1.2.8-2.3,1-4.1h-1.7ZM107.8,210.2c0,1.9,0,2.9-.2,4-.2,1.3-.6,2.1-1.3,3.1-.4-.4-.4-.4-.6-.6.7-.7,1-1.4,1.2-2.4.2-.9.3-2.1.3-3.7s0-.8,0-1c.2,0,.3,0,.8,0h1.3c.6,0,.9,0,1.1,0,0,.2,0,.6,0,1.1v5.4c0,.2,0,.3.5.3s.5,0,.6-.5c0-.4,0-.9.1-1.8.3.1.4.2.7.3-.2,2.6-.3,2.8-1.5,2.8s-1.2-.1-1.2-.7v-6.1h-1.6Z"/>
    <path d="M114.2,210.2c-.5,0-.6,0-.9,0v-.8c.3,0,.5,0,1,0h1.8c.5,0,.7,0,1,0v.8c-.3,0-.5,0-.9,0h-.6v2.8h.5c.3,0,.5,0,.8,0v.8c-.3,0-.5,0-.8,0h-.5v3c.6-.3.8-.3,1.4-.7v.8c-1.1.6-1.4.7-3.1,1.4-.3.1-.3.1-.5.2l-.2-.8c.4,0,.8-.2,1.7-.5v-3.3h-.6c-.3,0-.5,0-.8,0v-.8c.3,0,.4,0,.8,0h.6v-2.8h-.6ZM118.8,214.7c-.8,0-1.2,0-1.5,0,0-.2,0-.3,0-.4q0-.3,0-.9v-2.6c0-.8,0-1.2,0-1.5.4,0,.7,0,1.5,0h3.2c.8,0,1.2,0,1.5,0,0,.3,0,.8,0,1.5v2.4c0,.8,0,1.2,0,1.5-.4,0-.8,0-1.4,0h-1.4v1.4h1.8c.6,0,.9,0,1.2,0v.8c-.3,0-.6,0-1.2,0h-1.8v1.8h2.2c.6,0,.9,0,1.2,0v.8c-.3,0-.6,0-1.2,0h-5.4c-.6,0-.9,0-1.2,0v-.8c.3,0,.6,0,1.1,0h2.5v-1.8h-1.6c-.6,0-.8,0-1.2,0v-.8c.3,0,.6,0,1.2,0h1.6v-1.4h-1.2ZM118.1,210v1.7h1.9v-1.7h-1.9ZM118.1,212.4v1.7h1.9v-1.7h-1.9ZM120.8,211.7h2v-1.7h-2v1.7ZM120.8,214.1h2v-1.7h-2v1.7Z"/>
    <path d="M126.6,218.7c-.8,0-.9,0-1.3,0,.1-.9.2-1.1.3-1.6.3-.8.8-1.4,1.6-2.1.4-.4.4-.4,1.8-1.3,1.2-.8,1.6-1.3,1.6-2.1s-.8-1.5-2-1.5-1.4.3-1.7.8c-.2.3-.3.6-.4,1.2l-1-.2c.2-.9.4-1.3.8-1.7.5-.6,1.4-.9,2.4-.9,1.8,0,3,.9,3,2.3s-.2,1.2-.7,1.7c-.4.4-.7.6-2,1.5-.9.6-1.3,1-1.7,1.5-.4.5-.5.8-.7,1.4h3.8c.6,0,1,0,1.5,0v1c-.5,0-.9,0-1.5,0h-3.6Z"/>
  </g>
  <polygon class="st8" points="74.5 130.1 72.9 128.5 68.9 132.5 64.9 128.5 63.3 130.1 67.3 134.1 63.3 138.1 64.9 139.8 68.9 135.7 72.9 139.8 74.5 138.1 70.5 134.1 74.5 130.1"/>
  <g>
    <path d="M51.5,69.8c-.2,1.8-.3,2.5-.6,3.5l-.6-.3c.4-1,.5-1.8.6-3.3h.6ZM50.3,68.3c.2,0,.3,0,.5,0s0,0,.3,0q.5-.7.9-1.2c-.4-.6-.8-1.1-1.6-1.9l.4-.5c.2.2.3.3.5.5.5-.8.9-1.7,1-2.2l.8.3q-.2.2-.5.9c-.2.4-.6,1-.8,1.4.3.4.4.6.6.8.9-1.3,1.1-1.7,1.2-2.2l.7.4c-.1.2-.2.2-.4.6-.5.9-1.2,1.9-2.1,3,.7,0,1.2,0,1.7-.1-.1-.4-.2-.5-.5-1.1l.5-.2c.4.8.6,1.3.9,2.3l-.6.2c0-.3,0-.4-.2-.7q0,0-.3,0c0,0-.2,0-.6,0v3.8c0,.7,0,1,0,1.4h-.8c0-.3,0-.7,0-1.4v-3.7q-.4,0-1,0c-.3,0-.4,0-.7,0v-.8ZM53.8,69.6c.3,1,.3,1.5.5,2.4l-.6.2c-.1-1.1-.2-1.6-.4-2.4h.6ZM57.3,69.7c0-.4,0-.5,0-.7-.2,0-.5,0-.8,0h-1.2c-.4,0-.6,0-.8,0,0-.2,0-.5,0-.8v-.8c0-.3,0-.6,0-.8.2,0,.5,0,.9,0h1.1c.4,0,.7,0,.9,0,0,.3,0,.5,0,.8v.9c0,.3,0,.6,0,.7h.7c0-.2,0-.4,0-.7v-.9c0-.4,0-.6,0-.8.2,0,.4,0,.8,0h1.4c.3,0,.6,0,.7,0,0,.2,0,.4,0,.7v1c0,.3,0,.5,0,.7-.2,0-.5,0-.8,0h-1.4c-.3,0-.5,0-.7,0,0,.2,0,.3,0,.7v.2h2.1c.5,0,.9,0,1.2,0v.7c-.3,0-.7,0-1.2,0h-1.7c.3.4.5.6.9.9.8.6,1.3.9,2.3,1.3-.2.3-.3.4-.4.7-.9-.4-1.3-.7-2-1.2-.5-.4-.8-.7-1.2-1.3,0,.4,0,.8,0,1.2v.9c0,.6,0,.9,0,1.2h-.8c0-.3,0-.7,0-1.2v-.9c0-.4,0-.7,0-1.2-.4.6-.5.8-1,1.2-.6.6-1,.9-2,1.5-.2-.3-.3-.4-.5-.6,1-.5,1.6-.9,2.3-1.6.2-.2.4-.4.7-.8h-1.5c-.5,0-.9,0-1.2,0v-.7c.3,0,.6,0,1.2,0h1.8v-.2ZM55.2,68.4h1.6v-1.2h-1.6v1.2ZM55.4,64.2c0-.3,0-.6,0-.8.3,0,.6,0,1,0h2.5c.6,0,.9,0,1.1,0,0,.2,0,.4,0,.8v1c0,.3,0,.6,0,.8-.3,0-.6,0-1,0h-2.6c-.6,0-.7,0-1,0,0-.2,0-.5,0-.8v-.9ZM56.1,65.4h3.1v-1.3h-3.1v1.3ZM58.6,68.4h1.7v-1.2h-1.7v1.2Z"/>
    <path d="M65,63.5c0,.3-.2.6-.3,1.2-.2,1.2-.4,2.5-.4,3.1h0q0,0,0-.3c.1-.7.4-1.2.7-1.8.7-1,1.5-1.5,2.4-1.5s1.5.4,1.9,1.1c.5.7.7,1.6.7,2.9,0,2.2-1,3.8-2.8,4.7-.6.3-1.3.5-2.1.7-.1-.4-.2-.5-.5-.8,1.1-.2,1.7-.4,2.4-.8,1.4-.8,2.1-2.1,2.1-4s-.7-3-1.8-3-1.7.7-2.4,2.1c-.4.9-.6,1.8-.6,2.7s0,.1,0,.3h-.9c0,0,0-.3,0-.3v-1.2c0-.1,0-.2,0-.3,0-1.2.1-2.3.4-4.4,0-.2,0-.2,0-.4h.9Z"/>
    <path d="M72.5,67.9c.3,0,.5,0,.9,0h.6c.3,0,.6,0,.9,0,0,.4,0,.7,0,1.3v2.4c.3.6.6.9,1.1,1.1.6.3,1.3.3,2.7.3,2.2,0,3.7,0,4.8-.2-.2.4-.2.5-.3.9-1.2,0-2.6,0-3.5,0-2,0-2.8,0-3.4-.2-.8-.2-1.3-.6-1.7-1.3-.5.6-.8.8-1.5,1.3,0,0-.2.2-.4.4l-.4-.8c.5-.2,1.3-.8,1.9-1.5v-2.9h-.8c-.4,0-.6,0-.9,0v-.8ZM73.3,63.5c.8.8,1.3,1.3,1.9,2.1l-.6.5c-.7-1-1-1.4-1.9-2.2l.6-.5ZM77.3,66.9c0,1.5-.2,2.4-.5,3.4-.2.7-.4,1.2-.8,1.8-.2-.2-.3-.4-.6-.6.9-1.2,1.2-3,1.2-6.6s0-1,0-1.3c.3,0,.6,0,1.2,0h4.1c.5,0,.9,0,1.2,0v.8c-.4,0-.7,0-1.2,0h-4.5c0,.8,0,1.1,0,1.8h3.8c.5,0,.8,0,1,0l.4.4c0,.2-.2.3-.3.7-.5,1.1-1,1.9-1.7,2.6.8.7,1.5,1.1,2.7,1.6-.2.2-.3.5-.4.7-1.2-.5-2-1-2.8-1.8-.9.9-1.5,1.3-2.7,1.8-.2-.3-.3-.4-.5-.6,1.2-.5,1.9-1,2.7-1.7-.9-1-1.4-1.8-1.8-3h-.4ZM78.4,66.9c.4,1,.8,1.7,1.6,2.5.7-.8,1.2-1.5,1.6-2.5h-3.1Z"/>
    <path d="M86.7,63.7c0,.4-.1,1-.2,2.5,0,1.4,0,3.1,0,3.6s0,.4,0,.7c0,.7.2,1.1.6,1.4.3.3.9.5,1.5.5,1.4,0,2.5-.7,3.2-2.1.3-.6.4-1,.6-1.9.3.3.5.4.9.6-.5,1.4-.8,2.1-1.3,2.7-.9,1-2,1.5-3.4,1.5s-1.8-.3-2.3-.8c-.5-.6-.7-1.2-.7-2.5s0-1.1.1-4.9c0-.4,0-.6,0-.8s0-.4,0-.6h1Z"/>
    <path d="M98.5,64.9c.5,0,.7,0,.9,0,0,.3,0,.4-.1.9-.2,1.7-.7,3.4-1.4,4.7,1,1.7,2.4,2.3,5.6,2.3s1.4,0,2.3-.1c-.2.3-.2.5-.3.9-.5,0-1.6,0-2.1,0-1.3,0-2.7-.2-3.5-.5-.9-.3-1.7-.9-2.3-2-.7,1.1-1.3,1.8-2.5,2.9-.2-.3-.3-.5-.5-.7,1.3-1,2-1.7,2.7-2.9-.3-.7-.6-1.6-1-2.8-.4.9-.5,1.2-1.1,2-.2-.3-.3-.4-.5-.6.8-1.1,1.2-2,1.6-3.4.2-.8.4-1.8.4-2.3s0,0,0-.2h.8c0,.3,0,.4-.2.8,0,.3,0,.5-.2,1h1.4ZM97,65.5c-.1.5-.2.7-.3,1,.3,1.5.5,2.2.9,3.2.6-1.2.8-2.3,1-4.1h-1.7ZM101.3,64.5c0,1.9,0,2.9-.2,4-.2,1.3-.6,2.1-1.3,3.1-.4-.4-.4-.4-.6-.6.7-.7,1-1.4,1.2-2.4.2-.9.3-2.1.3-3.7s0-.8,0-1c.2,0,.3,0,.8,0h1.3c.6,0,.9,0,1.1,0,0,.2,0,.6,0,1.1v5.4c0,.2,0,.3.5.3s.5,0,.6-.5c0-.4,0-.9.1-1.8.3.1.4.2.7.3-.2,2.6-.3,2.8-1.5,2.8s-1.2-.1-1.2-.7v-6.1h-1.6Z"/>
    <path d="M107.6,64.5c-.5,0-.6,0-.9,0v-.8c.3,0,.5,0,1,0h1.8c.5,0,.7,0,1,0v.8c-.3,0-.5,0-.9,0h-.6v2.8h.5c.3,0,.5,0,.8,0v.8c-.3,0-.5,0-.8,0h-.5v3c.6-.3.8-.3,1.4-.7v.8c-1.1.6-1.4.7-3.1,1.4-.3.1-.3.1-.5.2l-.2-.8c.4,0,.8-.2,1.7-.5v-3.3h-.6c-.3,0-.5,0-.8,0v-.8c.3,0,.4,0,.8,0h.6v-2.8h-.6ZM112.3,69c-.8,0-1.2,0-1.5,0,0-.2,0-.3,0-.4q0-.3,0-.9v-2.6c0-.8,0-1.2,0-1.5.4,0,.7,0,1.5,0h3.2c.8,0,1.2,0,1.5,0,0,.3,0,.8,0,1.5v2.4c0,.8,0,1.2,0,1.5-.4,0-.8,0-1.4,0h-1.4v1.4h1.8c.6,0,.9,0,1.2,0v.8c-.3,0-.6,0-1.2,0h-1.8v1.8h2.2c.6,0,.9,0,1.2,0v.8c-.3,0-.6,0-1.2,0h-5.4c-.6,0-.9,0-1.2,0v-.8c.3,0,.6,0,1.1,0h2.5v-1.8h-1.6c-.6,0-.8,0-1.2,0v-.8c.3,0,.6,0,1.2,0h1.6v-1.4h-1.2ZM111.6,64.3v1.7h1.9v-1.7h-1.9ZM111.6,66.7v1.7h1.9v-1.7h-1.9ZM114.3,66h2v-1.7h-2v1.7ZM114.3,68.4h2v-1.7h-2v1.7Z"/>
    <path d="M122.6,74.1c-.9-1-1.3-1.6-1.7-2.6-.4-1-.6-1.9-.6-3s.2-2,.6-3c.4-1,.8-1.5,1.7-2.6h1.1c-1,1-1.4,1.6-1.8,2.5-.4,1-.6,2-.6,3s.2,2.1.6,3c.4.9.8,1.5,1.8,2.5h-1.1Z"/>
    <path d="M130.4,73c0-.3-.1-.6-.2-.9l-1.2-3.5c0,0,0-.3-.2-.8,0,.3-.2.7-.2.8l-1.2,3.5c-.1.3-.2.7-.3.9h-.8c0-.3,0-.3-.3-.9l-1.3-4.1c-.1-.4-.3-1-.5-1.4h1.1c0,.4.1.8.3,1.3l.9,3c0,.2.1.5.2.9,0-.3.2-.8.3-.9l1.1-3.4c.1-.4.2-.7.2-.9h.8c0,.2.1.6.2.9l1.2,3.5c0,.1.1.4.2.5q0,.2,0,.3c.1-.5.2-.7.2-.8l.9-3c.2-.5.2-1,.3-1.3h1.1c0,.3-.3.7-.5,1.4l-1.3,4.1c-.2.5-.2.7-.3.9h-.8Z"/>
    <path d="M134.2,73c0-.4,0-.8,0-1.4v-6.4c0-.6,0-.9,0-1.4h1.1c0,.4,0,.8,0,1.4v2c0,.2,0,.3,0,.6.2-.4.4-.6.7-.8.5-.4,1.1-.6,1.8-.6,1.4,0,2.2.8,2.2,2.2v3c0,.6,0,.9,0,1.3h-1.1c0-.4,0-.8,0-1.4v-2.8c0-1-.5-1.6-1.5-1.6s-1.2.3-1.7.9c-.3.4-.5.8-.6,1.3v2.3c0,.5,0,.9,0,1.4h-1.1Z"/>
    <path d="M142.8,63.9v1.1h-1.2v-1.1h1.2ZM142.7,66.5c0,.4,0,.8,0,1.4v3.8c0,.6,0,.9,0,1.4h-1.1c0-.5,0-.9,0-1.4v-3.8c0-.6,0-.9,0-1.4h1.1Z"/>
    <path d="M145.5,63.9c0,.4,0,.8,0,1.4v6.4c0,.5,0,.9,0,1.3h-1.1c0-.4,0-.8,0-1.3v-6.4c0-.6,0-.9,0-1.3h1.1Z"/>
    <path d="M147.9,69.9c0,.8.2,1.2.5,1.7.4.5,1,.8,1.7.8s1.6-.5,2-1.4l.8.3c-.2.5-.4.7-.7,1-.6.6-1.3.8-2.2.8-1.9,0-3.1-1.3-3.1-3.4s1.2-3.4,3-3.4,2.7,1,2.9,2.6c0,.1,0,.6,0,.9h-5ZM151.9,69.2c0-.7-.3-1.1-.6-1.5-.4-.4-.8-.5-1.4-.5s-1.3.4-1.7,1c-.2.3-.2.5-.3,1h4.1Z"/>
    <path d="M158,63.5c0,.2,0,.3-.2.8,0,.4-.2.7-.3,1.3.8,0,1.6-.2,2.1-.4v.8q0,0-.4,0c-.5.1-1.2.2-2,.3-.4,1.3-.8,2.4-1.3,3.5-.3.6-.4.8-.9,1.6-.1.2-.2.3-.2.4l-.8-.5c.4-.5.7-1,1.2-1.9.6-1.1.9-2,1.2-3.1-.3,0-.7,0-.9,0s-.6,0-.8,0c-.1,0-.2,0-.3,0h-.2v-.8c.4,0,.8,0,1.4,0s.6,0,.9,0c.2-.7.4-1.7.4-2.3h.9ZM163.7,72.8c-.5-.6-1.2-1.2-2.1-1.6,0,.2,0,.3,0,.4,0,1.2-.8,1.9-2.3,1.9s-2.3-.7-2.3-1.7.4-1.2,1.1-1.5c.4-.2.9-.3,1.4-.3s.7,0,1.2.2c0-.8,0-1.3,0-1.6,0-.4,0-.7.1-1.2h.8c-.1.5-.2.8-.2,1.2s0,1.4.1,1.8c1,.4,1.7.9,2.4,1.5q.1.1.2.2l-.4.8ZM159.5,70.6c-1,0-1.7.4-1.7,1.1s.6,1,1.5,1,1.5-.4,1.5-1.3,0-.5,0-.5c-.5-.2-.9-.2-1.3-.2ZM163.7,67.4c-1-.7-1.9-1.2-3.2-1.6l.4-.7c1.4.6,2.2,1,3.2,1.6l-.4.7Z"/>
    <path d="M168.4,63.6c0,.6.6,3.1.9,4,.7-.3,1.1-.4,2.9-1.1.4-.2.5-.2.8-.3l.4.9c-.8.2-2.6.7-3.6,1.2-2.1.8-2.9,1.6-2.9,2.6s.9,1.5,3.3,1.5,2.7-.2,3.4-.4v1c0,0-.1,0-.3,0h-.1s-.4,0-.4,0c-1.2.1-1.8.2-2.7.2s-2.1-.1-2.7-.3c-1-.4-1.5-1-1.5-2s.4-1.5,1.1-2c.5-.4.8-.6,1.6-1-.3-.9-.6-1.8-.9-3.3-.1-.5-.1-.6-.2-.8l.9-.2ZM172.4,63.4c.5.6.9,1.2,1.2,1.9l-.6.4c-.3-.6-.9-1.5-1.2-1.9l.6-.3ZM173.8,62.7c.6.7.9,1.1,1.2,1.9l-.6.3c-.3-.6-.8-1.3-1.2-1.9l.6-.3Z"/>
    <path d="M175.5,74.1c1-1,1.4-1.6,1.8-2.5.4-1,.6-2,.6-3s-.2-2.1-.6-3c-.4-.9-.8-1.5-1.8-2.5h1.1c.9,1,1.3,1.6,1.7,2.6.4,1,.6,1.9.6,3s-.2,2-.6,3c-.4,1-.8,1.5-1.7,2.6h-1.1Z"/>
  </g>
  <g>
    <line x1="114.2" y1="172.1" x2="114.2" y2="203.9"/>
    <g>
      <line class="st3" x1="114.2" y1="172.1" x2="114.2" y2="196.7"/>
      <polygon points="109.2 195.3 114.2 203.9 119.2 195.3 109.2 195.3"/>
    </g>
  </g>
  <g>
    <line x1="114.2" y1="27.3" x2="114.2" y2="59"/>
    <g>
      <line class="st3" x1="114.2" y1="27.3" x2="114.2" y2="51.9"/>
      <polygon points="109.2 50.4 114.2 59 119.2 50.4 109.2 50.4"/>
    </g>
  </g>
  <g>
    <path d="M110.1,134.7v-10h1.9v3.6c.6-.7,1.3-1,2.1-1s1.6.3,2.2,1,.9,1.6.9,2.8-.3,2.2-.9,2.9-1.3,1-2.1,1-.8-.1-1.2-.3-.8-.5-1-.9v1.1h-1.8ZM112,130.9c0,.8.1,1.3.4,1.7.3.5.8.8,1.3.8s.8-.2,1.1-.5.4-.9.4-1.7-.2-1.4-.5-1.8-.7-.6-1.2-.6-.8.2-1.1.5-.5.9-.5,1.6Z"/>
    <path d="M120.6,134.7h-1.9v-7.3h1.8v1c.3-.5.6-.8.8-1s.5-.2.8-.2.9.1,1.3.4l-.6,1.7c-.3-.2-.6-.3-.9-.3s-.5,0-.7.2-.3.4-.4.8-.2,1.2-.2,2.4v2.2Z"/>
    <path d="M128.4,132.4l1.9.3c-.2.7-.6,1.2-1.2,1.6s-1.2.6-2,.6c-1.3,0-2.2-.4-2.8-1.2-.5-.7-.7-1.5-.7-2.5s.3-2.1.9-2.8,1.4-1,2.4-1,1.9.4,2.6,1.1.9,1.8.9,3.3h-4.8c0,.6.2,1,.5,1.3s.7.5,1.1.5.6,0,.8-.2.4-.4.5-.8ZM128.5,130.5c0-.6-.2-1-.4-1.3s-.6-.4-1-.4-.8.2-1,.5-.4.7-.4,1.2h2.9Z"/>
    <path d="M133.4,129.7l-1.7-.3c.2-.7.5-1.2,1-1.6s1.2-.5,2.1-.5,1.5.1,1.9.3.7.5.9.8.3.9.3,1.7v2.2c0,.6,0,1.1,0,1.4s.2.6.3,1h-1.9c0-.1-.1-.3-.2-.6,0-.1,0-.2,0-.2-.3.3-.7.6-1.1.7s-.8.2-1.2.2c-.7,0-1.3-.2-1.8-.6s-.6-.9-.6-1.5,0-.8.3-1.1.5-.6.8-.7.9-.3,1.5-.4c.9-.2,1.5-.3,1.9-.5v-.2c0-.4,0-.6-.3-.8s-.5-.2-1-.2-.6,0-.8.2-.3.4-.5.7ZM136,131.2c-.2,0-.6.2-1.2.3s-.9.2-1,.3c-.3.2-.4.4-.4.7s.1.5.3.7.5.3.8.3.7-.1,1-.3c.2-.2.4-.4.5-.6,0-.2,0-.5,0-.9v-.4Z"/>
    <path d="M139.7,134.7v-10h1.9v5.3l2.2-2.6h2.4l-2.5,2.7,2.7,4.6h-2.1l-1.8-3.3-.9.9v2.3h-1.9Z"/>
  </g>
  <g>
    <line class="st7" x1="68.8" y1="76.6" x2="68.8" y2="170.1"/>
    <g>
      <line class="st2" x1="68.8" y1="76.6" x2="68.8" y2="79.1"/>
      <line class="st4" x1="68.8" y1="84.1" x2="68.8" y2="161.5"/>
      <line class="st2" x1="68.8" y1="164" x2="68.8" y2="166.5"/>
      <polygon points="66.3 165.8 68.8 170.1 71.3 165.8 66.3 165.8"/>
    </g>
  </g>
  <g>
    <path d="M90.9,113.4v.8h-.9v-.8h.9ZM90.8,115.4c0,.3,0,.6,0,1v2.8c0,.4,0,.7,0,1h-.8c0-.4,0-.6,0-1v-2.8c0-.4,0-.7,0-1h.8Z"/>
    <path d="M92.4,116c-.3,0-.5,0-.8,0v-.7c.2,0,.5,0,.8,0h.4v-.5c0-.5,0-.8.3-1.1.2-.3.6-.4,1.1-.4s.6,0,1,.2l-.2.6c-.2-.1-.5-.2-.7-.2s-.5,0-.6.2c0,.1-.1.3-.1.8v.5h.5c.4,0,.6,0,1,0v.7c-.3,0-.5,0-1,0h-.5v3.3c0,.4,0,.7,0,1h-.8c0-.3,0-.6,0-1v-3.3h-.4Z"/>
    <path d="M97.6,121.8c-.5-.8-.7-1.2-1-1.9-.2-.7-.4-1.5-.4-2.3s.1-1.6.4-2.3c.2-.6.4-1.1,1-1.9l.6.4c-.5.8-.7,1.2-.9,1.8-.2.6-.3,1.3-.3,2s0,1.4.3,2c.2.6.4,1,.9,1.8l-.6.4Z"/>
    <path d="M99.4,114.2c.4.1.9.1,1.7.1s0,0,.2,0q0-.2,0-.7c0,0,0-.5,0-.5s0,0,0-.1h.7c0,.3-.1.6-.2,1.3,1.5,0,2.7-.3,3.4-.5v.6c0,0-.1,0-.3,0-1,.2-2.4.3-3.2.4q0,.8,0,1.2c.5-.1.9-.2,1.3-.2s.3,0,.5,0c.1-.3.2-.5.2-.8l.6.2c0,0-.1.3-.3.7,1.2.3,1.9,1.1,1.9,2.1s-.5,1.6-1.4,2.1c-.5.3-1,.4-1.8.5,0-.3-.1-.4-.3-.6.5,0,.9,0,1.4-.2,1-.3,1.5-1,1.5-1.8s-.5-1.3-1.5-1.6c-.5,1.2-1,2-1.7,2.7-.7.7-1.4,1.1-2,1.1s-1.2-.6-1.2-1.4.8-2.1,2.1-2.7c0-.7,0-.7,0-1.4h-.4c0,0-.5,0-1.2,0,0,0-.1,0-.2,0,0,0,0,0-.1,0v-.6ZM100.2,117.5c-.4.4-.5.9-.5,1.3s.3.8.6.8.6-.1,1-.5c-.1-.7-.2-1.4-.2-2.4-.4.2-.7.5-1,.7ZM101.9,118.9c0-.1,0-.2.2-.2.6-.7,1-1.3,1.4-2.3-.3,0-.3,0-.4,0-.4,0-.8,0-1.3.2,0,1.2,0,1.3,0,2.1,0,0,0,0,0,.1h0c0,0,0,.1,0,.1Z"/>
    <path d="M108.4,113.6c.3,0,.4,0,.8,0,.7,0,1.9,0,2.8-.1.2,0,.3,0,.4,0l.4.5c-.1,0-.2,0-.5.4-1.2,1.2-2.3,2.2-3,2.6h0c.7-.3,1.4-.5,2.2-.5,1.5,0,2.5.7,2.5,1.9s-1.3,2.3-3.3,2.3-2-.5-2-1.3.6-1.1,1.3-1.1,1.1.3,1.5.7c.2.3.3.5.4.9.9-.3,1.4-.8,1.4-1.6s-.7-1.4-1.9-1.4-2.7.6-3.8,1.5l-.4-.6c.3-.2.6-.4,1.3-.9,1-.8,2.4-2,3-2.6h.1c0-.1,0-.1,0-.2h0s0,0,0,0t0,0c-.3,0-1.4.1-2.7.2-.2,0-.3,0-.5,0v-.7ZM110.1,118.8c-.5,0-.7.2-.7.6s.1.4.4.5c.2.1.6.2,1,.2s.3,0,.7,0c-.2-.8-.6-1.3-1.3-1.3Z"/>
    <path d="M121.6,113.8s0,0-.1.1c-.6.7-1.1,1.1-1.7,1.5,1.1.5,2.1.9,3.6,1.1-.1.2-.2.3-.3.5-1.1-.2-1.9-.4-2.7-.8-.4-.1-.6-.3-1-.5-.4.2-.7.4-1.1.6-.9.4-1.4.6-2.6.8,0-.2-.1-.3-.3-.5,1.4-.2,2.5-.6,3.5-1.2-.5-.3-.7-.6-1.2-1.1-.6.5-1,.8-1.7,1.2,0-.2-.2-.3-.4-.4.7-.3,1.2-.6,1.7-1,.5-.4.8-.9,1.1-1.4l.6.2c-.1.1-.2.3-.5.6h2c.4,0,.6,0,.8,0l.3.4ZM122.1,117.5c.5,0,.7,0,1,0v.6c-.3,0-.6,0-1,0h-2.3c.3.4.6.6,1,.9.8.6,1.5.9,2.5,1.3-.2.2-.2.3-.4.6-1-.4-1.6-.8-2.3-1.3-.5-.4-.7-.6-1.2-1.1,0,.3,0,.6,0,.8v1.1c0,.5,0,.6,0,.9h-.6c0-.3,0-.4,0-.9v-1.1c0-.2,0-.5,0-.8-.5.6-.8.9-1.3,1.2-.5.4-1.2.8-2,1.2,0-.2-.2-.4-.3-.5,1.4-.5,2.4-1.2,3.3-2.1h-2.1c-.4,0-.7,0-1,0v-.6c.2,0,.5,0,.9,0h2.6v-.4c0-.3,0-.4,0-.6h.6c0,.2,0,.3,0,.6v.4h2.6ZM118,114c.5.5.8.8,1.3,1.1.5-.4.9-.6,1.4-1.2h-2.7Z"/>
    <path d="M125.3,117c0-.4,0-.7,0-1.1-.3.6-.5.9-1,1.4-.1-.3-.1-.3-.4-.5.8-.9,1.3-1.8,1.7-2.8.2-.5.3-.9.3-1.2l.6.2c0,.1,0,.2-.1.4-.2.7-.4,1.1-.7,1.7v4.9c0,.4,0,.7,0,1.1h-.7c0-.4,0-.6,0-1.1v-3ZM129.2,113.9c0-.4,0-.6,0-.9h.7c0,.3,0,.5,0,.9v1h1.3c.4,0,.7,0,.9,0v.6c-.3,0-.6,0-.9,0h-1.3v2h1.7c.4,0,.7,0,.9,0v.6c-.3,0-.6,0-.9,0h-1.7v2.2c0,.4,0,.6,0,.9h-.7c0-.3,0-.6,0-.9v-2.2h-1.8c-.4,0-.7,0-.9,0v-.6c.2,0,.5,0,.9,0h1.8v-2h-1.5c-.3.6-.5.9-.8,1.4-.1-.1-.3-.2-.5-.4.5-.6.8-1.2,1.1-2,.2-.5.3-.8.3-1.2l.6.2c0,.2,0,.2-.2.5-.1.4-.2.6-.3.9h1.3v-1Z"/>
    <path d="M133.6,113.3c.5.8.7,1.2,1,1.9.3.7.4,1.5.4,2.3s-.1,1.6-.4,2.3c-.2.6-.4,1.1-1,1.9l-.6-.4c.5-.8.7-1.2.9-1.8.2-.6.3-1.3.3-2s0-1.4-.3-2c-.2-.6-.4-1-.9-1.8l.6-.4Z"/>
    <path d="M137.5,116.3h-.9v-.9h.9v.9ZM136.6,120.3v-.9h.9v.9h-.9Z"/>
  </g>
  <g>
    <polyline class="st3" points="149 130.9 205.9 130.9 205.9 183.5 127 183.5"/>
    <polygon points="128.5 178.5 119.9 183.5 128.5 188.5 128.5 178.5"/>
  </g>
  <rect class="st0" x="239" y="6.8" width="142.6" height="20.5"/>
  <rect class="st0" x="239" y="59" width="142.6" height="113.1"/>
  <g>
    <path d="M301.2,13c.5,0,.7,0,.9,0,0,.3,0,.4-.1.9-.2,1.7-.7,3.4-1.4,4.7,1,1.7,2.4,2.3,5.6,2.3s1.4,0,2.3-.1c-.2.3-.2.5-.3.9-.5,0-1.6,0-2.1,0-1.3,0-2.7-.2-3.5-.5-.9-.3-1.7-.9-2.3-2-.7,1.1-1.3,1.8-2.5,2.9-.2-.3-.3-.5-.5-.7,1.3-1,2-1.7,2.7-2.9-.3-.7-.6-1.6-1-2.8-.4.9-.5,1.2-1.1,2-.2-.3-.3-.4-.5-.6.8-1.1,1.2-2,1.6-3.4.2-.8.4-1.8.4-2.3s0,0,0-.2h.8c0,.3,0,.4-.2.8,0,.3,0,.5-.2,1h1.4ZM299.6,13.7c-.1.5-.2.7-.3,1,.3,1.5.5,2.2.9,3.2.6-1.2.8-2.3,1-4.1h-1.7ZM304,12.7c0,1.9,0,2.9-.2,4-.2,1.3-.6,2.1-1.3,3.1-.4-.4-.4-.4-.6-.6.7-.7,1-1.4,1.2-2.4.2-.9.3-2.1.3-3.7s0-.8,0-1c.2,0,.3,0,.8,0h1.3c.6,0,.9,0,1.1,0,0,.2,0,.6,0,1.1v5.4c0,.2,0,.3.5.3s.5,0,.6-.5c0-.4,0-.9.1-1.8.3.1.4.2.7.3-.2,2.6-.3,2.8-1.5,2.8s-1.2-.1-1.2-.7v-6.1h-1.6Z"/>
    <path d="M310.3,12.6c-.5,0-.6,0-.9,0v-.8c.3,0,.5,0,1,0h1.8c.5,0,.7,0,1,0v.8c-.3,0-.5,0-.9,0h-.6v2.8h.5c.3,0,.5,0,.8,0v.8c-.3,0-.5,0-.8,0h-.5v3c.6-.3.8-.3,1.4-.7v.8c-1.1.6-1.4.7-3.1,1.4-.3.1-.3.1-.5.2l-.2-.8c.4,0,.8-.2,1.7-.5v-3.3h-.6c-.3,0-.5,0-.8,0v-.8c.3,0,.4,0,.8,0h.6v-2.8h-.6ZM315,17.2c-.8,0-1.2,0-1.5,0,0-.2,0-.3,0-.4q0-.3,0-.9v-2.6c0-.8,0-1.2,0-1.5.4,0,.7,0,1.5,0h3.2c.8,0,1.2,0,1.5,0,0,.3,0,.8,0,1.5v2.4c0,.8,0,1.2,0,1.5-.4,0-.8,0-1.4,0h-1.4v1.4h1.8c.6,0,.9,0,1.2,0v.8c-.3,0-.6,0-1.2,0h-1.8v1.8h2.2c.6,0,.9,0,1.2,0v.8c-.3,0-.6,0-1.2,0h-5.4c-.6,0-.9,0-1.2,0v-.8c.3,0,.6,0,1.1,0h2.5v-1.8h-1.6c-.6,0-.8,0-1.2,0v-.8c.3,0,.6,0,1.2,0h1.6v-1.4h-1.2ZM314.3,12.5v1.7h1.9v-1.7h-1.9ZM314.3,14.9v1.7h1.9v-1.7h-1.9ZM316.9,14.2h2v-1.7h-2v1.7ZM316.9,16.6h2v-1.7h-2v1.7Z"/>
    <path d="M322.7,12c.3,0,.5,0,1,0h.8c.4,0,.6,0,1,0,0,.7-.1,1.3-.1,2v5.8c0,.6,0,.9,0,1.4h-1.1c0-.4,0-.8,0-1.4v-6.9h-.6c-.4,0-.7,0-1,0v-.9Z"/>
  </g>
  <rect class="st0" x="239" y="204.3" width="142.6" height="20.5"/>
  <g>
    <path d="M301.2,210.5c.5,0,.7,0,.9,0,0,.3,0,.4-.1.9-.2,1.7-.7,3.4-1.4,4.7,1,1.7,2.4,2.3,5.6,2.3s1.4,0,2.3-.1c-.2.3-.2.5-.3.9-.5,0-1.6,0-2.1,0-1.3,0-2.7-.2-3.5-.5-.9-.3-1.7-.9-2.3-2-.7,1.1-1.3,1.8-2.5,2.9-.2-.3-.3-.5-.5-.7,1.3-1,2-1.7,2.7-2.9-.3-.7-.6-1.6-1-2.8-.4.9-.5,1.2-1.1,2-.2-.3-.3-.4-.5-.6.8-1.1,1.2-2,1.6-3.4.2-.8.4-1.8.4-2.3s0,0,0-.2h.8c0,.3,0,.4-.2.8,0,.3,0,.5-.2,1h1.4ZM299.6,211.2c-.1.5-.2.7-.3,1,.3,1.5.5,2.2.9,3.2.6-1.2.8-2.3,1-4.1h-1.7ZM304,210.2c0,1.9,0,2.9-.2,4-.2,1.3-.6,2.1-1.3,3.1-.4-.4-.4-.4-.6-.6.7-.7,1-1.4,1.2-2.4.2-.9.3-2.1.3-3.7s0-.8,0-1c.2,0,.3,0,.8,0h1.3c.6,0,.9,0,1.1,0,0,.2,0,.6,0,1.1v5.4c0,.2,0,.3.5.3s.5,0,.6-.5c0-.4,0-.9.1-1.8.3.1.4.2.7.3-.2,2.6-.3,2.8-1.5,2.8s-1.2-.1-1.2-.7v-6.1h-1.6Z"/>
    <path d="M310.3,210.2c-.5,0-.6,0-.9,0v-.8c.3,0,.5,0,1,0h1.8c.5,0,.7,0,1,0v.8c-.3,0-.5,0-.9,0h-.6v2.8h.5c.3,0,.5,0,.8,0v.8c-.3,0-.5,0-.8,0h-.5v3c.6-.3.8-.3,1.4-.7v.8c-1.1.6-1.4.7-3.1,1.4-.3.1-.3.1-.5.2l-.2-.8c.4,0,.8-.2,1.7-.5v-3.3h-.6c-.3,0-.5,0-.8,0v-.8c.3,0,.4,0,.8,0h.6v-2.8h-.6ZM315,214.7c-.8,0-1.2,0-1.5,0,0-.2,0-.3,0-.4q0-.3,0-.9v-2.6c0-.8,0-1.2,0-1.5.4,0,.7,0,1.5,0h3.2c.8,0,1.2,0,1.5,0,0,.3,0,.8,0,1.5v2.4c0,.8,0,1.2,0,1.5-.4,0-.8,0-1.4,0h-1.4v1.4h1.8c.6,0,.9,0,1.2,0v.8c-.3,0-.6,0-1.2,0h-1.8v1.8h2.2c.6,0,.9,0,1.2,0v.8c-.3,0-.6,0-1.2,0h-5.4c-.6,0-.9,0-1.2,0v-.8c.3,0,.6,0,1.1,0h2.5v-1.8h-1.6c-.6,0-.8,0-1.2,0v-.8c.3,0,.6,0,1.2,0h1.6v-1.4h-1.2ZM314.3,210v1.7h1.9v-1.7h-1.9ZM314.3,212.4v1.7h1.9v-1.7h-1.9ZM316.9,211.7h2v-1.7h-2v1.7ZM316.9,214.1h2v-1.7h-2v1.7Z"/>
    <path d="M322.8,218.7c-.8,0-.9,0-1.3,0,.1-.9.2-1.1.3-1.6.3-.8.8-1.4,1.6-2.1.4-.4.4-.4,1.8-1.3,1.2-.8,1.6-1.3,1.6-2.1s-.8-1.5-2-1.5-1.4.3-1.7.8c-.2.3-.3.6-.4,1.2l-1-.2c.2-.9.4-1.3.8-1.7.5-.6,1.4-.9,2.4-.9,1.8,0,3,.9,3,2.3s-.2,1.2-.7,1.7c-.4.4-.7.6-2,1.5-.9.6-1.3,1-1.7,1.5-.4.5-.5.8-.7,1.4h3.8c.6,0,1,0,1.5,0v1c-.5,0-.9,0-1.5,0h-3.6Z"/>
  </g>
  <g>
    <path d="M247.6,69.8c-.2,1.8-.3,2.5-.6,3.5l-.6-.3c.4-1,.5-1.8.6-3.3h.6ZM246.4,68.3c.2,0,.3,0,.5,0s0,0,.3,0q.5-.7.9-1.2c-.4-.6-.8-1.1-1.6-1.9l.4-.5c.2.2.3.3.5.5.5-.8.9-1.7,1-2.2l.8.3q-.2.2-.5.9c-.2.4-.6,1-.8,1.4.3.4.4.6.6.8.9-1.3,1.1-1.7,1.2-2.2l.7.4c-.1.2-.2.2-.4.6-.5.9-1.2,1.9-2.1,3,.7,0,1.2,0,1.7-.1-.1-.4-.2-.5-.5-1.1l.5-.2c.4.8.6,1.3.9,2.3l-.6.2c0-.3,0-.4-.2-.7q0,0-.3,0c0,0-.2,0-.6,0v3.8c0,.7,0,1,0,1.4h-.8c0-.3,0-.7,0-1.4v-3.7q-.4,0-1,0c-.3,0-.4,0-.7,0v-.8ZM249.9,69.6c.3,1,.3,1.5.5,2.4l-.6.2c-.1-1.1-.2-1.6-.4-2.4h.6ZM253.5,69.7c0-.4,0-.5,0-.7-.2,0-.5,0-.8,0h-1.2c-.4,0-.6,0-.8,0,0-.2,0-.5,0-.8v-.8c0-.3,0-.6,0-.8.2,0,.5,0,.9,0h1.1c.4,0,.7,0,.9,0,0,.3,0,.5,0,.8v.9c0,.3,0,.6,0,.7h.7c0-.2,0-.4,0-.7v-.9c0-.4,0-.6,0-.8.2,0,.4,0,.8,0h1.4c.3,0,.6,0,.7,0,0,.2,0,.4,0,.7v1c0,.3,0,.5,0,.7-.2,0-.5,0-.8,0h-1.4c-.3,0-.5,0-.7,0,0,.2,0,.3,0,.7v.2h2.1c.5,0,.9,0,1.2,0v.7c-.3,0-.7,0-1.2,0h-1.7c.3.4.5.6.9.9.8.6,1.3.9,2.3,1.3-.2.3-.3.4-.4.7-.9-.4-1.3-.7-2-1.2-.5-.4-.8-.7-1.2-1.3,0,.4,0,.8,0,1.2v.9c0,.6,0,.9,0,1.2h-.8c0-.3,0-.7,0-1.2v-.9c0-.4,0-.7,0-1.2-.4.6-.5.8-1,1.2-.6.6-1,.9-2,1.5-.2-.3-.3-.4-.5-.6,1-.5,1.6-.9,2.3-1.6.2-.2.4-.4.7-.8h-1.5c-.5,0-.9,0-1.2,0v-.7c.3,0,.6,0,1.2,0h1.8v-.2ZM251.3,68.4h1.6v-1.2h-1.6v1.2ZM251.6,64.2c0-.3,0-.6,0-.8.3,0,.6,0,1,0h2.5c.6,0,.9,0,1.1,0,0,.2,0,.4,0,.8v1c0,.3,0,.6,0,.8-.3,0-.6,0-1,0h-2.6c-.6,0-.7,0-1,0,0-.2,0-.5,0-.8v-.9ZM252.3,65.4h3.1v-1.3h-3.1v1.3ZM254.7,68.4h1.7v-1.2h-1.7v1.2Z"/>
    <path d="M261.1,63.5c0,.3-.2.6-.3,1.2-.2,1.2-.4,2.5-.4,3.1h0q0,0,0-.3c.1-.7.4-1.2.7-1.8.7-1,1.5-1.5,2.4-1.5s1.5.4,1.9,1.1c.5.7.7,1.6.7,2.9,0,2.2-1,3.8-2.8,4.7-.6.3-1.3.5-2.1.7-.1-.4-.2-.5-.5-.8,1.1-.2,1.7-.4,2.4-.8,1.4-.8,2.1-2.1,2.1-4s-.7-3-1.8-3-1.7.7-2.4,2.1c-.4.9-.6,1.8-.6,2.7s0,.1,0,.3h-.9c0,0,0-.3,0-.3v-1.2c0-.1,0-.2,0-.3,0-1.2.1-2.3.4-4.4,0-.2,0-.2,0-.4h.9Z"/>
    <path d="M268.6,67.9c.3,0,.5,0,.9,0h.6c.3,0,.6,0,.9,0,0,.4,0,.7,0,1.3v2.4c.3.6.6.9,1.1,1.1.6.3,1.3.3,2.7.3,2.2,0,3.7,0,4.8-.2-.2.4-.2.5-.3.9-1.2,0-2.6,0-3.5,0-2,0-2.8,0-3.4-.2-.8-.2-1.3-.6-1.7-1.3-.5.6-.8.8-1.5,1.3,0,0-.2.2-.4.4l-.4-.8c.5-.2,1.3-.8,1.9-1.5v-2.9h-.8c-.4,0-.6,0-.9,0v-.8ZM269.5,63.5c.8.8,1.3,1.3,1.9,2.1l-.6.5c-.7-1-1-1.4-1.9-2.2l.6-.5ZM273.4,66.9c0,1.5-.2,2.4-.5,3.4-.2.7-.4,1.2-.8,1.8-.2-.2-.3-.4-.6-.6.9-1.2,1.2-3,1.2-6.6s0-1,0-1.3c.3,0,.6,0,1.2,0h4.1c.5,0,.9,0,1.2,0v.8c-.4,0-.7,0-1.2,0h-4.5c0,.8,0,1.1,0,1.8h3.8c.5,0,.8,0,1,0l.4.4c0,.2-.2.3-.3.7-.5,1.1-1,1.9-1.7,2.6.8.7,1.5,1.1,2.7,1.6-.2.2-.3.5-.4.7-1.2-.5-2-1-2.8-1.8-.9.9-1.5,1.3-2.7,1.8-.2-.3-.3-.4-.5-.6,1.2-.5,1.9-1,2.7-1.7-.9-1-1.4-1.8-1.8-3h-.4ZM274.6,66.9c.4,1,.8,1.7,1.6,2.5.7-.8,1.2-1.5,1.6-2.5h-3.1Z"/>
    <path d="M282.9,63.7c0,.4-.1,1-.2,2.5,0,1.4,0,3.1,0,3.6s0,.4,0,.7c0,.7.2,1.1.6,1.4.3.3.9.5,1.5.5,1.4,0,2.5-.7,3.2-2.1.3-.6.4-1,.6-1.9.3.3.5.4.9.6-.5,1.4-.8,2.1-1.3,2.7-.9,1-2,1.5-3.4,1.5s-1.8-.3-2.3-.8c-.5-.6-.7-1.2-.7-2.5s0-1.1.1-4.9c0-.4,0-.6,0-.8s0-.4,0-.6h1Z"/>
    <path d="M294.7,64.9c.5,0,.7,0,.9,0,0,.3,0,.4-.1.9-.2,1.7-.7,3.4-1.4,4.7,1,1.7,2.4,2.3,5.6,2.3s1.4,0,2.3-.1c-.2.3-.2.5-.3.9-.5,0-1.6,0-2.1,0-1.3,0-2.7-.2-3.5-.5-.9-.3-1.7-.9-2.3-2-.7,1.1-1.3,1.8-2.5,2.9-.2-.3-.3-.5-.5-.7,1.3-1,2-1.7,2.7-2.9-.3-.7-.6-1.6-1-2.8-.4.9-.5,1.2-1.1,2-.2-.3-.3-.4-.5-.6.8-1.1,1.2-2,1.6-3.4.2-.8.4-1.8.4-2.3s0,0,0-.2h.8c0,.3,0,.4-.2.8,0,.3,0,.5-.2,1h1.4ZM293.1,65.5c-.1.5-.2.7-.3,1,.3,1.5.5,2.2.9,3.2.6-1.2.8-2.3,1-4.1h-1.7ZM297.5,64.5c0,1.9,0,2.9-.2,4-.2,1.3-.6,2.1-1.3,3.1-.4-.4-.4-.4-.6-.6.7-.7,1-1.4,1.2-2.4.2-.9.3-2.1.3-3.7s0-.8,0-1c.2,0,.3,0,.8,0h1.3c.6,0,.9,0,1.1,0,0,.2,0,.6,0,1.1v5.4c0,.2,0,.3.5.3s.5,0,.6-.5c0-.4,0-.9.1-1.8.3.1.4.2.7.3-.2,2.6-.3,2.8-1.5,2.8s-1.2-.1-1.2-.7v-6.1h-1.6Z"/>
    <path d="M303.8,64.5c-.5,0-.6,0-.9,0v-.8c.3,0,.5,0,1,0h1.8c.5,0,.7,0,1,0v.8c-.3,0-.5,0-.9,0h-.6v2.8h.5c.3,0,.5,0,.8,0v.8c-.3,0-.5,0-.8,0h-.5v3c.6-.3.8-.3,1.4-.7v.8c-1.1.6-1.4.7-3.1,1.4-.3.1-.3.1-.5.2l-.2-.8c.4,0,.8-.2,1.7-.5v-3.3h-.6c-.3,0-.5,0-.8,0v-.8c.3,0,.4,0,.8,0h.6v-2.8h-.6ZM308.5,69c-.8,0-1.2,0-1.5,0,0-.2,0-.3,0-.4q0-.3,0-.9v-2.6c0-.8,0-1.2,0-1.5.4,0,.7,0,1.5,0h3.2c.8,0,1.2,0,1.5,0,0,.3,0,.8,0,1.5v2.4c0,.8,0,1.2,0,1.5-.4,0-.8,0-1.4,0h-1.4v1.4h1.8c.6,0,.9,0,1.2,0v.8c-.3,0-.6,0-1.2,0h-1.8v1.8h2.2c.6,0,.9,0,1.2,0v.8c-.3,0-.6,0-1.2,0h-5.4c-.6,0-.9,0-1.2,0v-.8c.3,0,.6,0,1.1,0h2.5v-1.8h-1.6c-.6,0-.8,0-1.2,0v-.8c.3,0,.6,0,1.2,0h1.6v-1.4h-1.2ZM307.8,64.3v1.7h1.9v-1.7h-1.9ZM307.8,66.7v1.7h1.9v-1.7h-1.9ZM310.4,66h2v-1.7h-2v1.7ZM310.4,68.4h2v-1.7h-2v1.7Z"/>
    <path d="M318.7,74.1c-.9-1-1.3-1.6-1.7-2.6-.4-1-.6-1.9-.6-3s.2-2,.6-3c.4-1,.8-1.5,1.7-2.6h1.1c-1,1-1.4,1.6-1.8,2.5-.4,1-.6,2-.6,3s.2,2.1.6,3c.4.9.8,1.5,1.8,2.5h-1.1Z"/>
    <path d="M326.5,73c0-.3-.1-.6-.2-.9l-1.2-3.5c0,0,0-.3-.2-.8,0,.3-.2.7-.2.8l-1.2,3.5c-.1.3-.2.7-.3.9h-.8c0-.3,0-.3-.3-.9l-1.3-4.1c-.1-.4-.3-1-.5-1.4h1.1c0,.4.1.8.3,1.3l.9,3c0,.2.1.5.2.9,0-.3.2-.8.3-.9l1.1-3.4c.1-.4.2-.7.2-.9h.8c0,.2.1.6.2.9l1.2,3.5c0,.1.1.4.2.5q0,.2,0,.3c.1-.5.2-.7.2-.8l.9-3c.2-.5.2-1,.3-1.3h1.1c0,.3-.3.7-.5,1.4l-1.3,4.1c-.2.5-.2.7-.3.9h-.8Z"/>
    <path d="M330.3,73c0-.4,0-.8,0-1.4v-6.4c0-.6,0-.9,0-1.4h1.1c0,.4,0,.8,0,1.4v2c0,.2,0,.3,0,.6.2-.4.4-.6.7-.8.5-.4,1.1-.6,1.8-.6,1.4,0,2.2.8,2.2,2.2v3c0,.6,0,.9,0,1.3h-1.1c0-.4,0-.8,0-1.4v-2.8c0-1-.5-1.6-1.5-1.6s-1.2.3-1.7.9c-.3.4-.5.8-.6,1.3v2.3c0,.5,0,.9,0,1.4h-1.1Z"/>
    <path d="M338.9,63.9v1.1h-1.2v-1.1h1.2ZM338.8,66.5c0,.4,0,.8,0,1.4v3.8c0,.6,0,.9,0,1.4h-1.1c0-.5,0-.9,0-1.4v-3.8c0-.6,0-.9,0-1.4h1.1Z"/>
    <path d="M341.7,63.9c0,.4,0,.8,0,1.4v6.4c0,.5,0,.9,0,1.3h-1.1c0-.4,0-.8,0-1.3v-6.4c0-.6,0-.9,0-1.3h1.1Z"/>
    <path d="M344,69.9c0,.8.2,1.2.5,1.7.4.5,1,.8,1.7.8s1.6-.5,2-1.4l.8.3c-.2.5-.4.7-.7,1-.6.6-1.3.8-2.2.8-1.9,0-3.1-1.3-3.1-3.4s1.2-3.4,3-3.4,2.7,1,2.9,2.6c0,.1,0,.6,0,.9h-5ZM348.1,69.2c0-.7-.3-1.1-.6-1.5-.4-.4-.8-.5-1.4-.5s-1.3.4-1.7,1c-.2.3-.2.5-.3,1h4.1Z"/>
    <path d="M354.2,63.5c0,.2,0,.3-.2.8,0,.4-.2.7-.3,1.3.8,0,1.6-.2,2.1-.4v.8q0,0-.4,0c-.5.1-1.2.2-2,.3-.4,1.3-.8,2.4-1.3,3.5-.3.6-.4.8-.9,1.6-.1.2-.2.3-.2.4l-.8-.5c.4-.5.7-1,1.2-1.9.6-1.1.9-2,1.2-3.1-.3,0-.7,0-.9,0s-.6,0-.8,0c-.1,0-.2,0-.3,0h-.2v-.8c.4,0,.8,0,1.4,0s.6,0,.9,0c.2-.7.4-1.7.4-2.3h.9ZM359.9,72.8c-.5-.6-1.2-1.2-2.1-1.6,0,.2,0,.3,0,.4,0,1.2-.8,1.9-2.3,1.9s-2.3-.7-2.3-1.7.4-1.2,1.1-1.5c.4-.2.9-.3,1.4-.3s.7,0,1.2.2c0-.8,0-1.3,0-1.6,0-.4,0-.7.1-1.2h.8c-.1.5-.2.8-.2,1.2s0,1.4.1,1.8c1,.4,1.7.9,2.4,1.5q.1.1.2.2l-.4.8ZM355.6,70.6c-1,0-1.7.4-1.7,1.1s.6,1,1.5,1,1.5-.4,1.5-1.3,0-.5,0-.5c-.5-.2-.9-.2-1.3-.2ZM359.9,67.4c-1-.7-1.9-1.2-3.2-1.6l.4-.7c1.4.6,2.2,1,3.2,1.6l-.4.7Z"/>
    <path d="M364.5,63.6c0,.6.6,3.1.9,4,.7-.3,1.1-.4,2.9-1.1.4-.2.5-.2.8-.3l.4.9c-.8.2-2.6.7-3.6,1.2-2.1.8-2.9,1.6-2.9,2.6s.9,1.5,3.3,1.5,2.7-.2,3.4-.4v1c0,0-.1,0-.3,0h-.1s-.4,0-.4,0c-1.2.1-1.8.2-2.7.2s-2.1-.1-2.7-.3c-1-.4-1.5-1-1.5-2s.4-1.5,1.1-2c.5-.4.8-.6,1.6-1-.3-.9-.6-1.8-.9-3.3-.1-.5-.1-.6-.2-.8l.9-.2ZM368.6,63.4c.5.6.9,1.2,1.2,1.9l-.6.4c-.3-.6-.9-1.5-1.2-1.9l.6-.3ZM369.9,62.7c.6.7.9,1.1,1.2,1.9l-.6.3c-.3-.6-.8-1.3-1.2-1.9l.6-.3Z"/>
    <path d="M371.7,74.1c1-1,1.4-1.6,1.8-2.5.4-1,.6-2,.6-3s-.2-2.1-.6-3c-.4-.9-.8-1.5-1.8-2.5h1.1c.9,1,1.3,1.6,1.7,2.6.4,1,.6,1.9.6,3s-.2,2-.6,3c-.4,1-.8,1.5-1.7,2.6h-1.1Z"/>
  </g>
  <g>
    <line x1="310.4" y1="172.1" x2="310.4" y2="203.9"/>
    <g>
      <line class="st3" x1="310.4" y1="172.1" x2="310.4" y2="196.7"/>
      <polygon points="305.4 195.3 310.4 203.9 315.3 195.3 305.4 195.3"/>
    </g>
  </g>
  <g>
    <line x1="310.4" y1="27.3" x2="310.4" y2="59"/>
    <g>
      <line class="st3" x1="310.4" y1="27.3" x2="310.4" y2="51.9"/>
      <polygon points="305.4 50.4 310.4 59 315.3 50.4 305.4 50.4"/>
    </g>
  </g>
  <g>
    <path d="M312.7,129.6l-1.9.3c0-.4-.2-.7-.4-.9s-.5-.3-.9-.3-.9.2-1.1.5-.4.9-.4,1.7.1,1.5.4,1.8.7.5,1.2.5.7-.1.9-.3.4-.6.5-1.1l1.9.3c-.2.9-.6,1.5-1.1,2s-1.3.7-2.2.7-1.9-.3-2.5-1-.9-1.6-.9-2.8.3-2.1,1-2.8,1.5-1,2.6-1,1.6.2,2.1.6.9,1,1.1,1.7Z"/>
    <path d="M313.7,131c0-.6.2-1.3.5-1.9s.8-1.1,1.3-1.4,1.2-.5,1.9-.5c1.1,0,2,.4,2.7,1.1s1.1,1.6,1.1,2.7-.4,2-1.1,2.7-1.6,1.1-2.7,1.1-1.3-.2-1.9-.5-1.1-.7-1.4-1.3-.5-1.3-.5-2.1ZM315.7,131.1c0,.7.2,1.3.5,1.7s.8.6,1.3.6.9-.2,1.3-.6.5-.9.5-1.7-.2-1.3-.5-1.6-.8-.6-1.3-.6-.9.2-1.3.6-.5.9-.5,1.7Z"/>
    <path d="M329.3,134.7h-1.9v-3.7c0-.8,0-1.3-.1-1.5s-.2-.4-.4-.5-.4-.2-.7-.2-.6,0-.9.3-.4.4-.5.7-.1.9-.1,1.7v3.3h-1.9v-7.3h1.8v1.1c.6-.8,1.4-1.2,2.4-1.2s.8,0,1.2.2.6.3.8.6.3.5.4.8.1.7.1,1.3v4.5Z"/>
    <path d="M334.6,127.5v1.5h-1.3v2.9c0,.6,0,.9,0,1s0,.2.2.2.2,0,.3,0,.4,0,.8-.2l.2,1.5c-.4.2-1,.3-1.5.3s-.7,0-.9-.2-.5-.3-.6-.5-.2-.4-.3-.7c0-.2,0-.7,0-1.4v-3.2h-.9v-1.5h.9v-1.4l1.9-1.1v2.6h1.3Z"/>
    <path d="M335.9,126.5v-1.8h1.9v1.8h-1.9ZM335.9,134.7v-7.3h1.9v7.3h-1.9Z"/>
    <path d="M346.4,134.7h-1.9v-3.7c0-.8,0-1.3-.1-1.5s-.2-.4-.4-.5-.4-.2-.7-.2-.6,0-.9.3-.4.4-.5.7-.1.9-.1,1.7v3.3h-1.9v-7.3h1.8v1.1c.6-.8,1.4-1.2,2.4-1.2s.8,0,1.2.2.6.3.8.6.3.5.4.8.1.7.1,1.3v4.5Z"/>
    <path d="M353.1,134.7v-1.1c-.3.4-.6.7-1,.9s-.9.3-1.4.3-.9-.1-1.3-.3-.7-.5-.8-.9-.3-.9-.3-1.6v-4.6h1.9v3.3c0,1,0,1.6.1,1.9s.2.4.4.5.4.2.7.2.6,0,.9-.3.4-.4.5-.7.1-.9.1-2v-3.1h1.9v7.3h-1.8Z"/>
    <path d="M361.1,132.4l1.9.3c-.2.7-.6,1.2-1.2,1.6-.5.4-1.2.6-2,.6-1.3,0-2.2-.4-2.8-1.2-.5-.7-.7-1.5-.7-2.5s.3-2.1.9-2.8,1.4-1,2.4-1,1.9.4,2.6,1.1c.6.7.9,1.8.9,3.3h-4.8c0,.6.2,1,.5,1.3s.7.5,1.1.5.6,0,.8-.2.4-.4.5-.8ZM361.2,130.5c0-.6-.2-1-.4-1.3s-.6-.4-1-.4-.8.2-1,.5-.4.7-.4,1.2h2.9Z"/>
  </g>
  <g>
    <line class="st7" x1="264.9" y1="76.6" x2="264.9" y2="170.1"/>
    <g>
      <line class="st2" x1="264.9" y1="76.6" x2="264.9" y2="79.1"/>
      <line class="st4" x1="264.9" y1="84.1" x2="264.9" y2="161.5"/>
      <line class="st2" x1="264.9" y1="164" x2="264.9" y2="166.5"/>
      <polygon points="262.4 165.8 264.9 170.1 267.4 165.8 262.4 165.8"/>
    </g>
  </g>
  <g>
    <path d="M288,113.4v.8h-.9v-.8h.9ZM288,115.4c0,.3,0,.6,0,1v2.8c0,.4,0,.7,0,1h-.8c0-.4,0-.6,0-1v-2.8c0-.4,0-.7,0-1h.8Z"/>
    <path d="M289.6,116c-.3,0-.5,0-.8,0v-.7c.2,0,.5,0,.8,0h.4v-.5c0-.5,0-.8.3-1.1.2-.3.6-.4,1.1-.4s.6,0,1,.2l-.2.6c-.2-.1-.5-.2-.7-.2s-.5,0-.6.2c0,.1-.1.3-.1.8v.5h.5c.4,0,.6,0,1,0v.7c-.3,0-.5,0-1,0h-.5v3.3c0,.4,0,.7,0,1h-.8c0-.3,0-.6,0-1v-3.3h-.4Z"/>
    <path d="M294.8,121.8c-.5-.8-.7-1.2-1-1.9-.2-.7-.4-1.5-.4-2.3s.1-1.6.4-2.3c.2-.6.4-1.1,1-1.9l.6.4c-.5.8-.7,1.2-.9,1.8-.2.6-.3,1.3-.3,2s0,1.4.3,2c.2.6.4,1,.9,1.8l-.6.4Z"/>
    <path d="M296.5,114.2c.4.1.9.1,1.7.1s0,0,.2,0q0-.2,0-.7c0,0,0-.5,0-.5s0,0,0-.1h.7c0,.3-.1.6-.2,1.3,1.5,0,2.7-.3,3.4-.5v.6c0,0-.1,0-.3,0-1,.2-2.4.3-3.2.4q0,.8,0,1.2c.5-.1.9-.2,1.3-.2s.3,0,.5,0c.1-.3.2-.5.2-.8l.6.2c0,0-.1.3-.3.7,1.2.3,1.9,1.1,1.9,2.1s-.5,1.6-1.4,2.1c-.5.3-1,.4-1.8.5,0-.3-.1-.4-.3-.6.5,0,.9,0,1.4-.2,1-.3,1.5-1,1.5-1.8s-.5-1.3-1.5-1.6c-.5,1.2-1,2-1.7,2.7-.7.7-1.4,1.1-2,1.1s-1.2-.6-1.2-1.4.8-2.1,2.1-2.7c0-.7,0-.7,0-1.4h-.4c0,0-.5,0-1.2,0,0,0-.1,0-.2,0,0,0,0,0-.1,0v-.6ZM297.4,117.5c-.4.4-.5.9-.5,1.3s.3.8.6.8.6-.1,1-.5c-.1-.7-.2-1.4-.2-2.4-.4.2-.7.5-1,.7ZM299,118.9c0-.1,0-.2.2-.2.6-.7,1-1.3,1.4-2.3-.3,0-.3,0-.4,0-.4,0-.8,0-1.3.2,0,1.2,0,1.3,0,2.1,0,0,0,0,0,.1h0c0,0,0,.1,0,.1Z"/>
    <path d="M305.5,113.6c.3,0,.4,0,.8,0,.7,0,1.9,0,2.8-.1.2,0,.3,0,.4,0l.4.5c-.1,0-.2,0-.5.4-1.2,1.2-2.3,2.2-3,2.6h0c.7-.3,1.4-.5,2.2-.5,1.5,0,2.5.7,2.5,1.9s-1.3,2.3-3.3,2.3-2-.5-2-1.3.6-1.1,1.3-1.1,1.1.3,1.5.7c.2.3.3.5.4.9.9-.3,1.4-.8,1.4-1.6s-.7-1.4-1.9-1.4-2.7.6-3.8,1.5l-.4-.6c.3-.2.6-.4,1.3-.9,1-.8,2.4-2,3-2.6h.1c0-.1,0-.1,0-.2h0s0,0,0,0t0,0c-.3,0-1.4.1-2.7.2-.2,0-.3,0-.5,0v-.7ZM307.2,118.8c-.5,0-.7.2-.7.6s.1.4.4.5c.2.1.6.2,1,.2s.3,0,.7,0c-.2-.8-.6-1.3-1.3-1.3Z"/>
    <path d="M318.7,113.8s0,0-.1.1c-.6.7-1.1,1.1-1.7,1.5,1.1.5,2.1.9,3.6,1.1-.1.2-.2.3-.3.5-1.1-.2-1.9-.4-2.7-.8-.4-.1-.6-.3-1-.5-.4.2-.7.4-1.1.6-.9.4-1.4.6-2.6.8,0-.2-.1-.3-.3-.5,1.4-.2,2.5-.6,3.5-1.2-.5-.3-.7-.6-1.2-1.1-.6.5-1,.8-1.7,1.2,0-.2-.2-.3-.4-.4.7-.3,1.2-.6,1.7-1,.5-.4.8-.9,1.1-1.4l.6.2c-.1.1-.2.3-.5.6h2c.4,0,.6,0,.8,0l.3.4ZM319.3,117.5c.5,0,.7,0,1,0v.6c-.3,0-.6,0-1,0h-2.3c.3.4.6.6,1,.9.8.6,1.5.9,2.5,1.3-.2.2-.2.3-.4.6-1-.4-1.6-.8-2.3-1.3-.5-.4-.7-.6-1.2-1.1,0,.3,0,.6,0,.8v1.1c0,.5,0,.6,0,.9h-.6c0-.3,0-.4,0-.9v-1.1c0-.2,0-.5,0-.8-.5.6-.8.9-1.3,1.2-.5.4-1.2.8-2,1.2,0-.2-.2-.4-.3-.5,1.4-.5,2.4-1.2,3.3-2.1h-2.1c-.4,0-.7,0-1,0v-.6c.2,0,.5,0,.9,0h2.6v-.4c0-.3,0-.4,0-.6h.6c0,.2,0,.3,0,.6v.4h2.6ZM315.1,114c.5.5.8.8,1.3,1.1.5-.4.9-.6,1.4-1.2h-2.7Z"/>
    <path d="M322.4,117c0-.4,0-.7,0-1.1-.3.6-.5.9-1,1.4-.1-.3-.1-.3-.4-.5.8-.9,1.3-1.8,1.7-2.8.2-.5.3-.9.3-1.2l.6.2c0,.1,0,.2-.1.4-.2.7-.4,1.1-.7,1.7v4.9c0,.4,0,.7,0,1.1h-.7c0-.4,0-.6,0-1.1v-3ZM326.3,113.9c0-.4,0-.6,0-.9h.7c0,.3,0,.5,0,.9v1h1.3c.4,0,.7,0,.9,0v.6c-.3,0-.6,0-.9,0h-1.3v2h1.7c.4,0,.7,0,.9,0v.6c-.3,0-.6,0-.9,0h-1.7v2.2c0,.4,0,.6,0,.9h-.7c0-.3,0-.6,0-.9v-2.2h-1.8c-.4,0-.7,0-.9,0v-.6c.2,0,.5,0,.9,0h1.8v-2h-1.5c-.3.6-.5.9-.8,1.4-.1-.1-.3-.2-.5-.4.5-.6.8-1.2,1.1-2,.2-.5.3-.8.3-1.2l.6.2c0,.2,0,.2-.2.5-.1.4-.2.6-.3.9h1.3v-1Z"/>
    <path d="M330.7,113.3c.5.8.7,1.2,1,1.9.3.7.4,1.5.4,2.3s-.1,1.6-.4,2.3c-.2.6-.4,1.1-1,1.9l-.6-.4c.5-.8.7-1.2.9-1.8.2-.6.3-1.3.3-2s0-1.4-.3-2c-.2-.6-.4-1-.9-1.8l.6-.4Z"/>
    <path d="M334.6,116.3h-.9v-.9h.9v.9ZM333.7,120.3v-.9h.9v.9h-.9Z"/>
  </g>
  <g>
    <polyline class="st3" points="367.3 130.9 402.4 130.9 402.4 87.2 276.1 87.2"/>
    <polygon points="277.6 82.2 268.9 87.2 277.6 92.2 277.6 82.2"/>
  </g>
  <g>
    <line class="st7" x1="68.8" y1="116.9" x2="89.4" y2="116.9"/>
    <g>
      <line class="st2" x1="68.8" y1="116.9" x2="71.3" y2="116.9"/>
      <line class="st1" x1="75.3" y1="116.9" x2="81.3" y2="116.9"/>
      <line class="st2" x1="83.3" y1="116.9" x2="85.8" y2="116.9"/>
      <polygon points="85.1 119.4 89.4 116.9 85.1 114.4 85.1 119.4"/>
    </g>
  </g>
  <g>
    <line class="st7" x1="264.9" y1="116.9" x2="286.2" y2="116.9"/>
    <g>
      <line class="st2" x1="264.9" y1="116.9" x2="267.4" y2="116.9"/>
      <line class="st5" x1="271.6" y1="116.9" x2="278" y2="116.9"/>
      <line class="st2" x1="280.1" y1="116.9" x2="282.6" y2="116.9"/>
      <polygon points="281.8 119.4 286.2 116.9 281.8 114.4 281.8 119.4"/>
    </g>
  </g>
  <rect class="st0" x="435.5" y="6.8" width="142.6" height="20.5"/>
  <rect class="st0" x="435.5" y="59" width="142.6" height="113.1"/>
  <g>
    <path d="M497.6,13c.5,0,.7,0,.9,0,0,.3,0,.4-.1.9-.2,1.7-.7,3.4-1.4,4.7,1,1.7,2.4,2.3,5.6,2.3s1.4,0,2.3-.1c-.2.3-.2.5-.3.9-.5,0-1.6,0-2.1,0-1.3,0-2.7-.2-3.5-.5-.9-.3-1.7-.9-2.3-2-.7,1.1-1.3,1.8-2.5,2.9-.2-.3-.3-.5-.5-.7,1.3-1,2-1.7,2.7-2.9-.3-.7-.6-1.6-1-2.8-.4.9-.5,1.2-1.1,2-.2-.3-.3-.4-.5-.6.8-1.1,1.2-2,1.6-3.4.2-.8.4-1.8.4-2.3s0,0,0-.2h.8c0,.3,0,.4-.2.8,0,.3,0,.5-.2,1h1.4ZM496,13.7c-.1.5-.2.7-.3,1,.3,1.5.5,2.2.9,3.2.6-1.2.8-2.3,1-4.1h-1.7ZM500.4,12.7c0,1.9,0,2.9-.2,4-.2,1.3-.6,2.1-1.3,3.1-.4-.4-.4-.4-.6-.6.7-.7,1-1.4,1.2-2.4.2-.9.3-2.1.3-3.7s0-.8,0-1c.2,0,.3,0,.8,0h1.3c.6,0,.9,0,1.1,0,0,.2,0,.6,0,1.1v5.4c0,.2,0,.3.5.3s.5,0,.6-.5c0-.4,0-.9.1-1.8.3.1.4.2.7.3-.2,2.6-.3,2.8-1.5,2.8s-1.2-.1-1.2-.7v-6.1h-1.6Z"/>
    <path d="M506.7,12.6c-.5,0-.6,0-.9,0v-.8c.3,0,.5,0,1,0h1.8c.5,0,.7,0,1,0v.8c-.3,0-.5,0-.9,0h-.6v2.8h.5c.3,0,.5,0,.8,0v.8c-.3,0-.5,0-.8,0h-.5v3c.6-.3.8-.3,1.4-.7v.8c-1.1.6-1.4.7-3.1,1.4-.3.1-.3.1-.5.2l-.2-.8c.4,0,.8-.2,1.7-.5v-3.3h-.6c-.3,0-.5,0-.8,0v-.8c.3,0,.4,0,.8,0h.6v-2.8h-.6ZM511.4,17.2c-.8,0-1.2,0-1.5,0,0-.2,0-.3,0-.4q0-.3,0-.9v-2.6c0-.8,0-1.2,0-1.5.4,0,.7,0,1.5,0h3.2c.8,0,1.2,0,1.5,0,0,.3,0,.8,0,1.5v2.4c0,.8,0,1.2,0,1.5-.4,0-.8,0-1.4,0h-1.4v1.4h1.8c.6,0,.9,0,1.2,0v.8c-.3,0-.6,0-1.2,0h-1.8v1.8h2.2c.6,0,.9,0,1.2,0v.8c-.3,0-.6,0-1.2,0h-5.4c-.6,0-.9,0-1.2,0v-.8c.3,0,.6,0,1.1,0h2.5v-1.8h-1.6c-.6,0-.8,0-1.2,0v-.8c.3,0,.6,0,1.2,0h1.6v-1.4h-1.2ZM510.7,12.5v1.7h1.9v-1.7h-1.9ZM510.7,14.9v1.7h1.9v-1.7h-1.9ZM513.4,14.2h2v-1.7h-2v1.7ZM513.4,16.6h2v-1.7h-2v1.7Z"/>
    <path d="M519.1,12c.3,0,.5,0,1,0h.8c.4,0,.6,0,1,0,0,.7-.1,1.3-.1,2v5.8c0,.6,0,.9,0,1.4h-1.1c0-.4,0-.8,0-1.4v-6.9h-.6c-.4,0-.7,0-1,0v-.9Z"/>
  </g>
  <rect class="st0" x="435.5" y="204.3" width="142.6" height="20.5"/>
  <g>
    <path d="M497.6,210.5c.5,0,.7,0,.9,0,0,.3,0,.4-.1.9-.2,1.7-.7,3.4-1.4,4.7,1,1.7,2.4,2.3,5.6,2.3s1.4,0,2.3-.1c-.2.3-.2.5-.3.9-.5,0-1.6,0-2.1,0-1.3,0-2.7-.2-3.5-.5-.9-.3-1.7-.9-2.3-2-.7,1.1-1.3,1.8-2.5,2.9-.2-.3-.3-.5-.5-.7,1.3-1,2-1.7,2.7-2.9-.3-.7-.6-1.6-1-2.8-.4.9-.5,1.2-1.1,2-.2-.3-.3-.4-.5-.6.8-1.1,1.2-2,1.6-3.4.2-.8.4-1.8.4-2.3s0,0,0-.2h.8c0,.3,0,.4-.2.8,0,.3,0,.5-.2,1h1.4ZM496,211.2c-.1.5-.2.7-.3,1,.3,1.5.5,2.2.9,3.2.6-1.2.8-2.3,1-4.1h-1.7ZM500.4,210.2c0,1.9,0,2.9-.2,4-.2,1.3-.6,2.1-1.3,3.1-.4-.4-.4-.4-.6-.6.7-.7,1-1.4,1.2-2.4.2-.9.3-2.1.3-3.7s0-.8,0-1c.2,0,.3,0,.8,0h1.3c.6,0,.9,0,1.1,0,0,.2,0,.6,0,1.1v5.4c0,.2,0,.3.5.3s.5,0,.6-.5c0-.4,0-.9.1-1.8.3.1.4.2.7.3-.2,2.6-.3,2.8-1.5,2.8s-1.2-.1-1.2-.7v-6.1h-1.6Z"/>
    <path d="M506.7,210.2c-.5,0-.6,0-.9,0v-.8c.3,0,.5,0,1,0h1.8c.5,0,.7,0,1,0v.8c-.3,0-.5,0-.9,0h-.6v2.8h.5c.3,0,.5,0,.8,0v.8c-.3,0-.5,0-.8,0h-.5v3c.6-.3.8-.3,1.4-.7v.8c-1.1.6-1.4.7-3.1,1.4-.3.1-.3.1-.5.2l-.2-.8c.4,0,.8-.2,1.7-.5v-3.3h-.6c-.3,0-.5,0-.8,0v-.8c.3,0,.4,0,.8,0h.6v-2.8h-.6ZM511.4,214.7c-.8,0-1.2,0-1.5,0,0-.2,0-.3,0-.4q0-.3,0-.9v-2.6c0-.8,0-1.2,0-1.5.4,0,.7,0,1.5,0h3.2c.8,0,1.2,0,1.5,0,0,.3,0,.8,0,1.5v2.4c0,.8,0,1.2,0,1.5-.4,0-.8,0-1.4,0h-1.4v1.4h1.8c.6,0,.9,0,1.2,0v.8c-.3,0-.6,0-1.2,0h-1.8v1.8h2.2c.6,0,.9,0,1.2,0v.8c-.3,0-.6,0-1.2,0h-5.4c-.6,0-.9,0-1.2,0v-.8c.3,0,.6,0,1.1,0h2.5v-1.8h-1.6c-.6,0-.8,0-1.2,0v-.8c.3,0,.6,0,1.2,0h1.6v-1.4h-1.2ZM510.7,210v1.7h1.9v-1.7h-1.9ZM510.7,212.4v1.7h1.9v-1.7h-1.9ZM513.4,211.7h2v-1.7h-2v1.7ZM513.4,214.1h2v-1.7h-2v1.7Z"/>
    <path d="M519.2,218.7c-.8,0-.9,0-1.3,0,.1-.9.2-1.1.3-1.6.3-.8.8-1.4,1.6-2.1.4-.4.4-.4,1.8-1.3,1.2-.8,1.6-1.3,1.6-2.1s-.8-1.5-2-1.5-1.4.3-1.7.8c-.2.3-.3.6-.4,1.2l-1-.2c.2-.9.4-1.3.8-1.7.5-.6,1.4-.9,2.4-.9,1.8,0,3,.9,3,2.3s-.2,1.2-.7,1.7c-.4.4-.7.6-2,1.5-.9.6-1.3,1-1.7,1.5-.4.5-.5.8-.7,1.4h3.8c.6,0,1,0,1.5,0v1c-.5,0-.9,0-1.5,0h-3.6Z"/>
  </g>
  <g>
    <path d="M444.1,69.8c-.2,1.8-.3,2.5-.6,3.5l-.6-.3c.4-1,.5-1.8.6-3.3h.6ZM442.9,68.3c.2,0,.3,0,.5,0s0,0,.3,0q.5-.7.9-1.2c-.4-.6-.8-1.1-1.6-1.9l.4-.5c.2.2.3.3.5.5.5-.8.9-1.7,1-2.2l.8.3q-.2.2-.5.9c-.2.4-.6,1-.8,1.4.3.4.4.6.6.8.9-1.3,1.1-1.7,1.2-2.2l.7.4c-.1.2-.2.2-.4.6-.5.9-1.2,1.9-2.1,3,.7,0,1.2,0,1.7-.1-.1-.4-.2-.5-.5-1.1l.5-.2c.4.8.6,1.3.9,2.3l-.6.2c0-.3,0-.4-.2-.7q0,0-.3,0c0,0-.2,0-.6,0v3.8c0,.7,0,1,0,1.4h-.8c0-.3,0-.7,0-1.4v-3.7q-.4,0-1,0c-.3,0-.4,0-.7,0v-.8ZM446.4,69.6c.3,1,.3,1.5.5,2.4l-.6.2c-.1-1.1-.2-1.6-.4-2.4h.6ZM449.9,69.7c0-.4,0-.5,0-.7-.2,0-.5,0-.8,0h-1.2c-.4,0-.6,0-.8,0,0-.2,0-.5,0-.8v-.8c0-.3,0-.6,0-.8.2,0,.5,0,.9,0h1.1c.4,0,.7,0,.9,0,0,.3,0,.5,0,.8v.9c0,.3,0,.6,0,.7h.7c0-.2,0-.4,0-.7v-.9c0-.4,0-.6,0-.8.2,0,.4,0,.8,0h1.4c.3,0,.6,0,.7,0,0,.2,0,.4,0,.7v1c0,.3,0,.5,0,.7-.2,0-.5,0-.8,0h-1.4c-.3,0-.5,0-.7,0,0,.2,0,.3,0,.7v.2h2.1c.5,0,.9,0,1.2,0v.7c-.3,0-.7,0-1.2,0h-1.7c.3.4.5.6.9.9.8.6,1.3.9,2.3,1.3-.2.3-.3.4-.4.7-.9-.4-1.3-.7-2-1.2-.5-.4-.8-.7-1.2-1.3,0,.4,0,.8,0,1.2v.9c0,.6,0,.9,0,1.2h-.8c0-.3,0-.7,0-1.2v-.9c0-.4,0-.7,0-1.2-.4.6-.5.8-1,1.2-.6.6-1,.9-2,1.5-.2-.3-.3-.4-.5-.6,1-.5,1.6-.9,2.3-1.6.2-.2.4-.4.7-.8h-1.5c-.5,0-.9,0-1.2,0v-.7c.3,0,.6,0,1.2,0h1.8v-.2ZM447.7,68.4h1.6v-1.2h-1.6v1.2ZM448,64.2c0-.3,0-.6,0-.8.3,0,.6,0,1,0h2.5c.6,0,.9,0,1.1,0,0,.2,0,.4,0,.8v1c0,.3,0,.6,0,.8-.3,0-.6,0-1,0h-2.6c-.6,0-.7,0-1,0,0-.2,0-.5,0-.8v-.9ZM448.7,65.4h3.1v-1.3h-3.1v1.3ZM451.2,68.4h1.7v-1.2h-1.7v1.2Z"/>
    <path d="M457.5,63.5c0,.3-.2.6-.3,1.2-.2,1.2-.4,2.5-.4,3.1h0q0,0,0-.3c.1-.7.4-1.2.7-1.8.7-1,1.5-1.5,2.4-1.5s1.5.4,1.9,1.1c.5.7.7,1.6.7,2.9,0,2.2-1,3.8-2.8,4.7-.6.3-1.3.5-2.1.7-.1-.4-.2-.5-.5-.8,1.1-.2,1.7-.4,2.4-.8,1.4-.8,2.1-2.1,2.1-4s-.7-3-1.8-3-1.7.7-2.4,2.1c-.4.9-.6,1.8-.6,2.7s0,.1,0,.3h-.9c0,0,0-.3,0-.3v-1.2c0-.1,0-.2,0-.3,0-1.2.1-2.3.4-4.4,0-.2,0-.2,0-.4h.9Z"/>
    <path d="M465.1,67.9c.3,0,.5,0,.9,0h.6c.3,0,.6,0,.9,0,0,.4,0,.7,0,1.3v2.4c.3.6.6.9,1.1,1.1.6.3,1.3.3,2.7.3,2.2,0,3.7,0,4.8-.2-.2.4-.2.5-.3.9-1.2,0-2.6,0-3.5,0-2,0-2.8,0-3.4-.2-.8-.2-1.3-.6-1.7-1.3-.5.6-.8.8-1.5,1.3,0,0-.2.2-.4.4l-.4-.8c.5-.2,1.3-.8,1.9-1.5v-2.9h-.8c-.4,0-.6,0-.9,0v-.8ZM465.9,63.5c.8.8,1.3,1.3,1.9,2.1l-.6.5c-.7-1-1-1.4-1.9-2.2l.6-.5ZM469.9,66.9c0,1.5-.2,2.4-.5,3.4-.2.7-.4,1.2-.8,1.8-.2-.2-.3-.4-.6-.6.9-1.2,1.2-3,1.2-6.6s0-1,0-1.3c.3,0,.6,0,1.2,0h4.1c.5,0,.9,0,1.2,0v.8c-.4,0-.7,0-1.2,0h-4.5c0,.8,0,1.1,0,1.8h3.8c.5,0,.8,0,1,0l.4.4c0,.2-.2.3-.3.7-.5,1.1-1,1.9-1.7,2.6.8.7,1.5,1.1,2.7,1.6-.2.2-.3.5-.4.7-1.2-.5-2-1-2.8-1.8-.9.9-1.5,1.3-2.7,1.8-.2-.3-.3-.4-.5-.6,1.2-.5,1.9-1,2.7-1.7-.9-1-1.4-1.8-1.8-3h-.4ZM471,66.9c.4,1,.8,1.7,1.6,2.5.7-.8,1.2-1.5,1.6-2.5h-3.1Z"/>
    <path d="M479.3,63.7c0,.4-.1,1-.2,2.5,0,1.4,0,3.1,0,3.6s0,.4,0,.7c0,.7.2,1.1.6,1.4.3.3.9.5,1.5.5,1.4,0,2.5-.7,3.2-2.1.3-.6.4-1,.6-1.9.3.3.5.4.9.6-.5,1.4-.8,2.1-1.3,2.7-.9,1-2,1.5-3.4,1.5s-1.8-.3-2.3-.8c-.5-.6-.7-1.2-.7-2.5s0-1.1.1-4.9c0-.4,0-.6,0-.8s0-.4,0-.6h1Z"/>
    <path d="M491.1,64.9c.5,0,.7,0,.9,0,0,.3,0,.4-.1.9-.2,1.7-.7,3.4-1.4,4.7,1,1.7,2.4,2.3,5.6,2.3s1.4,0,2.3-.1c-.2.3-.2.5-.3.9-.5,0-1.6,0-2.1,0-1.3,0-2.7-.2-3.5-.5-.9-.3-1.7-.9-2.3-2-.7,1.1-1.3,1.8-2.5,2.9-.2-.3-.3-.5-.5-.7,1.3-1,2-1.7,2.7-2.9-.3-.7-.6-1.6-1-2.8-.4.9-.5,1.2-1.1,2-.2-.3-.3-.4-.5-.6.8-1.1,1.2-2,1.6-3.4.2-.8.4-1.8.4-2.3s0,0,0-.2h.8c0,.3,0,.4-.2.8,0,.3,0,.5-.2,1h1.4ZM489.5,65.5c-.1.5-.2.7-.3,1,.3,1.5.5,2.2.9,3.2.6-1.2.8-2.3,1-4.1h-1.7ZM493.9,64.5c0,1.9,0,2.9-.2,4-.2,1.3-.6,2.1-1.3,3.1-.4-.4-.4-.4-.6-.6.7-.7,1-1.4,1.2-2.4.2-.9.3-2.1.3-3.7s0-.8,0-1c.2,0,.3,0,.8,0h1.3c.6,0,.9,0,1.1,0,0,.2,0,.6,0,1.1v5.4c0,.2,0,.3.5.3s.5,0,.6-.5c0-.4,0-.9.1-1.8.3.1.4.2.7.3-.2,2.6-.3,2.8-1.5,2.8s-1.2-.1-1.2-.7v-6.1h-1.6Z"/>
    <path d="M500.2,64.5c-.5,0-.6,0-.9,0v-.8c.3,0,.5,0,1,0h1.8c.5,0,.7,0,1,0v.8c-.3,0-.5,0-.9,0h-.6v2.8h.5c.3,0,.5,0,.8,0v.8c-.3,0-.5,0-.8,0h-.5v3c.6-.3.8-.3,1.4-.7v.8c-1.1.6-1.4.7-3.1,1.4-.3.1-.3.1-.5.2l-.2-.8c.4,0,.8-.2,1.7-.5v-3.3h-.6c-.3,0-.5,0-.8,0v-.8c.3,0,.4,0,.8,0h.6v-2.8h-.6ZM504.9,69c-.8,0-1.2,0-1.5,0,0-.2,0-.3,0-.4q0-.3,0-.9v-2.6c0-.8,0-1.2,0-1.5.4,0,.7,0,1.5,0h3.2c.8,0,1.2,0,1.5,0,0,.3,0,.8,0,1.5v2.4c0,.8,0,1.2,0,1.5-.4,0-.8,0-1.4,0h-1.4v1.4h1.8c.6,0,.9,0,1.2,0v.8c-.3,0-.6,0-1.2,0h-1.8v1.8h2.2c.6,0,.9,0,1.2,0v.8c-.3,0-.6,0-1.2,0h-5.4c-.6,0-.9,0-1.2,0v-.8c.3,0,.6,0,1.1,0h2.5v-1.8h-1.6c-.6,0-.8,0-1.2,0v-.8c.3,0,.6,0,1.2,0h1.6v-1.4h-1.2ZM504.2,64.3v1.7h1.9v-1.7h-1.9ZM504.2,66.7v1.7h1.9v-1.7h-1.9ZM506.8,66h2v-1.7h-2v1.7ZM506.8,68.4h2v-1.7h-2v1.7Z"/>
    <path d="M515.2,74.1c-.9-1-1.3-1.6-1.7-2.6-.4-1-.6-1.9-.6-3s.2-2,.6-3c.4-1,.8-1.5,1.7-2.6h1.1c-1,1-1.4,1.6-1.8,2.5-.4,1-.6,2-.6,3s.2,2.1.6,3c.4.9.8,1.5,1.8,2.5h-1.1Z"/>
    <path d="M523,73c0-.3-.1-.6-.2-.9l-1.2-3.5c0,0,0-.3-.2-.8,0,.3-.2.7-.2.8l-1.2,3.5c-.1.3-.2.7-.3.9h-.8c0-.3,0-.3-.3-.9l-1.3-4.1c-.1-.4-.3-1-.5-1.4h1.1c0,.4.1.8.3,1.3l.9,3c0,.2.1.5.2.9,0-.3.2-.8.3-.9l1.1-3.4c.1-.4.2-.7.2-.9h.8c0,.2.1.6.2.9l1.2,3.5c0,.1.1.4.2.5q0,.2,0,.3c.1-.5.2-.7.2-.8l.9-3c.2-.5.2-1,.3-1.3h1.1c0,.3-.3.7-.5,1.4l-1.3,4.1c-.2.5-.2.7-.3.9h-.8Z"/>
    <path d="M526.8,73c0-.4,0-.8,0-1.4v-6.4c0-.6,0-.9,0-1.4h1.1c0,.4,0,.8,0,1.4v2c0,.2,0,.3,0,.6.2-.4.4-.6.7-.8.5-.4,1.1-.6,1.8-.6,1.4,0,2.2.8,2.2,2.2v3c0,.6,0,.9,0,1.3h-1.1c0-.4,0-.8,0-1.4v-2.8c0-1-.5-1.6-1.5-1.6s-1.2.3-1.7.9c-.3.4-.5.8-.6,1.3v2.3c0,.5,0,.9,0,1.4h-1.1Z"/>
    <path d="M535.3,63.9v1.1h-1.2v-1.1h1.2ZM535.3,66.5c0,.4,0,.8,0,1.4v3.8c0,.6,0,.9,0,1.4h-1.1c0-.5,0-.9,0-1.4v-3.8c0-.6,0-.9,0-1.4h1.1Z"/>
    <path d="M538.1,63.9c0,.4,0,.8,0,1.4v6.4c0,.5,0,.9,0,1.3h-1.1c0-.4,0-.8,0-1.3v-6.4c0-.6,0-.9,0-1.3h1.1Z"/>
    <path d="M540.4,69.9c0,.8.2,1.2.5,1.7.4.5,1,.8,1.7.8s1.6-.5,2-1.4l.8.3c-.2.5-.4.7-.7,1-.6.6-1.3.8-2.2.8-1.9,0-3.1-1.3-3.1-3.4s1.2-3.4,3-3.4,2.7,1,2.9,2.6c0,.1,0,.6,0,.9h-5ZM544.5,69.2c0-.7-.3-1.1-.6-1.5-.4-.4-.8-.5-1.4-.5s-1.3.4-1.7,1c-.2.3-.2.5-.3,1h4.1Z"/>
    <path d="M550.6,63.5c0,.2,0,.3-.2.8,0,.4-.2.7-.3,1.3.8,0,1.6-.2,2.1-.4v.8q0,0-.4,0c-.5.1-1.2.2-2,.3-.4,1.3-.8,2.4-1.3,3.5-.3.6-.4.8-.9,1.6-.1.2-.2.3-.2.4l-.8-.5c.4-.5.7-1,1.2-1.9.6-1.1.9-2,1.2-3.1-.3,0-.7,0-.9,0s-.6,0-.8,0c-.1,0-.2,0-.3,0h-.2v-.8c.4,0,.8,0,1.4,0s.6,0,.9,0c.2-.7.4-1.7.4-2.3h.9ZM556.3,72.8c-.5-.6-1.2-1.2-2.1-1.6,0,.2,0,.3,0,.4,0,1.2-.8,1.9-2.3,1.9s-2.3-.7-2.3-1.7.4-1.2,1.1-1.5c.4-.2.9-.3,1.4-.3s.7,0,1.2.2c0-.8,0-1.3,0-1.6,0-.4,0-.7.1-1.2h.8c-.1.5-.2.8-.2,1.2s0,1.4.1,1.8c1,.4,1.7.9,2.4,1.5q.1.1.2.2l-.4.8ZM552.1,70.6c-1,0-1.7.4-1.7,1.1s.6,1,1.5,1,1.5-.4,1.5-1.3,0-.5,0-.5c-.5-.2-.9-.2-1.3-.2ZM556.3,67.4c-1-.7-1.9-1.2-3.2-1.6l.4-.7c1.4.6,2.2,1,3.2,1.6l-.4.7Z"/>
    <path d="M561,63.6c0,.6.6,3.1.9,4,.7-.3,1.1-.4,2.9-1.1.4-.2.5-.2.8-.3l.4.9c-.8.2-2.6.7-3.6,1.2-2.1.8-2.9,1.6-2.9,2.6s.9,1.5,3.3,1.5,2.7-.2,3.4-.4v1c0,0-.1,0-.3,0h-.1s-.4,0-.4,0c-1.2.1-1.8.2-2.7.2s-2.1-.1-2.7-.3c-1-.4-1.5-1-1.5-2s.4-1.5,1.1-2c.5-.4.8-.6,1.6-1-.3-.9-.6-1.8-.9-3.3-.1-.5-.1-.6-.2-.8l.9-.2ZM565,63.4c.5.6.9,1.2,1.2,1.9l-.6.4c-.3-.6-.9-1.5-1.2-1.9l.6-.3ZM566.4,62.7c.6.7.9,1.1,1.2,1.9l-.6.3c-.3-.6-.8-1.3-1.2-1.9l.6-.3Z"/>
    <path d="M568.1,74.1c1-1,1.4-1.6,1.8-2.5.4-1,.6-2,.6-3s-.2-2.1-.6-3c-.4-.9-.8-1.5-1.8-2.5h1.1c.9,1,1.3,1.6,1.7,2.6.4,1,.6,1.9.6,3s-.2,2-.6,3c-.4,1-.8,1.5-1.7,2.6h-1.1Z"/>
  </g>
  <g>
    <line x1="506.8" y1="172.1" x2="506.8" y2="203.9"/>
    <g>
      <line class="st3" x1="506.8" y1="172.1" x2="506.8" y2="196.7"/>
      <polygon points="501.8 195.3 506.8 203.9 511.8 195.3 501.8 195.3"/>
    </g>
  </g>
  <g>
    <line x1="506.8" y1="27.3" x2="506.8" y2="59"/>
    <g>
      <line class="st3" x1="506.8" y1="27.3" x2="506.8" y2="51.9"/>
      <polygon points="501.8 50.4 506.8 59 511.8 50.4 501.8 50.4"/>
    </g>
  </g>
  <g>
    <path d="M502.7,127.5h1.8v1.1c.2-.4.5-.7.9-.9s.8-.3,1.3-.3c.8,0,1.6.3,2.1,1s.9,1.6.9,2.8-.3,2.2-.9,2.8c-.6.7-1.3,1-2.2,1s-.8,0-1.1-.2c-.3-.2-.7-.4-1-.8v3.7h-1.9v-10ZM504.6,131c0,.8.2,1.4.5,1.8.3.4.7.6,1.2.6s.8-.2,1.1-.5c.3-.4.4-.9.4-1.8s-.2-1.3-.5-1.7c-.3-.4-.7-.6-1.1-.6s-.9.2-1.2.5c-.3.4-.5.9-.5,1.6Z"/>
    <path d="M512.8,129.7l-1.7-.3c.2-.7.5-1.2,1-1.6s1.2-.5,2.1-.5,1.5.1,1.9.3c.4.2.7.5.9.8s.3.9.3,1.7v2.2c0,.6,0,1.1,0,1.4s.2.6.3,1h-1.9c0-.1-.1-.3-.2-.6,0-.1,0-.2,0-.2-.3.3-.7.6-1.1.7-.4.2-.8.2-1.2.2-.7,0-1.3-.2-1.8-.6s-.6-.9-.6-1.5,0-.8.3-1.1c.2-.3.5-.6.8-.7.4-.2.9-.3,1.5-.4.9-.2,1.5-.3,1.9-.5v-.2c0-.4,0-.6-.3-.8-.2-.2-.5-.2-1-.2s-.6,0-.8.2-.3.4-.5.7ZM515.4,131.2c-.2,0-.6.2-1.2.3s-.9.2-1,.3c-.2.2-.4.4-.4.7s.1.5.3.7c.2.2.5.3.8.3s.7-.1,1-.3c.2-.2.4-.4.5-.6,0-.2,0-.5,0-.9v-.4Z"/>
    <path d="M518.5,132.7l1.9-.3c0,.4.2.7.5.9.3.2.6.3,1.1.3s.9,0,1.1-.3c.2-.1.3-.3.3-.5s0-.3-.1-.4c0,0-.3-.2-.6-.3-1.5-.3-2.5-.7-2.9-.9-.6-.4-.9-.9-.9-1.6s.2-1.2.7-1.6c.5-.4,1.3-.6,2.3-.6s1.7.2,2.2.5c.5.3.8.8,1,1.4l-1.8.3c0-.3-.2-.5-.4-.6-.2-.2-.5-.2-.9-.2s-.9,0-1.1.2c-.1.1-.2.2-.2.4s0,.3.2.3c.2.1.8.3,1.8.5,1,.2,1.7.5,2.1.9.4.3.6.8.6,1.4s-.3,1.2-.8,1.7c-.6.5-1.4.7-2.5.7s-1.8-.2-2.3-.6c-.6-.4-1-.9-1.1-1.6Z"/>
    <path d="M526.2,132.7l1.9-.3c0,.4.2.7.5.9.3.2.6.3,1.1.3s.9,0,1.1-.3c.2-.1.3-.3.3-.5s0-.3-.1-.4c0,0-.3-.2-.6-.3-1.5-.3-2.5-.7-2.9-.9-.6-.4-.9-.9-.9-1.6s.2-1.2.7-1.6c.5-.4,1.3-.6,2.3-.6s1.7.2,2.2.5c.5.3.8.8,1,1.4l-1.8.3c0-.3-.2-.5-.4-.6-.2-.2-.5-.2-.9-.2s-.9,0-1.1.2c-.1.1-.2.2-.2.4s0,.3.2.3c.2.1.8.3,1.8.5,1,.2,1.7.5,2.1.9.4.3.6.8.6,1.4s-.3,1.2-.8,1.7c-.6.5-1.4.7-2.5.7s-1.8-.2-2.3-.6c-.6-.4-1-.9-1.1-1.6Z"/>
  </g>
  <g>
    <line class="st7" x1="461.4" y1="76.6" x2="461.4" y2="170.1"/>
    <g>
      <line class="st2" x1="461.4" y1="76.6" x2="461.4" y2="79.1"/>
      <line class="st4" x1="461.4" y1="84.1" x2="461.4" y2="161.5"/>
      <line class="st2" x1="461.4" y1="164" x2="461.4" y2="166.5"/>
      <polygon points="458.9 165.8 461.4 170.1 463.8 165.8 458.9 165.8"/>
    </g>
  </g>
  <g>
    <path d="M484.4,113.4v.8h-.9v-.8h.9ZM484.4,115.4c0,.3,0,.6,0,1v2.8c0,.4,0,.7,0,1h-.8c0-.4,0-.6,0-1v-2.8c0-.4,0-.7,0-1h.8Z"/>
    <path d="M486,116c-.3,0-.5,0-.8,0v-.7c.2,0,.5,0,.8,0h.4v-.5c0-.5,0-.8.3-1.1.2-.3.6-.4,1.1-.4s.6,0,1,.2l-.2.6c-.2-.1-.5-.2-.7-.2s-.5,0-.6.2c0,.1-.1.3-.1.8v.5h.5c.4,0,.6,0,1,0v.7c-.3,0-.5,0-1,0h-.5v3.3c0,.4,0,.7,0,1h-.8c0-.3,0-.6,0-1v-3.3h-.4Z"/>
    <path d="M491.2,121.8c-.5-.8-.7-1.2-1-1.9-.2-.7-.4-1.5-.4-2.3s.1-1.6.4-2.3c.2-.6.4-1.1,1-1.9l.6.4c-.5.8-.7,1.2-.9,1.8-.2.6-.3,1.3-.3,2s0,1.4.3,2c.2.6.4,1,.9,1.8l-.6.4Z"/>
    <path d="M492.9,114.2c.4.1.9.1,1.7.1s0,0,.2,0q0-.2,0-.7c0,0,0-.5,0-.5s0,0,0-.1h.7c0,.3-.1.6-.2,1.3,1.5,0,2.7-.3,3.4-.5v.6c0,0-.1,0-.3,0-1,.2-2.4.3-3.2.4q0,.8,0,1.2c.5-.1.9-.2,1.3-.2s.3,0,.5,0c.1-.3.2-.5.2-.8l.6.2c0,0-.1.3-.3.7,1.2.3,1.9,1.1,1.9,2.1s-.5,1.6-1.4,2.1c-.5.3-1,.4-1.8.5,0-.3-.1-.4-.3-.6.5,0,.9,0,1.4-.2,1-.3,1.5-1,1.5-1.8s-.5-1.3-1.5-1.6c-.5,1.2-1,2-1.7,2.7-.7.7-1.4,1.1-2,1.1s-1.2-.6-1.2-1.4.8-2.1,2.1-2.7c0-.7,0-.7,0-1.4h-.4c0,0-.5,0-1.2,0,0,0-.1,0-.2,0,0,0,0,0-.1,0v-.6ZM493.8,117.5c-.4.4-.5.9-.5,1.3s.3.8.6.8.6-.1,1-.5c-.1-.7-.2-1.4-.2-2.4-.4.2-.7.5-1,.7ZM495.5,118.9c0-.1,0-.2.2-.2.6-.7,1-1.3,1.4-2.3-.3,0-.3,0-.4,0-.4,0-.8,0-1.3.2,0,1.2,0,1.3,0,2.1,0,0,0,0,0,.1h0c0,0,0,.1,0,.1Z"/>
    <path d="M502,113.6c.3,0,.4,0,.8,0,.7,0,1.9,0,2.8-.1.2,0,.3,0,.4,0l.4.5c-.1,0-.2,0-.5.4-1.2,1.2-2.3,2.2-3,2.6h0c.7-.3,1.4-.5,2.2-.5,1.5,0,2.5.7,2.5,1.9s-1.3,2.3-3.3,2.3-2-.5-2-1.3.6-1.1,1.3-1.1,1.1.3,1.5.7c.2.3.3.5.4.9.9-.3,1.4-.8,1.4-1.6s-.7-1.4-1.9-1.4-2.7.6-3.8,1.5l-.4-.6c.3-.2.6-.4,1.3-.9,1-.8,2.4-2,3-2.6q0,0,.1-.1s0,0,0,0h0s0,0,0,0t0,0c-.3,0-1.4.1-2.7.2-.2,0-.3,0-.5,0v-.7ZM503.7,118.8c-.5,0-.7.2-.7.6s.1.4.4.5c.2.1.6.2,1,.2s.3,0,.7,0c-.2-.8-.6-1.3-1.3-1.3Z"/>
    <path d="M515.2,113.8s0,0-.1.1c-.6.7-1.1,1.1-1.7,1.5,1.1.5,2.1.9,3.6,1.1-.1.2-.2.3-.3.5-1.1-.2-1.9-.4-2.7-.8-.4-.1-.6-.3-1-.5-.4.2-.7.4-1.1.6-.9.4-1.4.6-2.6.8,0-.2-.1-.3-.3-.5,1.4-.2,2.5-.6,3.5-1.2-.5-.3-.7-.6-1.2-1.1-.6.5-1,.8-1.7,1.2,0-.2-.2-.3-.4-.4.7-.3,1.2-.6,1.7-1,.5-.4.8-.9,1.1-1.4l.6.2c-.1.1-.2.3-.5.6h2c.4,0,.6,0,.8,0l.3.4ZM515.7,117.5c.5,0,.7,0,1,0v.6c-.3,0-.6,0-1,0h-2.3c.3.4.6.6,1,.9.8.6,1.5.9,2.5,1.3-.2.2-.2.3-.4.6-1-.4-1.6-.8-2.3-1.3-.5-.4-.7-.6-1.2-1.1,0,.3,0,.6,0,.8v1.1c0,.5,0,.6,0,.9h-.6c0-.3,0-.4,0-.9v-1.1c0-.2,0-.5,0-.8-.5.6-.8.9-1.3,1.2-.5.4-1.2.8-2,1.2,0-.2-.2-.4-.3-.5,1.4-.5,2.4-1.2,3.3-2.1h-2.1c-.4,0-.7,0-1,0v-.6c.2,0,.5,0,.9,0h2.6v-.4c0-.3,0-.4,0-.6h.6c0,.2,0,.3,0,.6v.4h2.6ZM511.5,114c.5.5.8.8,1.3,1.1.5-.4.9-.6,1.4-1.2h-2.7Z"/>
    <path d="M518.8,117c0-.4,0-.7,0-1.1-.3.6-.5.9-1,1.4-.1-.3-.1-.3-.4-.5.8-.9,1.3-1.8,1.7-2.8.2-.5.3-.9.3-1.2l.6.2c0,.1,0,.2-.1.4-.2.7-.4,1.1-.7,1.7v4.9c0,.4,0,.7,0,1.1h-.7c0-.4,0-.6,0-1.1v-3ZM522.7,113.9c0-.4,0-.6,0-.9h.7c0,.3,0,.5,0,.9v1h1.3c.4,0,.7,0,.9,0v.6c-.3,0-.6,0-.9,0h-1.3v2h1.7c.4,0,.7,0,.9,0v.6c-.3,0-.6,0-.9,0h-1.7v2.2c0,.4,0,.6,0,.9h-.7c0-.3,0-.6,0-.9v-2.2h-1.8c-.4,0-.7,0-.9,0v-.6c.2,0,.5,0,.9,0h1.8v-2h-1.5c-.3.6-.5.9-.8,1.4-.1-.1-.3-.2-.5-.4.5-.6.8-1.2,1.1-2,.2-.5.3-.8.3-1.2l.6.2c0,.2,0,.2-.2.5-.1.4-.2.6-.3.9h1.3v-1Z"/>
    <path d="M527.1,113.3c.5.8.7,1.2,1,1.9.3.7.4,1.5.4,2.3s-.1,1.6-.4,2.3c-.2.6-.4,1.1-1,1.9l-.6-.4c.5-.8.7-1.2.9-1.8.2-.6.3-1.3.3-2s0-1.4-.3-2c-.2-.6-.4-1-.9-1.8l.6-.4Z"/>
    <path d="M531.1,116.3h-.9v-.9h.9v.9ZM530.2,120.3v-.9h.9v.9h-.9Z"/>
  </g>
  <g>
    <line class="st7" x1="461.4" y1="116.9" x2="482.6" y2="116.9"/>
    <g>
      <line class="st2" x1="461.4" y1="116.9" x2="463.9" y2="116.9"/>
      <line class="st5" x1="468.1" y1="116.9" x2="474.4" y2="116.9"/>
      <line class="st2" x1="476.5" y1="116.9" x2="479" y2="116.9"/>
      <polygon points="478.3 119.4 482.6 116.9 478.3 114.4 478.3 119.4"/>
    </g>
  </g>
  <g>
    <line class="st7" x1="461.4" y1="132.8" x2="499.5" y2="132.8"/>
    <g>
      <line class="st2" x1="464.9" y1="132.8" x2="467.4" y2="132.8"/>
      <line class="st6" x1="471.7" y1="132.8" x2="494.9" y2="132.8"/>
      <line class="st2" x1="497" y1="132.8" x2="499.5" y2="132.8"/>
      <polygon points="465.7 135.3 461.4 132.8 465.7 130.3 465.7 135.3"/>
    </g>
  </g>
  <polygon class="st8" points="466.9 120.3 465.3 118.7 461.2 122.7 457.2 118.7 455.6 120.3 459.6 124.3 455.6 128.3 457.2 129.9 461.2 125.9 465.3 129.9 466.9 128.3 462.9 124.3 466.9 120.3"/>
</svg>