<?xml version="1.0" encoding="UTF-8"?>
<svg id="Layer_1" xmlns="http://www.w3.org/2000/svg" xmlns:xlink="http://www.w3.org/1999/xlink" version="1.1" viewBox="0 0 576 239">
  <!-- Generator: Adobe Illustrator 29.1.0, SVG Export Plug-In . SVG Version: 2.1.0 Build 142)  -->
  <defs>
    <style>
      .st0 {
        fill: none;
      }

      .st1 {
        fill: #98fb98;
        stroke: #98fb98;
      }

      .st1, .st2, .st3 {
        isolation: isolate;
        opacity: .4;
      }

      .st2 {
        fill: #ffa07a;
        stroke: #ffa07a;
      }

      .st4 {
        clip-path: url(#clippath-1);
      }

      .st5 {
        clip-path: url(#clippath-2);
      }

      .st3 {
        fill: #87cefa;
        stroke: #87cefa;
      }

      .st6 {
        clip-path: url(#clippath);
      }
    </style>
    <clipPath id="clippath">
      <rect class="st0" x="134.3" width="319.5" height="252.7"/>
    </clipPath>
    <clipPath id="clippath-1">
      <rect class="st0" x="134.3" width="319.5" height="252.7"/>
    </clipPath>
    <clipPath id="clippath-2">
      <rect class="st0" x="134.3" width="319.5" height="252.7"/>
    </clipPath>
  </defs>
  <g id="patch_2">
    <g class="st6">
      <path class="st2" d="M294.1,225.4c-20.7-7-38.7-20.3-51.4-38.1-12.8-17.8-19.6-39.1-19.6-60.9s6.8-43.2,19.6-60.9c12.8-17.8,30.8-31.1,51.4-38.1-15.7-5.3-32.4-6.8-48.9-4.3-16.4,2.4-32,8.8-45.4,18.5-13.4,9.6-24.5,22.4-32,37.2-7.6,14.7-11.5,31.1-11.5,47.7s4,32.9,11.5,47.7c7.6,14.7,18.5,27.5,32,37.2,13.4,9.6,29,16,45.4,18.5,16.4,2.4,33.1,1,48.9-4.3"/>
    </g>
  </g>
  <g id="patch_3">
    <g class="st4">
      <path class="st3" d="M294.1,27.4c20.7,7,38.7,20.3,51.4,38.1,12.7,17.8,19.6,39.1,19.6,60.9s-6.8,43.2-19.6,60.9c-12.8,17.8-30.8,31.1-51.4,38.1,15.7,5.3,32.4,6.8,48.9,4.3,16.4-2.4,32-8.8,45.4-18.5,13.4-9.6,24.5-22.4,32-37.2,7.6-14.7,11.5-31.1,11.5-47.7s-4-32.9-11.5-47.7c-7.6-14.7-18.5-27.5-32-37.2-13.4-9.6-29-16-45.4-18.5-16.4-2.4-33.1-1-48.9,4.3"/>
    </g>
  </g>
  <g id="patch_4">
    <g class="st5">
      <path class="st1" d="M294.1,225.4c20.7-7,38.7-20.3,51.4-38.1,12.7-17.8,19.6-39.1,19.6-60.9s-6.8-43.2-19.6-60.9c-12.8-17.8-30.8-31.1-51.4-38.1-20.7,7-38.7,20.3-51.4,38.1-12.8,17.8-19.6,39.1-19.6,60.9s6.8,43.2,19.6,60.9c12.8,17.8,30.8,31.1,51.4,38.1"/>
    </g>
  </g>
  <g>
    <path d="M183.1,134.1h-2.5v-9.3c-.9.8-2,1.5-3.2,1.9v-2.2c.6-.2,1.3-.6,2.1-1.2s1.3-1.3,1.6-2.1h2v12.9Z"/>
    <path d="M187.3,131.6h2.5v1.8c0,.7,0,1.3-.2,1.7-.1.4-.4.8-.7,1.1s-.8.6-1.3.8l-.5-1c.5-.2.9-.4,1.1-.7s.3-.7.3-1.2h-1.2v-2.5Z"/>
    <path d="M201.7,134.1v-2.6h-5.3v-2.2l5.6-8.2h2.1v8.2h1.6v2.2h-1.6v2.6h-2.4ZM201.7,129.3v-4.4l-3,4.4h3Z"/>
  </g>
  <g>
    <path d="M385.1,123.7v-2.3h8.4v1.8c-.7.7-1.4,1.7-2.1,3s-1.3,2.6-1.6,4.1c-.4,1.4-.6,2.7-.6,3.9h-2.4c0-1.8.4-3.6,1.1-5.4s1.6-3.5,2.8-5h-5.6Z"/>
    <path d="M395.5,131.6h2.5v1.8c0,.7,0,1.3-.2,1.7-.1.4-.4.8-.7,1.1s-.8.6-1.3.8l-.5-1c.5-.2.9-.4,1.1-.7s.3-.7.3-1.2h-1.2v-2.5Z"/>
    <path d="M405.1,131.1l2.4-.3c0,.5.2.8.5,1.1s.6.4,1,.4.9-.2,1.3-.7.6-1.4.7-2.9c-.6.7-1.4,1.1-2.3,1.1s-1.9-.4-2.6-1.2c-.7-.8-1.1-1.8-1.1-3.1s.4-2.4,1.2-3.2,1.8-1.2,3-1.2,2.4.5,3.2,1.5,1.3,2.7,1.3,5-.4,4.1-1.3,5.1-2,1.6-3.4,1.6-1.8-.3-2.4-.8c-.6-.5-1-1.3-1.2-2.4ZM410.7,125.7c0-.8-.2-1.4-.5-1.9s-.8-.7-1.3-.7-.8.2-1.1.5-.5,1-.5,1.8.2,1.4.5,1.8.7.6,1.2.6.9-.2,1.2-.6.5-.9.5-1.7Z"/>
  </g>
  <g>
    <path d="M278.5,131.8v2.3h-8.7c0-.9.4-1.7.8-2.5s1.4-1.8,2.8-3.1c1.1-1,1.8-1.7,2-2.1.3-.5.5-1,.5-1.5s-.1-1-.4-1.3-.7-.4-1.2-.4-.9.2-1.2.5-.5.8-.5,1.5l-2.5-.2c.1-1.4.6-2.3,1.4-2.9s1.7-.9,2.9-.9,2.3.3,3,1,1.1,1.5,1.1,2.6-.1,1.1-.3,1.7-.5,1.1-1,1.6c-.3.4-.8.9-1.6,1.6s-1.3,1.2-1.5,1.4-.4.5-.5.7h4.9Z"/>
    <path d="M280.7,131.6h2.5v1.8c0,.7,0,1.3-.2,1.7-.1.4-.4.8-.7,1.1s-.8.6-1.3.8l-.5-1c.5-.2.9-.4,1.1-.7s.3-.7.3-1.2h-1.2v-2.5Z"/>
    <path d="M290.1,130.7l2.4-.3c0,.6.3,1.1.6,1.4s.7.5,1.2.5.9-.2,1.3-.6.5-.9.5-1.6-.2-1.1-.5-1.5-.7-.5-1.2-.5-.7,0-1.1.2l.3-2c.7,0,1.2-.1,1.5-.4s.5-.7.5-1.2-.1-.8-.4-1-.6-.4-1-.4-.8.1-1.1.4-.5.7-.5,1.3l-2.3-.4c.2-.8.4-1.4.7-1.9s.8-.8,1.3-1.1,1.2-.4,1.9-.4c1.2,0,2.2.4,2.9,1.2.6.6.9,1.3.9,2.1,0,1.1-.6,2-1.9,2.7.7.2,1.3.5,1.8,1.1s.7,1.2.7,2c0,1.1-.4,2.1-1.2,2.9s-1.9,1.2-3.1,1.2-2.1-.3-2.9-1c-.8-.7-1.2-1.5-1.3-2.6Z"/>
    <path d="M300.7,131.6h2.5v1.8c0,.7,0,1.3-.2,1.7-.1.4-.4.8-.7,1.1s-.8.6-1.3.8l-.5-1c.5-.2.9-.4,1.1-.7s.3-.7.3-1.2h-1.2v-2.5Z"/>
    <path d="M310.3,130.8l2.5-.3c0,.6.3,1,.6,1.3.3.3.7.5,1.2.5s1-.2,1.3-.6c.4-.4.5-1,.5-1.9s-.2-1.4-.5-1.8-.8-.6-1.4-.6-1.3.3-1.9.9l-2-.3,1.3-6.7h6.5v2.3h-4.7l-.4,2.2c.6-.3,1.1-.4,1.7-.4,1.1,0,2,.4,2.8,1.2s1.1,1.8,1.1,3.1-.3,2-.9,2.8c-.8,1.1-2,1.7-3.5,1.7s-2.2-.3-2.9-1-1.2-1.5-1.3-2.6Z"/>
  </g>
  <g>
    <path d="M215.6,16.5h-4.2c1.3.7,3,1.4,4.5,1.7-.4.3-.8,1-1.1,1.3-1.7-.5-3.4-1.3-4.8-2.3v2.5h-1.7v-2.4c-1.4,1-3.2,1.8-4.8,2.3-.2-.4-.7-1-1.1-1.4,1.6-.3,3.3-1,4.6-1.7h-4.2v-1.3h5.5v-.6h-3.9v-3.5c-.3.3-.6.6-.9.9-.2-.4-.8-1-1.1-1.2,1.6-1.2,2.7-2.8,3.4-4.1l1.9.4c0,.1-.2.2-.4.2-.2.3-.4.6-.6,1h1.9c.3-.5.5-1.1.7-1.5l2,.4c0,.1-.2.2-.4.2-.2.3-.4.6-.6,1h4.1v1.3h-4.3v.6h3.7v1.1h-3.7v.6h3.7v1.1h-3.7v.6h4.8v1.3h-4.9c0,0-.2,0-.3.1v.5h5.6v1.3ZM208.7,9.9v-.6h-2.7v.6h2.7ZM208.7,11.6v-.6h-2.7v.6h2.7ZM206.1,12.7v.6h2.7v-.6h-2.7Z"/>
    <path d="M219.7,11.6c-.7.5-1.4,1-2.2,1.4-.2-.4-.7-1-1-1.3,2.4-1.2,4.7-3.3,5.8-5.1h2.3c0,.3-.2.4-.4.4,1.4,1.8,3.8,3.6,5.9,4.5-.4.4-.8,1-1.1,1.5-.7-.4-1.4-.8-2.2-1.3v1h-7.1v-1ZM218.8,19.8v-5.8h9v5.8h-1.7v-.5h-5.6v.5h-1.7ZM226.1,11.1c-1.2-.9-2.2-1.9-2.9-2.9-.6.9-1.7,1.9-2.8,2.9h5.8ZM226,15.5h-5.6v2.3h5.6v-2.3Z"/>
    <path d="M237.2,12l-2.2-.4c.3-.9.7-1.6,1.3-2s1.5-.7,2.7-.7,1.9.1,2.5.4.9.6,1.1,1,.3,1.1.3,2.2v2.9c0,.8,0,1.4,0,1.8s.2.8.4,1.3h-2.4c0-.2-.1-.4-.2-.7,0-.1,0-.2,0-.3-.4.4-.9.7-1.4.9s-1,.3-1.5.3c-1,0-1.7-.3-2.3-.8s-.8-1.2-.8-2,.1-1,.4-1.4.6-.7,1.1-.9,1.1-.4,2-.6c1.2-.2,2-.4,2.4-.6v-.2c0-.5-.1-.8-.4-1s-.7-.3-1.3-.3-.8,0-1,.3-.4.5-.6.9ZM240.5,14c-.3.1-.8.2-1.5.4s-1.1.3-1.3.4c-.3.2-.5.5-.5.9s.1.6.4.9.6.4,1,.4.9-.1,1.3-.4c.3-.2.5-.5.6-.8,0-.2,0-.6,0-1.2v-.5Z"/>
  </g>
  <g>
    <path d="M349.4,16.5h-4.2c1.3.7,3,1.4,4.5,1.7-.4.3-.8,1-1.1,1.3-1.7-.5-3.4-1.3-4.8-2.3v2.5h-1.7v-2.4c-1.4,1-3.2,1.8-4.8,2.3-.2-.4-.7-1-1.1-1.4,1.6-.3,3.3-1,4.6-1.7h-4.2v-1.3h5.5v-.6h-3.9v-3.5c-.3.3-.6.6-.9.9-.2-.4-.8-1-1.1-1.2,1.6-1.2,2.7-2.8,3.4-4.1l1.9.4c0,.1-.2.2-.4.2-.2.3-.4.6-.6,1h1.9c.3-.5.5-1.1.7-1.5l2,.4c0,.1-.2.2-.4.2-.2.3-.4.6-.6,1h4.1v1.3h-4.3v.6h3.7v1.1h-3.7v.6h3.7v1.1h-3.7v.6h4.8v1.3h-4.9c0,0-.2,0-.3.1v.5h5.6v1.3ZM342.6,9.9v-.6h-2.7v.6h2.7ZM342.6,11.6v-.6h-2.7v.6h2.7ZM339.9,12.7v.6h2.7v-.6h-2.7Z"/>
    <path d="M353.6,11.6c-.7.5-1.4,1-2.2,1.4-.2-.4-.7-1-1-1.3,2.4-1.2,4.7-3.3,5.8-5.1h2.3c0,.3-.2.4-.4.4,1.4,1.8,3.8,3.6,5.9,4.5-.4.4-.8,1-1.1,1.5-.7-.4-1.4-.8-2.2-1.3v1h-7.1v-1ZM352.6,19.8v-5.8h9v5.8h-1.7v-.5h-5.6v.5h-1.7ZM359.9,11.1c-1.2-.9-2.2-1.9-2.9-2.9-.6.9-1.7,1.9-2.8,2.9h5.8ZM359.9,15.5h-5.6v2.3h5.6v-2.3Z"/>
    <path d="M369,18.5V7h2.2v4.1c.7-.8,1.5-1.2,2.4-1.2s1.8.4,2.5,1.1c.7.7,1,1.8,1,3.2s-.3,2.5-1,3.3c-.7.8-1.5,1.1-2.5,1.1s-.9-.1-1.4-.4-.9-.6-1.2-1.1v1.2h-2ZM371.2,14.1c0,.9.1,1.5.4,1.9.4.6.9.9,1.5.9s.9-.2,1.2-.6c.3-.4.5-1.1.5-2s-.2-1.6-.5-2.1c-.3-.4-.8-.6-1.3-.6s-1,.2-1.3.6c-.3.4-.5,1-.5,1.9Z"/>
  </g>
</svg>