<?xml version="1.0" encoding="UTF-8"?>
<svg xmlns="http://www.w3.org/2000/svg" xmlns:xlink="http://www.w3.org/1999/xlink" version="1.1" viewBox="0 0 852 240">
  <defs>
    <style>
      .cls-1, .cls-2, .cls-3, .cls-4, .cls-5, .cls-6, .cls-7, .cls-8, .cls-9 {
        fill: none;
      }

      .cls-2 {
        stroke-dasharray: 2 1;
      }

      .cls-2, .cls-3 {
        stroke-linecap: square;
      }

      .cls-2, .cls-3, .cls-4, .cls-5 {
        stroke: #000;
      }

      .cls-2, .cls-3, .cls-4, .cls-5, .cls-6, .cls-9 {
        stroke-miterlimit: 10;
      }

      .cls-10 {
        fill: #231f20;
        font-family: YuGo-Medium-83pv-RKSJ-H, YuGothic;
        font-size: 14px;
        font-weight: 500;
      }

      .cls-11 {
        fill: url(#Diagonal_Lines);
      }

      .cls-12 {
        fill: #fff;
      }

      .cls-4 {
        stroke-dasharray: 4 2;
      }

      .cls-6 {
        stroke: #404040;
        stroke-width: 3px;
      }

      .cls-7 {
        stroke-linejoin: bevel;
      }

      .cls-7, .cls-8 {
        stroke: #231f20;
        stroke-width: .3px;
      }

      .cls-8 {
        stroke-linejoin: round;
      }

      .cls-9 {
        stroke: #4d4d4d;
        stroke-dasharray: 2 2;
      }

      .cls-13 {
        fill: #404040;
      }
    </style>
    <pattern id="Diagonal_Lines" data-name="Diagonal Lines" x="0" y="0" width="72" height="72" patternTransform="translate(0 659)" patternUnits="userSpaceOnUse" viewBox="0 0 72 72">
      <g>
        <rect class="cls-1" width="72" height="72"/>
        <line class="cls-12" x1="-23.8" y1="66" x2="-17.8" y2="72"/>
        <line class="cls-12" x1="-23.8" y1="72" x2="-17.8" y2="66"/>
        <line class="cls-8" x1="-7.5" y1="10.5" x2="10.5" y2="-7.5"/>
        <line class="cls-8" x1="-7.5" y1="16.5" x2="16.5" y2="-7.5"/>
        <line class="cls-8" x1="-7.5" y1="22.5" x2="22.5" y2="-7.5"/>
        <line class="cls-8" x1="-7.5" y1="28.5" x2="28.5" y2="-7.5"/>
        <line class="cls-8" x1="-7.5" y1="34.5" x2="34.5" y2="-7.5"/>
        <line class="cls-8" x1="-7.5" y1="40.5" x2="40.5" y2="-7.5"/>
        <line class="cls-8" x1="-7.5" y1="46.5" x2="46.5" y2="-7.5"/>
        <line class="cls-8" x1="-7.5" y1="52.5" x2="52.5" y2="-7.5"/>
        <line class="cls-8" x1="-7.5" y1="58.5" x2="58.5" y2="-7.5"/>
        <line class="cls-8" x1="-7.5" y1="64.5" x2="64.5" y2="-7.5"/>
        <line class="cls-8" x1="-7.5" y1="70.5" x2="70.5" y2="-7.5"/>
        <line class="cls-8" x1="-7.5" y1="76.5" x2="76.5" y2="-7.5"/>
        <line class="cls-8" x1="-1.5" y1="76.5" x2="76.5" y2="-1.5"/>
        <line class="cls-8" x1="4.5" y1="76.5" x2="76.5" y2="4.5"/>
        <line class="cls-8" x1="10.5" y1="76.5" x2="76.5" y2="10.5"/>
        <line class="cls-8" x1="16.5" y1="76.5" x2="76.5" y2="16.5"/>
        <line class="cls-8" x1="22.5" y1="76.5" x2="76.5" y2="22.5"/>
        <line class="cls-8" x1="28.5" y1="76.5" x2="76.5" y2="28.5"/>
        <line class="cls-8" x1="34.5" y1="76.5" x2="76.5" y2="34.5"/>
        <line class="cls-8" x1="40.5" y1="76.5" x2="76.5" y2="40.5"/>
        <line class="cls-8" x1="46.5" y1="76.5" x2="76.5" y2="46.5"/>
        <line class="cls-8" x1="52.5" y1="76.5" x2="76.5" y2="52.5"/>
        <line class="cls-8" x1="58.5" y1="76.5" x2="76.5" y2="58.5"/>
        <line class="cls-8" x1="64.5" y1="76.5" x2="76.5" y2="64.5"/>
        <line class="cls-7" x1="-28.8" y1="13.5" x2="-18.8" y2="3.5"/>
      </g>
    </pattern>
  </defs>
  <!-- Generator: Adobe Illustrator 28.7.1, SVG Export Plug-In . SVG Version: 1.2.0 Build 142)  -->
  <g>
    <g id="Layer_1">
      <path class="cls-3" d="M250.5,215.5h3.2M557.9,215.5h-3.1"/>
      <path class="cls-3" d="M250.5,215.5h3.2M557.9,215.5h-3.1"/>
      <path class="cls-5" d="M243.5,139h7.2"/>
      <path class="cls-2" d="M250.5,12.9v202.6M250.5,215.5h302.4"/>
      <path class="cls-5" d="M261.3,215.5v-47.8h28.8v47.8h-28.8M290.1,215.5v-31.5h28.8v31.5h-28.8M318.9,215.5v-63.4h28.8v63.4h-28.8M347.7,215.5v-87.7h28.8v87.7h-28.8M376.5,215.5v-110.6h28.8v110.6h-28.8M405.3,215.5v-124.7h28.8v124.7h-28.8"/>
      <line class="cls-2" x1="250.5" y1="12.9" x2="250.5" y2="215.5"/>
      <line class="cls-3" x1="250.5" y1="215.5" x2="615.9" y2="215.5"/>
      <path class="cls-5" d="M434.2,215.5V63.7h28.8v151.8h-28.8M463,215.5V67.1h28.8v148.5h-28.8M491.8,215.5v-113.4h28.8v113.4h-28.8M520.6,215.5v-96.7h28.8v96.7h-28.8M549.5,215.5v-69.6h28.8v69.6h-28.8M578.2,215.5v-56.7h28.8v56.7h-28.8"/>
      <line class="cls-9" x1="250.5" y1="139" x2="615.5" y2="139"/>
      <polyline class="cls-11" points="347.7 138.5 347.7 127.8 376.5 127.8 376.5 138.5 347.7 138.5"/>
      <polyline class="cls-11" points="376.5 138.5 376.5 104.9 405.3 104.9 405.3 138.5 376.5 138.5"/>
      <polyline class="cls-11" points="405.3 138.5 405.3 90.8 434.1 90.8 434.1 138.5 405.3 138.5"/>
      <polyline class="cls-11" points="434.2 138.5 434.2 63.7 463 63.7 463 138.5 434.2 138.5"/>
      <polyline class="cls-11" points="463 138.5 463 67.1 491.8 67.1 491.8 138.5 463 138.5"/>
      <polyline class="cls-11" points="491.8 138.5 491.8 102.2 520.6 102.2 520.6 138.5 491.8 138.5"/>
      <polyline class="cls-11" points="520.6 138.5 520.6 118.8 549.5 118.8 549.5 138.5 520.6 138.5"/>
      <line class="cls-4" x1="347.7" y1="14.9" x2="347.7" y2="128.3"/>
      <line class="cls-4" x1="549.5" y1="14.9" x2="549.5" y2="118.3"/>
      <g>
        <line class="cls-6" x1="359.4" y1="34.6" x2="538.1" y2="34.6"/>
        <path class="cls-13" d="M545.3,34.6c-3.4,1.3-7.6,3.4-10.3,5.7l2.1-5.7-2.1-5.7c2.6,2.3,6.8,4.4,10.3,5.7Z"/>
        <path class="cls-13" d="M352.1,34.6c3.4-1.3,7.6-3.4,10.3-5.7l-2.1,5.7,2.1,5.7c-2.6-2.3-6.8-4.4-10.3-5.7Z"/>
      </g>
      <text class="cls-10" transform="translate(425.1 25.3)"><tspan x="0" y="0">生育期間</tspan></text>
      <text class="cls-10" transform="translate(233.1 144.3)"><tspan x="0" y="0">5</tspan></text>
      <text class="cls-10" transform="translate(264.1 231.3)"><tspan x="0" y="0">1月</tspan></text>
      <text class="cls-10" transform="translate(578.1 231.3)"><tspan x="0" y="0">12月</tspan></text>
      <text class="cls-10" transform="translate(467 231.3)"><tspan x="0" y="0">8月</tspan></text>
      <text class="cls-10" transform="translate(350.7 231.3)"><tspan x="0" y="0">4月</tspan></text>
      <text class="cls-10" transform="translate(220.5 167.7) rotate(-90)"><tspan x="0" y="0">月平均気温（℃）</tspan></text>
    </g>
  </g>
</svg>