<?xml version="1.0" encoding="UTF-8"?>
<svg id="Layer_1" xmlns="http://www.w3.org/2000/svg" version="1.1" viewBox="0 0 618.7 312.5">
  <!-- Generator: Adobe Illustrator 29.1.0, SVG Export Plug-In . SVG Version: 2.1.0 Build 142)  -->
  <defs>
    <style>
      .st0 {
        fill: #231f20;
      }

      .st1, .st2, .st3 {
        fill: none;
      }

      .st1, .st3, .st4 {
        stroke-miterlimit: 10;
      }

      .st1, .st4 {
        stroke: #231f20;
        stroke-width: .5px;
      }

      .st2 {
        stroke-linejoin: round;
      }

      .st2, .st3 {
        stroke: #000;
        stroke-width: .8px;
      }

      .st5, .st4 {
        fill: #fff;
      }

      .st3 {
        stroke-linecap: square;
      }
    </style>
  </defs>
  <rect class="st4" x="98.6" y="4.6" width="423.1" height="302.2"/>
  <rect class="st5" x="151.5" y="40.9" width="149.1" height="105.8"/>
  <line x1="151.5" y1="146.7" x2="151.5" y2="148.1"/>
  <line class="st2" x1="151.5" y1="146.7" x2="151.5" y2="148.1"/>
  <path d="M149.5,149.7c.3,0,.6.1.8.4.2.3.3.7.3,1.2s0,.9-.3,1.2c-.2.3-.4.4-.8.4s-.6-.1-.8-.4c-.2-.3-.3-.7-.3-1.2s0-.9.3-1.2c.2-.3.4-.4.8-.4ZM149.5,150c-.2,0-.4.1-.5.3s-.2.5-.2.9,0,.7.2.9.3.3.5.3.4-.1.5-.3c.1-.2.2-.5.2-.9s0-.7-.2-.9c-.1-.2-.3-.3-.5-.3Z"/>
  <rect x="151.3" y="152.3" width=".4" height=".5"/>
  <path d="M153.5,149.7c.3,0,.6.1.8.4.2.3.3.7.3,1.2s0,.9-.3,1.2c-.2.3-.4.4-.8.4s-.6-.1-.8-.4c-.2-.3-.3-.7-.3-1.2s0-.9.3-1.2c.2-.3.4-.4.8-.4ZM153.5,150c-.2,0-.4.1-.5.3s-.2.5-.2.9,0,.7.2.9.3.3.5.3.4-.1.5-.3c.1-.2.2-.5.2-.9s0-.7-.2-.9c-.1-.2-.3-.3-.5-.3Z"/>
  <line x1="181.3" y1="146.7" x2="181.3" y2="148.1"/>
  <line class="st2" x1="181.3" y1="146.7" x2="181.3" y2="148.1"/>
  <path d="M179.3,149.7c.3,0,.6.1.8.4.2.3.3.7.3,1.2s0,.9-.3,1.2c-.2.3-.4.4-.8.4s-.6-.1-.8-.4c-.2-.3-.3-.7-.3-1.2s0-.9.3-1.2c.2-.3.4-.4.8-.4ZM179.3,150c-.2,0-.4.1-.5.3s-.2.5-.2.9,0,.7.2.9.3.3.5.3.4-.1.5-.3c.1-.2.2-.5.2-.9s0-.7-.2-.9c-.1-.2-.3-.3-.5-.3Z"/>
  <rect x="181.1" y="152.3" width=".4" height=".5"/>
  <path d="M182.8,152.5h1.4v.3h-1.9v-.3c.2-.2.4-.4.6-.7.3-.3.4-.4.5-.5.1-.1.2-.3.3-.4,0-.1,0-.2,0-.3,0-.2,0-.3-.2-.4s-.3-.2-.4-.2-.3,0-.4,0c-.1,0-.3.1-.5.2v-.4c.2,0,.3-.1.5-.2.1,0,.3,0,.4,0,.3,0,.6,0,.8.2s.3.4.3.6,0,.2,0,.4c0,.1-.1.2-.3.4,0,0-.1.2-.3.3-.2.2-.4.5-.8.8Z"/>
  <line x1="211.1" y1="146.7" x2="211.1" y2="148.1"/>
  <line class="st2" x1="211.1" y1="146.7" x2="211.1" y2="148.1"/>
  <path d="M209.1,149.7c.3,0,.6.1.8.4.2.3.3.7.3,1.2s0,.9-.3,1.2c-.2.3-.4.4-.8.4s-.6-.1-.8-.4c-.2-.3-.3-.7-.3-1.2s0-.9.3-1.2c.2-.3.4-.4.8-.4ZM209.1,150c-.2,0-.4.1-.5.3s-.2.5-.2.9,0,.7.2.9.3.3.5.3.4-.1.5-.3c.1-.2.2-.5.2-.9s0-.7-.2-.9c-.1-.2-.3-.3-.5-.3Z"/>
  <rect x="210.9" y="152.3" width=".4" height=".5"/>
  <path d="M213.3,149.7h.5v2h.4v.3h-.4v.7h-.4v-.7h-1.4v-.4l1.3-1.9ZM213.4,150.1l-1,1.6h1v-1.6Z"/>
  <line x1="240.9" y1="146.7" x2="240.9" y2="148.1"/>
  <line class="st2" x1="240.9" y1="146.7" x2="240.9" y2="148.1"/>
  <path d="M238.9,149.7c.3,0,.6.1.8.4.2.3.3.7.3,1.2s0,.9-.3,1.2c-.2.3-.4.4-.8.4s-.6-.1-.8-.4c-.2-.3-.3-.7-.3-1.2s0-.9.3-1.2c.2-.3.4-.4.8-.4ZM238.9,150c-.2,0-.4.1-.5.3s-.2.5-.2.9,0,.7.2.9.3.3.5.3.4-.1.5-.3c.1-.2.2-.5.2-.9s0-.7-.2-.9c-.1-.2-.3-.3-.5-.3Z"/>
  <rect x="240.7" y="152.3" width=".4" height=".5"/>
  <path d="M243.8,149.8v.4c-.1,0-.2,0-.3-.1-.1,0-.2,0-.3,0-.3,0-.5,0-.6.3s-.2.5-.2.8c0-.1.2-.2.3-.3s.3,0,.4,0c.3,0,.5,0,.7.3.2.2.3.4.3.8s0,.6-.3.8c-.2.2-.4.3-.7.3s-.6-.1-.8-.4c-.2-.3-.3-.7-.3-1.2s.1-.9.3-1.2c.2-.3.5-.4.9-.4s.2,0,.3,0c.1,0,.2,0,.3,0ZM243,151.1c-.2,0-.3,0-.4.2-.1.1-.2.3-.2.5s0,.4.2.5c.1.1.3.2.4.2s.3,0,.4-.2c.1-.1.2-.3.2-.5s0-.4-.2-.5c-.1-.1-.3-.2-.4-.2Z"/>
  <line x1="270.8" y1="146.7" x2="270.8" y2="148.1"/>
  <line class="st2" x1="270.8" y1="146.7" x2="270.8" y2="148.1"/>
  <path d="M268.7,149.7c.3,0,.6.1.8.4.2.3.3.7.3,1.2s0,.9-.3,1.2c-.2.3-.4.4-.8.4s-.6-.1-.8-.4c-.2-.3-.3-.7-.3-1.2s0-.9.3-1.2c.2-.3.4-.4.8-.4ZM268.7,150c-.2,0-.4.1-.5.3s-.2.5-.2.9,0,.7.2.9.3.3.5.3.4-.1.5-.3c.1-.2.2-.5.2-.9s0-.7-.2-.9c-.1-.2-.3-.3-.5-.3Z"/>
  <rect x="270.5" y="152.3" width=".4" height=".5"/>
  <path d="M272.2,150.5c0,.2,0,.3.1.4.1,0,.2.1.4.1s.3,0,.4-.1c.1,0,.2-.2.2-.4s0-.3-.2-.4c-.1,0-.2-.1-.4-.1s-.3,0-.4.1c-.1,0-.1.2-.1.4ZM272.3,151.2c-.2,0-.3-.1-.4-.2-.1-.1-.1-.3-.1-.4s0-.4.3-.6c.2-.1.4-.2.7-.2s.5,0,.7.2c.2.1.3.3.3.6s0,.3-.2.4c-.1.1-.2.2-.4.2.2,0,.4.1.5.3.1.1.2.3.2.5,0,.3,0,.5-.3.7-.2.2-.4.2-.8.2s-.6,0-.8-.2c-.2-.2-.3-.4-.3-.7s0-.4.2-.5c.1-.1.3-.2.5-.3ZM272.8,151.3c-.2,0-.4,0-.5.2-.1.1-.2.2-.2.4s0,.3.2.4c.1.1.3.2.5.2s.3,0,.5-.2c.1-.1.2-.2.2-.4s0-.3-.2-.4c-.1-.1-.3-.2-.5-.2Z"/>
  <line x1="300.6" y1="146.7" x2="300.6" y2="148.1"/>
  <line class="st2" x1="300.6" y1="146.7" x2="300.6" y2="148.1"/>
  <polygon points="297.7 152.5 298.4 152.5 298.4 150.1 297.7 150.3 297.7 149.9 298.4 149.7 298.8 149.7 298.8 152.5 299.5 152.5 299.5 152.8 297.7 152.8 297.7 152.5"/>
  <rect x="300.3" y="152.3" width=".4" height=".5"/>
  <path d="M302.6,149.7c.3,0,.6.1.8.4.2.3.3.7.3,1.2s0,.9-.3,1.2c-.2.3-.4.4-.8.4s-.6-.1-.8-.4c-.2-.3-.3-.7-.3-1.2s0-.9.3-1.2c.2-.3.4-.4.8-.4ZM302.6,150c-.2,0-.4.1-.5.3s-.2.5-.2.9,0,.7.2.9.3.3.5.3.4-.1.5-.3c.1-.2.2-.5.2-.9s0-.7-.2-.9c-.1-.2-.3-.3-.5-.3Z"/>
  <line x1="151.5" y1="146.7" x2="150" y2="146.7"/>
  <line class="st2" x1="151.5" y1="146.7" x2="150" y2="146.7"/>
  <path d="M143.2,145.2c.3,0,.6.1.8.4.2.3.3.7.3,1.2s0,.9-.3,1.2c-.2.3-.4.4-.8.4s-.6-.1-.8-.4c-.2-.3-.3-.7-.3-1.2s0-.9.3-1.2c.2-.3.4-.4.8-.4ZM143.2,145.5c-.2,0-.4.1-.5.3s-.2.5-.2.9,0,.7.2.9.3.3.5.3.4-.1.5-.3c.1-.2.2-.5.2-.9s0-.7-.2-.9c-.1-.2-.3-.3-.5-.3Z"/>
  <rect x="145" y="147.7" width=".4" height=".5"/>
  <path d="M147.2,145.2c.3,0,.6.1.8.4.2.3.3.7.3,1.2s0,.9-.3,1.2c-.2.3-.4.4-.8.4s-.6-.1-.8-.4c-.2-.3-.3-.7-.3-1.2s0-.9.3-1.2c.2-.3.4-.4.8-.4ZM147.2,145.5c-.2,0-.4.1-.5.3s-.2.5-.2.9,0,.7.2.9.3.3.5.3.4-.1.5-.3c.1-.2.2-.5.2-.9s0-.7-.2-.9c-.1-.2-.3-.3-.5-.3Z"/>
  <line x1="151.5" y1="125.5" x2="150" y2="125.5"/>
  <line class="st2" x1="151.5" y1="125.5" x2="150" y2="125.5"/>
  <path d="M143.2,124c.3,0,.6.1.8.4.2.3.3.7.3,1.2s0,.9-.3,1.2c-.2.3-.4.4-.8.4s-.6-.1-.8-.4c-.2-.3-.3-.7-.3-1.2s0-.9.3-1.2c.2-.3.4-.4.8-.4ZM143.2,124.3c-.2,0-.4.1-.5.3s-.2.5-.2.9,0,.7.2.9.3.3.5.3.4-.1.5-.3c.1-.2.2-.5.2-.9s0-.7-.2-.9c-.1-.2-.3-.3-.5-.3Z"/>
  <rect x="145" y="126.6" width=".4" height=".5"/>
  <path d="M146.7,126.8h1.4v.3h-1.9v-.3c.2-.2.4-.4.6-.7.3-.3.4-.4.5-.5.1-.1.2-.3.3-.4,0-.1,0-.2,0-.3,0-.2,0-.3-.2-.4-.1-.1-.3-.2-.4-.2s-.3,0-.4,0c-.1,0-.3.1-.5.2v-.4c.2,0,.3-.1.5-.2.1,0,.3,0,.4,0,.3,0,.6,0,.8.2s.3.4.3.6,0,.2,0,.4c0,.1-.1.2-.3.4,0,0-.1.2-.3.3-.2.2-.4.5-.8.8Z"/>
  <line x1="151.5" y1="104.4" x2="150" y2="104.4"/>
  <line class="st2" x1="151.5" y1="104.4" x2="150" y2="104.4"/>
  <path d="M143.2,102.8c.3,0,.6.1.8.4.2.3.3.7.3,1.2s0,.9-.3,1.2c-.2.3-.4.4-.8.4s-.6-.1-.8-.4c-.2-.3-.3-.7-.3-1.2s0-.9.3-1.2c.2-.3.4-.4.8-.4ZM143.2,103.2c-.2,0-.4.1-.5.3s-.2.5-.2.9,0,.7.2.9.3.3.5.3.4-.1.5-.3c.1-.2.2-.5.2-.9s0-.7-.2-.9c-.1-.2-.3-.3-.5-.3Z"/>
  <rect x="145" y="105.4" width=".4" height=".5"/>
  <path d="M147.4,102.9h.5v2h.4v.3h-.4v.7h-.4v-.7h-1.4v-.4l1.3-1.9ZM147.5,103.3l-1,1.6h1v-1.6Z"/>
  <line x1="151.5" y1="83.2" x2="150" y2="83.2"/>
  <line class="st2" x1="151.5" y1="83.2" x2="150" y2="83.2"/>
  <path d="M143.2,81.7c.3,0,.6.1.8.4.2.3.3.7.3,1.2s0,.9-.3,1.2c-.2.3-.4.4-.8.4s-.6-.1-.8-.4c-.2-.3-.3-.7-.3-1.2s0-.9.3-1.2c.2-.3.4-.4.8-.4ZM143.2,82c-.2,0-.4.1-.5.3s-.2.5-.2.9,0,.7.2.9.3.3.5.3.4-.1.5-.3c.1-.2.2-.5.2-.9s0-.7-.2-.9c-.1-.2-.3-.3-.5-.3Z"/>
  <rect x="145" y="84.3" width=".4" height=".5"/>
  <path d="M148.1,81.8v.4c-.1,0-.2,0-.3-.1-.1,0-.2,0-.3,0-.3,0-.5,0-.6.3-.1.2-.2.5-.2.8,0-.1.2-.2.3-.3.1,0,.3,0,.4,0,.3,0,.5,0,.7.3.2.2.3.4.3.8s0,.6-.3.8c-.2.2-.4.3-.7.3s-.6-.1-.8-.4c-.2-.3-.3-.7-.3-1.2s.1-.9.3-1.2c.2-.3.5-.4.9-.4s.2,0,.3,0c.1,0,.2,0,.3,0ZM147.3,83.1c-.2,0-.3,0-.4.2s-.2.3-.2.5,0,.4.2.5c.1.1.3.2.4.2s.3,0,.4-.2c.1-.1.2-.3.2-.5s0-.4-.2-.5-.3-.2-.4-.2Z"/>
  <line x1="151.5" y1="62" x2="150" y2="62"/>
  <line class="st2" x1="151.5" y1="62" x2="150" y2="62"/>
  <path d="M143.2,60.5c.3,0,.6.1.8.4.2.3.3.7.3,1.2s0,.9-.3,1.2c-.2.3-.4.4-.8.4s-.6-.1-.8-.4c-.2-.3-.3-.7-.3-1.2s0-.9.3-1.2c.2-.3.4-.4.8-.4ZM143.2,60.9c-.2,0-.4.1-.5.3s-.2.5-.2.9,0,.7.2.9.3.3.5.3.4-.1.5-.3c.1-.2.2-.5.2-.9s0-.7-.2-.9c-.1-.2-.3-.3-.5-.3Z"/>
  <rect x="145" y="63.1" width=".4" height=".5"/>
  <path d="M146.7,61.4c0,.2,0,.3.1.4.1,0,.2.1.4.1s.3,0,.4-.1c.1,0,.2-.2.2-.4s0-.3-.2-.4c-.1,0-.2-.1-.4-.1s-.3,0-.4.1-.1.2-.1.4ZM146.8,62c-.2,0-.3-.1-.4-.2-.1-.1-.1-.3-.1-.4s0-.4.3-.6c.2-.1.4-.2.7-.2s.5,0,.7.2c.2.1.3.3.3.6s0,.3-.2.4c-.1.1-.2.2-.4.2.2,0,.4.1.5.3.1.1.2.3.2.5,0,.3,0,.5-.3.7-.2.2-.4.2-.8.2s-.6,0-.8-.2c-.2-.2-.3-.4-.3-.7s0-.4.2-.5c.1-.1.3-.2.5-.3ZM147.2,62.2c-.2,0-.4,0-.5.2s-.2.2-.2.4,0,.3.2.4.3.2.5.2.3,0,.5-.2c.1-.1.2-.2.2-.4s0-.3-.2-.4c-.1-.1-.3-.2-.5-.2Z"/>
  <line x1="151.5" y1="40.9" x2="150" y2="40.9"/>
  <line class="st2" x1="151.5" y1="40.9" x2="150" y2="40.9"/>
  <polygon points="142.4 42.1 143.1 42.1 143.1 39.8 142.3 39.9 142.3 39.6 143.1 39.4 143.5 39.4 143.5 42.1 144.2 42.1 144.2 42.5 142.4 42.5 142.4 42.1"/>
  <rect x="145" y="42" width=".4" height=".5"/>
  <path d="M147.2,39.4c.3,0,.6.1.8.4.2.3.3.7.3,1.2s0,.9-.3,1.2c-.2.3-.4.4-.8.4s-.6-.1-.8-.4c-.2-.3-.3-.7-.3-1.2s0-.9.3-1.2c.2-.3.4-.4.8-.4ZM147.2,39.7c-.2,0-.4.1-.5.3s-.2.5-.2.9,0,.7.2.9.3.3.5.3.4-.1.5-.3c.1-.2.2-.5.2-.9s0-.7-.2-.9c-.1-.2-.3-.3-.5-.3Z"/>
  <line class="st3" x1="151.5" y1="146.7" x2="151.5" y2="40.9"/>
  <line class="st3" x1="300.6" y1="146.7" x2="300.6" y2="40.9"/>
  <line class="st3" x1="151.5" y1="146.7" x2="300.6" y2="146.7"/>
  <line class="st3" x1="151.5" y1="40.9" x2="300.6" y2="40.9"/>
  <rect class="st5" x="330.4" y="40.9" width="149.1" height="105.8"/>
  <line x1="330.4" y1="146.7" x2="330.4" y2="148.1"/>
  <line class="st2" x1="330.4" y1="146.7" x2="330.4" y2="148.1"/>
  <path d="M328.4,149.7c.3,0,.6.1.8.4.2.3.3.7.3,1.2s0,.9-.3,1.2c-.2.3-.4.4-.8.4s-.6-.1-.8-.4c-.2-.3-.3-.7-.3-1.2s0-.9.3-1.2c.2-.3.4-.4.8-.4ZM328.4,150c-.2,0-.4.1-.5.3-.1.2-.2.5-.2.9s0,.7.2.9c.1.2.3.3.5.3s.4-.1.5-.3c.1-.2.2-.5.2-.9s0-.7-.2-.9c-.1-.2-.3-.3-.5-.3Z"/>
  <rect x="330.2" y="152.3" width=".4" height=".5"/>
  <path d="M332.4,149.7c.3,0,.6.1.8.4.2.3.3.7.3,1.2s0,.9-.3,1.2c-.2.3-.4.4-.8.4s-.6-.1-.8-.4c-.2-.3-.3-.7-.3-1.2s0-.9.3-1.2c.2-.3.4-.4.8-.4ZM332.4,150c-.2,0-.4.1-.5.3-.1.2-.2.5-.2.9s0,.7.2.9c.1.2.3.3.5.3s.4-.1.5-.3c.1-.2.2-.5.2-.9s0-.7-.2-.9c-.1-.2-.3-.3-.5-.3Z"/>
  <line x1="360.2" y1="146.7" x2="360.2" y2="148.1"/>
  <line class="st2" x1="360.2" y1="146.7" x2="360.2" y2="148.1"/>
  <path d="M358.2,149.7c.3,0,.6.1.8.4.2.3.3.7.3,1.2s0,.9-.3,1.2c-.2.3-.4.4-.8.4s-.6-.1-.8-.4c-.2-.3-.3-.7-.3-1.2s0-.9.3-1.2c.2-.3.4-.4.8-.4ZM358.2,150c-.2,0-.4.1-.5.3-.1.2-.2.5-.2.9s0,.7.2.9c.1.2.3.3.5.3s.4-.1.5-.3c.1-.2.2-.5.2-.9s0-.7-.2-.9c-.1-.2-.3-.3-.5-.3Z"/>
  <rect x="360" y="152.3" width=".4" height=".5"/>
  <path d="M361.7,152.5h1.4v.3h-1.9v-.3c.2-.2.4-.4.6-.7.3-.3.4-.4.5-.5.1-.1.2-.3.3-.4,0-.1,0-.2,0-.3,0-.2,0-.3-.2-.4-.1-.1-.3-.2-.4-.2s-.3,0-.4,0c-.1,0-.3.1-.5.2v-.4c.2,0,.3-.1.5-.2.1,0,.3,0,.4,0,.3,0,.6,0,.8.2s.3.4.3.6,0,.2,0,.4c0,.1-.1.2-.3.4,0,0-.1.2-.3.3s-.4.5-.8.8Z"/>
  <line x1="390" y1="146.7" x2="390" y2="148.1"/>
  <line class="st2" x1="390" y1="146.7" x2="390" y2="148.1"/>
  <path d="M388,149.7c.3,0,.6.1.8.4.2.3.3.7.3,1.2s0,.9-.3,1.2c-.2.3-.4.4-.8.4s-.6-.1-.8-.4c-.2-.3-.3-.7-.3-1.2s0-.9.3-1.2c.2-.3.4-.4.8-.4ZM388,150c-.2,0-.4.1-.5.3-.1.2-.2.5-.2.9s0,.7.2.9c.1.2.3.3.5.3s.4-.1.5-.3c.1-.2.2-.5.2-.9s0-.7-.2-.9c-.1-.2-.3-.3-.5-.3Z"/>
  <rect x="389.8" y="152.3" width=".4" height=".5"/>
  <path d="M392.1,149.7h.5v2h.4v.3h-.4v.7h-.4v-.7h-1.4v-.4l1.3-1.9ZM392.3,150.1l-1,1.6h1v-1.6Z"/>
  <line x1="419.8" y1="146.7" x2="419.8" y2="148.1"/>
  <line class="st2" x1="419.8" y1="146.7" x2="419.8" y2="148.1"/>
  <path d="M417.8,149.7c.3,0,.6.1.8.4.2.3.3.7.3,1.2s0,.9-.3,1.2c-.2.3-.4.4-.8.4s-.6-.1-.8-.4c-.2-.3-.3-.7-.3-1.2s0-.9.3-1.2c.2-.3.4-.4.8-.4ZM417.8,150c-.2,0-.4.1-.5.3-.1.2-.2.5-.2.9s0,.7.2.9c.1.2.3.3.5.3s.4-.1.5-.3c.1-.2.2-.5.2-.9s0-.7-.2-.9c-.1-.2-.3-.3-.5-.3Z"/>
  <rect x="419.6" y="152.3" width=".4" height=".5"/>
  <path d="M422.7,149.8v.4c-.1,0-.2,0-.3-.1-.1,0-.2,0-.3,0-.3,0-.5,0-.6.3-.1.2-.2.5-.2.8,0-.1.2-.2.3-.3.1,0,.3,0,.4,0,.3,0,.5,0,.7.3.2.2.3.4.3.8s0,.6-.3.8c-.2.2-.4.3-.7.3s-.6-.1-.8-.4c-.2-.3-.3-.7-.3-1.2s.1-.9.3-1.2c.2-.3.5-.4.9-.4s.2,0,.3,0c.1,0,.2,0,.3,0ZM421.9,151.1c-.2,0-.3,0-.4.2-.1.1-.2.3-.2.5s0,.4.2.5c.1.1.3.2.4.2s.3,0,.4-.2c.1-.1.2-.3.2-.5s0-.4-.2-.5c-.1-.1-.3-.2-.4-.2Z"/>
  <line x1="449.6" y1="146.7" x2="449.6" y2="148.1"/>
  <line class="st2" x1="449.6" y1="146.7" x2="449.6" y2="148.1"/>
  <path d="M447.6,149.7c.3,0,.6.1.8.4.2.3.3.7.3,1.2s0,.9-.3,1.2c-.2.3-.4.4-.8.4s-.6-.1-.8-.4c-.2-.3-.3-.7-.3-1.2s0-.9.3-1.2c.2-.3.4-.4.8-.4ZM447.6,150c-.2,0-.4.1-.5.3-.1.2-.2.5-.2.9s0,.7.2.9c.1.2.3.3.5.3s.4-.1.5-.3c.1-.2.2-.5.2-.9s0-.7-.2-.9c-.1-.2-.3-.3-.5-.3Z"/>
  <rect x="449.4" y="152.3" width=".4" height=".5"/>
  <path d="M451.1,150.5c0,.2,0,.3.1.4.1,0,.2.1.4.1s.3,0,.4-.1c.1,0,.2-.2.2-.4s0-.3-.2-.4-.2-.1-.4-.1-.3,0-.4.1-.1.2-.1.4ZM451.2,151.2c-.2,0-.3-.1-.4-.2s-.1-.3-.1-.4,0-.4.3-.6c.2-.1.4-.2.7-.2s.5,0,.7.2c.2.1.3.3.3.6s0,.3-.2.4c-.1.1-.2.2-.4.2.2,0,.4.1.5.3.1.1.2.3.2.5,0,.3,0,.5-.3.7-.2.2-.4.2-.8.2s-.6,0-.8-.2c-.2-.2-.3-.4-.3-.7s0-.4.2-.5c.1-.1.3-.2.5-.3ZM451.6,151.3c-.2,0-.4,0-.5.2s-.2.2-.2.4,0,.3.2.4.3.2.5.2.3,0,.5-.2c.1-.1.2-.2.2-.4s0-.3-.2-.4c-.1-.1-.3-.2-.5-.2Z"/>
  <line x1="479.4" y1="146.7" x2="479.4" y2="148.1"/>
  <line class="st2" x1="479.4" y1="146.7" x2="479.4" y2="148.1"/>
  <polygon points="476.6 152.5 477.3 152.5 477.3 150.1 476.6 150.3 476.6 149.9 477.3 149.7 477.7 149.7 477.7 152.5 478.4 152.5 478.4 152.8 476.6 152.8 476.6 152.5"/>
  <rect x="479.2" y="152.3" width=".4" height=".5"/>
  <path d="M481.4,149.7c.3,0,.6.1.8.4.2.3.3.7.3,1.2s0,.9-.3,1.2c-.2.3-.4.4-.8.4s-.6-.1-.8-.4c-.2-.3-.3-.7-.3-1.2s0-.9.3-1.2c.2-.3.4-.4.8-.4ZM481.4,150c-.2,0-.4.1-.5.3-.1.2-.2.5-.2.9s0,.7.2.9c.1.2.3.3.5.3s.4-.1.5-.3c.1-.2.2-.5.2-.9s0-.7-.2-.9c-.1-.2-.3-.3-.5-.3Z"/>
  <line x1="330.4" y1="146.7" x2="328.9" y2="146.7"/>
  <line class="st2" x1="330.4" y1="146.7" x2="328.9" y2="146.7"/>
  <path d="M322.1,145.2c.3,0,.6.1.8.4.2.3.3.7.3,1.2s0,.9-.3,1.2c-.2.3-.4.4-.8.4s-.6-.1-.8-.4c-.2-.3-.3-.7-.3-1.2s0-.9.3-1.2c.2-.3.4-.4.8-.4ZM322.1,145.5c-.2,0-.4.1-.5.3-.1.2-.2.5-.2.9s0,.7.2.9c.1.2.3.3.5.3s.4-.1.5-.3c.1-.2.2-.5.2-.9s0-.7-.2-.9c-.1-.2-.3-.3-.5-.3Z"/>
  <rect x="323.9" y="147.7" width=".4" height=".5"/>
  <path d="M326.1,145.2c.3,0,.6.1.8.4.2.3.3.7.3,1.2s0,.9-.3,1.2c-.2.3-.4.4-.8.4s-.6-.1-.8-.4c-.2-.3-.3-.7-.3-1.2s0-.9.3-1.2c.2-.3.4-.4.8-.4ZM326.1,145.5c-.2,0-.4.1-.5.3-.1.2-.2.5-.2.9s0,.7.2.9c.1.2.3.3.5.3s.4-.1.5-.3c.1-.2.2-.5.2-.9s0-.7-.2-.9c-.1-.2-.3-.3-.5-.3Z"/>
  <line x1="330.4" y1="125.5" x2="328.9" y2="125.5"/>
  <line class="st2" x1="330.4" y1="125.5" x2="328.9" y2="125.5"/>
  <path d="M322.1,124c.3,0,.6.1.8.4.2.3.3.7.3,1.2s0,.9-.3,1.2c-.2.3-.4.4-.8.4s-.6-.1-.8-.4c-.2-.3-.3-.7-.3-1.2s0-.9.3-1.2c.2-.3.4-.4.8-.4ZM322.1,124.3c-.2,0-.4.1-.5.3-.1.2-.2.5-.2.9s0,.7.2.9c.1.2.3.3.5.3s.4-.1.5-.3c.1-.2.2-.5.2-.9s0-.7-.2-.9c-.1-.2-.3-.3-.5-.3Z"/>
  <rect x="323.9" y="126.6" width=".4" height=".5"/>
  <path d="M325.6,126.8h1.4v.3h-1.9v-.3c.2-.2.4-.4.6-.7.3-.3.4-.4.5-.5.1-.1.2-.3.3-.4,0-.1,0-.2,0-.3,0-.2,0-.3-.2-.4-.1-.1-.3-.2-.4-.2s-.3,0-.4,0c-.1,0-.3.1-.5.2v-.4c.2,0,.3-.1.5-.2.1,0,.3,0,.4,0,.3,0,.6,0,.8.2s.3.4.3.6,0,.2,0,.4c0,.1-.1.2-.3.4,0,0-.1.2-.3.3s-.4.5-.8.8Z"/>
  <line x1="330.4" y1="104.4" x2="328.9" y2="104.4"/>
  <line class="st2" x1="330.4" y1="104.4" x2="328.9" y2="104.4"/>
  <path d="M322.1,102.8c.3,0,.6.1.8.4.2.3.3.7.3,1.2s0,.9-.3,1.2c-.2.3-.4.4-.8.4s-.6-.1-.8-.4c-.2-.3-.3-.7-.3-1.2s0-.9.3-1.2c.2-.3.4-.4.8-.4ZM322.1,103.2c-.2,0-.4.1-.5.3-.1.2-.2.5-.2.9s0,.7.2.9c.1.2.3.3.5.3s.4-.1.5-.3c.1-.2.2-.5.2-.9s0-.7-.2-.9c-.1-.2-.3-.3-.5-.3Z"/>
  <rect x="323.9" y="105.4" width=".4" height=".5"/>
  <path d="M326.2,102.9h.5v2h.4v.3h-.4v.7h-.4v-.7h-1.4v-.4l1.3-1.9ZM326.4,103.3l-1,1.6h1v-1.6Z"/>
  <line x1="330.4" y1="83.2" x2="328.9" y2="83.2"/>
  <line class="st2" x1="330.4" y1="83.2" x2="328.9" y2="83.2"/>
  <path d="M322.1,81.7c.3,0,.6.1.8.4.2.3.3.7.3,1.2s0,.9-.3,1.2c-.2.3-.4.4-.8.4s-.6-.1-.8-.4c-.2-.3-.3-.7-.3-1.2s0-.9.3-1.2c.2-.3.4-.4.8-.4ZM322.1,82c-.2,0-.4.1-.5.3-.1.2-.2.5-.2.9s0,.7.2.9c.1.2.3.3.5.3s.4-.1.5-.3c.1-.2.2-.5.2-.9s0-.7-.2-.9c-.1-.2-.3-.3-.5-.3Z"/>
  <rect x="323.9" y="84.3" width=".4" height=".5"/>
  <path d="M327,81.8v.4c-.1,0-.2,0-.3-.1-.1,0-.2,0-.3,0-.3,0-.5,0-.6.3-.1.2-.2.5-.2.8,0-.1.2-.2.3-.3.1,0,.3,0,.4,0,.3,0,.5,0,.7.3.2.2.3.4.3.8s0,.6-.3.8c-.2.2-.4.3-.7.3s-.6-.1-.8-.4c-.2-.3-.3-.7-.3-1.2s.1-.9.3-1.2c.2-.3.5-.4.9-.4s.2,0,.3,0c.1,0,.2,0,.3,0ZM326.1,83.1c-.2,0-.3,0-.4.2s-.2.3-.2.5,0,.4.2.5c.1.1.3.2.4.2s.3,0,.4-.2c.1-.1.2-.3.2-.5s0-.4-.2-.5c-.1-.1-.3-.2-.4-.2Z"/>
  <line x1="330.4" y1="62" x2="328.9" y2="62"/>
  <line class="st2" x1="330.4" y1="62" x2="328.9" y2="62"/>
  <path d="M322.1,60.5c.3,0,.6.1.8.4.2.3.3.7.3,1.2s0,.9-.3,1.2c-.2.3-.4.4-.8.4s-.6-.1-.8-.4c-.2-.3-.3-.7-.3-1.2s0-.9.3-1.2c.2-.3.4-.4.8-.4ZM322.1,60.9c-.2,0-.4.1-.5.3-.1.2-.2.5-.2.9s0,.7.2.9c.1.2.3.3.5.3s.4-.1.5-.3c.1-.2.2-.5.2-.9s0-.7-.2-.9c-.1-.2-.3-.3-.5-.3Z"/>
  <rect x="323.9" y="63.1" width=".4" height=".5"/>
  <path d="M325.5,61.4c0,.2,0,.3.1.4.1,0,.2.1.4.1s.3,0,.4-.1c.1,0,.2-.2.2-.4s0-.3-.2-.4-.2-.1-.4-.1-.3,0-.4.1-.1.2-.1.4ZM325.7,62c-.2,0-.3-.1-.4-.2-.1-.1-.1-.3-.1-.4s0-.4.3-.6c.2-.1.4-.2.7-.2s.5,0,.7.2c.2.1.3.3.3.6s0,.3-.2.4c-.1.1-.2.2-.4.2.2,0,.4.1.5.3.1.1.2.3.2.5,0,.3,0,.5-.3.7-.2.2-.4.2-.8.2s-.6,0-.8-.2c-.2-.2-.3-.4-.3-.7s0-.4.2-.5c.1-.1.3-.2.5-.3ZM326.1,62.2c-.2,0-.4,0-.5.2s-.2.2-.2.4,0,.3.2.4.3.2.5.2.3,0,.5-.2c.1-.1.2-.2.2-.4s0-.3-.2-.4c-.1-.1-.3-.2-.5-.2Z"/>
  <line x1="330.4" y1="40.9" x2="328.9" y2="40.9"/>
  <line class="st2" x1="330.4" y1="40.9" x2="328.9" y2="40.9"/>
  <polygon points="321.3 42.1 322 42.1 322 39.8 321.2 39.9 321.2 39.6 322 39.4 322.4 39.4 322.4 42.1 323 42.1 323 42.5 321.3 42.5 321.3 42.1"/>
  <rect x="323.9" y="42" width=".4" height=".5"/>
  <path d="M326.1,39.4c.3,0,.6.1.8.4.2.3.3.7.3,1.2s0,.9-.3,1.2c-.2.3-.4.4-.8.4s-.6-.1-.8-.4c-.2-.3-.3-.7-.3-1.2s0-.9.3-1.2c.2-.3.4-.4.8-.4ZM326.1,39.7c-.2,0-.4.1-.5.3-.1.2-.2.5-.2.9s0,.7.2.9c.1.2.3.3.5.3s.4-.1.5-.3c.1-.2.2-.5.2-.9s0-.7-.2-.9c-.1-.2-.3-.3-.5-.3Z"/>
  <line class="st3" x1="330.4" y1="146.7" x2="330.4" y2="40.9"/>
  <line class="st3" x1="479.4" y1="146.7" x2="479.4" y2="40.9"/>
  <line class="st3" x1="330.4" y1="146.7" x2="479.4" y2="146.7"/>
  <line class="st3" x1="330.4" y1="40.9" x2="479.4" y2="40.9"/>
  <rect class="st5" x="151.5" y="167.8" width="149.1" height="105.8"/>
  <line x1="151.5" y1="273.6" x2="151.5" y2="275.1"/>
  <line class="st2" x1="151.5" y1="273.6" x2="151.5" y2="275.1"/>
  <path d="M149.5,276.6c.3,0,.6.1.8.4.2.3.3.7.3,1.2s0,.9-.3,1.2c-.2.3-.4.4-.8.4s-.6-.1-.8-.4-.3-.7-.3-1.2,0-.9.3-1.2c.2-.3.4-.4.8-.4ZM149.5,277c-.2,0-.4.1-.5.3s-.2.5-.2.9,0,.7.2.9.3.3.5.3.4-.1.5-.3c.1-.2.2-.5.2-.9s0-.7-.2-.9c-.1-.2-.3-.3-.5-.3Z"/>
  <rect x="151.3" y="279.2" width=".4" height=".5"/>
  <path d="M153.5,276.6c.3,0,.6.1.8.4.2.3.3.7.3,1.2s0,.9-.3,1.2c-.2.3-.4.4-.8.4s-.6-.1-.8-.4c-.2-.3-.3-.7-.3-1.2s0-.9.3-1.2c.2-.3.4-.4.8-.4ZM153.5,277c-.2,0-.4.1-.5.3s-.2.5-.2.9,0,.7.2.9.3.3.5.3.4-.1.5-.3c.1-.2.2-.5.2-.9s0-.7-.2-.9c-.1-.2-.3-.3-.5-.3Z"/>
  <line x1="181.3" y1="273.6" x2="181.3" y2="275.1"/>
  <line class="st2" x1="181.3" y1="273.6" x2="181.3" y2="275.1"/>
  <path d="M179.3,276.6c.3,0,.6.1.8.4.2.3.3.7.3,1.2s0,.9-.3,1.2c-.2.3-.4.4-.8.4s-.6-.1-.8-.4c-.2-.3-.3-.7-.3-1.2s0-.9.3-1.2c.2-.3.4-.4.8-.4ZM179.3,277c-.2,0-.4.1-.5.3s-.2.5-.2.9,0,.7.2.9.3.3.5.3.4-.1.5-.3c.1-.2.2-.5.2-.9s0-.7-.2-.9c-.1-.2-.3-.3-.5-.3Z"/>
  <rect x="181.1" y="279.2" width=".4" height=".5"/>
  <path d="M182.8,279.4h1.4v.3h-1.9v-.3c.2-.2.4-.4.6-.7.3-.3.4-.4.5-.5.1-.1.2-.3.3-.4,0-.1,0-.2,0-.3,0-.2,0-.3-.2-.4s-.3-.2-.4-.2-.3,0-.4,0c-.1,0-.3.1-.5.2v-.4c.2,0,.3-.1.5-.2.1,0,.3,0,.4,0,.3,0,.6,0,.8.2.2.2.3.4.3.6s0,.2,0,.4c0,.1-.1.2-.3.4,0,0-.1.2-.3.3-.2.2-.4.5-.8.8Z"/>
  <line x1="211.1" y1="273.6" x2="211.1" y2="275.1"/>
  <line class="st2" x1="211.1" y1="273.6" x2="211.1" y2="275.1"/>
  <path d="M209.1,276.6c.3,0,.6.1.8.4.2.3.3.7.3,1.2s0,.9-.3,1.2c-.2.3-.4.4-.8.4s-.6-.1-.8-.4c-.2-.3-.3-.7-.3-1.2s0-.9.3-1.2c.2-.3.4-.4.8-.4ZM209.1,277c-.2,0-.4.1-.5.3s-.2.5-.2.9,0,.7.2.9.3.3.5.3.4-.1.5-.3c.1-.2.2-.5.2-.9s0-.7-.2-.9c-.1-.2-.3-.3-.5-.3Z"/>
  <rect x="210.9" y="279.2" width=".4" height=".5"/>
  <path d="M213.3,276.7h.5v2h.4v.3h-.4v.7h-.4v-.7h-1.4v-.4l1.3-1.9ZM213.4,277l-1,1.6h1v-1.6Z"/>
  <line x1="240.9" y1="273.6" x2="240.9" y2="275.1"/>
  <line class="st2" x1="240.9" y1="273.6" x2="240.9" y2="275.1"/>
  <path d="M238.9,276.6c.3,0,.6.1.8.4.2.3.3.7.3,1.2s0,.9-.3,1.2c-.2.3-.4.4-.8.4s-.6-.1-.8-.4c-.2-.3-.3-.7-.3-1.2s0-.9.3-1.2c.2-.3.4-.4.8-.4ZM238.9,277c-.2,0-.4.1-.5.3s-.2.5-.2.9,0,.7.2.9.3.3.5.3.4-.1.5-.3c.1-.2.2-.5.2-.9s0-.7-.2-.9c-.1-.2-.3-.3-.5-.3Z"/>
  <rect x="240.7" y="279.2" width=".4" height=".5"/>
  <path d="M243.8,276.8v.4c-.1,0-.2,0-.3-.1-.1,0-.2,0-.3,0-.3,0-.5,0-.6.3s-.2.5-.2.8c0-.1.2-.2.3-.3.1,0,.3,0,.4,0,.3,0,.5,0,.7.3.2.2.3.4.3.8s0,.6-.3.8c-.2.2-.4.3-.7.3s-.6-.1-.8-.4c-.2-.3-.3-.7-.3-1.2s.1-.9.3-1.2c.2-.3.5-.4.9-.4s.2,0,.3,0c.1,0,.2,0,.3,0ZM243,278c-.2,0-.3,0-.4.2-.1.1-.2.3-.2.5s0,.4.2.5c.1.1.3.2.4.2s.3,0,.4-.2c.1-.1.2-.3.2-.5s0-.4-.2-.5c-.1-.1-.3-.2-.4-.2Z"/>
  <line x1="270.8" y1="273.6" x2="270.8" y2="275.1"/>
  <line class="st2" x1="270.8" y1="273.6" x2="270.8" y2="275.1"/>
  <path d="M268.7,276.6c.3,0,.6.1.8.4.2.3.3.7.3,1.2s0,.9-.3,1.2c-.2.3-.4.4-.8.4s-.6-.1-.8-.4c-.2-.3-.3-.7-.3-1.2s0-.9.3-1.2c.2-.3.4-.4.8-.4ZM268.7,277c-.2,0-.4.1-.5.3s-.2.5-.2.9,0,.7.2.9.3.3.5.3.4-.1.5-.3c.1-.2.2-.5.2-.9s0-.7-.2-.9c-.1-.2-.3-.3-.5-.3Z"/>
  <rect x="270.5" y="279.2" width=".4" height=".5"/>
  <path d="M272.2,277.5c0,.2,0,.3.1.4.1,0,.2.1.4.1s.3,0,.4-.1c.1,0,.2-.2.2-.4s0-.3-.2-.4c-.1,0-.2-.1-.4-.1s-.3,0-.4.1c-.1,0-.1.2-.1.4ZM272.3,278.1c-.2,0-.3-.1-.4-.2-.1-.1-.1-.3-.1-.4s0-.4.3-.6c.2-.1.4-.2.7-.2s.5,0,.7.2c.2.1.3.3.3.6s0,.3-.2.4c-.1.1-.2.2-.4.2.2,0,.4.1.5.3.1.1.2.3.2.5,0,.3,0,.5-.3.7-.2.2-.4.2-.8.2s-.6,0-.8-.2c-.2-.2-.3-.4-.3-.7s0-.4.2-.5c.1-.1.3-.2.5-.3ZM272.8,278.3c-.2,0-.4,0-.5.2-.1.1-.2.2-.2.4s0,.3.2.4c.1.1.3.2.5.2s.3,0,.5-.2c.1-.1.2-.2.2-.4s0-.3-.2-.4c-.1-.1-.3-.2-.5-.2Z"/>
  <line x1="300.6" y1="273.6" x2="300.6" y2="275.1"/>
  <line class="st2" x1="300.6" y1="273.6" x2="300.6" y2="275.1"/>
  <polygon points="297.7 279.4 298.4 279.4 298.4 277.1 297.7 277.2 297.7 276.8 298.4 276.7 298.8 276.7 298.8 279.4 299.5 279.4 299.5 279.7 297.7 279.7 297.7 279.4"/>
  <rect x="300.3" y="279.2" width=".4" height=".5"/>
  <path d="M302.6,276.6c.3,0,.6.1.8.4.2.3.3.7.3,1.2s0,.9-.3,1.2c-.2.3-.4.4-.8.4s-.6-.1-.8-.4c-.2-.3-.3-.7-.3-1.2s0-.9.3-1.2c.2-.3.4-.4.8-.4ZM302.6,277c-.2,0-.4.1-.5.3s-.2.5-.2.9,0,.7.2.9.3.3.5.3.4-.1.5-.3c.1-.2.2-.5.2-.9s0-.7-.2-.9c-.1-.2-.3-.3-.5-.3Z"/>
  <line x1="151.5" y1="273.6" x2="150" y2="273.6"/>
  <line class="st2" x1="151.5" y1="273.6" x2="150" y2="273.6"/>
  <path d="M143.2,272.1c.3,0,.6.1.8.4.2.3.3.7.3,1.2s0,.9-.3,1.2c-.2.3-.4.4-.8.4s-.6-.1-.8-.4-.3-.7-.3-1.2,0-.9.3-1.2c.2-.3.4-.4.8-.4ZM143.2,272.4c-.2,0-.4.1-.5.3s-.2.5-.2.9,0,.7.2.9.3.3.5.3.4-.1.5-.3c.1-.2.2-.5.2-.9s0-.7-.2-.9c-.1-.2-.3-.3-.5-.3Z"/>
  <rect x="145" y="274.7" width=".4" height=".5"/>
  <path d="M147.2,272.1c.3,0,.6.1.8.4.2.3.3.7.3,1.2s0,.9-.3,1.2c-.2.3-.4.4-.8.4s-.6-.1-.8-.4-.3-.7-.3-1.2,0-.9.3-1.2c.2-.3.4-.4.8-.4ZM147.2,272.4c-.2,0-.4.1-.5.3s-.2.5-.2.9,0,.7.2.9.3.3.5.3.4-.1.5-.3c.1-.2.2-.5.2-.9s0-.7-.2-.9c-.1-.2-.3-.3-.5-.3Z"/>
  <line x1="151.5" y1="252.5" x2="150" y2="252.5"/>
  <line class="st2" x1="151.5" y1="252.5" x2="150" y2="252.5"/>
  <path d="M143.2,250.9c.3,0,.6.1.8.4.2.3.3.7.3,1.2s0,.9-.3,1.2c-.2.3-.4.4-.8.4s-.6-.1-.8-.4-.3-.7-.3-1.2,0-.9.3-1.2c.2-.3.4-.4.8-.4ZM143.2,251.3c-.2,0-.4.1-.5.3s-.2.5-.2.9,0,.7.2.9.3.3.5.3.4-.1.5-.3c.1-.2.2-.5.2-.9s0-.7-.2-.9c-.1-.2-.3-.3-.5-.3Z"/>
  <rect x="145" y="253.5" width=".4" height=".5"/>
  <path d="M146.7,253.7h1.4v.3h-1.9v-.3c.2-.2.4-.4.6-.7.3-.3.4-.4.5-.5.1-.1.2-.3.3-.4,0-.1,0-.2,0-.3,0-.2,0-.3-.2-.4-.1-.1-.3-.2-.4-.2s-.3,0-.4,0c-.1,0-.3.1-.5.2v-.4c.2,0,.3-.1.5-.2.1,0,.3,0,.4,0,.3,0,.6,0,.8.2s.3.4.3.6,0,.2,0,.4c0,.1-.1.2-.3.4,0,0-.1.2-.3.3-.2.2-.4.5-.8.8Z"/>
  <line x1="151.5" y1="231.3" x2="150" y2="231.3"/>
  <line class="st2" x1="151.5" y1="231.3" x2="150" y2="231.3"/>
  <path d="M143.2,229.8c.3,0,.6.1.8.4.2.3.3.7.3,1.2s0,.9-.3,1.2c-.2.3-.4.4-.8.4s-.6-.1-.8-.4-.3-.7-.3-1.2,0-.9.3-1.2c.2-.3.4-.4.8-.4ZM143.2,230.1c-.2,0-.4.1-.5.3s-.2.5-.2.9,0,.7.2.9.3.3.5.3.4-.1.5-.3c.1-.2.2-.5.2-.9s0-.7-.2-.9c-.1-.2-.3-.3-.5-.3Z"/>
  <rect x="145" y="232.4" width=".4" height=".5"/>
  <path d="M147.4,229.8h.5v2h.4v.3h-.4v.7h-.4v-.7h-1.4v-.4l1.3-1.9ZM147.5,230.2l-1,1.6h1v-1.6Z"/>
  <line x1="151.5" y1="210.1" x2="150" y2="210.1"/>
  <line class="st2" x1="151.5" y1="210.1" x2="150" y2="210.1"/>
  <path d="M143.2,208.6c.3,0,.6.1.8.4.2.3.3.7.3,1.2s0,.9-.3,1.2c-.2.3-.4.4-.8.4s-.6-.1-.8-.4-.3-.7-.3-1.2,0-.9.3-1.2c.2-.3.4-.4.8-.4ZM143.2,209c-.2,0-.4.1-.5.3s-.2.5-.2.9,0,.7.2.9.3.3.5.3.4-.1.5-.3c.1-.2.2-.5.2-.9s0-.7-.2-.9c-.1-.2-.3-.3-.5-.3Z"/>
  <rect x="145" y="211.2" width=".4" height=".5"/>
  <path d="M148.1,208.7v.4c-.1,0-.2,0-.3-.1-.1,0-.2,0-.3,0-.3,0-.5,0-.6.3-.1.2-.2.5-.2.8,0-.1.2-.2.3-.3.1,0,.3,0,.4,0,.3,0,.5,0,.7.3.2.2.3.4.3.8s0,.6-.3.8c-.2.2-.4.3-.7.3s-.6-.1-.8-.4c-.2-.3-.3-.7-.3-1.2s.1-.9.3-1.2c.2-.3.5-.4.9-.4s.2,0,.3,0c.1,0,.2,0,.3,0ZM147.3,210c-.2,0-.3,0-.4.2s-.2.3-.2.5,0,.4.2.5.3.2.4.2.3,0,.4-.2.2-.3.2-.5,0-.4-.2-.5-.3-.2-.4-.2Z"/>
  <line x1="151.5" y1="189" x2="150" y2="189"/>
  <line class="st2" x1="151.5" y1="189" x2="150" y2="189"/>
  <path d="M143.2,187.5c.3,0,.6.1.8.4.2.3.3.7.3,1.2s0,.9-.3,1.2c-.2.3-.4.4-.8.4s-.6-.1-.8-.4c-.2-.3-.3-.7-.3-1.2s0-.9.3-1.2c.2-.3.4-.4.8-.4ZM143.2,187.8c-.2,0-.4.1-.5.3s-.2.5-.2.9,0,.7.2.9.3.3.5.3.4-.1.5-.3c.1-.2.2-.5.2-.9s0-.7-.2-.9c-.1-.2-.3-.3-.5-.3Z"/>
  <rect x="145" y="190.1" width=".4" height=".5"/>
  <path d="M146.7,188.3c0,.2,0,.3.1.4.1,0,.2.1.4.1s.3,0,.4-.1c.1,0,.2-.2.2-.4s0-.3-.2-.4c-.1,0-.2-.1-.4-.1s-.3,0-.4.1c-.1,0-.1.2-.1.4ZM146.8,189c-.2,0-.3-.1-.4-.2-.1-.1-.1-.3-.1-.4s0-.4.3-.6c.2-.1.4-.2.7-.2s.5,0,.7.2c.2.1.3.3.3.6s0,.3-.2.4-.2.2-.4.2c.2,0,.4.1.5.3.1.1.2.3.2.5,0,.3,0,.5-.3.7-.2.2-.4.2-.8.2s-.6,0-.8-.2c-.2-.2-.3-.4-.3-.7s0-.4.2-.5c.1-.1.3-.2.5-.3ZM147.2,189.1c-.2,0-.4,0-.5.2s-.2.2-.2.4,0,.3.2.4.3.2.5.2.3,0,.5-.2c.1-.1.2-.2.2-.4s0-.3-.2-.4c-.1-.1-.3-.2-.5-.2Z"/>
  <line x1="151.5" y1="167.8" x2="150" y2="167.8"/>
  <line class="st2" x1="151.5" y1="167.8" x2="150" y2="167.8"/>
  <polygon points="142.4 169.1 143.1 169.1 143.1 166.7 142.3 166.9 142.3 166.5 143.1 166.4 143.5 166.4 143.5 169.1 144.2 169.1 144.2 169.4 142.4 169.4 142.4 169.1"/>
  <rect x="145" y="168.9" width=".4" height=".5"/>
  <path d="M147.2,166.3c.3,0,.6.1.8.4.2.3.3.7.3,1.2s0,.9-.3,1.2c-.2.3-.4.4-.8.4s-.6-.1-.8-.4c-.2-.3-.3-.7-.3-1.2s0-.9.3-1.2c.2-.3.4-.4.8-.4ZM147.2,166.6c-.2,0-.4.1-.5.3s-.2.5-.2.9,0,.7.2.9.3.3.5.3.4-.1.5-.3c.1-.2.2-.5.2-.9s0-.7-.2-.9c-.1-.2-.3-.3-.5-.3Z"/>
  <line class="st3" x1="151.5" y1="273.6" x2="151.5" y2="167.8"/>
  <line class="st3" x1="300.6" y1="273.6" x2="300.6" y2="167.8"/>
  <line class="st3" x1="151.5" y1="273.6" x2="300.6" y2="273.6"/>
  <line class="st3" x1="151.5" y1="167.8" x2="300.6" y2="167.8"/>
  <rect class="st5" x="330.4" y="167.8" width="149.1" height="105.8"/>
  <line x1="330.4" y1="273.6" x2="330.4" y2="275.1"/>
  <line class="st2" x1="330.4" y1="273.6" x2="330.4" y2="275.1"/>
  <path d="M328.4,276.6c.3,0,.6.1.8.4.2.3.3.7.3,1.2s0,.9-.3,1.2c-.2.3-.4.4-.8.4s-.6-.1-.8-.4-.3-.7-.3-1.2,0-.9.3-1.2c.2-.3.4-.4.8-.4ZM328.4,277c-.2,0-.4.1-.5.3-.1.2-.2.5-.2.9s0,.7.2.9c.1.2.3.3.5.3s.4-.1.5-.3c.1-.2.2-.5.2-.9s0-.7-.2-.9c-.1-.2-.3-.3-.5-.3Z"/>
  <rect x="330.2" y="279.2" width=".4" height=".5"/>
  <path d="M332.4,276.6c.3,0,.6.1.8.4.2.3.3.7.3,1.2s0,.9-.3,1.2c-.2.3-.4.4-.8.4s-.6-.1-.8-.4-.3-.7-.3-1.2,0-.9.3-1.2c.2-.3.4-.4.8-.4ZM332.4,277c-.2,0-.4.1-.5.3-.1.2-.2.5-.2.9s0,.7.2.9c.1.2.3.3.5.3s.4-.1.5-.3c.1-.2.2-.5.2-.9s0-.7-.2-.9c-.1-.2-.3-.3-.5-.3Z"/>
  <line x1="360.2" y1="273.6" x2="360.2" y2="275.1"/>
  <line class="st2" x1="360.2" y1="273.6" x2="360.2" y2="275.1"/>
  <path d="M358.2,276.6c.3,0,.6.1.8.4.2.3.3.7.3,1.2s0,.9-.3,1.2c-.2.3-.4.4-.8.4s-.6-.1-.8-.4-.3-.7-.3-1.2,0-.9.3-1.2c.2-.3.4-.4.8-.4ZM358.2,277c-.2,0-.4.1-.5.3-.1.2-.2.5-.2.9s0,.7.2.9c.1.2.3.3.5.3s.4-.1.5-.3c.1-.2.2-.5.2-.9s0-.7-.2-.9c-.1-.2-.3-.3-.5-.3Z"/>
  <rect x="360" y="279.2" width=".4" height=".5"/>
  <path d="M361.7,279.4h1.4v.3h-1.9v-.3c.2-.2.4-.4.6-.7.3-.3.4-.4.5-.5.1-.1.2-.3.3-.4,0-.1,0-.2,0-.3,0-.2,0-.3-.2-.4-.1-.1-.3-.2-.4-.2s-.3,0-.4,0c-.1,0-.3.1-.5.2v-.4c.2,0,.3-.1.5-.2.1,0,.3,0,.4,0,.3,0,.6,0,.8.2.2.2.3.4.3.6s0,.2,0,.4c0,.1-.1.2-.3.4,0,0-.1.2-.3.3-.2.2-.4.5-.8.8Z"/>
  <line x1="390" y1="273.6" x2="390" y2="275.1"/>
  <line class="st2" x1="390" y1="273.6" x2="390" y2="275.1"/>
  <path d="M388,276.6c.3,0,.6.1.8.4.2.3.3.7.3,1.2s0,.9-.3,1.2c-.2.3-.4.4-.8.4s-.6-.1-.8-.4-.3-.7-.3-1.2,0-.9.3-1.2c.2-.3.4-.4.8-.4ZM388,277c-.2,0-.4.1-.5.3-.1.2-.2.5-.2.9s0,.7.2.9c.1.2.3.3.5.3s.4-.1.5-.3c.1-.2.2-.5.2-.9s0-.7-.2-.9c-.1-.2-.3-.3-.5-.3Z"/>
  <rect x="389.8" y="279.2" width=".4" height=".5"/>
  <path d="M392.1,276.7h.5v2h.4v.3h-.4v.7h-.4v-.7h-1.4v-.4l1.3-1.9ZM392.3,277l-1,1.6h1v-1.6Z"/>
  <line x1="419.8" y1="273.6" x2="419.8" y2="275.1"/>
  <line class="st2" x1="419.8" y1="273.6" x2="419.8" y2="275.1"/>
  <path d="M417.8,276.6c.3,0,.6.1.8.4.2.3.3.7.3,1.2s0,.9-.3,1.2c-.2.3-.4.4-.8.4s-.6-.1-.8-.4-.3-.7-.3-1.2,0-.9.3-1.2c.2-.3.4-.4.8-.4ZM417.8,277c-.2,0-.4.1-.5.3-.1.2-.2.5-.2.9s0,.7.2.9c.1.2.3.3.5.3s.4-.1.5-.3c.1-.2.2-.5.2-.9s0-.7-.2-.9c-.1-.2-.3-.3-.5-.3Z"/>
  <rect x="419.6" y="279.2" width=".4" height=".5"/>
  <path d="M422.7,276.8v.4c-.1,0-.2,0-.3-.1-.1,0-.2,0-.3,0-.3,0-.5,0-.6.3-.1.2-.2.5-.2.8,0-.1.2-.2.3-.3.1,0,.3,0,.4,0,.3,0,.5,0,.7.3.2.2.3.4.3.8s0,.6-.3.8c-.2.2-.4.3-.7.3s-.6-.1-.8-.4c-.2-.3-.3-.7-.3-1.2s.1-.9.3-1.2c.2-.3.5-.4.9-.4s.2,0,.3,0c.1,0,.2,0,.3,0ZM421.9,278c-.2,0-.3,0-.4.2-.1.1-.2.3-.2.5s0,.4.2.5c.1.1.3.2.4.2s.3,0,.4-.2c.1-.1.2-.3.2-.5s0-.4-.2-.5c-.1-.1-.3-.2-.4-.2Z"/>
  <line x1="449.6" y1="273.6" x2="449.6" y2="275.1"/>
  <line class="st2" x1="449.6" y1="273.6" x2="449.6" y2="275.1"/>
  <path d="M447.6,276.6c.3,0,.6.1.8.4.2.3.3.7.3,1.2s0,.9-.3,1.2c-.2.3-.4.4-.8.4s-.6-.1-.8-.4-.3-.7-.3-1.2,0-.9.3-1.2c.2-.3.4-.4.8-.4ZM447.6,277c-.2,0-.4.1-.5.3-.1.2-.2.5-.2.9s0,.7.2.9c.1.2.3.3.5.3s.4-.1.5-.3c.1-.2.2-.5.2-.9s0-.7-.2-.9c-.1-.2-.3-.3-.5-.3Z"/>
  <rect x="449.4" y="279.2" width=".4" height=".5"/>
  <path d="M451.1,277.5c0,.2,0,.3.1.4.1,0,.2.1.4.1s.3,0,.4-.1c.1,0,.2-.2.2-.4s0-.3-.2-.4-.2-.1-.4-.1-.3,0-.4.1-.1.2-.1.4ZM451.2,278.1c-.2,0-.3-.1-.4-.2s-.1-.3-.1-.4,0-.4.3-.6c.2-.1.4-.2.7-.2s.5,0,.7.2c.2.1.3.3.3.6s0,.3-.2.4c-.1.1-.2.2-.4.2.2,0,.4.1.5.3.1.1.2.3.2.5,0,.3,0,.5-.3.7-.2.2-.4.2-.8.2s-.6,0-.8-.2c-.2-.2-.3-.4-.3-.7s0-.4.2-.5c.1-.1.3-.2.5-.3ZM451.6,278.3c-.2,0-.4,0-.5.2s-.2.2-.2.4,0,.3.2.4.3.2.5.2.3,0,.5-.2c.1-.1.2-.2.2-.4s0-.3-.2-.4c-.1-.1-.3-.2-.5-.2Z"/>
  <line x1="479.4" y1="273.6" x2="479.4" y2="275.1"/>
  <line class="st2" x1="479.4" y1="273.6" x2="479.4" y2="275.1"/>
  <polygon points="476.6 279.4 477.3 279.4 477.3 277.1 476.6 277.2 476.6 276.8 477.3 276.7 477.7 276.7 477.7 279.4 478.4 279.4 478.4 279.7 476.6 279.7 476.6 279.4"/>
  <rect x="479.2" y="279.2" width=".4" height=".5"/>
  <path d="M481.4,276.6c.3,0,.6.1.8.4.2.3.3.7.3,1.2s0,.9-.3,1.2c-.2.3-.4.4-.8.4s-.6-.1-.8-.4-.3-.7-.3-1.2,0-.9.3-1.2c.2-.3.4-.4.8-.4ZM481.4,277c-.2,0-.4.1-.5.3-.1.2-.2.5-.2.9s0,.7.2.9c.1.2.3.3.5.3s.4-.1.5-.3c.1-.2.2-.5.2-.9s0-.7-.2-.9c-.1-.2-.3-.3-.5-.3Z"/>
  <line x1="330.4" y1="273.6" x2="328.9" y2="273.6"/>
  <line class="st2" x1="330.4" y1="273.6" x2="328.9" y2="273.6"/>
  <path d="M322.1,272.1c.3,0,.6.1.8.4.2.3.3.7.3,1.2s0,.9-.3,1.2c-.2.3-.4.4-.8.4s-.6-.1-.8-.4-.3-.7-.3-1.2,0-.9.3-1.2c.2-.3.4-.4.8-.4ZM322.1,272.4c-.2,0-.4.1-.5.3-.1.2-.2.5-.2.9s0,.7.2.9c.1.2.3.3.5.3s.4-.1.5-.3c.1-.2.2-.5.2-.9s0-.7-.2-.9c-.1-.2-.3-.3-.5-.3Z"/>
  <rect x="323.9" y="274.7" width=".4" height=".5"/>
  <path d="M326.1,272.1c.3,0,.6.1.8.4.2.3.3.7.3,1.2s0,.9-.3,1.2c-.2.3-.4.4-.8.4s-.6-.1-.8-.4-.3-.7-.3-1.2,0-.9.3-1.2c.2-.3.4-.4.8-.4ZM326.1,272.4c-.2,0-.4.1-.5.3-.1.2-.2.5-.2.9s0,.7.2.9c.1.2.3.3.5.3s.4-.1.5-.3c.1-.2.2-.5.2-.9s0-.7-.2-.9c-.1-.2-.3-.3-.5-.3Z"/>
  <line x1="330.4" y1="252.5" x2="328.9" y2="252.5"/>
  <line class="st2" x1="330.4" y1="252.5" x2="328.9" y2="252.5"/>
  <path d="M322.1,250.9c.3,0,.6.1.8.4.2.3.3.7.3,1.2s0,.9-.3,1.2c-.2.3-.4.4-.8.4s-.6-.1-.8-.4-.3-.7-.3-1.2,0-.9.3-1.2c.2-.3.4-.4.8-.4ZM322.1,251.3c-.2,0-.4.1-.5.3-.1.2-.2.5-.2.9s0,.7.2.9c.1.2.3.3.5.3s.4-.1.5-.3c.1-.2.2-.5.2-.9s0-.7-.2-.9c-.1-.2-.3-.3-.5-.3Z"/>
  <rect x="323.9" y="253.5" width=".4" height=".5"/>
  <path d="M325.6,253.7h1.4v.3h-1.9v-.3c.2-.2.4-.4.6-.7.3-.3.4-.4.5-.5.1-.1.2-.3.3-.4,0-.1,0-.2,0-.3,0-.2,0-.3-.2-.4-.1-.1-.3-.2-.4-.2s-.3,0-.4,0c-.1,0-.3.1-.5.2v-.4c.2,0,.3-.1.5-.2.1,0,.3,0,.4,0,.3,0,.6,0,.8.2s.3.4.3.6,0,.2,0,.4c0,.1-.1.2-.3.4,0,0-.1.2-.3.3-.2.2-.4.5-.8.8Z"/>
  <line x1="330.4" y1="231.3" x2="328.9" y2="231.3"/>
  <line class="st2" x1="330.4" y1="231.3" x2="328.9" y2="231.3"/>
  <path d="M322.1,229.8c.3,0,.6.1.8.4.2.3.3.7.3,1.2s0,.9-.3,1.2c-.2.3-.4.4-.8.4s-.6-.1-.8-.4-.3-.7-.3-1.2,0-.9.3-1.2c.2-.3.4-.4.8-.4ZM322.1,230.1c-.2,0-.4.1-.5.3-.1.2-.2.5-.2.9s0,.7.2.9c.1.2.3.3.5.3s.4-.1.5-.3c.1-.2.2-.5.2-.9s0-.7-.2-.9c-.1-.2-.3-.3-.5-.3Z"/>
  <rect x="323.9" y="232.4" width=".4" height=".5"/>
  <path d="M326.2,229.8h.5v2h.4v.3h-.4v.7h-.4v-.7h-1.4v-.4l1.3-1.9ZM326.4,230.2l-1,1.6h1v-1.6Z"/>
  <line x1="330.4" y1="210.1" x2="328.9" y2="210.1"/>
  <line class="st2" x1="330.4" y1="210.1" x2="328.9" y2="210.1"/>
  <path d="M322.1,208.6c.3,0,.6.1.8.4.2.3.3.7.3,1.2s0,.9-.3,1.2c-.2.3-.4.4-.8.4s-.6-.1-.8-.4-.3-.7-.3-1.2,0-.9.3-1.2c.2-.3.4-.4.8-.4ZM322.1,209c-.2,0-.4.1-.5.3-.1.2-.2.5-.2.9s0,.7.2.9c.1.2.3.3.5.3s.4-.1.5-.3c.1-.2.2-.5.2-.9s0-.7-.2-.9c-.1-.2-.3-.3-.5-.3Z"/>
  <rect x="323.9" y="211.2" width=".4" height=".5"/>
  <path d="M327,208.7v.4c-.1,0-.2,0-.3-.1-.1,0-.2,0-.3,0-.3,0-.5,0-.6.3-.1.2-.2.5-.2.8,0-.1.2-.2.3-.3.1,0,.3,0,.4,0,.3,0,.5,0,.7.3.2.2.3.4.3.8s0,.6-.3.8c-.2.2-.4.3-.7.3s-.6-.1-.8-.4c-.2-.3-.3-.7-.3-1.2s.1-.9.3-1.2c.2-.3.5-.4.9-.4s.2,0,.3,0c.1,0,.2,0,.3,0ZM326.1,210c-.2,0-.3,0-.4.2s-.2.3-.2.5,0,.4.2.5.3.2.4.2.3,0,.4-.2c.1-.1.2-.3.2-.5s0-.4-.2-.5c-.1-.1-.3-.2-.4-.2Z"/>
  <line x1="330.4" y1="189" x2="328.9" y2="189"/>
  <line class="st2" x1="330.4" y1="189" x2="328.9" y2="189"/>
  <path d="M322.1,187.5c.3,0,.6.1.8.4.2.3.3.7.3,1.2s0,.9-.3,1.2c-.2.3-.4.4-.8.4s-.6-.1-.8-.4c-.2-.3-.3-.7-.3-1.2s0-.9.3-1.2c.2-.3.4-.4.8-.4ZM322.1,187.8c-.2,0-.4.1-.5.3-.1.2-.2.5-.2.9s0,.7.2.9c.1.2.3.3.5.3s.4-.1.5-.3c.1-.2.2-.5.2-.9s0-.7-.2-.9c-.1-.2-.3-.3-.5-.3Z"/>
  <rect x="323.9" y="190.1" width=".4" height=".5"/>
  <path d="M325.5,188.3c0,.2,0,.3.1.4.1,0,.2.1.4.1s.3,0,.4-.1c.1,0,.2-.2.2-.4s0-.3-.2-.4c-.1,0-.2-.1-.4-.1s-.3,0-.4.1c-.1,0-.1.2-.1.4ZM325.7,189c-.2,0-.3-.1-.4-.2s-.1-.3-.1-.4,0-.4.3-.6c.2-.1.4-.2.7-.2s.5,0,.7.2c.2.1.3.3.3.6s0,.3-.2.4c-.1.1-.2.2-.4.2.2,0,.4.1.5.3.1.1.2.3.2.5,0,.3,0,.5-.3.7-.2.2-.4.2-.8.2s-.6,0-.8-.2c-.2-.2-.3-.4-.3-.7s0-.4.2-.5c.1-.1.3-.2.5-.3ZM326.1,189.1c-.2,0-.4,0-.5.2s-.2.2-.2.4,0,.3.2.4.3.2.5.2.3,0,.5-.2c.1-.1.2-.2.2-.4s0-.3-.2-.4c-.1-.1-.3-.2-.5-.2Z"/>
  <line x1="330.4" y1="167.8" x2="328.9" y2="167.8"/>
  <line class="st2" x1="330.4" y1="167.8" x2="328.9" y2="167.8"/>
  <polygon points="321.3 169.1 322 169.1 322 166.7 321.2 166.9 321.2 166.5 322 166.4 322.4 166.4 322.4 169.1 323 169.1 323 169.4 321.3 169.4 321.3 169.1"/>
  <rect x="323.9" y="168.9" width=".4" height=".5"/>
  <path d="M326.1,166.3c.3,0,.6.1.8.4.2.3.3.7.3,1.2s0,.9-.3,1.2c-.2.3-.4.4-.8.4s-.6-.1-.8-.4c-.2-.3-.3-.7-.3-1.2s0-.9.3-1.2c.2-.3.4-.4.8-.4ZM326.1,166.6c-.2,0-.4.1-.5.3-.1.2-.2.5-.2.9s0,.7.2.9c.1.2.3.3.5.3s.4-.1.5-.3c.1-.2.2-.5.2-.9s0-.7-.2-.9c-.1-.2-.3-.3-.5-.3Z"/>
  <line class="st3" x1="330.4" y1="273.6" x2="330.4" y2="167.8"/>
  <line class="st3" x1="479.4" y1="273.6" x2="479.4" y2="167.8"/>
  <line class="st3" x1="330.4" y1="273.6" x2="479.4" y2="273.6"/>
  <line class="st3" x1="330.4" y1="167.8" x2="479.4" y2="167.8"/>
  <g>
    <path d="M104.9,9.7h.7v-.4c0-.4,0-.7.1-.9,0-.2.2-.4.5-.5.2-.1.5-.2.9-.2s.7,0,1,.2l-.2.9c-.2,0-.4,0-.6,0s-.3,0-.4.1c0,0-.1.2-.1.5v.3h.9v1h-.9v3.7h-1.2v-3.7h-.7v-1Z"/>
    <path d="M108.5,9v-1.1h1.2v1.1h-1.2ZM108.5,14.3v-4.7h1.2v4.7h-1.2Z"/>
    <path d="M110.9,14.7l1.4.2c0,.2,0,.3.2.3.1,0,.3.1.6.1s.6,0,.7-.1c.1,0,.2-.2.2-.3,0-.1,0-.3,0-.6v-.7c-.4.5-.8.8-1.4.8s-1.1-.3-1.5-.8c-.3-.4-.4-.9-.4-1.6s.2-1.4.6-1.8.8-.6,1.4-.6,1.1.3,1.4.8v-.7h1.2v4.2c0,.6,0,1-.1,1.2s-.2.5-.4.6-.4.3-.7.4-.6.1-1,.1c-.8,0-1.4-.1-1.7-.4s-.5-.6-.5-1,0,0,0-.1ZM112,11.9c0,.5,0,.9.3,1.1.2.2.4.3.7.3s.6-.1.8-.4c.2-.2.3-.6.3-1s0-.8-.3-1.1-.5-.4-.8-.4-.5.1-.7.3c-.2.2-.3.6-.3,1.1Z"/>
    <path d="M119.5,14.3v-.7c-.2.2-.4.4-.7.6-.3.1-.6.2-.9.2s-.6,0-.8-.2-.4-.3-.5-.6-.2-.6-.2-1v-3h1.2v2.1c0,.7,0,1.1,0,1.2,0,.1.1.3.2.4.1,0,.3.1.5.1s.4,0,.6-.2c.2-.1.3-.3.3-.4,0-.2,0-.6,0-1.3v-2h1.2v4.7h-1.1Z"/>
    <path d="M123.1,14.3h-1.2v-4.7h1.1v.7c.2-.3.4-.5.5-.6s.3-.1.5-.1.6,0,.8.2l-.4,1.1c-.2-.1-.4-.2-.6-.2s-.3,0-.4.1c-.1,0-.2.3-.3.5,0,.2-.1.8-.1,1.6v1.4Z"/>
    <path d="M128.2,12.9l1.2.2c-.2.5-.4.8-.7,1-.3.2-.8.4-1.3.4-.8,0-1.4-.3-1.8-.8-.3-.4-.5-1-.5-1.6s.2-1.4.6-1.8.9-.7,1.5-.7,1.2.2,1.6.7c.4.5.6,1.2.6,2.1h-3.1c0,.4.1.7.3.9.2.2.4.3.7.3s.4,0,.5-.2.2-.3.3-.5ZM128.2,11.6c0-.4-.1-.6-.3-.8-.2-.2-.4-.3-.6-.3s-.5,0-.7.3-.3.5-.3.8h1.8Z"/>
  </g>
  <g>
    <path d="M217.8,59.5v-3.6h-.6v-.5h.6v-.4c0-.3,0-.5,0-.6,0-.2.2-.3.4-.4s.4-.2.7-.2.4,0,.7,0v.6c-.3,0-.4,0-.5,0-.2,0-.4,0-.5.1s-.1.3-.1.5v.4h.8v.5h-.8v3.6h-.7Z"/>
    <path d="M219.8,59.5v-5.7h.7v5.7h-.7Z"/>
    <path d="M224.3,59c-.3.2-.5.4-.8.5s-.5.1-.8.1c-.5,0-.8-.1-1.1-.3s-.4-.5-.4-.9,0-.4.1-.6.2-.3.4-.4.3-.2.5-.2c.1,0,.3,0,.6-.1.6,0,1-.1,1.3-.2,0,0,0-.2,0-.2,0-.3,0-.5-.2-.6-.2-.2-.4-.2-.8-.2s-.6,0-.7.2-.3.3-.3.6h-.7c0-.4.2-.6.3-.8s.4-.3.6-.4.6-.1.9-.1.6,0,.9.1.4.2.5.3.2.3.2.5c0,.1,0,.3,0,.6v.9c0,.7,0,1.1,0,1.2s0,.3.2.5h-.7c0-.1-.1-.3-.1-.5ZM224.2,57.4c-.3.1-.6.2-1.1.3-.3,0-.5,0-.6.1s-.2.1-.3.2,0,.2,0,.3c0,.2,0,.3.2.5s.3.2.6.2.5,0,.7-.2.4-.3.5-.5c0-.2.1-.4.1-.7v-.3Z"/>
    <path d="M227.6,58.8v.6c0,0-.3,0-.4,0-.3,0-.5,0-.6-.1s-.2-.2-.3-.3,0-.4,0-.8v-2.4h-.5v-.5h.5v-1l.7-.4v1.4h.7v.5h-.7v2.4c0,.2,0,.3,0,.4s0,.1.1.1.1,0,.2,0,.2,0,.3,0Z"/>
    <path d="M229.8,58.8v.6c0,0-.3,0-.4,0-.3,0-.5,0-.6-.1s-.2-.2-.3-.3,0-.4,0-.8v-2.4h-.5v-.5h.5v-1l.7-.4v1.4h.7v.5h-.7v2.4c0,.2,0,.3,0,.4s0,.1.1.1.1,0,.2,0,.2,0,.3,0Z"/>
    <path d="M233.3,58.1h.7c-.1.5-.3.8-.6,1.1s-.7.4-1.2.4-1.1-.2-1.4-.6-.5-.9-.5-1.6.2-1.2.5-1.6.8-.6,1.4-.6,1,.2,1.4.6.5.9.5,1.6,0,.1,0,.2h-3.1c0,.5.2.8.4,1s.5.4.9.4.5,0,.7-.2.3-.4.4-.6ZM231,57h2.3c0-.3-.1-.6-.3-.8-.2-.3-.5-.4-.9-.4s-.6.1-.8.3-.3.5-.4.9Z"/>
    <path d="M234.9,59.5v-4.1h.6v.6c.3-.5.7-.7,1.3-.7s.5,0,.7.1.4.2.5.4.2.3.2.5c0,.1,0,.4,0,.7v2.6h-.7v-2.5c0-.3,0-.5,0-.6s-.2-.3-.3-.3-.3-.1-.5-.1c-.3,0-.6,0-.8.3s-.3.6-.3,1.1v2.3h-.7Z"/>
  </g>
  <g>
    <path d="M158.1,48.5l-1.1-.2c.1-.5.3-.8.7-1s.8-.3,1.4-.3,1,0,1.2.2c.3.1.5.3.6.5.1.2.2.6.2,1.1v1.4c0,.4,0,.7,0,.9,0,.2.1.4.2.6h-1.2c0,0,0-.2-.1-.4,0,0,0-.1,0-.1-.2.2-.4.4-.7.5s-.5.2-.8.2c-.5,0-.9-.1-1.1-.4-.3-.3-.4-.6-.4-1s0-.5.2-.7c.1-.2.3-.4.5-.5.2-.1.6-.2,1-.3.6-.1,1-.2,1.2-.3h0c0-.4,0-.5-.2-.6-.1-.1-.3-.2-.7-.2s-.4,0-.5.1c-.1,0-.2.2-.3.5ZM159.8,49.5c-.2,0-.4.1-.8.2s-.6.1-.7.2c-.2.1-.2.3-.2.4s0,.3.2.4.3.2.5.2.4,0,.6-.2c.1-.1.2-.2.3-.4,0-.1,0-.3,0-.6v-.2Z"/>
    <path d="M161.6,51.8l1.7-2.4-1.6-2.3h1.5l.8,1.3.9-1.3h1.5l-1.6,2.2,1.7,2.5h-1.5l-.9-1.4-1,1.4h-1.4Z"/>
    <path d="M169.9,50.3l1.2.2c-.2.5-.4.8-.7,1-.3.2-.8.4-1.3.4-.8,0-1.4-.3-1.8-.8-.3-.4-.5-1-.5-1.6s.2-1.4.6-1.8.9-.7,1.5-.7,1.2.2,1.6.7c.4.5.6,1.2.6,2.1h-3.1c0,.4.1.7.3.9.2.2.4.3.7.3s.4,0,.5-.2.2-.3.3-.5ZM170,49c0-.4-.1-.6-.3-.8-.2-.2-.4-.3-.6-.3s-.5,0-.7.3-.3.5-.3.8h1.8Z"/>
    <path d="M171.8,50.4l1.2-.2c0,.2.2.4.3.5.2.1.4.2.7.2s.6,0,.7-.2c.1,0,.2-.2.2-.3s0-.2,0-.2c0,0-.2-.1-.4-.2-1-.2-1.6-.4-1.9-.6-.4-.3-.6-.6-.6-1.1s.2-.7.5-1,.8-.4,1.5-.4,1.1.1,1.4.3.5.5.6.9l-1.2.2c0-.2-.1-.3-.3-.4s-.3-.1-.6-.1-.6,0-.7.1c0,0-.1.1-.1.3s0,.2.1.2c.1,0,.5.2,1.2.3s1.1.3,1.4.5c.3.2.4.5.4.9s-.2.8-.5,1.1-.9.5-1.6.5-1.1-.1-1.5-.4c-.4-.3-.6-.6-.7-1.1Z"/>
    <path d="M179.5,48.2v-1.1h4.5v1.1h-4.5ZM179.5,50.1v-1.1h4.5v1.1h-4.5Z"/>
    <path d="M187.5,53.6v-8.3h2.2v1h-1v6.3h1v1h-2.2Z"/>
    <path d="M192.3,45.3c.6,0,1.1.2,1.5.7.4.5.6,1.4.6,2.6s-.2,2.1-.6,2.6c-.3.4-.8.7-1.5.7s-1.1-.2-1.5-.7c-.4-.5-.6-1.3-.6-2.6s.2-2.1.6-2.6c.3-.4.8-.7,1.5-.7ZM192.3,46.3c-.1,0-.3,0-.4.1s-.2.3-.3.5c0,.3-.1.9-.1,1.6s0,1.3.1,1.6.2.5.3.6c.1,0,.2.1.4.1s.3,0,.4-.1.2-.3.3-.5c0-.3.1-.9.1-1.6s0-1.3-.1-1.6c0-.3-.2-.5-.3-.6s-.2-.1-.4-.1Z"/>
    <path d="M195.5,50.5h1.2v.9c0,.4,0,.6,0,.8,0,.2-.2.4-.3.6-.2.2-.4.3-.7.4l-.2-.5c.2,0,.4-.2.5-.3s.2-.3.2-.6h-.6v-1.2Z"/>
    <path d="M202.3,45.3c.6,0,1.1.2,1.5.7.4.5.6,1.4.6,2.6s-.2,2.1-.6,2.6c-.3.4-.8.7-1.5.7s-1.1-.2-1.5-.7c-.4-.5-.6-1.3-.6-2.6s.2-2.1.6-2.6c.3-.4.8-.7,1.5-.7ZM202.3,46.3c-.1,0-.3,0-.4.1s-.2.3-.3.5c0,.3-.1.9-.1,1.6s0,1.3.1,1.6.2.5.3.6c.1,0,.2.1.4.1s.3,0,.4-.1.2-.3.3-.5c0-.3.1-.9.1-1.6s0-1.3-.1-1.6c0-.3-.2-.5-.3-.6s-.2-.1-.4-.1Z"/>
    <path d="M207.2,45.3v8.3h-2.2v-1h1v-6.3h-1v-1h2.2Z"/>
  </g>
  <g>
    <line x1="211.9" y1="49.4" x2="243.6" y2="49.4"/>
    <g>
      <line class="st1" x1="211.9" y1="49.4" x2="241.8" y2="49.4"/>
      <path class="st0" d="M241.6,49.4c-.5-.5-.8-1.6-.8-2.3.7,1,1.6,1.8,2.8,2.3-1.1.5-2,1.3-2.8,2.3,0-.8.2-1.7.8-2.3Z"/>
    </g>
  </g>
  <g>
    <path d="M247.6,53.6v-8.3h2.2v1h-1v6.3h1v1h-2.2Z"/>
    <path d="M252.4,45.3c.6,0,1.1.2,1.5.7.4.5.6,1.4.6,2.6s-.2,2.1-.6,2.6c-.3.4-.8.7-1.5.7s-1.1-.2-1.5-.7c-.4-.5-.6-1.3-.6-2.6s.2-2.1.6-2.6c.3-.4.8-.7,1.5-.7ZM252.4,46.3c-.1,0-.3,0-.4.1s-.2.3-.3.5c0,.3-.1.9-.1,1.6s0,1.3.1,1.6.2.5.3.6c.1,0,.2.1.4.1s.3,0,.4-.1.2-.3.3-.5c0-.3.1-.9.1-1.6s0-1.3-.1-1.6c0-.3-.2-.5-.3-.6s-.2-.1-.4-.1Z"/>
    <path d="M257.3,45.3v8.3h-2.2v-1h1v-6.3h-1v-1h2.2Z"/>
  </g>
  <g>
    <path d="M396.5,59.5v-3.6h-.6v-.5h.6v-.4c0-.3,0-.5,0-.6,0-.2.2-.3.4-.4.2-.1.4-.2.7-.2s.4,0,.7,0v.6c-.3,0-.4,0-.5,0-.2,0-.4,0-.5.1,0,0-.1.3-.1.5v.4h.8v.5h-.8v3.6h-.7Z"/>
    <path d="M398.5,59.5v-5.7h.7v5.7h-.7Z"/>
    <path d="M403,59c-.3.2-.5.4-.8.5-.2,0-.5.1-.8.1-.5,0-.8-.1-1.1-.3-.2-.2-.4-.5-.4-.9s0-.4.1-.6c0-.2.2-.3.4-.4.2-.1.3-.2.5-.2.1,0,.3,0,.6-.1.6,0,1-.1,1.3-.2,0,0,0-.2,0-.2,0-.3,0-.5-.2-.6-.2-.2-.4-.2-.8-.2s-.6,0-.7.2c-.2.1-.3.3-.3.6h-.7c0-.4.2-.6.3-.8.1-.2.4-.3.6-.4.3,0,.6-.1.9-.1s.6,0,.9.1c.2,0,.4.2.5.3.1.1.2.3.2.5,0,.1,0,.3,0,.6v.9c0,.7,0,1.1,0,1.2,0,.2,0,.3.2.5h-.7c0-.1-.1-.3-.1-.5ZM402.9,57.4c-.3.1-.6.2-1.1.3-.3,0-.5,0-.6.1-.1,0-.2.1-.3.2,0,.1,0,.2,0,.3,0,.2,0,.3.2.5.1.1.3.2.6.2s.5,0,.7-.2.4-.3.5-.5c0-.2.1-.4.1-.7v-.3Z"/>
    <path d="M406.3,58.8v.6c0,0-.3,0-.4,0-.3,0-.5,0-.6-.1s-.2-.2-.3-.3c0-.1,0-.4,0-.8v-2.4h-.5v-.5h.5v-1l.7-.4v1.4h.7v.5h-.7v2.4c0,.2,0,.3,0,.4,0,0,0,.1.1.1,0,0,.1,0,.2,0s.2,0,.3,0Z"/>
    <path d="M408.5,58.8v.6c0,0-.3,0-.4,0-.3,0-.5,0-.6-.1s-.2-.2-.3-.3c0-.1,0-.4,0-.8v-2.4h-.5v-.5h.5v-1l.7-.4v1.4h.7v.5h-.7v2.4c0,.2,0,.3,0,.4,0,0,0,.1.1.1,0,0,.1,0,.2,0s.2,0,.3,0Z"/>
    <path d="M412,58.1h.7c-.1.5-.3.8-.6,1.1-.3.2-.7.4-1.2.4s-1.1-.2-1.4-.6-.5-.9-.5-1.6.2-1.2.5-1.6.8-.6,1.4-.6,1,.2,1.4.6.5.9.5,1.6,0,.1,0,.2h-3.1c0,.5.2.8.4,1,.2.2.5.4.9.4s.5,0,.7-.2c.2-.1.3-.4.4-.6ZM409.7,57h2.3c0-.3-.1-.6-.3-.8-.2-.3-.5-.4-.9-.4s-.6.1-.8.3c-.2.2-.3.5-.4.9Z"/>
    <path d="M413.6,59.5v-4.1h.6v.6c.3-.5.7-.7,1.3-.7s.5,0,.7.1c.2,0,.4.2.5.4.1.1.2.3.2.5,0,.1,0,.4,0,.7v2.6h-.7v-2.5c0-.3,0-.5,0-.6s-.2-.3-.3-.3c-.1,0-.3-.1-.5-.1-.3,0-.6,0-.8.3-.2.2-.3.6-.3,1.1v2.3h-.7Z"/>
  </g>
  <g>
    <path d="M336.8,48.5l-1.1-.2c.1-.5.3-.8.7-1s.8-.3,1.4-.3,1,0,1.2.2c.3.1.5.3.6.5.1.2.2.6.2,1.1v1.4c0,.4,0,.7,0,.9,0,.2.1.4.2.6h-1.2c0,0,0-.2-.1-.4,0,0,0-.1,0-.1-.2.2-.4.4-.7.5s-.5.2-.8.2c-.5,0-.9-.1-1.1-.4-.3-.3-.4-.6-.4-1s0-.5.2-.7c.1-.2.3-.4.5-.5.2-.1.6-.2,1-.3.6-.1,1-.2,1.2-.3h0c0-.4,0-.5-.2-.6-.1-.1-.3-.2-.7-.2s-.4,0-.5.1c-.1,0-.2.2-.3.5ZM338.5,49.5c-.2,0-.4.1-.8.2s-.6.1-.7.2c-.2.1-.2.3-.2.4s0,.3.2.4.3.2.5.2.4,0,.6-.2c.1-.1.2-.2.3-.4,0-.1,0-.3,0-.6v-.2Z"/>
    <path d="M340.3,51.8l1.7-2.4-1.6-2.3h1.5l.8,1.3.9-1.3h1.5l-1.6,2.2,1.7,2.5h-1.5l-.9-1.4-1,1.4h-1.4Z"/>
    <path d="M348.6,50.3l1.2.2c-.2.5-.4.8-.7,1-.3.2-.8.4-1.3.4-.8,0-1.4-.3-1.8-.8-.3-.4-.5-1-.5-1.6s.2-1.4.6-1.8.9-.7,1.5-.7,1.2.2,1.6.7c.4.5.6,1.2.6,2.1h-3.1c0,.4.1.7.3.9.2.2.4.3.7.3s.4,0,.5-.2.2-.3.3-.5ZM348.7,49c0-.4-.1-.6-.3-.8-.2-.2-.4-.3-.6-.3s-.5,0-.7.3-.3.5-.3.8h1.8Z"/>
    <path d="M350.5,50.4l1.2-.2c0,.2.2.4.3.5.2.1.4.2.7.2s.6,0,.7-.2c.1,0,.2-.2.2-.3s0-.2,0-.2c0,0-.2-.1-.4-.2-1-.2-1.6-.4-1.9-.6-.4-.3-.6-.6-.6-1.1s.2-.7.5-1,.8-.4,1.5-.4,1.1.1,1.4.3.5.5.6.9l-1.2.2c0-.2-.1-.3-.3-.4s-.3-.1-.6-.1-.6,0-.7.1c0,0-.1.1-.1.3s0,.2.1.2c.1,0,.5.2,1.2.3s1.1.3,1.4.5c.3.2.4.5.4.9s-.2.8-.5,1.1-.9.5-1.6.5-1.1-.1-1.5-.4c-.4-.3-.6-.6-.7-1.1Z"/>
    <path d="M358.1,48.2v-1.1h4.5v1.1h-4.5ZM358.1,50.1v-1.1h4.5v1.1h-4.5Z"/>
    <path d="M366.2,53.6v-8.3h2.2v1h-1v6.3h1v1h-2.2Z"/>
    <path d="M371,45.3c.6,0,1.1.2,1.5.7.4.5.6,1.4.6,2.6s-.2,2.1-.6,2.6c-.3.4-.8.7-1.5.7s-1.1-.2-1.5-.7c-.4-.5-.6-1.3-.6-2.6s.2-2.1.6-2.6c.3-.4.8-.7,1.5-.7ZM371,46.3c-.1,0-.3,0-.4.1s-.2.3-.3.5c0,.3-.1.9-.1,1.6s0,1.3.1,1.6.2.5.3.6c.1,0,.2.1.4.1s.3,0,.4-.1.2-.3.3-.5c0-.3.1-.9.1-1.6s0-1.3-.1-1.6c0-.3-.2-.5-.3-.6-.1,0-.2-.1-.4-.1Z"/>
    <path d="M374.2,50.5h1.2v.9c0,.4,0,.6,0,.8,0,.2-.2.4-.3.6-.2.2-.4.3-.7.4l-.2-.5c.2,0,.4-.2.5-.3s.2-.3.2-.6h-.6v-1.2Z"/>
    <path d="M382.1,51.8h-1.2v-4.7c-.5.4-1,.7-1.6.9v-1.1c.3-.1.7-.3,1-.6.4-.3.6-.6.8-1h1v6.5Z"/>
    <path d="M385.9,45.3v8.3h-2.2v-1h1v-6.3h-1v-1h2.2Z"/>
  </g>
  <g>
    <line x1="390.6" y1="49.4" x2="422.3" y2="49.4"/>
    <g>
      <line class="st1" x1="390.6" y1="49.4" x2="420.5" y2="49.4"/>
      <path class="st0" d="M420.3,49.4c-.5-.5-.8-1.6-.8-2.3.7,1,1.6,1.8,2.8,2.3-1.1.5-2,1.3-2.8,2.3,0-.8.2-1.7.8-2.3Z"/>
    </g>
  </g>
  <g>
    <path d="M426.3,53.6v-8.3h2.2v1h-1v6.3h1v1h-2.2Z"/>
    <path d="M432.2,51.8h-1.2v-4.7c-.5.4-1,.7-1.6.9v-1.1c.3-.1.7-.3,1-.6.4-.3.6-.6.8-1h1v6.5Z"/>
    <path d="M436,45.3v8.3h-2.2v-1h1v-6.3h-1v-1h2.2Z"/>
  </g>
  <g>
    <path d="M217.8,187.5v-3.6h-.6v-.5h.6v-.4c0-.3,0-.5,0-.6,0-.2.2-.3.4-.4s.4-.2.7-.2.4,0,.7,0v.6c-.3,0-.4,0-.5,0-.2,0-.4,0-.5.1,0,0-.1.3-.1.5v.4h.8v.5h-.8v3.6h-.7Z"/>
    <path d="M219.8,187.5v-5.7h.7v5.7h-.7Z"/>
    <path d="M224.3,187c-.3.2-.5.4-.8.5-.2,0-.5.1-.8.1-.5,0-.8-.1-1.1-.3s-.4-.5-.4-.9,0-.4.1-.6.2-.3.4-.4.3-.2.5-.2c.1,0,.3,0,.6-.1.6,0,1-.1,1.3-.2,0,0,0-.2,0-.2,0-.3,0-.5-.2-.6-.2-.2-.4-.2-.8-.2s-.6,0-.7.2c-.2.1-.3.3-.3.6h-.7c0-.4.2-.6.3-.8.1-.2.4-.3.6-.4s.6-.1.9-.1.6,0,.9.1c.2,0,.4.2.5.3.1.1.2.3.2.5,0,.1,0,.3,0,.6v.9c0,.7,0,1.1,0,1.2,0,.2,0,.3.2.5h-.7c0-.1-.1-.3-.1-.5ZM224.2,185.4c-.3.1-.6.2-1.1.3-.3,0-.5,0-.6.1-.1,0-.2.1-.3.2,0,.1,0,.2,0,.3,0,.2,0,.3.2.5s.3.2.6.2.5,0,.7-.2c.2-.1.4-.3.5-.5,0-.2.1-.4.1-.7v-.3Z"/>
    <path d="M227.6,186.8v.6c0,0-.3,0-.4,0-.3,0-.5,0-.6-.1-.1,0-.2-.2-.3-.3,0-.1,0-.4,0-.8v-2.4h-.5v-.5h.5v-1l.7-.4v1.4h.7v.5h-.7v2.4c0,.2,0,.3,0,.4,0,0,0,.1.1.1,0,0,.1,0,.2,0s.2,0,.3,0Z"/>
    <path d="M229.8,186.8v.6c0,0-.3,0-.4,0-.3,0-.5,0-.6-.1-.1,0-.2-.2-.3-.3,0-.1,0-.4,0-.8v-2.4h-.5v-.5h.5v-1l.7-.4v1.4h.7v.5h-.7v2.4c0,.2,0,.3,0,.4,0,0,0,.1.1.1,0,0,.1,0,.2,0s.2,0,.3,0Z"/>
    <path d="M233.3,186.1h.7c-.1.5-.3.8-.6,1.1s-.7.4-1.2.4-1.1-.2-1.4-.6c-.4-.4-.5-.9-.5-1.6s.2-1.2.5-1.6c.4-.4.8-.6,1.4-.6s1,.2,1.4.6c.4.4.5.9.5,1.6s0,.1,0,.2h-3.1c0,.5.2.8.4,1s.5.4.9.4.5,0,.7-.2c.2-.1.3-.4.4-.6ZM231,185h2.3c0-.3-.1-.6-.3-.8-.2-.3-.5-.4-.9-.4s-.6.1-.8.3c-.2.2-.3.5-.4.9Z"/>
    <path d="M234.9,187.5v-4.1h.6v.6c.3-.5.7-.7,1.3-.7s.5,0,.7.1.4.2.5.4c.1.1.2.3.2.5,0,.1,0,.4,0,.7v2.6h-.7v-2.5c0-.3,0-.5,0-.6,0-.1-.2-.3-.3-.3-.1,0-.3-.1-.5-.1-.3,0-.6,0-.8.3-.2.2-.3.6-.3,1.1v2.3h-.7Z"/>
  </g>
  <g>
    <path d="M158.1,176.5l-1.1-.2c.1-.5.3-.8.7-1s.8-.3,1.4-.3,1,0,1.2.2c.3.1.5.3.6.5.1.2.2.6.2,1.1v1.4c0,.4,0,.7,0,.9,0,.2.1.4.2.6h-1.2c0,0,0-.2-.1-.4,0,0,0-.1,0-.1-.2.2-.4.4-.7.5s-.5.2-.8.2c-.5,0-.9-.1-1.1-.4-.3-.3-.4-.6-.4-1s0-.5.2-.7c.1-.2.3-.4.5-.5.2-.1.6-.2,1-.3.6-.1,1-.2,1.2-.3h0c0-.4,0-.5-.2-.6-.1-.1-.3-.2-.7-.2s-.4,0-.5.1c-.1,0-.2.2-.3.5ZM159.8,177.5c-.2,0-.4.1-.8.2s-.6.1-.7.2c-.2.1-.2.3-.2.4s0,.3.2.4.3.2.5.2.4,0,.6-.2c.1-.1.2-.2.3-.4,0-.1,0-.3,0-.6v-.2Z"/>
    <path d="M161.6,179.8l1.7-2.4-1.6-2.3h1.5l.8,1.3.9-1.3h1.5l-1.6,2.2,1.7,2.5h-1.5l-.9-1.4-1,1.4h-1.4Z"/>
    <path d="M169.9,178.3l1.2.2c-.2.5-.4.8-.7,1-.3.2-.8.4-1.3.4-.8,0-1.4-.3-1.8-.8-.3-.4-.5-1-.5-1.6s.2-1.4.6-1.8c.4-.4.9-.7,1.5-.7s1.2.2,1.6.7c.4.5.6,1.2.6,2.1h-3.1c0,.4.1.7.3.9.2.2.4.3.7.3s.4,0,.5-.2.2-.3.3-.5ZM170,177c0-.4-.1-.6-.3-.8-.2-.2-.4-.3-.6-.3s-.5,0-.7.3-.3.5-.3.8h1.8Z"/>
    <path d="M171.8,178.4l1.2-.2c0,.2.2.4.3.5.2.1.4.2.7.2s.6,0,.7-.2c.1,0,.2-.2.2-.3s0-.2,0-.2c0,0-.2-.1-.4-.2-1-.2-1.6-.4-1.9-.6-.4-.3-.6-.6-.6-1s.2-.7.5-1,.8-.4,1.5-.4,1.1.1,1.4.3.5.5.6.9l-1.2.2c0-.2-.1-.3-.3-.4s-.3-.1-.6-.1-.6,0-.7.1c0,0-.1.1-.1.3s0,.2.1.2c.1,0,.5.2,1.2.3s1.1.3,1.4.5c.3.2.4.5.4.9s-.2.8-.5,1.1-.9.5-1.6.5-1.1-.1-1.5-.4c-.4-.3-.6-.6-.7-1.1Z"/>
    <path d="M179.5,176.2v-1.1h4.5v1.1h-4.5ZM179.5,178.1v-1.1h4.5v1.1h-4.5Z"/>
    <path d="M187.5,181.6v-8.3h2.2v1h-1v6.3h1v1h-2.2Z"/>
    <path d="M193.4,179.8h-1.2v-4.7c-.5.4-1,.7-1.6.9v-1.1c.3-.1.7-.3,1.1-.6.4-.3.6-.6.8-1h1v6.5Z"/>
    <path d="M195.5,178.5h1.2v.9c0,.4,0,.6,0,.8,0,.2-.2.4-.3.6-.2.2-.4.3-.7.4l-.2-.5c.2,0,.4-.2.5-.3s.2-.3.2-.6h-.6v-1.2Z"/>
    <path d="M202.3,173.3c.6,0,1.1.2,1.5.7.4.5.6,1.4.6,2.6s-.2,2.1-.6,2.6c-.3.4-.8.7-1.5.7s-1.1-.2-1.5-.7c-.4-.5-.6-1.3-.6-2.6s.2-2.1.6-2.6c.3-.4.8-.7,1.5-.7ZM202.3,174.3c-.1,0-.3,0-.4.1-.1,0-.2.3-.3.5,0,.3-.1.9-.1,1.6s0,1.3.1,1.6c0,.3.2.5.3.6.1,0,.2.1.4.1s.3,0,.4-.1c.1,0,.2-.3.3-.5,0-.3.1-.9.1-1.6s0-1.3-.1-1.6c0-.3-.2-.5-.3-.6-.1,0-.2-.1-.4-.1Z"/>
    <path d="M207.2,173.3v8.3h-2.2v-1h1v-6.3h-1v-1h2.2Z"/>
  </g>
  <g>
    <line x1="211.9" y1="177.4" x2="243.6" y2="177.4"/>
    <g>
      <line class="st1" x1="211.9" y1="177.4" x2="241.8" y2="177.4"/>
      <path class="st0" d="M241.6,177.4c-.5-.5-.8-1.6-.8-2.3.7,1,1.6,1.8,2.8,2.3-1.1.5-2,1.3-2.8,2.3,0-.8.2-1.7.8-2.3Z"/>
    </g>
  </g>
  <g>
    <path d="M247.6,181.6v-8.3h2.2v1h-1v6.3h1v1h-2.2Z"/>
    <path d="M254.5,178.6v1.1h-4.3c0-.4.2-.8.4-1.2.2-.4.7-.9,1.4-1.5.6-.5.9-.9,1-1.1.2-.3.3-.5.3-.8s0-.5-.2-.6-.4-.2-.6-.2-.5,0-.6.2-.2.4-.3.8h-1.2c0-.8.3-1.3.7-1.6s.9-.4,1.5-.4,1.1.2,1.5.5.5.8.5,1.3,0,.6-.2.8c-.1.3-.3.5-.5.8-.1.2-.4.5-.8.8s-.6.6-.7.7c-.1.1-.2.2-.3.3h2.5Z"/>
    <path d="M257.3,173.3v8.3h-2.2v-1h1v-6.3h-1v-1h2.2Z"/>
  </g>
  <g>
    <path d="M396.5,187.5v-3.6h-.6v-.5h.6v-.4c0-.3,0-.5,0-.6,0-.2.2-.3.4-.4.2-.1.4-.2.7-.2s.4,0,.7,0v.6c-.3,0-.4,0-.5,0-.2,0-.4,0-.5.1,0,0-.1.3-.1.5v.4h.8v.5h-.8v3.6h-.7Z"/>
    <path d="M398.5,187.5v-5.7h.7v5.7h-.7Z"/>
    <path d="M403,187c-.3.2-.5.4-.8.5-.2,0-.5.1-.8.1-.5,0-.8-.1-1.1-.3-.2-.2-.4-.5-.4-.9s0-.4.1-.6c0-.2.2-.3.4-.4.2-.1.3-.2.5-.2.1,0,.3,0,.6-.1.6,0,1-.1,1.3-.2,0,0,0-.2,0-.2,0-.3,0-.5-.2-.6-.2-.2-.4-.2-.8-.2s-.6,0-.7.2c-.2.1-.3.3-.3.6h-.7c0-.4.2-.6.3-.8.1-.2.4-.3.6-.4.3,0,.6-.1.9-.1s.6,0,.9.1c.2,0,.4.2.5.3.1.1.2.3.2.5,0,.1,0,.3,0,.6v.9c0,.7,0,1.1,0,1.2,0,.2,0,.3.2.5h-.7c0-.1-.1-.3-.1-.5ZM402.9,185.4c-.3.1-.6.2-1.1.3-.3,0-.5,0-.6.1-.1,0-.2.1-.3.2,0,.1,0,.2,0,.3,0,.2,0,.3.2.5.1.1.3.2.6.2s.5,0,.7-.2c.2-.1.4-.3.5-.5,0-.2.1-.4.1-.7v-.3Z"/>
    <path d="M406.3,186.8v.6c0,0-.3,0-.4,0-.3,0-.5,0-.6-.1-.1,0-.2-.2-.3-.3,0-.1,0-.4,0-.8v-2.4h-.5v-.5h.5v-1l.7-.4v1.4h.7v.5h-.7v2.4c0,.2,0,.3,0,.4,0,0,0,.1.1.1,0,0,.1,0,.2,0s.2,0,.3,0Z"/>
    <path d="M408.5,186.8v.6c0,0-.3,0-.4,0-.3,0-.5,0-.6-.1-.1,0-.2-.2-.3-.3,0-.1,0-.4,0-.8v-2.4h-.5v-.5h.5v-1l.7-.4v1.4h.7v.5h-.7v2.4c0,.2,0,.3,0,.4,0,0,0,.1.1.1,0,0,.1,0,.2,0s.2,0,.3,0Z"/>
    <path d="M412,186.1h.7c-.1.5-.3.8-.6,1.1-.3.2-.7.4-1.2.4s-1.1-.2-1.4-.6c-.4-.4-.5-.9-.5-1.6s.2-1.2.5-1.6c.4-.4.8-.6,1.4-.6s1,.2,1.4.6c.4.4.5.9.5,1.6s0,.1,0,.2h-3.1c0,.5.2.8.4,1,.2.2.5.4.9.4s.5,0,.7-.2c.2-.1.3-.4.4-.6ZM409.7,185h2.3c0-.3-.1-.6-.3-.8-.2-.3-.5-.4-.9-.4s-.6.1-.8.3c-.2.2-.3.5-.4.9Z"/>
    <path d="M413.6,187.5v-4.1h.6v.6c.3-.5.7-.7,1.3-.7s.5,0,.7.1c.2,0,.4.2.5.4.1.1.2.3.2.5,0,.1,0,.4,0,.7v2.6h-.7v-2.5c0-.3,0-.5,0-.6,0-.1-.2-.3-.3-.3-.1,0-.3-.1-.5-.1-.3,0-.6,0-.8.3-.2.2-.3.6-.3,1.1v2.3h-.7Z"/>
  </g>
  <g>
    <path d="M336.8,176.5l-1.1-.2c.1-.5.3-.8.7-1s.8-.3,1.4-.3,1,0,1.2.2c.3.1.5.3.6.5.1.2.2.6.2,1.1v1.4c0,.4,0,.7,0,.9,0,.2.1.4.2.6h-1.2c0,0,0-.2-.1-.4,0,0,0-.1,0-.1-.2.2-.4.4-.7.5s-.5.2-.8.2c-.5,0-.9-.1-1.1-.4-.3-.3-.4-.6-.4-1s0-.5.2-.7c.1-.2.3-.4.5-.5.2-.1.6-.2,1-.3.6-.1,1-.2,1.2-.3h0c0-.4,0-.5-.2-.6-.1-.1-.3-.2-.7-.2s-.4,0-.5.1c-.1,0-.2.2-.3.5ZM338.5,177.5c-.2,0-.4.1-.8.2s-.6.1-.7.2c-.2.1-.2.3-.2.4s0,.3.2.4.3.2.5.2.4,0,.6-.2c.1-.1.2-.2.3-.4,0-.1,0-.3,0-.6v-.2Z"/>
    <path d="M340.3,179.8l1.7-2.4-1.6-2.3h1.5l.8,1.3.9-1.3h1.5l-1.6,2.2,1.7,2.5h-1.5l-.9-1.4-1,1.4h-1.4Z"/>
    <path d="M348.6,178.3l1.2.2c-.2.5-.4.8-.7,1-.3.2-.8.4-1.3.4-.8,0-1.4-.3-1.8-.8-.3-.4-.5-1-.5-1.6s.2-1.4.6-1.8c.4-.4.9-.7,1.5-.7s1.2.2,1.6.7c.4.5.6,1.2.6,2.1h-3.1c0,.4.1.7.3.9.2.2.4.3.7.3s.4,0,.5-.2.2-.3.3-.5ZM348.7,177c0-.4-.1-.6-.3-.8-.2-.2-.4-.3-.6-.3s-.5,0-.7.3-.3.5-.3.8h1.8Z"/>
    <path d="M350.5,178.4l1.2-.2c0,.2.2.4.3.5.2.1.4.2.7.2s.6,0,.7-.2c.1,0,.2-.2.2-.3s0-.2,0-.2c0,0-.2-.1-.4-.2-1-.2-1.6-.4-1.9-.6-.4-.3-.6-.6-.6-1s.2-.7.5-1,.8-.4,1.5-.4,1.1.1,1.4.3.5.5.6.9l-1.2.2c0-.2-.1-.3-.3-.4s-.3-.1-.6-.1-.6,0-.7.1c0,0-.1.1-.1.3s0,.2.1.2c.1,0,.5.2,1.2.3s1.1.3,1.4.5c.3.2.4.5.4.9s-.2.8-.5,1.1-.9.5-1.6.5-1.1-.1-1.5-.4c-.4-.3-.6-.6-.7-1.1Z"/>
    <path d="M358.1,176.2v-1.1h4.5v1.1h-4.5ZM358.1,178.1v-1.1h4.5v1.1h-4.5Z"/>
    <path d="M366.2,181.6v-8.3h2.2v1h-1v6.3h1v1h-2.2Z"/>
    <path d="M372.1,179.8h-1.2v-4.7c-.5.4-1,.7-1.6.9v-1.1c.3-.1.7-.3,1.1-.6.4-.3.6-.6.8-1h1v6.5Z"/>
    <path d="M374.2,178.5h1.2v.9c0,.4,0,.6,0,.8,0,.2-.2.4-.3.6-.2.2-.4.3-.7.4l-.2-.5c.2,0,.4-.2.5-.3s.2-.3.2-.6h-.6v-1.2Z"/>
    <path d="M382.1,179.8h-1.2v-4.7c-.5.4-1,.7-1.6.9v-1.1c.3-.1.7-.3,1-.6.4-.3.6-.6.8-1h1v6.5Z"/>
    <path d="M385.9,173.3v8.3h-2.2v-1h1v-6.3h-1v-1h2.2Z"/>
  </g>
  <g>
    <line x1="390.6" y1="177.4" x2="422.3" y2="177.4"/>
    <g>
      <line class="st1" x1="390.6" y1="177.4" x2="420.5" y2="177.4"/>
      <path class="st0" d="M420.3,177.4c-.5-.5-.8-1.6-.8-2.3.7,1,1.6,1.8,2.8,2.3-1.1.5-2,1.3-2.8,2.3,0-.8.2-1.7.8-2.3Z"/>
    </g>
  </g>
  <g>
    <path d="M426.3,181.6v-8.3h2.2v1h-1v6.3h1v1h-2.2Z"/>
    <path d="M429,178.1h1.2c0,.2.1.4.3.6.2.2.4.2.6.2s.5,0,.6-.3c.2-.2.3-.5.3-.8s0-.6-.3-.7-.4-.3-.6-.3-.3,0-.6,0v-1c.5,0,.7,0,.9-.2.2-.2.3-.4.3-.6s0-.4-.2-.5-.3-.2-.5-.2-.4,0-.5.2c-.2.1-.2.4-.3.6l-1.1-.2c0-.4.2-.7.4-.9.2-.2.4-.4.7-.5.3-.1.6-.2,1-.2.6,0,1.1.2,1.5.6.3.3.5.7.5,1.1,0,.6-.3,1-.9,1.4.4,0,.7.3.9.5.2.3.3.6.3,1,0,.6-.2,1-.6,1.4s-.9.6-1.5.6-1.1-.2-1.5-.5c-.4-.3-.6-.8-.7-1.3Z"/>
    <path d="M436,173.3v8.3h-2.2v-1h1v-6.3h-1v-1h2.2Z"/>
  </g>
</svg>