<?xml version="1.0" encoding="UTF-8"?>
<svg id="Layer_1" xmlns="http://www.w3.org/2000/svg" xmlns:xlink="http://www.w3.org/1999/xlink" version="1.1" viewBox="0 0 411.3 173.6">
  <!-- Generator: Adobe Illustrator 29.2.1, SVG Export Plug-In . SVG Version: 2.1.0 Build 116)  -->
  <defs>
    <style>
      .st0, .st1, .st2, .st3, .st4, .st5 {
        fill: none;
      }

      .st6 {
        isolation: isolate;
        opacity: .1;
      }

      .st7 {
        stroke-width: .4px;
      }

      .st7, .st1, .st2, .st3, .st4 {
        stroke: #000;
      }

      .st7, .st3, .st4 {
        stroke-miterlimit: 10;
      }

      .st7, .st8 {
        fill: #f2f2f2;
      }

      .st9 {
        fill: #7ec01b;
      }

      .st10 {
        fill: #ccc;
      }

      .st1 {
        stroke-width: 2px;
      }

      .st1, .st2, .st5 {
        stroke-linejoin: round;
      }

      .st11 {
        clip-path: url(#clippath-17);
      }

      .st12 {
        clip-path: url(#clippath-19);
      }

      .st13 {
        clip-path: url(#clippath-11);
      }

      .st14 {
        clip-path: url(#clippath-16);
      }

      .st15 {
        clip-path: url(#clippath-18);
      }

      .st16 {
        clip-path: url(#clippath-10);
      }

      .st17 {
        clip-path: url(#clippath-15);
      }

      .st18 {
        clip-path: url(#clippath-13);
      }

      .st19 {
        clip-path: url(#clippath-14);
      }

      .st20 {
        clip-path: url(#clippath-12);
      }

      .st21 {
        clip-path: url(#clippath-31);
      }

      .st22 {
        clip-path: url(#clippath-32);
      }

      .st23 {
        clip-path: url(#clippath-33);
      }

      .st24 {
        clip-path: url(#clippath-34);
      }

      .st25 {
        clip-path: url(#clippath-35);
      }

      .st26 {
        clip-path: url(#clippath-39);
      }

      .st27 {
        clip-path: url(#clippath-30);
      }

      .st28 {
        clip-path: url(#clippath-36);
      }

      .st29 {
        clip-path: url(#clippath-37);
      }

      .st30 {
        clip-path: url(#clippath-38);
      }

      .st31 {
        clip-path: url(#clippath-27);
      }

      .st32 {
        clip-path: url(#clippath-29);
      }

      .st33 {
        clip-path: url(#clippath-26);
      }

      .st34 {
        clip-path: url(#clippath-28);
      }

      .st35 {
        clip-path: url(#clippath-20);
      }

      .st36 {
        clip-path: url(#clippath-21);
      }

      .st37 {
        clip-path: url(#clippath-22);
      }

      .st38 {
        clip-path: url(#clippath-23);
      }

      .st39 {
        clip-path: url(#clippath-24);
      }

      .st40 {
        clip-path: url(#clippath-25);
      }

      .st41 {
        clip-path: url(#clippath-41);
      }

      .st42 {
        clip-path: url(#clippath-42);
      }

      .st43 {
        clip-path: url(#clippath-43);
      }

      .st44 {
        clip-path: url(#clippath-44);
      }

      .st45 {
        clip-path: url(#clippath-45);
      }

      .st46 {
        clip-path: url(#clippath-40);
      }

      .st47 {
        clip-path: url(#clippath-46);
      }

      .st2, .st3 {
        stroke-width: .5px;
      }

      .st48 {
        clip-path: url(#clippath-1);
      }

      .st49 {
        clip-path: url(#clippath-3);
      }

      .st50 {
        clip-path: url(#clippath-4);
      }

      .st51 {
        clip-path: url(#clippath-2);
      }

      .st52 {
        clip-path: url(#clippath-7);
      }

      .st53 {
        clip-path: url(#clippath-6);
      }

      .st54 {
        clip-path: url(#clippath-9);
      }

      .st55 {
        clip-path: url(#clippath-8);
      }

      .st56 {
        clip-path: url(#clippath-5);
      }

      .st57 {
        fill: #fff;
      }

      .st58 {
        clip-path: url(#clippath);
      }

      .st5 {
        stroke: #fff;
        stroke-width: 3px;
      }
    </style>
    <clipPath id="clippath">
      <rect class="st0" x="199.6" y="60.7" width="120.8" height="18.2"/>
    </clipPath>
    <clipPath id="clippath-1">
      <rect class="st0" x="199.6" y="60.7" width="120.8" height="18.2"/>
    </clipPath>
    <clipPath id="clippath-2">
      <rect class="st0" x="199.6" y="60.7" width="120.8" height="18.2"/>
    </clipPath>
    <clipPath id="clippath-3">
      <rect class="st0" x="201.1" y="33.1" width="12.4" height="11.6"/>
    </clipPath>
    <clipPath id="clippath-4">
      <rect class="st0" x="201.1" y="33.1" width="12.4" height="11.6"/>
    </clipPath>
    <clipPath id="clippath-5">
      <rect class="st0" x="201.1" y="33.1" width="12.4" height="11.6"/>
    </clipPath>
    <clipPath id="clippath-6">
      <rect class="st0" x="230.2" y="33.1" width="12.4" height="11.6"/>
    </clipPath>
    <clipPath id="clippath-7">
      <rect class="st0" x="230.2" y="33.1" width="12.4" height="11.6"/>
    </clipPath>
    <clipPath id="clippath-8">
      <rect class="st0" x="230.2" y="33.1" width="12.4" height="11.6"/>
    </clipPath>
    <clipPath id="clippath-9">
      <rect class="st0" x="259.3" y="33.1" width="12.4" height="11.6"/>
    </clipPath>
    <clipPath id="clippath-10">
      <rect class="st0" x="259.3" y="33.1" width="12.4" height="11.6"/>
    </clipPath>
    <clipPath id="clippath-11">
      <rect class="st0" x="259.3" y="33.1" width="12.4" height="11.6"/>
    </clipPath>
    <clipPath id="clippath-12">
      <rect class="st0" x="199.6" y="136.7" width="120.8" height="18.2"/>
    </clipPath>
    <clipPath id="clippath-13">
      <rect class="st0" x="199.6" y="136.7" width="120.8" height="18.2"/>
    </clipPath>
    <clipPath id="clippath-14">
      <rect class="st0" x="199.6" y="136.7" width="120.8" height="18.2"/>
    </clipPath>
    <clipPath id="clippath-15">
      <rect class="st0" x="199.6" y="82.9" width="152.8" height="72.8"/>
    </clipPath>
    <clipPath id="clippath-16">
      <rect class="st0" x="201.1" y="109.1" width="12.4" height="11.6"/>
    </clipPath>
    <clipPath id="clippath-17">
      <rect class="st0" x="201.1" y="109.1" width="12.4" height="11.6"/>
    </clipPath>
    <clipPath id="clippath-18">
      <rect class="st0" x="201.1" y="109.1" width="12.4" height="11.6"/>
    </clipPath>
    <clipPath id="clippath-19">
      <rect class="st0" x="199.6" y="82.9" width="152.8" height="72.8"/>
    </clipPath>
    <clipPath id="clippath-20">
      <rect class="st0" x="230.2" y="109.1" width="12.4" height="11.6"/>
    </clipPath>
    <clipPath id="clippath-21">
      <rect class="st0" x="230.2" y="109.1" width="12.4" height="11.6"/>
    </clipPath>
    <clipPath id="clippath-22">
      <rect class="st0" x="230.2" y="109.1" width="12.4" height="11.6"/>
    </clipPath>
    <clipPath id="clippath-23">
      <rect class="st0" x="199.6" y="82.9" width="151.3" height="72.8"/>
    </clipPath>
    <clipPath id="clippath-24">
      <rect class="st0" x="259.3" y="109.1" width="12.4" height="11.6"/>
    </clipPath>
    <clipPath id="clippath-25">
      <rect class="st0" x="259.3" y="109.1" width="12.4" height="11.6"/>
    </clipPath>
    <clipPath id="clippath-26">
      <rect class="st0" x="259.3" y="109.1" width="12.4" height="11.6"/>
    </clipPath>
    <clipPath id="clippath-27">
      <rect class="st0" x="199.6" y="82.9" width="208" height="72.8"/>
    </clipPath>
    <clipPath id="clippath-28">
      <rect class="st0" x="55.1" y="123.4" width="120.8" height="18.2"/>
    </clipPath>
    <clipPath id="clippath-29">
      <rect class="st0" x="55.1" y="123.4" width="120.8" height="18.2"/>
    </clipPath>
    <clipPath id="clippath-30">
      <rect class="st0" x="55.1" y="123.4" width="120.8" height="18.2"/>
    </clipPath>
    <clipPath id="clippath-31">
      <rect class="st0" x="56.5" y="95.8" width="12.4" height="11.6"/>
    </clipPath>
    <clipPath id="clippath-32">
      <rect class="st0" x="56.5" y="95.8" width="12.4" height="11.6"/>
    </clipPath>
    <clipPath id="clippath-33">
      <rect class="st0" x="56.5" y="95.8" width="12.4" height="11.6"/>
    </clipPath>
    <clipPath id="clippath-34">
      <rect class="st0" x="85.6" y="95.8" width="12.4" height="11.6"/>
    </clipPath>
    <clipPath id="clippath-35">
      <rect class="st0" x="85.6" y="95.8" width="12.4" height="11.6"/>
    </clipPath>
    <clipPath id="clippath-36">
      <rect class="st0" x="85.6" y="95.8" width="12.4" height="11.6"/>
    </clipPath>
    <clipPath id="clippath-37">
      <rect class="st0" x="114.7" y="95.8" width="12.4" height="11.6"/>
    </clipPath>
    <clipPath id="clippath-38">
      <rect class="st0" x="114.7" y="95.8" width="12.4" height="11.6"/>
    </clipPath>
    <clipPath id="clippath-39">
      <rect class="st0" x="114.7" y="95.8" width="12.4" height="11.6"/>
    </clipPath>
    <clipPath id="clippath-40">
      <rect class="st0" x="49.6" y="61.1" width="62.4" height="18.1"/>
    </clipPath>
    <clipPath id="clippath-41">
      <rect class="st0" x="49.6" y="61.1" width="62.4" height="18.1"/>
    </clipPath>
    <clipPath id="clippath-42">
      <rect class="st0" x="49.6" y="61.1" width="62.4" height="18.1"/>
    </clipPath>
    <clipPath id="clippath-43">
      <rect class="st0" x="49.6" y="7.4" width="77.7" height="72.6"/>
    </clipPath>
    <clipPath id="clippath-44">
      <rect class="st0" x="51.3" y="33.7" width="12.4" height="11.6"/>
    </clipPath>
    <clipPath id="clippath-45">
      <rect class="st0" x="51.3" y="33.7" width="12.4" height="11.6"/>
    </clipPath>
    <clipPath id="clippath-46">
      <rect class="st0" x="51.3" y="33.7" width="12.4" height="11.6"/>
    </clipPath>
  </defs>
  <g class="st58">
    <g class="st6">
      <g class="st48">
        <g class="st51">
          <polygon points="199.6 75.3 220 78.9 307.3 78.9 320.4 66.5 300.8 60.7 228 60.7 199.6 75.3"/>
        </g>
      </g>
    </g>
  </g>
  <g>
    <polygon class="st57" points="200.4 44.7 213.5 32.3 301.5 32.3 301.5 61.4 288.4 74.5 200.4 74.5 200.4 44.7"/>
    <polygon class="st1" points="200.4 44.7 213.5 32.3 301.5 32.3 301.5 61.4 288.4 74.5 200.4 74.5 200.4 44.7"/>
    <polygon class="st10" points="288.4 73.5 288.4 44.9 300.8 33.1 300.8 61.3 288.4 73.5"/>
  </g>
  <g class="st49">
    <g class="st6">
      <g class="st50">
        <g class="st56">
          <polygon points="201.1 44.7 213.5 44.7 213.5 33.1 201.1 44.7"/>
        </g>
      </g>
    </g>
  </g>
  <g>
    <rect class="st8" x="201.1" y="44.7" width="29.1" height="29.1"/>
    <line class="st2" x1="213.6" y1="33.1" x2="213.6" y2="44.7"/>
    <line class="st2" x1="200.4" y1="44.9" x2="230.2" y2="44.9"/>
    <polyline class="st2" points="230 73.8 230 44.9 243.1 32.5"/>
  </g>
  <g class="st53">
    <g class="st6">
      <g class="st52">
        <g class="st55">
          <polygon points="230.2 44.7 242.6 44.7 242.6 33.1 230.2 44.7"/>
        </g>
      </g>
    </g>
  </g>
  <g>
    <rect class="st7" x="229.9" y="44.7" width="28.8" height="29.1"/>
    <line class="st2" x1="242.3" y1="33.1" x2="242.3" y2="44.7"/>
    <line class="st2" x1="229.2" y1="44.9" x2="258.7" y2="44.9"/>
    <polyline class="st2" points="258.5 73.8 258.5 44.9 271.5 32.5"/>
  </g>
  <g class="st54">
    <g class="st6">
      <g class="st16">
        <g class="st13">
          <polygon points="259.3 44.7 271.7 44.7 271.7 33.1 259.3 44.7"/>
        </g>
      </g>
    </g>
  </g>
  <rect class="st8" x="259.3" y="44.7" width="29.1" height="29.1"/>
  <line class="st2" x1="271.9" y1="33.1" x2="271.9" y2="44.7"/>
  <line class="st2" x1="258.6" y1="44.9" x2="288.4" y2="44.9"/>
  <polyline class="st2" points="288.2 73.8 288.2 44.9 301.3 32.5"/>
  <path d="M217.4,60.7c0,.4-.2.8-.4,1.2-.2.3-.5.6-.8.8-.3.2-.8.3-1.3.3s-.9-.1-1.2-.3c-.3-.2-.6-.5-.8-.8s-.3-.7-.4-1.2-.1-.9-.1-1.3,0-.9.1-1.3.2-.8.4-1.2.5-.6.8-.8c.3-.2.8-.3,1.2-.3s.9.1,1.3.3c.3.2.6.5.8.8.2.3.3.7.4,1.2s.1.9.1,1.3,0,.9-.1,1.3ZM217.2,58.3c0-.4-.2-.8-.4-1.1-.2-.3-.4-.6-.7-.8-.3-.2-.7-.3-1.2-.3s-.9.1-1.2.3c-.3.2-.6.5-.7.8-.2.3-.3.7-.4,1.1,0,.4-.1.8-.1,1.2s0,.8.1,1.2c0,.4.2.8.4,1.1.2.3.4.6.7.8.3.2.7.3,1.2.3s.9-.1,1.2-.3c.3-.2.6-.5.7-.8.2-.3.3-.7.4-1.1,0-.4.1-.8.1-1.2s0-.8-.1-1.2Z"/>
  <path d="M244.2,56.2c-.2.3-.5.5-.8.8-.3.2-.7.4-1,.5v-.2c.2,0,.4-.1.6-.2.2,0,.3-.2.5-.3.1-.1.3-.2.4-.3.1-.1.3-.3.4-.4h.2v6.9h-.2v-6.7h0Z"/>
  <path d="M275.5,62.9h-4.7c0-.3,0-.6.2-.8.1-.2.3-.5.5-.7.2-.2.4-.4.7-.6.3-.2.5-.4.8-.6.3-.2.5-.4.8-.6.3-.2.5-.4.7-.6s.4-.4.5-.7.2-.5.2-.8,0-.5-.1-.7c0-.2-.2-.4-.4-.5-.2-.1-.4-.2-.6-.3s-.5-.1-.8-.1-.7,0-.9.2c-.3.1-.5.3-.6.5-.2.2-.3.4-.4.7,0,.3-.1.6-.1.9h-.2c0-.8.2-1.3.6-1.8.4-.4.9-.6,1.7-.6s.6,0,.8.1c.3,0,.5.2.7.4s.3.3.5.6c.1.2.2.5.2.8s-.1.7-.3,1c-.2.3-.5.6-.8.9-.3.3-.6.5-1,.8s-.7.5-1,.7c-.3.2-.6.5-.8.7-.2.3-.4.5-.4.8h4.5v.2Z"/>
  <polygon points="215.6 35.2 218.6 35.2 218.6 22.9 221.5 22.9 221.5 35.2 224.4 35.2 220 41.8 215.6 35.2"/>
  <polygon class="st5" points="215.6 35.2 218.6 35.2 218.6 22.9 221.5 22.9 221.5 35.2 224.4 35.2 220 41.8 215.6 35.2"/>
  <polygon class="st9" points="215.6 35.2 218.6 35.2 218.6 22.9 221.5 22.9 221.5 35.2 224.4 35.2 220 41.8 215.6 35.2"/>
  <g>
    <path d="M216.4,20v-5h-1.9v-1.2c.3,0,.5,0,.8,0s.5-.1.7-.3c.2-.1.4-.3.5-.5.1-.2.2-.4.3-.7h1.2v7.7h-1.6Z"/>
    <path d="M220.2,14.2c.2-.5.4-.9.6-1.2s.6-.5.9-.7c.3-.1.7-.2,1.1-.2s.8,0,1.1.2c.3.1.6.4.9.7.3.3.5.7.6,1.2s.2,1.1.2,1.9,0,1.4-.2,1.9-.4.9-.6,1.2c-.3.3-.6.5-.9.7-.3.1-.7.2-1.1.2s-.7,0-1.1-.2c-.3-.1-.6-.4-.9-.7-.3-.3-.5-.7-.6-1.2s-.2-1.2-.2-1.9,0-1.4.2-1.9ZM221.6,16.9c0,.3,0,.6.1.9,0,.3.2.5.4.7.2.2.4.3.7.3s.6-.1.7-.3c.2-.2.3-.5.4-.7,0-.3.1-.6.1-.9s0-.6,0-.8,0-.3,0-.5,0-.4,0-.6c0-.2,0-.4-.1-.6s-.1-.4-.2-.5c0-.2-.2-.3-.4-.4s-.3-.1-.5-.1-.4,0-.5.1c-.1,0-.3.2-.4.4,0,.2-.2.3-.2.5,0,.2,0,.4-.1.6,0,.2,0,.4,0,.6,0,.2,0,.3,0,.5,0,.2,0,.5,0,.8Z"/>
  </g>
  <g>
    <path d="M65.5,21.5v-5h-1.9v-1.2c.3,0,.5,0,.8,0s.5-.1.7-.3c.2-.1.4-.3.5-.5.1-.2.2-.4.3-.7h1.2v7.7h-1.6Z"/>
    <path d="M69.3,15.8c.2-.5.4-.9.6-1.2s.6-.5.9-.7c.3-.1.7-.2,1.1-.2s.8,0,1.1.2c.3.1.6.4.9.7s.5.7.6,1.2c.1.5.2,1.1.2,1.9s0,1.4-.2,1.9c-.2.5-.4.9-.6,1.2s-.6.5-.9.7c-.3.1-.7.2-1.1.2s-.7,0-1.1-.2c-.3-.1-.6-.4-.9-.7s-.5-.7-.6-1.2-.2-1.2-.2-1.9,0-1.4.2-1.9ZM70.6,18.4c0,.3,0,.6.1.9,0,.3.2.5.4.7.2.2.4.3.7.3s.6-.1.7-.3.3-.5.4-.7c0-.3.1-.6.1-.9s0-.6,0-.8,0-.3,0-.5,0-.4,0-.6c0-.2,0-.4-.1-.6,0-.2-.1-.4-.2-.5,0-.2-.2-.3-.4-.4s-.3-.1-.5-.1-.4,0-.5.1-.3.2-.4.4c0,.2-.2.3-.2.5s0,.4-.1.6c0,.2,0,.4,0,.6,0,.2,0,.3,0,.5,0,.2,0,.5,0,.8Z"/>
  </g>
  <g>
    <path d="M39.1,8.1l2.9,7.9h-1.8l-.6-1.7h-2.9l-.6,1.7h-1.7l3-7.9h1.8ZM39.2,12.9l-1-2.9h0l-1,2.9h2Z"/>
    <path d="M44.4,14.3v1.7h-1.7v-1.7h1.7Z"/>
  </g>
  <g>
    <path d="M38.9,90.5c.4,0,.7,0,1,0,.3,0,.6.2.8.3s.4.4.5.6c.1.2.2.6.2.9s0,.7-.3,1c-.2.3-.4.5-.8.6.5.1.8.4,1.1.7.2.3.4.8.4,1.3s0,.7-.2,1c-.2.3-.4.5-.6.7s-.6.3-.9.4c-.3,0-.7.1-1,.1h-3.8v-7.9h3.7ZM38.7,93.7c.3,0,.6,0,.8-.2.2-.1.3-.4.3-.7s0-.3,0-.5-.2-.2-.3-.3c-.1,0-.2-.1-.4-.1s-.3,0-.4,0h-1.6v1.8h1.7ZM38.8,97c.2,0,.3,0,.5,0,.2,0,.3,0,.4-.2.1,0,.2-.2.3-.3s.1-.3.1-.5c0-.4-.1-.7-.3-.9-.2-.2-.5-.3-.9-.3h-1.9v2.2h1.8Z"/>
    <path d="M44.6,96.6v1.7h-1.7v-1.7h1.7Z"/>
  </g>
  <g>
    <path d="M185.8,10.2c-.1-.2-.2-.3-.4-.4-.2-.1-.3-.2-.5-.3-.2,0-.4-.1-.6-.1-.4,0-.7,0-1,.2-.3.2-.5.4-.7.6-.2.3-.3.5-.4.9,0,.3-.1.7-.1,1s0,.7.1,1c0,.3.2.6.4.8.2.2.4.4.7.6.3.2.6.2,1,.2s.9-.2,1.2-.5.5-.7.5-1.3h1.7c0,.5-.2.9-.3,1.3-.2.4-.4.7-.7,1-.3.3-.7.5-1.1.6s-.8.2-1.3.2-1.1-.1-1.6-.3c-.5-.2-.9-.5-1.2-.9s-.6-.8-.8-1.3c-.2-.5-.3-1-.3-1.6s0-1.1.3-1.6c.2-.5.4-.9.8-1.3s.7-.7,1.2-.9c.5-.2,1-.3,1.6-.3s.8,0,1.2.2c.4.1.7.3,1,.5s.6.5.8.9c.2.4.3.8.4,1.2h-1.7c0-.2,0-.4-.2-.5Z"/>
    <path d="M190.5,14.3v1.7h-1.7v-1.7h1.7Z"/>
  </g>
  <polygon points="244.8 35.2 247.7 35.2 247.7 22.9 250.6 22.9 250.6 35.2 253.5 35.2 249.1 41.8 244.8 35.2"/>
  <polygon class="st5" points="244.8 35.2 247.7 35.2 247.7 22.9 250.6 22.9 250.6 35.2 253.5 35.2 249.1 41.8 244.8 35.2"/>
  <polygon class="st9" points="244.8 35.2 247.7 35.2 247.7 22.9 250.6 22.9 250.6 35.2 253.5 35.2 249.1 41.8 244.8 35.2"/>
  <g>
    <path d="M243.3,14c.1-.4.3-.7.5-1,.2-.3.5-.5.9-.7.4-.2.8-.2,1.2-.2s.7,0,1,.2c.3.1.6.3.8.5.2.2.4.5.6.8.1.3.2.6.2,1s0,.7-.2,1c-.1.3-.3.5-.5.7-.2.2-.4.4-.7.6-.3.2-.5.4-.8.5s-.5.4-.8.6c-.2.2-.5.4-.7.7h3.6v1.3h-5.7c0-.4,0-.8.2-1.2.1-.3.3-.6.5-.9.2-.3.5-.5.8-.7.3-.2.6-.4.9-.7.2-.1.3-.2.5-.4.2-.1.4-.3.5-.4.2-.1.3-.3.4-.5.1-.2.2-.4.2-.6,0-.4-.1-.7-.3-.9-.2-.2-.5-.3-.8-.3s-.4,0-.6.2c-.2.1-.3.2-.4.4,0,.2-.2.4-.2.6,0,.2,0,.4,0,.6h-1.5c0-.4,0-.8.2-1.2Z"/>
    <path d="M249.3,14.2c.2-.5.4-.9.6-1.2s.6-.5.9-.7c.3-.1.7-.2,1.1-.2s.8,0,1.1.2c.3.1.6.4.9.7.3.3.5.7.6,1.2s.2,1.1.2,1.9,0,1.4-.2,1.9-.4.9-.6,1.2c-.3.3-.6.5-.9.7-.3.1-.7.2-1.1.2s-.7,0-1.1-.2c-.3-.1-.6-.4-.9-.7-.3-.3-.5-.7-.6-1.2s-.2-1.2-.2-1.9,0-1.4.2-1.9ZM250.7,16.9c0,.3,0,.6.1.9,0,.3.2.5.4.7.2.2.4.3.7.3s.6-.1.7-.3c.2-.2.3-.5.4-.7,0-.3.1-.6.1-.9s0-.6,0-.8,0-.3,0-.5,0-.4,0-.6c0-.2,0-.4-.1-.6s-.1-.4-.2-.5c0-.2-.2-.3-.4-.4s-.3-.1-.5-.1-.4,0-.5.1c-.1,0-.3.2-.4.4,0,.2-.2.3-.2.5,0,.2,0,.4-.1.6,0,.2,0,.4,0,.6,0,.2,0,.3,0,.5,0,.2,0,.5,0,.8Z"/>
  </g>
  <polygon points="273.9 35.2 276.8 35.2 276.8 22.9 279.7 22.9 279.7 35.2 282.6 35.2 278.2 41.8 273.9 35.2"/>
  <polygon class="st5" points="273.9 35.2 276.8 35.2 276.8 22.9 279.7 22.9 279.7 35.2 282.6 35.2 278.2 41.8 273.9 35.2"/>
  <polygon class="st9" points="273.9 35.2 276.8 35.2 276.8 22.9 279.7 22.9 279.7 35.2 282.6 35.2 278.2 41.8 273.9 35.2"/>
  <g>
    <path d="M274.9,15.4c.2,0,.4,0,.5-.1s.3-.2.4-.3c.1-.1.2-.3.2-.5,0-.3-.1-.6-.3-.8-.2-.2-.5-.3-.8-.3s-.7.1-.9.4c-.2.3-.3.6-.3,1h-1.5c0-.4,0-.8.2-1.1.1-.3.3-.6.5-.8.2-.2.5-.4.8-.5.3-.1.7-.2,1.1-.2s.6,0,.9.1.6.2.8.4c.2.2.4.4.6.7.2.3.2.6.2.9s0,.7-.3,1-.4.5-.8.6h0c.4.1.8.3,1,.6.2.3.4.7.4,1.1s0,.8-.2,1.1c-.2.3-.4.6-.6.8-.3.2-.6.4-.9.5s-.7.2-1.1.2-.8,0-1.2-.2-.7-.3-.9-.5-.4-.5-.6-.9c-.1-.3-.2-.7-.2-1.2h1.5c0,.2,0,.4,0,.6,0,.2.1.3.3.5.1.1.2.2.4.3s.4.1.6.1c.4,0,.6-.1.9-.3s.4-.5.4-.9,0-.5-.2-.7c-.1-.2-.3-.3-.4-.3-.2,0-.4-.1-.6-.1-.2,0-.4,0-.6,0v-1.1c.2,0,.3,0,.5,0Z"/>
    <path d="M278.4,14.2c.2-.5.4-.9.6-1.2s.6-.5.9-.7c.3-.1.7-.2,1.1-.2s.8,0,1.1.2c.3.1.6.4.9.7.3.3.5.7.6,1.2s.2,1.1.2,1.9,0,1.4-.2,1.9-.4.9-.6,1.2c-.3.3-.6.5-.9.7-.3.1-.7.2-1.1.2s-.7,0-1.1-.2c-.3-.1-.6-.4-.9-.7-.3-.3-.5-.7-.6-1.2s-.2-1.2-.2-1.9,0-1.4.2-1.9ZM279.8,16.9c0,.3,0,.6.1.9,0,.3.2.5.4.7.2.2.4.3.7.3s.6-.1.7-.3c.2-.2.3-.5.4-.7,0-.3.1-.6.1-.9s0-.6,0-.8,0-.3,0-.5,0-.4,0-.6c0-.2,0-.4-.1-.6s-.1-.4-.2-.5c0-.2-.2-.3-.4-.4s-.3-.1-.5-.1-.4,0-.5.1c-.1,0-.3.2-.4.4,0,.2-.2.3-.2.5,0,.2,0,.4-.1.6,0,.2,0,.4,0,.6,0,.2,0,.3,0,.5,0,.2,0,.5,0,.8Z"/>
  </g>
  <g>
    <path d="M305.6,68.3c0,.1.2.2.3.3.1,0,.2.1.4.2s.3,0,.5,0,.2,0,.4,0c.1,0,.2,0,.3-.1.1,0,.2-.1.3-.2,0,0,.1-.2.1-.4,0-.2-.2-.4-.5-.6s-.8-.2-1.4-.4c-.2,0-.5-.1-.7-.2-.2,0-.4-.2-.6-.3s-.3-.3-.4-.5c-.1-.2-.2-.4-.2-.7,0-.4,0-.7.2-1,.2-.2.4-.4.6-.6.2-.1.5-.2.8-.3.3,0,.6,0,1,0s.6,0,.9,0c.3,0,.6.2.8.3.2.1.4.3.6.6.2.2.3.6.3.9h-1.6c0-.3-.1-.5-.4-.6-.2-.1-.5-.2-.8-.2s-.2,0-.3,0c-.1,0-.2,0-.3,0,0,0-.2,0-.2.2,0,0,0,.2,0,.3s0,.3.2.4c.1,0,.2.2.4.2s.4.1.6.2c.2,0,.5,0,.7.2.2,0,.5.1.7.2.2,0,.4.2.6.3.2.1.3.3.4.5.1.2.2.4.2.7,0,.4,0,.7-.2,1s-.4.5-.6.6c-.3.2-.5.3-.9.3-.3,0-.7,0-1,0s-.7,0-1-.1c-.3,0-.6-.2-.9-.3-.3-.2-.5-.4-.6-.6-.2-.3-.3-.6-.3-1h1.6c0,.2,0,.3.1.5Z"/>
    <path d="M310.4,65.6c0-.4.1-.7.3-1s.4-.5.7-.6.6-.3.9-.3c.3,0,.7,0,1,0s.6,0,.9,0c.3,0,.6.1.9.2s.5.3.6.5c.2.2.2.5.2.9v3.1c0,.3,0,.5,0,.8,0,.2,0,.4.2.6h-1.7c0,0,0-.2,0-.3s0-.2,0-.3c-.3.3-.6.5-.9.6-.4.1-.7.2-1.1.2s-.6,0-.8-.1c-.2,0-.5-.2-.7-.3-.2-.1-.3-.3-.4-.6-.1-.2-.2-.5-.2-.8s0-.6.2-.8c.1-.2.3-.4.5-.5s.4-.2.7-.3c.2,0,.5-.1.7-.2s.5,0,.7,0c.2,0,.5,0,.6-.1.2,0,.3-.1.4-.2.1,0,.2-.2.2-.4,0-.2,0-.3,0-.4,0-.1-.1-.2-.2-.2,0,0-.2,0-.3-.1-.1,0-.3,0-.4,0-.3,0-.6,0-.8.2s-.3.4-.3.7h-1.7ZM314.2,66.9c0,0-.2.1-.3.1-.1,0-.2,0-.3,0s-.2,0-.4,0c-.1,0-.3,0-.4,0-.1,0-.2,0-.4,0-.1,0-.2,0-.3.2,0,0-.2.1-.2.2s0,.2,0,.4,0,.3,0,.4.1.2.2.2c0,0,.2,0,.3.1.1,0,.3,0,.4,0,.3,0,.6,0,.8-.2.2-.1.3-.2.4-.4,0-.2.1-.3.2-.5s0-.3,0-.4v-.6Z"/>
    <path d="M318.8,63.8v.8h0c.2-.3.5-.6.8-.7.3-.2.7-.3,1.1-.3s.7,0,1,.2.6.4.7.8c.2-.3.4-.5.7-.7s.7-.3,1.1-.3.6,0,.9.1c.3,0,.5.2.7.4.2.2.3.4.5.7.1.3.2.6.2,1v4h-1.7v-3.4c0-.2,0-.4,0-.6,0-.2,0-.3-.1-.5,0-.1-.2-.2-.3-.3-.1,0-.3-.1-.6-.1s-.4,0-.6.1c-.1,0-.3.2-.3.3,0,.1-.1.3-.2.5s0,.4,0,.6v3.4h-1.7v-3.4c0-.2,0-.4,0-.5,0-.2,0-.3,0-.5,0-.1-.2-.3-.3-.4-.1,0-.3-.1-.6-.1s-.2,0-.3,0-.3.1-.4.2c-.1,0-.2.2-.3.4,0,.2-.1.4-.1.7v3.5h-1.7v-6h1.6Z"/>
    <path d="M329.3,63.8v.8h0c.2-.3.5-.6.8-.7s.7-.2,1-.2.9,0,1.2.3.6.4.9.7c.2.3.4.6.5,1,.1.4.2.8.2,1.2s0,.8-.2,1.2c-.1.4-.3.7-.5,1-.2.3-.5.5-.8.7-.3.2-.7.3-1.2.3s-.7,0-1-.2c-.3-.2-.6-.4-.8-.7h0v2.9h-1.7v-8.1h1.6ZM331.4,68.6c.2-.1.3-.2.4-.4s.2-.4.2-.6c0-.2,0-.5,0-.7s0-.5,0-.7c0-.2-.1-.4-.3-.6-.1-.2-.3-.3-.4-.4-.2-.1-.4-.2-.7-.2s-.5,0-.7.2c-.2.1-.3.3-.4.4s-.2.4-.2.6c0,.2,0,.5,0,.7s0,.5,0,.7c0,.2.1.4.2.6s.3.3.4.4c.2.1.4.2.7.2s.5,0,.7-.2Z"/>
    <path d="M336.5,61.5v8.3h-1.7v-8.3h1.7Z"/>
    <path d="M339.6,68.4c.2.2.6.4,1.1.4s.6,0,.9-.2c.2-.2.4-.3.4-.5h1.5c-.2.7-.6,1.2-1.1,1.5s-1.1.5-1.7.5-.9,0-1.3-.2c-.4-.2-.7-.4-1-.6s-.5-.6-.6-1c-.1-.4-.2-.8-.2-1.3s0-.9.2-1.3c.1-.4.4-.7.6-1s.6-.5,1-.7c.4-.2.8-.2,1.3-.2s1,0,1.3.3c.4.2.7.5.9.8.2.3.4.7.5,1.1.1.4.1.9.1,1.3h-4.3c0,.5.2.9.4,1.2ZM341.5,65.2c-.2-.2-.5-.3-.9-.3s-.5,0-.7.1-.3.2-.4.3-.2.3-.2.4c0,.1,0,.3,0,.4h2.7c0-.4-.2-.7-.4-1Z"/>
    <path d="M349.7,70.7v.6h-5.8v-.6h5.8Z"/>
    <path d="M351.9,63.8v.8h0c.2-.3.5-.6.8-.8.3-.2.7-.2,1-.2s.8,0,1.1.2.5.3.7.5c.2.2.3.5.3.8,0,.3,0,.6,0,1v3.7h-1.7v-3.4c0-.5,0-.9-.2-1.1s-.4-.4-.8-.4-.8.1-1,.4c-.2.3-.3.7-.3,1.3v3.2h-1.7v-6h1.6Z"/>
    <path d="M361.3,69.8v-.8h0c-.2.3-.5.6-.8.8-.3.2-.7.2-1,.2s-.8,0-1.1-.2c-.3-.1-.5-.3-.7-.5-.2-.2-.3-.5-.3-.8,0-.3,0-.6,0-1v-3.7h1.7v3.4c0,.5,0,.9.2,1.1s.4.4.8.4.8-.1,1-.4c.2-.3.3-.7.3-1.3v-3.2h1.7v6h-1.6Z"/>
    <path d="M365.8,63.8v.8h0c.2-.3.5-.6.8-.7.3-.2.7-.3,1.1-.3s.7,0,1,.2.6.4.7.8c.2-.3.4-.5.7-.7s.7-.3,1.1-.3.6,0,.9.1c.3,0,.5.2.7.4.2.2.3.4.5.7.1.3.2.6.2,1v4h-1.7v-3.4c0-.2,0-.4,0-.6,0-.2,0-.3-.1-.5,0-.1-.2-.2-.3-.3-.1,0-.3-.1-.6-.1s-.4,0-.6.1c-.1,0-.3.2-.3.3,0,.1-.1.3-.2.5s0,.4,0,.6v3.4h-1.7v-3.4c0-.2,0-.4,0-.5,0-.2,0-.3,0-.5,0-.1-.2-.3-.3-.4-.1,0-.3-.1-.6-.1s-.2,0-.3,0-.3.1-.4.2c-.1,0-.2.2-.3.4,0,.2-.1.4-.1.7v3.5h-1.7v-6h1.6Z"/>
    <path d="M379.9,70.7v.6h-5.8v-.6h5.8Z"/>
    <path d="M382.2,61.5v8.3h-1.7v-8.3h1.7Z"/>
    <path d="M383.6,62.9v-1.4h1.7v1.4h-1.7ZM385.2,63.8v6h-1.7v-6h1.7Z"/>
    <path d="M387.9,68.3c0,.1.2.2.3.3.1,0,.2.1.4.2s.3,0,.5,0,.2,0,.4,0c.1,0,.2,0,.3-.1.1,0,.2-.1.3-.2,0,0,.1-.2.1-.4,0-.2-.2-.4-.5-.6s-.8-.2-1.4-.4c-.2,0-.5-.1-.7-.2-.2,0-.4-.2-.6-.3s-.3-.3-.4-.5c-.1-.2-.2-.4-.2-.7,0-.4,0-.7.2-1,.2-.2.4-.4.6-.6.2-.1.5-.2.8-.3.3,0,.6,0,1,0s.6,0,.9,0c.3,0,.6.2.8.3.2.1.4.3.6.6.2.2.3.6.3.9h-1.6c0-.3-.1-.5-.4-.6-.2-.1-.5-.2-.8-.2s-.2,0-.3,0c-.1,0-.2,0-.3,0,0,0-.2,0-.2.2,0,0,0,.2,0,.3s0,.3.2.4c.1,0,.2.2.4.2s.4.1.6.2c.2,0,.5,0,.7.2.2,0,.5.1.7.2.2,0,.4.2.6.3.2.1.3.3.4.5.1.2.2.4.2.7,0,.4,0,.7-.2,1s-.4.5-.6.6c-.3.2-.5.3-.9.3-.3,0-.7,0-1,0s-.7,0-1-.1c-.3,0-.6-.2-.9-.3-.3-.2-.5-.4-.6-.6-.2-.3-.3-.6-.3-1h1.6c0,.2,0,.3.1.5Z"/>
    <path d="M396.1,63.8v1.1h-1.2v3c0,.3,0,.5.1.6s.3.1.6.1.2,0,.3,0c0,0,.2,0,.2,0v1.3c-.1,0-.3,0-.5,0s-.3,0-.5,0c-.3,0-.5,0-.7,0-.2,0-.4-.1-.6-.2-.2-.1-.3-.2-.4-.4s-.2-.4-.2-.7v-3.6h-1v-1.1h1v-1.8h1.7v1.8h1.2Z"/>
  </g>
  <g>
    <path d="M98.5,67.3c0,.1.2.2.3.3.1,0,.2.1.4.2s.3,0,.5,0,.2,0,.4,0c.1,0,.2,0,.3-.1.1,0,.2-.1.3-.2,0,0,.1-.2.1-.4,0-.2-.2-.4-.5-.6s-.8-.2-1.4-.4c-.2,0-.5-.1-.7-.2-.2,0-.4-.2-.6-.3s-.3-.3-.4-.5c-.1-.2-.2-.4-.2-.7,0-.4,0-.7.2-1,.2-.2.4-.4.6-.6.2-.1.5-.2.8-.3.3,0,.6,0,1,0s.6,0,.9,0c.3,0,.6.2.8.3.2.1.4.3.6.6.2.2.3.6.3.9h-1.6c0-.3-.1-.5-.4-.6-.2-.1-.5-.2-.8-.2s-.2,0-.3,0c-.1,0-.2,0-.3,0,0,0-.2,0-.2.2,0,0,0,.2,0,.3s0,.3.2.4c.1,0,.2.2.4.2s.4.1.6.2c.2,0,.5,0,.7.2.2,0,.5.1.7.2.2,0,.4.2.6.3.2.1.3.3.4.5.1.2.2.4.2.7,0,.4,0,.7-.2,1s-.4.5-.6.6c-.3.2-.5.3-.9.3-.3,0-.7,0-1,0s-.7,0-1-.1c-.3,0-.6-.2-.9-.3-.3-.2-.5-.4-.6-.6-.2-.3-.3-.6-.3-1h1.6c0,.2,0,.3.1.5Z"/>
    <path d="M103.2,64.6c0-.4.1-.7.3-1s.4-.5.7-.6.6-.3.9-.3c.3,0,.7,0,1,0s.6,0,.9,0c.3,0,.6.1.9.2s.5.3.6.5c.2.2.2.5.2.9v3.1c0,.3,0,.5,0,.8,0,.2,0,.4.2.6h-1.7c0,0,0-.2,0-.3s0-.2,0-.3c-.3.3-.6.5-.9.6-.4.1-.7.2-1.1.2s-.6,0-.8-.1c-.2,0-.5-.2-.7-.3-.2-.1-.3-.3-.4-.6-.1-.2-.2-.5-.2-.8s0-.6.2-.8c.1-.2.3-.4.5-.5s.4-.2.7-.3c.2,0,.5-.1.7-.2s.5,0,.7,0c.2,0,.5,0,.6-.1.2,0,.3-.1.4-.2.1,0,.2-.2.2-.4,0-.2,0-.3,0-.4,0-.1-.1-.2-.2-.2,0,0-.2,0-.3-.1-.1,0-.3,0-.4,0-.3,0-.6,0-.8.2s-.3.4-.3.7h-1.7ZM107.1,65.9c0,0-.2.1-.3.1-.1,0-.2,0-.3,0s-.2,0-.4,0c-.1,0-.3,0-.4,0-.1,0-.2,0-.4,0-.1,0-.2,0-.3.2,0,0-.2.1-.2.2s0,.2,0,.4,0,.3,0,.4.1.2.2.2c0,0,.2,0,.3.1.1,0,.3,0,.4,0,.3,0,.6,0,.8-.2.2-.1.3-.2.4-.4,0-.2.1-.3.2-.5s0-.3,0-.4v-.6Z"/>
    <path d="M111.6,62.8v.8h0c.2-.3.5-.6.8-.7.3-.2.7-.3,1.1-.3s.7,0,1,.2.6.4.7.8c.2-.3.4-.5.7-.7s.7-.3,1.1-.3.6,0,.9.1c.3,0,.5.2.7.4.2.2.3.4.5.7.1.3.2.6.2,1v4h-1.7v-3.4c0-.2,0-.4,0-.6,0-.2,0-.3-.1-.5,0-.1-.2-.2-.3-.3-.1,0-.3-.1-.6-.1s-.4,0-.6.1c-.1,0-.3.2-.3.3,0,.1-.1.3-.2.5s0,.4,0,.6v3.4h-1.7v-3.4c0-.2,0-.4,0-.5,0-.2,0-.3,0-.5,0-.1-.2-.3-.3-.4-.1,0-.3-.1-.6-.1s-.2,0-.3,0-.3.1-.4.2c-.1,0-.2.2-.3.4,0,.2-.1.4-.1.7v3.5h-1.7v-6h1.6Z"/>
    <path d="M122.1,62.8v.8h0c.2-.3.5-.6.8-.7s.7-.2,1-.2.9,0,1.2.3.6.4.9.7c.2.3.4.6.5,1,.1.4.2.8.2,1.2s0,.8-.2,1.2c-.1.4-.3.7-.5,1-.2.3-.5.5-.8.7-.3.2-.7.3-1.2.3s-.7,0-1-.2c-.3-.2-.6-.4-.8-.7h0v2.9h-1.7v-8.1h1.6ZM124.3,67.6c.2-.1.3-.2.4-.4s.2-.4.2-.6c0-.2,0-.5,0-.7s0-.5,0-.7c0-.2-.1-.4-.3-.6-.1-.2-.3-.3-.4-.4-.2-.1-.4-.2-.7-.2s-.5,0-.7.2c-.2.1-.3.3-.4.4s-.2.4-.2.6c0,.2,0,.5,0,.7s0,.5,0,.7c0,.2.1.4.2.6s.3.3.4.4c.2.1.4.2.7.2s.5,0,.7-.2Z"/>
    <path d="M129.4,60.5v8.3h-1.7v-8.3h1.7Z"/>
    <path d="M132.4,67.4c.2.2.6.4,1.1.4s.6,0,.9-.2c.2-.2.4-.3.4-.5h1.5c-.2.7-.6,1.2-1.1,1.5s-1.1.5-1.7.5-.9,0-1.3-.2c-.4-.2-.7-.4-1-.6s-.5-.6-.6-1c-.1-.4-.2-.8-.2-1.3s0-.9.2-1.3c.1-.4.4-.7.6-1s.6-.5,1-.7c.4-.2.8-.2,1.3-.2s1,0,1.3.3c.4.2.7.5.9.8.2.3.4.7.5,1.1.1.4.1.9.1,1.3h-4.3c0,.5.2.9.4,1.2ZM134.3,64.2c-.2-.2-.5-.3-.9-.3s-.5,0-.7.1-.3.2-.4.3-.2.3-.2.4c0,.1,0,.3,0,.4h2.7c0-.4-.2-.7-.4-1Z"/>
    <path d="M142.5,69.7v.6h-5.8v-.6h5.8Z"/>
    <path d="M144.7,62.8v.8h0c.2-.3.5-.6.8-.8.3-.2.7-.2,1-.2s.8,0,1.1.2.5.3.7.5c.2.2.3.5.3.8,0,.3,0,.6,0,1v3.7h-1.7v-3.4c0-.5,0-.9-.2-1.1s-.4-.4-.8-.4-.8.1-1,.4c-.2.3-.3.7-.3,1.3v3.2h-1.7v-6h1.6Z"/>
    <path d="M154.2,68.8v-.8h0c-.2.3-.5.6-.8.8-.3.2-.7.2-1,.2s-.8,0-1.1-.2c-.3-.1-.5-.3-.7-.5-.2-.2-.3-.5-.3-.8,0-.3,0-.6,0-1v-3.7h1.7v3.4c0,.5,0,.9.2,1.1s.4.4.8.4.8-.1,1-.4c.2-.3.3-.7.3-1.3v-3.2h1.7v6h-1.6Z"/>
    <path d="M158.6,62.8v.8h0c.2-.3.5-.6.8-.7.3-.2.7-.3,1.1-.3s.7,0,1,.2.6.4.7.8c.2-.3.4-.5.7-.7s.7-.3,1.1-.3.6,0,.9.1c.3,0,.5.2.7.4.2.2.3.4.5.7.1.3.2.6.2,1v4h-1.7v-3.4c0-.2,0-.4,0-.6,0-.2,0-.3-.1-.5,0-.1-.2-.2-.3-.3-.1,0-.3-.1-.6-.1s-.4,0-.6.1c-.1,0-.3.2-.3.3,0,.1-.1.3-.2.5s0,.4,0,.6v3.4h-1.7v-3.4c0-.2,0-.4,0-.5,0-.2,0-.3,0-.5,0-.1-.2-.3-.3-.4-.1,0-.3-.1-.6-.1s-.2,0-.3,0-.3.1-.4.2c-.1,0-.2.2-.3.4,0,.2-.1.4-.1.7v3.5h-1.7v-6h1.6Z"/>
  </g>
  <g class="st20">
    <g class="st6">
      <g class="st18">
        <g class="st19">
          <polygon points="199.6 151.3 220 154.9 307.3 154.9 320.4 142.6 300.8 136.7 228 136.7 199.6 151.3"/>
        </g>
      </g>
    </g>
  </g>
  <g class="st17">
    <polygon class="st57" points="200.4 120.7 213.5 108.3 301.5 108.3 301.5 137.5 288.4 150.6 200.4 150.6 200.4 120.7"/>
    <polygon class="st1" points="200.4 120.7 213.5 108.3 301.5 108.3 301.5 137.5 288.4 150.6 200.4 150.6 200.4 120.7"/>
    <polygon class="st10" points="288.4 149.5 288.4 120.9 300.8 109.1 300.8 137.3 288.4 149.5"/>
  </g>
  <g class="st14">
    <g class="st6">
      <g class="st11">
        <g class="st15">
          <polygon points="201.1 120.7 213.5 120.7 213.5 109.1 201.1 120.7"/>
        </g>
      </g>
    </g>
  </g>
  <g class="st12">
    <rect class="st8" x="201.1" y="120.7" width="29.1" height="29.1"/>
    <line class="st2" x1="213.6" y1="109.1" x2="213.6" y2="120.7"/>
    <line class="st2" x1="200.4" y1="120.9" x2="230.2" y2="120.9"/>
    <polyline class="st2" points="230 149.8 230 120.9 243.1 108.5"/>
  </g>
  <g class="st35">
    <g class="st6">
      <g class="st36">
        <g class="st37">
          <polygon points="230.2 120.7 242.6 120.7 242.6 109.1 230.2 120.7"/>
        </g>
      </g>
    </g>
  </g>
  <g class="st38">
    <rect class="st7" x="229.9" y="120.7" width="28.8" height="29.1"/>
    <line class="st2" x1="242.3" y1="109.1" x2="242.3" y2="120.7"/>
    <line class="st2" x1="229.2" y1="120.9" x2="258.7" y2="120.9"/>
    <polyline class="st2" points="258.5 149.8 258.5 120.9 271.5 108.5"/>
  </g>
  <g class="st39">
    <g class="st6">
      <g class="st40">
        <g class="st33">
          <polygon points="259.3 120.7 271.7 120.7 271.7 109.1 259.3 120.7"/>
        </g>
      </g>
    </g>
  </g>
  <g class="st31">
    <rect class="st8" x="259.3" y="120.7" width="29.1" height="29.1"/>
    <line class="st2" x1="271.9" y1="109.1" x2="271.9" y2="120.7"/>
    <line class="st2" x1="258.6" y1="120.9" x2="288.4" y2="120.9"/>
    <polyline class="st2" points="288.2 149.8 288.2 120.9 301.3 108.5"/>
    <path d="M217.4,136.7c0,.4-.2.8-.4,1.2-.2.3-.5.6-.8.8-.3.2-.8.3-1.3.3s-.9-.1-1.2-.3c-.3-.2-.6-.5-.8-.8s-.3-.7-.4-1.2-.1-.9-.1-1.3,0-.9.1-1.3.2-.8.4-1.2.5-.6.8-.8c.3-.2.8-.3,1.2-.3s.9.1,1.3.3c.3.2.6.5.8.8.2.3.3.7.4,1.2s.1.9.1,1.3,0,.9-.1,1.3ZM217.2,134.3c0-.4-.2-.8-.4-1.1-.2-.3-.4-.6-.7-.8-.3-.2-.7-.3-1.2-.3s-.9.1-1.2.3c-.3.2-.6.5-.7.8-.2.3-.3.7-.4,1.1,0,.4-.1.8-.1,1.2s0,.8.1,1.2c0,.4.2.8.4,1.1.2.3.4.6.7.8.3.2.7.3,1.2.3s.9-.1,1.2-.3c.3-.2.6-.5.7-.8.2-.3.3-.7.4-1.1,0-.4.1-.8.1-1.2s0-.8-.1-1.2Z"/>
    <path d="M244.2,132.3c-.2.3-.5.5-.8.8-.3.2-.7.4-1,.5v-.2c.2,0,.4-.1.6-.2.2,0,.3-.2.5-.3.1-.1.3-.2.4-.3.1-.1.3-.3.4-.4h.2v6.9h-.2v-6.7h0Z"/>
    <path d="M275.5,138.9h-4.7c0-.3,0-.6.2-.8.1-.2.3-.5.5-.7.2-.2.4-.4.7-.6.3-.2.5-.4.8-.6.3-.2.5-.4.8-.6.3-.2.5-.4.7-.6s.4-.4.5-.7.2-.5.2-.8,0-.5-.1-.7c0-.2-.2-.4-.4-.5-.2-.1-.4-.2-.6-.3s-.5-.1-.8-.1-.7,0-.9.2c-.3.1-.5.3-.6.5-.2.2-.3.4-.4.7,0,.3-.1.6-.1.9h-.2c0-.8.2-1.3.6-1.8.4-.4.9-.6,1.7-.6s.6,0,.8.1c.3,0,.5.2.7.4s.3.3.5.6c.1.2.2.5.2.8s-.1.7-.3,1c-.2.3-.5.6-.8.9-.3.3-.6.5-1,.8s-.7.5-1,.7c-.3.2-.6.5-.8.7-.2.3-.4.5-.4.8h4.5v.2Z"/>
    <g>
      <path d="M310.8,146.9c0,.1.2.2.3.3.1,0,.2.1.4.2s.3,0,.5,0,.2,0,.4,0c.1,0,.2,0,.3-.1.1,0,.2-.1.3-.2,0,0,.1-.2.1-.4,0-.2-.2-.4-.5-.6s-.8-.2-1.4-.4c-.2,0-.5-.1-.7-.2-.2,0-.4-.2-.6-.3s-.3-.3-.4-.5c-.1-.2-.2-.4-.2-.7,0-.4,0-.7.2-1,.2-.2.4-.4.6-.6.2-.1.5-.2.8-.3.3,0,.6,0,1,0s.6,0,.9,0c.3,0,.6.2.8.3.2.1.4.3.6.6.2.2.3.6.3.9h-1.6c0-.3-.1-.5-.4-.6-.2-.1-.5-.2-.8-.2s-.2,0-.3,0c-.1,0-.2,0-.3,0,0,0-.2,0-.2.2,0,0,0,.2,0,.3s0,.3.2.4c.1,0,.2.2.4.2s.4.1.6.2c.2,0,.5,0,.7.2.2,0,.5.1.7.2.2,0,.4.2.6.3.2.1.3.3.4.5.1.2.2.4.2.7,0,.4,0,.7-.2,1s-.4.5-.6.6c-.3.2-.5.3-.9.3-.3,0-.7,0-1,0s-.7,0-1-.1c-.3,0-.6-.2-.9-.3-.3-.2-.5-.4-.6-.6-.2-.3-.3-.6-.3-1h1.6c0,.2,0,.3.1.5Z"/>
      <path d="M315.6,144.2c0-.4.1-.7.3-1s.4-.5.7-.6.6-.3.9-.3c.3,0,.7,0,1,0s.6,0,.9,0c.3,0,.6.1.9.2s.5.3.6.5c.2.2.2.5.2.9v3.1c0,.3,0,.5,0,.8,0,.2,0,.4.2.6h-1.7c0,0,0-.2,0-.3s0-.2,0-.3c-.3.3-.6.5-.9.6-.4.1-.7.2-1.1.2s-.6,0-.8-.1c-.2,0-.5-.2-.7-.3-.2-.1-.3-.3-.4-.6-.1-.2-.2-.5-.2-.8s0-.6.2-.8c.1-.2.3-.4.5-.5s.4-.2.7-.3c.2,0,.5-.1.7-.2s.5,0,.7,0c.2,0,.5,0,.6-.1.2,0,.3-.1.4-.2.1,0,.2-.2.2-.4,0-.2,0-.3,0-.4,0-.1-.1-.2-.2-.2,0,0-.2,0-.3-.1-.1,0-.3,0-.4,0-.3,0-.6,0-.8.2s-.3.4-.3.7h-1.7ZM319.4,145.4c0,0-.2.1-.3.1-.1,0-.2,0-.3,0s-.2,0-.4,0c-.1,0-.3,0-.4,0-.1,0-.2,0-.4,0-.1,0-.2,0-.3.2,0,0-.2.1-.2.2s0,.2,0,.4,0,.3,0,.4.1.2.2.2c0,0,.2,0,.3.1.1,0,.3,0,.4,0,.3,0,.6,0,.8-.2.2-.1.3-.2.4-.4,0-.2.1-.3.2-.5s0-.3,0-.4v-.6Z"/>
      <path d="M324,142.4v.8h0c.2-.3.5-.6.8-.7.3-.2.7-.3,1.1-.3s.7,0,1,.2.6.4.7.8c.2-.3.4-.5.7-.7s.7-.3,1.1-.3.6,0,.9.1c.3,0,.5.2.7.4.2.2.3.4.5.7.1.3.2.6.2,1v4h-1.7v-3.4c0-.2,0-.4,0-.6,0-.2,0-.3-.1-.5,0-.1-.2-.2-.3-.3-.1,0-.3-.1-.6-.1s-.4,0-.6.1c-.1,0-.3.2-.3.3,0,.1-.1.3-.2.5s0,.4,0,.6v3.4h-1.7v-3.4c0-.2,0-.4,0-.5,0-.2,0-.3,0-.5,0-.1-.2-.3-.3-.4-.1,0-.3-.1-.6-.1s-.2,0-.3,0-.3.1-.4.2c-.1,0-.2.2-.3.4,0,.2-.1.4-.1.7v3.5h-1.7v-6h1.6Z"/>
      <path d="M334.5,142.4v.8h0c.2-.3.5-.6.8-.7s.7-.2,1-.2.9,0,1.2.3.6.4.9.7c.2.3.4.6.5,1,.1.4.2.8.2,1.2s0,.8-.2,1.2c-.1.4-.3.7-.5,1-.2.3-.5.5-.8.7-.3.2-.7.3-1.2.3s-.7,0-1-.2c-.3-.2-.6-.4-.8-.7h0v2.9h-1.7v-8.1h1.6ZM336.6,147.1c.2-.1.3-.2.4-.4s.2-.4.2-.6c0-.2,0-.5,0-.7s0-.5,0-.7c0-.2-.1-.4-.3-.6-.1-.2-.3-.3-.4-.4-.2-.1-.4-.2-.7-.2s-.5,0-.7.2c-.2.1-.3.3-.4.4s-.2.4-.2.6c0,.2,0,.5,0,.7s0,.5,0,.7c0,.2.1.4.2.6s.3.3.4.4c.2.1.4.2.7.2s.5,0,.7-.2Z"/>
      <path d="M341.7,140.1v8.3h-1.7v-8.3h1.7Z"/>
      <path d="M344.8,146.9c.2.2.6.4,1.1.4s.6,0,.9-.2c.2-.2.4-.3.4-.5h1.5c-.2.7-.6,1.2-1.1,1.5s-1.1.5-1.7.5-.9,0-1.3-.2c-.4-.2-.7-.4-1-.6s-.5-.6-.6-1c-.1-.4-.2-.8-.2-1.3s0-.9.2-1.3c.1-.4.4-.7.6-1s.6-.5,1-.7c.4-.2.8-.2,1.3-.2s1,0,1.3.3c.4.2.7.5.9.8.2.3.4.7.5,1.1.1.4.1.9.1,1.3h-4.3c0,.5.2.9.4,1.2ZM346.7,143.8c-.2-.2-.5-.3-.9-.3s-.5,0-.7.1-.3.2-.4.3-.2.3-.2.4c0,.1,0,.3,0,.4h2.7c0-.4-.2-.7-.4-1Z"/>
      <path d="M354.9,149.2v.6h-5.8v-.6h5.8Z"/>
      <path d="M356.9,146.9c0,.1.2.2.3.3.1,0,.2.1.4.2s.3,0,.5,0,.2,0,.4,0c.1,0,.2,0,.3-.1.1,0,.2-.1.3-.2,0,0,.1-.2.1-.4,0-.2-.2-.4-.5-.6s-.8-.2-1.4-.4c-.2,0-.5-.1-.7-.2-.2,0-.4-.2-.6-.3s-.3-.3-.4-.5c-.1-.2-.2-.4-.2-.7,0-.4,0-.7.2-1,.2-.2.4-.4.6-.6.2-.1.5-.2.8-.3.3,0,.6,0,1,0s.6,0,.9,0c.3,0,.6.2.8.3.2.1.4.3.6.6.2.2.3.6.3.9h-1.6c0-.3-.1-.5-.4-.6-.2-.1-.5-.2-.8-.2s-.2,0-.3,0c-.1,0-.2,0-.3,0,0,0-.2,0-.2.2,0,0,0,.2,0,.3s0,.3.2.4c.1,0,.2.2.4.2s.4.1.6.2c.2,0,.5,0,.7.2.2,0,.5.1.7.2.2,0,.4.2.6.3.2.1.3.3.4.5.1.2.2.4.2.7,0,.4,0,.7-.2,1s-.4.5-.6.6c-.3.2-.5.3-.9.3-.3,0-.7,0-1,0s-.7,0-1-.1c-.3,0-.6-.2-.9-.3-.3-.2-.5-.4-.6-.6-.2-.3-.3-.6-.3-1h1.6c0,.2,0,.3.1.5Z"/>
      <path d="M365.1,142.4v1.1h-1.2v3c0,.3,0,.5.1.6s.3.1.6.1.2,0,.3,0c0,0,.2,0,.2,0v1.3c-.1,0-.3,0-.5,0s-.3,0-.5,0c-.3,0-.5,0-.7,0-.2,0-.4-.1-.6-.2-.2-.1-.3-.2-.4-.4s-.2-.4-.2-.7v-3.6h-1v-1.1h1v-1.8h1.7v1.8h1.2Z"/>
      <path d="M367.5,142.4v1.1h0c0-.2.2-.4.3-.5s.3-.3.5-.4c.2-.1.4-.2.5-.3.2,0,.4,0,.6,0s.2,0,.4,0v1.5c0,0-.2,0-.3,0s-.2,0-.3,0c-.3,0-.6,0-.8.2-.2.1-.4.2-.5.4-.1.2-.2.4-.3.6,0,.2,0,.5,0,.8v2.7h-1.7v-6h1.6Z"/>
      <path d="M375.6,149.2v.6h-5.8v-.6h5.8Z"/>
      <path d="M377.9,140.1v8.3h-1.7v-8.3h1.7Z"/>
      <path d="M379.3,141.4v-1.4h1.7v1.4h-1.7ZM380.9,142.4v6h-1.7v-6h1.7Z"/>
      <path d="M383.6,146.9c0,.1.2.2.3.3.1,0,.2.1.4.2s.3,0,.5,0,.2,0,.4,0c.1,0,.2,0,.3-.1.1,0,.2-.1.3-.2,0,0,.1-.2.1-.4,0-.2-.2-.4-.5-.6s-.8-.2-1.4-.4c-.2,0-.5-.1-.7-.2-.2,0-.4-.2-.6-.3s-.3-.3-.4-.5c-.1-.2-.2-.4-.2-.7,0-.4,0-.7.2-1,.2-.2.4-.4.6-.6.2-.1.5-.2.8-.3.3,0,.6,0,1,0s.6,0,.9,0c.3,0,.6.2.8.3.2.1.4.3.6.6.2.2.3.6.3.9h-1.6c0-.3-.1-.5-.4-.6-.2-.1-.5-.2-.8-.2s-.2,0-.3,0c-.1,0-.2,0-.3,0,0,0-.2,0-.2.2,0,0,0,.2,0,.3s0,.3.2.4c.1,0,.2.2.4.2s.4.1.6.2c.2,0,.5,0,.7.2.2,0,.5.1.7.2.2,0,.4.2.6.3.2.1.3.3.4.5.1.2.2.4.2.7,0,.4,0,.7-.2,1s-.4.5-.6.6c-.3.2-.5.3-.9.3-.3,0-.7,0-1,0s-.7,0-1-.1c-.3,0-.6-.2-.9-.3-.3-.2-.5-.4-.6-.6-.2-.3-.3-.6-.3-1h1.6c0,.2,0,.3.1.5Z"/>
      <path d="M391.8,142.4v1.1h-1.2v3c0,.3,0,.5.1.6s.3.1.6.1.2,0,.3,0c0,0,.2,0,.2,0v1.3c-.1,0-.3,0-.5,0s-.3,0-.5,0c-.3,0-.5,0-.7,0-.2,0-.4-.1-.6-.2-.2-.1-.3-.2-.4-.4s-.2-.4-.2-.7v-3.6h-1v-1.1h1v-1.8h1.7v1.8h1.2Z"/>
    </g>
    <polygon points="215.6 111.3 218.6 111.3 218.6 98.9 221.5 98.9 221.5 111.3 224.4 111.3 220 117.8 215.6 111.3"/>
    <polygon class="st5" points="215.6 111.3 218.6 111.3 218.6 98.9 221.5 98.9 221.5 111.3 224.4 111.3 220 117.8 215.6 111.3"/>
    <polygon class="st9" points="215.6 111.3 218.6 111.3 218.6 98.9 221.5 98.9 221.5 111.3 224.4 111.3 220 117.8 215.6 111.3"/>
    <g>
      <path d="M203.6,92.9c0-.3,0-.5.2-.7.1-.2.3-.3.5-.5.2-.1.4-.2.7-.2.2,0,.5,0,.7,0s.5,0,.7,0c.2,0,.4,0,.6.2.2,0,.3.2.5.4s.2.4.2.7v2.3c0,.2,0,.4,0,.6,0,.2,0,.3.1.4h-1.3c0,0,0-.1,0-.2s0-.1,0-.2c-.2.2-.4.3-.7.4s-.5.1-.8.1-.4,0-.6,0c-.2,0-.3-.1-.5-.2-.1-.1-.2-.2-.3-.4,0-.2-.1-.4-.1-.6s0-.5.1-.6c0-.2.2-.3.3-.4s.3-.2.5-.2.4,0,.6-.1c.2,0,.4,0,.5,0s.3,0,.5,0,.2,0,.3-.2c0,0,.1-.2.1-.3,0-.1,0-.2,0-.3,0,0-.1-.1-.2-.2s-.2,0-.3,0c0,0-.2,0-.3,0-.2,0-.4,0-.6.2s-.2.3-.2.5h-1.2ZM206.5,93.8c0,0-.1,0-.2.1,0,0-.2,0-.3,0,0,0-.2,0-.3,0,0,0-.2,0-.3,0,0,0-.2,0-.3,0,0,0-.2,0-.2.1,0,0-.1.1-.2.2,0,0,0,.2,0,.3s0,.2,0,.3c0,0,0,.1.2.2,0,0,.2,0,.2,0,0,0,.2,0,.3,0,.2,0,.4,0,.6-.1.1,0,.2-.2.3-.3,0-.1.1-.2.1-.3,0-.1,0-.2,0-.3v-.5Z"/>
      <path d="M209.9,91.5v.6h0c.2-.2.3-.4.6-.5.2-.1.5-.2.8-.2s.7,0,.9.2c.3.1.5.3.6.5.2.2.3.5.4.8,0,.3.1.6.1.9s0,.6-.1.9c0,.3-.2.5-.4.7-.2.2-.4.4-.6.5-.2.1-.5.2-.9.2s-.5,0-.8-.2c-.2-.1-.4-.3-.6-.5h0v2.1h-1.2v-6.1h1.2ZM211.5,95c.1,0,.2-.2.3-.3,0-.1.1-.3.2-.5,0-.2,0-.4,0-.5s0-.4,0-.5c0-.2-.1-.3-.2-.5,0-.1-.2-.2-.3-.3-.1,0-.3-.1-.5-.1s-.4,0-.5.1c-.1,0-.2.2-.3.3,0,.1-.1.3-.2.5,0,.2,0,.4,0,.5s0,.4,0,.5c0,.2,0,.3.2.5s.2.2.3.3c.1,0,.3.1.5.1s.4,0,.5-.1Z"/>
      <path d="M215.2,91.5v.6h0c.2-.2.3-.4.6-.5.2-.1.5-.2.8-.2s.7,0,.9.2c.3.1.5.3.6.5.2.2.3.5.4.8,0,.3.1.6.1.9s0,.6-.1.9c0,.3-.2.5-.4.7s-.4.4-.6.5c-.2.1-.5.2-.9.2s-.5,0-.8-.2-.4-.3-.6-.5h0v2.1h-1.2v-6.1h1.2ZM216.8,95c.1,0,.2-.2.3-.3,0-.1.1-.3.2-.5,0-.2,0-.4,0-.5s0-.4,0-.5c0-.2-.1-.3-.2-.5s-.2-.2-.3-.3c-.1,0-.3-.1-.5-.1s-.4,0-.5.1c-.1,0-.2.2-.3.3,0,.1-.1.3-.2.5,0,.2,0,.4,0,.5s0,.4,0,.5c0,.2,0,.3.2.5,0,.1.2.2.3.3.1,0,.3.1.5.1s.4,0,.5-.1Z"/>
      <path d="M220.6,89.7v6.2h-1.2v-6.2h1.2Z"/>
      <path d="M222.9,94.9c.2.2.5.3.8.3s.5,0,.6-.2.3-.3.3-.4h1.1c-.2.5-.4.9-.8,1.2-.4.2-.8.3-1.3.3s-.7,0-1-.2-.5-.3-.7-.5c-.2-.2-.4-.5-.5-.8-.1-.3-.2-.6-.2-1s0-.7.2-.9.3-.5.5-.8c.2-.2.4-.4.7-.5.3-.1.6-.2.9-.2s.7,0,1,.2.5.3.7.6c.2.3.3.5.4.9,0,.3.1.7,0,1h-3.3c0,.4.1.7.3.9ZM224.3,92.5c-.1-.2-.4-.2-.7-.2s-.4,0-.5,0c-.1,0-.2.2-.3.2,0,0-.1.2-.2.3s0,.2,0,.3h2c0-.3-.2-.6-.3-.7Z"/>
    </g>
    <polygon points="244.8 111.3 247.7 111.3 247.7 98.9 250.6 98.9 250.6 111.3 253.5 111.3 249.1 117.8 244.8 111.3"/>
    <polygon class="st5" points="244.8 111.3 247.7 111.3 247.7 98.9 250.6 98.9 250.6 111.3 253.5 111.3 249.1 117.8 244.8 111.3"/>
    <polygon class="st9" points="244.8 111.3 247.7 111.3 247.7 98.9 250.6 98.9 250.6 111.3 253.5 111.3 249.1 117.8 244.8 111.3"/>
    <g>
      <path d="M235,92.7c.1-.3.3-.5.5-.8.2-.2.4-.4.7-.5s.6-.2,1-.2.7,0,1,.2.5.3.7.5c.2.2.4.5.5.8.1.3.2.6.2,1s0,.7-.2,1c-.1.3-.3.5-.5.7-.2.2-.5.4-.7.5-.3.1-.6.2-1,.2s-.7,0-1-.2c-.3-.1-.5-.3-.7-.5-.2-.2-.4-.5-.5-.7-.1-.3-.2-.6-.2-1s0-.7.2-1ZM236.1,94.3c0,.2,0,.3.2.5,0,.1.2.2.3.3.1,0,.3.1.5.1s.4,0,.5-.1c.1,0,.3-.2.3-.3,0-.1.1-.3.2-.5s0-.3,0-.5,0-.4,0-.5c0-.2,0-.3-.2-.5,0-.1-.2-.2-.3-.3-.1,0-.3-.1-.5-.1s-.4,0-.5.1c-.1,0-.3.2-.3.3,0,.1-.1.3-.2.5,0,.2,0,.4,0,.5s0,.4,0,.5Z"/>
      <path d="M241.5,91.5v.8h0c0-.1.1-.3.2-.4,0-.1.2-.2.3-.3.1,0,.3-.1.4-.2.1,0,.3,0,.5,0s.2,0,.3,0v1.2c0,0-.1,0-.2,0,0,0-.2,0-.2,0-.2,0-.4,0-.6.1-.2,0-.3.2-.4.3,0,.1-.2.3-.2.5,0,.2,0,.4,0,.6v2h-1.2v-4.5h1.2Z"/>
      <path d="M243.6,92.9c0-.3,0-.5.2-.7.1-.2.3-.3.5-.5.2-.1.4-.2.7-.2.2,0,.5,0,.7,0s.5,0,.7,0c.2,0,.4,0,.6.2.2,0,.3.2.5.4s.2.4.2.7v2.3c0,.2,0,.4,0,.6,0,.2,0,.3.1.4h-1.3c0,0,0-.1,0-.2s0-.1,0-.2c-.2.2-.4.3-.7.4s-.5.1-.8.1-.4,0-.6,0c-.2,0-.3-.1-.5-.2-.1-.1-.2-.2-.3-.4,0-.2-.1-.4-.1-.6s0-.5.1-.6c0-.2.2-.3.3-.4s.3-.2.5-.2.4,0,.6-.1c.2,0,.4,0,.5,0s.3,0,.5,0,.2,0,.3-.2c0,0,.1-.2.1-.3,0-.1,0-.2,0-.3,0,0-.1-.1-.2-.2s-.2,0-.3,0c0,0-.2,0-.3,0-.2,0-.4,0-.6.2s-.2.3-.2.5h-1.2ZM246.5,93.8c0,0-.1,0-.2.1,0,0-.2,0-.3,0,0,0-.2,0-.3,0,0,0-.2,0-.3,0,0,0-.2,0-.3,0,0,0-.2,0-.2.1,0,0-.1.1-.2.2,0,0,0,.2,0,.3s0,.2,0,.3c0,0,0,.1.2.2,0,0,.2,0,.2,0,0,0,.2,0,.3,0,.2,0,.4,0,.6-.1.1,0,.2-.2.3-.3,0-.1.1-.2.1-.3,0-.1,0-.2,0-.3v-.5Z"/>
      <path d="M249.9,91.5v.6h0c.2-.3.4-.5.6-.6s.5-.2.8-.2.6,0,.8.1c.2,0,.4.2.5.4s.2.4.3.6c0,.2,0,.5,0,.8v2.8h-1.2v-2.5c0-.4,0-.7-.2-.8-.1-.2-.3-.3-.6-.3s-.6.1-.7.3c-.2.2-.2.5-.2,1v2.4h-1.2v-4.5h1.2Z"/>
      <path d="M258.1,96.3c0,.2-.2.4-.3.7s-.4.4-.7.5-.7.2-1.2.2-.4,0-.7,0c-.2,0-.4-.1-.6-.3-.2-.1-.3-.3-.5-.5-.1-.2-.2-.4-.2-.7h1.2c0,.2.2.4.3.5.2,0,.4.1.6.1.3,0,.6-.1.8-.3.2-.2.2-.5.2-.8v-.6h0c-.1.2-.3.4-.6.5-.2.1-.5.2-.8.2s-.6,0-.9-.2c-.2-.1-.4-.3-.6-.5-.2-.2-.3-.4-.3-.7,0-.3-.1-.6-.1-.9s0-.6.1-.8c0-.3.2-.5.4-.7.2-.2.4-.4.6-.5.2-.1.5-.2.8-.2s.6,0,.8.2c.2.1.4.3.6.6h0v-.6h1.2v4.2c0,.2,0,.4,0,.6ZM256.4,94.8c.1,0,.2-.2.3-.3,0-.1.2-.2.2-.4,0-.1,0-.3,0-.5s0-.4,0-.5,0-.3-.2-.4c0-.1-.2-.2-.3-.3-.1,0-.3-.1-.5-.1s-.3,0-.5.1c-.1,0-.2.2-.3.3,0,.1-.1.3-.2.4,0,.2,0,.3,0,.5s0,.3,0,.5c0,.2,0,.3.2.4,0,.1.2.2.3.3.1,0,.3.1.5.1s.3,0,.5-.1Z"/>
      <path d="M260.5,94.9c.2.2.5.3.8.3s.5,0,.6-.2.3-.3.3-.4h1.1c-.2.5-.4.9-.8,1.2-.4.2-.8.3-1.3.3s-.7,0-1-.2-.5-.3-.7-.5c-.2-.2-.4-.5-.5-.8-.1-.3-.2-.6-.2-1s0-.7.2-.9.3-.5.5-.8c.2-.2.4-.4.7-.5.3-.1.6-.2.9-.2s.7,0,1,.2.5.3.7.6c.2.3.3.5.4.9,0,.3.1.7,0,1h-3.3c0,.4.1.7.3.9ZM261.9,92.5c-.1-.2-.4-.2-.7-.2s-.4,0-.5,0c-.1,0-.2.2-.3.2,0,0-.1.2-.2.3s0,.2,0,.3h2c0-.3-.2-.6-.3-.7Z"/>
    </g>
    <polygon points="273.9 111.3 276.8 111.3 276.8 98.9 279.7 98.9 279.7 111.3 282.6 111.3 278.2 117.8 273.9 111.3"/>
    <polygon class="st5" points="273.9 111.3 276.8 111.3 276.8 98.9 279.7 98.9 279.7 111.3 282.6 111.3 278.2 117.8 273.9 111.3"/>
    <polygon class="st9" points="273.9 111.3 276.8 111.3 276.8 98.9 279.7 98.9 279.7 111.3 282.6 111.3 278.2 117.8 273.9 111.3"/>
    <g>
      <path d="M272.6,89.7v2.3h0c.2-.2.4-.4.6-.5.3-.1.5-.2.8-.2s.5,0,.7.1c.2,0,.4.2.6.4s.3.4.4.7c.1.3.2.7.2,1.1s0,.8-.2,1.1c-.1.3-.3.5-.4.7s-.4.3-.6.4c-.2,0-.4.1-.7.1-.3,0-.6,0-.9-.2-.3-.1-.5-.3-.6-.5h0v.6h-1.2v-6.2h1.2ZM274.6,93.2c0-.2-.1-.3-.2-.5,0-.1-.2-.2-.3-.3-.1,0-.3-.1-.5-.1s-.3,0-.5.1c-.1,0-.2.2-.3.3s-.2.3-.2.5c0,.2,0,.4,0,.5s0,.4,0,.5c0,.2.1.3.2.5s.2.2.3.3c.1,0,.3.1.5.1s.3,0,.5-.1c.1,0,.2-.2.3-.3,0-.1.2-.3.2-.5,0-.2,0-.4,0-.5s0-.4,0-.5Z"/>
      <path d="M276.6,92.9c0-.3,0-.5.2-.7.1-.2.3-.3.5-.5.2-.1.4-.2.7-.2.2,0,.5,0,.7,0s.5,0,.7,0c.2,0,.4,0,.6.2.2,0,.3.2.5.4.1.2.2.4.2.7v2.3c0,.2,0,.4,0,.6s0,.3.1.4h-1.3c0,0,0-.1,0-.2s0-.1,0-.2c-.2.2-.4.3-.7.4-.3,0-.5.1-.8.1s-.4,0-.6,0c-.2,0-.3-.1-.5-.2-.1-.1-.2-.2-.3-.4,0-.2-.1-.4-.1-.6s0-.5.1-.6.2-.3.3-.4.3-.2.5-.2c.2,0,.4,0,.6-.1s.4,0,.6,0c.2,0,.3,0,.5,0,.1,0,.3,0,.3-.2,0,0,.1-.2.1-.3,0-.1,0-.2,0-.3,0,0-.1-.1-.2-.2,0,0-.2,0-.3,0,0,0-.2,0-.3,0-.2,0-.4,0-.6.2s-.2.3-.2.5h-1.2ZM279.5,93.8c0,0-.1,0-.2.1,0,0-.2,0-.3,0,0,0-.2,0-.3,0,0,0-.2,0-.3,0,0,0-.2,0-.3,0,0,0-.2,0-.2.1,0,0-.1.1-.2.2,0,0,0,.2,0,.3s0,.2,0,.3c0,0,0,.1.2.2,0,0,.2,0,.2,0s.2,0,.3,0c.2,0,.4,0,.6-.1.1,0,.2-.2.3-.3,0-.1.1-.2.1-.3s0-.2,0-.3v-.5Z"/>
      <path d="M282.9,91.5v.6h0c.2-.3.4-.5.6-.6.2-.1.5-.2.8-.2s.6,0,.8.1c.2,0,.4.2.5.4s.2.4.3.6c0,.2,0,.5,0,.8v2.8h-1.2v-2.5c0-.4,0-.7-.2-.8s-.3-.3-.6-.3-.6.1-.7.3c-.2.2-.2.5-.2,1v2.4h-1.2v-4.5h1.2Z"/>
      <path d="M286.8,92.9c0-.3,0-.5.2-.7.1-.2.3-.3.5-.5.2-.1.4-.2.7-.2.2,0,.5,0,.7,0s.5,0,.7,0c.2,0,.4,0,.6.2.2,0,.3.2.5.4s.2.4.2.7v2.3c0,.2,0,.4,0,.6,0,.2,0,.3.1.4h-1.3c0,0,0-.1,0-.2s0-.1,0-.2c-.2.2-.4.3-.7.4s-.5.1-.8.1-.4,0-.6,0c-.2,0-.3-.1-.5-.2-.1-.1-.2-.2-.3-.4,0-.2-.1-.4-.1-.6s0-.5.1-.6c0-.2.2-.3.3-.4s.3-.2.5-.2.4,0,.6-.1c.2,0,.4,0,.5,0s.3,0,.5,0,.2,0,.3-.2c0,0,.1-.2.1-.3,0-.1,0-.2,0-.3,0,0-.1-.1-.2-.2s-.2,0-.3,0c0,0-.2,0-.3,0-.2,0-.4,0-.6.2s-.2.3-.2.5h-1.2ZM289.7,93.8c0,0-.1,0-.2.1,0,0-.2,0-.3,0,0,0-.2,0-.3,0,0,0-.2,0-.3,0,0,0-.2,0-.3,0,0,0-.2,0-.2.1,0,0-.1.1-.2.2,0,0,0,.2,0,.3s0,.2,0,.3c0,0,0,.1.2.2,0,0,.2,0,.2,0,0,0,.2,0,.3,0,.2,0,.4,0,.6-.1.1,0,.2-.2.3-.3,0-.1.1-.2.1-.3,0-.1,0-.2,0-.3v-.5Z"/>
      <path d="M293.1,91.5v.6h0c.2-.3.4-.5.6-.6s.5-.2.8-.2.6,0,.8.1c.2,0,.4.2.5.4s.2.4.3.6c0,.2,0,.5,0,.8v2.8h-1.2v-2.5c0-.4,0-.7-.2-.8-.1-.2-.3-.3-.6-.3s-.6.1-.7.3c-.2.2-.2.5-.2,1v2.4h-1.2v-4.5h1.2Z"/>
      <path d="M297,92.9c0-.3,0-.5.2-.7.1-.2.3-.3.5-.5.2-.1.4-.2.7-.2.2,0,.5,0,.7,0s.5,0,.7,0c.2,0,.4,0,.6.2.2,0,.3.2.5.4s.2.4.2.7v2.3c0,.2,0,.4,0,.6,0,.2,0,.3.1.4h-1.3c0,0,0-.1,0-.2s0-.1,0-.2c-.2.2-.4.3-.7.4s-.5.1-.8.1-.4,0-.6,0c-.2,0-.3-.1-.5-.2-.1-.1-.2-.2-.3-.4,0-.2-.1-.4-.1-.6s0-.5.1-.6c0-.2.2-.3.3-.4s.3-.2.5-.2.4,0,.6-.1c.2,0,.4,0,.5,0s.3,0,.5,0,.2,0,.3-.2c0,0,.1-.2.1-.3,0-.1,0-.2,0-.3,0,0-.1-.1-.2-.2s-.2,0-.3,0c0,0-.2,0-.3,0-.2,0-.4,0-.6.2s-.2.3-.2.5h-1.2ZM299.9,93.8c0,0-.1,0-.2.1,0,0-.2,0-.3,0,0,0-.2,0-.3,0,0,0-.2,0-.3,0,0,0-.2,0-.3,0,0,0-.2,0-.2.1,0,0-.1.1-.2.2,0,0,0,.2,0,.3s0,.2,0,.3c0,0,0,.1.2.2,0,0,.2,0,.2,0,0,0,.2,0,.3,0,.2,0,.4,0,.6-.1.1,0,.2-.2.3-.3,0-.1.1-.2.1-.3,0-.1,0-.2,0-.3v-.5Z"/>
    </g>
  </g>
  <g class="st34">
    <g class="st6">
      <g class="st32">
        <g class="st27">
          <polygon points="55.1 138 75.4 141.6 162.8 141.6 175.9 129.3 156.2 123.4 83.4 123.4 55.1 138"/>
        </g>
      </g>
    </g>
  </g>
  <g>
    <polygon class="st57" points="55.8 107.4 68.9 95.1 156.9 95.1 156.9 124.2 143.9 137.3 55.8 137.3 55.8 107.4"/>
    <polygon class="st1" points="55.8 107.4 68.9 95.1 156.9 95.1 156.9 124.2 143.9 137.3 55.8 137.3 55.8 107.4"/>
    <polygon class="st10" points="143.9 136.2 143.9 107.6 156.2 95.8 156.2 124 143.9 136.2"/>
  </g>
  <g class="st21">
    <g class="st6">
      <g class="st22">
        <g class="st23">
          <polygon points="56.5 107.4 68.9 107.4 68.9 95.8 56.5 107.4"/>
        </g>
      </g>
    </g>
  </g>
  <g>
    <rect class="st8" x="56.5" y="107.4" width="29.1" height="29.1"/>
    <line class="st2" x1="69.1" y1="95.8" x2="69.1" y2="107.4"/>
    <line class="st2" x1="55.8" y1="107.6" x2="85.6" y2="107.6"/>
    <polyline class="st2" points="85.5 136.5 85.5 107.6 98.5 95.2"/>
  </g>
  <g class="st24">
    <g class="st6">
      <g class="st25">
        <g class="st28">
          <polygon points="85.6 107.4 98 107.4 98 95.8 85.6 107.4"/>
        </g>
      </g>
    </g>
  </g>
  <g>
    <rect class="st7" x="85.3" y="107.4" width="28.8" height="29.1"/>
    <line class="st2" x1="97.8" y1="95.8" x2="97.8" y2="107.4"/>
    <line class="st2" x1="84.6" y1="107.6" x2="114.2" y2="107.6"/>
    <polyline class="st2" points="114 136.5 114 107.6 127 95.2"/>
  </g>
  <g class="st29">
    <g class="st6">
      <g class="st30">
        <g class="st26">
          <polygon points="114.7 107.4 127.1 107.4 127.1 95.8 114.7 107.4"/>
        </g>
      </g>
    </g>
  </g>
  <rect class="st8" x="114.7" y="107.4" width="29.1" height="29.1"/>
  <line class="st2" x1="127.3" y1="95.8" x2="127.3" y2="107.4"/>
  <line class="st2" x1="114" y1="107.6" x2="143.9" y2="107.6"/>
  <polyline class="st2" points="143.7 136.5 143.7 107.6 156.8 95.2"/>
  <path d="M72.8,123.4c0,.4-.2.8-.4,1.2s-.5.6-.8.8c-.3.2-.8.3-1.3.3s-.9-.1-1.2-.3c-.3-.2-.6-.5-.8-.8-.2-.3-.3-.7-.4-1.2s-.1-.9-.1-1.3,0-.9.1-1.3.2-.8.4-1.2c.2-.3.5-.6.8-.8.3-.2.8-.3,1.2-.3s.9.1,1.3.3c.3.2.6.5.8.8s.3.7.4,1.2.1.9.1,1.3,0,.9-.1,1.3ZM72.7,121c0-.4-.2-.8-.4-1.1-.2-.3-.4-.6-.7-.8-.3-.2-.7-.3-1.2-.3s-.9.1-1.2.3c-.3.2-.6.5-.7.8-.2.3-.3.7-.4,1.1,0,.4-.1.8-.1,1.2s0,.8.1,1.2c0,.4.2.8.4,1.1.2.3.4.6.7.8.3.2.7.3,1.2.3s.9-.1,1.2-.3c.3-.2.6-.5.7-.8.2-.3.3-.7.4-1.1,0-.4.1-.8.1-1.2s0-.8-.1-1.2Z"/>
  <path d="M99.6,119c-.2.3-.5.5-.8.8-.3.2-.7.4-1,.5v-.2c.2,0,.4-.1.6-.2.2,0,.3-.2.5-.3.1-.1.3-.2.4-.3.1-.1.3-.3.4-.4h.2v6.9h-.2v-6.7h0Z"/>
  <path d="M131,125.6h-4.7c0-.3,0-.6.2-.8.1-.2.3-.5.5-.7s.4-.4.7-.6c.3-.2.5-.4.8-.6.3-.2.5-.4.8-.6.3-.2.5-.4.7-.6.2-.2.4-.4.5-.7.1-.2.2-.5.2-.8s0-.5-.1-.7c0-.2-.2-.4-.4-.5-.2-.1-.4-.2-.6-.3s-.5-.1-.8-.1-.7,0-.9.2c-.3.1-.5.3-.6.5-.2.2-.3.4-.4.7s-.1.6-.1.9h-.2c0-.8.2-1.3.6-1.8.4-.4.9-.6,1.7-.6s.6,0,.8.1c.3,0,.5.2.7.4.2.2.3.3.5.6.1.2.2.5.2.8s-.1.7-.3,1c-.2.3-.5.6-.8.9s-.6.5-1,.8c-.4.2-.7.5-1,.7-.3.2-.6.5-.8.7s-.4.5-.4.8h4.5v.2Z"/>
  <line class="st4" x1="144.3" y1="149.1" x2="55.4" y2="149.1"/>
  <line class="st3" x1="55.3" y1="145" x2="55.3" y2="153"/>
  <line class="st3" x1="84.6" y1="145" x2="84.6" y2="153"/>
  <line class="st3" x1="112.9" y1="145" x2="112.9" y2="153"/>
  <line class="st3" x1="144.1" y1="145" x2="144.1" y2="153"/>
  <path d="M52.5,159.9c0-.3,0-.6.1-.9,0-.3.1-.6.3-.8.1-.3.3-.5.5-.7.2-.2.4-.4.7-.5.3-.1.6-.2,1-.2s.7,0,1,.2c.3.1.5.3.7.5.2.2.3.4.5.7s.2.5.3.8c0,.3,0,.6.1.9,0,.3,0,.6,0,.9s0,.6,0,.9c0,.3,0,.6-.1.9,0,.3-.1.6-.3.8-.1.3-.3.5-.5.7-.2.2-.4.4-.7.5-.3.1-.6.2-1,.2s-.8,0-1-.2c-.3-.1-.5-.3-.7-.5-.2-.2-.3-.4-.5-.7-.1-.3-.2-.5-.3-.8,0-.3,0-.6-.1-.9,0-.3,0-.6,0-.9s0-.6,0-.9ZM53.5,161.7c0,.4,0,.7.2,1,0,.3.3.6.5.8.2.2.5.3.9.3s.7-.1.9-.3c.2-.2.4-.5.5-.8,0-.3.2-.7.2-1,0-.4,0-.7,0-1s0-.4,0-.6c0-.2,0-.5,0-.7,0-.2,0-.5-.1-.7s-.2-.4-.3-.6-.3-.3-.5-.4c-.2-.1-.4-.2-.7-.2s-.5,0-.7.2c-.2.1-.3.2-.5.4-.1.2-.2.4-.3.6,0,.2-.1.4-.1.7,0,.2,0,.5,0,.7,0,.2,0,.4,0,.6,0,.3,0,.6,0,1Z"/>
  <path d="M84.4,164.6v-5.6h-2v-.7c.3,0,.5,0,.8,0,.2,0,.5-.1.7-.2s.4-.3.5-.5c.1-.2.2-.4.3-.7h.7v7.8h-.9Z"/>
  <path d="M110.7,158.4c.1-.3.3-.6.5-.9.2-.2.5-.4.8-.6s.7-.2,1.1-.2.7,0,1,.1c.3,0,.6.2.8.4.2.2.4.4.5.7.1.3.2.6.2,1s0,.6-.2.9c-.1.3-.2.5-.4.7-.2.2-.4.4-.6.6-.2.2-.5.3-.7.5-.2.1-.5.3-.7.4-.2.1-.5.3-.7.5s-.4.3-.5.5c-.1.2-.2.4-.3.6h4v.8h-5.1c0-.5.1-.9.2-1.2.1-.3.3-.6.5-.9.2-.2.4-.5.7-.6.2-.2.5-.4.8-.5.3-.2.6-.4.9-.6.2-.2.5-.3.6-.5.2-.2.3-.4.4-.6,0-.2.1-.4.1-.7s0-.4-.1-.6c0-.2-.2-.3-.3-.4s-.3-.2-.5-.3c-.2,0-.4,0-.6,0s-.5,0-.7.2c-.2.1-.4.3-.5.4-.1.2-.2.4-.3.6,0,.2,0,.5,0,.7h-.9c0-.4,0-.8.1-1.1Z"/>
  <path d="M143.4,160.1h.3c.2,0,.4,0,.6,0s.3-.1.5-.2c.1-.1.2-.2.3-.4s.1-.3.1-.5c0-.4-.1-.7-.4-.9s-.6-.3-1-.3-.5,0-.7.1c-.2,0-.3.2-.5.4-.1.2-.2.3-.3.5,0,.2,0,.4,0,.6h-.9c0-.4,0-.7.2-1,.1-.3.3-.6.5-.8.2-.2.4-.4.7-.5.3-.1.6-.2,1-.2s.7,0,.9.1c.3,0,.5.2.8.4.2.2.4.4.5.6.1.3.2.6.2.9s-.1.7-.3.9c-.2.3-.5.5-.8.6h0c.5.1.8.3,1.1.7s.3.8.3,1.2,0,.7-.2,1-.3.5-.6.7c-.2.2-.5.3-.9.4-.3,0-.7.1-1,.1s-.8,0-1.1-.2c-.3-.1-.6-.3-.8-.5-.2-.2-.4-.5-.5-.8s-.2-.7-.2-1.1h.9c0,.5.2.9.4,1.2.3.3.7.5,1.2.5s.4,0,.6-.1c.2,0,.4-.2.5-.3.2-.1.3-.3.4-.5,0-.2.1-.4.1-.6s0-.5-.1-.6c0-.2-.2-.3-.4-.5-.1-.1-.3-.2-.5-.3s-.4,0-.7,0-.4,0-.6,0v-.8s0,0,0,0Z"/>
  <path class="st2" d="M52.2,38"/>
  <path d="M159.8,15"/>
  <g class="st46">
    <g class="st6">
      <g class="st41">
        <g class="st42">
          <polygon points="49.6 75.6 69.9 79.3 99 79.3 112 66.9 92.4 61.1 77.9 61.1 49.6 75.6"/>
        </g>
      </g>
    </g>
  </g>
  <g class="st43">
    <polygon class="st57" points="50.3 45.2 63.4 32.8 93.2 32.8 93.2 61.9 80.1 74.9 50.3 74.9 50.3 45.2"/>
    <polygon class="st1" points="50.3 45.2 63.4 32.8 93.2 32.8 93.2 61.9 80.1 74.9 50.3 74.9 50.3 45.2"/>
    <polygon class="st10" points="80.1 73.8 80.1 45.3 92.4 33.5 92.4 61.7 80.1 73.8"/>
  </g>
  <g>
    <rect class="st8" x="51.1" y="45.2" width="29" height="29"/>
    <line class="st2" x1="63.6" y1="33.5" x2="63.6" y2="45.2"/>
    <line class="st2" x1="50.3" y1="45.3" x2="80.1" y2="45.3"/>
    <polyline class="st2" points="79.9 74.2 79.9 45.3 93 33"/>
    <polygon points="65.6 35.7 68.5 35.7 68.5 23.4 71.4 23.4 71.4 35.7 74.3 35.7 69.9 42.3 65.6 35.7"/>
    <polygon class="st5" points="65.6 35.7 68.5 35.7 68.5 23.4 71.4 23.4 71.4 35.7 74.3 35.7 69.9 42.3 65.6 35.7"/>
    <polygon class="st9" points="65.6 35.7 68.5 35.7 68.5 23.4 71.4 23.4 71.4 35.7 74.3 35.7 69.9 42.3 65.6 35.7"/>
  </g>
  <g class="st44">
    <g class="st6">
      <g class="st45">
        <g class="st47">
          <polygon points="51.3 45.4 63.7 45.4 63.7 33.7 51.3 45.4"/>
        </g>
      </g>
    </g>
  </g>
</svg>