<?xml version="1.0" encoding="UTF-8"?>
<svg id="Layer_1" xmlns="http://www.w3.org/2000/svg" version="1.1" viewBox="0 0 618.7 104.2">
  <!-- Generator: Adobe Illustrator 29.2.1, SVG Export Plug-In . SVG Version: 2.1.0 Build 116)  -->
  <defs>
    <style>
      .st0 {
        fill: gray;
      }

      .st1 {
        stroke-width: 4px;
      }

      .st1, .st2 {
        fill: none;
        stroke: #7ec01b;
        stroke-miterlimit: 10;
      }

      .st3 {
        fill: #7ec01b;
      }

      .st2 {
        stroke-width: .5px;
      }

      .st4 {
        fill: #6abd45;
        opacity: .2;
      }
    </style>
  </defs>
  <g>
    <path class="st0" d="M206.3,92.9c-.2.1-.2.1-.4.4-.6.6-1.3,1.3-2.1,1.8v3.8c0,.5,0,.7,0,1h-.8c0-.2,0-.4,0-.9v-3.4c-1.2.7-1.8,1-3.5,1.6-.1-.3-.2-.4-.4-.6,1.7-.4,3.2-1.2,4.7-2.3.8-.6,1.5-1.3,1.7-1.7l.6.4Z"/>
    <path class="st0" d="M208.9,98.8c.7,0,1.8-.3,2.6-.7,1.7-.8,2.9-2.1,3.7-4,.2.3.3.4.5.5-.7,1.6-1.6,2.6-2.7,3.4-.9.6-1.9,1-3.4,1.3-.2,0-.3,0-.5.1l-.2-.8ZM209.5,93.2c1,.6,1.5,1.1,2.2,1.7l-.5.6c-.6-.7-1.4-1.3-2.1-1.8l.4-.5Z"/>
    <path class="st0" d="M221.6,95.7c-.1,2.3-.9,3.4-2.9,4.2-.1-.3-.2-.4-.4-.6,1.9-.6,2.6-1.6,2.6-3.6h-2.4c-.6,0-.8,0-1,0v-.7c.3,0,.5,0,1,0h5.3c.6,0,.7,0,1,0v.7c-.3,0-.5,0-1,0h-2.2ZM218.4,92.8c.3,0,.5,0,1,0h2.7c.5,0,.7,0,1,0v.6c-.1,0-.5,0-1,0h-2.7c-.6,0-.8,0-1,0v-.7ZM223.6,92.1c.4.5.6.9.9,1.4l-.5.3c-.2-.5-.6-1.2-.9-1.5l.5-.2ZM224.7,91.7c.4.5.6.9.9,1.4l-.5.3c-.2-.4-.5-1-.9-1.4l.4-.2Z"/>
    <path class="st0" d="M226.9,98.8c.7,0,1.8-.3,2.6-.7,1.7-.8,2.9-2.1,3.7-4,.2.3.3.4.5.5-.7,1.6-1.6,2.6-2.7,3.4-.9.6-1.9,1-3.4,1.3-.2,0-.3,0-.5.1l-.2-.8ZM227.5,93.2c1,.6,1.5,1.1,2.2,1.7l-.5.6c-.6-.7-1.4-1.3-2.1-1.8l.4-.5Z"/>
    <path class="st0" d="M237.3,99.9c0-.2,0-.5,0-.9v-5.6c0-.5,0-.7,0-.9h.8c0,.2,0,.4,0,.9v1.7c1.4.5,2.4,1,4,1.9l-.4.7c-.8-.6-2.1-1.3-3.4-1.8-.1,0-.2,0-.3-.2h0c0,.2,0,.3,0,.5v2.7c0,.5,0,.7,0,1h-.8Z"/>
    <path class="st0" d="M244.5,93.6c.2,0,.3,0,.3,0,.1,0,.2,0,.5,0,.5,0,.6,0,1.7-.1h1.4c1.1-.2,1.2-.2,1.5-.2h.5c.8,0,.9,0,1.1-.1v.7c-.3,0-.6,0-1,.1-.6.2-1.2.5-1.7.9-.7.6-1.1,1.3-1.1,2.1s.5,1.4,1.3,1.7c.4.2,1,.3,1.4.3h0v.7c-.2,0-.2,0-.4,0-.9-.2-1.4-.3-1.9-.7-.6-.4-1-1.1-1-1.8s.6-2,1.7-2.8c.3-.2.5-.3.9-.5-.5,0-1,.1-2,.2-1.8.1-2.8.2-3.1.3v-.7ZM250.5,95c.4.5.7.9.9,1.4l-.5.3c-.2-.5-.6-1.2-.9-1.4l.5-.2ZM251.5,94.5c.4.5.6.8.9,1.4l-.5.3c-.2-.4-.6-1-.9-1.4l.4-.2Z"/>
    <path class="st0" d="M260.2,94c0,0,0,.1-.2.6-.5,1.7-1.2,2.8-2.2,3.7-.8.8-1.7,1.3-2.8,1.7-.1-.3-.2-.4-.4-.6,1.2-.3,2.5-1.1,3.3-2,.7-.8,1.3-1.9,1.6-3.2h-4.6c-.5,0-.7,0-1,0v-.7c.3,0,.5,0,1,0h4.3c.2,0,.3,0,.5,0-.4-.6-.5-.9-.8-1.2l.5-.2c.5.5.8,1,1,1.4l-.3.2.2.3ZM260.5,91.8c.4.5.6.8.9,1.4l-.5.3c-.2-.4-.6-1-.9-1.4l.4-.2Z"/>
    <path class="st0" d="M263.7,98.9v.6h-.7c0-.2,0-.4,0-.7v-4.9c0-.4,0-.5,0-.7.2,0,.4,0,.7,0h4.8c.4,0,.5,0,.7,0,0,.2,0,.3,0,.7v4.9c0,.3,0,.5,0,.7h-.7v-.6h-4.8ZM268.6,93.9h-4.8v4.4h4.8v-4.4Z"/>
    <path class="st0" d="M272.9,94.7c.4.6.6,1,.9,2l-.6.2c-.2-.8-.5-1.4-.8-2l.6-.2ZM278,94.6q0,.1-.2.7c-.1.6-.5,1.5-.8,2-.6,1.1-1.6,1.9-3,2.6-.1-.2-.2-.3-.4-.5,1.4-.6,2.2-1.3,2.9-2.4.3-.6.6-1.2.8-1.9,0-.3,0-.5,0-.6h0c0,0,.7,0,.7,0ZM274.7,94.3c.5.9.6,1.2.9,1.9l-.6.2c-.2-.6-.4-1.3-.8-2l.5-.2Z"/>
    <path class="st0" d="M284.2,92.5q0,.1-.2.4c-.2.5-.3.6-.4.8q.1,0,2.7,0c.3,0,.3,0,.5,0l.4.4c0,.1,0,.1-.2.4-.4,1.3-1,2.5-1.8,3.4-.8.9-1.8,1.7-3.1,2.3-.1-.3-.2-.4-.5-.5,1.4-.6,2.3-1.2,3.2-2.3.7-.8,1.2-1.9,1.5-3h-3c-.5.9-1.3,1.7-2.2,2.4-.2-.2-.2-.3-.5-.5,1-.6,1.6-1.4,2.3-2.5.3-.6.5-1,.6-1.3l.7.2Z"/>
    <path class="st0" d="M296.5,100.3c-.7-.8-1-1.2-1.3-1.9-.3-.7-.4-1.4-.4-2.2s.1-1.5.4-2.2c.3-.7.6-1.2,1.3-1.9h.8c-.8.8-1.1,1.2-1.4,1.9-.3.7-.5,1.5-.5,2.3s.2,1.6.5,2.3c.3.7.6,1.1,1.4,1.9h-.8Z"/>
    <path class="st0" d="M298.5,94.6c.3,0,1.3-.1,2-.2.2-.7.3-1.5.3-1.9h0c0-.1.7,0,.7,0,0,.2,0,.4-.2.9,0,.3-.1.6-.2,1,.2,0,.3,0,.5,0,.6,0,1,.1,1.3.4.3.3.4.7.4,1.4,0,1.4-.2,2.6-.6,3.1-.2.3-.5.4-.9.4s-.8,0-1.4-.4c0-.1,0-.2,0-.3s0-.2,0-.4c.5.3,1,.4,1.3.4s.4-.1.5-.4c.2-.6.4-1.5.4-2.5s-.3-1.3-1.1-1.3-.3,0-.6,0c-.3,1.4-.7,2.6-1.4,3.8-.1.2-.3.6-.6,1.1l-.6-.4c.3-.4.6-.9.9-1.6.4-.9.7-1.7,1-2.9-.8.1-1.2.2-1.3.2-.2,0-.3,0-.5.1v-.6ZM304.4,93.8c.9,1,1.5,1.9,1.9,3.2l-.6.3c-.3-1.2-1-2.3-1.8-3.2l.5-.3Z"/>
    <path class="st0" d="M307.7,94c.3,0,.6,0,1.1,0s.3,0,.5,0c.2-1.1.2-1.3.2-1.7h.7q0,.3-.2.9c0,.3,0,.4-.1.7.7,0,1.2-.2,1.6-.3v.6s0,0-.2,0c-.5,0-1.1.2-1.5.2-.1.7-.4,1.7-.6,2.5-.3,1-.6,1.6-1,2.7l-.7-.3c.7-1.2,1.4-3.2,1.7-5-.2,0-.3,0-.6,0s-.4,0-.7,0h0s0,0-.2,0v-.6ZM311.7,97.2c-.2.2-.2.2-.3.3-.1.2-.2.4-.2.6,0,.5.5.8,1.6.8s1.5-.1,2-.3v.7s0,0-.3,0c-.6.1-1.1.2-1.6.2-1.5,0-2.2-.5-2.2-1.4s.1-.7.6-1.3l.5.3ZM314.5,95.7c-.4,0-.7,0-1.1,0-.8,0-1.4,0-2.3.3v-.6c1-.2,1.6-.3,2.3-.3s.3,0,1,0v.6Z"/>
    <path class="st0" d="M323.2,99.5c-.4-.4-1.1-.9-1.8-1.3-.2,0-.4-.2-.6-.3q0,.2,0,.3c0,.5,0,.8-.2,1-.3.4-.8.6-1.5.6s-1.1-.1-1.4-.4c-.3-.2-.5-.6-.5-.9,0-.6.5-1.1,1.3-1.2.3,0,.5,0,.9,0s.4,0,.8,0t0-.1s0,0,0,0c0,0,0-.3,0-.5,0-.1,0-.3,0-.5-.3,0-.8,0-1.1,0-.5,0-1,0-1.5,0,0,0-.2,0-.2,0h0v-.6c.4,0,1.2.1,2.1.1s.5,0,.8,0v-1.2c-.3,0-.4,0-.6,0-.7,0-1.4,0-2.2,0,0,0-.1,0-.2,0s0,0-.1,0v-.6c.4.1,1.3.2,2.3.2s.5,0,.8,0q0-1.1,0-1.3h.7c0,.2,0,.6,0,1.3,1.2,0,2.2-.2,2.7-.4v.6q-.1,0-.6,0c-.8.1-1.1.2-2.1.2q0,.7,0,1.2c1.2,0,2-.2,2.5-.4v.6c0,0-.2,0-.5,0-.6,0-1.3.2-2,.2q0,.5,0,1.4c.8.2,1.6.6,2.5,1.3.1.1.2.1.3.2l-.4.6ZM320.1,97.8c-.3,0-.5,0-.9,0-.9,0-1.5.3-1.5.8s.4.7,1.2.7.8,0,1-.3c.1-.1.2-.4.2-.8v-.3Z"/>
    <path class="st0" d="M327.7,92.4c0,.2-.1.4-.2.9-.1.9-.3,1.9-.3,2.3h0q0,0,0-.3c.1-.5.3-.9.5-1.3.5-.8,1.1-1.2,1.8-1.2s1.1.3,1.4.8c.4.6.5,1.2.5,2.2,0,1.6-.7,2.9-2.1,3.5s-1,.4-1.6.5c-.1-.3-.2-.4-.4-.6.8-.1,1.3-.3,1.8-.6,1.1-.6,1.5-1.5,1.5-3s-.5-2.3-1.4-2.3-1.3.5-1.8,1.6c-.3.7-.5,1.4-.5,2s0,0,0,.2h-.6c0,0,0-.2,0-.2v-.9c0,0,0-.2,0-.2,0-.9,0-1.7.3-3.3,0-.1,0-.2,0-.3h.7Z"/>
    <path class="st0" d="M334,100.3c.8-.8,1.1-1.2,1.4-1.9.3-.7.5-1.5.5-2.3s-.2-1.6-.5-2.3c-.3-.7-.6-1.1-1.4-1.9h.8c.7.8,1,1.2,1.3,1.9.3.7.4,1.4.4,2.2s-.1,1.5-.4,2.2c-.3.7-.6,1.2-1.3,1.9h-.8Z"/>
    <path class="st0" d="M345.9,93.6c.3-.6.4-.9.4-1.2h.7q0,.2-.2.6c-.1.3-.2.5-.3.6q.1,0,.2,0c1.4,0,2.3-.2,2.8-.3v.6c0,0-.1,0-.3,0-.9.1-1.9.2-3,.2-.3.5-.5.9-.8,1.3,0,.1-.3.3-.3.3,0,0-.1,0-.1,0,0,0,0,0,0,0h0s0,0,0,0q.3-.3.4-.3c.4-.3.9-.4,1.4-.4.7,0,1.1.3,1.2,1,.7-.3,1.2-.4,1.6-.6.4-.2.5-.2.6-.3l.3.6c-.5,0-1.3.4-2.4.8,0,.2,0,.3,0,.5s0,.3,0,.5c0,.2,0,.3,0,.4,0,.1,0,.2,0,.3h-.6c0-.2,0-.7,0-1.3s0-.2,0-.3c-1.2.6-1.7,1-1.7,1.5s.6.9,1.8.9,1.9-.1,2.4-.4v.7c0,0,0,0-.3,0-.7.1-1.5.2-2.2.2-1.6,0-2.4-.5-2.4-1.4s.3-1,.9-1.4c.3-.2.7-.5,1.3-.7,0-.5-.3-.7-.7-.7s-1.3.3-2,1c-.4.3-.5.5-.7.7l-.5-.5c.6-.5,1.4-1.4,2-2.6t0-.1s-.1,0-.2,0c-.1,0-1,0-1.3,0h-.1c0,0,0,0-.2,0v-.6c.3,0,1,0,1.9,0h.1Z"/>
    <path class="st0" d="M353.2,93.1c-.4,0-.5,0-.8,0v-.6c.3,0,.5,0,.8,0h2.8c.3,0,.5,0,.8,0v.6c-.2,0-.4,0-.8,0h-.2v2.2h.3c.4,0,.6,0,.8,0v.6c-.2,0-.4,0-.8,0h-.3v3.4c0,.4,0,.7,0,.9h-.7c0-.3,0-.5,0-.9v-3.4h-1.4c0,.7,0,1.2-.2,1.6-.2,1.1-.6,1.9-1.3,2.7-.2-.2-.2-.3-.5-.4,1-.9,1.4-2.1,1.4-4h-.4c-.3,0-.6,0-.8,0v-.6c.2,0,.5,0,.8,0h.4v-2.2h-.2ZM354,95.3h1.4v-2.2h-1.4v2.2ZM360.4,97.2q-.2.2-.6.7c-.4.4-1,1-1.5,1.4-.5.4-.9.6-1.6.9,0-.2-.2-.3-.4-.5,1.1-.4,2.1-1.1,2.9-2,.3-.3.5-.6.6-.9l.5.4ZM359.8,92.6c-.1,0-.2.2-.5.4-.9.8-1.5,1.3-2.4,1.7-.1-.2-.2-.3-.4-.5.8-.3,1.4-.8,2.1-1.4.4-.3.5-.5.6-.7l.5.4ZM360.1,94.9c-.1,0-.2.2-.4.4-.8.9-1.7,1.5-2.8,2.1-.1-.2-.2-.4-.4-.5.9-.4,1.5-.8,2.3-1.5.3-.3.5-.6.7-.8l.5.4Z"/>
    <path class="st0" d="M368.5,95.1s-.1.2-.3.6c-.5,1.2-.7,1.5-1.2,2.2.3.6.5.9.9,1.2.2.1.3.2.4.2.1,0,.3-.5.4-1.3.2.2.3.3.5.4-.1.6-.2.8-.3,1.1-.1.3-.3.4-.6.4s-.6-.2-.9-.6c-.3-.3-.5-.6-.7-1-.7.8-1.5,1.3-2.5,1.8-.1-.2-.2-.3-.4-.5,1.1-.5,1.9-1,2.7-1.9-.4-1-.7-2.2-.8-3.7h-3.2c0,.8,0,1.1,0,1.5h1.7c.3,0,.5,0,.7,0q0,.2,0,1c0,1-.1,1.7-.3,1.9-.1.3-.3.4-.8.4s-.5,0-.9,0c0-.2,0-.4-.1-.6.5.1.8.1,1.1.1s.4,0,.4-.5c0-.4.1-1.1.1-1.8h-1.8c0,1.2-.1,1.8-.3,2.5-.2.6-.3,1-.7,1.6-.2-.2-.3-.3-.5-.4.3-.5.5-.8.6-1.4.2-.8.3-2,.3-3.8s0-.7,0-1.1c.3,0,.6,0,1.1,0h2.7c0-1.1,0-1.3,0-1.5h.7c0,.2,0,.4,0,.7s0,.3,0,.7h2c.5,0,.7,0,1,0v.6c-.3,0-.5,0-1,0h-1.9c0,1.3.3,2.4.6,3.2.5-.8,1-1.8,1.1-2.5l.6.2ZM368,93.4c-.5-.5-.7-.6-1.3-1l.4-.3c.6.3.7.4,1.3.9l-.4.4Z"/>
    <path class="st0" d="M374.6,92.9c0-.2,0-.3,0-.5h.7c0,.3,0,.4,0,1.1h0c1.7,0,2.4,0,2.7,0v.6c-.3,0-.6,0-1.7,0s-.2,0-1,0v1.8c.2.4.2.7.2,1.1,0,.9-.4,1.8-1.2,2.3-.4.3-.8.5-1.4.7-.2-.3-.2-.4-.4-.6.7-.2,1.1-.4,1.5-.7.7-.5,1-1.1,1-1.9,0,.2-.1.3-.2.4-.3.3-.7.5-1.1.5-.9,0-1.5-.6-1.5-1.4s.7-1.5,1.6-1.5.8.1,1,.4c0-.1,0-.2,0-.5s0-.1,0-.2v-.5c-1.8,0-3.6.1-4.2.2v-.7c.1,0,.2,0,.3,0q.3,0,1.7,0c.9,0,1.6,0,2.2,0v-.7ZM374.2,95.6c-.2,0-.4-.1-.6-.1-.6,0-1,.4-1,.9s.4.9.9.9,1.1-.4,1.1-1.1-.1-.5-.4-.6Z"/>
    <path class="st0" d="M380.8,92.9c.3,0,.4,0,.8,0,.7,0,1.9,0,2.8-.1.2,0,.3,0,.4,0l.4.5c-.1,0-.2,0-.5.4-1.2,1.2-2.3,2.2-3,2.6h0c.7-.3,1.4-.5,2.2-.5,1.5,0,2.5.7,2.5,1.9s-1.3,2.3-3.3,2.3-2-.5-2-1.3.6-1.1,1.3-1.1,1.1.3,1.5.7c.2.3.3.5.4.9.9-.3,1.4-.8,1.4-1.6s-.7-1.4-1.9-1.4-2.7.6-3.8,1.5l-.4-.6c.3-.2.6-.4,1.3-.9,1-.8,2.4-2,3-2.6q0,0,.1-.1s0,0,0,0h0s0,0,0,0t0,0c-.3,0-1.4.1-2.7.2-.2,0-.3,0-.5,0v-.7ZM382.5,98c-.5,0-.7.2-.7.6s.1.4.4.5c.2.1.6.2,1,.2s.3,0,.7,0c-.2-.8-.6-1.3-1.3-1.3Z"/>
  </g>
  <g>
    <path d="M198.7,10.9v-1.1h1v-.5c0-.6.2-1,.5-1.4.3-.4.9-.5,1.6-.5s.3,0,.5,0c.2,0,.3,0,.4,0v1.3c-.2,0-.4,0-.6,0s-.4,0-.5.2-.1.3-.1.5v.4h1.2v1.1h-1.2v5.1h-1.7v-5.1h-1Z"/>
    <path d="M203.3,11.5c.2-.4.4-.7.6-1,.3-.3.6-.5,1-.7.4-.2.8-.2,1.3-.2s.9,0,1.3.2c.4.2.7.4,1,.7.3.3.5.6.6,1,.2.4.2.9.2,1.3s0,.9-.2,1.3-.4.7-.6,1c-.3.3-.6.5-1,.7s-.8.2-1.3.2-.9,0-1.3-.2-.7-.4-1-.7c-.3-.3-.5-.6-.6-1-.2-.4-.2-.8-.2-1.3s0-.9.2-1.3ZM204.9,13.6c0,.2.1.4.2.6.1.2.3.3.5.4.2.1.4.2.7.2s.5,0,.7-.2c.2-.1.4-.3.5-.4.1-.2.2-.4.2-.6,0-.2,0-.5,0-.7s0-.5,0-.7c0-.2-.1-.5-.2-.6-.1-.2-.3-.3-.5-.5-.2-.1-.4-.2-.7-.2s-.5,0-.7.2c-.2.1-.3.3-.5.5-.1.2-.2.4-.2.6,0,.2,0,.5,0,.7s0,.5,0,.7Z"/>
    <path d="M212.2,9.8v1.2h0c0-.2.2-.4.3-.5.1-.2.3-.3.5-.4.2-.1.4-.2.6-.3.2,0,.4,0,.6,0s.2,0,.4,0v1.6c0,0-.2,0-.3,0-.1,0-.2,0-.3,0-.3,0-.6,0-.8.2-.2.1-.4.2-.5.4-.1.2-.2.4-.3.6,0,.2,0,.5,0,.8v2.8h-1.7v-6.2h1.6Z"/>
    <path d="M218.7,8.8v-1.4h1.7v1.4h-1.7ZM220.4,9.8v6.2h-1.7v-6.2h1.7Z"/>
    <path d="M225.1,8.8v-1.4h1.7v1.4h-1.7ZM226.8,9.8v6.2h-1.7v-6.2h1.7Z"/>
    <path d="M229.8,9.8v.9h0c.2-.4.5-.6.8-.8.3-.2.7-.2,1.1-.2s.8,0,1.1.2.5.3.7.5.3.5.4.8c0,.3.1.7.1,1.1v3.8h-1.7v-3.5c0-.5,0-.9-.2-1.1s-.4-.4-.9-.4-.8.1-1,.4c-.2.3-.3.7-.3,1.4v3.3h-1.7v-6.2h1.6Z"/>
    <path d="M240.2,9.8v1.2h0c0-.2.2-.4.3-.5.1-.2.3-.3.5-.4.2-.1.4-.2.6-.3.2,0,.4,0,.6,0s.2,0,.4,0v1.6c0,0-.2,0-.3,0-.1,0-.2,0-.3,0-.3,0-.6,0-.8.2-.2.1-.4.2-.5.4-.1.2-.2.4-.3.6,0,.2,0,.5,0,.8v2.8h-1.7v-6.2h1.6Z"/>
    <path d="M243.2,11.7c0-.4.1-.7.3-1,.2-.3.4-.5.7-.6.3-.2.6-.3.9-.3.3,0,.7-.1,1-.1s.6,0,.9,0c.3,0,.6.1.9.3.3.1.5.3.6.5s.3.5.3.9v3.2c0,.3,0,.5,0,.8,0,.3,0,.4.2.6h-1.7c0,0,0-.2,0-.3s0-.2,0-.3c-.3.3-.6.5-1,.6-.4.1-.7.2-1.1.2s-.6,0-.8-.1c-.3,0-.5-.2-.7-.3-.2-.2-.3-.3-.5-.6s-.2-.5-.2-.8,0-.6.2-.9.3-.4.5-.5c.2-.1.4-.2.7-.3.3,0,.5-.1.8-.2.3,0,.5,0,.8,0,.2,0,.5,0,.7-.1.2,0,.3-.1.5-.2.1,0,.2-.2.2-.4,0-.2,0-.3,0-.4s-.1-.2-.2-.3c-.1,0-.2-.1-.3-.1-.1,0-.3,0-.4,0-.3,0-.6,0-.8.2-.2.1-.3.4-.3.7h-1.7ZM247.1,12.9c0,0-.2.1-.3.1-.1,0-.2,0-.3,0s-.3,0-.4,0-.3,0-.4,0c-.1,0-.3,0-.4,0s-.2,0-.3.2c0,0-.2.2-.2.3,0,.1,0,.2,0,.4s0,.3,0,.4.1.2.2.2c0,0,.2.1.3.1.1,0,.3,0,.4,0,.3,0,.6,0,.8-.2.2-.1.3-.2.4-.4,0-.2.1-.3.2-.5,0-.2,0-.3,0-.4v-.6Z"/>
    <path d="M251.8,9.8v.9h0c.2-.4.5-.6.8-.8.3-.2.7-.2,1.1-.2s.8,0,1.1.2.5.3.7.5.3.5.4.8c0,.3.1.7.1,1.1v3.8h-1.7v-3.5c0-.5,0-.9-.2-1.1s-.4-.4-.9-.4-.8.1-1,.4c-.2.3-.3.7-.3,1.4v3.3h-1.7v-6.2h1.6Z"/>
    <path d="M263.1,16.4c0,.3-.2.6-.4.9-.2.3-.5.5-1,.7-.4.2-1,.3-1.7.3s-.6,0-.9-.1c-.3,0-.6-.2-.9-.4-.3-.2-.5-.4-.6-.6-.2-.3-.3-.6-.3-.9h1.7c0,.3.2.5.5.7.2.1.5.2.8.2.5,0,.8-.1,1-.4.2-.3.3-.7.3-1.1v-.8h0c-.2.3-.4.6-.8.7-.3.2-.7.2-1.1.2s-.9,0-1.2-.2c-.3-.2-.6-.4-.8-.7-.2-.3-.4-.6-.5-1-.1-.4-.1-.8-.1-1.2s0-.8.2-1.2c.1-.4.3-.7.5-1,.2-.3.5-.5.8-.7.3-.2.7-.3,1.1-.3s.8,0,1.1.2c.3.2.6.4.8.8h0v-.8h1.6v5.8c0,.2,0,.5-.1.9ZM260.8,14.4c.2,0,.3-.2.5-.4.1-.2.2-.3.3-.5s0-.4,0-.6,0-.5,0-.7c0-.2-.1-.4-.2-.6-.1-.2-.3-.3-.4-.4-.2-.1-.4-.2-.7-.2s-.4,0-.6.1c-.2,0-.3.2-.4.4-.1.2-.2.4-.3.6,0,.2,0,.4,0,.7s0,.4,0,.7c0,.2.1.4.2.6.1.2.2.3.4.4.2.1.4.2.7.2s.5,0,.6-.1Z"/>
    <path d="M266.4,14.5c.3.2.6.4,1.1.4s.6,0,.9-.3c.2-.2.4-.4.5-.5h1.5c-.2.7-.6,1.3-1.1,1.6-.5.3-1.1.5-1.8.5s-.9,0-1.3-.2c-.4-.2-.7-.4-1-.7-.3-.3-.5-.6-.6-1s-.2-.8-.2-1.3,0-.9.2-1.3c.2-.4.4-.7.6-1,.3-.3.6-.5,1-.7.4-.2.8-.3,1.3-.3s1,.1,1.4.3.7.5,1,.8c.3.3.4.7.5,1.2.1.4.2.9.1,1.4h-4.5c0,.6.2,1,.4,1.2ZM268.4,11.2c-.2-.2-.5-.3-.9-.3s-.5,0-.7.1c-.2,0-.3.2-.4.3s-.2.3-.2.4,0,.3,0,.4h2.8c0-.4-.2-.8-.4-1Z"/>
    <path d="M273.5,9.9c-.2.9-.3,1.8-.3,2.8s.1,1.9.3,2.8c.2.9.5,1.8,1,2.7h-1.4c-.5-.8-.9-1.7-1.2-2.6s-.4-1.8-.4-2.8,0-.9.1-1.4c0-.5.2-1,.3-1.5.1-.5.3-1,.5-1.4.2-.5.4-.9.7-1.3h1.4c-.5.8-.8,1.7-1,2.6Z"/>
    <path d="M277.4,16v-5.4h-2.1v-1.3c.3,0,.6,0,.9,0,.3,0,.5-.1.7-.3.2-.1.4-.3.6-.5.2-.2.3-.5.3-.8h1.4v8.4h-1.7Z"/>
    <path d="M281.6,9.7c.2-.6.4-1,.7-1.3s.6-.6,1-.7.8-.2,1.2-.2.8,0,1.2.2c.4.1.7.4,1,.7s.5.8.7,1.3.2,1.2.2,2.1,0,1.5-.2,2.1-.4,1-.7,1.4c-.3.3-.6.6-1,.7-.4.1-.8.2-1.2.2s-.8,0-1.2-.2-.7-.4-1-.7c-.3-.3-.5-.8-.7-1.4s-.2-1.3-.2-2.1,0-1.5.2-2.1ZM283.1,12.6c0,.3,0,.7.1,1s.2.6.4.8c.2.2.4.3.8.3s.6-.1.8-.3c.2-.2.3-.5.4-.8s.1-.6.2-1c0-.3,0-.6,0-.9s0-.3,0-.5c0-.2,0-.4,0-.6,0-.2,0-.4-.1-.6s-.1-.4-.2-.6c-.1-.2-.2-.3-.4-.4s-.4-.2-.6-.2-.4,0-.6.2-.3.2-.4.4c-.1.2-.2.4-.2.6s0,.4-.1.6c0,.2,0,.4,0,.6,0,.2,0,.4,0,.5,0,.2,0,.5,0,.9Z"/>
    <path d="M288.2,9.7c.2-.6.4-1,.7-1.3s.6-.6,1-.7.8-.2,1.2-.2.8,0,1.2.2c.4.1.7.4,1,.7s.5.8.7,1.3.2,1.2.2,2.1,0,1.5-.2,2.1-.4,1-.7,1.4c-.3.3-.6.6-1,.7-.4.1-.8.2-1.2.2s-.8,0-1.2-.2-.7-.4-1-.7c-.3-.3-.5-.8-.7-1.4s-.2-1.3-.2-2.1,0-1.5.2-2.1ZM289.7,12.6c0,.3,0,.7.1,1s.2.6.4.8c.2.2.4.3.8.3s.6-.1.8-.3c.2-.2.3-.5.4-.8s.1-.6.2-1c0-.3,0-.6,0-.9s0-.3,0-.5c0-.2,0-.4,0-.6,0-.2,0-.4-.1-.6s-.1-.4-.2-.6c-.1-.2-.2-.3-.4-.4s-.4-.2-.6-.2-.4,0-.6.2-.3.2-.4.4c-.1.2-.2.4-.2.6s0,.4-.1.6c0,.2,0,.4,0,.6,0,.2,0,.4,0,.5,0,.2,0,.5,0,.9Z"/>
    <path d="M295.3,15.5c.2-.9.3-1.8.3-2.8s-.1-1.9-.3-2.8c-.2-.9-.5-1.8-1-2.7h1.4c.5.8.9,1.7,1.2,2.6.3.9.4,1.9.4,2.8s0,.9,0,1.4c0,.5-.2,1-.3,1.5s-.3,1-.5,1.4-.4.9-.7,1.2h-1.4c.4-.8.8-1.7,1-2.6Z"/>
    <path d="M298.7,11.7v-1.8h1.9v1.8h-1.9ZM300.6,14.1v1.8h-1.9v-1.8h1.9Z"/>
    <path d="M227.6,33.8v.8h0c.2-.3.5-.6.8-.7.3-.2.7-.2,1.1-.2s.9,0,1.3.3c.4.2.6.4.9.7.2.3.4.7.5,1.1.1.4.2.8.2,1.3s0,.8-.2,1.2c-.1.4-.3.7-.5,1-.2.3-.5.5-.9.7-.3.2-.7.3-1.2.3s-.7,0-1.1-.2c-.3-.2-.6-.4-.8-.7h0v2.9h-1.7v-8.4h1.6ZM229.8,38.7c.2-.1.3-.3.5-.4.1-.2.2-.4.2-.6,0-.2,0-.5,0-.7s0-.5,0-.7c0-.2-.1-.5-.3-.6s-.3-.3-.5-.5c-.2-.1-.4-.2-.7-.2s-.5,0-.7.2c-.2.1-.3.3-.5.5-.1.2-.2.4-.2.6,0,.2,0,.5,0,.7s0,.5,0,.7c0,.2.1.5.3.6.1.2.3.3.5.4.2.1.4.2.7.2s.5,0,.7-.2Z"/>
    <path d="M234.9,33.8v1.2h0c0-.2.2-.4.3-.5.1-.2.3-.3.5-.4.2-.1.4-.2.6-.3.2,0,.4,0,.6,0s.2,0,.4,0v1.6c0,0-.2,0-.3,0-.1,0-.2,0-.3,0-.3,0-.6,0-.8.2-.2.1-.4.2-.5.4-.1.2-.2.4-.3.6,0,.2,0,.5,0,.8v2.8h-1.7v-6.2h1.6Z"/>
    <path d="M238,32.8v-1.4h1.7v1.4h-1.7ZM239.7,33.8v6.2h-1.7v-6.2h1.7Z"/>
    <path d="M242.7,33.8v.9h0c.2-.4.5-.6.8-.8.3-.2.7-.2,1.1-.2s.8,0,1.1.2.5.3.7.5.3.5.4.8c0,.3.1.7.1,1.1v3.8h-1.7v-3.5c0-.5,0-.9-.2-1.1s-.4-.4-.9-.4-.8.1-1,.4c-.2.3-.3.7-.3,1.4v3.3h-1.7v-6.2h1.6Z"/>
    <path d="M251.6,33.8v1.1h-1.2v3.1c0,.3,0,.5.1.6,0,0,.3.1.6.1s.2,0,.3,0c0,0,.2,0,.3,0v1.3c-.1,0-.3,0-.5,0-.2,0-.3,0-.5,0-.3,0-.5,0-.8,0-.2,0-.4-.1-.6-.2s-.3-.3-.4-.4-.2-.4-.2-.8v-3.7h-1v-1.1h1v-1.9h1.7v1.9h1.2Z"/>
    <path d="M254.4,33.9c-.2.9-.3,1.8-.3,2.8s.1,1.9.3,2.8c.2.9.5,1.8,1,2.7h-1.4c-.5-.8-.9-1.7-1.2-2.6s-.4-1.8-.4-2.8,0-.9.1-1.4c0-.5.2-1,.3-1.5.1-.5.3-1,.5-1.4.2-.5.4-.9.7-1.3h1.4c-.5.8-.8,1.7-1,2.6Z"/>
    <path d="M256,32.8v-1.4h1.7v1.4h-1.7ZM257.7,33.8v6.2h-1.7v-6.2h1.7Z"/>
    <path d="M259.3,39.5c.2-.9.3-1.8.3-2.8s-.1-1.9-.3-2.8c-.2-.9-.5-1.8-1-2.7h1.4c.5.8.9,1.7,1.2,2.6.3.9.4,1.9.4,2.8s0,.9,0,1.4c0,.5-.2,1-.3,1.5-.1.5-.3,1-.5,1.4-.2.5-.4.9-.7,1.2h-1.4c.4-.8.8-1.7,1-2.6Z"/>
    <path d="M229.6,53.4c0,.7-.6,1.2-1.2,1.2s-1.2-.6-1.2-1.2.6-1.2,1.2-1.2,1.2.6,1.2,1.2Z"/>
    <path d="M235.6,53.4c0,.7-.6,1.2-1.2,1.2s-1.2-.6-1.2-1.2.6-1.2,1.2-1.2,1.2.6,1.2,1.2Z"/>
    <path d="M241.6,53.4c0,.7-.6,1.2-1.2,1.2s-1.2-.6-1.2-1.2.6-1.2,1.2-1.2,1.2.6,1.2,1.2Z"/>
    <path d="M247.6,53.4c0,.7-.6,1.2-1.2,1.2s-1.2-.6-1.2-1.2.6-1.2,1.2-1.2,1.2.6,1.2,1.2Z"/>
    <path d="M253.6,53.4c0,.7-.6,1.2-1.2,1.2s-1.2-.6-1.2-1.2.6-1.2,1.2-1.2,1.2.6,1.2,1.2Z"/>
    <path d="M259.6,53.4c0,.7-.6,1.2-1.2,1.2s-1.2-.6-1.2-1.2.6-1.2,1.2-1.2,1.2.6,1.2,1.2Z"/>
    <path d="M229.6,71.4c0,.7-.6,1.2-1.2,1.2s-1.2-.6-1.2-1.2.6-1.2,1.2-1.2,1.2.6,1.2,1.2Z"/>
    <path d="M235.6,71.4c0,.7-.6,1.2-1.2,1.2s-1.2-.6-1.2-1.2.6-1.2,1.2-1.2,1.2.6,1.2,1.2Z"/>
    <path d="M241.6,71.4c0,.7-.6,1.2-1.2,1.2s-1.2-.6-1.2-1.2.6-1.2,1.2-1.2,1.2.6,1.2,1.2Z"/>
    <path d="M247.6,71.4c0,.7-.6,1.2-1.2,1.2s-1.2-.6-1.2-1.2.6-1.2,1.2-1.2,1.2.6,1.2,1.2Z"/>
    <path d="M253.6,71.4c0,.7-.6,1.2-1.2,1.2s-1.2-.6-1.2-1.2.6-1.2,1.2-1.2,1.2.6,1.2,1.2Z"/>
    <path d="M259.6,71.4c0,.7-.6,1.2-1.2,1.2s-1.2-.6-1.2-1.2.6-1.2,1.2-1.2,1.2.6,1.2,1.2Z"/>
  </g>
  <g>
    <path d="M368.5,14.1c.9,0,1.5,0,2.1-.1v1.9c-.6,0-1.3-.1-2.2-.1h-3.6c1.5,1.4,3.6,2.6,6.4,3.4-.5.8-.7,1-1.1,2-1.9-.8-2.7-1.2-4-2.1-1.2-.8-1.8-1.3-2.6-2.2,0,.7,0,1,0,1.3v1.7c0,.8,0,1.2.1,1.7h-2.2c.1-.6.1-1,.1-1.7v-1.6c0-.4,0-.8,0-1.3-.9,1-1.5,1.6-2.6,2.3-1.1.8-2.1,1.3-3.5,1.9-.3-.7-.5-1.2-1.1-1.9,2.2-.6,4.6-1.9,6-3.3h-3.4c-.9,0-1.6,0-2.2.1v-1.9c.4,0,.9.1,1.7.1h5.1v-.8c0-.5,0-.7,0-1.2h2.1c0,.4,0,.7,0,1.2v.7h5ZM367.9,6.9c-.2.1-.2.2-.5.5-1,1.1-1.9,1.9-3,2.6,1.8.7,3.9,1.2,6.6,1.5-.4.6-.6,1.1-.9,1.9-3.7-.6-5.7-1.3-7.6-2.3-.9.5-1.5.7-2.8,1.2-1.7.6-2.5.8-4.6,1.2-.2-.7-.3-1.1-.7-1.7,2.5-.3,4.5-.8,6.5-1.7-.7-.6-1.1-.9-1.9-1.7-1.2.9-1.8,1.3-3.2,1.9-.3-.6-.5-1-1.1-1.5,1.4-.6,2.3-1,3.4-1.9,1-.8,1.7-1.5,2.2-2.3l2.2.4c-.2.2-.5.5-1,1h3.7c.8,0,1.1,0,1.6-.1l1.1,1.1ZM360.5,7.5c.6.7,1.2,1.2,2.2,1.7.9-.6,1.4-.9,2.2-1.7h-4.4Z"/>
    <path d="M374.3,14.2c0-.6,0-1.2,0-2-.5.8-.8,1.4-1.5,2.1-.3-1.2-.5-1.6-.8-2.2,1.4-1.5,2.3-3.1,3.1-5.1.4-1,.5-1.6.6-2.3l2,.6c0,.3-.1.4-.3.8-.5,1.4-.6,1.8-1.3,3.2v10.2c0,.8,0,1.4,0,2.1h-2.2c0-.7.1-1.2.1-2.1v-5.2ZM382.2,6.9c0-.8,0-1.3-.1-1.9h2.2c-.1.6-.1,1-.1,1.9v1.7h2.3c.9,0,1.4,0,1.9-.1v2.1c-.8,0-1.4-.1-1.9-.1h-2.3v3.4h2.8c.9,0,1.4,0,2-.1v2.1c-.6,0-1.2-.1-2-.1h-2.8v3.7c0,1,0,1.4.1,2.1h-2.2c0-.6.1-1.2.1-2.1v-3.7h-3.1c-.8,0-1.5,0-2,.1v-2.1c.5,0,1.2.1,2,.1h3.1v-3.4h-2.5c-.5,1.1-.8,1.6-1.5,2.6-.5-.5-.6-.6-1.6-1.3.8-1.1,1.4-2.3,1.9-3.7.3-.9.5-1.6.6-2.3l2,.5c-.1.4-.2.5-.3,1.1-.2.6-.3.8-.4,1.2h1.8v-1.7Z"/>
  </g>
  <g>
    <line class="st0" x1="345.5" y1="13.5" x2="311.6" y2="13.5"/>
    <g>
      <line class="st1" x1="345.5" y1="13.5" x2="316.2" y2="13.5"/>
      <polygon class="st3" points="324.2 6.7 317.4 13.5 324.2 20.3 318.4 20.3 311.6 13.5 318.4 6.7 324.2 6.7"/>
    </g>
  </g>
  <g>
    <path d="M360.5,45.1c.7,0,1,0,1.5,0q0,.4,0,1c-.2,3.6-.7,5.6-1.8,7.9.8,1.2,1.5,1.8,2.4,2.3,1.1.5,2.9.8,5.5.8s1.9,0,3.4-.1c-.3.8-.5,1.2-.6,2.1-.6,0-1.7,0-2.3,0-1.6,0-3.6-.2-4.9-.4-1.8-.3-3.2-1.3-4.5-3-1.1,1.6-2.1,2.6-3.7,3.9-.3-.8-.6-1.3-1.1-1.8,1.8-1.3,2.8-2.4,3.8-3.9-.6-1.3-.8-1.7-1.2-3.1-.5,1-.8,1.4-1.4,2.4-.4-.9-.6-1.2-1.2-1.9,1-1.2,1.6-2.5,2.1-4.3.4-1.3.7-3,.7-3.8s0-.1,0-.3l2,.2c0,.3-.1.5-.2,1,0,.4,0,.6-.2,1.1h1.9ZM358.2,46.9c-.1.6-.3.9-.5,1.5.6,2.1.7,2.5,1.2,3.7.6-1.5.8-2.8,1-5.2h-1.8ZM364.9,45.7c0,3-.1,4.6-.4,6.1-.3,1.7-.7,2.7-1.6,4-.5-.6-.8-.9-1.6-1.3,1.5-1.8,1.8-3.5,1.8-9.3s0-1,0-1.4c.3,0,.7,0,1.4,0h2.4c.8,0,1.3,0,1.6,0,0,.4,0,.9,0,1.6v7.8c0,.3,0,.3.4.3s.5,0,.6-.6c0-.5.1-1.3.2-2.8.6.3,1,.5,1.5.5,0,2.3-.2,3.4-.5,4-.3.6-.8.8-1.9.8-1.7,0-2.1-.3-2.1-1.3v-8.4h-1.6Z"/>
    <path d="M373.8,45.6c-.6,0-.9,0-1.3,0v-1.9c.4,0,.9.1,1.6.1h2.5c.7,0,1.2,0,1.6-.1v1.9c-.5,0-.8,0-1.3,0h-.5v3.5h.4c.5,0,.7,0,1.1,0v1.8c-.4,0-.7,0-1.1,0h-.4v3.5c.8-.3,1-.4,1.8-.8v1.9c-1.5.8-2.2,1.1-5,2.2,0,0-.2,0-.4.1l-.5-2c.6-.1,1-.3,2.2-.7v-4.3h-.6c-.5,0-.8,0-1.2,0v-1.9c.4,0,.7,0,1.3,0h.6v-3.5h-.7ZM382.5,55.4h-2c-1,0-1.4,0-1.9,0v-1.8c.5,0,.8,0,1.9,0h2v-1.5h-1.7c-1.2,0-1.6,0-2.2,0q0-.4,0-2.2v-4.1c0-1.2,0-1.8,0-2.4.7,0,1.3,0,2.4,0h5c1.3,0,1.9,0,2.3,0,0,.5,0,1.4,0,2.5v3.8c0,1.3,0,1.9,0,2.4-.6,0-.9,0-2,0h-2.1v1.5h2.3c1,0,1.4,0,1.9,0v1.9c-.5,0-1,0-1.9,0h-2.3v1.9h2.9c1,0,1.4,0,1.9,0v1.9c-.6,0-1.1,0-2,0h-7.6c-1,0-1.4,0-2,0v-1.9c.5,0,.9,0,1.8,0h3.2v-1.9ZM380.5,45.4v1.8h2v-1.8h-2ZM380.5,48.7v1.8h2v-1.8h-2ZM384.3,47.2h2.1v-1.8h-2.1v1.8ZM384.3,50.5h2.1v-1.8h-2.1v1.8Z"/>
  </g>
  <g>
    <line class="st0" x1="345.5" y1="51.6" x2="311.6" y2="51.6"/>
    <g>
      <line class="st1" x1="345.5" y1="51.6" x2="316.2" y2="51.6"/>
      <polygon class="st3" points="324.2 44.8 317.4 51.6 324.2 58.4 318.4 58.4 311.6 51.6 318.4 44.8 324.2 44.8"/>
    </g>
  </g>
  <rect class="st4" x="223.7" y="28.6" width="86.1" height="52.6"/>
  <polyline class="st2" points="199.7 82.9 199.7 88.1 223.7 88.1 223.7 82.9"/>
</svg>