<?xml version="1.0" encoding="UTF-8"?>
<svg id="Layer_1" xmlns="http://www.w3.org/2000/svg" xmlns:xlink="http://www.w3.org/1999/xlink" version="1.1" viewBox="0 0 852 240">
  <!-- Generator: Adobe Illustrator 29.2.1, SVG Export Plug-In . SVG Version: 2.1.0 Build 116)  -->
  <defs>
    <style>
      .st0, .st1, .st2, .st3, .st4, .st5, .st6, .st7, .st8 {
        fill: none;
      }

      .st1 {
        stroke-dasharray: 2 1;
      }

      .st1, .st2 {
        stroke-linecap: square;
      }

      .st1, .st2, .st3, .st4 {
        stroke: #000;
      }

      .st1, .st2, .st3, .st4, .st5, .st8 {
        stroke-miterlimit: 10;
      }

      .st9 {
        fill: #231f20;
      }

      .st10 {
        fill: url(#Diagonal_Lines);
      }

      .st11 {
        fill: #fff;
      }

      .st3 {
        stroke-dasharray: 4 2;
      }

      .st5 {
        stroke: #404040;
        stroke-width: 3px;
      }

      .st6 {
        stroke-linejoin: bevel;
      }

      .st6, .st7 {
        stroke: #231f20;
        stroke-width: .3px;
      }

      .st7 {
        stroke-linejoin: round;
      }

      .st8 {
        stroke: #4d4d4d;
        stroke-dasharray: 2 2;
      }

      .st12 {
        fill: #404040;
      }
    </style>
    <pattern id="Diagonal_Lines" data-name="Diagonal Lines" x="0" y="0" width="72" height="72" patternTransform="translate(0 659)" patternUnits="userSpaceOnUse" viewBox="0 0 72 72">
      <g>
        <rect class="st0" width="72" height="72"/>
        <line class="st11" x1="-23.8" y1="66" x2="-17.8" y2="72"/>
        <line class="st11" x1="-23.8" y1="72" x2="-17.8" y2="66"/>
        <line class="st7" x1="-7.5" y1="10.5" x2="10.5" y2="-7.5"/>
        <line class="st7" x1="-7.5" y1="16.5" x2="16.5" y2="-7.5"/>
        <line class="st7" x1="-7.5" y1="22.5" x2="22.5" y2="-7.5"/>
        <line class="st7" x1="-7.5" y1="28.5" x2="28.5" y2="-7.5"/>
        <line class="st7" x1="-7.5" y1="34.5" x2="34.5" y2="-7.5"/>
        <line class="st7" x1="-7.5" y1="40.5" x2="40.5" y2="-7.5"/>
        <line class="st7" x1="-7.5" y1="46.5" x2="46.5" y2="-7.5"/>
        <line class="st7" x1="-7.5" y1="52.5" x2="52.5" y2="-7.5"/>
        <line class="st7" x1="-7.5" y1="58.5" x2="58.5" y2="-7.5"/>
        <line class="st7" x1="-7.5" y1="64.5" x2="64.5" y2="-7.5"/>
        <line class="st7" x1="-7.5" y1="70.5" x2="70.5" y2="-7.5"/>
        <line class="st7" x1="-7.5" y1="76.5" x2="76.5" y2="-7.5"/>
        <line class="st7" x1="-1.5" y1="76.5" x2="76.5" y2="-1.5"/>
        <line class="st7" x1="4.5" y1="76.5" x2="76.5" y2="4.5"/>
        <line class="st7" x1="10.5" y1="76.5" x2="76.5" y2="10.5"/>
        <line class="st7" x1="16.5" y1="76.5" x2="76.5" y2="16.5"/>
        <line class="st7" x1="22.5" y1="76.5" x2="76.5" y2="22.5"/>
        <line class="st7" x1="28.5" y1="76.5" x2="76.5" y2="28.5"/>
        <line class="st7" x1="34.5" y1="76.5" x2="76.5" y2="34.5"/>
        <line class="st7" x1="40.5" y1="76.5" x2="76.5" y2="40.5"/>
        <line class="st7" x1="46.5" y1="76.5" x2="76.5" y2="46.5"/>
        <line class="st7" x1="52.5" y1="76.5" x2="76.5" y2="52.5"/>
        <line class="st7" x1="58.5" y1="76.5" x2="76.5" y2="58.5"/>
        <line class="st7" x1="64.5" y1="76.5" x2="76.5" y2="64.5"/>
        <line class="st6" x1="-28.8" y1="13.5" x2="-18.8" y2="3.5"/>
      </g>
    </pattern>
  </defs>
  <path class="st2" d="M250.5,215.5h3.2M557.9,215.5h-3.1"/>
  <path class="st2" d="M250.5,215.5h3.2M557.9,215.5h-3.1"/>
  <path class="st4" d="M243.5,139h7.2"/>
  <path class="st1" d="M250.5,12.9v202.6M250.5,215.5h302.4"/>
  <path class="st4" d="M261.3,215.5v-47.8h28.8v47.8h-28.8M290.1,215.5v-31.5h28.8v31.5h-28.8M318.9,215.5v-63.4h28.8v63.4h-28.8M347.7,215.5v-87.7h28.8v87.7h-28.8M376.5,215.5v-110.6h28.8v110.6h-28.8M405.3,215.5v-124.7h28.8v124.7h-28.8"/>
  <line class="st1" x1="250.5" y1="12.9" x2="250.5" y2="215.5"/>
  <line class="st2" x1="250.5" y1="215.5" x2="615.9" y2="215.5"/>
  <path class="st4" d="M434.2,215.5V63.7h28.8v151.8h-28.8M463,215.5V67.1h28.8v148.5h-28.8M491.8,215.5v-113.4h28.8v113.4h-28.8M520.6,215.5v-96.7h28.8v96.7h-28.8M549.5,215.5v-69.6h28.8v69.6h-28.8M578.2,215.5v-56.7h28.8v56.7h-28.8"/>
  <line class="st8" x1="250.5" y1="139" x2="615.5" y2="139"/>
  <polyline class="st10" points="347.7 138.5 347.7 127.8 376.5 127.8 376.5 138.5 347.7 138.5"/>
  <polyline class="st10" points="376.5 138.5 376.5 104.9 405.3 104.9 405.3 138.5 376.5 138.5"/>
  <polyline class="st10" points="405.3 138.5 405.3 90.8 434.1 90.8 434.1 138.5 405.3 138.5"/>
  <polyline class="st10" points="434.2 138.5 434.2 63.7 463 63.7 463 138.5 434.2 138.5"/>
  <polyline class="st10" points="463 138.5 463 67.1 491.8 67.1 491.8 138.5 463 138.5"/>
  <polyline class="st10" points="491.8 138.5 491.8 102.2 520.6 102.2 520.6 138.5 491.8 138.5"/>
  <polyline class="st10" points="520.6 138.5 520.6 118.8 549.5 118.8 549.5 138.5 520.6 138.5"/>
  <line class="st3" x1="347.7" y1="14.9" x2="347.7" y2="128.3"/>
  <line class="st3" x1="549.5" y1="14.9" x2="549.5" y2="118.3"/>
  <g>
    <line class="st5" x1="359.4" y1="34.6" x2="538.1" y2="34.6"/>
    <path class="st12" d="M545.3,34.6c-3.4,1.3-7.6,3.4-10.3,5.7l2.1-5.7-2.1-5.7c2.6,2.3,6.8,4.4,10.3,5.7Z"/>
    <path class="st12" d="M352.1,34.6c3.4-1.3,7.6-3.4,10.3-5.7l-2.1,5.7,2.1,5.7c-2.6-2.3-6.8-4.4-10.3-5.7Z"/>
  </g>
  <g>
    <path class="st9" d="M438.1,25.4c0,0,0,.1-.1.1s-.5,0-1.8,0h-8.2c-1.3,0-1.8,0-1.8,0,0,0-.1,0-.1-.1v-.6c0,0,0-.1.1-.1s.5,0,1.8,0h3.6v-3.2h-1.7c-1.4,0-1.9,0-2,0s-.1,0-.1-.1v-.6c0,0,0-.1.1-.1s.5,0,2,0h1.7v-2.9h-3.3c-.4.8-.8,1.5-1.4,2.3,0,0,0,.1-.2.1s0,0-.2-.1c-.2-.1-.3-.2-.5-.3,1.1-1.3,1.8-2.7,2.3-4.3,0-.3.2-.6.2-.8.3,0,.6.2.9.2.1,0,.2,0,.2.2s0,.1-.1.2c0,0-.2.2-.2.4-.2.4-.3.9-.5,1.3h2.9v-1.2c0-1,0-1.4-.1-1.9.4,0,.7,0,1,0,0,0,.2,0,.2.1s0,.1,0,.3c0,.2,0,.5,0,1.4v1.2h2.6c1.4,0,1.9,0,2,0s.1,0,.1.1v.6c0,0,0,.1-.1.1s-.5,0-2,0h-2.6v2.9h1.9c1.4,0,1.9,0,2,0s.1,0,.1.1v.6c0,0,0,.1-.1.1s-.5,0-2,0h-1.9v3.2h3.7c1.3,0,1.8,0,1.8,0s.1,0,.1.1v.6Z"/>
    <path class="st9" d="M452.2,15.9c0,0,0,.1-.1.1s-.5,0-1.8,0h-5.2c-.4.7-.8,1.3-1.2,1.8,1.7,0,3.6-.2,5.1-.3-.3-.3-.7-.5-1-.7,0,0,0,0,0-.2l.3-.3c0,0,.1,0,.2,0,1,.6,2.1,1.5,2.8,2.3,0,0,0,.1,0,.2l-.3.3c-.1.1-.1.1-.2,0-.3-.4-.6-.7-1-1-2.4.3-5.5.4-8.1.6-.4,0-.5,0-.6,0,0,0,0,0-.2,0s-.1,0-.1-.2c0-.2-.1-.6-.2-.8.4,0,.9,0,1.4,0,.3,0,.6,0,1,0,.5-.6.9-1.2,1.1-1.8h-2.2c-1.3,0-1.8,0-1.8,0s-.1,0-.1-.1v-.6c0,0,0-.1.1-.1s.5,0,1.8,0h3.6v-.2c0-.7,0-1.1,0-1.4.3,0,.7,0,.9,0,.1,0,.2,0,.2.1,0,0,0,.2,0,.3,0,.1,0,.4,0,1v.2h3.9c1.3,0,1.7,0,1.8,0,.1,0,.1,0,.1.1v.6ZM450,22.9c0,.7,0,1.6,0,1.9,0,.4,0,.8-.3,1-.2.2-.6.3-1.8.3-.3,0-.3,0-.4-.2,0-.2-.1-.4-.3-.6.5,0,.9,0,1.3,0s.5-.2.5-.6v-1.1h-6.3v.8c0,1.1,0,1.5,0,1.6s0,.1-.1.1h-.6c0,0-.1,0-.1-.1s0-.5,0-1.6v-3.4c0-1.1,0-1.5,0-1.6,0-.1,0-.1.1-.1s.6,0,1.9,0h3.9c1.4,0,1.8,0,1.9,0s.1,0,.1.1,0,.6,0,1.7v1.8ZM449.2,20.1h-6.3v1.1h6.3v-1.1ZM449.2,21.9h-6.3v1.1h6.3v-1.1Z"/>
    <path class="st9" d="M456.5,24c-.1,0-.2.2-.3.3-.5.7-1.1,1.2-1.8,1.8,0,0-.2,0-.2,0s-.1,0-.2-.2c-.1-.2-.2-.3-.4-.4.9-.6,1.5-1.1,1.9-1.7.2-.2.3-.4.3-.5.3.1.5.2.7.3,0,0,.1,0,.1.2s0,0-.1.1ZM460.5,16.4c0,0,0,.1-.1.1s-.3,0-1.1,0v5.9c.7,0,1,0,1,0,0,0,.1,0,.1.1v.5c0,0,0,.1-.1.1s-.5,0-1.8,0h-2.9c-1.3,0-1.7,0-1.8,0s-.1,0-.1-.1v-.5c0,0,0-.1.1-.1s.4,0,1.4,0v-5.9c-.8,0-1.1,0-1.2,0-.1,0-.1,0-.1-.1v-.5c0,0,0-.1.1-.1s.4,0,1.2,0v-.3c0-.8,0-1.3,0-1.7.3,0,.6,0,.9,0,.1,0,.2,0,.2.1,0,0,0,.2,0,.3,0,.1,0,.4,0,1.2v.3h2.5v-.4c0-.8,0-1.3,0-1.7.3,0,.6,0,.9,0,0,0,.2,0,.2.1,0,0,0,.2,0,.3,0,.1,0,.4,0,1.2v.3c.7,0,1,0,1.1,0,0,0,.1,0,.1.1v.5ZM458.5,16.5h-2.5v1.5h2.5v-1.5ZM458.5,18.6h-2.5v1.5h2.5v-1.5ZM458.5,20.8h-2.5v1.5h2.5v-1.5ZM458.2,23.5c.1,0,.1,0,.2,0,.3.4.7.9,1.2,1.3-.2.1-.3.2-.4.4,0,0-.1.1-.2.1s0,0-.2-.1c-.4-.4-.8-.8-1.1-1.3,0,0,0-.1,0-.2l.4-.2ZM465.6,23c0,.6,0,1.3,0,1.9s-.1.8-.4,1c-.3.2-.6.3-1.6.3s-.3,0-.4-.3c0-.2-.1-.4-.3-.6.4,0,.8,0,1.2,0s.6-.2.6-.6v-3.2h-2.9c-.2,2.2-.7,3.3-1.5,4.5,0,.1-.1.2-.2.2s0,0-.2-.1c-.2-.1-.4-.3-.5-.3,1.3-1.7,1.7-3,1.7-7.1v-2.1c0-1.5,0-2.1,0-2.2s0-.1.1-.1.4,0,1.4,0h1.5c1,0,1.3,0,1.4,0,0,0,.1,0,.1.1s0,.8,0,2.2v6.4ZM464.8,18.2h-2.8v.4c0,.8,0,1.5,0,2.1h2.8v-2.5ZM464.8,15h-2.8v2.5h2.8v-2.5Z"/>
    <path class="st9" d="M473.3,17.1c0,.9,0,1.2,0,1.3s0,.1-.1.1-.4,0-1.4,0h-2.5v4.7c0,2,0,2.8,0,2.9s0,.1-.1.1h-.7c0,0-.1,0-.1-.1s0-.9,0-2.9v-5.9c0-2,0-2.9,0-2.9s0-.1.1-.1.5,0,1.6,0h1.6c1,0,1.3,0,1.4,0s.1,0,.1.1,0,.4,0,1.3v1.5ZM472.5,14.9h-3.2v1.1h3.2v-1.1ZM472.5,16.7h-3.2v1.1h3.2v-1.1ZM476.3,22.5c0,2,0,2.4,0,2.4s0,.1-.1.1h-.6c0,0-.1,0-.1-.1v-.6h-3.2v.7c0,.1,0,.1-.1.1h-.6c0,0-.1,0-.1-.1s0-.4,0-2.5v-1.2c0-1.2,0-1.5,0-1.6s0-.1.1-.1.4,0,1.5,0h1.6c1,0,1.4,0,1.5,0s.1,0,.1.1,0,.4,0,1.4v1.3ZM475.6,20.3h-3.2v1.3h3.2v-1.3ZM475.6,22.3h-3.2v1.3h3.2v-1.3ZM479.6,22.7c0,.7,0,1.5,0,2s0,.9-.4,1.1c-.3.2-.6.3-1.8.3s-.3,0-.3-.3-.1-.4-.3-.6c.4,0,.7,0,1.1,0,.6,0,.7-.1.7-.7v-6h-2.5c-1.1,0-1.4,0-1.5,0-.1,0-.1,0-.1-.1s0-.3,0-1.2v-1.7c0-.9,0-1.1,0-1.2s0-.1.1-.1.4,0,1.5,0h1.8c1.1,0,1.4,0,1.5,0s.1,0,.1.1,0,.6,0,2v6.4ZM478.8,14.9h-3.4v1.1h3.4v-1.1ZM478.8,16.7h-3.4v1.1h3.4v-1.1Z"/>
  </g>
  <path class="st9" d="M239.5,134.9h-4.1v2.4c-.1.4-.2.8-.2,1.2.4-.6,1.1-1,1.9-1,1.6,0,2.8,1.3,2.8,3.3s-1.3,3.5-3.1,3.5-2.5-.7-2.9-2l1.1-.4c.3,1,.9,1.5,1.8,1.5s1.9-.9,1.9-2.5-.7-2.4-1.8-2.4-1.4.5-1.7,1.3h-1c0-.1.2-5.8.2-5.8h5v1Z"/>
  <g>
    <path class="st9" d="M268.7,230.1h1.9v.9h-5.1v-.9h2v-8.1c-.5.4-1.2.7-2,1l-.2-1c.9-.3,1.7-.7,2.4-1.2h1v9.3Z"/>
    <path class="st9" d="M282.3,228.6c0,.8,0,1.6,0,2.2s-.1.8-.4,1c-.3.3-.9.3-2,.3s-.3,0-.4-.3c0-.2-.1-.5-.3-.7.5,0,.9,0,1.5,0s.6-.2.6-.6v-3.1h-5.5c-.3,2.1-.9,3.2-2.2,4.5,0,0-.1.2-.2.2s-.1,0-.2-.1c-.2-.2-.4-.3-.6-.3,2-1.9,2.5-3.4,2.5-7.7v-1.7c0-1.2,0-1.8,0-1.8s0-.1.1-.1.5,0,1.8,0h3.2c1.3,0,1.8,0,1.8,0s.1,0,.1.1,0,.6,0,1.8v6.2ZM281.4,224.4h-5.3c0,.9,0,1.7,0,2.4h5.4v-2.4ZM281.4,221.3h-5.3v2.3h5.3v-2.3Z"/>
  </g>
  <g>
    <path class="st9" d="M582.7,230.1h1.9v.9h-5.1v-.9h2v-8.1c-.5.4-1.2.7-2,1l-.2-1c.9-.3,1.7-.7,2.4-1.2h1v9.3Z"/>
    <path class="st9" d="M586.7,223.4c.3-1.8,1.5-2.7,3-2.7s2.8,1,2.8,2.6-.4,2-2.1,3.4c-1.5,1.3-2.2,2.2-2.7,3.3h4.8v1h-6v-.9c.6-1.4,1.5-2.6,3-4,1.4-1.3,1.8-1.9,1.8-2.8s-.7-1.7-1.7-1.7-1.7.7-1.9,2l-1.1-.3Z"/>
    <path class="st9" d="M604.1,228.6c0,.8,0,1.6,0,2.2s-.1.8-.4,1c-.3.3-.9.3-2,.3s-.3,0-.4-.3c0-.2-.1-.5-.3-.7.5,0,.9,0,1.5,0s.6-.2.6-.6v-3.1h-5.5c-.3,2.1-.9,3.2-2.2,4.5,0,0-.1.2-.2.2s-.1,0-.2-.1c-.2-.2-.4-.3-.6-.3,2-1.9,2.5-3.4,2.5-7.7v-1.7c0-1.2,0-1.8,0-1.8s0-.1.1-.1.5,0,1.8,0h3.2c1.3,0,1.8,0,1.8,0s.1,0,.1.1,0,.6,0,1.8v6.2ZM603.2,224.4h-5.3c0,.9,0,1.7,0,2.4h5.4v-2.4ZM603.2,221.3h-5.3v2.3h5.3v-2.3Z"/>
  </g>
  <g>
    <path class="st9" d="M474.1,228.4c0,1.7-1.3,2.8-3.2,2.8s-3.2-1-3.2-2.7.7-1.9,2.2-2.7c-1.4-.7-1.9-1.5-1.9-2.6s1.2-2.5,2.9-2.5,2.9,1,2.9,2.5-.5,1.8-1.9,2.4c1.6.7,2.2,1.6,2.2,2.8ZM470.8,226.2c-1.3.6-1.9,1.3-1.9,2.2s.8,1.9,2,1.9,2-.7,2-1.8-.4-1.5-1.9-2.1h-.3ZM471.1,225.2c1.3-.5,1.6-1.1,1.6-2s-.7-1.6-1.8-1.6-1.8.6-1.8,1.6.4,1.3,1.7,1.9h.3Z"/>
    <path class="st9" d="M485.3,228.6c0,.8,0,1.6,0,2.2s-.1.8-.4,1c-.3.3-.9.3-2,.3s-.3,0-.4-.3c0-.2-.1-.5-.3-.7.5,0,.9,0,1.5,0s.6-.2.6-.6v-3.1h-5.5c-.3,2.1-.9,3.2-2.2,4.5,0,0-.1.2-.2.2s-.1,0-.2-.1c-.2-.2-.4-.3-.6-.3,2-1.9,2.5-3.4,2.5-7.7v-1.7c0-1.2,0-1.8,0-1.8s0-.1.1-.1.5,0,1.8,0h3.2c1.3,0,1.8,0,1.8,0s.1,0,.1.1,0,.6,0,1.8v6.2ZM484.4,224.4h-5.3c0,.9,0,1.7,0,2.4h5.4v-2.4ZM484.4,221.3h-5.3v2.3h5.3v-2.3Z"/>
  </g>
  <g>
    <path class="st9" d="M356.4,227.7h1.4v.9h-1.4v2.4h-1.1v-2.4h-4.1v-.9l3.5-7h1.6v6.9ZM355.4,224.2c0-.8,0-1.6,0-2.5h-.2c-.3.8-.6,1.5-1,2.2l-1.9,3.8h3v-3.6Z"/>
    <path class="st9" d="M369,228.6c0,.8,0,1.6,0,2.2s-.1.8-.4,1c-.3.3-.9.3-2,.3s-.3,0-.3-.3c0-.2-.1-.5-.3-.7.5,0,.9,0,1.5,0s.6-.2.6-.6v-3.1h-5.5c-.3,2.1-.9,3.2-2.2,4.5,0,0-.1.2-.2.2s-.1,0-.2-.1c-.2-.2-.4-.3-.6-.3,2-1.9,2.5-3.4,2.5-7.7v-1.7c0-1.2,0-1.8,0-1.8s0-.1.1-.1.5,0,1.8,0h3.2c1.3,0,1.8,0,1.8,0s.1,0,.1.1,0,.6,0,1.8v6.2ZM368.1,224.4h-5.3c0,.9,0,1.7,0,2.4h5.4v-2.4ZM368.1,221.3h-5.3v2.3h5.3v-2.3Z"/>
  </g>
  <g>
    <path class="st9" d="M217.8,157.3c.8,0,1.6,0,2.2,0s.8.1,1,.4c.3.3.3.9.3,2s0,.3-.3.4c-.2,0-.5.1-.7.3,0-.5,0-.9,0-1.5s-.2-.6-.6-.6h-3.1v5.5c2.1.3,3.2.9,4.5,2.2,0,0,.2.1.2.2s0,.1-.1.2c-.2.2-.3.4-.3.6-1.9-2-3.4-2.5-7.7-2.5h-1.7c-1.2,0-1.8,0-1.8,0s-.1,0-.1-.1,0-.5,0-1.8v-3.2c0-1.3,0-1.8,0-1.8s0-.1.1-.1.6,0,1.8,0h6.2ZM210.5,158.1v5.3h2.3v-5.3h-2.3ZM213.6,158.1v5.3c.9,0,1.7,0,2.4,0v-5.4h-2.4Z"/>
    <path class="st9" d="M216.5,141.6c0,0,.1,0,.1.1s0,.5,0,1.8v3.8h3.4c1,0,1.4,0,1.5,0s.1,0,.1.1v.7c0,0,0,.1-.1.1s-.5,0-1.5,0h-3.4v3.7c0,1.3,0,1.8,0,1.8s0,.1-.1.1h-.7c0,0-.1,0-.1-.1s0-.5,0-1.8v-3.7h-5.1v2.9c0,1.4,0,1.9,0,1.9s0,.1-.1.1h-.6c0,0-.1,0-.1-.1s0-.5,0-1.9v-6.9c0-1.4,0-1.8,0-1.9s0-.1.1-.1h.6c0,0,.1,0,.1.1s0,.5,0,1.9v3.1h5.1v-3.8c0-1.3,0-1.8,0-1.8s0-.1.1-.1h.7ZM211.9,143.2c0,0,.2.2.4.3.9.4,1.7.9,2.5,1.5.1,0,.2.1.2.2s0,0-.1.2c-.1.2-.2.3-.2.5-.9-.7-1.8-1.3-2.7-1.7-.2,0-.4-.2-.7-.2,0-.3.2-.6.4-.8,0,0,0-.1.2-.1s0,0,.2.1ZM211.4,151.7c0-.1,0-.1,0-.2.9-.7,2-1.2,3.1-1.6,0,0,.1,0,.2.1l.2.5c0,.2,0,.2,0,.3-1.1.4-2,.8-3,1.5,0,0-.1,0-.2-.1l-.2-.4Z"/>
    <path class="st9" d="M211.4,129.7c0-1.2,0-1.6,0-1.7s0-.1.1-.1c.4,0,.7,0,1.1,0,3,0,4.9.1,6.7.4,1.4.2,2.1.7,2.1,1.8,0,.4,0,.9,0,1.3q0,.3-.3.3c-.2,0-.4.1-.6.2.2-.8.2-1.3.2-1.8s-.7-.8-1.6-1c-1.7-.3-3.7-.4-6.8-.4v5c.7.4,1.5.8,2.1,1.4,0,0,.1.1.1.2s0,0-.2.2c-.2.1-.3.3-.4.4-1.2-1.1-2.7-1.8-3.8-2.2-.4-.2-.9-.2-1.2-.3,0-.3.2-.6.2-.8,0-.1,0-.2.2-.2s.2,0,.2.1c0,0,.4.2.7.3.4.1.8.3,1.2.5v-3.7ZM217.7,137.2c-.3-.6-.6-1.2-.9-1.8.2,0,.4,0,.5,0q.3,0,.4.2c.5.9,1,2.1,1.4,3.1.1.3.2.4.2.5,0,0,.1.1.1.2s0,.1-.1.2c-.2.1-.5.2-.8.3,0-.4-.2-.9-.3-1.4l-.2-.5h-4.4v.4c0,.9,0,1.2,0,1.3s0,.1-.1.1h-.6c-.1,0-.1,0-.1-.1s0-.4,0-1.3v-.4h-1.7c-1,0-1.4,0-1.9,0,0-.4,0-.6,0-.9,0,0,0-.2.1-.2s.1,0,.2,0c.2,0,.5,0,1.5,0h1.7v-.2c0-.9,0-1.2,0-1.3s0-.1.1-.1h.6c0,0,.1,0,.1.1s0,.3,0,1.3v.2h4.1ZM214.9,130.4c0,0,.1,0,.1.1s0,.3,0,1.2v1.1c0,.9,0,1.1,0,1.2s0,.1-.1.1h-.6c0,0-.1,0-.1-.1s0-.3,0-1.2v-1.1c0-.9,0-1.1,0-1.2s0-.1.1-.1h.6ZM217,130q.3,0,.4.2c.5.9,1.2,2.3,1.6,3.4.1.3.2.4.3.5,0,0,.1.1.1.2s0,.1-.1.2c-.2.1-.5.2-.8.3,0-.4-.2-.8-.4-1.4-.5-1.1-1-2.4-1.7-3.4.2,0,.4,0,.6,0Z"/>
    <path class="st9" d="M211.1,114.1c0,0,.1,0,.1.1s0,.5,0,2v6.9c.7.4,1.3,1,2,1.7,0,0,.1.2.1.2s0,0-.2.2c-.2.1-.3.3-.4.4-1.1-1.2-2-1.9-3.4-2.5-.2,0-.4-.1-.6-.2,0-.3.2-.6.2-.8,0,0,0-.1.2-.1s0,0,.2,0c0,0,.2.2.3.2.3.1.5.2.8.4v-6.5c0-1.4,0-1.9,0-2s0-.1.1-.1h.6ZM213,115.6c.1,0,.1,0,.1.1s0,.5,0,1.9v3.6c0,1.3,0,1.8,0,1.8s0,.1-.1.1h-.6c0,0-.1,0-.1-.1s0-.5,0-1.8v-3.6c0-1.3,0-1.8,0-1.9s0-.1.1-.1h.6ZM214.3,117.8c0-1.4,0-1.9,0-2s0-.1.1-.1c.7,0,1.4,0,2.1,0,1,0,1.8-.1,2.5-.3,1-.2,1.4-.5,1.4-.9s-.4-.4-1.9-.6c.2-.1.3-.3.4-.5,0-.2.1-.2.4-.2,1.5.2,2.1.6,2.1,1.3s-.6,1.3-2.1,1.7c-1.1.3-2.3.4-4.2.4v6.4c0,1.4,0,1.9,0,2s0,.1-.1.1h-.6c0,0-.1,0-.1-.1s0-.6,0-2v-5.1ZM216.2,123.2c0-.1-.1-.1,0-.2.5-.7,1-1.4,1.5-2.1-.4-.4-.8-.7-1.3-1.1-.2-.1-.4-.3-.7-.3.1-.3.3-.6.4-.7,0,0,.1-.1.2-.1s.1,0,.2.2c0,0,.2.2.4.3.5.4,1,.8,1.4,1.1.6-.7,1.2-1.4,2-2.1,0,0,.1,0,.2,0l.4.4c.2.1.2.2,0,.3-.8.7-1.4,1.4-2.1,2.1,1,1,1.7,2.3,2.5,3.9,0,0,0,.2,0,.2,0,0,0,.1-.2.2-.2.1-.4.3-.5.4-.7-1.8-1.5-3.1-2.4-4.1-.5.6-1,1.3-1.5,2,0,0,0,0-.2,0l-.3-.3Z"/>
    <path class="st9" d="M209.2,110.8c-.1,0-.1-.1,0-.2.4-.7,1-1.3,1.6-1.9,0,0,0,0,.2,0l.4.3c.1.1.1.1,0,.2-.6.6-1.2,1.3-1.7,1.9,0,0,0,0-.2,0l-.3-.3ZM213.2,101.2c.9,0,1.3,0,1.3,0s0,0,0,.1,0,.5,0,1.8v2.6c0,1.2,0,1.7,0,1.8s0,.1,0,.1-.4,0-1.3,0h-2.1c-.9,0-1.3,0-1.3,0-.1,0-.1,0-.1-.1s0-.5,0-1.8v-2.6c0-1.2,0-1.7,0-1.8s0-.1.1-.1.4,0,1.3,0h2.1ZM210.3,102v4.7h1.4v-4.7h-1.4ZM212.4,102v4.7h1.5v-4.7h-1.5ZM212.7,111.6c-.1,0-.1-.1,0-.2.4-.7.9-1.4,1.5-2,0,0,0,0,.2,0l.4.3c0,0,.1,0,0,.2-.6.6-1.1,1.2-1.5,1.9,0,0,0,0-.2,0l-.4-.3ZM220.8,99.3c0,0,.1,0,.1.1s0,.5,0,2v6c0,1.4,0,1.9,0,2s0,.1-.1.1h-.5c0,0-.1,0-.1-.1s0-.4,0-1.2h-2.8c-.9,0-1.3,0-1.4,0s-.1,0-.1-.1,0-.5,0-1.9v-3.7c0-1.4,0-1.8,0-1.9s0-.1.1-.1.5,0,1.4,0h2.8c0-.6,0-.9,0-.9,0,0,0-.1.1-.1h.5ZM220.5,110.5c.3.1.5.2.6.3,0,0,.2,0,.2.1s0,0,0,.2c-.1.2-.3.4-.5.7-.3-.3-.6-.5-1.1-.7-.7-.4-1.9-.9-3.2-1.3.2-.1.3-.3.4-.4q.2-.2.4-.1c1.2.4,2.3.9,3.3,1.4ZM216.6,101.2v1.6h3.6v-1.6h-3.6ZM216.6,103.5v1.5h3.6v-1.5h-3.6ZM216.6,105.8v1.5h3.6v-1.5h-3.6Z"/>
    <path class="st9" d="M208.8,92.3c2,2.4,4,3.1,6.4,3.1s4.4-.8,6.4-3.1l.4.4c-2,2.6-4.1,3.7-6.8,3.7s-4.8-1-6.8-3.7l.4-.4Z"/>
    <path class="st9" d="M211.4,87.8c.9,0,1.7.7,1.7,1.7s-.8,1.7-1.7,1.7-1.7-.8-1.7-1.7.7-1.7,1.7-1.7ZM213.1,79.5c-1.5.4-2.3,1.2-2.3,2.5s1.5,3,4.3,3,4.3-1.3,4.3-3-.7-2.3-2.3-2.6l.4-1.2c2,.6,2.9,1.9,2.9,3.8s-1.9,4.3-5.3,4.3-5.4-1.8-5.4-4.3,1.1-3.3,3-3.7l.3,1.2ZM211.4,90.6c.6,0,1.1-.5,1.1-1.1s-.5-1.1-1.1-1.1-1.1.4-1.1,1.1.4,1.1,1.1,1.1Z"/>
    <path class="st9" d="M208.4,76.7c2-2.6,4.1-3.7,6.8-3.7s4.8,1,6.8,3.7l-.4.4c-2-2.4-4-3.1-6.4-3.1s-4.4.8-6.4,3.1l-.4-.4Z"/>
  </g>
</svg>