<?xml version="1.0" encoding="UTF-8"?>
<svg id="Layer_1" xmlns="http://www.w3.org/2000/svg" version="1.1" viewBox="0 0 618.7 278.2">
  <!-- Generator: Adobe Illustrator 29.2.1, SVG Export Plug-In . SVG Version: 2.1.0 Build 116)  -->
  <defs>
    <style>
      .st0 {
        fill: none;
        stroke: #000;
        stroke-miterlimit: 10;
        stroke-width: .5px;
      }
    </style>
  </defs>
  <g>
    <path d="M237.8,75.3c0-.3,0-.6,0-1v-4.4h-.4c-.3,0-.5,0-.8,0v-1c.2,0,.4,0,.8,0h.7c.4,0,.5,0,.8,0,0,.5,0,.8,0,1.3v4c0,.4,0,.7,0,1h-1.2Z"/>
    <path d="M247.6,75.9v-.4h-5v.4h-.9c0-.3,0-.6,0-1v-5.1c0-.4,0-.7,0-1,.3,0,.5,0,.9,0h5c.4,0,.6,0,1,0,0,.3,0,.6,0,1v5.1c0,.4,0,.8,0,1h-.9ZM242.7,74.7h5v-5h-5v5ZM246,70.6c.4,0,.6,0,.8,0,0,.2,0,.4,0,.6v1.9c0,.3,0,.4,0,.6-.2,0-.4,0-.8,0h-1.7c-.4,0-.5,0-.8,0,0-.2,0-.4,0-.6v-1.9c0-.2,0-.4,0-.6.2,0,.4,0,.8,0h1.7ZM244.4,73h1.5v-1.6h-1.5v1.6Z"/>
    <path d="M251.2,71.3c-.4,0-.6,0-.8,0v-.4h-.7c0-.2,0-.3,0-.6v-.6c0-.2,0-.4,0-.6.3,0,.5,0,.9,0h2.1v-.2c0-.2,0-.3,0-.5h1c0,.2,0,.3,0,.5v.2h2.2c.4,0,.6,0,.9,0,0,.2,0,.4,0,.6v.6c0,.2,0,.4,0,.6h-.7v.4c-.2,0-.4,0-.8,0h-1.6q0,.3,0,.4h1.5c.4,0,.5,0,.7,0v.8c-.2,0-.3,0-.7,0h-1.5c0,.2,0,.3,0,.4h2.5c.4,0,.6,0,.8,0v.8c-.3,0-.5,0-.9,0h-2c.3.3.4.5.7.7.4.2.8.4,1.4.5.2,0,.4.1.9.2-.2.3-.3.5-.4.9-.7-.2-1.1-.3-1.5-.5-.9-.4-1.4-.8-1.9-1.5-.3.5-.6.9-1.2,1.3-.6.4-1.1.5-2,.7-.1-.4-.2-.5-.4-.8.8-.1,1.3-.2,1.7-.5.5-.2.8-.5,1-.9h-1.8c-.3,0-.6,0-.9,0v-.8c.2,0,.4,0,.8,0h2.1c0-.2,0-.2,0-.4h-1.4c-.4,0-.5,0-.7,0v-.8c.2,0,.3,0,.7,0h1.4q0-.2,0-.4h-1.5ZM252.7,70.6c0-.3,0-.4,0-.5h.9c0,0,0,.2,0,.5h1.6c.3,0,.4,0,.6,0v-.7h-5.2v.7c.1,0,.3,0,.6,0h1.5Z"/>
    <path d="M258.6,73.5c0-.3,0-.4,0-.9-.2.2-.4.5-.7.7-.1-.4-.2-.6-.4-.9.8-.5,1.7-1.4,2-2.1l.8.5c0,0-.2.2-.3.4-.2.3-.3.4-.5.6v3.2c0,.4,0,.7,0,1h-1c0-.2,0-.6,0-1v-1.4ZM260.1,69q0,0-.2.3c-.5.6-1.1,1.1-1.8,1.6-.2-.3-.3-.5-.5-.8.6-.3,1-.7,1.4-1.1.2-.2.3-.4.4-.6l.8.5ZM261.1,71.8c-.4,0-.7,0-1,0v-.9c.2,0,.6,0,1,0h2.7c.4,0,.8,0,1,0v.9c-.3,0-.6,0-1,0h-.3v3.2c0,.7-.2.9-1.2.9s-.5,0-.9,0c0-.4,0-.6-.2-.9.4,0,.8,0,1.1,0s.4,0,.4-.2v-3h-1.5ZM260.5,68.9c.2,0,.5,0,.9,0h2.2c.4,0,.7,0,.9,0v.9c-.3,0-.6,0-.9,0h-2.2c-.3,0-.7,0-.9,0v-.9Z"/>
    <path d="M267.8,76c-.4-.6-.6-1-.9-1.6-.3-.7-.4-1.4-.4-2.2s.1-1.4.4-2.1c.2-.6.4-.9.9-1.6h1.1c-.6.7-.8,1.1-1,1.6-.3.7-.4,1.3-.4,2.1s.1,1.5.4,2.2c.2.5.4.9,1,1.6h-1.1Z"/>
    <path d="M269.7,71.8c-.4-.8-.4-.8-.5-1h1.2c0,.2.2.6.3.9l1,2.3.9-2.3c.2-.5.3-.7.3-.9h1.2c0,.1-.2.4-.4,1l-1.8,4.3c-.3.6-.7.9-1.5.9s-.5,0-.8,0l.2-.9c.2,0,.4.1.6.1.3,0,.5-.2.6-.4l.3-.6-1.5-3.3Z"/>
    <path d="M275.4,75.3c0,.7-.2.9-.8,1.2l-.3-.4c.5-.1.6-.3.6-.8h-.7v-1.2h1.2v1.2Z"/>
    <path d="M282.1,75.3c-.1-.3-.2-.4-.4-.7l-.7-1-.7,1.1c-.1.2-.2.3-.3.6h-1.3c.2-.2.4-.5.6-.7l1.2-1.7-1.1-1.5c0-.1-.2-.2-.5-.7h1.2c0,.2.2.4.3.6l.6.9.6-.9c.1-.2.3-.4.3-.6h1.2c-.3.3-.4.5-.5.7l-1.1,1.5,1.2,1.6c.1.2.4.5.6.8h-1.3Z"/>
    <path d="M289.8,73.4c-.5,1-1,1.5-1.6,1.5s-1.6-.9-1.6-2.2.3-1.7.9-2.3c.7-.7,1.6-1.1,2.8-1.1,1.9,0,3.2,1.2,3.2,3s-.7,2.5-1.9,3c-.4.2-.7.2-1.3.3-.1-.4-.2-.6-.5-.9.7,0,1.2-.2,1.6-.4.7-.4,1.1-1.1,1.1-2s-.3-1.4-1-1.8c-.2-.1-.5-.2-.8-.2-.2,1.3-.4,2.4-.8,3.3ZM288.6,70.5c-.7.5-1.1,1.3-1.1,2.2s.3,1.2.6,1.2.5-.3.8-1c.3-.7.6-1.8.7-2.7-.4,0-.7.2-1,.4Z"/>
    <path d="M296.7,69.1q0,.2,0,1.8c0,1.6-.2,2.5-.6,3.3-.3.6-.6,1-1.1,1.5-.3-.4-.4-.5-.8-.8.4-.3.6-.5.8-.9.6-.9.8-2,.8-4.2s0-.5,0-.7h1.1ZM298.8,69c0,.2,0,.4,0,.8v4.5c.5-.3.8-.5,1.2-.9.4-.4.6-.9.8-1.5.3.4.4.5.8.8-.3.8-.7,1.4-1.3,1.9-.5.4-.9.6-1.7,1-.2,0-.2,0-.3.1l-.5-.5c0-.2,0-.4,0-.8v-4.5s0-.2,0-.2c0-.2,0-.4,0-.5h1.1Z"/>
    <path d="M302.2,71.6c.4,0,.5,0,1.3,0h4.3c.8,0,.9,0,1.3,0v1.1c-.3,0-.4,0-1.3,0h-4.2c-.9,0-1,0-1.3,0v-1.1Z"/>
    <path d="M314,69.4c.2,0,.3,0,.5,0,0-.5.4-.9.9-.9s.9.4.9.9-.4.9-.9.9,0,0-.2,0c-.6,2.6-2.1,4.2-4.6,5.3-.2-.4-.3-.6-.7-1,2.2-.7,3.7-2.2,4.2-4.3h-3.8c-.6,0-.7,0-1,0v-1c.3,0,.5,0,1,0h3.7ZM314.9,69.4c0,.3.2.5.5.5s.5-.2.5-.5-.2-.5-.5-.5-.5.2-.5.5Z"/>
    <path d="M317,69.5c.3,0,.8.1,1.9.1.2-.5.3-.7.3-1h1q0,.2-.3.8c0,0,0,.1,0,.1q0,0,.5,0c.9,0,1.7-.1,2.1-.3v.9q-.2,0-.6,0c-.6,0-1.6.1-2.4.2-.2.5-.5.8-.7,1.1h0q0,0,.2-.1c.3-.2.7-.4,1.1-.4.6,0,1,.3,1.1.8.6-.2,1-.4,1.2-.4.4-.2.5-.2.6-.2l.4.9c-.2,0-.5,0-.9.2-.1,0-.5.2-1.2.4h0q0,.3,0,.4v.3c0,.1,0,.2,0,.3,0,.2,0,.3,0,.4h-.9c0-.1,0-.5,0-.9v-.2c-.4.2-.6.3-.8.4-.3.2-.4.4-.4.7,0,.4.4.6,1.4.6s1.8-.1,2.4-.3v1c0,0,0,0-.3,0-.6,0-1.3.1-2,.1s-1.4,0-1.8-.3c-.4-.2-.6-.6-.6-1s0-.6.4-.9c.4-.4.8-.8,1.7-1.1,0-.3-.2-.4-.5-.4-.5,0-1,.3-1.6.8-.3.3-.5.5-.7.7l-.7-.7c.2-.2.4-.4.7-.7.3-.4.8-1.1,1-1.4q0,0,0-.1s-.1,0-.1,0c-.1,0-.8,0-1,0q-.2,0-.2,0s0,0-.1,0v-.9Z"/>
    <path d="M331.1,71.7c0,.1,0,.2-.2.5-.3.8-.6,1.3-.9,1.8.5.5.8.7,1.7,1-.2.3-.3.5-.5.8-.7-.4-1.1-.7-1.7-1.2-.5.5-1,.9-1.7,1.2-.2-.3-.2-.5-.5-.8.7-.3,1.2-.6,1.7-1.1-.3-.4-.5-.7-.7-1.1-.4,1.2-.9,2.1-1.6,2.9-.2-.3-.3-.5-.6-.7,0,.6-.3.7-1,.7s-.4,0-.6,0c0-.3,0-.5-.2-.8.3,0,.5,0,.7,0s.3,0,.3-.2v-1.7h-.2c-.4.2-.6.2-.7.3l-.2-.9c.3,0,.4,0,1-.2v-1.5h-.3c-.2,0-.3,0-.6,0v-.9c.2,0,.4,0,.6,0h.3v-.7c0-.4,0-.6,0-.8h.9c0,.2,0,.4,0,.8v.7h.3c.2,0,.3,0,.5,0v.8c-.2,0-.3,0-.5,0h-.2v1.2c.4-.1.5-.2.9-.3v.8c-.5.2-.7.2-.9.3v2.2c1-1.1,1.6-2.6,1.8-4.5-.4,0-.6,0-.9,0v-.9c.2,0,.5,0,.9,0h0c0-.2,0-.3,0-.5,0-.3,0-.4,0-.6h1c0,.2,0,.3,0,.8,0,.1,0,.2,0,.3h1.9c.4,0,.6,0,.9,0v.9c-.3,0-.5,0-.9,0h-2c0,.3,0,.5,0,.8h1.5c.3,0,.4,0,.6,0l.4.4ZM328.6,72.1c.2.5.4,1,.8,1.4.3-.4.4-.7.7-1.4h-1.4Z"/>
    <path d="M334.7,72.8c-.5,1-.9,2-.9,2.6h-.9c0,0,0-.1,0-.3-.2-.9-.3-1.7-.3-2.6s0-1.4.3-3c0-.3,0-.4,0-.6h1.1c0,.4-.1.6-.2,1.1-.1.7-.2.9-.2,1.6,0,.5,0,.8,0,.9s0,.1,0,.2c0,0,0,.2,0,.6h0c0,.3,0,.3,0,.4.1-.4.3-1,.5-1.3l.7.4ZM334.5,70.5c.4,0,.8.1,1.4.1s.4,0,.8,0c0-1.4,0-1.5-.1-1.8h1c0,.1,0,.2,0,.3s0,.2,0,.5c0,0,0,.4,0,.9.6,0,.9-.2,1.2-.3v1c0,0-.1,0-.4,0-.4,0-.4,0-.8.1,0,.2,0,.2,0,.4,0,.8,0,1.5-.2,1.9-.2.7-.5,1.2-.9,1.6-.2.2-.5.4-.9.6-.3-.4-.4-.5-.8-.8.5-.2.9-.5,1.2-.9.4-.5.6-1.1.6-2.2s0-.2,0-.5c-.3,0-.7,0-1.1,0s-.5,0-.7,0c-.2,0-.3,0-.4,0h-.1v-.9Z"/>
    <path d="M339.8,69.9c.3,0,.6,0,1.1,0s.2,0,.4,0c0-.4.2-1,.2-1.2s0,0,0-.1h1.1q0,.3-.2.9c0,.2,0,.3,0,.5.6,0,1-.1,1.4-.2v.9s0,0-.2,0c-.4,0-1,.2-1.3.2,0,.5-.3,1.3-.5,2.1-.2.8-.4,1.2-.9,2.6l-1-.4c.6-1,1.2-2.9,1.4-4.3,0,0,0,0-.1,0h-.5s-.1,0-.3,0c-.1,0-.3,0-.3,0s0,0-.2,0v-.9ZM343.8,73c-.3.4-.4.6-.4.9,0,.4.4.6,1.2.6s1.4-.1,1.8-.3v1c0,0-.1,0-.3,0-.7,0-1,.1-1.5.1-.7,0-1.2-.1-1.6-.3-.3-.2-.6-.6-.6-1s.2-.8.6-1.4l.8.3ZM346.2,72c-.4,0-.6,0-1,0-.8,0-1.3,0-2.1.2v-.9c1.1-.2,1.4-.3,2.3-.3s.3,0,.8,0v1Z"/>
    <path d="M348,72.5c-.2.2-.3.4-.6.6-.1-.4-.2-.6-.4-.8.5-.4,1-.8,1.3-1.3.2-.3.4-.6.5-.8l.7.5c0,0-.1.2-.2.3,0,0,0,0,0,.1-.1.2-.3.5-.4.6v3.2c0,.4,0,.7,0,.9h-.9c0-.2,0-.5,0-.9v-2.5ZM349.5,68.9c-.3.4-.3.4-.5.6-.4.4-.9.8-1.4,1.2-.1-.3-.2-.5-.4-.7.8-.4,1.3-.9,1.6-1.6l.7.5ZM352.1,68.8q0,0-.2.3c-.2.3-.6.7-.8,1,.2.2.3.3.5.4.7-.7,1-1.2,1.2-1.5l.8.4c0,0-.1.1-.3.3-.4.5-1,1.1-1.6,1.6q.6,0,1.5,0c-.1-.2-.2-.3-.4-.6l.7-.4c.4.6.8,1,1.2,1.8l-.7.5c-.2-.3-.2-.4-.4-.6q-1.1.1-1.9.2c0,.2-.1.3-.2.4h1.2c.3,0,.5,0,.6,0l.5.5c0,0,0,0-.1.2-.3.4-.7.9-1.2,1.2.6.3,1.3.5,2.1.6-.2.3-.3.5-.4.9-1-.2-1.8-.5-2.5-.9-.7.5-1.5.8-2.4.9-.2-.4-.2-.5-.4-.8.8-.1,1.5-.3,2.1-.7-.3-.3-.5-.5-.7-.7-.3.3-.5.4-.9.6-.2-.4-.3-.4-.5-.7.8-.4,1.5-.9,1.8-1.5q-1.2,0-1.4.1v-.9s.2,0,.4,0h.3q.1,0,.5,0l.4-.4c-.5-.4-.7-.7-1.5-1.2l.6-.6c.2.2.3.2.4.3.4-.4.7-.9.8-1.2l.8.4ZM351,73.3c.2.3.4.5.8.7.4-.3.5-.4.8-.7h-1.5Z"/>
    <path d="M355.8,73.4c.7.6,1.2,1,1.8,1.8l-.7.7c-.6-.8-1-1.3-1.7-1.8l.7-.6Z"/>
    <path d="M360.2,69.6c-.4,0-.8,0-1,0v-.9c.3,0,.6,0,1,0h5.4c.4,0,.7,0,1,0v.9c-.3,0-.6,0-1,0h-2.3v.7h2.1c.3,0,.6,0,.8,0,0,.2,0,.4,0,.8v3.9c0,.4,0,.6-.2.7-.1.1-.4.1-.9.1s-.2,0-.6,0c0-.3,0-.6-.2-.8.3,0,.6,0,.9,0s.2,0,.2-.2v-3.8h-2v2.6h.6v-1.5c0-.2,0-.4,0-.6h.8c0,.2,0,.3,0,.6v2c0,.3,0,.4,0,.6h-.8v-.3h-2.1v.7h-.8c0-.2,0-.4,0-.7v-2.2c0-.2,0-.4,0-.6h.8c0,.2,0,.3,0,.6v1.5h.6v-2.6h-2v3.9c0,.3,0,.7,0,.9h-1c0-.3,0-.7,0-1v-3.8c0-.3,0-.5,0-.8.2,0,.4,0,.7,0h2.2v-.7h-2.3Z"/>
    <path d="M369.7,69.1q0,.2,0,1.8c0,1.6-.2,2.5-.6,3.3-.3.6-.6,1-1.1,1.5-.3-.4-.4-.5-.8-.8.4-.3.6-.5.8-.9.6-.9.8-2,.8-4.2s0-.5,0-.7h1.1ZM371.8,69c0,.2,0,.4,0,.8v4.5c.5-.3.8-.5,1.2-.9.4-.4.6-.9.8-1.5.3.4.4.5.8.8-.3.8-.7,1.4-1.3,1.9-.5.4-.9.6-1.7,1-.2,0-.2,0-.3.1l-.5-.5c0-.2,0-.4,0-.8v-4.5s0-.2,0-.2c0-.2,0-.4,0-.5h1.1Z"/>
    <path d="M375.2,71.6c.4,0,.5,0,1.3,0h4.3c.8,0,.9,0,1.3,0v1.1c-.3,0-.4,0-1.3,0h-4.2c-.9,0-1,0-1.3,0v-1.1Z"/>
    <path d="M387,69.4c.2,0,.3,0,.5,0,0-.5.4-.9.9-.9s.9.4.9.9-.4.9-.9.9,0,0-.2,0c-.6,2.6-2.1,4.2-4.6,5.3-.2-.4-.3-.6-.7-1,2.2-.7,3.7-2.2,4.2-4.3h-3.8c-.6,0-.7,0-1,0v-1c.3,0,.5,0,1,0h3.7ZM387.9,69.4c0,.3.2.5.5.5s.5-.2.5-.5-.2-.5-.5-.5-.5.2-.5.5Z"/>
    <path d="M393,73.4c-.5,1-1,1.5-1.6,1.5s-1.6-.9-1.6-2.2.3-1.7.9-2.3c.7-.7,1.6-1.1,2.8-1.1,1.9,0,3.2,1.2,3.2,3s-.7,2.5-1.9,3c-.4.2-.7.2-1.3.3-.1-.4-.2-.6-.5-.9.7,0,1.2-.2,1.6-.4.7-.4,1.1-1.1,1.1-2s-.3-1.4-1-1.8c-.2-.1-.5-.2-.8-.2-.2,1.3-.4,2.4-.8,3.3ZM391.8,70.5c-.7.5-1.1,1.3-1.1,2.2s.3,1.2.6,1.2.5-.3.8-1c.3-.7.6-1.8.7-2.7-.4,0-.7.2-1,.4Z"/>
    <path d="M399.2,71.4c.4.3.6.5.9.8.2-.6.4-1,.5-1.9h-1.2c-.4.9-.8,1.7-1.5,2.5-.2-.4-.2-.5-.5-.8.6-.7,1.1-1.5,1.5-2.5.1-.3.2-.8.2-1l.9.2c0,.2,0,.3-.1.5,0,.2,0,.3-.1.4h1.2c.3,0,.5,0,.6,0,0,.2,0,.2,0,.5.2.5.4.7.8,1.2v-1.8c0-.4,0-.6,0-.9h1c0,.3,0,.5,0,.9v2.6c.2.2.4.3.8.5.6.3.7.4,1.1.5-.2.2-.3.5-.5.9-.7-.3-.9-.5-1.4-.8v1.7c0,.5,0,.7,0,1.1h-1c0-.3,0-.6,0-1.1v-2.5c-.5-.5-.7-.7-1-1.2-.2,1-.6,1.9-1.1,2.7-.5.7-1.2,1.4-2,2-.2-.3-.4-.5-.6-.7.4-.2.6-.4.9-.7.6-.5.9-.9,1.2-1.5-.3-.4-.6-.6-1-.9l.5-.6Z"/>
    <path d="M407.4,69.5c0-.2,0-.5,0-.6,0,0,0,.3-.1.4-.1.5-.2.7-.4,1.2v4.5c0,.4,0,.8,0,1h-.9c0-.3,0-.6,0-1v-2.2c0-.4,0-.6,0-1-.2.3-.3.5-.5.8-.1-.4-.2-.6-.4-.9.5-.6.9-1.3,1.2-2.1.1-.4.2-.7.3-1.1l.8.3c.2,0,.3,0,.6,0h1.4c.2,0,.4,0,.6,0,0,.2,0,.4,0,.7v3.8c0,.3,0,.5,0,.7-.3,0-.3,0-.5,0h-1.5c-.2,0-.4,0-.5,0,0-.1,0-.2,0-.2h0c0-.1,0-.5,0-.5v-3.8ZM408.5,74.4c-.3.7-.6,1-1.1,1.5-.3-.3-.4-.4-.6-.6.5-.4.8-.7,1-1.3l.7.4ZM408.1,70.3h1v-.8h-1v.8ZM408.1,71.7h1v-.8h-1v.8ZM408.1,73.2h1v-.8h-1v.8ZM409.4,74c.3.5.5.8,1,1.2-.2.2-.4.3-.7.6-.4-.5-.7-.8-1-1.4l.7-.4ZM410.3,74c0-.2,0-.3,0-.7v-3.4c0-.4,0-.5,0-.8h.8c0,.2,0,.4,0,.8v3.4c0,.4,0,.5,0,.7h-.8ZM412.5,68.7c0,.2,0,.5,0,.9v5.4c0,.7-.2.8-1.3.8s-.2,0-.4,0c0-.4,0-.6-.2-.8.3,0,.5,0,.8,0s.3,0,.3-.2v-5.2c0-.4,0-.7,0-.9h.9Z"/>
    <path d="M413.3,69.7c.2,0,.3,0,.3,0q.1,0,1.3,0c.6,0,2-.1,4.1-.2.7,0,.7,0,.8,0v1s0,0-.1,0c-.5,0-1.1.2-1.6.4-1,.5-1.6,1.3-1.6,2.1s.4,1.1,1.1,1.3c.4.1.9.2,1.2.2s0,0,.2,0v1.1c-.2,0-.3,0-.4,0-.9-.1-1.4-.3-1.9-.5-.7-.4-1.1-1.1-1.1-1.9s.3-1.4.8-1.9c.3-.3.6-.5,1.1-.8-.6,0-1.1.1-2.7.3-.7,0-1.1.1-1.3.2v-1ZM418.8,71.2c.4.4.6.7.8,1.2l-.6.3c-.3-.5-.5-.8-.8-1.2l.6-.3ZM420.1,72.2c-.2-.4-.5-.8-.8-1.2l.5-.3c.4.4.6.7.8,1.1l-.6.3Z"/>
    <path d="M420.8,76c.6-.7.8-1.1,1-1.6.3-.7.4-1.4.4-2.2s-.1-1.5-.4-2.1c-.2-.5-.5-.9-1-1.6h1.1c.4.6.6,1,.9,1.6.3.7.4,1.4.4,2.1s-.1,1.5-.4,2.2c-.2.6-.4.9-.9,1.6h-1.1Z"/>
  </g>
  <g>
    <path d="M253.1,169.4c0-.3,0-.6,0-1v-4.4h-.4c-.3,0-.5,0-.8,0v-1c.2,0,.4,0,.8,0h.7c.4,0,.5,0,.8,0,0,.5,0,.8,0,1.3v4c0,.4,0,.7,0,1h-1.2Z"/>
    <path d="M257.6,168.9c-.2-.2-.4-.5-.5-.8-.2-.6-.3-1.2-.3-1.8s.2-1.7.5-2.2c.4-.7,1.2-1.1,2-1.1s1.3.2,1.7.6c.2.2.4.5.5.8.2.6.3,1.2.3,1.9,0,1-.2,1.8-.6,2.4-.4.6-1.1.9-1.9.9s-1.3-.2-1.7-.6ZM260.1,168.2c.4-.4.6-1.1.6-2.1s-.2-1.7-.6-2c-.2-.2-.5-.3-.9-.3s-.7.1-.9.4c-.4.4-.5,1.1-.5,1.9s.2,1.5.4,1.9c.2.4.6.5,1,.5s.7-.1.9-.3Z"/>
    <path d="M268.6,169.9v-.4h-5v.4h-.9c0-.3,0-.6,0-1v-5.1c0-.4,0-.7,0-1,.3,0,.5,0,.9,0h5c.4,0,.6,0,1,0,0,.3,0,.6,0,1v5.1c0,.4,0,.8,0,1h-.9ZM263.7,168.7h5v-5h-5v5ZM267,164.6c.4,0,.6,0,.8,0,0,.2,0,.4,0,.6v1.9c0,.3,0,.4,0,.6-.2,0-.4,0-.8,0h-1.7c-.4,0-.5,0-.8,0,0-.2,0-.4,0-.6v-1.9c0-.2,0-.4,0-.6.2,0,.4,0,.8,0h1.7ZM265.4,167h1.5v-1.6h-1.5v1.6Z"/>
    <path d="M272.2,165.4c-.4,0-.6,0-.8,0v-.4h-.7c0-.2,0-.3,0-.6v-.6c0-.2,0-.4,0-.6.3,0,.5,0,.9,0h2.1v-.2c0-.2,0-.3,0-.5h1c0,.2,0,.3,0,.5v.2h2.2c.4,0,.6,0,.9,0,0,.2,0,.4,0,.6v.6c0,.2,0,.4,0,.6h-.7v.4c-.2,0-.4,0-.8,0h-1.6q0,.3,0,.4h1.5c.4,0,.5,0,.7,0v.8c-.2,0-.3,0-.7,0h-1.5c0,.2,0,.3,0,.4h2.5c.4,0,.6,0,.8,0v.8c-.3,0-.5,0-.9,0h-2c.3.3.4.5.7.7.4.2.8.4,1.4.5.2,0,.4.1.9.2-.2.3-.3.5-.4.9-.7-.2-1.1-.3-1.5-.5-.9-.4-1.4-.8-1.9-1.5-.3.5-.6.9-1.2,1.3-.6.4-1.1.5-2,.7-.1-.4-.2-.5-.4-.8.8-.1,1.3-.2,1.7-.5.5-.2.8-.5,1-.9h-1.8c-.3,0-.6,0-.9,0v-.8c.2,0,.4,0,.8,0h2.1c0-.2,0-.2,0-.4h-1.4c-.4,0-.5,0-.7,0v-.8c.2,0,.3,0,.7,0h1.4q0-.2,0-.4h-1.5ZM273.7,164.7c0-.3,0-.4,0-.5h.9c0,0,0,.2,0,.5h1.6c.3,0,.4,0,.6,0v-.7h-5.2v.7c.1,0,.3,0,.6,0h1.5Z"/>
    <path d="M279.6,167.5c0-.3,0-.4,0-.9-.2.2-.4.5-.7.7-.1-.4-.2-.6-.4-.9.8-.5,1.7-1.4,2-2.1l.8.5c0,0-.2.2-.3.4-.2.3-.3.4-.5.6v3.2c0,.4,0,.7,0,1h-1c0-.2,0-.6,0-1v-1.4ZM281.1,163q0,0-.2.3c-.5.6-1.1,1.1-1.8,1.6-.2-.3-.3-.5-.5-.8.6-.3,1-.7,1.4-1.1.2-.2.3-.4.4-.6l.8.5ZM282.1,165.8c-.4,0-.7,0-1,0v-.9c.2,0,.6,0,1,0h2.7c.4,0,.8,0,1,0v.9c-.3,0-.6,0-1,0h-.3v3.2c0,.7-.2.9-1.2.9s-.5,0-.9,0c0-.4,0-.6-.2-.9.4,0,.8,0,1.1,0s.4,0,.4-.2v-3h-1.5ZM281.5,162.9c.2,0,.5,0,.9,0h2.2c.4,0,.7,0,.9,0v.9c-.3,0-.6,0-.9,0h-2.2c-.3,0-.7,0-.9,0v-.9Z"/>
    <path d="M288.8,170c-.4-.6-.6-1-.9-1.6-.3-.7-.4-1.4-.4-2.2s.1-1.4.4-2.1c.2-.6.4-.9.9-1.6h1.1c-.6.7-.8,1.1-1,1.6-.3.7-.4,1.3-.4,2.1s.1,1.5.4,2.2c.2.5.4.9,1,1.6h-1.1Z"/>
    <path d="M293.7,169.4c-.1-.3-.2-.4-.4-.7l-.7-1-.7,1.1c-.1.2-.2.3-.3.6h-1.3c.2-.2.4-.5.6-.7l1.2-1.7-1.1-1.5c0-.1-.2-.2-.5-.7h1.2c0,.2.2.4.3.6l.6.9.6-.9c.1-.2.3-.4.3-.6h1.2c-.3.3-.4.5-.5.7l-1.1,1.5,1.2,1.6c.1.2.4.5.6.8h-1.3Z"/>
    <path d="M301.4,167.4c-.5,1-1,1.5-1.6,1.5s-1.6-.9-1.6-2.2.3-1.7.9-2.3c.7-.7,1.6-1.1,2.8-1.1,1.9,0,3.2,1.2,3.2,3s-.7,2.5-1.9,3c-.4.2-.7.2-1.3.3-.1-.4-.2-.6-.5-.9.7,0,1.2-.2,1.6-.4.7-.4,1.1-1.1,1.1-2s-.3-1.4-1-1.8c-.2-.1-.5-.2-.8-.2-.2,1.3-.4,2.4-.8,3.3ZM300.2,164.6c-.7.5-1.1,1.3-1.1,2.2s.3,1.2.6,1.2.5-.3.8-1c.3-.7.6-1.8.7-2.7-.4,0-.7.2-1,.4Z"/>
    <path d="M308.2,163.1q0,.2,0,1.8c0,1.6-.2,2.5-.6,3.3-.3.6-.6,1-1.1,1.5-.3-.4-.4-.5-.8-.8.4-.3.6-.5.8-.9.6-.9.8-2,.8-4.2s0-.5,0-.7h1.1ZM310.4,163c0,.2,0,.4,0,.8v4.5c.5-.3.8-.5,1.2-.9.4-.4.6-.9.8-1.5.3.4.4.5.8.8-.3.8-.7,1.4-1.3,1.9-.5.4-.9.6-1.7,1-.2,0-.2,0-.3.1l-.5-.5c0-.2,0-.4,0-.8v-4.5s0-.2,0-.2c0-.2,0-.4,0-.5h1.1Z"/>
    <path d="M313.7,165.7c.4,0,.5,0,1.3,0h4.3c.8,0,.9,0,1.3,0v1.1c-.3,0-.4,0-1.3,0h-4.2c-.9,0-1,0-1.3,0v-1.1Z"/>
    <path d="M325.6,163.5c.2,0,.3,0,.5,0,0-.5.4-.9.9-.9s.9.4.9.9-.4.9-.9.9,0,0-.2,0c-.6,2.6-2.1,4.2-4.6,5.3-.2-.4-.3-.6-.7-1,2.2-.7,3.7-2.2,4.2-4.3h-3.8c-.6,0-.7,0-1,0v-1c.3,0,.5,0,1,0h3.7ZM326.4,163.4c0,.3.2.5.5.5s.5-.2.5-.5-.2-.5-.5-.5-.5.2-.5.5Z"/>
    <path d="M328.5,163.5c.3,0,.8.1,1.9.1.2-.5.3-.7.3-1h1q0,.2-.3.8c0,0,0,.1,0,.1q0,0,.5,0c.9,0,1.7-.1,2.1-.3v.9q-.2,0-.6,0c-.6,0-1.6.1-2.4.2-.2.5-.5.8-.7,1.1h0q0,0,.2-.1c.3-.2.7-.4,1.1-.4.6,0,1,.3,1.1.8.6-.2,1-.4,1.2-.4.4-.2.5-.2.6-.2l.4.9c-.2,0-.5,0-.9.2-.1,0-.5.2-1.2.4h0q0,.3,0,.4v.3c0,.1,0,.2,0,.3,0,.2,0,.3,0,.4h-.9c0-.1,0-.5,0-.9v-.2c-.4.2-.6.3-.8.4-.3.2-.4.4-.4.7,0,.4.4.6,1.4.6s1.8-.1,2.4-.3v1c0,0,0,0-.3,0-.6,0-1.3.1-2,.1s-1.4,0-1.8-.3c-.4-.2-.6-.6-.6-1s0-.6.4-.9c.4-.4.8-.8,1.7-1.1,0-.3-.2-.4-.5-.4-.5,0-1,.3-1.6.8-.3.3-.5.5-.7.7l-.7-.7c.2-.2.4-.4.7-.7.3-.4.8-1.1,1-1.4q0,0,0-.1s-.1,0-.1,0c-.1,0-.8,0-1,0q-.2,0-.2,0s0,0-.1,0v-.9Z"/>
    <path d="M342.6,165.8c0,.1,0,.2-.2.5-.3.8-.6,1.3-.9,1.8.5.5.8.7,1.7,1-.2.3-.3.5-.5.8-.7-.4-1.1-.7-1.7-1.2-.5.5-1,.9-1.7,1.2-.2-.3-.2-.5-.5-.8.7-.3,1.2-.6,1.7-1.1-.3-.4-.5-.7-.7-1.1-.4,1.2-.9,2.1-1.6,2.9-.2-.3-.3-.5-.6-.7,0,.6-.3.7-1,.7s-.4,0-.6,0c0-.3,0-.5-.2-.8.3,0,.5,0,.7,0s.3,0,.3-.2v-1.7h-.2c-.4.2-.6.2-.7.3l-.2-.9c.3,0,.4,0,1-.2v-1.5h-.3c-.2,0-.3,0-.6,0v-.9c.2,0,.4,0,.6,0h.3v-.7c0-.4,0-.6,0-.8h.9c0,.2,0,.4,0,.8v.7h.3c.2,0,.3,0,.5,0v.8c-.2,0-.3,0-.5,0h-.2v1.2c.4-.1.5-.2.9-.3v.8c-.5.2-.7.2-.9.3v2.2c1-1.1,1.6-2.6,1.8-4.5-.4,0-.6,0-.9,0v-.9c.2,0,.5,0,.9,0h0c0-.2,0-.3,0-.5,0-.3,0-.4,0-.6h1c0,.2,0,.3,0,.8,0,.1,0,.2,0,.3h1.9c.4,0,.6,0,.9,0v.9c-.3,0-.5,0-.9,0h-2c0,.3,0,.5,0,.8h1.5c.3,0,.4,0,.6,0l.4.4ZM340.2,166.1c.2.5.4,1,.8,1.4.3-.4.4-.7.7-1.4h-1.4Z"/>
    <path d="M346.3,166.8c-.5,1-.9,2-.9,2.6h-.9c0,0,0-.1,0-.3-.2-.9-.3-1.7-.3-2.6s0-1.4.3-3c0-.3,0-.4,0-.6h1.1c0,.4-.1.6-.2,1.1-.1.7-.2.9-.2,1.6,0,.5,0,.8,0,.9s0,.1,0,.2c0,0,0,.2,0,.6h0c0,.3,0,.3,0,.4.1-.4.3-1,.5-1.3l.7.4ZM346.1,164.5c.4,0,.8.1,1.4.1s.4,0,.8,0c0-1.4,0-1.5-.1-1.8h1c0,.1,0,.2,0,.3s0,.2,0,.5c0,0,0,.4,0,.9.6,0,.9-.2,1.2-.3v1c0,0-.1,0-.4,0-.4,0-.4,0-.8.1,0,.2,0,.2,0,.4,0,.8,0,1.5-.2,1.9-.2.7-.5,1.2-.9,1.6-.2.2-.5.4-.9.6-.3-.4-.4-.5-.8-.8.5-.2.9-.5,1.2-.9.4-.5.6-1.1.6-2.2s0-.2,0-.5c-.3,0-.7,0-1.1,0s-.5,0-.7,0c-.2,0-.3,0-.4,0h-.1v-.9Z"/>
    <path d="M351.4,164c.3,0,.6,0,1.1,0s.2,0,.4,0c0-.4.2-1,.2-1.2s0,0,0-.1h1.1q0,.3-.2.9c0,.2,0,.3,0,.5.6,0,1-.1,1.4-.2v.9s0,0-.2,0c-.4,0-1,.2-1.3.2,0,.5-.3,1.3-.5,2.1-.2.8-.4,1.2-.9,2.6l-1-.4c.6-1,1.2-2.9,1.4-4.3,0,0,0,0-.1,0h-.5s-.1,0-.3,0c-.1,0-.3,0-.3,0s0,0-.2,0v-.9ZM355.4,167.1c-.3.4-.4.6-.4.9,0,.4.4.6,1.2.6s1.4-.1,1.8-.3v1c0,0-.1,0-.3,0-.7,0-1,.1-1.5.1-.7,0-1.2-.1-1.6-.3-.3-.2-.6-.6-.6-1s.2-.8.6-1.4l.8.3ZM357.7,166c-.4,0-.6,0-1,0-.8,0-1.3,0-2.1.2v-.9c1.1-.2,1.4-.3,2.3-.3s.3,0,.8,0v1Z"/>
    <path d="M359.6,166.6c-.2.2-.3.4-.6.6-.1-.4-.2-.6-.4-.8.5-.4,1-.8,1.3-1.3.2-.3.4-.6.5-.8l.7.5c0,0-.1.2-.2.3,0,0,0,0,0,.1-.1.2-.3.5-.4.6v3.2c0,.4,0,.7,0,.9h-.9c0-.2,0-.5,0-.9v-2.5ZM361.1,163c-.3.4-.3.4-.5.6-.4.4-.9.8-1.4,1.2-.1-.3-.2-.5-.4-.7.8-.4,1.3-.9,1.6-1.6l.7.5ZM363.6,162.9q0,0-.2.3c-.2.3-.6.7-.8,1,.2.2.3.3.5.4.7-.7,1-1.2,1.2-1.5l.8.4c0,0-.1.1-.3.3-.4.5-1,1.1-1.6,1.6q.6,0,1.5,0c-.1-.2-.2-.3-.4-.6l.7-.4c.4.6.8,1,1.2,1.8l-.7.5c-.2-.3-.2-.4-.4-.6q-1.1.1-1.9.2c0,.2-.1.3-.2.4h1.2c.3,0,.5,0,.6,0l.5.5c0,0,0,0-.1.2-.3.4-.7.9-1.2,1.2.6.3,1.3.5,2.1.6-.2.3-.3.5-.4.9-1-.2-1.8-.5-2.5-.9-.7.5-1.5.8-2.4.9-.2-.4-.2-.5-.4-.8.8-.1,1.5-.3,2.1-.7-.3-.3-.5-.5-.7-.7-.3.3-.5.4-.9.6-.2-.4-.3-.4-.5-.7.8-.4,1.5-.9,1.8-1.5q-1.2,0-1.4.1v-.9s.2,0,.4,0h.3q.1,0,.5,0l.4-.4c-.5-.4-.7-.7-1.5-1.2l.6-.6c.2.2.3.2.4.3.4-.4.7-.9.8-1.2l.8.4ZM362.6,167.3c.2.3.4.5.8.7.4-.3.5-.4.8-.7h-1.5Z"/>
    <path d="M367.4,167.4c.7.6,1.2,1,1.8,1.8l-.7.7c-.6-.8-1-1.3-1.7-1.8l.7-.6Z"/>
    <path d="M371,165.8c-.4-.8-.4-.8-.5-1h1.2c0,.2.2.6.3.9l1,2.3.9-2.3c.2-.5.3-.7.3-.9h1.2c0,.1-.2.4-.4,1l-1.8,4.3c-.3.6-.7.9-1.5.9s-.5,0-.8,0l.2-.9c.2,0,.4.1.6.1.3,0,.5-.2.6-.4l.3-.6-1.5-3.3Z"/>
    <path d="M379.1,167.4c-.5,1-1,1.5-1.6,1.5s-1.6-.9-1.6-2.2.3-1.7.9-2.3c.7-.7,1.6-1.1,2.8-1.1,1.9,0,3.2,1.2,3.2,3s-.7,2.5-1.9,3c-.4.2-.7.2-1.3.3-.1-.4-.2-.6-.5-.9.7,0,1.2-.2,1.6-.4.7-.4,1.1-1.1,1.1-2s-.3-1.4-1-1.8c-.2-.1-.5-.2-.8-.2-.2,1.3-.4,2.4-.8,3.3ZM377.9,164.6c-.7.5-1.1,1.3-1.1,2.2s.3,1.2.6,1.2.5-.3.8-1c.3-.7.6-1.8.7-2.7-.4,0-.7.2-1,.4Z"/>
    <path d="M386,163.1q0,.2,0,1.8c0,1.6-.2,2.5-.6,3.3-.3.6-.6,1-1.1,1.5-.3-.4-.4-.5-.8-.8.4-.3.6-.5.8-.9.6-.9.8-2,.8-4.2s0-.5,0-.7h1.1ZM388.1,163c0,.2,0,.4,0,.8v4.5c.5-.3.8-.5,1.2-.9.4-.4.6-.9.8-1.5.3.4.4.5.8.8-.3.8-.7,1.4-1.3,1.9-.5.4-.9.6-1.7,1-.2,0-.2,0-.3.1l-.5-.5c0-.2,0-.4,0-.8v-4.5s0-.2,0-.2c0-.2,0-.4,0-.5h1.1Z"/>
    <path d="M391.4,165.7c.4,0,.5,0,1.3,0h4.3c.8,0,.9,0,1.3,0v1.1c-.3,0-.4,0-1.3,0h-4.2c-.9,0-1,0-1.3,0v-1.1Z"/>
    <path d="M403.3,163.5c.2,0,.3,0,.5,0,0-.5.4-.9.9-.9s.9.4.9.9-.4.9-.9.9,0,0-.2,0c-.6,2.6-2.1,4.2-4.6,5.3-.2-.4-.3-.6-.7-1,2.2-.7,3.7-2.2,4.2-4.3h-3.8c-.6,0-.7,0-1,0v-1c.3,0,.5,0,1,0h3.7ZM404.2,163.4c0,.3.2.5.5.5s.5-.2.5-.5-.2-.5-.5-.5-.5.2-.5.5Z"/>
    <path d="M412,167.2c-.2.2-.4.4-.5.8-.8-.6-1.5-1.3-1.9-2-.1.3-.2.5-.4.8-.4.6-.8,1-1.5,1.4-.1-.2-.3-.4-.5-.7v1.6c0,.5,0,.7,0,1h-1c0-.3,0-.6,0-1v-4.6c0-.3,0-.6,0-.8.3,0,.5,0,.9,0h2c0-.2,0-.3,0-.4,0-.3,0-.5,0-.7h1c0,.1,0,.2,0,.4q0,.1,0,.4t0,.3h2c.4,0,.6,0,.9,0,0,.2,0,.4,0,.8v4.6c0,.3,0,.5-.1.6-.2.2-.5.3-1.2.3s-.5,0-.8,0c0-.4-.1-.6-.2-.9.4,0,.7,0,1,0s.4,0,.4-.3v-1.5ZM407.2,167.3c.6-.4,1-.7,1.3-1.2.3-.4.5-1,.6-1.7h-1.9v2.9ZM409.9,164.4c0,.2,0,.2,0,.4.2.5.5,1,.9,1.3.3.4.7.6,1.3.9v-2.6h-2.1Z"/>
    <path d="M413.9,163.7c.2,0,.3,0,.3,0q.1,0,1.3,0c.6,0,2-.1,4.1-.2.7,0,.7,0,.8,0v1s0,0-.1,0c-.5,0-1.1.2-1.6.4-1,.5-1.6,1.3-1.6,2.1s.4,1.1,1.1,1.3c.4.1.9.2,1.2.2s0,0,.2,0v1.1c-.2,0-.3,0-.4,0-.9-.1-1.4-.3-1.9-.5-.7-.4-1.1-1.1-1.1-1.9s.3-1.4.8-1.9c.3-.3.6-.5,1.1-.8-.6,0-1.1.1-2.7.3-.7,0-1.1.1-1.3.2v-1ZM419.4,165.2c.4.4.6.7.8,1.2l-.6.3c-.3-.5-.5-.8-.8-1.2l.6-.3ZM420.6,166.2c-.2-.4-.5-.8-.8-1.2l.5-.3c.4.4.6.7.8,1.1l-.6.3Z"/>
    <path d="M421.3,170c.6-.7.8-1.1,1-1.6.3-.7.4-1.4.4-2.2s-.1-1.5-.4-2.1c-.2-.5-.5-.9-1-1.6h1.1c.4.6.6,1,.9,1.6.3.7.4,1.4.4,2.1s-.1,1.5-.4,2.2c-.2.6-.4.9-.9,1.6h-1.1Z"/>
  </g>
  <g>
    <path d="M253.1,262.7c0-.3,0-.6,0-1v-4.4h-.4c-.3,0-.5,0-.8,0v-1c.2,0,.4,0,.8,0h.7c.4,0,.5,0,.8,0,0,.5,0,.8,0,1.3v4c0,.4,0,.7,0,1h-1.2Z"/>
    <path d="M257.6,262.2c-.2-.2-.4-.5-.5-.8-.2-.6-.3-1.2-.3-1.8s.2-1.7.5-2.2c.4-.7,1.2-1.1,2-1.1s1.3.2,1.7.6c.2.2.4.5.5.8.2.6.3,1.2.3,1.9,0,1-.2,1.8-.6,2.4-.4.6-1.1.9-1.9.9s-1.3-.2-1.7-.6ZM260.1,261.5c.4-.4.6-1.1.6-2.1s-.2-1.7-.6-2c-.2-.2-.5-.3-.9-.3s-.7.1-.9.4c-.4.4-.5,1.1-.5,1.9s.2,1.5.4,1.9c.2.4.6.5,1,.5s.7-.1.9-.3Z"/>
    <path d="M263.3,262.2c-.2-.2-.4-.5-.5-.8-.2-.6-.3-1.2-.3-1.8s.2-1.7.5-2.2c.4-.7,1.2-1.1,2-1.1s1.3.2,1.7.6c.2.2.4.5.5.8.2.6.3,1.2.3,1.9,0,1-.2,1.8-.6,2.4-.4.6-1.1.9-1.9.9s-1.3-.2-1.7-.6ZM265.8,261.5c.4-.4.6-1.1.6-2.1s-.2-1.7-.6-2c-.2-.2-.5-.3-.9-.3s-.7.1-.9.4c-.4.4-.5,1.1-.5,1.9s.2,1.5.4,1.9c.2.4.6.5,1,.5s.7-.1.9-.3Z"/>
    <path d="M274.3,263.2v-.4h-5v.4h-.9c0-.3,0-.6,0-1v-5.1c0-.4,0-.7,0-1,.3,0,.5,0,.9,0h5c.4,0,.6,0,1,0,0,.3,0,.6,0,1v5.1c0,.4,0,.8,0,1h-.9ZM269.4,262h5v-5h-5v5ZM272.7,257.9c.4,0,.6,0,.8,0,0,.2,0,.4,0,.6v1.9c0,.3,0,.4,0,.6-.2,0-.4,0-.8,0h-1.7c-.4,0-.5,0-.8,0,0-.2,0-.4,0-.6v-1.9c0-.2,0-.4,0-.6.2,0,.4,0,.8,0h1.7ZM271.1,260.3h1.5v-1.6h-1.5v1.6Z"/>
    <path d="M277.9,258.7c-.4,0-.6,0-.8,0v-.4h-.7c0-.2,0-.3,0-.6v-.6c0-.2,0-.4,0-.6.3,0,.5,0,.9,0h2.1v-.2c0-.2,0-.3,0-.5h1c0,.2,0,.3,0,.5v.2h2.2c.4,0,.6,0,.9,0,0,.2,0,.4,0,.6v.6c0,.2,0,.4,0,.6h-.7v.4c-.2,0-.4,0-.8,0h-1.6q0,.3,0,.4h1.5c.4,0,.5,0,.7,0v.8c-.2,0-.3,0-.7,0h-1.5c0,.2,0,.3,0,.4h2.5c.4,0,.6,0,.8,0v.8c-.3,0-.5,0-.9,0h-2c.3.3.4.5.7.7.4.2.8.4,1.4.5.2,0,.4.1.9.2-.2.3-.3.5-.4.9-.7-.2-1.1-.3-1.5-.5-.9-.4-1.4-.8-1.9-1.5-.3.5-.6.9-1.2,1.3-.6.4-1.1.5-2,.7-.1-.4-.2-.5-.4-.8.8-.1,1.3-.2,1.7-.5.5-.2.8-.5,1-.9h-1.8c-.3,0-.6,0-.9,0v-.8c.2,0,.4,0,.8,0h2.1c0-.2,0-.2,0-.4h-1.4c-.4,0-.5,0-.7,0v-.8c.2,0,.3,0,.7,0h1.4q0-.2,0-.4h-1.5ZM279.4,258c0-.3,0-.4,0-.5h.9c0,0,0,.2,0,.5h1.6c.3,0,.4,0,.6,0v-.7h-5.2v.7c.1,0,.3,0,.6,0h1.5Z"/>
    <path d="M285.3,260.8c0-.3,0-.4,0-.9-.2.2-.4.5-.7.7-.1-.4-.2-.6-.4-.9.8-.5,1.7-1.4,2-2.1l.8.5c0,0-.2.2-.3.4-.2.3-.3.4-.5.6v3.2c0,.4,0,.7,0,1h-1c0-.2,0-.6,0-1v-1.4ZM286.8,256.3q0,0-.2.3c-.5.6-1.1,1.1-1.8,1.6-.2-.3-.3-.5-.5-.8.6-.3,1-.7,1.4-1.1.2-.2.3-.4.4-.6l.8.5ZM287.8,259.1c-.4,0-.7,0-1,0v-.9c.2,0,.6,0,1,0h2.7c.4,0,.8,0,1,0v.9c-.3,0-.6,0-1,0h-.3v3.2c0,.7-.2.9-1.2.9s-.5,0-.9,0c0-.4,0-.6-.2-.9.4,0,.8,0,1.1,0s.4,0,.4-.2v-3h-1.5ZM287.2,256.2c.2,0,.5,0,.9,0h2.2c.4,0,.7,0,.9,0v.9c-.3,0-.6,0-.9,0h-2.2c-.3,0-.7,0-.9,0v-.9Z"/>
    <path d="M294.5,263.3c-.4-.6-.6-1-.9-1.6-.3-.7-.4-1.4-.4-2.2s.1-1.4.4-2.1c.2-.6.4-.9.9-1.6h1.1c-.6.7-.8,1.1-1,1.6-.3.7-.4,1.3-.4,2.1s.1,1.5.4,2.2c.2.5.4.9,1,1.6h-1.1Z"/>
    <path d="M299.4,262.7c-.1-.3-.2-.4-.4-.7l-.7-1-.7,1.1c-.1.2-.2.3-.3.6h-1.3c.2-.2.4-.5.6-.7l1.2-1.7-1.1-1.5c0-.1-.2-.2-.5-.7h1.2c0,.2.2.4.3.6l.6.9.6-.9c.1-.2.3-.4.3-.6h1.2c-.3.3-.4.5-.5.7l-1.1,1.5,1.2,1.6c.1.2.4.5.6.8h-1.3Z"/>
    <path d="M307.1,260.7c-.5,1-1,1.5-1.6,1.5s-1.6-.9-1.6-2.2.3-1.7.9-2.3c.7-.7,1.6-1.1,2.8-1.1,1.9,0,3.2,1.2,3.2,3s-.7,2.5-1.9,3c-.4.2-.7.2-1.3.3-.1-.4-.2-.6-.5-.9.7,0,1.2-.2,1.6-.4.7-.4,1.1-1.1,1.1-2s-.3-1.4-1-1.8c-.2-.1-.5-.2-.8-.2-.2,1.3-.4,2.4-.8,3.3ZM305.9,257.9c-.7.5-1.1,1.3-1.1,2.2s.3,1.2.6,1.2.5-.3.8-1c.3-.7.6-1.8.7-2.7-.4,0-.7.2-1,.4Z"/>
    <path d="M313.9,256.4q0,.2,0,1.8c0,1.6-.2,2.5-.6,3.3-.3.6-.6,1-1.1,1.5-.3-.4-.4-.5-.8-.8.4-.3.6-.5.8-.9.6-.9.8-2,.8-4.2s0-.5,0-.7h1.1ZM316.1,256.3c0,.2,0,.4,0,.8v4.5c.5-.3.8-.5,1.2-.9.4-.4.6-.9.8-1.5.3.4.4.5.8.8-.3.8-.7,1.4-1.3,1.9-.5.4-.9.6-1.7,1-.2,0-.2,0-.3.1l-.5-.5c0-.2,0-.4,0-.8v-4.5s0-.2,0-.2c0-.2,0-.4,0-.5h1.1Z"/>
    <path d="M319.4,259c.4,0,.5,0,1.3,0h4.3c.8,0,.9,0,1.3,0v1.1c-.3,0-.4,0-1.3,0h-4.2c-.9,0-1,0-1.3,0v-1.1Z"/>
    <path d="M331.3,256.8c.2,0,.3,0,.5,0,0-.5.4-.9.9-.9s.9.4.9.9-.4.9-.9.9,0,0-.2,0c-.6,2.6-2.1,4.2-4.6,5.3-.2-.4-.3-.6-.7-1,2.2-.7,3.7-2.2,4.2-4.3h-3.8c-.6,0-.7,0-1,0v-1c.3,0,.5,0,1,0h3.7ZM332.1,256.7c0,.3.2.5.5.5s.5-.2.5-.5-.2-.5-.5-.5-.5.2-.5.5Z"/>
    <path d="M340,260.5c-.2.2-.4.4-.5.8-.8-.6-1.5-1.3-1.9-2-.1.3-.2.5-.4.8-.4.6-.8,1-1.5,1.4-.1-.2-.3-.4-.5-.7v1.6c0,.5,0,.7,0,1h-1c0-.3,0-.6,0-1v-4.6c0-.3,0-.6,0-.8.3,0,.5,0,.9,0h2c0-.2,0-.3,0-.4,0-.3,0-.5,0-.7h1c0,.1,0,.2,0,.4q0,.1,0,.4t0,.3h2c.4,0,.6,0,.9,0,0,.2,0,.4,0,.8v4.6c0,.3,0,.5-.1.6-.2.2-.5.3-1.2.3s-.5,0-.8,0c0-.4-.1-.6-.2-.9.4,0,.7,0,1,0s.4,0,.4-.3v-1.5ZM335.1,260.6c.6-.4,1-.7,1.3-1.2.3-.4.5-1,.6-1.7h-1.9v2.9ZM337.9,257.8c0,.2,0,.2,0,.4.2.5.5,1,.9,1.3.3.4.7.6,1.3.9v-2.6h-2.1Z"/>
    <path d="M341.9,257c.2,0,.3,0,.3,0q.1,0,1.3,0c.6,0,2-.1,4.1-.2.7,0,.7,0,.8,0v1s0,0-.1,0c-.5,0-1.1.2-1.6.4-1,.5-1.6,1.3-1.6,2.1s.4,1.1,1.1,1.3c.4.1.9.2,1.2.2s0,0,.2,0v1.1c-.2,0-.3,0-.4,0-.9-.1-1.4-.3-1.9-.5-.7-.4-1.1-1.1-1.1-1.9s.3-1.4.8-1.9c.3-.3.6-.5,1.1-.8-.6,0-1.1.1-2.7.3-.7,0-1.1.1-1.3.2v-1ZM347.4,258.5c.4.4.6.7.8,1.2l-.6.3c-.3-.5-.5-.8-.8-1.2l.6-.3ZM348.6,259.5c-.2-.4-.5-.8-.8-1.2l.5-.3c.4.4.6.7.8,1.1l-.6.3Z"/>
    <path d="M349.3,263.3c.6-.7.8-1.1,1-1.6.3-.7.4-1.4.4-2.2s-.1-1.5-.4-2.1c-.2-.5-.5-.9-1-1.6h1.1c.4.6.6,1,.9,1.6.3.7.4,1.4.4,2.1s-.1,1.5-.4,2.2c-.2.6-.4.9-.9,1.6h-1.1Z"/>
  </g>
  <g>
    <path d="M172.4,16.8c0-.3-.1-.6-.2-.8l-.3-.9h-2.6l-.3.9c-.1.4-.2.5-.2.8h-1.3c.1-.2.3-.6.4-.9l1.8-4.6c.2-.4.2-.6.3-.8h1.4c0,.2,0,.3.3.8l1.8,4.6c.2.5.3.7.4.9h-1.3ZM170.7,11.8c0,0,0-.2-.1-.4q-.1.4-.2.4l-.8,2.4h2l-.9-2.4Z"/>
    <path d="M174.3,16.8v-1.2h1.2v1.2h-1.2Z"/>
  </g>
  <g>
    <path d="M168.9,103.4c-.5,0-.7,0-1,0,0-.3,0-.6,0-1.1v-4.3c0-.4,0-.7,0-1,.3,0,.5,0,1,0h1.9c1.2,0,1.9.6,1.9,1.6s-.1.8-.4,1.1c-.2.2-.3.2-.6.3.4,0,.6.2.8.4.3.3.5.7.5,1.2,0,1.1-.7,1.8-2.1,1.8h-2ZM170.7,99.6c.6,0,1-.3,1-.9s0-.5-.2-.6c-.2-.2-.4-.2-.8-.2h-1.7v1.7h1.7ZM169,102.5h1.7c.7,0,1.1-.4,1.1-1s0-.5-.3-.7c-.2-.2-.5-.3-.9-.3h-1.7v2Z"/>
    <path d="M173.8,103.4v-1.2h1.2v1.2h-1.2Z"/>
  </g>
  <g>
    <path d="M173.3,192.8c-.2.6-.3.9-.5,1.2-.5.6-1.2.9-2.2.9s-1.6-.3-2.1-.8c-.6-.6-.9-1.5-.9-2.5s.3-2,.9-2.6c.5-.5,1.2-.8,2-.8s1.1.1,1.5.4c.4.2.6.5.8.9,0,.2.2.3.2.6l-1.1.3c-.1-.4-.2-.5-.3-.7-.3-.3-.7-.5-1.2-.5-1.1,0-1.8.9-1.8,2.4s.7,2.4,1.8,2.4,1-.2,1.3-.6c.1-.2.2-.4.3-.7l1.1.2Z"/>
    <path d="M174.1,194.7v-1.2h1.2v1.2h-1.2Z"/>
  </g>
  <g>
    <path d="M199.3,11.4v-.9h1v-.9c0-.5.1-.9.4-1.1s.7-.4,1.3-.4.2,0,.3,0c.1,0,.2,0,.3,0v.9c0,0-.2,0-.3,0-.1,0-.2,0-.3,0-.2,0-.4,0-.6.1-.1,0-.2.3-.2.6v.9h1.2v.9h-1.2v5.3h-1v-5.3h-1Z"/>
    <path d="M203.3,12.3c.1-.4.3-.7.6-1s.6-.5.9-.7c.4-.2.8-.3,1.3-.3s.9,0,1.3.3.7.4.9.7c.3.3.4.6.6,1s.2.8.2,1.3,0,.9-.2,1.3c-.1.4-.3.7-.6,1-.3.3-.6.5-.9.7-.4.2-.8.2-1.3.2s-.9,0-1.3-.2c-.4-.2-.7-.4-.9-.7s-.4-.6-.6-1c-.1-.4-.2-.8-.2-1.3s0-.9.2-1.3ZM204.4,14.6c0,.3.2.5.4.7.2.2.4.3.6.4.2.1.5.2.8.2s.5,0,.8-.2c.2-.1.4-.3.6-.4.2-.2.3-.4.4-.7.1-.3.2-.6.2-1s0-.7-.2-1c0-.3-.2-.5-.4-.7-.2-.2-.4-.4-.6-.5-.2-.1-.5-.2-.8-.2s-.5,0-.8.2c-.2.1-.4.3-.6.5-.2.2-.3.4-.4.7-.1.3-.2.6-.2,1s0,.7.2,1Z"/>
    <path d="M211.3,10.5v1.3h0c.2-.5.6-.9.9-1.1.4-.2.8-.4,1.4-.3v1.1c-.4,0-.8,0-1,.2-.3.1-.5.3-.7.5-.2.2-.3.5-.4.8,0,.3-.1.7-.1,1.1v2.8h-1v-6.2h1Z"/>
    <path d="M220.1,17.5c-.1.3-.2.6-.4.8-.1.2-.2.4-.4.5-.1.1-.3.2-.5.3-.2,0-.4,0-.6,0s-.2,0-.4,0-.2,0-.3,0v-.9c0,0,.2,0,.3.1s.2,0,.3,0c.2,0,.4,0,.5-.2.1,0,.2-.2.3-.4l.4-1-2.5-6.2h1.2l1.8,5.1h0l1.7-5.1h1.1l-2.7,7Z"/>
    <path d="M227.1,9.4v-1.2h1v1.2h-1ZM228.1,10.5v6.2h-1v-6.2h1Z"/>
    <path d="M230.7,10.5v1h0c.4-.8,1.1-1.1,2-1.1s.7,0,1,.2c.3.1.5.3.7.5s.3.4.4.7c0,.3.1.6.1.9v4.1h-1v-4.2c0-.4-.1-.7-.3-.9s-.5-.3-.9-.3-.6,0-.8.1c-.2,0-.4.2-.6.4-.2.2-.3.4-.3.6,0,.2-.1.5-.1.8v3.5h-1v-6.2h1Z"/>
    <path d="M240.6,10.5v1.3h0c.2-.5.6-.9.9-1.1.4-.2.8-.4,1.4-.3v1.1c-.4,0-.8,0-1,.2-.3.1-.5.3-.7.5-.2.2-.3.5-.4.8,0,.3-.1.7-.1,1.1v2.8h-1v-6.2h1Z"/>
    <path d="M249.2,16.7c-.2.1-.4.2-.7.2s-.5,0-.6-.2c-.2-.1-.2-.4-.2-.7-.3.3-.6.6-1,.7-.4.1-.8.2-1.2.2s-.5,0-.8,0c-.3,0-.5-.2-.7-.3-.2-.1-.3-.3-.4-.5-.1-.2-.2-.5-.2-.8s0-.6.2-.9.3-.4.5-.5.4-.2.7-.3c.3,0,.5-.1.8-.2.3,0,.5,0,.8-.1s.5,0,.7-.1c.2,0,.3-.1.5-.2.1-.1.2-.2.2-.4s0-.4-.1-.5c0-.1-.2-.2-.3-.3-.1,0-.3-.1-.4-.1s-.3,0-.5,0c-.4,0-.8,0-1.1.2-.3.2-.4.5-.5.9h-1c0-.4,0-.7.2-1,.1-.3.3-.5.6-.6.2-.2.5-.3.8-.4.3,0,.6-.1,1-.1s.6,0,.8,0c.3,0,.5.1.8.2.2.1.4.3.5.5.1.2.2.5.2.9v3.2c0,.2,0,.4,0,.5s.1.2.3.2.2,0,.3,0v.8ZM247.5,13.5c-.1,0-.3.2-.5.2-.2,0-.4,0-.7.1-.2,0-.5,0-.7,0-.2,0-.4,0-.6.2-.2,0-.3.2-.5.3-.1.1-.2.3-.2.6s0,.3.1.4c0,.1.2.2.3.3.1,0,.2.1.4.2.1,0,.3,0,.5,0,.3,0,.6,0,.9-.1s.4-.2.6-.3c.2-.1.3-.3.3-.5,0-.2.1-.3.1-.5v-1Z"/>
    <path d="M251.1,10.5v1h0c.4-.8,1.1-1.1,2-1.1s.7,0,1,.2c.3.1.5.3.7.5s.3.4.4.7c0,.3.1.6.1.9v4.1h-1v-4.2c0-.4-.1-.7-.3-.9s-.5-.3-.9-.3-.6,0-.8.1c-.2,0-.4.2-.6.4-.2.2-.3.4-.3.6,0,.2-.1.5-.1.8v3.5h-1v-6.2h1Z"/>
    <path d="M261.5,18.4c-.5.5-1.2.8-2.2.8s-.6,0-.9,0c-.3,0-.6-.2-.8-.3-.2-.1-.4-.3-.6-.6-.2-.2-.2-.5-.3-.9h1c0,.2,0,.3.2.5.1.1.2.2.4.3.2,0,.3.1.5.2.2,0,.4,0,.5,0,.3,0,.6,0,.9-.2.2-.1.4-.3.6-.5.2-.2.3-.5.3-.7,0-.3.1-.6.1-.9v-.4h0c-.2.4-.4.7-.8.8-.4.2-.7.3-1.1.3s-.9,0-1.2-.3c-.3-.2-.6-.4-.9-.7-.2-.3-.4-.6-.5-1-.1-.4-.2-.8-.2-1.2s0-.7.1-1.1c0-.4.3-.7.5-1.1.2-.3.5-.6.9-.8.4-.2.8-.3,1.4-.3s.8,0,1.1.3.6.4.8.8h0v-.9h1v5.7c0,1-.2,1.8-.7,2.3ZM260.2,15.7c.2-.1.4-.3.6-.6.1-.2.2-.5.3-.8,0-.3.1-.6.1-.9s0-.5,0-.8c0-.3-.2-.5-.3-.7s-.3-.4-.5-.5c-.2-.1-.5-.2-.8-.2s-.6,0-.8.2c-.2.1-.4.3-.6.5-.1.2-.3.4-.3.7,0,.3-.1.6-.1.9s0,.6,0,.8c0,.3.2.5.3.8s.3.4.5.6c.2.1.5.2.8.2s.6,0,.9-.2Z"/>
    <path d="M268.1,16.3c-.5.4-1,.5-1.8.5s-.9,0-1.3-.2c-.4-.2-.7-.4-.9-.7-.2-.3-.4-.6-.6-1s-.2-.8-.2-1.3c0-.5,0-.9.2-1.3.1-.4.3-.7.6-1s.6-.5.9-.7c.4-.2.7-.2,1.2-.2s1,.1,1.4.3.7.5.9.9c.2.4.4.7.5,1.2s.1.8.1,1.2h-4.6c0,.3,0,.5,0,.8,0,.2.2.5.3.6s.4.3.6.5c.2.1.5.2.9.2s.8-.1,1.1-.3c.3-.2.5-.5.5-.9h1c-.1.7-.4,1.2-.9,1.6ZM267.9,12.3c0-.2-.2-.4-.4-.6-.2-.2-.3-.3-.6-.4-.2,0-.4-.1-.7-.1s-.5,0-.7.1c-.2,0-.4.2-.5.4-.2.2-.3.3-.4.6s-.1.4-.2.7h3.6c0-.2,0-.5-.2-.7Z"/>
    <path d="M271.1,17.7c-.2-.4-.4-.9-.6-1.4-.2-.5-.3-.9-.4-1.4,0-.5-.1-1-.1-1.5,0-.9.2-1.9.5-2.9.3-1,.8-1.9,1.4-2.7h.8c-.6.9-1,1.8-1.2,2.7s-.4,1.8-.4,2.8.1,2,.4,2.9c.2.9.7,1.8,1.2,2.7h-.8c-.3-.4-.5-.9-.8-1.3Z"/>
    <path d="M275.7,16.7v-6.1h-2.2v-.8c.3,0,.6,0,.8,0,.3,0,.5-.1.7-.2s.4-.3.6-.5c.2-.2.3-.5.3-.8h.8v8.5h-1Z"/>
    <path d="M279.7,11.5c0-.3,0-.7.1-1,0-.3.2-.6.3-.9s.3-.5.5-.8c.2-.2.5-.4.8-.5.3-.1.7-.2,1.1-.2s.8,0,1.1.2c.3.1.6.3.8.5.2.2.4.5.5.8s.2.6.3.9c0,.3.1.6.1,1,0,.3,0,.7,0,1s0,.6,0,1c0,.3,0,.7-.1,1,0,.3-.2.6-.3.9-.1.3-.3.5-.5.8s-.5.4-.8.5c-.3.1-.7.2-1.1.2s-.8,0-1.1-.2c-.3-.1-.6-.3-.8-.5s-.4-.5-.5-.8c-.1-.3-.2-.6-.3-.9,0-.3-.1-.6-.1-1,0-.3,0-.7,0-1s0-.6,0-1ZM280.8,13.6c0,.4,0,.8.2,1.1.1.3.3.6.5.9.2.2.6.4,1,.4s.8-.1,1-.4c.2-.2.4-.5.5-.9.1-.3.2-.7.2-1.1,0-.4,0-.8,0-1.1s0-.4,0-.7,0-.5,0-.8c0-.3,0-.5-.2-.7,0-.2-.2-.4-.3-.6-.1-.2-.3-.3-.5-.4-.2-.1-.4-.2-.7-.2s-.5,0-.7.2c-.2.1-.4.3-.5.4-.1.2-.2.4-.3.6,0,.2-.1.5-.2.7,0,.3,0,.5,0,.8s0,.5,0,.7c0,.3,0,.7,0,1.1Z"/>
    <path d="M286.9,16.4c.2-.9.4-1.8.4-2.8s-.1-2-.4-2.9c-.2-.9-.6-1.8-1.2-2.7h.8c.3.4.5.9.8,1.3.2.4.4.9.6,1.4.2.5.3.9.4,1.4s.1,1,.1,1.5c0,.9-.2,1.9-.5,2.8-.3,1-.8,1.8-1.4,2.7h-.8c.6-.9,1-1.8,1.2-2.7Z"/>
    <path d="M289.9,11.8v-1.3h1.3v1.3h-1.3ZM291.3,15.4v1.3h-1.3v-1.3h1.3Z"/>
    <path d="M212.7,25.8v-.9h1v-.9c0-.5.1-.9.4-1.1.3-.3.7-.4,1.3-.4s.2,0,.3,0c.1,0,.2,0,.3,0v.9c0,0-.2,0-.3,0-.1,0-.2,0-.3,0-.2,0-.4,0-.6.1-.1,0-.2.3-.2.6v.9h1.2v.9h-1.2v5.3h-1v-5.3h-1Z"/>
    <path d="M216.7,26.7c.1-.4.3-.7.6-1s.6-.5.9-.7c.4-.2.8-.3,1.3-.3s.9,0,1.3.3.7.4.9.7c.3.3.4.6.6,1,.1.4.2.8.2,1.3s0,.9-.2,1.3c-.1.4-.3.7-.6,1-.3.3-.6.5-.9.7s-.8.2-1.3.2-.9,0-1.3-.2c-.4-.2-.7-.4-.9-.7s-.4-.6-.6-1c-.1-.4-.2-.8-.2-1.3s0-.9.2-1.3ZM217.7,29c0,.3.2.5.4.7.2.2.4.3.6.5.2.1.5.2.8.2s.5,0,.8-.2c.2-.1.4-.3.6-.5.2-.2.3-.4.4-.7.1-.3.2-.6.2-1s0-.7-.2-1c0-.3-.2-.5-.4-.7-.2-.2-.4-.4-.6-.5-.2-.1-.5-.2-.8-.2s-.5,0-.8.2c-.2.1-.4.3-.6.5s-.3.4-.4.7c-.1.3-.2.6-.2,1s0,.7.2,1Z"/>
    <path d="M224.6,24.9v1.3h0c.2-.5.6-.9.9-1.1.4-.2.8-.4,1.4-.3v1.1c-.4,0-.8,0-1,.2-.3.1-.5.3-.7.5-.2.2-.3.5-.4.8,0,.3-.1.7-.1,1.1v2.8h-1v-6.2h1Z"/>
    <path d="M230.6,24.9h1.3l1.5,2.2,1.5-2.2h1.2l-2.1,2.9,2.4,3.3h-1.3l-1.7-2.6-1.7,2.6h-1.2l2.3-3.3-2.2-2.9Z"/>
    <path d="M240.7,23.8v-1.2h1v1.2h-1ZM241.7,24.9v6.2h-1v-6.2h1Z"/>
    <path d="M244.2,24.9v1h0c.4-.8,1.1-1.1,2-1.1s.7,0,1,.2c.3.1.5.3.7.5s.3.4.4.7c0,.3.1.6.1.9v4.1h-1v-4.2c0-.4-.1-.7-.3-.9-.2-.2-.5-.3-.9-.3s-.6,0-.8.1c-.2,0-.4.2-.6.4-.2.2-.3.4-.3.6,0,.2-.1.5-.1.8v3.5h-1v-6.2h1Z"/>
    <path d="M254.2,24.9v1.3h0c.2-.5.6-.9.9-1.1.4-.2.8-.4,1.4-.3v1.1c-.4,0-.8,0-1,.2-.3.1-.5.3-.7.5-.2.2-.3.5-.4.8,0,.3-.1.7-.1,1.1v2.8h-1v-6.2h1Z"/>
    <path d="M262.8,31.1c-.2.1-.4.2-.7.2s-.5,0-.6-.2c-.2-.1-.2-.4-.2-.7-.3.3-.6.6-1,.7-.4.1-.8.2-1.2.2s-.5,0-.8,0c-.3,0-.5-.2-.7-.3-.2-.1-.3-.3-.4-.5-.1-.2-.2-.5-.2-.8s0-.6.2-.9.3-.4.5-.5.4-.2.7-.3.5-.1.8-.2c.3,0,.5,0,.8-.1s.5,0,.7-.1.3-.1.5-.2c.1-.1.2-.2.2-.4s0-.4-.1-.5-.2-.2-.3-.3c-.1,0-.3-.1-.4-.1-.2,0-.3,0-.5,0-.4,0-.8,0-1.1.2s-.4.5-.5.9h-1c0-.4,0-.7.2-1,.1-.3.3-.5.6-.6.2-.2.5-.3.8-.4.3,0,.6-.1,1-.1s.6,0,.8,0c.3,0,.5.1.8.2.2.1.4.3.5.5s.2.5.2.9v3.2c0,.2,0,.4,0,.5,0,.1.1.2.3.2s.2,0,.3,0v.8ZM261.1,27.9c-.1,0-.3.2-.5.2s-.4,0-.7.1c-.2,0-.5,0-.7,0-.2,0-.4,0-.6.2-.2,0-.3.2-.5.3-.1.1-.2.3-.2.6s0,.3.1.4c0,.1.2.2.3.3.1,0,.2.1.4.2.1,0,.3,0,.5,0,.3,0,.6,0,.9-.1s.4-.2.6-.3c.2-.1.3-.3.3-.5s.1-.3.1-.5v-1Z"/>
    <path d="M264.7,24.9v1h0c.4-.8,1.1-1.1,2-1.1s.7,0,1,.2c.3.1.5.3.7.5s.3.4.4.7c0,.3.1.6.1.9v4.1h-1v-4.2c0-.4-.1-.7-.3-.9-.2-.2-.5-.3-.9-.3s-.6,0-.8.1c-.2,0-.4.2-.6.4-.2.2-.3.4-.3.6,0,.2-.1.5-.1.8v3.5h-1v-6.2h1Z"/>
    <path d="M275,32.8c-.5.5-1.2.8-2.2.8s-.6,0-.9,0c-.3,0-.6-.2-.8-.3-.2-.1-.4-.3-.6-.6-.2-.2-.2-.5-.3-.9h1c0,.2,0,.3.2.5.1.1.2.2.4.3.2,0,.3.1.5.2.2,0,.4,0,.5,0,.3,0,.6,0,.9-.2.2-.1.4-.3.6-.5.2-.2.3-.5.3-.7,0-.3.1-.6.1-.9v-.4h0c-.2.4-.4.7-.8.8-.4.2-.7.3-1.1.3s-.9,0-1.2-.3c-.3-.2-.6-.4-.9-.7s-.4-.6-.5-1c-.1-.4-.2-.8-.2-1.2s0-.7.1-1.1.3-.7.5-1.1c.2-.3.5-.6.9-.8.4-.2.8-.3,1.4-.3s.8,0,1.1.3.6.4.8.8h0v-.9h1v5.7c0,1-.2,1.8-.7,2.3ZM273.7,30.1c.2-.1.4-.3.6-.6.1-.2.2-.5.3-.8,0-.3.1-.6.1-.9s0-.5,0-.8c0-.3-.2-.5-.3-.7s-.3-.4-.5-.5c-.2-.1-.5-.2-.8-.2s-.6,0-.8.2-.4.3-.6.5c-.1.2-.3.4-.3.7,0,.3-.1.6-.1.9s0,.6,0,.8c0,.3.2.5.3.8.1.2.3.4.5.6.2.1.5.2.8.2s.6,0,.9-.2Z"/>
    <path d="M281.7,30.7c-.5.4-1,.5-1.8.5s-.9,0-1.3-.2c-.4-.2-.7-.4-.9-.7s-.4-.6-.6-1c-.1-.4-.2-.8-.2-1.3,0-.5,0-.9.2-1.3.1-.4.3-.7.6-1,.3-.3.6-.5.9-.7.4-.2.7-.2,1.2-.2s1,.1,1.4.3c.4.2.7.5.9.9.2.4.4.7.5,1.2,0,.4.1.8.1,1.2h-4.6c0,.3,0,.5,0,.8,0,.2.2.5.3.6.2.2.4.3.6.5.2.1.5.2.9.2s.8,0,1.1-.3c.3-.2.5-.5.5-.9h1c-.1.7-.4,1.2-.9,1.6ZM281.4,26.7c0-.2-.2-.4-.4-.6-.2-.2-.3-.3-.6-.4-.2,0-.4-.1-.7-.1s-.5,0-.7.1c-.2,0-.4.2-.5.4-.2.2-.3.3-.4.6s-.1.4-.2.7h3.6c0-.2,0-.5-.2-.7Z"/>
    <path d="M284.6,32.1c-.2-.4-.4-.9-.6-1.4s-.3-.9-.4-1.4c0-.5-.1-1-.1-1.5,0-.9.2-1.9.5-2.9.3-1,.8-1.9,1.4-2.7h.8c-.6.9-1,1.8-1.2,2.7-.2.9-.4,1.8-.4,2.8s.1,2,.4,2.9.7,1.8,1.2,2.7h-.8c-.3-.4-.5-.9-.8-1.3Z"/>
    <path d="M289.3,31.1v-6.1h-2.2v-.8c.3,0,.6,0,.8,0,.3,0,.5-.1.7-.2s.4-.3.6-.5c.2-.2.3-.5.3-.8h.8v8.5h-1Z"/>
    <path d="M293.3,25.9c0-.3,0-.7.1-1,0-.3.2-.6.3-.9s.3-.5.5-.8.5-.4.8-.5c.3-.1.7-.2,1.1-.2s.8,0,1.1.2c.3.1.6.3.8.5s.4.5.5.8.2.6.3.9c0,.3.1.6.1,1,0,.3,0,.7,0,1s0,.6,0,1c0,.3,0,.7-.1,1,0,.3-.2.6-.3.9-.1.3-.3.5-.5.8-.2.2-.5.4-.8.5-.3.1-.7.2-1.1.2s-.8,0-1.1-.2c-.3-.1-.6-.3-.8-.5-.2-.2-.4-.5-.5-.8-.1-.3-.2-.6-.3-.9,0-.3-.1-.6-.1-1,0-.3,0-.7,0-1s0-.6,0-1ZM294.3,28c0,.4,0,.8.2,1.1.1.3.3.6.5.9s.6.4,1,.4.8-.1,1-.4.4-.5.5-.9c.1-.3.2-.7.2-1.1,0-.4,0-.8,0-1.1s0-.4,0-.7,0-.5,0-.8c0-.3,0-.5-.2-.7,0-.2-.2-.5-.3-.6-.1-.2-.3-.3-.5-.4-.2-.1-.4-.2-.7-.2s-.5,0-.7.2c-.2.1-.4.3-.5.4-.1.2-.2.4-.3.6,0,.2-.1.5-.2.7,0,.3,0,.5,0,.8s0,.5,0,.7c0,.3,0,.7,0,1.1Z"/>
    <path d="M300.5,30.8c.2-.9.4-1.8.4-2.8s-.1-2-.4-2.9c-.2-.9-.6-1.8-1.2-2.7h.8c.3.4.5.9.8,1.3.2.4.4.9.6,1.4s.3.9.4,1.4c0,.5.1,1,.1,1.5,0,.9-.2,1.9-.5,2.9-.3,1-.8,1.8-1.4,2.7h-.8c.6-.9,1-1.8,1.2-2.7Z"/>
    <path d="M303.5,26.2v-1.3h1.3v1.3h-1.3ZM304.8,29.8v1.3h-1.3v-1.3h1.3Z"/>
    <path d="M230.3,40.4c-.3-.2-.6-.3-1-.3s-.7,0-.9.2c-.2.1-.4.3-.6.5-.1.2-.3.5-.3.8,0,.3,0,.6,0,.9s0,.6.1.8c0,.3.2.5.3.7.1.2.3.4.6.5.2.1.5.2.8.2.5,0,.9-.1,1.2-.4.3-.3.5-.6.5-1.1h1c-.1.8-.4,1.4-.9,1.8s-1.1.6-1.9.6-.9,0-1.3-.2c-.4-.2-.7-.4-.9-.6s-.4-.6-.6-1c-.1-.4-.2-.8-.2-1.3s0-.9.2-1.3c.1-.4.3-.8.5-1.1s.5-.5.9-.7.8-.3,1.3-.3.7,0,1,.1c.3,0,.6.2.8.4s.4.4.6.7c.2.3.2.6.3,1h-1.1c0-.4-.2-.7-.5-.9Z"/>
    <path d="M238.6,45.5c-.2.1-.4.2-.7.2s-.5,0-.6-.2c-.2-.1-.2-.4-.2-.7-.3.3-.6.6-1,.7-.4.1-.8.2-1.2.2s-.5,0-.8,0c-.3,0-.5-.2-.7-.3-.2-.1-.3-.3-.4-.5-.1-.2-.2-.5-.2-.8s0-.6.2-.9.3-.4.5-.5.4-.2.7-.3.5-.1.8-.2c.3,0,.5,0,.8-.1s.5,0,.7-.1.3-.1.5-.2c.1-.1.2-.2.2-.4s0-.4-.1-.5-.2-.2-.3-.3c-.1,0-.3-.1-.4-.1-.2,0-.3,0-.5,0-.4,0-.8,0-1.1.2s-.4.5-.5.9h-1c0-.4,0-.7.2-1,.1-.3.3-.5.6-.6.2-.2.5-.3.8-.4.3,0,.6-.1,1-.1s.6,0,.8,0c.3,0,.5.1.8.2.2.1.4.3.5.5s.2.5.2.9v3.2c0,.2,0,.4,0,.5,0,.1.1.2.3.2s.2,0,.3,0v.8ZM236.9,42.3c-.1,0-.3.2-.5.2s-.4,0-.7.1c-.2,0-.5,0-.7,0-.2,0-.4,0-.6.2-.2,0-.3.2-.5.3-.1.1-.2.3-.2.6s0,.3.1.4c0,.1.2.2.3.3.1,0,.2.1.4.2.1,0,.3,0,.5,0,.3,0,.6,0,.9-.1s.4-.2.6-.3c.2-.1.3-.3.3-.5s.1-.3.1-.5v-1Z"/>
    <path d="M240.6,36.9v8.6h-1v-8.6h1Z"/>
    <path d="M245.9,40.4c-.3-.2-.6-.3-1-.3s-.7,0-.9.2c-.2.1-.4.3-.6.5-.1.2-.3.5-.3.8,0,.3,0,.6,0,.9s0,.6.1.8c0,.3.2.5.3.7.1.2.3.4.6.5.2.1.5.2.8.2.5,0,.9-.1,1.2-.4.3-.3.5-.6.5-1.1h1c-.1.8-.4,1.4-.9,1.8s-1.1.6-1.9.6-.9,0-1.3-.2c-.4-.2-.7-.4-.9-.6s-.4-.6-.6-1c-.1-.4-.2-.8-.2-1.3s0-.9.2-1.3c.1-.4.3-.8.5-1.1s.5-.5.9-.7.8-.3,1.3-.3.7,0,1,.1c.3,0,.6.2.8.4s.4.4.6.7c.2.3.2.6.3,1h-1.1c0-.4-.2-.7-.5-.9Z"/>
    <path d="M251.8,41.7v-.8h6v.8h-6ZM257.8,43.3v.8h-6v-.8h6Z"/>
    <path d="M267,45.5v-.8h0c-.2.3-.4.6-.8.7-.4.2-.8.2-1.2.2s-.9,0-1.3-.3c-.4-.2-.7-.4-.9-.7-.2-.3-.4-.6-.5-1-.1-.4-.2-.8-.2-1.2s0-.9.2-1.2c.1-.4.3-.7.5-1s.5-.5.9-.7c.4-.2.8-.3,1.2-.3s.3,0,.5,0c.2,0,.4,0,.6.2.2,0,.4.2.5.3s.3.3.4.5h0v-3.2h1v8.6h-1ZM263.3,43.3c0,.3.2.5.3.7.2.2.4.4.6.5s.5.2.9.2.6,0,.9-.2c.2-.1.4-.3.6-.5.2-.2.3-.5.3-.8,0-.3.1-.6.1-.9s0-.6-.1-.9c0-.3-.2-.5-.3-.8-.2-.2-.4-.4-.6-.5-.2-.1-.5-.2-.9-.2s-.6,0-.9.2c-.2.1-.4.3-.6.5-.1.2-.2.5-.3.8,0,.3,0,.6,0,.9s0,.6.1.8Z"/>
    <path d="M275.1,45.5c-.2.1-.4.2-.7.2s-.5,0-.6-.2c-.2-.1-.2-.4-.2-.7-.3.3-.6.6-1,.7-.4.1-.8.2-1.2.2s-.5,0-.8,0c-.3,0-.5-.2-.7-.3-.2-.1-.3-.3-.4-.5-.1-.2-.2-.5-.2-.8s0-.6.2-.9.3-.4.5-.5.4-.2.7-.3.5-.1.8-.2c.3,0,.5,0,.8-.1s.5,0,.7-.1.3-.1.5-.2c.1-.1.2-.2.2-.4s0-.4-.1-.5-.2-.2-.3-.3c-.1,0-.3-.1-.4-.1-.2,0-.3,0-.5,0-.4,0-.8,0-1.1.2s-.4.5-.5.9h-1c0-.4,0-.7.2-1,.1-.3.3-.5.6-.6.2-.2.5-.3.8-.4.3,0,.6-.1,1-.1s.6,0,.8,0c.3,0,.5.1.8.2.2.1.4.3.5.5s.2.5.2.9v3.2c0,.2,0,.4,0,.5,0,.1.1.2.3.2s.2,0,.3,0v.8ZM273.4,42.3c-.1,0-.3.2-.5.2s-.4,0-.7.1c-.2,0-.5,0-.7,0-.2,0-.4,0-.6.2-.2,0-.3.2-.5.3-.1.1-.2.3-.2.6s0,.3.1.4c0,.1.2.2.3.3.1,0,.2.1.4.2.1,0,.3,0,.5,0,.3,0,.6,0,.9-.1s.4-.2.6-.3c.2-.1.3-.3.3-.5s.1-.3.1-.5v-1Z"/>
    <path d="M278.7,39.3v.9h-1.2v3.9c0,.1,0,.2,0,.3s0,.1.1.2c0,0,.1,0,.2,0,.1,0,.2,0,.4,0h.5v.9h-.8c-.3,0-.5,0-.7,0s-.3-.1-.5-.2-.2-.2-.3-.4,0-.4,0-.7v-3.9h-1.1v-.9h1.1v-1.9h1v1.9h1.2Z"/>
    <path d="M285.3,45.5c-.2.1-.4.2-.7.2s-.5,0-.6-.2c-.2-.1-.2-.4-.2-.7-.3.3-.6.6-1,.7-.4.1-.8.2-1.2.2s-.5,0-.8,0c-.3,0-.5-.2-.7-.3-.2-.1-.3-.3-.4-.5-.1-.2-.2-.5-.2-.8s0-.6.2-.9.3-.4.5-.5.4-.2.7-.3.5-.1.8-.2c.3,0,.5,0,.8-.1s.5,0,.7-.1.3-.1.5-.2c.1-.1.2-.2.2-.4s0-.4-.1-.5-.2-.2-.3-.3c-.1,0-.3-.1-.4-.1-.2,0-.3,0-.5,0-.4,0-.8,0-1.1.2s-.4.5-.5.9h-1c0-.4,0-.7.2-1,.1-.3.3-.5.6-.6.2-.2.5-.3.8-.4.3,0,.6-.1,1-.1s.6,0,.8,0c.3,0,.5.1.8.2.2.1.4.3.5.5s.2.5.2.9v3.2c0,.2,0,.4,0,.5,0,.1.1.2.3.2s.2,0,.3,0v.8ZM283.7,42.3c-.1,0-.3.2-.5.2s-.4,0-.7.1c-.2,0-.5,0-.7,0-.2,0-.4,0-.6.2-.2,0-.3.2-.5.3-.1.1-.2.3-.2.6s0,.3.1.4c0,.1.2.2.3.3.1,0,.2.1.4.2.1,0,.3,0,.5,0,.3,0,.6,0,.9-.1s.4-.2.6-.3c.2-.1.3-.3.3-.5s.1-.3.1-.5v-1Z"/>
    <path d="M288.8,45.5v-6.1h-2.2v-.8c.3,0,.6,0,.8,0,.3,0,.5-.1.7-.2s.4-.3.6-.5c.2-.2.3-.5.3-.8h.8v8.5h-1Z"/>
    <path d="M294,37.5v9.5h1.3v.8h-2.2v-11.1h2.2v.8h-1.3Z"/>
    <path d="M298.5,46.3c-.1.3-.2.6-.4.8-.1.2-.2.4-.4.5-.1.1-.3.2-.5.3-.2,0-.4,0-.6,0s-.2,0-.4,0-.2,0-.3,0v-.9c0,0,.2,0,.3.1s.2,0,.3,0c.2,0,.4,0,.5-.2.1,0,.2-.2.3-.4l.4-1-2.5-6.2h1.2l1.8,5.1h0l1.7-5.1h1.1l-2.7,7Z"/>
    <path d="M302.6,47v-9.5h-1.3v-.8h2.2v11.1h-2.2v-.8h1.3Z"/>
    <path d="M306.2,37.5v9.5h1.3v.8h-2.2v-11.1h2.2v.8h-1.3Z"/>
    <path d="M307.8,39.3h1.3l1.5,2.2,1.5-2.2h1.2l-2.1,2.9,2.4,3.3h-1.3l-1.7-2.6-1.7,2.6h-1.2l2.3-3.3-2.2-2.9Z"/>
    <path d="M315,47v-9.5h-1.3v-.8h2.2v11.1h-2.2v-.8h1.3Z"/>
    <path d="M326.8,42v.8h-2.6v2.6h-.8v-2.6h-2.6v-.8h2.6v-2.6h.8v2.6h2.6Z"/>
    <path d="M336,45.5v-.8h0c-.2.3-.4.6-.8.7-.4.2-.8.2-1.2.2s-.9,0-1.3-.3c-.4-.2-.7-.4-.9-.7-.2-.3-.4-.6-.5-1-.1-.4-.2-.8-.2-1.2s0-.9.2-1.2c.1-.4.3-.7.5-1s.5-.5.9-.7c.4-.2.8-.3,1.2-.3s.3,0,.5,0c.2,0,.4,0,.6.2.2,0,.4.2.5.3s.3.3.4.5h0v-3.2h1v8.6h-1ZM332.3,43.3c0,.3.2.5.3.7.2.2.4.4.6.5s.5.2.9.2.6,0,.9-.2c.2-.1.4-.3.6-.5.2-.2.3-.5.3-.8,0-.3.1-.6.1-.9s0-.6-.1-.9c0-.3-.2-.5-.3-.8-.2-.2-.4-.4-.6-.5-.2-.1-.5-.2-.9-.2s-.6,0-.9.2c-.2.1-.4.3-.6.5-.1.2-.2.5-.3.8,0,.3,0,.6,0,.9s0,.6.1.8Z"/>
    <path d="M344.1,45.5c-.2.1-.4.2-.7.2s-.5,0-.6-.2c-.2-.1-.2-.4-.2-.7-.3.3-.6.6-1,.7-.4.1-.8.2-1.2.2s-.5,0-.8,0c-.3,0-.5-.2-.7-.3-.2-.1-.3-.3-.4-.5-.1-.2-.2-.5-.2-.8s0-.6.2-.9.3-.4.5-.5.4-.2.7-.3.5-.1.8-.2c.3,0,.5,0,.8-.1s.5,0,.7-.1.3-.1.5-.2c.1-.1.2-.2.2-.4s0-.4-.1-.5-.2-.2-.3-.3c-.1,0-.3-.1-.4-.1-.2,0-.3,0-.5,0-.4,0-.8,0-1.1.2s-.4.5-.5.9h-1c0-.4,0-.7.2-1,.1-.3.3-.5.6-.6.2-.2.5-.3.8-.4.3,0,.6-.1,1-.1s.6,0,.8,0c.3,0,.5.1.8.2.2.1.4.3.5.5s.2.5.2.9v3.2c0,.2,0,.4,0,.5,0,.1.1.2.3.2s.2,0,.3,0v.8ZM342.4,42.3c-.1,0-.3.2-.5.2s-.4,0-.7.1c-.2,0-.5,0-.7,0-.2,0-.4,0-.6.2-.2,0-.3.2-.5.3-.1.1-.2.3-.2.6s0,.3.1.4c0,.1.2.2.3.3.1,0,.2.1.4.2.1,0,.3,0,.5,0,.3,0,.6,0,.9-.1s.4-.2.6-.3c.2-.1.3-.3.3-.5s.1-.3.1-.5v-1Z"/>
    <path d="M347.7,39.3v.9h-1.2v3.9c0,.1,0,.2,0,.3s0,.1.1.2c0,0,.1,0,.2,0,.1,0,.2,0,.4,0h.5v.9h-.8c-.3,0-.5,0-.7,0s-.3-.1-.5-.2-.2-.2-.3-.4,0-.4,0-.7v-3.9h-1.1v-.9h1.1v-1.9h1v1.9h1.2Z"/>
    <path d="M354.3,45.5c-.2.1-.4.2-.7.2s-.5,0-.6-.2c-.2-.1-.2-.4-.2-.7-.3.3-.6.6-1,.7-.4.1-.8.2-1.2.2s-.5,0-.8,0c-.3,0-.5-.2-.7-.3-.2-.1-.3-.3-.4-.5-.1-.2-.2-.5-.2-.8s0-.6.2-.9.3-.4.5-.5.4-.2.7-.3.5-.1.8-.2c.3,0,.5,0,.8-.1s.5,0,.7-.1.3-.1.5-.2c.1-.1.2-.2.2-.4s0-.4-.1-.5-.2-.2-.3-.3c-.1,0-.3-.1-.4-.1-.2,0-.3,0-.5,0-.4,0-.8,0-1.1.2s-.4.5-.5.9h-1c0-.4,0-.7.2-1,.1-.3.3-.5.6-.6.2-.2.5-.3.8-.4.3,0,.6-.1,1-.1s.6,0,.8,0c.3,0,.5.1.8.2.2.1.4.3.5.5s.2.5.2.9v3.2c0,.2,0,.4,0,.5,0,.1.1.2.3.2s.2,0,.3,0v.8ZM352.6,42.3c-.1,0-.3.2-.5.2s-.4,0-.7.1c-.2,0-.5,0-.7,0-.2,0-.4,0-.6.2-.2,0-.3.2-.5.3-.1.1-.2.3-.2.6s0,.3.1.4c0,.1.2.2.3.3.1,0,.2.1.4.2.1,0,.3,0,.5,0,.3,0,.6,0,.9-.1s.4-.2.6-.3c.2-.1.3-.3.3-.5s.1-.3.1-.5v-1Z"/>
    <path d="M355.1,38.8c.1-.4.3-.7.5-1,.2-.3.5-.5.9-.6.4-.2.8-.2,1.2-.2s.7,0,1,.2c.3.1.6.3.8.5.2.2.4.5.6.8.1.3.2.7.2,1.1s0,.7-.2,1c-.1.3-.3.5-.5.8-.2.2-.4.4-.7.6s-.5.4-.8.5c-.3.2-.5.3-.8.5-.3.2-.5.3-.7.5-.2.2-.4.4-.6.6-.2.2-.3.4-.3.7h4.4v.9h-5.6c0-.5.1-.9.3-1.3.1-.4.3-.7.5-.9.2-.3.5-.5.7-.7.3-.2.6-.4.9-.6.4-.2.7-.4.9-.6.3-.2.5-.4.7-.6.2-.2.3-.4.4-.6s.1-.5.1-.8,0-.4-.1-.6c0-.2-.2-.3-.4-.5-.1-.1-.3-.2-.5-.3s-.4-.1-.6-.1-.5,0-.8.2c-.2.1-.4.3-.5.5-.1.2-.2.4-.3.7s0,.5,0,.8h-1c0-.4,0-.8.1-1.2Z"/>
    <path d="M363,37.5v9.5h1.3v.8h-2.2v-11.1h2.2v.8h-1.3Z"/>
    <path d="M367.5,46.3c-.1.3-.2.6-.4.8-.1.2-.2.4-.4.5-.1.1-.3.2-.5.3-.2,0-.4,0-.6,0s-.2,0-.4,0-.2,0-.3,0v-.9c0,0,.2,0,.3.1s.2,0,.3,0c.2,0,.4,0,.5-.2.1,0,.2-.2.3-.4l.4-1-2.5-6.2h1.2l1.8,5.1h0l1.7-5.1h1.1l-2.7,7Z"/>
    <path d="M371.5,47v-9.5h-1.3v-.8h2.2v11.1h-2.2v-.8h1.3Z"/>
    <path d="M375.2,37.5v9.5h1.3v.8h-2.2v-11.1h2.2v.8h-1.3Z"/>
    <path d="M376.8,39.3h1.3l1.5,2.2,1.5-2.2h1.2l-2.1,2.9,2.4,3.3h-1.3l-1.7-2.6-1.7,2.6h-1.2l2.3-3.3-2.2-2.9Z"/>
    <path d="M384,47v-9.5h-1.3v-.8h2.2v11.1h-2.2v-.8h1.3Z"/>
    <path d="M227.7,53.7v.8h0c.2-.3.4-.6.8-.8.4-.2.8-.2,1.2-.2s.9,0,1.3.3c.4.2.7.4.9.7.2.3.4.6.5,1,.1.4.2.8.2,1.2s0,.9-.2,1.2-.3.7-.5,1c-.2.3-.5.5-.9.7-.4.2-.8.3-1.2.3s-.3,0-.5,0c-.2,0-.4,0-.6-.2-.2,0-.4-.2-.5-.3s-.3-.3-.4-.5h0v3.2h-1v-8.6h1ZM231.3,55.9c0-.3-.2-.5-.3-.7-.2-.2-.4-.4-.6-.5s-.5-.2-.9-.2-.6,0-.9.2c-.2.1-.4.3-.6.5-.2.2-.3.5-.3.8,0,.3-.1.6-.1.9s0,.6.1.9c0,.3.2.5.3.8.2.2.4.4.6.5s.5.2.9.2.6,0,.9-.2.4-.3.6-.5c.1-.2.2-.5.3-.8,0-.3,0-.6,0-.9s0-.6-.1-.8Z"/>
    <path d="M234.7,53.7v1.3h0c.2-.5.6-.9.9-1.1.4-.2.8-.4,1.4-.3v1.1c-.4,0-.8,0-1,.2-.3.1-.5.3-.7.5-.2.2-.3.5-.4.8,0,.3-.1.7-.1,1.1v2.8h-1v-6.2h1Z"/>
    <path d="M237.8,52.6v-1.2h1v1.2h-1ZM238.8,53.7v6.2h-1v-6.2h1Z"/>
    <path d="M241.4,53.7v1h0c.4-.8,1.1-1.1,2-1.1s.7,0,1,.2c.3.1.5.3.7.5s.3.4.4.7c0,.3.1.6.1.9v4.1h-1v-4.2c0-.4-.1-.7-.3-.9-.2-.2-.5-.3-.9-.3s-.6,0-.8.1c-.2,0-.4.2-.6.4-.2.2-.3.4-.3.6,0,.2-.1.5-.1.8v3.5h-1v-6.2h1Z"/>
    <path d="M249.7,53.7v.9h-1.2v3.9c0,.1,0,.2,0,.3s0,.1.1.2c0,0,.1,0,.2,0,.1,0,.2,0,.4,0h.5v.9h-.8c-.3,0-.5,0-.7,0s-.3-.1-.5-.2-.2-.2-.3-.4,0-.4,0-.7v-3.9h-1.1v-.9h1.1v-1.9h1v1.9h1.2Z"/>
    <path d="M251.7,60.9c-.2-.4-.4-.9-.6-1.4s-.3-.9-.4-1.4c0-.5-.1-1-.1-1.5,0-.9.2-1.9.5-2.9.3-1,.8-1.9,1.4-2.7h.8c-.6.9-1,1.8-1.2,2.7-.2.9-.4,1.8-.4,2.8s.1,2,.4,2.9.7,1.8,1.2,2.7h-.8c-.3-.4-.5-.9-.8-1.3Z"/>
    <path d="M257.7,54.8c-.3-.2-.6-.3-1-.3s-.7,0-.9.2c-.2.1-.4.3-.6.5-.1.2-.3.5-.3.8,0,.3,0,.6,0,.9s0,.6.1.8c0,.3.2.5.3.7.1.2.3.4.6.5.2.1.5.2.8.2.5,0,.9-.1,1.2-.4.3-.3.5-.6.5-1.1h1c-.1.8-.4,1.4-.9,1.8s-1.1.6-1.9.6-.9,0-1.3-.2c-.4-.2-.7-.4-.9-.6s-.4-.6-.6-1c-.1-.4-.2-.8-.2-1.3s0-.9.2-1.3c.1-.4.3-.8.5-1.1s.5-.5.9-.7.8-.3,1.3-.3.7,0,1,.1c.3,0,.6.2.8.4s.4.4.6.7c.2.3.2.6.3,1h-1.1c0-.4-.2-.7-.5-.9Z"/>
    <path d="M265.9,59.9c-.2.1-.4.2-.7.2s-.5,0-.6-.2c-.2-.1-.2-.4-.2-.7-.3.3-.6.6-1,.7-.4.1-.8.2-1.2.2s-.5,0-.8,0c-.3,0-.5-.2-.7-.3-.2-.1-.3-.3-.4-.5-.1-.2-.2-.5-.2-.8s0-.6.2-.9.3-.4.5-.5.4-.2.7-.3.5-.1.8-.2c.3,0,.5,0,.8-.1s.5,0,.7-.1.3-.1.5-.2c.1-.1.2-.2.2-.4s0-.4-.1-.5-.2-.2-.3-.3c-.1,0-.3-.1-.4-.1-.2,0-.3,0-.5,0-.4,0-.8,0-1.1.2s-.4.5-.5.9h-1c0-.4,0-.7.2-1,.1-.3.3-.5.6-.6.2-.2.5-.3.8-.4.3,0,.6-.1,1-.1s.6,0,.8,0c.3,0,.5.1.8.2.2.1.4.3.5.5s.2.5.2.9v3.2c0,.2,0,.4,0,.5,0,.1.1.2.3.2s.2,0,.3,0v.8ZM264.2,56.7c-.1,0-.3.2-.5.2s-.4,0-.7.1c-.2,0-.5,0-.7,0-.2,0-.4,0-.6.2-.2,0-.3.2-.5.3-.1.1-.2.3-.2.6s0,.3.1.4c0,.1.2.2.3.3.1,0,.2.1.4.2.1,0,.3,0,.5,0,.3,0,.6,0,.9-.1s.4-.2.6-.3c.2-.1.3-.3.3-.5s.1-.3.1-.5v-1Z"/>
    <path d="M267.9,51.3v8.6h-1v-8.6h1Z"/>
    <path d="M273.2,54.8c-.3-.2-.6-.3-1-.3s-.7,0-.9.2c-.2.1-.4.3-.6.5-.1.2-.3.5-.3.8,0,.3,0,.6,0,.9s0,.6.1.8c0,.3.2.5.3.7.1.2.3.4.6.5.2.1.5.2.8.2.5,0,.9-.1,1.2-.4.3-.3.5-.6.5-1.1h1c-.1.8-.4,1.4-.9,1.8s-1.1.6-1.9.6-.9,0-1.3-.2c-.4-.2-.7-.4-.9-.6s-.4-.6-.6-1c-.1-.4-.2-.8-.2-1.3s0-.9.2-1.3c.1-.4.3-.8.5-1.1s.5-.5.9-.7.8-.3,1.3-.3.7,0,1,.1c.3,0,.6.2.8.4s.4.4.6.7c.2.3.2.6.3,1h-1.1c0-.4-.2-.7-.5-.9Z"/>
    <path d="M277.5,58.6v1.2c0,.5-.1.8-.3,1.2s-.5.6-1,.7v-.6c.1,0,.2-.1.3-.2,0,0,.2-.2.2-.3,0-.1,0-.2.1-.3,0-.1,0-.2,0-.3h-.7v-1.3h1.3Z"/>
    <path d="M287,59.5c-.5.4-1,.5-1.8.5s-.9,0-1.3-.2c-.4-.2-.7-.4-.9-.7s-.4-.6-.6-1c-.1-.4-.2-.8-.2-1.3,0-.5,0-.9.2-1.3.1-.4.3-.7.6-1,.3-.3.6-.5.9-.7.4-.2.7-.2,1.2-.2s1,.1,1.4.3c.4.2.7.5.9.9.2.4.4.7.5,1.2,0,.4.1.8.1,1.2h-4.6c0,.3,0,.5,0,.8,0,.2.2.5.3.6.2.2.4.3.6.5.2.1.5.2.9.2s.8,0,1.1-.3c.3-.2.5-.5.5-.9h1c-.1.7-.4,1.2-.9,1.6ZM286.8,55.5c0-.2-.2-.4-.4-.6-.2-.2-.3-.3-.6-.4-.2,0-.4-.1-.7-.1s-.5,0-.7.1c-.2,0-.4.2-.5.4-.2.2-.3.3-.4.6s-.1.4-.2.7h3.6c0-.2,0-.5-.2-.7Z"/>
    <path d="M290,53.7v1h0c.4-.8,1.1-1.1,2-1.1s.7,0,1,.2c.3.1.5.3.7.5s.3.4.4.7c0,.3.1.6.1.9v4.1h-1v-4.2c0-.4-.1-.7-.3-.9-.2-.2-.5-.3-.9-.3s-.6,0-.8.1c-.2,0-.4.2-.6.4-.2.2-.3.4-.3.6,0,.2-.1.5-.1.8v3.5h-1v-6.2h1Z"/>
    <path d="M300.3,59.9v-.8h0c-.2.3-.4.6-.8.7-.4.2-.8.2-1.2.2s-.9,0-1.3-.3c-.4-.2-.7-.4-.9-.7-.2-.3-.4-.6-.5-1-.1-.4-.2-.8-.2-1.2s0-.9.2-1.2c.1-.4.3-.7.5-1s.5-.5.9-.7c.4-.2.8-.3,1.2-.3s.3,0,.5,0c.2,0,.4,0,.6.2.2,0,.4.2.5.3s.3.3.4.5h0v-3.2h1v8.6h-1ZM296.6,57.7c0,.3.2.5.3.7.2.2.4.4.6.5s.5.2.9.2.6,0,.9-.2c.2-.1.4-.3.6-.5.2-.2.3-.5.3-.8,0-.3.1-.6.1-.9s0-.6-.1-.9c0-.3-.2-.5-.3-.8-.2-.2-.4-.4-.6-.5-.2-.1-.5-.2-.9-.2s-.6,0-.9.2c-.2.1-.4.3-.6.5-.1.2-.2.5-.3.8,0,.3,0,.6,0,.9s0,.6.1.8Z"/>
    <path d="M306,56.1v-.8h6v.8h-6ZM312,57.7v.8h-6v-.8h6Z"/>
    <path d="M318.1,51.3v3.1h-.8v-3.1h.8ZM319.8,51.3v3.1h-.8v-3.1h.8Z"/>
    <path d="M324.4,60.1l-3.5-9h.9l3.6,9h-.9Z"/>
    <path d="M328.5,53.7v.9h-1.2v3.9c0,.1,0,.2,0,.3s0,.1.1.2c0,0,.1,0,.2,0,.1,0,.2,0,.4,0h.5v.9h-.8c-.3,0-.5,0-.7,0s-.3-.1-.5-.2-.2-.2-.3-.4,0-.4,0-.7v-3.9h-1.1v-.9h1.1v-1.9h1v1.9h1.2Z"/>
    <path d="M331,51.3v3.1h-.8v-3.1h.8ZM332.7,51.3v3.1h-.8v-3.1h.8Z"/>
    <path d="M335.1,59.6c.2-.9.4-1.8.4-2.8s-.1-2-.4-2.9c-.2-.9-.6-1.8-1.2-2.7h.8c.3.4.5.9.8,1.3.2.4.4.9.6,1.4s.3.9.4,1.4c0,.5.1,1,.1,1.5,0,.9-.2,1.9-.5,2.9-.3,1-.8,1.8-1.4,2.7h-.8c.6-.9,1-1.8,1.2-2.7Z"/>
    <path d="M201,68.1v.8h0c.2-.3.4-.6.8-.8.4-.2.8-.2,1.2-.2s.9,0,1.3.3c.4.2.7.4.9.7.2.3.4.6.5,1,.1.4.2.8.2,1.2s0,.9-.2,1.2-.3.7-.5,1c-.2.3-.5.5-.9.7-.4.2-.8.3-1.2.3s-.3,0-.5,0c-.2,0-.4,0-.6-.2-.2,0-.4-.2-.5-.3s-.3-.3-.4-.5h0v3.2h-1v-8.6h1ZM204.7,70.3c0-.3-.2-.5-.3-.7-.2-.2-.4-.4-.6-.5s-.5-.2-.9-.2-.6,0-.9.2c-.2.1-.4.3-.6.5-.2.2-.3.5-.3.8,0,.3-.1.6-.1.9s0,.6.1.9c0,.3.2.5.3.8.2.2.4.4.6.5s.5.2.9.2.6,0,.9-.2.4-.3.6-.5c.1-.2.2-.5.3-.8,0-.3,0-.6,0-.9s0-.6-.1-.8Z"/>
    <path d="M208,68.1v1.3h0c.2-.5.6-.9.9-1.1.4-.2.8-.4,1.4-.3v1.1c-.4,0-.8,0-1,.2-.3.1-.5.3-.7.5-.2.2-.3.5-.4.8,0,.3-.1.7-.1,1.1v2.8h-1v-6.2h1Z"/>
    <path d="M211.1,67v-1.2h1v1.2h-1ZM212.1,68.1v6.2h-1v-6.2h1Z"/>
    <path d="M214.7,68.1v1h0c.4-.8,1.1-1.1,2-1.1s.7,0,1,.2c.3.1.5.3.7.5s.3.4.4.7c0,.3.1.6.1.9v4.1h-1v-4.2c0-.4-.1-.7-.3-.9-.2-.2-.5-.3-.9-.3s-.6,0-.8.1c-.2,0-.4.2-.6.4-.2.2-.3.4-.3.6,0,.2-.1.5-.1.8v3.5h-1v-6.2h1Z"/>
    <path d="M223,68.1v.9h-1.2v3.9c0,.1,0,.2,0,.3s0,.1.1.2c0,0,.1,0,.2,0,.1,0,.2,0,.4,0h.5v.9h-.8c-.3,0-.5,0-.7,0s-.3-.1-.5-.2-.2-.2-.3-.4,0-.4,0-.7v-3.9h-1.1v-.9h1.1v-1.9h1v1.9h1.2Z"/>
    <path d="M225.1,75.3c-.2-.4-.4-.9-.6-1.4s-.3-.9-.4-1.4c0-.5-.1-1-.1-1.5,0-.9.2-1.9.5-2.9.3-1,.8-1.9,1.4-2.7h.8c-.6.9-1,1.8-1.2,2.7-.2.9-.4,1.8-.4,2.8s.1,2,.4,2.9.7,1.8,1.2,2.7h-.8c-.3-.4-.5-.9-.8-1.3Z"/>
    <path d="M227.6,74c.2-.9.4-1.8.4-2.8s-.1-2-.4-2.9c-.2-.9-.6-1.8-1.2-2.7h.8c.3.4.5.9.8,1.3.2.4.4.9.6,1.4s.3.9.4,1.4c0,.5.1,1,.1,1.5,0,.9-.2,1.9-.5,2.9-.3,1-.8,1.8-1.4,2.7h-.8c.6-.9,1-1.8,1.2-2.7Z"/>
  </g>
  <line class="st0" x1="218.8" y1="32.9" x2="218.8" y2="55.4"/>
  <line class="st0" x1="206.1" y1="19.5" x2="206.1" y2="63.1"/>
  <polyline class="st0" points="318.1 26.8 396.9 26.8 396.9 55.4 342.7 55.4"/>
  <g>
    <path d="M199.3,98v-.9h1v-.9c0-.5.1-.9.4-1.1s.7-.4,1.3-.4.2,0,.3,0c.1,0,.2,0,.3,0v.9c0,0-.2,0-.3,0-.1,0-.2,0-.3,0-.2,0-.4,0-.6.1-.1,0-.2.3-.2.6v.9h1.2v.9h-1.2v5.3h-1v-5.3h-1Z"/>
    <path d="M203.3,98.9c.1-.4.3-.7.6-1s.6-.5.9-.7c.4-.2.8-.3,1.3-.3s.9,0,1.3.3.7.4.9.7c.3.3.4.6.6,1s.2.8.2,1.3,0,.9-.2,1.3c-.1.4-.3.7-.6,1-.3.3-.6.5-.9.7-.4.2-.8.2-1.3.2s-.9,0-1.3-.2c-.4-.2-.7-.4-.9-.7s-.4-.6-.6-1c-.1-.4-.2-.8-.2-1.3s0-.9.2-1.3ZM204.4,101.2c0,.3.2.5.4.7.2.2.4.3.6.4.2.1.5.2.8.2s.5,0,.8-.2c.2-.1.4-.3.6-.4.2-.2.3-.4.4-.7.1-.3.2-.6.2-1s0-.7-.2-1c0-.3-.2-.5-.4-.7-.2-.2-.4-.4-.6-.5-.2-.1-.5-.2-.8-.2s-.5,0-.8.2c-.2.1-.4.3-.6.5-.2.2-.3.4-.4.7-.1.3-.2.6-.2,1s0,.7.2,1Z"/>
    <path d="M211.3,97.1v1.3h0c.2-.5.6-.9.9-1.1.4-.2.8-.4,1.4-.3v1.1c-.4,0-.8,0-1,.2-.3.1-.5.3-.7.5-.2.2-.3.5-.4.8,0,.3-.1.7-.1,1.1v2.8h-1v-6.2h1Z"/>
    <path d="M220.1,104.1c-.1.3-.2.6-.4.8-.1.2-.2.4-.4.5-.1.1-.3.2-.5.3-.2,0-.4,0-.6,0s-.2,0-.4,0-.2,0-.3,0v-.9c0,0,.2,0,.3.1s.2,0,.3,0c.2,0,.4,0,.5-.2.1,0,.2-.2.3-.4l.4-1-2.5-6.2h1.2l1.8,5.1h0l1.7-5.1h1.1l-2.7,7Z"/>
    <path d="M227.1,96v-1.2h1v1.2h-1ZM228.1,97.1v6.2h-1v-6.2h1Z"/>
    <path d="M230.7,97.1v1h0c.4-.8,1.1-1.1,2-1.1s.7,0,1,.2c.3.1.5.3.7.5s.3.4.4.7c0,.3.1.6.1.9v4.1h-1v-4.2c0-.4-.1-.7-.3-.9s-.5-.3-.9-.3-.6,0-.8.1c-.2,0-.4.2-.6.4-.2.2-.3.4-.3.6,0,.2-.1.5-.1.8v3.5h-1v-6.2h1Z"/>
    <path d="M240.6,97.1v1.3h0c.2-.5.6-.9.9-1.1.4-.2.8-.4,1.4-.3v1.1c-.4,0-.8,0-1,.2-.3.1-.5.3-.7.5-.2.2-.3.5-.4.8,0,.3-.1.7-.1,1.1v2.8h-1v-6.2h1Z"/>
    <path d="M249.2,103.3c-.2.1-.4.2-.7.2s-.5,0-.6-.2c-.2-.1-.2-.4-.2-.7-.3.3-.6.6-1,.7-.4.1-.8.2-1.2.2s-.5,0-.8,0c-.3,0-.5-.2-.7-.3-.2-.1-.3-.3-.4-.5-.1-.2-.2-.5-.2-.8s0-.6.2-.9.3-.4.5-.5.4-.2.7-.3c.3,0,.5-.1.8-.2.3,0,.5,0,.8-.1s.5,0,.7-.1c.2,0,.3-.1.5-.2.1-.1.2-.2.2-.4s0-.4-.1-.5c0-.1-.2-.2-.3-.3-.1,0-.3-.1-.4-.1s-.3,0-.5,0c-.4,0-.8,0-1.1.2-.3.2-.4.5-.5.9h-1c0-.4,0-.7.2-1,.1-.3.3-.5.6-.6.2-.2.5-.3.8-.4.3,0,.6-.1,1-.1s.6,0,.8,0c.3,0,.5.1.8.2.2.1.4.3.5.5.1.2.2.5.2.9v3.2c0,.2,0,.4,0,.5s.1.2.3.2.2,0,.3,0v.8ZM247.5,100.1c-.1,0-.3.2-.5.2-.2,0-.4,0-.7.1-.2,0-.5,0-.7,0-.2,0-.4,0-.6.2-.2,0-.3.2-.5.3-.1.1-.2.3-.2.6s0,.3.1.4c0,.1.2.2.3.3.1,0,.2.1.4.2.1,0,.3,0,.5,0,.3,0,.6,0,.9-.1s.4-.2.6-.3c.2-.1.3-.3.3-.5,0-.2.1-.3.1-.5v-1Z"/>
    <path d="M251.1,97.1v1h0c.4-.8,1.1-1.1,2-1.1s.7,0,1,.2c.3.1.5.3.7.5s.3.4.4.7c0,.3.1.6.1.9v4.1h-1v-4.2c0-.4-.1-.7-.3-.9s-.5-.3-.9-.3-.6,0-.8.1c-.2,0-.4.2-.6.4-.2.2-.3.4-.3.6,0,.2-.1.5-.1.8v3.5h-1v-6.2h1Z"/>
    <path d="M261.5,105c-.5.5-1.2.8-2.2.8s-.6,0-.9,0c-.3,0-.6-.2-.8-.3-.2-.1-.4-.3-.6-.6-.2-.2-.2-.5-.3-.9h1c0,.2,0,.3.2.5.1.1.2.2.4.3.2,0,.3.1.5.2.2,0,.4,0,.5,0,.3,0,.6,0,.9-.2.2-.1.4-.3.6-.5.2-.2.3-.5.3-.7,0-.3.1-.6.1-.9v-.4h0c-.2.4-.4.7-.8.8-.4.2-.7.3-1.1.3s-.9,0-1.2-.3c-.3-.2-.6-.4-.9-.7-.2-.3-.4-.6-.5-1-.1-.4-.2-.8-.2-1.2s0-.7.1-1.1c0-.4.3-.7.5-1.1.2-.3.5-.6.9-.8.4-.2.8-.3,1.4-.3s.8,0,1.1.3.6.4.8.8h0v-.9h1v5.7c0,1-.2,1.8-.7,2.3ZM260.2,102.2c.2-.1.4-.3.6-.6.1-.2.2-.5.3-.8,0-.3.1-.6.1-.9s0-.5,0-.8c0-.3-.2-.5-.3-.7s-.3-.4-.5-.5c-.2-.1-.5-.2-.8-.2s-.6,0-.8.2c-.2.1-.4.3-.6.5-.1.2-.3.4-.3.7,0,.3-.1.6-.1.9s0,.6,0,.8c0,.3.2.5.3.8s.3.4.5.6c.2.1.5.2.8.2s.6,0,.9-.2Z"/>
    <path d="M268.1,102.9c-.5.4-1,.5-1.8.5s-.9,0-1.3-.2c-.4-.2-.7-.4-.9-.7-.2-.3-.4-.6-.6-1s-.2-.8-.2-1.3c0-.5,0-.9.2-1.3.1-.4.3-.7.6-1s.6-.5.9-.7c.4-.2.7-.2,1.2-.2s1,.1,1.4.3.7.5.9.9c.2.4.4.7.5,1.2s.1.8.1,1.2h-4.6c0,.3,0,.5,0,.8,0,.2.2.5.3.6s.4.3.6.5c.2.1.5.2.9.2s.8-.1,1.1-.3c.3-.2.5-.5.5-.9h1c-.1.7-.4,1.2-.9,1.6ZM267.9,98.9c0-.2-.2-.4-.4-.6-.2-.2-.3-.3-.6-.4-.2,0-.4-.1-.7-.1s-.5,0-.7.1c-.2,0-.4.2-.5.4-.2.2-.3.3-.4.6s-.1.4-.2.7h3.6c0-.2,0-.5-.2-.7Z"/>
    <path d="M271.1,104.3c-.2-.4-.4-.9-.6-1.4-.2-.5-.3-.9-.4-1.4,0-.5-.1-1-.1-1.5,0-.9.2-1.9.5-2.9.3-1,.8-1.9,1.4-2.7h.8c-.6.9-1,1.8-1.2,2.7s-.4,1.8-.4,2.8.1,2,.4,2.9c.2.9.7,1.8,1.2,2.7h-.8c-.3-.4-.5-.9-.8-1.3Z"/>
    <path d="M275.7,103.3v-6.1h-2.2v-.8c.3,0,.6,0,.8,0,.3,0,.5-.1.7-.2s.4-.3.6-.5c.2-.2.3-.5.3-.8h.8v8.5h-1Z"/>
    <path d="M279.7,98.1c0-.3,0-.7.1-1,0-.3.2-.6.3-.9s.3-.5.5-.8c.2-.2.5-.4.8-.5.3-.1.7-.2,1.1-.2s.8,0,1.1.2c.3.1.6.3.8.5.2.2.4.5.5.8s.2.6.3.9c0,.3.1.6.1,1,0,.3,0,.7,0,1s0,.6,0,1c0,.3,0,.7-.1,1,0,.3-.2.6-.3.9-.1.3-.3.5-.5.8s-.5.4-.8.5c-.3.1-.7.2-1.1.2s-.8,0-1.1-.2c-.3-.1-.6-.3-.8-.5s-.4-.5-.5-.8c-.1-.3-.2-.6-.3-.9,0-.3-.1-.6-.1-1,0-.3,0-.7,0-1s0-.6,0-1ZM280.8,100.2c0,.4,0,.8.2,1.1.1.3.3.6.5.9.2.2.6.4,1,.4s.8-.1,1-.4c.2-.2.4-.5.5-.9.1-.3.2-.7.2-1.1,0-.4,0-.8,0-1.1s0-.4,0-.7,0-.5,0-.8c0-.3,0-.5-.2-.7,0-.2-.2-.4-.3-.6-.1-.2-.3-.3-.5-.4-.2-.1-.4-.2-.7-.2s-.5,0-.7.2c-.2.1-.4.3-.5.4-.1.2-.2.4-.3.6,0,.2-.1.5-.2.7,0,.3,0,.5,0,.8s0,.5,0,.7c0,.3,0,.7,0,1.1Z"/>
    <path d="M286.9,102.9c.2-.9.4-1.8.4-2.8s-.1-2-.4-2.9c-.2-.9-.6-1.8-1.2-2.7h.8c.3.4.5.9.8,1.3.2.4.4.9.6,1.4.2.5.3.9.4,1.4s.1,1,.1,1.5c0,.9-.2,1.9-.5,2.8-.3,1-.8,1.8-1.4,2.7h-.8c.6-.9,1-1.8,1.2-2.7Z"/>
    <path d="M289.9,98.4v-1.3h1.3v1.3h-1.3ZM291.3,101.9v1.3h-1.3v-1.3h1.3Z"/>
    <path d="M212.7,112.4v-.9h1v-.9c0-.5.1-.9.4-1.1.3-.3.7-.4,1.3-.4s.2,0,.3,0c.1,0,.2,0,.3,0v.9c0,0-.2,0-.3,0-.1,0-.2,0-.3,0-.2,0-.4,0-.6.1-.1,0-.2.3-.2.6v.9h1.2v.9h-1.2v5.3h-1v-5.3h-1Z"/>
    <path d="M216.7,113.3c.1-.4.3-.7.6-1s.6-.5.9-.7c.4-.2.8-.3,1.3-.3s.9,0,1.3.3.7.4.9.7c.3.3.4.6.6,1,.1.4.2.8.2,1.3s0,.9-.2,1.3c-.1.4-.3.7-.6,1-.3.3-.6.5-.9.7s-.8.2-1.3.2-.9,0-1.3-.2c-.4-.2-.7-.4-.9-.7s-.4-.6-.6-1c-.1-.4-.2-.8-.2-1.3s0-.9.2-1.3ZM217.7,115.6c0,.3.2.5.4.7.2.2.4.3.6.5.2.1.5.2.8.2s.5,0,.8-.2c.2-.1.4-.3.6-.5.2-.2.3-.4.4-.7.1-.3.2-.6.2-1s0-.7-.2-1c0-.3-.2-.5-.4-.7-.2-.2-.4-.4-.6-.5-.2-.1-.5-.2-.8-.2s-.5,0-.8.2c-.2.1-.4.3-.6.5s-.3.4-.4.7c-.1.3-.2.6-.2,1s0,.7.2,1Z"/>
    <path d="M224.6,111.5v1.3h0c.2-.5.6-.9.9-1.1.4-.2.8-.4,1.4-.3v1.1c-.4,0-.8,0-1,.2-.3.1-.5.3-.7.5-.2.2-.3.5-.4.8,0,.3-.1.7-.1,1.1v2.8h-1v-6.2h1Z"/>
    <path d="M230.6,111.5h1.3l1.5,2.2,1.5-2.2h1.2l-2.1,2.9,2.4,3.3h-1.3l-1.7-2.6-1.7,2.6h-1.2l2.3-3.3-2.2-2.9Z"/>
    <path d="M240.7,110.4v-1.2h1v1.2h-1ZM241.7,111.5v6.2h-1v-6.2h1Z"/>
    <path d="M244.2,111.5v1h0c.4-.8,1.1-1.1,2-1.1s.7,0,1,.2c.3.1.5.3.7.5s.3.4.4.7c0,.3.1.6.1.9v4.1h-1v-4.2c0-.4-.1-.7-.3-.9-.2-.2-.5-.3-.9-.3s-.6,0-.8.1c-.2,0-.4.2-.6.4-.2.2-.3.4-.3.6,0,.2-.1.5-.1.8v3.5h-1v-6.2h1Z"/>
    <path d="M254.2,111.5v1.3h0c.2-.5.6-.9.9-1.1.4-.2.8-.4,1.4-.3v1.1c-.4,0-.8,0-1,.2-.3.1-.5.3-.7.5-.2.2-.3.5-.4.8,0,.3-.1.7-.1,1.1v2.8h-1v-6.2h1Z"/>
    <path d="M262.8,117.7c-.2.1-.4.2-.7.2s-.5,0-.6-.2c-.2-.1-.2-.4-.2-.7-.3.3-.6.6-1,.7-.4.1-.8.2-1.2.2s-.5,0-.8,0c-.3,0-.5-.2-.7-.3-.2-.1-.3-.3-.4-.5-.1-.2-.2-.5-.2-.8s0-.6.2-.9.3-.4.5-.5.4-.2.7-.3.5-.1.8-.2c.3,0,.5,0,.8-.1s.5,0,.7-.1.3-.1.5-.2c.1-.1.2-.2.2-.4s0-.4-.1-.5-.2-.2-.3-.3c-.1,0-.3-.1-.4-.1-.2,0-.3,0-.5,0-.4,0-.8,0-1.1.2s-.4.5-.5.9h-1c0-.4,0-.7.2-1,.1-.3.3-.5.6-.6.2-.2.5-.3.8-.4.3,0,.6-.1,1-.1s.6,0,.8,0c.3,0,.5.1.8.2.2.1.4.3.5.5s.2.5.2.9v3.2c0,.2,0,.4,0,.5,0,.1.1.2.3.2s.2,0,.3,0v.8ZM261.1,114.5c-.1,0-.3.2-.5.2s-.4,0-.7.1c-.2,0-.5,0-.7,0-.2,0-.4,0-.6.2-.2,0-.3.2-.5.3-.1.1-.2.3-.2.6s0,.3.1.4c0,.1.2.2.3.3.1,0,.2.1.4.2.1,0,.3,0,.5,0,.3,0,.6,0,.9-.1s.4-.2.6-.3c.2-.1.3-.3.3-.5s.1-.3.1-.5v-1Z"/>
    <path d="M264.7,111.5v1h0c.4-.8,1.1-1.1,2-1.1s.7,0,1,.2c.3.1.5.3.7.5s.3.4.4.7c0,.3.1.6.1.9v4.1h-1v-4.2c0-.4-.1-.7-.3-.9-.2-.2-.5-.3-.9-.3s-.6,0-.8.1c-.2,0-.4.2-.6.4-.2.2-.3.4-.3.6,0,.2-.1.5-.1.8v3.5h-1v-6.2h1Z"/>
    <path d="M275,119.4c-.5.5-1.2.8-2.2.8s-.6,0-.9,0c-.3,0-.6-.2-.8-.3-.2-.1-.4-.3-.6-.6-.2-.2-.2-.5-.3-.9h1c0,.2,0,.3.2.5.1.1.2.2.4.3.2,0,.3.1.5.2.2,0,.4,0,.5,0,.3,0,.6,0,.9-.2.2-.1.4-.3.6-.5.2-.2.3-.5.3-.7,0-.3.1-.6.1-.9v-.4h0c-.2.4-.4.7-.8.8-.4.2-.7.3-1.1.3s-.9,0-1.2-.3c-.3-.2-.6-.4-.9-.7s-.4-.6-.5-1c-.1-.4-.2-.8-.2-1.2s0-.7.1-1.1.3-.7.5-1.1c.2-.3.5-.6.9-.8.4-.2.8-.3,1.4-.3s.8,0,1.1.3.6.4.8.8h0v-.9h1v5.7c0,1-.2,1.8-.7,2.3ZM273.7,116.6c.2-.1.4-.3.6-.6.1-.2.2-.5.3-.8,0-.3.1-.6.1-.9s0-.5,0-.8c0-.3-.2-.5-.3-.7s-.3-.4-.5-.5c-.2-.1-.5-.2-.8-.2s-.6,0-.8.2-.4.3-.6.5c-.1.2-.3.4-.3.7,0,.3-.1.6-.1.9s0,.6,0,.8c0,.3.2.5.3.8.1.2.3.4.5.6.2.1.5.2.8.2s.6,0,.9-.2Z"/>
    <path d="M281.7,117.3c-.5.4-1,.5-1.8.5s-.9,0-1.3-.2c-.4-.2-.7-.4-.9-.7s-.4-.6-.6-1c-.1-.4-.2-.8-.2-1.3,0-.5,0-.9.2-1.3.1-.4.3-.7.6-1,.3-.3.6-.5.9-.7.4-.2.7-.2,1.2-.2s1,.1,1.4.3c.4.2.7.5.9.9.2.4.4.7.5,1.2,0,.4.1.8.1,1.2h-4.6c0,.3,0,.5,0,.8,0,.2.2.5.3.6.2.2.4.3.6.5.2.1.5.2.9.2s.8,0,1.1-.3c.3-.2.5-.5.5-.9h1c-.1.7-.4,1.2-.9,1.6ZM281.4,113.3c0-.2-.2-.4-.4-.6-.2-.2-.3-.3-.6-.4-.2,0-.4-.1-.7-.1s-.5,0-.7.1c-.2,0-.4.2-.5.4-.2.2-.3.3-.4.6s-.1.4-.2.7h3.6c0-.2,0-.5-.2-.7Z"/>
    <path d="M284.6,118.7c-.2-.4-.4-.9-.6-1.4s-.3-.9-.4-1.4c0-.5-.1-1-.1-1.5,0-.9.2-1.9.5-2.9.3-1,.8-1.9,1.4-2.7h.8c-.6.9-1,1.8-1.2,2.7-.2.9-.4,1.8-.4,2.8s.1,2,.4,2.9.7,1.8,1.2,2.7h-.8c-.3-.4-.5-.9-.8-1.3Z"/>
    <path d="M289.3,117.7v-6.1h-2.2v-.8c.3,0,.6,0,.8,0,.3,0,.5-.1.7-.2s.4-.3.6-.5c.2-.2.3-.5.3-.8h.8v8.5h-1Z"/>
    <path d="M293.3,112.5c0-.3,0-.7.1-1,0-.3.2-.6.3-.9s.3-.5.5-.8.5-.4.8-.5c.3-.1.7-.2,1.1-.2s.8,0,1.1.2c.3.1.6.3.8.5s.4.5.5.8.2.6.3.9c0,.3.1.6.1,1,0,.3,0,.7,0,1s0,.6,0,1c0,.3,0,.7-.1,1,0,.3-.2.6-.3.9-.1.3-.3.5-.5.8-.2.2-.5.4-.8.5-.3.1-.7.2-1.1.2s-.8,0-1.1-.2c-.3-.1-.6-.3-.8-.5-.2-.2-.4-.5-.5-.8-.1-.3-.2-.6-.3-.9,0-.3-.1-.6-.1-1,0-.3,0-.7,0-1s0-.6,0-1ZM294.3,114.6c0,.4,0,.8.2,1.1.1.3.3.6.5.9s.6.4,1,.4.8-.1,1-.4.4-.5.5-.9c.1-.3.2-.7.2-1.1,0-.4,0-.8,0-1.1s0-.4,0-.7,0-.5,0-.8c0-.3,0-.5-.2-.7,0-.2-.2-.5-.3-.6-.1-.2-.3-.3-.5-.4-.2-.1-.4-.2-.7-.2s-.5,0-.7.2c-.2.1-.4.3-.5.4-.1.2-.2.4-.3.6,0,.2-.1.5-.2.7,0,.3,0,.5,0,.8s0,.5,0,.7c0,.3,0,.7,0,1.1Z"/>
    <path d="M300.5,117.3c.2-.9.4-1.8.4-2.8s-.1-2-.4-2.9c-.2-.9-.6-1.8-1.2-2.7h.8c.3.4.5.9.8,1.3.2.4.4.9.6,1.4s.3.9.4,1.4c0,.5.1,1,.1,1.5,0,.9-.2,1.9-.5,2.9-.3,1-.8,1.8-1.4,2.7h-.8c.6-.9,1-1.8,1.2-2.7Z"/>
    <path d="M303.5,112.8v-1.3h1.3v1.3h-1.3ZM304.8,116.3v1.3h-1.3v-1.3h1.3Z"/>
    <path d="M230.3,127c-.3-.2-.6-.3-1-.3s-.7,0-.9.2c-.2.1-.4.3-.6.5-.1.2-.3.5-.3.8,0,.3,0,.6,0,.9s0,.6.1.8c0,.3.2.5.3.7.1.2.3.4.6.5.2.1.5.2.8.2.5,0,.9-.1,1.2-.4.3-.3.5-.6.5-1.1h1c-.1.8-.4,1.4-.9,1.8s-1.1.6-1.9.6-.9,0-1.3-.2c-.4-.2-.7-.4-.9-.6s-.4-.6-.6-1c-.1-.4-.2-.8-.2-1.3s0-.9.2-1.3c.1-.4.3-.8.5-1.1s.5-.5.9-.7.8-.3,1.3-.3.7,0,1,.1c.3,0,.6.2.8.4s.4.4.6.7c.2.3.2.6.3,1h-1.1c0-.4-.2-.7-.5-.9Z"/>
    <path d="M238.6,132.1c-.2.1-.4.2-.7.2s-.5,0-.6-.2c-.2-.1-.2-.4-.2-.7-.3.3-.6.6-1,.7-.4.1-.8.2-1.2.2s-.5,0-.8,0c-.3,0-.5-.2-.7-.3-.2-.1-.3-.3-.4-.5-.1-.2-.2-.5-.2-.8s0-.6.2-.9.3-.4.5-.5.4-.2.7-.3.5-.1.8-.2c.3,0,.5,0,.8-.1s.5,0,.7-.1.3-.1.5-.2c.1-.1.2-.2.2-.4s0-.4-.1-.5-.2-.2-.3-.3c-.1,0-.3-.1-.4-.1-.2,0-.3,0-.5,0-.4,0-.8,0-1.1.2s-.4.5-.5.9h-1c0-.4,0-.7.2-1,.1-.3.3-.5.6-.6.2-.2.5-.3.8-.4.3,0,.6-.1,1-.1s.6,0,.8,0c.3,0,.5.1.8.2.2.1.4.3.5.5s.2.5.2.9v3.2c0,.2,0,.4,0,.5,0,.1.1.2.3.2s.2,0,.3,0v.8ZM236.9,128.9c-.1,0-.3.2-.5.2s-.4,0-.7.1c-.2,0-.5,0-.7,0-.2,0-.4,0-.6.2-.2,0-.3.2-.5.3-.1.1-.2.3-.2.6s0,.3.1.4c0,.1.2.2.3.3.1,0,.2.1.4.2.1,0,.3,0,.5,0,.3,0,.6,0,.9-.1s.4-.2.6-.3c.2-.1.3-.3.3-.5s.1-.3.1-.5v-1Z"/>
    <path d="M240.6,123.5v8.6h-1v-8.6h1Z"/>
    <path d="M245.9,127c-.3-.2-.6-.3-1-.3s-.7,0-.9.2c-.2.1-.4.3-.6.5-.1.2-.3.5-.3.8,0,.3,0,.6,0,.9s0,.6.1.8c0,.3.2.5.3.7.1.2.3.4.6.5.2.1.5.2.8.2.5,0,.9-.1,1.2-.4.3-.3.5-.6.5-1.1h1c-.1.8-.4,1.4-.9,1.8s-1.1.6-1.9.6-.9,0-1.3-.2c-.4-.2-.7-.4-.9-.6s-.4-.6-.6-1c-.1-.4-.2-.8-.2-1.3s0-.9.2-1.3c.1-.4.3-.8.5-1.1s.5-.5.9-.7.8-.3,1.3-.3.7,0,1,.1c.3,0,.6.2.8.4s.4.4.6.7c.2.3.2.6.3,1h-1.1c0-.4-.2-.7-.5-.9Z"/>
    <path d="M251.8,128.2v-.8h6v.8h-6ZM257.8,129.8v.8h-6v-.8h6Z"/>
    <path d="M267,132.1v-.8h0c-.2.3-.4.6-.8.7-.4.2-.8.2-1.2.2s-.9,0-1.3-.3c-.4-.2-.7-.4-.9-.7-.2-.3-.4-.6-.5-1-.1-.4-.2-.8-.2-1.2s0-.9.2-1.2c.1-.4.3-.7.5-1s.5-.5.9-.7c.4-.2.8-.3,1.2-.3s.3,0,.5,0c.2,0,.4,0,.6.2.2,0,.4.2.5.3s.3.3.4.5h0v-3.2h1v8.6h-1ZM263.3,129.9c0,.3.2.5.3.7.2.2.4.4.6.5s.5.2.9.2.6,0,.9-.2c.2-.1.4-.3.6-.5.2-.2.3-.5.3-.8,0-.3.1-.6.1-.9s0-.6-.1-.9c0-.3-.2-.5-.3-.8-.2-.2-.4-.4-.6-.5-.2-.1-.5-.2-.9-.2s-.6,0-.9.2c-.2.1-.4.3-.6.5-.1.2-.2.5-.3.8,0,.3,0,.6,0,.9s0,.6.1.8Z"/>
    <path d="M275.1,132.1c-.2.1-.4.2-.7.2s-.5,0-.6-.2c-.2-.1-.2-.4-.2-.7-.3.3-.6.6-1,.7-.4.1-.8.2-1.2.2s-.5,0-.8,0c-.3,0-.5-.2-.7-.3-.2-.1-.3-.3-.4-.5-.1-.2-.2-.5-.2-.8s0-.6.2-.9.3-.4.5-.5.4-.2.7-.3.5-.1.8-.2c.3,0,.5,0,.8-.1s.5,0,.7-.1.3-.1.5-.2c.1-.1.2-.2.2-.4s0-.4-.1-.5-.2-.2-.3-.3c-.1,0-.3-.1-.4-.1-.2,0-.3,0-.5,0-.4,0-.8,0-1.1.2s-.4.5-.5.9h-1c0-.4,0-.7.2-1,.1-.3.3-.5.6-.6.2-.2.5-.3.8-.4.3,0,.6-.1,1-.1s.6,0,.8,0c.3,0,.5.1.8.2.2.1.4.3.5.5s.2.5.2.9v3.2c0,.2,0,.4,0,.5,0,.1.1.2.3.2s.2,0,.3,0v.8ZM273.4,128.9c-.1,0-.3.2-.5.2s-.4,0-.7.1c-.2,0-.5,0-.7,0-.2,0-.4,0-.6.2-.2,0-.3.2-.5.3-.1.1-.2.3-.2.6s0,.3.1.4c0,.1.2.2.3.3.1,0,.2.1.4.2.1,0,.3,0,.5,0,.3,0,.6,0,.9-.1s.4-.2.6-.3c.2-.1.3-.3.3-.5s.1-.3.1-.5v-1Z"/>
    <path d="M278.7,125.9v.9h-1.2v3.9c0,.1,0,.2,0,.3s0,.1.1.2c0,0,.1,0,.2,0,.1,0,.2,0,.4,0h.5v.9h-.8c-.3,0-.5,0-.7,0s-.3-.1-.5-.2-.2-.2-.3-.4,0-.4,0-.7v-3.9h-1.1v-.9h1.1v-1.9h1v1.9h1.2Z"/>
    <path d="M285.3,132.1c-.2.1-.4.2-.7.2s-.5,0-.6-.2c-.2-.1-.2-.4-.2-.7-.3.3-.6.6-1,.7-.4.1-.8.2-1.2.2s-.5,0-.8,0c-.3,0-.5-.2-.7-.3-.2-.1-.3-.3-.4-.5-.1-.2-.2-.5-.2-.8s0-.6.2-.9.3-.4.5-.5.4-.2.7-.3.5-.1.8-.2c.3,0,.5,0,.8-.1s.5,0,.7-.1.3-.1.5-.2c.1-.1.2-.2.2-.4s0-.4-.1-.5-.2-.2-.3-.3c-.1,0-.3-.1-.4-.1-.2,0-.3,0-.5,0-.4,0-.8,0-1.1.2s-.4.5-.5.9h-1c0-.4,0-.7.2-1,.1-.3.3-.5.6-.6.2-.2.5-.3.8-.4.3,0,.6-.1,1-.1s.6,0,.8,0c.3,0,.5.1.8.2.2.1.4.3.5.5s.2.5.2.9v3.2c0,.2,0,.4,0,.5,0,.1.1.2.3.2s.2,0,.3,0v.8ZM283.7,128.9c-.1,0-.3.2-.5.2s-.4,0-.7.1c-.2,0-.5,0-.7,0-.2,0-.4,0-.6.2-.2,0-.3.2-.5.3-.1.1-.2.3-.2.6s0,.3.1.4c0,.1.2.2.3.3.1,0,.2.1.4.2.1,0,.3,0,.5,0,.3,0,.6,0,.9-.1s.4-.2.6-.3c.2-.1.3-.3.3-.5s.1-.3.1-.5v-1Z"/>
    <path d="M288.8,132.1v-6.1h-2.2v-.8c.3,0,.6,0,.8,0,.3,0,.5-.1.7-.2s.4-.3.6-.5c.2-.2.3-.5.3-.8h.8v8.5h-1Z"/>
    <path d="M294,124.1v9.5h1.3v.8h-2.2v-11.1h2.2v.8h-1.3Z"/>
    <path d="M298.5,132.9c-.1.3-.2.6-.4.8-.1.2-.2.4-.4.5-.1.1-.3.2-.5.3-.2,0-.4,0-.6,0s-.2,0-.4,0-.2,0-.3,0v-.9c0,0,.2,0,.3.1s.2,0,.3,0c.2,0,.4,0,.5-.2.1,0,.2-.2.3-.4l.4-1-2.5-6.2h1.2l1.8,5.1h0l1.7-5.1h1.1l-2.7,7Z"/>
    <path d="M302.6,133.6v-9.5h-1.3v-.8h2.2v11.1h-2.2v-.8h1.3Z"/>
    <path d="M306.2,124.1v9.5h1.3v.8h-2.2v-11.1h2.2v.8h-1.3Z"/>
    <path d="M307.8,125.9h1.3l1.5,2.2,1.5-2.2h1.2l-2.1,2.9,2.4,3.3h-1.3l-1.7-2.6-1.7,2.6h-1.2l2.3-3.3-2.2-2.9Z"/>
    <path d="M315,133.6v-9.5h-1.3v-.8h2.2v11.1h-2.2v-.8h1.3Z"/>
    <path d="M326.8,128.6v.8h-2.6v2.6h-.8v-2.6h-2.6v-.8h2.6v-2.6h.8v2.6h2.6Z"/>
    <path d="M336,132.1v-.8h0c-.2.3-.4.6-.8.7-.4.2-.8.2-1.2.2s-.9,0-1.3-.3c-.4-.2-.7-.4-.9-.7-.2-.3-.4-.6-.5-1-.1-.4-.2-.8-.2-1.2s0-.9.2-1.2c.1-.4.3-.7.5-1s.5-.5.9-.7c.4-.2.8-.3,1.2-.3s.3,0,.5,0c.2,0,.4,0,.6.2.2,0,.4.2.5.3s.3.3.4.5h0v-3.2h1v8.6h-1ZM332.3,129.9c0,.3.2.5.3.7.2.2.4.4.6.5s.5.2.9.2.6,0,.9-.2c.2-.1.4-.3.6-.5.2-.2.3-.5.3-.8,0-.3.1-.6.1-.9s0-.6-.1-.9c0-.3-.2-.5-.3-.8-.2-.2-.4-.4-.6-.5-.2-.1-.5-.2-.9-.2s-.6,0-.9.2c-.2.1-.4.3-.6.5-.1.2-.2.5-.3.8,0,.3,0,.6,0,.9s0,.6.1.8Z"/>
    <path d="M344.1,132.1c-.2.1-.4.2-.7.2s-.5,0-.6-.2c-.2-.1-.2-.4-.2-.7-.3.3-.6.6-1,.7-.4.1-.8.2-1.2.2s-.5,0-.8,0c-.3,0-.5-.2-.7-.3-.2-.1-.3-.3-.4-.5-.1-.2-.2-.5-.2-.8s0-.6.2-.9.3-.4.5-.5.4-.2.7-.3.5-.1.8-.2c.3,0,.5,0,.8-.1s.5,0,.7-.1.3-.1.5-.2c.1-.1.2-.2.2-.4s0-.4-.1-.5-.2-.2-.3-.3c-.1,0-.3-.1-.4-.1-.2,0-.3,0-.5,0-.4,0-.8,0-1.1.2s-.4.5-.5.9h-1c0-.4,0-.7.2-1,.1-.3.3-.5.6-.6.2-.2.5-.3.8-.4.3,0,.6-.1,1-.1s.6,0,.8,0c.3,0,.5.1.8.2.2.1.4.3.5.5s.2.5.2.9v3.2c0,.2,0,.4,0,.5,0,.1.1.2.3.2s.2,0,.3,0v.8ZM342.4,128.9c-.1,0-.3.2-.5.2s-.4,0-.7.1c-.2,0-.5,0-.7,0-.2,0-.4,0-.6.2-.2,0-.3.2-.5.3-.1.1-.2.3-.2.6s0,.3.1.4c0,.1.2.2.3.3.1,0,.2.1.4.2.1,0,.3,0,.5,0,.3,0,.6,0,.9-.1s.4-.2.6-.3c.2-.1.3-.3.3-.5s.1-.3.1-.5v-1Z"/>
    <path d="M347.7,125.9v.9h-1.2v3.9c0,.1,0,.2,0,.3s0,.1.1.2c0,0,.1,0,.2,0,.1,0,.2,0,.4,0h.5v.9h-.8c-.3,0-.5,0-.7,0s-.3-.1-.5-.2-.2-.2-.3-.4,0-.4,0-.7v-3.9h-1.1v-.9h1.1v-1.9h1v1.9h1.2Z"/>
    <path d="M354.3,132.1c-.2.1-.4.2-.7.2s-.5,0-.6-.2c-.2-.1-.2-.4-.2-.7-.3.3-.6.6-1,.7-.4.1-.8.2-1.2.2s-.5,0-.8,0c-.3,0-.5-.2-.7-.3-.2-.1-.3-.3-.4-.5-.1-.2-.2-.5-.2-.8s0-.6.2-.9.3-.4.5-.5.4-.2.7-.3.5-.1.8-.2c.3,0,.5,0,.8-.1s.5,0,.7-.1.3-.1.5-.2c.1-.1.2-.2.2-.4s0-.4-.1-.5-.2-.2-.3-.3c-.1,0-.3-.1-.4-.1-.2,0-.3,0-.5,0-.4,0-.8,0-1.1.2s-.4.5-.5.9h-1c0-.4,0-.7.2-1,.1-.3.3-.5.6-.6.2-.2.5-.3.8-.4.3,0,.6-.1,1-.1s.6,0,.8,0c.3,0,.5.1.8.2.2.1.4.3.5.5s.2.5.2.9v3.2c0,.2,0,.4,0,.5,0,.1.1.2.3.2s.2,0,.3,0v.8ZM352.6,128.9c-.1,0-.3.2-.5.2s-.4,0-.7.1c-.2,0-.5,0-.7,0-.2,0-.4,0-.6.2-.2,0-.3.2-.5.3-.1.1-.2.3-.2.6s0,.3.1.4c0,.1.2.2.3.3.1,0,.2.1.4.2.1,0,.3,0,.5,0,.3,0,.6,0,.9-.1s.4-.2.6-.3c.2-.1.3-.3.3-.5s.1-.3.1-.5v-1Z"/>
    <path d="M355.1,125.4c.1-.4.3-.7.5-1,.2-.3.5-.5.9-.6.4-.2.8-.2,1.2-.2s.7,0,1,.2c.3.1.6.3.8.5.2.2.4.5.6.8.1.3.2.7.2,1.1s0,.7-.2,1c-.1.3-.3.5-.5.8-.2.2-.4.4-.7.6s-.5.4-.8.5c-.3.2-.5.3-.8.5-.3.2-.5.3-.7.5-.2.2-.4.4-.6.6-.2.2-.3.4-.3.7h4.4v.9h-5.6c0-.5.1-.9.3-1.3.1-.4.3-.7.5-.9.2-.3.5-.5.7-.7.3-.2.6-.4.9-.6.4-.2.7-.4.9-.6.3-.2.5-.4.7-.6.2-.2.3-.4.4-.6s.1-.5.1-.8,0-.4-.1-.6c0-.2-.2-.3-.4-.5-.1-.1-.3-.2-.5-.3s-.4-.1-.6-.1-.5,0-.8.2c-.2.1-.4.3-.5.5-.1.2-.2.4-.3.7s0,.5,0,.8h-1c0-.4,0-.8.1-1.2Z"/>
    <path d="M363,124.1v9.5h1.3v.8h-2.2v-11.1h2.2v.8h-1.3Z"/>
    <path d="M367.5,132.9c-.1.3-.2.6-.4.8-.1.2-.2.4-.4.5-.1.1-.3.2-.5.3-.2,0-.4,0-.6,0s-.2,0-.4,0-.2,0-.3,0v-.9c0,0,.2,0,.3.1s.2,0,.3,0c.2,0,.4,0,.5-.2.1,0,.2-.2.3-.4l.4-1-2.5-6.2h1.2l1.8,5.1h0l1.7-5.1h1.1l-2.7,7Z"/>
    <path d="M371.5,133.6v-9.5h-1.3v-.8h2.2v11.1h-2.2v-.8h1.3Z"/>
    <path d="M375.2,124.1v9.5h1.3v.8h-2.2v-11.1h2.2v.8h-1.3Z"/>
    <path d="M376.8,125.9h1.3l1.5,2.2,1.5-2.2h1.2l-2.1,2.9,2.4,3.3h-1.3l-1.7-2.6-1.7,2.6h-1.2l2.3-3.3-2.2-2.9Z"/>
    <path d="M384,133.6v-9.5h-1.3v-.8h2.2v11.1h-2.2v-.8h1.3Z"/>
    <path d="M227.7,140.3v.8h0c.2-.3.4-.6.8-.8.4-.2.8-.2,1.2-.2s.9,0,1.3.3c.4.2.7.4.9.7.2.3.4.6.5,1,.1.4.2.8.2,1.2s0,.9-.2,1.2-.3.7-.5,1c-.2.3-.5.5-.9.7-.4.2-.8.3-1.2.3s-.3,0-.5,0c-.2,0-.4,0-.6-.2-.2,0-.4-.2-.5-.3s-.3-.3-.4-.5h0v3.2h-1v-8.6h1ZM231.3,142.5c0-.3-.2-.5-.3-.7-.2-.2-.4-.4-.6-.5s-.5-.2-.9-.2-.6,0-.9.2c-.2.1-.4.3-.6.5-.2.2-.3.5-.3.8,0,.3-.1.6-.1.9s0,.6.1.9c0,.3.2.5.3.8.2.2.4.4.6.5s.5.2.9.2.6,0,.9-.2.4-.3.6-.5c.1-.2.2-.5.3-.8,0-.3,0-.6,0-.9s0-.6-.1-.8Z"/>
    <path d="M234.7,140.3v1.3h0c.2-.5.6-.9.9-1.1.4-.2.8-.4,1.4-.3v1.1c-.4,0-.8,0-1,.2-.3.1-.5.3-.7.5-.2.2-.3.5-.4.8,0,.3-.1.7-.1,1.1v2.8h-1v-6.2h1Z"/>
    <path d="M237.8,139.2v-1.2h1v1.2h-1ZM238.8,140.3v6.2h-1v-6.2h1Z"/>
    <path d="M241.4,140.3v1h0c.4-.8,1.1-1.1,2-1.1s.7,0,1,.2c.3.1.5.3.7.5s.3.4.4.7c0,.3.1.6.1.9v4.1h-1v-4.2c0-.4-.1-.7-.3-.9-.2-.2-.5-.3-.9-.3s-.6,0-.8.1c-.2,0-.4.2-.6.4-.2.2-.3.4-.3.6,0,.2-.1.5-.1.8v3.5h-1v-6.2h1Z"/>
    <path d="M249.7,140.3v.9h-1.2v3.9c0,.1,0,.2,0,.3s0,.1.1.2c0,0,.1,0,.2,0,.1,0,.2,0,.4,0h.5v.9h-.8c-.3,0-.5,0-.7,0s-.3-.1-.5-.2-.2-.2-.3-.4,0-.4,0-.7v-3.9h-1.1v-.9h1.1v-1.9h1v1.9h1.2Z"/>
    <path d="M251.7,147.5c-.2-.4-.4-.9-.6-1.4s-.3-.9-.4-1.4c0-.5-.1-1-.1-1.5,0-.9.2-1.9.5-2.9.3-1,.8-1.9,1.4-2.7h.8c-.6.9-1,1.8-1.2,2.7-.2.9-.4,1.8-.4,2.8s.1,2,.4,2.9.7,1.8,1.2,2.7h-.8c-.3-.4-.5-.9-.8-1.3Z"/>
    <path d="M257.7,141.4c-.3-.2-.6-.3-1-.3s-.7,0-.9.2c-.2.1-.4.3-.6.5-.1.2-.3.5-.3.8,0,.3,0,.6,0,.9s0,.6.1.8c0,.3.2.5.3.7.1.2.3.4.6.5.2.1.5.2.8.2.5,0,.9-.1,1.2-.4.3-.3.5-.6.5-1.1h1c-.1.8-.4,1.4-.9,1.8s-1.1.6-1.9.6-.9,0-1.3-.2c-.4-.2-.7-.4-.9-.6s-.4-.6-.6-1c-.1-.4-.2-.8-.2-1.3s0-.9.2-1.3c.1-.4.3-.8.5-1.1s.5-.5.9-.7.8-.3,1.3-.3.7,0,1,.1c.3,0,.6.2.8.4s.4.4.6.7c.2.3.2.6.3,1h-1.1c0-.4-.2-.7-.5-.9Z"/>
    <path d="M265.9,146.5c-.2.1-.4.2-.7.2s-.5,0-.6-.2c-.2-.1-.2-.4-.2-.7-.3.3-.6.6-1,.7-.4.1-.8.2-1.2.2s-.5,0-.8,0c-.3,0-.5-.2-.7-.3-.2-.1-.3-.3-.4-.5-.1-.2-.2-.5-.2-.8s0-.6.2-.9.3-.4.5-.5.4-.2.7-.3.5-.1.8-.2c.3,0,.5,0,.8-.1s.5,0,.7-.1.3-.1.5-.2c.1-.1.2-.2.2-.4s0-.4-.1-.5-.2-.2-.3-.3c-.1,0-.3-.1-.4-.1-.2,0-.3,0-.5,0-.4,0-.8,0-1.1.2s-.4.5-.5.9h-1c0-.4,0-.7.2-1,.1-.3.3-.5.6-.6.2-.2.5-.3.8-.4.3,0,.6-.1,1-.1s.6,0,.8,0c.3,0,.5.1.8.2.2.1.4.3.5.5s.2.5.2.9v3.2c0,.2,0,.4,0,.5,0,.1.1.2.3.2s.2,0,.3,0v.8ZM264.2,143.3c-.1,0-.3.2-.5.2s-.4,0-.7.1c-.2,0-.5,0-.7,0-.2,0-.4,0-.6.2-.2,0-.3.2-.5.3-.1.1-.2.3-.2.6s0,.3.1.4c0,.1.2.2.3.3.1,0,.2.1.4.2.1,0,.3,0,.5,0,.3,0,.6,0,.9-.1s.4-.2.6-.3c.2-.1.3-.3.3-.5s.1-.3.1-.5v-1Z"/>
    <path d="M267.9,137.9v8.6h-1v-8.6h1Z"/>
    <path d="M273.2,141.4c-.3-.2-.6-.3-1-.3s-.7,0-.9.2c-.2.1-.4.3-.6.5-.1.2-.3.5-.3.8,0,.3,0,.6,0,.9s0,.6.1.8c0,.3.2.5.3.7.1.2.3.4.6.5.2.1.5.2.8.2.5,0,.9-.1,1.2-.4.3-.3.5-.6.5-1.1h1c-.1.8-.4,1.4-.9,1.8s-1.1.6-1.9.6-.9,0-1.3-.2c-.4-.2-.7-.4-.9-.6s-.4-.6-.6-1c-.1-.4-.2-.8-.2-1.3s0-.9.2-1.3c.1-.4.3-.8.5-1.1s.5-.5.9-.7.8-.3,1.3-.3.7,0,1,.1c.3,0,.6.2.8.4s.4.4.6.7c.2.3.2.6.3,1h-1.1c0-.4-.2-.7-.5-.9Z"/>
    <path d="M277.5,145.1v1.2c0,.5-.1.8-.3,1.2s-.5.6-1,.7v-.6c.1,0,.2-.1.3-.2,0,0,.2-.2.2-.3,0-.1,0-.2.1-.3,0-.1,0-.2,0-.3h-.7v-1.3h1.3Z"/>
    <path d="M287,146.1c-.5.4-1,.5-1.8.5s-.9,0-1.3-.2c-.4-.2-.7-.4-.9-.7s-.4-.6-.6-1c-.1-.4-.2-.8-.2-1.3,0-.5,0-.9.2-1.3.1-.4.3-.7.6-1,.3-.3.6-.5.9-.7.4-.2.7-.2,1.2-.2s1,.1,1.4.3c.4.2.7.5.9.9.2.4.4.7.5,1.2,0,.4.1.8.1,1.2h-4.6c0,.3,0,.5,0,.8,0,.2.2.5.3.6.2.2.4.3.6.5.2.1.5.2.9.2s.8,0,1.1-.3c.3-.2.5-.5.5-.9h1c-.1.7-.4,1.2-.9,1.6ZM286.8,142.1c0-.2-.2-.4-.4-.6-.2-.2-.3-.3-.6-.4-.2,0-.4-.1-.7-.1s-.5,0-.7.1c-.2,0-.4.2-.5.4-.2.2-.3.3-.4.6s-.1.4-.2.7h3.6c0-.2,0-.5-.2-.7Z"/>
    <path d="M290,140.3v1h0c.4-.8,1.1-1.1,2-1.1s.7,0,1,.2c.3.1.5.3.7.5s.3.4.4.7c0,.3.1.6.1.9v4.1h-1v-4.2c0-.4-.1-.7-.3-.9-.2-.2-.5-.3-.9-.3s-.6,0-.8.1c-.2,0-.4.2-.6.4-.2.2-.3.4-.3.6,0,.2-.1.5-.1.8v3.5h-1v-6.2h1Z"/>
    <path d="M300.3,146.5v-.8h0c-.2.3-.4.6-.8.7-.4.2-.8.2-1.2.2s-.9,0-1.3-.3c-.4-.2-.7-.4-.9-.7-.2-.3-.4-.6-.5-1-.1-.4-.2-.8-.2-1.2s0-.9.2-1.2c.1-.4.3-.7.5-1s.5-.5.9-.7c.4-.2.8-.3,1.2-.3s.3,0,.5,0c.2,0,.4,0,.6.2.2,0,.4.2.5.3s.3.3.4.5h0v-3.2h1v8.6h-1ZM296.6,144.3c0,.3.2.5.3.7.2.2.4.4.6.5s.5.2.9.2.6,0,.9-.2c.2-.1.4-.3.6-.5.2-.2.3-.5.3-.8,0-.3.1-.6.1-.9s0-.6-.1-.9c0-.3-.2-.5-.3-.8-.2-.2-.4-.4-.6-.5-.2-.1-.5-.2-.9-.2s-.6,0-.9.2c-.2.1-.4.3-.6.5-.1.2-.2.5-.3.8,0,.3,0,.6,0,.9s0,.6.1.8Z"/>
    <path d="M306,142.6v-.8h6v.8h-6ZM312,144.2v.8h-6v-.8h6Z"/>
    <path d="M318.1,137.9v3.1h-.8v-3.1h.8ZM319.8,137.9v3.1h-.8v-3.1h.8Z"/>
    <path d="M324.4,146.7l-3.5-9h.9l3.6,9h-.9Z"/>
    <path d="M328.5,140.3v.9h-1.2v3.9c0,.1,0,.2,0,.3s0,.1.1.2c0,0,.1,0,.2,0,.1,0,.2,0,.4,0h.5v.9h-.8c-.3,0-.5,0-.7,0s-.3-.1-.5-.2-.2-.2-.3-.4,0-.4,0-.7v-3.9h-1.1v-.9h1.1v-1.9h1v1.9h1.2Z"/>
    <path d="M331,137.9v3.1h-.8v-3.1h.8ZM332.7,137.9v3.1h-.8v-3.1h.8Z"/>
    <path d="M335.1,146.1c.2-.9.4-1.8.4-2.8s-.1-2-.4-2.9c-.2-.9-.6-1.8-1.2-2.7h.8c.3.4.5.9.8,1.3.2.4.4.9.6,1.4s.3.9.4,1.4c0,.5.1,1,.1,1.5,0,.9-.2,1.9-.5,2.9-.3,1-.8,1.8-1.4,2.7h-.8c.6-.9,1-1.8,1.2-2.7Z"/>
    <path d="M214.3,154.7v.8h0c.2-.3.4-.6.8-.8.4-.2.8-.2,1.2-.2s.9,0,1.3.3c.4.2.7.4.9.7.2.3.4.6.5,1,.1.4.2.8.2,1.2s0,.9-.2,1.2-.3.7-.5,1c-.2.3-.5.5-.9.7-.4.2-.8.3-1.2.3s-.3,0-.5,0c-.2,0-.4,0-.6-.2-.2,0-.4-.2-.5-.3s-.3-.3-.4-.5h0v3.2h-1v-8.6h1ZM218,156.9c0-.3-.2-.5-.3-.7-.2-.2-.4-.4-.6-.5s-.5-.2-.9-.2-.6,0-.9.2c-.2.1-.4.3-.6.5-.2.2-.3.5-.3.8,0,.3-.1.6-.1.9s0,.6.1.9c0,.3.2.5.3.8.2.2.4.4.6.5s.5.2.9.2.6,0,.9-.2.4-.3.6-.5c.1-.2.2-.5.3-.8,0-.3,0-.6,0-.9s0-.6-.1-.8Z"/>
    <path d="M221.3,154.7v1.3h0c.2-.5.6-.9.9-1.1.4-.2.8-.4,1.4-.3v1.1c-.4,0-.8,0-1,.2-.3.1-.5.3-.7.5-.2.2-.3.5-.4.8,0,.3-.1.7-.1,1.1v2.8h-1v-6.2h1Z"/>
    <path d="M224.5,153.6v-1.2h1v1.2h-1ZM225.5,154.7v6.2h-1v-6.2h1Z"/>
    <path d="M228,154.7v1h0c.4-.8,1.1-1.1,2-1.1s.7,0,1,.2c.3.1.5.3.7.5s.3.4.4.7c0,.3.1.6.1.9v4.1h-1v-4.2c0-.4-.1-.7-.3-.9-.2-.2-.5-.3-.9-.3s-.6,0-.8.1c-.2,0-.4.2-.6.4-.2.2-.3.4-.3.6,0,.2-.1.5-.1.8v3.5h-1v-6.2h1Z"/>
    <path d="M236.4,154.7v.9h-1.2v3.9c0,.1,0,.2,0,.3s0,.1.1.2c0,0,.1,0,.2,0,.1,0,.2,0,.4,0h.5v.9h-.8c-.3,0-.5,0-.7,0s-.3-.1-.5-.2-.2-.2-.3-.4,0-.4,0-.7v-3.9h-1.1v-.9h1.1v-1.9h1v1.9h1.2Z"/>
    <path d="M238.4,161.9c-.2-.4-.4-.9-.6-1.4s-.3-.9-.4-1.4c0-.5-.1-1-.1-1.5,0-.9.2-1.9.5-2.9.3-1,.8-1.9,1.4-2.7h.8c-.6.9-1,1.8-1.2,2.7-.2.9-.4,1.8-.4,2.8s.1,2,.4,2.9.7,1.8,1.2,2.7h-.8c-.3-.4-.5-.9-.8-1.3Z"/>
    <path d="M240.9,160.5c.2-.9.4-1.8.4-2.8s-.1-2-.4-2.9c-.2-.9-.6-1.8-1.2-2.7h.8c.3.4.5.9.8,1.3.2.4.4.9.6,1.4s.3.9.4,1.4c0,.5.1,1,.1,1.5,0,.9-.2,1.9-.5,2.9-.3,1-.8,1.8-1.4,2.7h-.8c.6-.9,1-1.8,1.2-2.7Z"/>
  </g>
  <line class="st0" x1="218.8" y1="120.8" x2="218.8" y2="143.9"/>
  <line class="st0" x1="206.1" y1="106.1" x2="206.1" y2="158.6"/>
  <polyline class="st0" points="303.2 100.1 413 100.1 413 157.9 252.7 157.9"/>
  <polyline class="st0" points="318.1 113.4 396.9 113.4 396.9 142 342.7 142"/>
  <g>
    <path d="M199.3,189.3v-.9h1v-.9c0-.5.1-.9.4-1.1s.7-.4,1.3-.4.2,0,.3,0c.1,0,.2,0,.3,0v.9c0,0-.2,0-.3,0-.1,0-.2,0-.3,0-.2,0-.4,0-.6.1-.1,0-.2.3-.2.6v.9h1.2v.9h-1.2v5.3h-1v-5.3h-1Z"/>
    <path d="M203.3,190.3c.1-.4.3-.7.6-1s.6-.5.9-.7c.4-.2.8-.3,1.3-.3s.9,0,1.3.3.7.4.9.7c.3.3.4.6.6,1,.1.4.2.8.2,1.3s0,.9-.2,1.3-.3.7-.6,1c-.3.3-.6.5-.9.7s-.8.2-1.3.2-.9,0-1.3-.2c-.4-.2-.7-.4-.9-.7s-.4-.6-.6-1-.2-.8-.2-1.3,0-.9.2-1.3ZM204.4,192.5c0,.3.2.5.4.7s.4.3.6.5c.2.1.5.2.8.2s.5,0,.8-.2c.2-.1.4-.3.6-.5.2-.2.3-.4.4-.7.1-.3.2-.6.2-1s0-.7-.2-1c0-.3-.2-.5-.4-.7-.2-.2-.4-.4-.6-.5-.2-.1-.5-.2-.8-.2s-.5,0-.8.2c-.2.1-.4.3-.6.5s-.3.4-.4.7c-.1.3-.2.6-.2,1s0,.7.2,1Z"/>
    <path d="M211.3,188.4v1.3h0c.2-.5.6-.9.9-1.1.4-.2.8-.4,1.4-.3v1.1c-.4,0-.8,0-1,.2-.3.1-.5.3-.7.5s-.3.5-.4.8-.1.7-.1,1.1v2.8h-1v-6.2h1Z"/>
    <path d="M220.1,195.5c-.1.3-.2.6-.4.8-.1.2-.2.4-.4.5-.1.1-.3.2-.5.3-.2,0-.4,0-.6,0s-.2,0-.4,0-.2,0-.3,0v-.9c0,0,.2,0,.3.1s.2,0,.3,0c.2,0,.4,0,.5-.2.1,0,.2-.2.3-.4l.4-1-2.5-6.2h1.2l1.8,5.1h0l1.7-5.1h1.1l-2.7,7Z"/>
    <path d="M227.1,187.3v-1.2h1v1.2h-1ZM228.1,188.4v6.2h-1v-6.2h1Z"/>
    <path d="M230.7,188.4v1h0c.4-.8,1.1-1.1,2-1.1s.7,0,1,.2c.3.1.5.3.7.5s.3.4.4.7c0,.3.1.6.1.9v4.1h-1v-4.2c0-.4-.1-.7-.3-.9-.2-.2-.5-.3-.9-.3s-.6,0-.8.1c-.2,0-.4.2-.6.4-.2.2-.3.4-.3.6,0,.2-.1.5-.1.8v3.5h-1v-6.2h1Z"/>
    <path d="M240.6,188.4v1.3h0c.2-.5.6-.9.9-1.1.4-.2.8-.4,1.4-.3v1.1c-.4,0-.8,0-1,.2-.3.1-.5.3-.7.5s-.3.5-.4.8-.1.7-.1,1.1v2.8h-1v-6.2h1Z"/>
    <path d="M249.2,194.6c-.2.1-.4.2-.7.2s-.5,0-.6-.2c-.2-.1-.2-.4-.2-.7-.3.3-.6.6-1,.7-.4.1-.8.2-1.2.2s-.5,0-.8,0c-.3,0-.5-.2-.7-.3-.2-.1-.3-.3-.4-.5-.1-.2-.2-.5-.2-.8s0-.6.2-.9c.1-.2.3-.4.5-.5.2-.1.4-.2.7-.3s.5-.1.8-.2c.3,0,.5,0,.8-.1.3,0,.5,0,.7-.1s.3-.1.5-.2c.1,0,.2-.2.2-.4s0-.4-.1-.5-.2-.2-.3-.3c-.1,0-.3-.1-.4-.1-.2,0-.3,0-.5,0-.4,0-.8,0-1.1.2s-.4.5-.5.9h-1c0-.4,0-.7.2-1,.1-.3.3-.5.6-.6.2-.2.5-.3.8-.4.3,0,.6-.1,1-.1s.6,0,.8,0c.3,0,.5.1.8.2s.4.3.5.5c.1.2.2.5.2.9v3.2c0,.2,0,.4,0,.5,0,.1.1.2.3.2s.2,0,.3,0v.8ZM247.5,191.4c-.1,0-.3.2-.5.2s-.4,0-.7.1c-.2,0-.5,0-.7,0-.2,0-.4,0-.6.2-.2,0-.3.2-.5.3-.1.1-.2.3-.2.6s0,.3.1.4c0,.1.2.2.3.3.1,0,.2.1.4.2.1,0,.3,0,.5,0,.3,0,.6,0,.9-.1.2,0,.4-.2.6-.3.2-.1.3-.3.3-.5,0-.2.1-.3.1-.5v-1Z"/>
    <path d="M251.1,188.4v1h0c.4-.8,1.1-1.1,2-1.1s.7,0,1,.2c.3.1.5.3.7.5s.3.4.4.7c0,.3.1.6.1.9v4.1h-1v-4.2c0-.4-.1-.7-.3-.9-.2-.2-.5-.3-.9-.3s-.6,0-.8.1c-.2,0-.4.2-.6.4-.2.2-.3.4-.3.6,0,.2-.1.5-.1.8v3.5h-1v-6.2h1Z"/>
    <path d="M261.5,196.4c-.5.5-1.2.8-2.2.8s-.6,0-.9,0c-.3,0-.6-.2-.8-.3-.2-.1-.4-.3-.6-.6-.2-.2-.2-.5-.3-.9h1c0,.2,0,.3.2.5.1.1.2.2.4.3.2,0,.3.1.5.2.2,0,.4,0,.5,0,.3,0,.6,0,.9-.2.2-.1.4-.3.6-.5.2-.2.3-.5.3-.7,0-.3.1-.6.1-.9v-.4h0c-.2.4-.4.7-.8.8-.4.2-.7.3-1.1.3s-.9,0-1.2-.3c-.3-.2-.6-.4-.9-.7s-.4-.6-.5-1c-.1-.4-.2-.8-.2-1.2s0-.7.1-1.1.3-.7.5-1.1c.2-.3.5-.6.9-.8.4-.2.8-.3,1.4-.3s.8,0,1.1.3.6.4.8.8h0v-.9h1v5.7c0,1-.2,1.8-.7,2.3ZM260.2,193.6c.2-.1.4-.3.6-.6.1-.2.2-.5.3-.8,0-.3.1-.6.1-.9s0-.5,0-.8c0-.3-.2-.5-.3-.7s-.3-.4-.5-.5c-.2-.1-.5-.2-.8-.2s-.6,0-.8.2c-.2.1-.4.3-.6.5-.1.2-.3.4-.3.7,0,.3-.1.6-.1.9s0,.6,0,.8c0,.3.2.5.3.8.1.2.3.4.5.6s.5.2.8.2.6,0,.9-.2Z"/>
    <path d="M268.1,194.2c-.5.4-1,.5-1.8.5s-.9,0-1.3-.2-.7-.4-.9-.7-.4-.6-.6-1c-.1-.4-.2-.8-.2-1.3,0-.5,0-.9.2-1.3.1-.4.3-.7.6-1s.6-.5.9-.7c.4-.2.7-.2,1.2-.2s1,.1,1.4.3c.4.2.7.5.9.9.2.4.4.7.5,1.2s.1.8.1,1.2h-4.6c0,.3,0,.5,0,.8,0,.2.2.5.3.6.2.2.4.3.6.5.2.1.5.2.9.2s.8-.1,1.1-.3c.3-.2.5-.5.5-.9h1c-.1.7-.4,1.2-.9,1.6ZM267.9,190.3c0-.2-.2-.4-.4-.6s-.3-.3-.6-.4c-.2,0-.4-.1-.7-.1s-.5,0-.7.1c-.2,0-.4.2-.5.4-.2.2-.3.3-.4.6s-.1.4-.2.7h3.6c0-.2,0-.5-.2-.7Z"/>
    <path d="M271.1,195.7c-.2-.4-.4-.9-.6-1.4s-.3-.9-.4-1.4c0-.5-.1-1-.1-1.5,0-.9.2-1.9.5-2.9.3-1,.8-1.9,1.4-2.7h.8c-.6.9-1,1.8-1.2,2.7-.2.9-.4,1.8-.4,2.8s.1,2,.4,2.9.7,1.8,1.2,2.7h-.8c-.3-.4-.5-.9-.8-1.3Z"/>
    <path d="M275.7,194.6v-6.1h-2.2v-.8c.3,0,.6,0,.8,0,.3,0,.5-.1.7-.2s.4-.3.6-.5c.2-.2.3-.5.3-.8h.8v8.5h-1Z"/>
    <path d="M279.7,189.5c0-.3,0-.7.1-1,0-.3.2-.6.3-.9s.3-.5.5-.8c.2-.2.5-.4.8-.5.3-.1.7-.2,1.1-.2s.8,0,1.1.2c.3.1.6.3.8.5.2.2.4.5.5.8s.2.6.3.9c0,.3.1.6.1,1,0,.3,0,.7,0,1s0,.6,0,1c0,.3,0,.7-.1,1,0,.3-.2.6-.3.9-.1.3-.3.5-.5.8s-.5.4-.8.5c-.3.1-.7.2-1.1.2s-.8,0-1.1-.2c-.3-.1-.6-.3-.8-.5s-.4-.5-.5-.8c-.1-.3-.2-.6-.3-.9,0-.3-.1-.6-.1-1,0-.3,0-.7,0-1s0-.6,0-1ZM280.8,191.5c0,.4,0,.8.2,1.1.1.3.3.6.5.9s.6.4,1,.4.8-.1,1-.4.4-.5.5-.9c.1-.3.2-.7.2-1.1,0-.4,0-.8,0-1.1s0-.4,0-.7,0-.5,0-.8c0-.3,0-.5-.2-.7,0-.2-.2-.5-.3-.6-.1-.2-.3-.3-.5-.4-.2-.1-.4-.2-.7-.2s-.5,0-.7.2c-.2.1-.4.3-.5.4-.1.2-.2.4-.3.6,0,.2-.1.5-.2.7,0,.3,0,.5,0,.8s0,.5,0,.7c0,.3,0,.7,0,1.1Z"/>
    <path d="M286.9,194.3c.2-.9.4-1.8.4-2.8s-.1-2-.4-2.9-.6-1.8-1.2-2.7h.8c.3.4.5.9.8,1.3.2.4.4.9.6,1.4s.3.9.4,1.4c0,.5.1,1,.1,1.5,0,.9-.2,1.9-.5,2.8-.3,1-.8,1.8-1.4,2.7h-.8c.6-.9,1-1.8,1.2-2.7Z"/>
    <path d="M289.9,189.8v-1.3h1.3v1.3h-1.3ZM291.3,193.3v1.3h-1.3v-1.3h1.3Z"/>
    <path d="M212.7,203.7v-.9h1v-.9c0-.5.1-.9.4-1.1.3-.3.7-.4,1.3-.4s.2,0,.3,0c.1,0,.2,0,.3,0v.9c0,0-.2,0-.3,0-.1,0-.2,0-.3,0-.2,0-.4,0-.6.1-.1,0-.2.3-.2.6v.9h1.2v.9h-1.2v5.3h-1v-5.3h-1Z"/>
    <path d="M216.7,204.7c.1-.4.3-.7.6-1s.6-.5.9-.7c.4-.2.8-.3,1.3-.3s.9,0,1.3.3.7.4.9.7c.3.3.4.6.6,1,.1.4.2.8.2,1.3s0,.9-.2,1.3c-.1.4-.3.7-.6,1-.3.3-.6.5-.9.7s-.8.2-1.3.2-.9,0-1.3-.2c-.4-.2-.7-.4-.9-.7s-.4-.6-.6-1c-.1-.4-.2-.8-.2-1.3s0-.9.2-1.3ZM217.7,206.9c0,.3.2.5.4.7.2.2.4.3.6.5.2.1.5.2.8.2s.5,0,.8-.2c.2-.1.4-.3.6-.5.2-.2.3-.4.4-.7.1-.3.2-.6.2-1s0-.7-.2-1c0-.3-.2-.5-.4-.7-.2-.2-.4-.4-.6-.5-.2-.1-.5-.2-.8-.2s-.5,0-.8.2c-.2.1-.4.3-.6.5s-.3.4-.4.7c-.1.3-.2.6-.2,1s0,.7.2,1Z"/>
    <path d="M224.6,202.8v1.3h0c.2-.5.6-.9.9-1.1.4-.2.8-.4,1.4-.3v1.1c-.4,0-.8,0-1,.2-.3.1-.5.3-.7.5-.2.2-.3.5-.4.8,0,.3-.1.7-.1,1.1v2.8h-1v-6.2h1Z"/>
    <path d="M230.6,202.8h1.3l1.5,2.2,1.5-2.2h1.2l-2.1,2.9,2.4,3.3h-1.3l-1.7-2.6-1.7,2.6h-1.2l2.3-3.3-2.2-2.9Z"/>
    <path d="M240.7,201.7v-1.2h1v1.2h-1ZM241.7,202.8v6.2h-1v-6.2h1Z"/>
    <path d="M244.2,202.8v1h0c.4-.8,1.1-1.1,2-1.1s.7,0,1,.2c.3.1.5.3.7.5s.3.4.4.7c0,.3.1.6.1.9v4.1h-1v-4.2c0-.4-.1-.7-.3-.9-.2-.2-.5-.3-.9-.3s-.6,0-.8.1c-.2,0-.4.2-.6.4-.2.2-.3.4-.3.6,0,.2-.1.5-.1.8v3.5h-1v-6.2h1Z"/>
    <path d="M254.2,202.8v1.3h0c.2-.5.6-.9.9-1.1.4-.2.8-.4,1.4-.3v1.1c-.4,0-.8,0-1,.2-.3.1-.5.3-.7.5-.2.2-.3.5-.4.8,0,.3-.1.7-.1,1.1v2.8h-1v-6.2h1Z"/>
    <path d="M262.8,209c-.2.1-.4.2-.7.2s-.5,0-.6-.2c-.2-.1-.2-.4-.2-.7-.3.3-.6.6-1,.7-.4.1-.8.2-1.2.2s-.5,0-.8,0c-.3,0-.5-.2-.7-.3-.2-.1-.3-.3-.4-.5-.1-.2-.2-.5-.2-.8s0-.6.2-.9.3-.4.5-.5.4-.2.7-.3.5-.1.8-.2c.3,0,.5,0,.8-.1s.5,0,.7-.1.3-.1.5-.2c.1-.1.2-.2.2-.4s0-.4-.1-.5-.2-.2-.3-.3c-.1,0-.3-.1-.4-.1-.2,0-.3,0-.5,0-.4,0-.8,0-1.1.2s-.4.5-.5.9h-1c0-.4,0-.7.2-1,.1-.3.3-.5.6-.6.2-.2.5-.3.8-.4.3,0,.6-.1,1-.1s.6,0,.8,0c.3,0,.5.1.8.2.2.1.4.3.5.5s.2.5.2.9v3.2c0,.2,0,.4,0,.5,0,.1.1.2.3.2s.2,0,.3,0v.8ZM261.1,205.8c-.1,0-.3.2-.5.2s-.4,0-.7.1c-.2,0-.5,0-.7,0-.2,0-.4,0-.6.2-.2,0-.3.2-.5.3-.1.1-.2.3-.2.6s0,.3.1.4c0,.1.2.2.3.3.1,0,.2.1.4.2.1,0,.3,0,.5,0,.3,0,.6,0,.9-.1s.4-.2.6-.3c.2-.1.3-.3.3-.5s.1-.3.1-.5v-1Z"/>
    <path d="M264.7,202.8v1h0c.4-.8,1.1-1.1,2-1.1s.7,0,1,.2c.3.1.5.3.7.5s.3.4.4.7c0,.3.1.6.1.9v4.1h-1v-4.2c0-.4-.1-.7-.3-.9-.2-.2-.5-.3-.9-.3s-.6,0-.8.1c-.2,0-.4.2-.6.4-.2.2-.3.4-.3.6,0,.2-.1.5-.1.8v3.5h-1v-6.2h1Z"/>
    <path d="M275,210.8c-.5.5-1.2.8-2.2.8s-.6,0-.9,0c-.3,0-.6-.2-.8-.3-.2-.1-.4-.3-.6-.6-.2-.2-.2-.5-.3-.9h1c0,.2,0,.3.2.5.1.1.2.2.4.3.2,0,.3.1.5.2.2,0,.4,0,.5,0,.3,0,.6,0,.9-.2.2-.1.4-.3.6-.5.2-.2.3-.5.3-.7,0-.3.1-.6.1-.9v-.4h0c-.2.4-.4.7-.8.8-.4.2-.7.3-1.1.3s-.9,0-1.2-.3c-.3-.2-.6-.4-.9-.7s-.4-.6-.5-1c-.1-.4-.2-.8-.2-1.2s0-.7.1-1.1.3-.7.5-1.1c.2-.3.5-.6.9-.8.4-.2.8-.3,1.4-.3s.8,0,1.1.3.6.4.8.8h0v-.9h1v5.7c0,1-.2,1.8-.7,2.3ZM273.7,208c.2-.1.4-.3.6-.6.1-.2.2-.5.3-.8,0-.3.1-.6.1-.9s0-.5,0-.8c0-.3-.2-.5-.3-.7s-.3-.4-.5-.5c-.2-.1-.5-.2-.8-.2s-.6,0-.8.2-.4.3-.6.5c-.1.2-.3.4-.3.7,0,.3-.1.6-.1.9s0,.6,0,.8c0,.3.2.5.3.8.1.2.3.4.5.6.2.1.5.2.8.2s.6,0,.9-.2Z"/>
    <path d="M281.7,208.6c-.5.4-1,.5-1.8.5s-.9,0-1.3-.2c-.4-.2-.7-.4-.9-.7s-.4-.6-.6-1c-.1-.4-.2-.8-.2-1.3,0-.5,0-.9.2-1.3.1-.4.3-.7.6-1,.3-.3.6-.5.9-.7.4-.2.7-.2,1.2-.2s1,.1,1.4.3c.4.2.7.5.9.9.2.4.4.7.5,1.2,0,.4.1.8.1,1.2h-4.6c0,.3,0,.5,0,.8,0,.2.2.5.3.6.2.2.4.3.6.5.2.1.5.2.9.2s.8,0,1.1-.3c.3-.2.5-.5.5-.9h1c-.1.7-.4,1.2-.9,1.6ZM281.4,204.7c0-.2-.2-.4-.4-.6-.2-.2-.3-.3-.6-.4-.2,0-.4-.1-.7-.1s-.5,0-.7.1c-.2,0-.4.2-.5.4-.2.2-.3.3-.4.6s-.1.4-.2.7h3.6c0-.2,0-.5-.2-.7Z"/>
    <path d="M284.6,210.1c-.2-.4-.4-.9-.6-1.4s-.3-.9-.4-1.4c0-.5-.1-1-.1-1.5,0-.9.2-1.9.5-2.9.3-1,.8-1.9,1.4-2.7h.8c-.6.9-1,1.8-1.2,2.7-.2.9-.4,1.8-.4,2.8s.1,2,.4,2.9.7,1.8,1.2,2.7h-.8c-.3-.4-.5-.9-.8-1.3Z"/>
    <path d="M289.3,209v-6.1h-2.2v-.8c.3,0,.6,0,.8,0,.3,0,.5-.1.7-.2s.4-.3.6-.5c.2-.2.3-.5.3-.8h.8v8.5h-1Z"/>
    <path d="M293.3,203.9c0-.3,0-.7.1-1,0-.3.2-.6.3-.9s.3-.5.5-.8.5-.4.8-.5c.3-.1.7-.2,1.1-.2s.8,0,1.1.2c.3.1.6.3.8.5s.4.5.5.8.2.6.3.9c0,.3.1.6.1,1,0,.3,0,.7,0,1s0,.6,0,1c0,.3,0,.7-.1,1,0,.3-.2.6-.3.9-.1.3-.3.5-.5.8-.2.2-.5.4-.8.5-.3.1-.7.2-1.1.2s-.8,0-1.1-.2c-.3-.1-.6-.3-.8-.5-.2-.2-.4-.5-.5-.8-.1-.3-.2-.6-.3-.9,0-.3-.1-.6-.1-1,0-.3,0-.7,0-1s0-.6,0-1ZM294.3,205.9c0,.4,0,.8.2,1.1.1.3.3.6.5.9s.6.4,1,.4.8-.1,1-.4.4-.5.5-.9c.1-.3.2-.7.2-1.1,0-.4,0-.8,0-1.1s0-.4,0-.7,0-.5,0-.8c0-.3,0-.5-.2-.7,0-.2-.2-.5-.3-.6-.1-.2-.3-.3-.5-.4-.2-.1-.4-.2-.7-.2s-.5,0-.7.2c-.2.1-.4.3-.5.4-.1.2-.2.4-.3.6,0,.2-.1.5-.2.7,0,.3,0,.5,0,.8s0,.5,0,.7c0,.3,0,.7,0,1.1Z"/>
    <path d="M300.5,208.7c.2-.9.4-1.8.4-2.8s-.1-2-.4-2.9c-.2-.9-.6-1.8-1.2-2.7h.8c.3.4.5.9.8,1.3.2.4.4.9.6,1.4s.3.9.4,1.4c0,.5.1,1,.1,1.5,0,.9-.2,1.9-.5,2.9-.3,1-.8,1.8-1.4,2.7h-.8c.6-.9,1-1.8,1.2-2.7Z"/>
    <path d="M303.5,204.2v-1.3h1.3v1.3h-1.3ZM304.8,207.7v1.3h-1.3v-1.3h1.3Z"/>
    <path d="M230.3,218.3c-.3-.2-.6-.3-1-.3s-.7,0-.9.2c-.2.1-.4.3-.6.5-.1.2-.3.5-.3.8,0,.3,0,.6,0,.9s0,.6.1.8c0,.3.2.5.3.7.1.2.3.4.6.5.2.1.5.2.8.2.5,0,.9-.1,1.2-.4.3-.3.5-.6.5-1.1h1c-.1.8-.4,1.4-.9,1.8s-1.1.6-1.9.6-.9,0-1.3-.2c-.4-.2-.7-.4-.9-.6s-.4-.6-.6-1c-.1-.4-.2-.8-.2-1.3s0-.9.2-1.3c.1-.4.3-.8.5-1.1s.5-.5.9-.7.8-.3,1.3-.3.7,0,1,.1c.3,0,.6.2.8.4s.4.4.6.7c.2.3.2.6.3,1h-1.1c0-.4-.2-.7-.5-.9Z"/>
    <path d="M238.6,223.4c-.2.1-.4.2-.7.2s-.5,0-.6-.2c-.2-.1-.2-.4-.2-.7-.3.3-.6.6-1,.7-.4.1-.8.2-1.2.2s-.5,0-.8,0c-.3,0-.5-.2-.7-.3-.2-.1-.3-.3-.4-.5-.1-.2-.2-.5-.2-.8s0-.6.2-.9.3-.4.5-.5.4-.2.7-.3.5-.1.8-.2c.3,0,.5,0,.8-.1s.5,0,.7-.1.3-.1.5-.2c.1-.1.2-.2.2-.4s0-.4-.1-.5-.2-.2-.3-.3c-.1,0-.3-.1-.4-.1-.2,0-.3,0-.5,0-.4,0-.8,0-1.1.2s-.4.5-.5.9h-1c0-.4,0-.7.2-1,.1-.3.3-.5.6-.6.2-.2.5-.3.8-.4.3,0,.6-.1,1-.1s.6,0,.8,0c.3,0,.5.1.8.2.2.1.4.3.5.5s.2.5.2.9v3.2c0,.2,0,.4,0,.5,0,.1.1.2.3.2s.2,0,.3,0v.8ZM236.9,220.2c-.1,0-.3.2-.5.2s-.4,0-.7.1c-.2,0-.5,0-.7,0-.2,0-.4,0-.6.2-.2,0-.3.2-.5.3-.1.1-.2.3-.2.6s0,.3.1.4c0,.1.2.2.3.3.1,0,.2.1.4.2.1,0,.3,0,.5,0,.3,0,.6,0,.9-.1s.4-.2.6-.3c.2-.1.3-.3.3-.5s.1-.3.1-.5v-1Z"/>
    <path d="M240.6,214.9v8.6h-1v-8.6h1Z"/>
    <path d="M245.9,218.3c-.3-.2-.6-.3-1-.3s-.7,0-.9.2c-.2.1-.4.3-.6.5-.1.2-.3.5-.3.8,0,.3,0,.6,0,.9s0,.6.1.8c0,.3.2.5.3.7.1.2.3.4.6.5.2.1.5.2.8.2.5,0,.9-.1,1.2-.4.3-.3.5-.6.5-1.1h1c-.1.8-.4,1.4-.9,1.8s-1.1.6-1.9.6-.9,0-1.3-.2c-.4-.2-.7-.4-.9-.6s-.4-.6-.6-1c-.1-.4-.2-.8-.2-1.3s0-.9.2-1.3c.1-.4.3-.8.5-1.1s.5-.5.9-.7.8-.3,1.3-.3.7,0,1,.1c.3,0,.6.2.8.4s.4.4.6.7c.2.3.2.6.3,1h-1.1c0-.4-.2-.7-.5-.9Z"/>
    <path d="M251.8,219.6v-.8h6v.8h-6ZM257.8,221.2v.8h-6v-.8h6Z"/>
    <path d="M267,223.4v-.8h0c-.2.3-.4.6-.8.7-.4.2-.8.2-1.2.2s-.9,0-1.3-.3c-.4-.2-.7-.4-.9-.7-.2-.3-.4-.6-.5-1-.1-.4-.2-.8-.2-1.2s0-.9.2-1.2c.1-.4.3-.7.5-1s.5-.5.9-.7c.4-.2.8-.3,1.2-.3s.3,0,.5,0c.2,0,.4,0,.6.2.2,0,.4.2.5.3s.3.3.4.5h0v-3.2h1v8.6h-1ZM263.3,221.2c0,.3.2.5.3.7.2.2.4.4.6.5s.5.2.9.2.6,0,.9-.2c.2-.1.4-.3.6-.5.2-.2.3-.5.3-.8,0-.3.1-.6.1-.9s0-.6-.1-.9c0-.3-.2-.5-.3-.8-.2-.2-.4-.4-.6-.5-.2-.1-.5-.2-.9-.2s-.6,0-.9.2c-.2.1-.4.3-.6.5-.1.2-.2.5-.3.8,0,.3,0,.6,0,.9s0,.6.1.8Z"/>
    <path d="M275.1,223.4c-.2.1-.4.2-.7.2s-.5,0-.6-.2c-.2-.1-.2-.4-.2-.7-.3.3-.6.6-1,.7-.4.1-.8.2-1.2.2s-.5,0-.8,0c-.3,0-.5-.2-.7-.3-.2-.1-.3-.3-.4-.5-.1-.2-.2-.5-.2-.8s0-.6.2-.9.3-.4.5-.5.4-.2.7-.3.5-.1.8-.2c.3,0,.5,0,.8-.1s.5,0,.7-.1.3-.1.5-.2c.1-.1.2-.2.2-.4s0-.4-.1-.5-.2-.2-.3-.3c-.1,0-.3-.1-.4-.1-.2,0-.3,0-.5,0-.4,0-.8,0-1.1.2s-.4.5-.5.9h-1c0-.4,0-.7.2-1,.1-.3.3-.5.6-.6.2-.2.5-.3.8-.4.3,0,.6-.1,1-.1s.6,0,.8,0c.3,0,.5.1.8.2.2.1.4.3.5.5s.2.5.2.9v3.2c0,.2,0,.4,0,.5,0,.1.1.2.3.2s.2,0,.3,0v.8ZM273.4,220.2c-.1,0-.3.2-.5.2s-.4,0-.7.1c-.2,0-.5,0-.7,0-.2,0-.4,0-.6.2-.2,0-.3.2-.5.3-.1.1-.2.3-.2.6s0,.3.1.4c0,.1.2.2.3.3.1,0,.2.1.4.2.1,0,.3,0,.5,0,.3,0,.6,0,.9-.1s.4-.2.6-.3c.2-.1.3-.3.3-.5s.1-.3.1-.5v-1Z"/>
    <path d="M278.7,217.2v.9h-1.2v3.9c0,.1,0,.2,0,.3s0,.1.1.2c0,0,.1,0,.2,0,.1,0,.2,0,.4,0h.5v.9h-.8c-.3,0-.5,0-.7,0s-.3-.1-.5-.2-.2-.2-.3-.4,0-.4,0-.7v-3.9h-1.1v-.9h1.1v-1.9h1v1.9h1.2Z"/>
    <path d="M285.3,223.4c-.2.1-.4.2-.7.2s-.5,0-.6-.2c-.2-.1-.2-.4-.2-.7-.3.3-.6.6-1,.7-.4.1-.8.2-1.2.2s-.5,0-.8,0c-.3,0-.5-.2-.7-.3-.2-.1-.3-.3-.4-.5-.1-.2-.2-.5-.2-.8s0-.6.2-.9.3-.4.5-.5.4-.2.7-.3.5-.1.8-.2c.3,0,.5,0,.8-.1s.5,0,.7-.1.3-.1.5-.2c.1-.1.2-.2.2-.4s0-.4-.1-.5-.2-.2-.3-.3c-.1,0-.3-.1-.4-.1-.2,0-.3,0-.5,0-.4,0-.8,0-1.1.2s-.4.5-.5.9h-1c0-.4,0-.7.2-1,.1-.3.3-.5.6-.6.2-.2.5-.3.8-.4.3,0,.6-.1,1-.1s.6,0,.8,0c.3,0,.5.1.8.2.2.1.4.3.5.5s.2.5.2.9v3.2c0,.2,0,.4,0,.5,0,.1.1.2.3.2s.2,0,.3,0v.8ZM283.7,220.2c-.1,0-.3.2-.5.2s-.4,0-.7.1c-.2,0-.5,0-.7,0-.2,0-.4,0-.6.2-.2,0-.3.2-.5.3-.1.1-.2.3-.2.6s0,.3.1.4c0,.1.2.2.3.3.1,0,.2.1.4.2.1,0,.3,0,.5,0,.3,0,.6,0,.9-.1s.4-.2.6-.3c.2-.1.3-.3.3-.5s.1-.3.1-.5v-1Z"/>
    <path d="M288.8,223.4v-6.1h-2.2v-.8c.3,0,.6,0,.8,0,.3,0,.5-.1.7-.2s.4-.3.6-.5c.2-.2.3-.5.3-.8h.8v8.5h-1Z"/>
    <path d="M294,215.5v9.5h1.3v.8h-2.2v-11.1h2.2v.8h-1.3Z"/>
    <path d="M298.5,224.3c-.1.3-.2.6-.4.8-.1.2-.2.4-.4.5-.1.1-.3.2-.5.3-.2,0-.4,0-.6,0s-.2,0-.4,0-.2,0-.3,0v-.9c0,0,.2,0,.3.1s.2,0,.3,0c.2,0,.4,0,.5-.2.1,0,.2-.2.3-.4l.4-1-2.5-6.2h1.2l1.8,5.1h0l1.7-5.1h1.1l-2.7,7Z"/>
    <path d="M302.6,225v-9.5h-1.3v-.8h2.2v11.1h-2.2v-.8h1.3Z"/>
    <path d="M306.2,215.5v9.5h1.3v.8h-2.2v-11.1h2.2v.8h-1.3Z"/>
    <path d="M307.8,217.2h1.3l1.5,2.2,1.5-2.2h1.2l-2.1,2.9,2.4,3.3h-1.3l-1.7-2.6-1.7,2.6h-1.2l2.3-3.3-2.2-2.9Z"/>
    <path d="M315,225v-9.5h-1.3v-.8h2.2v11.1h-2.2v-.8h1.3Z"/>
    <path d="M326.8,220v.8h-2.6v2.6h-.8v-2.6h-2.6v-.8h2.6v-2.6h.8v2.6h2.6Z"/>
    <path d="M336,223.4v-.8h0c-.2.3-.4.6-.8.7-.4.2-.8.2-1.2.2s-.9,0-1.3-.3c-.4-.2-.7-.4-.9-.7-.2-.3-.4-.6-.5-1-.1-.4-.2-.8-.2-1.2s0-.9.2-1.2c.1-.4.3-.7.5-1s.5-.5.9-.7c.4-.2.8-.3,1.2-.3s.3,0,.5,0c.2,0,.4,0,.6.2.2,0,.4.2.5.3s.3.3.4.5h0v-3.2h1v8.6h-1ZM332.3,221.2c0,.3.2.5.3.7.2.2.4.4.6.5s.5.2.9.2.6,0,.9-.2c.2-.1.4-.3.6-.5.2-.2.3-.5.3-.8,0-.3.1-.6.1-.9s0-.6-.1-.9c0-.3-.2-.5-.3-.8-.2-.2-.4-.4-.6-.5-.2-.1-.5-.2-.9-.2s-.6,0-.9.2c-.2.1-.4.3-.6.5-.1.2-.2.5-.3.8,0,.3,0,.6,0,.9s0,.6.1.8Z"/>
    <path d="M344.1,223.4c-.2.1-.4.2-.7.2s-.5,0-.6-.2c-.2-.1-.2-.4-.2-.7-.3.3-.6.6-1,.7-.4.1-.8.2-1.2.2s-.5,0-.8,0c-.3,0-.5-.2-.7-.3-.2-.1-.3-.3-.4-.5-.1-.2-.2-.5-.2-.8s0-.6.2-.9.3-.4.5-.5.4-.2.7-.3.5-.1.8-.2c.3,0,.5,0,.8-.1s.5,0,.7-.1.3-.1.5-.2c.1-.1.2-.2.2-.4s0-.4-.1-.5-.2-.2-.3-.3c-.1,0-.3-.1-.4-.1-.2,0-.3,0-.5,0-.4,0-.8,0-1.1.2s-.4.5-.5.9h-1c0-.4,0-.7.2-1,.1-.3.3-.5.6-.6.2-.2.5-.3.8-.4.3,0,.6-.1,1-.1s.6,0,.8,0c.3,0,.5.1.8.2.2.1.4.3.5.5s.2.5.2.9v3.2c0,.2,0,.4,0,.5,0,.1.1.2.3.2s.2,0,.3,0v.8ZM342.4,220.2c-.1,0-.3.2-.5.2s-.4,0-.7.1c-.2,0-.5,0-.7,0-.2,0-.4,0-.6.2-.2,0-.3.2-.5.3-.1.1-.2.3-.2.6s0,.3.1.4c0,.1.2.2.3.3.1,0,.2.1.4.2.1,0,.3,0,.5,0,.3,0,.6,0,.9-.1s.4-.2.6-.3c.2-.1.3-.3.3-.5s.1-.3.1-.5v-1Z"/>
    <path d="M347.7,217.2v.9h-1.2v3.9c0,.1,0,.2,0,.3s0,.1.1.2c0,0,.1,0,.2,0,.1,0,.2,0,.4,0h.5v.9h-.8c-.3,0-.5,0-.7,0s-.3-.1-.5-.2-.2-.2-.3-.4,0-.4,0-.7v-3.9h-1.1v-.9h1.1v-1.9h1v1.9h1.2Z"/>
    <path d="M354.3,223.4c-.2.1-.4.2-.7.2s-.5,0-.6-.2c-.2-.1-.2-.4-.2-.7-.3.3-.6.6-1,.7-.4.1-.8.2-1.2.2s-.5,0-.8,0c-.3,0-.5-.2-.7-.3-.2-.1-.3-.3-.4-.5-.1-.2-.2-.5-.2-.8s0-.6.2-.9.3-.4.5-.5.4-.2.7-.3.5-.1.8-.2c.3,0,.5,0,.8-.1s.5,0,.7-.1.3-.1.5-.2c.1-.1.2-.2.2-.4s0-.4-.1-.5-.2-.2-.3-.3c-.1,0-.3-.1-.4-.1-.2,0-.3,0-.5,0-.4,0-.8,0-1.1.2s-.4.5-.5.9h-1c0-.4,0-.7.2-1,.1-.3.3-.5.6-.6.2-.2.5-.3.8-.4.3,0,.6-.1,1-.1s.6,0,.8,0c.3,0,.5.1.8.2.2.1.4.3.5.5s.2.5.2.9v3.2c0,.2,0,.4,0,.5,0,.1.1.2.3.2s.2,0,.3,0v.8ZM352.6,220.2c-.1,0-.3.2-.5.2s-.4,0-.7.1c-.2,0-.5,0-.7,0-.2,0-.4,0-.6.2-.2,0-.3.2-.5.3-.1.1-.2.3-.2.6s0,.3.1.4c0,.1.2.2.3.3.1,0,.2.1.4.2.1,0,.3,0,.5,0,.3,0,.6,0,.9-.1s.4-.2.6-.3c.2-.1.3-.3.3-.5s.1-.3.1-.5v-1Z"/>
    <path d="M355.1,216.7c.1-.4.3-.7.5-1,.2-.3.5-.5.9-.6.4-.2.8-.2,1.2-.2s.7,0,1,.2c.3.1.6.3.8.5.2.2.4.5.6.8.1.3.2.7.2,1.1s0,.7-.2,1c-.1.3-.3.5-.5.8-.2.2-.4.4-.7.6s-.5.4-.8.5c-.3.2-.5.3-.8.5-.3.2-.5.3-.7.5-.2.2-.4.4-.6.6-.2.2-.3.4-.3.7h4.4v.9h-5.6c0-.5.1-.9.3-1.3.1-.4.3-.7.5-.9.2-.3.5-.5.7-.7.3-.2.6-.4.9-.6.4-.2.7-.4.9-.6.3-.2.5-.4.7-.6.2-.2.3-.4.4-.6s.1-.5.1-.8,0-.4-.1-.6c0-.2-.2-.3-.4-.5-.1-.1-.3-.2-.5-.3s-.4-.1-.6-.1-.5,0-.8.2c-.2.1-.4.3-.5.5-.1.2-.2.4-.3.7s0,.5,0,.8h-1c0-.4,0-.8.1-1.2Z"/>
    <path d="M363,215.5v9.5h1.3v.8h-2.2v-11.1h2.2v.8h-1.3Z"/>
    <path d="M367.5,224.3c-.1.3-.2.6-.4.8-.1.2-.2.4-.4.5-.1.1-.3.2-.5.3-.2,0-.4,0-.6,0s-.2,0-.4,0-.2,0-.3,0v-.9c0,0,.2,0,.3.1s.2,0,.3,0c.2,0,.4,0,.5-.2.1,0,.2-.2.3-.4l.4-1-2.5-6.2h1.2l1.8,5.1h0l1.7-5.1h1.1l-2.7,7Z"/>
    <path d="M371.5,225v-9.5h-1.3v-.8h2.2v11.1h-2.2v-.8h1.3Z"/>
    <path d="M375.2,215.5v9.5h1.3v.8h-2.2v-11.1h2.2v.8h-1.3Z"/>
    <path d="M376.8,217.2h1.3l1.5,2.2,1.5-2.2h1.2l-2.1,2.9,2.4,3.3h-1.3l-1.7-2.6-1.7,2.6h-1.2l2.3-3.3-2.2-2.9Z"/>
    <path d="M384,225v-9.5h-1.3v-.8h2.2v11.1h-2.2v-.8h1.3Z"/>
    <path d="M227.7,231.6v.8h0c.2-.3.4-.6.8-.8.4-.2.8-.2,1.2-.2s.9,0,1.3.3c.4.2.7.4.9.7.2.3.4.6.5,1,.1.4.2.8.2,1.2s0,.9-.2,1.2-.3.7-.5,1c-.2.3-.5.5-.9.7-.4.2-.8.3-1.2.3s-.3,0-.5,0c-.2,0-.4,0-.6-.2-.2,0-.4-.2-.5-.3s-.3-.3-.4-.5h0v3.2h-1v-8.6h1ZM231.3,233.8c0-.3-.2-.5-.3-.7-.2-.2-.4-.4-.6-.5s-.5-.2-.9-.2-.6,0-.9.2c-.2.1-.4.3-.6.5-.2.2-.3.5-.3.8,0,.3-.1.6-.1.9s0,.6.1.9c0,.3.2.5.3.8.2.2.4.4.6.5s.5.2.9.2.6,0,.9-.2.4-.3.6-.5c.1-.2.2-.5.3-.8,0-.3,0-.6,0-.9s0-.6-.1-.8Z"/>
    <path d="M234.7,231.6v1.3h0c.2-.5.6-.9.9-1.1.4-.2.8-.4,1.4-.3v1.1c-.4,0-.8,0-1,.2-.3.1-.5.3-.7.5-.2.2-.3.5-.4.8,0,.3-.1.7-.1,1.1v2.8h-1v-6.2h1Z"/>
    <path d="M237.8,230.5v-1.2h1v1.2h-1ZM238.8,231.6v6.2h-1v-6.2h1Z"/>
    <path d="M241.4,231.6v1h0c.4-.8,1.1-1.1,2-1.1s.7,0,1,.2c.3.1.5.3.7.5s.3.4.4.7c0,.3.1.6.1.9v4.1h-1v-4.2c0-.4-.1-.7-.3-.9-.2-.2-.5-.3-.9-.3s-.6,0-.8.1c-.2,0-.4.2-.6.4-.2.2-.3.4-.3.6,0,.2-.1.5-.1.8v3.5h-1v-6.2h1Z"/>
    <path d="M249.7,231.6v.9h-1.2v3.9c0,.1,0,.2,0,.3s0,.1.1.2c0,0,.1,0,.2,0,.1,0,.2,0,.4,0h.5v.9h-.8c-.3,0-.5,0-.7,0s-.3-.1-.5-.2-.2-.2-.3-.4,0-.4,0-.7v-3.9h-1.1v-.9h1.1v-1.9h1v1.9h1.2Z"/>
    <path d="M251.7,238.9c-.2-.4-.4-.9-.6-1.4s-.3-.9-.4-1.4c0-.5-.1-1-.1-1.5,0-.9.2-1.9.5-2.9.3-1,.8-1.9,1.4-2.7h.8c-.6.9-1,1.8-1.2,2.7-.2.9-.4,1.8-.4,2.8s.1,2,.4,2.9.7,1.8,1.2,2.7h-.8c-.3-.4-.5-.9-.8-1.3Z"/>
    <path d="M257.7,232.7c-.3-.2-.6-.3-1-.3s-.7,0-.9.2c-.2.1-.4.3-.6.5-.1.2-.3.5-.3.8,0,.3,0,.6,0,.9s0,.6.1.8c0,.3.2.5.3.7.1.2.3.4.6.5.2.1.5.2.8.2.5,0,.9-.1,1.2-.4.3-.3.5-.6.5-1.1h1c-.1.8-.4,1.4-.9,1.8s-1.1.6-1.9.6-.9,0-1.3-.2c-.4-.2-.7-.4-.9-.6s-.4-.6-.6-1c-.1-.4-.2-.8-.2-1.3s0-.9.2-1.3c.1-.4.3-.8.5-1.1s.5-.5.9-.7.8-.3,1.3-.3.7,0,1,.1c.3,0,.6.2.8.4s.4.4.6.7c.2.3.2.6.3,1h-1.1c0-.4-.2-.7-.5-.9Z"/>
    <path d="M265.9,237.8c-.2.1-.4.2-.7.2s-.5,0-.6-.2c-.2-.1-.2-.4-.2-.7-.3.3-.6.6-1,.7-.4.1-.8.2-1.2.2s-.5,0-.8,0c-.3,0-.5-.2-.7-.3-.2-.1-.3-.3-.4-.5-.1-.2-.2-.5-.2-.8s0-.6.2-.9.3-.4.5-.5.4-.2.7-.3.5-.1.8-.2c.3,0,.5,0,.8-.1s.5,0,.7-.1.3-.1.5-.2c.1-.1.2-.2.2-.4s0-.4-.1-.5-.2-.2-.3-.3c-.1,0-.3-.1-.4-.1-.2,0-.3,0-.5,0-.4,0-.8,0-1.1.2s-.4.5-.5.9h-1c0-.4,0-.7.2-1,.1-.3.3-.5.6-.6.2-.2.5-.3.8-.4.3,0,.6-.1,1-.1s.6,0,.8,0c.3,0,.5.1.8.2.2.1.4.3.5.5s.2.5.2.9v3.2c0,.2,0,.4,0,.5,0,.1.1.2.3.2s.2,0,.3,0v.8ZM264.2,234.6c-.1,0-.3.2-.5.2s-.4,0-.7.1c-.2,0-.5,0-.7,0-.2,0-.4,0-.6.2-.2,0-.3.2-.5.3-.1.1-.2.3-.2.6s0,.3.1.4c0,.1.2.2.3.3.1,0,.2.1.4.2.1,0,.3,0,.5,0,.3,0,.6,0,.9-.1s.4-.2.6-.3c.2-.1.3-.3.3-.5s.1-.3.1-.5v-1Z"/>
    <path d="M267.9,229.3v8.6h-1v-8.6h1Z"/>
    <path d="M273.2,232.7c-.3-.2-.6-.3-1-.3s-.7,0-.9.2c-.2.1-.4.3-.6.5-.1.2-.3.5-.3.8,0,.3,0,.6,0,.9s0,.6.1.8c0,.3.2.5.3.7.1.2.3.4.6.5.2.1.5.2.8.2.5,0,.9-.1,1.2-.4.3-.3.5-.6.5-1.1h1c-.1.8-.4,1.4-.9,1.8s-1.1.6-1.9.6-.9,0-1.3-.2c-.4-.2-.7-.4-.9-.6s-.4-.6-.6-1c-.1-.4-.2-.8-.2-1.3s0-.9.2-1.3c.1-.4.3-.8.5-1.1s.5-.5.9-.7.8-.3,1.3-.3.7,0,1,.1c.3,0,.6.2.8.4s.4.4.6.7c.2.3.2.6.3,1h-1.1c0-.4-.2-.7-.5-.9Z"/>
    <path d="M277.5,236.5v1.2c0,.5-.1.8-.3,1.2s-.5.6-1,.7v-.6c.1,0,.2-.1.3-.2,0,0,.2-.2.2-.3,0-.1,0-.2.1-.3,0-.1,0-.2,0-.3h-.7v-1.3h1.3Z"/>
    <path d="M287,237.4c-.5.4-1,.5-1.8.5s-.9,0-1.3-.2c-.4-.2-.7-.4-.9-.7s-.4-.6-.6-1c-.1-.4-.2-.8-.2-1.3,0-.5,0-.9.2-1.3.1-.4.3-.7.6-1,.3-.3.6-.5.9-.7.4-.2.7-.2,1.2-.2s1,.1,1.4.3c.4.2.7.5.9.9.2.4.4.7.5,1.2,0,.4.1.8.1,1.2h-4.6c0,.3,0,.5,0,.8,0,.2.2.5.3.6.2.2.4.3.6.5.2.1.5.2.9.2s.8,0,1.1-.3c.3-.2.5-.5.5-.9h1c-.1.7-.4,1.2-.9,1.6ZM286.8,233.5c0-.2-.2-.4-.4-.6-.2-.2-.3-.3-.6-.4-.2,0-.4-.1-.7-.1s-.5,0-.7.1c-.2,0-.4.2-.5.4-.2.2-.3.3-.4.6s-.1.4-.2.7h3.6c0-.2,0-.5-.2-.7Z"/>
    <path d="M290,231.6v1h0c.4-.8,1.1-1.1,2-1.1s.7,0,1,.2c.3.1.5.3.7.5s.3.4.4.7c0,.3.1.6.1.9v4.1h-1v-4.2c0-.4-.1-.7-.3-.9-.2-.2-.5-.3-.9-.3s-.6,0-.8.1c-.2,0-.4.2-.6.4-.2.2-.3.4-.3.6,0,.2-.1.5-.1.8v3.5h-1v-6.2h1Z"/>
    <path d="M300.3,237.8v-.8h0c-.2.3-.4.6-.8.7-.4.2-.8.2-1.2.2s-.9,0-1.3-.3c-.4-.2-.7-.4-.9-.7-.2-.3-.4-.6-.5-1-.1-.4-.2-.8-.2-1.2s0-.9.2-1.2c.1-.4.3-.7.5-1s.5-.5.9-.7c.4-.2.8-.3,1.2-.3s.3,0,.5,0c.2,0,.4,0,.6.2.2,0,.4.2.5.3s.3.3.4.5h0v-3.2h1v8.6h-1ZM296.6,235.6c0,.3.2.5.3.7.2.2.4.4.6.5s.5.2.9.2.6,0,.9-.2c.2-.1.4-.3.6-.5.2-.2.3-.5.3-.8,0-.3.1-.6.1-.9s0-.6-.1-.9c0-.3-.2-.5-.3-.8-.2-.2-.4-.4-.6-.5-.2-.1-.5-.2-.9-.2s-.6,0-.9.2c-.2.1-.4.3-.6.5-.1.2-.2.5-.3.8,0,.3,0,.6,0,.9s0,.6.1.8Z"/>
    <path d="M306,234v-.8h6v.8h-6ZM312,235.6v.8h-6v-.8h6Z"/>
    <path d="M318.1,229.3v3.1h-.8v-3.1h.8ZM319.8,229.3v3.1h-.8v-3.1h.8Z"/>
    <path d="M324.4,238l-3.5-9h.9l3.6,9h-.9Z"/>
    <path d="M328.5,231.6v.9h-1.2v3.9c0,.1,0,.2,0,.3s0,.1.1.2c0,0,.1,0,.2,0,.1,0,.2,0,.4,0h.5v.9h-.8c-.3,0-.5,0-.7,0s-.3-.1-.5-.2-.2-.2-.3-.4,0-.4,0-.7v-3.9h-1.1v-.9h1.1v-1.9h1v1.9h1.2Z"/>
    <path d="M331,229.3v3.1h-.8v-3.1h.8ZM332.7,229.3v3.1h-.8v-3.1h.8Z"/>
    <path d="M335.1,237.5c.2-.9.4-1.8.4-2.8s-.1-2-.4-2.9c-.2-.9-.6-1.8-1.2-2.7h.8c.3.4.5.9.8,1.3.2.4.4.9.6,1.4s.3.9.4,1.4c0,.5.1,1,.1,1.5,0,.9-.2,1.9-.5,2.9-.3,1-.8,1.8-1.4,2.7h-.8c.6-.9,1-1.8,1.2-2.7Z"/>
    <path d="M227.7,246v.8h0c.2-.3.4-.6.8-.8.4-.2.8-.2,1.2-.2s.9,0,1.3.3c.4.2.7.4.9.7.2.3.4.6.5,1,.1.4.2.8.2,1.2s0,.9-.2,1.2-.3.7-.5,1c-.2.3-.5.5-.9.7-.4.2-.8.3-1.2.3s-.3,0-.5,0c-.2,0-.4,0-.6-.2-.2,0-.4-.2-.5-.3s-.3-.3-.4-.5h0v3.2h-1v-8.6h1ZM231.3,248.2c0-.3-.2-.5-.3-.7-.2-.2-.4-.4-.6-.5s-.5-.2-.9-.2-.6,0-.9.2c-.2.1-.4.3-.6.5-.2.2-.3.5-.3.8,0,.3-.1.6-.1.9s0,.6.1.9c0,.3.2.5.3.8.2.2.4.4.6.5s.5.2.9.2.6,0,.9-.2.4-.3.6-.5c.1-.2.2-.5.3-.8,0-.3,0-.6,0-.9s0-.6-.1-.8Z"/>
    <path d="M234.7,246v1.3h0c.2-.5.6-.9.9-1.1.4-.2.8-.4,1.4-.3v1.1c-.4,0-.8,0-1,.2-.3.1-.5.3-.7.5-.2.2-.3.5-.4.8,0,.3-.1.7-.1,1.1v2.8h-1v-6.2h1Z"/>
    <path d="M237.8,244.9v-1.2h1v1.2h-1ZM238.8,246v6.2h-1v-6.2h1Z"/>
    <path d="M241.4,246v1h0c.4-.8,1.1-1.1,2-1.1s.7,0,1,.2c.3.1.5.3.7.5s.3.4.4.7c0,.3.1.6.1.9v4.1h-1v-4.2c0-.4-.1-.7-.3-.9-.2-.2-.5-.3-.9-.3s-.6,0-.8.1c-.2,0-.4.2-.6.4-.2.2-.3.4-.3.6,0,.2-.1.5-.1.8v3.5h-1v-6.2h1Z"/>
    <path d="M249.7,246v.9h-1.2v3.9c0,.1,0,.2,0,.3s0,.1.1.2c0,0,.1,0,.2,0,.1,0,.2,0,.4,0h.5v.9h-.8c-.3,0-.5,0-.7,0s-.3-.1-.5-.2-.2-.2-.3-.4,0-.4,0-.7v-3.9h-1.1v-.9h1.1v-1.9h1v1.9h1.2Z"/>
    <path d="M251.7,253.3c-.2-.4-.4-.9-.6-1.4s-.3-.9-.4-1.4c0-.5-.1-1-.1-1.5,0-.9.2-1.9.5-2.9.3-1,.8-1.9,1.4-2.7h.8c-.6.9-1,1.8-1.2,2.7-.2.9-.4,1.8-.4,2.8s.1,2,.4,2.9.7,1.8,1.2,2.7h-.8c-.3-.4-.5-.9-.8-1.3Z"/>
    <path d="M254.3,251.9c.2-.9.4-1.8.4-2.8s-.1-2-.4-2.9c-.2-.9-.6-1.8-1.2-2.7h.8c.3.4.5.9.8,1.3.2.4.4.9.6,1.4s.3.9.4,1.4c0,.5.1,1,.1,1.5,0,.9-.2,1.9-.5,2.9-.3,1-.8,1.8-1.4,2.7h-.8c.6-.9,1-1.8,1.2-2.7Z"/>
  </g>
  <line class="st0" x1="218.8" y1="212.2" x2="218.8" y2="252.1"/>
  <line class="st0" x1="206.1" y1="197.5" x2="206.1" y2="268.5"/>
  <polyline class="st0" points="299.3 13.2 413 13.2 413 59.9 342.6 59.9"/>
  <polyline class="st0" points="318.1 206.5 396.9 206.5 396.9 249.1 263.8 249.1"/>
  <polyline class="st0" points="304.8 191 304.8 191 413 191 413 268.5 206.1 268.5"/>
</svg>