<?xml version="1.0" encoding="UTF-8"?>
<svg id="Layer_1" xmlns="http://www.w3.org/2000/svg" version="1.1" viewBox="0 0 654.7 188.4">
  <!-- Generator: Adobe Illustrator 29.2.1, SVG Export Plug-In . SVG Version: 2.1.0 Build 116)  -->
  <defs>
    <style>
      .st0, .st1, .st2, .st3 {
        fill: none;
      }

      .st4 {
        fill: #057aa8;
      }

      .st5 {
        fill: #e0f1c5;
      }

      .st1 {
        stroke: #7ec01b;
        stroke-width: 1.5px;
      }

      .st6 {
        stroke: #231f20;
        stroke-miterlimit: 10;
        stroke-width: .8px;
      }

      .st7 {
        fill: #7ec01b;
      }

      .st2 {
        stroke: #000;
        stroke-width: .5px;
      }

      .st8 {
        fill: #c0e3e8;
      }

      .st3 {
        stroke: #057aa8;
      }

      .st9 {
        fill: #999;
      }
    </style>
  </defs>
  <path d="M140,43.2v.7h-.8v1.5h-.7v-1.5h-2.7v-.7l2.8-4h.6v4.1h.8ZM138.5,40.2h0l-2.1,3h2.1v-3Z"/>
  <path d="M137.5,61.6h.2c.2,0,.3,0,.4,0,.1,0,.3-.1.4-.2.1,0,.2-.2.3-.3,0-.1,0-.3,0-.4,0-.3-.1-.6-.3-.7-.2-.2-.5-.2-.8-.2s-.4,0-.5.1-.3.2-.4.3c0,.1-.2.3-.2.4,0,.2,0,.3,0,.5h-.7c0-.3,0-.6.1-.8s.2-.5.4-.6.4-.3.6-.4.5-.1.8-.1.5,0,.7.1c.2,0,.4.2.6.3.2.1.3.3.4.5,0,.2.1.5.1.7s0,.5-.2.7c-.2.2-.4.4-.6.5h0c.4,0,.7.3.8.6.2.3.3.6.3,1s0,.6-.2.8c-.1.2-.3.4-.5.6-.2.2-.4.3-.7.4-.3,0-.5.1-.8.1s-.6,0-.9-.1-.5-.2-.7-.4-.3-.4-.4-.6-.1-.5-.1-.9h.7c0,.4.1.7.3,1,.2.3.5.4,1,.4s.4,0,.5,0c.2,0,.3-.1.4-.2.1-.1.2-.2.3-.4,0-.1.1-.3.1-.5s0-.4-.1-.5c0-.1-.2-.3-.3-.4-.1-.1-.3-.2-.4-.2s-.3,0-.5,0-.3,0-.4,0v-.6s0,0,0,0Z"/>
  <path d="M136,80.1c0-.3.2-.5.4-.7.2-.2.4-.3.6-.5.3-.1.5-.2.9-.2s.5,0,.8.1.4.2.6.3.3.3.4.6c.1.2.2.5.2.8s0,.5-.1.7-.2.4-.3.6-.3.3-.5.5c-.2.1-.4.3-.6.4-.2.1-.4.2-.6.3-.2.1-.4.2-.5.4-.2.1-.3.3-.4.4-.1.1-.2.3-.2.5h3.2v.7h-4c0-.4,0-.7.2-.9.1-.3.2-.5.4-.7.2-.2.3-.4.5-.5.2-.1.4-.3.6-.4.3-.2.5-.3.7-.5.2-.1.4-.3.5-.4.1-.1.2-.3.3-.5s.1-.4.1-.6,0-.3,0-.5c0-.1-.1-.3-.3-.4s-.2-.2-.4-.2c-.1,0-.3,0-.5,0s-.4,0-.6.1-.3.2-.4.4-.2.3-.2.5c0,.2,0,.4,0,.6h-.7c0-.3,0-.6,0-.9Z"/>
  <path d="M137.9,104.9v-4.4h-1.6v-.6c.2,0,.4,0,.6,0,.2,0,.4,0,.5-.2.2,0,.3-.2.4-.4.1-.2.2-.3.2-.6h.6v6.2h-.7Z"/>
  <path d="M135.9,121c0-.2,0-.5,0-.7,0-.2.1-.5.2-.7,0-.2.2-.4.4-.6s.3-.3.6-.4c.2,0,.5-.1.8-.1s.6,0,.8.1.4.2.6.4.3.3.4.6c0,.2.2.4.2.7,0,.2,0,.5,0,.7s0,.5,0,.7,0,.5,0,.7,0,.5,0,.7c0,.2-.1.5-.2.7,0,.2-.2.4-.4.5s-.3.3-.6.4c-.2,0-.5.1-.8.1s-.6,0-.8-.1c-.2,0-.4-.2-.6-.4s-.3-.3-.4-.5c0-.2-.2-.4-.2-.7,0-.2,0-.5,0-.7s0-.5,0-.7,0-.5,0-.7ZM136.7,122.5c0,.3,0,.6.1.8s.2.5.4.6.4.3.7.3.6,0,.7-.3c.2-.2.3-.4.4-.6s.1-.5.1-.8c0-.3,0-.5,0-.8s0-.3,0-.5c0-.2,0-.4,0-.6,0-.2,0-.4-.1-.5,0-.2-.1-.3-.2-.5,0-.1-.2-.2-.4-.3s-.3-.1-.5-.1-.4,0-.5.1-.3.2-.4.3c0,.1-.2.3-.2.5,0,.2,0,.4-.1.5,0,.2,0,.4,0,.6,0,.2,0,.4,0,.5,0,.2,0,.5,0,.8Z"/>
  <g>
    <path d="M135.1,141.8v.7h-2.5v-.7h2.5Z"/>
    <path d="M137.9,144.6v-4.4h-1.6v-.6c.2,0,.4,0,.6,0,.2,0,.4,0,.5-.2.2,0,.3-.2.4-.4.1-.2.2-.3.2-.6h.6v6.2h-.7Z"/>
  </g>
  <g>
    <path d="M135.1,161.7v.7h-2.5v-.7h2.5Z"/>
    <path d="M136,159.6c0-.3.2-.5.4-.7.2-.2.4-.3.6-.5.3-.1.5-.2.9-.2s.5,0,.8.1c.2,0,.4.2.6.3.2.1.3.3.4.6.1.2.2.5.2.8s0,.5-.1.7c0,.2-.2.4-.3.6s-.3.3-.5.4c-.2.1-.4.3-.6.4-.2.1-.4.2-.6.3-.2.1-.4.2-.5.4s-.3.3-.4.4c-.1.1-.2.3-.2.5h3.2v.7h-4c0-.4,0-.7.2-.9.1-.3.2-.5.4-.7s.3-.4.5-.5c.2-.1.4-.3.6-.4.3-.2.5-.3.7-.4.2-.1.4-.3.5-.4.1-.1.2-.3.3-.5,0-.2.1-.4.1-.6s0-.3,0-.5-.1-.3-.3-.4-.2-.2-.4-.2c-.1,0-.3,0-.5,0s-.4,0-.6.1c-.2,0-.3.2-.4.4s-.2.3-.2.5c0,.2,0,.4,0,.6h-.7c0-.3,0-.6,0-.9Z"/>
  </g>
  <path d="M127.5,40.7h-2.8v-1.2h4.8v1.2l-3,3.4h3.2v1.2h-5.3v-1.2l3-3.4Z"/>
  <line x1="144.4" y1="43.3" x2="146.8" y2="43.3"/>
  <line class="st2" x1="144.4" y1="43.3" x2="146.8" y2="43.3"/>
  <line x1="144.4" y1="63.2" x2="146.8" y2="63.2"/>
  <line class="st2" x1="144.4" y1="63.2" x2="146.8" y2="63.2"/>
  <line x1="144.4" y1="83" x2="146.8" y2="83"/>
  <line class="st2" x1="144.4" y1="83" x2="146.8" y2="83"/>
  <line x1="144.4" y1="102.9" x2="146.8" y2="102.9"/>
  <line class="st2" x1="144.4" y1="102.9" x2="146.8" y2="102.9"/>
  <line x1="144.4" y1="122.7" x2="146.8" y2="122.7"/>
  <line class="st2" x1="144.4" y1="122.7" x2="146.8" y2="122.7"/>
  <line x1="144.4" y1="142.6" x2="146.8" y2="142.6"/>
  <line class="st2" x1="144.4" y1="142.6" x2="146.8" y2="142.6"/>
  <line x1="144.4" y1="162.4" x2="146.8" y2="162.4"/>
  <line class="st2" x1="144.4" y1="162.4" x2="146.8" y2="162.4"/>
  <path d="M157,16.9c0-.2,0-.5,0-.7,0-.2.1-.5.2-.7,0-.2.2-.4.4-.6s.3-.3.6-.4c.2,0,.5-.1.8-.1s.6,0,.8.1.4.2.6.4.3.3.4.6c0,.2.2.4.2.7,0,.2,0,.5,0,.7s0,.5,0,.7,0,.5,0,.7,0,.5,0,.7c0,.2-.1.5-.2.7,0,.2-.2.4-.4.5s-.3.3-.6.4c-.2,0-.5.1-.8.1s-.6,0-.8-.1c-.2,0-.4-.2-.6-.4s-.3-.3-.4-.5c0-.2-.2-.4-.2-.7,0-.2,0-.5,0-.7s0-.5,0-.7,0-.5,0-.7ZM157.8,18.4c0,.3,0,.6.1.8s.2.5.4.6.4.3.7.3.6,0,.7-.3c.2-.2.3-.4.4-.6s.1-.5.1-.8c0-.3,0-.5,0-.8s0-.3,0-.5c0-.2,0-.4,0-.6,0-.2,0-.4-.1-.5,0-.2-.1-.3-.2-.5,0-.1-.2-.2-.4-.3s-.3-.1-.5-.1-.4,0-.5.1-.3.2-.4.3c0,.1-.2.3-.2.5,0,.2,0,.4-.1.5,0,.2,0,.4,0,.6,0,.2,0,.4,0,.5,0,.2,0,.5,0,.8Z"/>
  <path d="M190.8,20.7v-4.4h-1.6v-.6c.2,0,.4,0,.6,0,.2,0,.4,0,.5-.2.2,0,.3-.2.4-.4.1-.2.2-.3.2-.6h.6v6.2h-.7Z"/>
  <path d="M220.7,15.8c0-.3.2-.5.4-.7.2-.2.4-.3.6-.5.3-.1.5-.2.9-.2s.5,0,.8.1.4.2.6.3.3.3.4.6c.1.2.2.5.2.8s0,.5-.1.7-.2.4-.3.6-.3.3-.5.5c-.2.1-.4.3-.6.4-.2.1-.4.2-.6.3-.2.1-.4.2-.5.4-.2.1-.3.3-.4.4-.1.1-.2.3-.2.5h3.2v.7h-4c0-.4,0-.7.2-.9.1-.3.2-.5.4-.7.2-.2.3-.4.5-.5.2-.1.4-.3.6-.4.3-.2.5-.3.7-.5.2-.1.4-.3.5-.4.1-.1.2-.3.3-.5s.1-.4.1-.6,0-.3,0-.5c0-.1-.1-.3-.3-.4s-.2-.2-.4-.2c-.1,0-.3,0-.5,0s-.4,0-.6.1-.3.2-.4.4-.2.3-.2.5c0,.2,0,.4,0,.6h-.7c0-.3,0-.6,0-.9Z"/>
  <path d="M253.9,17.1h.2c.2,0,.3,0,.4,0,.1,0,.3-.1.4-.2.1,0,.2-.2.3-.3,0-.1,0-.3,0-.4,0-.3-.1-.6-.3-.7-.2-.2-.5-.2-.8-.2s-.4,0-.5.1-.3.2-.4.3c0,.1-.2.3-.2.4,0,.2,0,.3,0,.5h-.7c0-.3,0-.6.1-.8s.2-.5.4-.6.4-.3.6-.4.5-.1.8-.1.5,0,.7.1c.2,0,.4.2.6.3.2.1.3.3.4.5,0,.2.1.5.1.7s0,.5-.2.7c-.2.2-.4.4-.6.5h0c.4,0,.7.3.8.6.2.3.3.6.3,1s0,.6-.2.8c-.1.2-.3.4-.5.6-.2.2-.4.3-.7.4-.3,0-.5.1-.8.1s-.6,0-.9-.1-.5-.2-.7-.4-.3-.4-.4-.6-.1-.5-.1-.9h.7c0,.4.1.7.3,1,.2.3.5.4,1,.4s.4,0,.5,0c.2,0,.3-.1.4-.2.1-.1.2-.2.3-.4,0-.1.1-.3.1-.5s0-.4-.1-.5c0-.1-.2-.3-.3-.4-.1-.1-.3-.2-.4-.2s-.3,0-.5,0-.3,0-.4,0v-.6s0,0,0,0Z"/>
  <path d="M288.2,18.6v.7h-.8v1.5h-.7v-1.5h-2.7v-.7l2.8-4h.6v4.1h.8ZM286.7,15.5h0l-2.1,3h2.1v-3Z"/>
  <path d="M317.1,15.2l-.3,1.8h0c.1-.1.3-.2.5-.3.2,0,.4-.1.6-.1s.5,0,.8.1.5.2.6.4c.2.2.3.4.4.7.1.3.2.6.2.9s0,.5-.1.8-.2.5-.4.7c-.2.2-.4.3-.7.5-.3.1-.6.2-.9.2s-.5,0-.8-.1c-.2,0-.4-.2-.6-.3-.2-.1-.3-.3-.4-.6-.1-.2-.2-.5-.2-.8h.7c0,.2,0,.3.1.4s.2.3.3.4c.1.1.2.2.4.2.2,0,.3,0,.5,0s.3,0,.5,0,.3-.2.4-.3c.1-.1.2-.3.3-.5s.1-.4.1-.6,0-.4-.1-.6c0-.2-.2-.3-.3-.4-.1-.1-.3-.2-.4-.3-.2,0-.4-.1-.6-.1s-.5,0-.7.2c-.2.1-.4.2-.5.4h-.6s.6-3.3.6-3.3h3.1v.7h-2.5Z"/>
  <path d="M350.6,15.4c-.2-.2-.4-.3-.7-.3s-.6,0-.8.2-.3.3-.5.6c-.1.2-.2.5-.2.8,0,.3,0,.5,0,.8h0c.2-.3.4-.5.7-.6.3-.1.6-.2.9-.2s.6,0,.8.2c.2.1.4.2.6.4.2.2.3.4.4.6,0,.2.1.5.1.8s0,.5-.1.7c0,.2-.2.5-.3.7-.2.2-.4.4-.6.5-.3.1-.6.2-1,.2s-.8,0-1.1-.3c-.3-.2-.5-.4-.6-.7-.2-.3-.3-.6-.3-1,0-.3,0-.7,0-1s0-.8.1-1.2.2-.8.4-1.1.4-.6.7-.7.7-.3,1.1-.3.9.1,1.2.4c.3.3.5.7.5,1.2h-.7c0-.3-.1-.5-.3-.7ZM349.2,17.5c-.2,0-.3.2-.4.3-.1.1-.2.3-.2.4,0,.2,0,.4,0,.5s0,.4,0,.5c0,.2.1.3.2.4.1.1.2.2.4.3s.3.1.5.1.4,0,.5-.1.3-.2.4-.3c.1-.1.2-.3.2-.4,0-.2,0-.3,0-.5s0-.4,0-.5c0-.2-.1-.3-.2-.4-.1-.1-.2-.2-.4-.3s-.3-.1-.6-.1-.4,0-.6.1Z"/>
  <path d="M382.6,16.3c-.3.4-.5.9-.7,1.4-.2.5-.4,1-.5,1.5-.1.5-.2,1-.2,1.5h-.8c0-.5.1-1,.3-1.5s.3-1,.5-1.4c.2-.5.5-.9.7-1.3.3-.4.6-.8.9-1.1h-3.3v-.7h4v.6c-.3.3-.6.7-.9,1.1Z"/>
  <path d="M411.5,15.4c0-.2.2-.4.4-.5.2-.1.4-.2.6-.3s.4-.1.7-.1c.3,0,.6,0,.9.1.2,0,.4.2.6.4.1.1.3.3.3.5,0,.2.1.4.1.6,0,.3,0,.5-.2.8s-.4.4-.6.5c.4.1.6.3.8.6s.3.6.3,1,0,.6-.2.8-.3.4-.4.6-.4.3-.7.4c-.2,0-.5.1-.8.1s-.6,0-.8-.1-.5-.2-.7-.3c-.2-.2-.3-.4-.4-.6-.1-.2-.2-.5-.2-.8s0-.7.3-1c.2-.3.5-.5.8-.6-.3-.1-.5-.3-.6-.5s-.2-.5-.2-.8,0-.5.1-.7ZM412.3,19.8c.2.2.6.3.9.3s.4,0,.5,0,.3-.1.4-.3.2-.2.3-.4c0-.1,0-.3,0-.5s0-.3-.1-.5c0-.1-.2-.3-.3-.4-.1-.1-.3-.2-.4-.2-.2,0-.3,0-.5,0s-.4,0-.5,0-.3.1-.4.2-.2.2-.3.4c0,.1-.1.3-.1.5,0,.4.1.7.4.9ZM412.3,16.5c0,.1.1.2.2.3,0,0,.2.1.3.2.1,0,.3,0,.4,0,.3,0,.5,0,.7-.3.2-.2.3-.4.3-.7s0-.6-.3-.7-.4-.2-.7-.2-.3,0-.4,0c-.1,0-.2.1-.3.2,0,0-.2.2-.2.3,0,.1,0,.3,0,.4s0,.3,0,.4Z"/>
  <path d="M444.1,19.9c.2.2.5.2.8.2.5,0,.8-.2,1-.6.2-.4.4-1,.4-1.8h0c-.1.2-.3.5-.6.6-.3.2-.5.2-.8.2s-.6,0-.8-.2c-.2-.1-.4-.2-.6-.4s-.3-.4-.4-.7c0-.3-.1-.5-.1-.8s0-.6.1-.8c0-.2.2-.5.4-.6s.4-.3.6-.4c.2,0,.5-.1.8-.1s.6,0,.8.1c.3,0,.5.2.7.5.2.2.3.5.5.9.1.4.2.9.2,1.5,0,1.1-.2,1.9-.5,2.5-.3.6-.9.9-1.6.9s-.9-.1-1.3-.4c-.3-.3-.5-.7-.6-1.2h.7c0,.3.2.5.4.7ZM446.1,16c0-.2-.1-.3-.2-.5-.1-.1-.2-.2-.4-.3s-.3-.1-.6-.1-.4,0-.6.1-.3.2-.4.3c0,.1-.2.3-.2.5,0,.2,0,.4,0,.6s0,.3,0,.5c0,.2.1.3.3.4.1.1.2.2.4.3.1,0,.3.1.5.1s.4,0,.5-.1.3-.2.4-.3c.1-.1.2-.3.3-.4,0-.2,0-.3,0-.5s0-.4,0-.5Z"/>
  <g>
    <path d="M474.8,19.7v1h-1v-1h1Z"/>
    <path d="M477.3,19.7v1h-1v-1h1Z"/>
    <path d="M479.7,19.7v1h-1v-1h1Z"/>
  </g>
  <path d="M156.3,4.6h1.8l1,1.5,1-1.5h1.7l-1.9,2.7,2.1,3.1h-1.8l-1.2-1.8-1.2,1.8h-1.8l2.1-3-1.9-2.7Z"/>
  <line x1="159.1" y1="25.4" x2="159.1" y2="27.8"/>
  <line class="st2" x1="159.1" y1="25.4" x2="159.1" y2="27.8"/>
  <line x1="190.8" y1="25.4" x2="190.8" y2="27.8"/>
  <line class="st2" x1="190.8" y1="25.4" x2="190.8" y2="27.8"/>
  <line x1="222.6" y1="25.4" x2="222.6" y2="27.8"/>
  <line class="st2" x1="222.6" y1="25.4" x2="222.6" y2="27.8"/>
  <line x1="254.4" y1="25.4" x2="254.4" y2="27.8"/>
  <line class="st2" x1="254.4" y1="25.4" x2="254.4" y2="27.8"/>
  <line x1="286.2" y1="25.4" x2="286.2" y2="27.8"/>
  <line class="st2" x1="286.2" y1="25.4" x2="286.2" y2="27.8"/>
  <line x1="317.9" y1="25.4" x2="317.9" y2="27.8"/>
  <line class="st2" x1="317.9" y1="25.4" x2="317.9" y2="27.8"/>
  <line x1="349.7" y1="25.4" x2="349.7" y2="27.8"/>
  <line class="st2" x1="349.7" y1="25.4" x2="349.7" y2="27.8"/>
  <line x1="381.5" y1="25.4" x2="381.5" y2="27.8"/>
  <line class="st2" x1="381.5" y1="25.4" x2="381.5" y2="27.8"/>
  <line x1="413.2" y1="25.4" x2="413.2" y2="27.8"/>
  <line class="st2" x1="413.2" y1="25.4" x2="413.2" y2="27.8"/>
  <line x1="445" y1="25.4" x2="445" y2="27.8"/>
  <line class="st2" x1="445" y1="25.4" x2="445" y2="27.8"/>
  <g>
    <path class="st9" d="M158.4,175.3c.3,0,.5,0,.8-.2s.4-.2.6-.4c.2-.2.2-.4.2-.8,0-.5-.2-.8-.5-1.1s-.7-.4-1.1-.4-1,.2-1.3.6c-.3.4-.4.8-.4,1.4h-2.1c0-.6.1-1.1.3-1.6.2-.5.4-.9.8-1.2.3-.3.7-.6,1.2-.8.5-.2,1-.3,1.6-.3s.9,0,1.3.2.8.3,1.2.6c.4.3.6.6.9,1,.2.4.3.8.3,1.3s-.1,1-.4,1.4c-.3.4-.6.7-1.2.8h0c.6.2,1.1.5,1.4.9.3.5.5,1,.5,1.6s-.1,1.1-.3,1.6c-.2.5-.5.8-.9,1.1-.4.3-.8.5-1.3.7-.5.2-1,.2-1.6.2s-1.2,0-1.7-.3-1-.4-1.3-.8c-.4-.3-.6-.8-.8-1.3-.2-.5-.3-1.1-.3-1.7h2.1c0,.3,0,.6.1.8,0,.3.2.5.4.7.2.2.4.4.6.5.2.1.5.2.8.2.5,0,.9-.2,1.3-.5.3-.3.5-.7.5-1.3s0-.7-.2-1c-.2-.2-.4-.4-.6-.5-.3-.1-.5-.2-.8-.2s-.6,0-.9,0v-1.6c.2,0,.5,0,.8,0Z"/>
    <path class="st9" d="M166.3,179.5v2.4c0,.4,0,.7-.2,1-.1.3-.3.6-.5.8-.2.2-.5.4-.8.5-.3.1-.6.2-1,.3v-1.1c.2,0,.3,0,.5-.2.1,0,.3-.2.4-.3.1-.1.2-.3.2-.4,0-.2,0-.3,0-.5h-1.1v-2.4h2.5Z"/>
  </g>
  <g>
    <path class="st9" d="M190.2,175.3c.3,0,.5,0,.8-.2s.4-.2.6-.4c.2-.2.2-.4.2-.8,0-.5-.2-.8-.5-1.1s-.7-.4-1.1-.4-1,.2-1.3.6c-.3.4-.4.8-.4,1.4h-2.1c0-.6.1-1.1.3-1.6.2-.5.4-.9.8-1.2.3-.3.7-.6,1.2-.8.5-.2,1-.3,1.6-.3s.9,0,1.3.2.8.3,1.2.6c.4.3.6.6.9,1,.2.4.3.8.3,1.3s-.1,1-.4,1.4c-.3.4-.6.7-1.2.8h0c.6.2,1.1.5,1.4.9.3.5.5,1,.5,1.6s-.1,1.1-.3,1.6c-.2.5-.5.8-.9,1.1-.4.3-.8.5-1.3.7-.5.2-1,.2-1.6.2s-1.2,0-1.7-.3-1-.4-1.3-.8c-.4-.3-.6-.8-.8-1.3-.2-.5-.3-1.1-.3-1.7h2.1c0,.3,0,.6.1.8,0,.3.2.5.4.7.2.2.4.4.6.5.2.1.5.2.8.2.5,0,.9-.2,1.3-.5.3-.3.5-.7.5-1.3s0-.7-.2-1c-.2-.2-.4-.4-.6-.5-.3-.1-.5-.2-.8-.2s-.6,0-.9,0v-1.6c.2,0,.5,0,.8,0Z"/>
    <path class="st9" d="M198.1,179.5v2.4c0,.4,0,.7-.2,1-.1.3-.3.6-.5.8-.2.2-.5.4-.8.5-.3.1-.6.2-1,.3v-1.1c.2,0,.3,0,.5-.2.1,0,.3-.2.4-.3.1-.1.2-.3.2-.4,0-.2,0-.3,0-.5h-1.1v-2.4h2.5Z"/>
  </g>
  <g>
    <path class="st9" d="M221.5,181.9v-7.2h-2.8v-1.7c.4,0,.8,0,1.1,0,.4,0,.7-.2,1-.4.3-.2.5-.4.7-.7.2-.3.3-.6.4-1.1h1.8v11.1h-2.3Z"/>
    <path class="st9" d="M229.9,179.5v2.4c0,.4,0,.7-.2,1-.1.3-.3.6-.5.8-.2.2-.5.4-.8.5-.3.1-.6.2-1,.3v-1.1c.2,0,.3,0,.5-.2.1,0,.3-.2.4-.3.1-.1.2-.3.2-.4,0-.2,0-.3,0-.5h-1.1v-2.4h2.5Z"/>
  </g>
  <g>
    <path class="st9" d="M250,173.6c.2-.7.5-1.3.9-1.8.4-.4.8-.8,1.3-1,.5-.2,1-.3,1.6-.3s1.1,0,1.6.3c.5.2.9.5,1.3,1,.4.4.7,1,.9,1.8.2.7.3,1.6.3,2.7s-.1,2-.3,2.8c-.2.7-.5,1.3-.9,1.8-.4.4-.8.8-1.3,1-.5.2-1,.3-1.6.3s-1.1,0-1.6-.3c-.5-.2-.9-.5-1.3-1-.4-.4-.7-1-.9-1.8-.2-.7-.3-1.7-.3-2.8s.1-2,.3-2.7ZM252,177.5c0,.5,0,.9.2,1.3.1.4.3.8.5,1.1.2.3.6.4,1,.4s.8-.1,1.1-.4c.2-.3.4-.7.5-1.1.1-.4.2-.9.2-1.3,0-.5,0-.8,0-1.2s0-.4,0-.7c0-.3,0-.5,0-.8s0-.6-.2-.8-.2-.5-.3-.8c-.1-.2-.3-.4-.5-.5s-.5-.2-.8-.2-.6,0-.8.2-.4.3-.5.5c-.1.2-.2.5-.3.8s-.1.6-.2.8,0,.6,0,.8c0,.3,0,.5,0,.7,0,.3,0,.7,0,1.2Z"/>
    <path class="st9" d="M261.6,179.5v2.4c0,.4,0,.7-.2,1-.1.3-.3.6-.5.8-.2.2-.5.4-.8.5-.3.1-.6.2-1,.3v-1.1c.2,0,.3,0,.5-.2.1,0,.3-.2.4-.3.1-.1.2-.3.2-.4,0-.2,0-.3,0-.5h-1.1v-2.4h2.5Z"/>
  </g>
  <g>
    <path class="st9" d="M283.5,176.6v1.9h-4.8v-1.9h4.8Z"/>
    <path class="st9" d="M287.5,180c.3.3.6.4,1,.4s.8-.1,1-.4.5-.5.6-.9c.2-.3.3-.7.3-1.1,0-.4.1-.7.1-1h0c-.3.4-.7.7-1.1.9s-.9.3-1.4.3-.9-.1-1.4-.3c-.5-.2-.8-.5-1.2-.8-.3-.3-.5-.7-.7-1.2s-.2-.9-.2-1.3,0-1.1.3-1.6c.2-.5.4-.9.8-1.3.3-.4.8-.7,1.2-.9s1-.3,1.6-.3c.8,0,1.5.2,2.1.5s1,.8,1.3,1.3c.3.5.6,1.2.7,1.9s.2,1.4.2,2.1,0,1.4-.2,2.1c-.2.7-.4,1.3-.8,1.9s-.8,1-1.4,1.4c-.6.3-1.2.5-2,.5s-.9,0-1.3-.2c-.4-.1-.8-.3-1.1-.6s-.6-.6-.8-1c-.2-.4-.3-.8-.4-1.3h2.1c0,.4.2.7.5,1ZM289.4,176.4c.2-.1.4-.3.6-.5.1-.2.3-.4.3-.7,0-.2.1-.5.1-.8s0-.5-.1-.8c0-.2-.2-.5-.3-.7-.2-.2-.3-.4-.6-.5-.2-.1-.5-.2-.8-.2s-.5,0-.7.2c-.2.1-.4.3-.5.5-.1.2-.3.4-.3.7,0,.2-.1.5-.1.7s0,.5.1.8.2.5.3.7c.1.2.3.4.5.5.2.1.5.2.8.2s.6,0,.8-.2Z"/>
    <path class="st9" d="M296.6,179.5v2.4c0,.4,0,.7-.2,1-.1.3-.3.6-.5.8-.2.2-.5.4-.8.5-.3.1-.6.2-1,.3v-1.1c.2,0,.3,0,.5-.2.1,0,.3-.2.4-.3.1-.1.2-.3.2-.4,0-.2,0-.3,0-.5h-1.1v-2.4h2.5Z"/>
  </g>
  <g>
    <path class="st9" d="M315.3,176.6v1.9h-4.8v-1.9h4.8Z"/>
    <path class="st9" d="M319.3,180c.3.3.6.4,1,.4s.8-.1,1-.4.5-.5.6-.9c.2-.3.3-.7.3-1.1,0-.4.1-.7.1-1h0c-.3.4-.7.7-1.1.9s-.9.3-1.4.3-.9-.1-1.4-.3c-.5-.2-.8-.5-1.2-.8-.3-.3-.5-.7-.7-1.2s-.2-.9-.2-1.3,0-1.1.3-1.6c.2-.5.4-.9.8-1.3.3-.4.8-.7,1.2-.9s1-.3,1.6-.3c.8,0,1.5.2,2.1.5s1,.8,1.3,1.3c.3.5.6,1.2.7,1.9s.2,1.4.2,2.1,0,1.4-.2,2.1c-.2.7-.4,1.3-.8,1.9s-.8,1-1.4,1.4c-.6.3-1.2.5-2,.5s-.9,0-1.3-.2c-.4-.1-.8-.3-1.1-.6s-.6-.6-.8-1c-.2-.4-.3-.8-.4-1.3h2.1c0,.4.2.7.5,1ZM321.2,176.4c.2-.1.4-.3.6-.5.1-.2.3-.4.3-.7,0-.2.1-.5.1-.8s0-.5-.1-.8c0-.2-.2-.5-.3-.7-.2-.2-.3-.4-.6-.5-.2-.1-.5-.2-.8-.2s-.5,0-.7.2c-.2.1-.4.3-.5.5-.1.2-.3.4-.3.7,0,.2-.1.5-.1.7s0,.5.1.8.2.5.3.7c.1.2.3.4.5.5.2.1.5.2.8.2s.6,0,.8-.2Z"/>
    <path class="st9" d="M328.4,179.5v2.4c0,.4,0,.7-.2,1-.1.3-.3.6-.5.8-.2.2-.5.4-.8.5-.3.1-.6.2-1,.3v-1.1c.2,0,.3,0,.5-.2.1,0,.3-.2.4-.3.1-.1.2-.3.2-.4,0-.2,0-.3,0-.5h-1.1v-2.4h2.5Z"/>
  </g>
  <g>
    <path class="st9" d="M347.1,176.6v1.9h-4.8v-1.9h4.8Z"/>
    <path class="st9" d="M351.1,180c.3.3.6.4,1,.4s.8-.1,1-.4.5-.5.6-.9c.2-.3.3-.7.3-1.1s.1-.7.1-1h0c-.3.4-.7.7-1.1.9s-.9.3-1.4.3-.9-.1-1.4-.3c-.5-.2-.8-.5-1.2-.8-.3-.3-.5-.7-.7-1.2s-.2-.9-.2-1.3,0-1.1.3-1.6.5-.9.8-1.3c.3-.4.8-.7,1.2-.9s1-.3,1.6-.3c.8,0,1.5.2,2.1.5.5.3,1,.8,1.3,1.3.3.5.6,1.2.7,1.9s.2,1.4.2,2.1,0,1.4-.2,2.1c-.2.7-.4,1.3-.8,1.9s-.8,1-1.4,1.4-1.2.5-2,.5-.9,0-1.3-.2c-.4-.1-.8-.3-1.1-.6-.3-.3-.6-.6-.8-1-.2-.4-.3-.8-.4-1.3h2.1c0,.4.2.7.5,1ZM353,176.4c.2-.1.4-.3.6-.5.1-.2.3-.4.3-.7s.1-.5.1-.8,0-.5-.1-.8-.2-.5-.3-.7c-.2-.2-.3-.4-.6-.5-.2-.1-.5-.2-.8-.2s-.5,0-.7.2c-.2.1-.4.3-.5.5-.1.2-.3.4-.3.7,0,.2-.1.5-.1.7s0,.5.1.8c0,.2.2.5.3.7s.3.4.5.5.5.2.8.2.6,0,.8-.2Z"/>
    <path class="st9" d="M360.2,179.5v2.4c0,.4,0,.7-.2,1s-.3.6-.5.8-.5.4-.8.5-.6.2-1,.3v-1.1c.2,0,.3,0,.5-.2.1,0,.3-.2.4-.3.1-.1.2-.3.2-.4,0-.2,0-.3,0-.5h-1.1v-2.4h2.5Z"/>
  </g>
  <g>
    <path class="st9" d="M378.8,176.6v1.9h-4.8v-1.9h4.8Z"/>
    <path class="st9" d="M382.8,180c.3.3.6.4,1,.4s.8-.1,1-.4.5-.5.6-.9c.2-.3.3-.7.3-1.1,0-.4.1-.7.1-1h0c-.3.4-.7.7-1.1.9s-.9.3-1.4.3-.9-.1-1.4-.3c-.5-.2-.8-.5-1.2-.8-.3-.3-.5-.7-.7-1.2s-.2-.9-.2-1.3,0-1.1.3-1.6.5-.9.8-1.3c.3-.4.8-.7,1.2-.9s1-.3,1.6-.3c.8,0,1.5.2,2.1.5.5.3,1,.8,1.3,1.3.3.5.6,1.2.7,1.9.1.7.2,1.4.2,2.1s0,1.4-.2,2.1c-.2.7-.4,1.3-.8,1.9s-.8,1-1.4,1.4-1.2.5-2,.5-.9,0-1.3-.2c-.4-.1-.8-.3-1.1-.6-.3-.3-.6-.6-.8-1-.2-.4-.3-.8-.4-1.3h2.1c0,.4.2.7.5,1ZM384.7,176.4c.2-.1.4-.3.6-.5.1-.2.3-.4.3-.7s.1-.5.1-.8,0-.5-.1-.8c0-.2-.2-.5-.3-.7-.2-.2-.3-.4-.6-.5-.2-.1-.5-.2-.8-.2s-.5,0-.7.2c-.2.1-.4.3-.5.5-.1.2-.3.4-.3.7,0,.2-.1.5-.1.7s0,.5.1.8c0,.2.2.5.3.7s.3.4.5.5c.2.1.5.2.8.2s.6,0,.8-.2Z"/>
    <path class="st9" d="M392,179.5v2.4c0,.4,0,.7-.2,1-.1.3-.3.6-.5.8s-.5.4-.8.5-.6.2-1,.3v-1.1c.2,0,.3,0,.5-.2.1,0,.3-.2.4-.3.1-.1.2-.3.2-.4,0-.2,0-.3,0-.5h-1.1v-2.4h2.5Z"/>
  </g>
  <g>
    <path class="st9" d="M410.6,176.6v1.9h-4.8v-1.9h4.8Z"/>
    <path class="st9" d="M414.6,180c.3.3.6.4,1,.4s.8-.1,1-.4.5-.5.6-.9c.2-.3.3-.7.3-1.1,0-.4.1-.7.1-1h0c-.3.4-.7.7-1.1.9s-.9.3-1.4.3-.9-.1-1.4-.3c-.5-.2-.8-.5-1.2-.8-.3-.3-.5-.7-.7-1.2s-.2-.9-.2-1.3,0-1.1.3-1.6.5-.9.8-1.3c.3-.4.8-.7,1.2-.9s1-.3,1.6-.3c.8,0,1.5.2,2.1.5.5.3,1,.8,1.3,1.3.3.5.6,1.2.7,1.9.1.7.2,1.4.2,2.1s0,1.4-.2,2.1c-.2.7-.4,1.3-.8,1.9s-.8,1-1.4,1.4-1.2.5-2,.5-.9,0-1.3-.2c-.4-.1-.8-.3-1.1-.6-.3-.3-.6-.6-.8-1-.2-.4-.3-.8-.4-1.3h2.1c0,.4.2.7.5,1ZM416.5,176.4c.2-.1.4-.3.6-.5.1-.2.3-.4.3-.7s.1-.5.1-.8,0-.5-.1-.8c0-.2-.2-.5-.3-.7-.2-.2-.3-.4-.6-.5-.2-.1-.5-.2-.8-.2s-.5,0-.7.2c-.2.1-.4.3-.5.5-.1.2-.3.4-.3.7,0,.2-.1.5-.1.7s0,.5.1.8c0,.2.2.5.3.7s.3.4.5.5c.2.1.5.2.8.2s.6,0,.8-.2Z"/>
    <path class="st9" d="M423.7,179.5v2.4c0,.4,0,.7-.2,1-.1.3-.3.6-.5.8s-.5.4-.8.5-.6.2-1,.3v-1.1c.2,0,.3,0,.5-.2.1,0,.3-.2.4-.3.1-.1.2-.3.2-.4,0-.2,0-.3,0-.5h-1.1v-2.4h2.5Z"/>
  </g>
  <g>
    <path class="st9" d="M442.4,176.6v1.9h-4.8v-1.9h4.8Z"/>
    <path class="st9" d="M446.4,180c.3.3.6.4,1,.4s.8-.1,1-.4.5-.5.6-.9c.2-.3.3-.7.3-1.1,0-.4.1-.7.1-1h0c-.3.4-.7.7-1.1.9s-.9.3-1.4.3-.9-.1-1.4-.3c-.5-.2-.8-.5-1.2-.8-.3-.3-.5-.7-.7-1.2s-.2-.9-.2-1.3,0-1.1.3-1.6.5-.9.8-1.3c.3-.4.8-.7,1.2-.9s1-.3,1.6-.3c.8,0,1.5.2,2.1.5.5.3,1,.8,1.3,1.3.3.5.6,1.2.7,1.9.1.7.2,1.4.2,2.1s0,1.4-.2,2.1c-.2.7-.4,1.3-.8,1.9s-.8,1-1.4,1.4-1.2.5-2,.5-.9,0-1.3-.2c-.4-.1-.8-.3-1.1-.6-.3-.3-.6-.6-.8-1-.2-.4-.3-.8-.4-1.3h2.1c0,.4.2.7.5,1ZM448.3,176.4c.2-.1.4-.3.6-.5.1-.2.3-.4.3-.7s.1-.5.1-.8,0-.5-.1-.8c0-.2-.2-.5-.3-.7-.2-.2-.3-.4-.6-.5-.2-.1-.5-.2-.8-.2s-.5,0-.7.2c-.2.1-.4.3-.5.5-.1.2-.3.4-.3.7,0,.2-.1.5-.1.7s0,.5.1.8c0,.2.2.5.3.7s.3.4.5.5c.2.1.5.2.8.2s.6,0,.8-.2Z"/>
    <path class="st9" d="M455.5,179.5v2.4c0,.4,0,.7-.2,1-.1.3-.3.6-.5.8s-.5.4-.8.5-.6.2-1,.3v-1.1c.2,0,.3,0,.5-.2.1,0,.3-.2.4-.3.1-.1.2-.3.2-.4,0-.2,0-.3,0-.5h-1.1v-2.4h2.5Z"/>
  </g>
  <g>
    <path class="st9" d="M475.2,179.5v2.4h-2.5v-2.4h2.5Z"/>
    <path class="st9" d="M479.6,179.5v2.4h-2.5v-2.4h2.5Z"/>
    <path class="st9" d="M484,179.5v2.4h-2.5v-2.4h2.5Z"/>
  </g>
  <rect class="st0" x="119" y="3.2" width="373.3" height="198.6"/>
  <rect class="st8" x="158.7" y="122.7" width="334.4" height="39.7"/>
  <rect class="st3" x="158.7" y="122.7" width="334.4" height="39.7"/>
  <path class="st5" d="M157.9,162.4V51.3s28.6,7.9,33.4,12.7c4.8,2.8,24.6,26.6,31.8,33.8s21.4,11.1,39.7,16.7c13.5,4,47.7,23.5,58,26.2,16.7,4.8,67.5,16.7,71.5,21.8"/>
  <path class="st1" d="M157.9,162.4V51.3s28.6,7.9,33.4,12.7c4.8,2.8,24.6,26.6,31.8,33.8s21.4,11.1,39.7,16.7c13.5,4,47.7,23.5,58,26.2,16.7,4.8,67.5,16.7,71.5,21.8"/>
  <g>
    <path class="st7" d="M207.4,138.2c0-.3,0-.7,0-1,.2,0,.4,0,.8,0h1.2c.4,0,.6,0,.8,0l.4.4c0,.1,0,.2-.1.3-.3.8-.8,1.8-1.1,2.5.4.5.6.8.8,1.3.2.4.3.9.3,1.3,0,.6-.2,1-.6,1.1-.2,0-.5.1-1,.1h-.2c0-.3,0-.5-.1-.7.2,0,.3,0,.5,0,.6,0,.7-.2.7-.7s0-.8-.2-1.2c-.2-.5-.4-.8-.9-1.3.5-.9.8-1.7,1.2-2.7h-1.6v7.9c0,.6,0,.9,0,1.2h-.8c0-.3,0-.7,0-1.3v-7.5ZM213,143.1c0-.3,0-.5,0-.7h.8c0,.2,0,.4,0,.7v.6h1.8c.5,0,.7,0,1,0v.7c-.3,0-.5,0-1,0h-1.8v1.6h2.3c.5,0,.8,0,1.1,0v.7c-.4,0-.7,0-1.1,0h-5.4c-.5,0-.8,0-1.1,0v-.7c.3,0,.7,0,1.1,0h2.4v-1.6h-1.4c-.5,0-.7,0-1,0v-.7c.3,0,.5,0,1,0h1.4v-.6ZM213,138.7h-1.3c-.4,0-.7,0-1,0v-.7c.3,0,.5,0,1,0h1.3v-.5c0-.3,0-.5,0-.7h.8c0,.2,0,.4,0,.7v.5h1.7c.5,0,.7,0,1,0v.7c-.3,0-.6,0-1,0h-1.7v1.3h2.2c.5,0,.8,0,1,0v.7c-.3,0-.6,0-1,0h-1.3v1.2c0,.2,0,.3.6.3s.8,0,1-.1c.1,0,.2-.3.2-.9.3.1.4.2.6.2-.1,1.3-.2,1.4-1.8,1.4s-.7,0-.8,0c-.3,0-.4-.2-.4-.6v-1.4h-1.2c0,.5-.1.7-.3,1-.3.6-.8,1-1.7,1.3-.1-.2-.2-.4-.4-.5.8-.3,1.2-.5,1.5-1.1.1-.2.2-.4.2-.8h-.9c-.4,0-.7,0-1,0v-.7c.2,0,.5,0,1,0h1.9v-1.3Z"/>
    <path class="st7" d="M219.3,138.3c0-.5,0-.9,0-1.2h.8c0,.4,0,.7,0,1.2v1.7h.2c.4,0,.7,0,.9,0v.7c-.3,0-.5,0-.9,0h-.2v3.3c.5-.3.7-.4,1.2-.7v.7c-.6.4-1.2.7-2.7,1.4-.2,0-.2.1-.4.2l-.2-.8c.3,0,.7-.2,1.4-.6v-3.6h-.3c-.3,0-.6,0-.9,0v-.7c.3,0,.6,0,1,0h.3v-1.7ZM224.6,144.5c-1,.3-1.7.5-3.1.8-.2,0-.5.1-.7.2l-.2-.8c.6,0,2.4-.4,3.9-.9v.6ZM222.2,139.4c-.4,0-.9,0-1.2,0v-.8c.3,0,.7,0,1.2,0h2.7q0-1.5,0-1.8h.8c0,.3,0,.6,0,1.1v.7h1.1c.5,0,.9,0,1.2,0v.8c-.3,0-.7,0-1.2,0h-1.1c0,1.4.2,2.6.4,3.6.5-.9.8-1.8.9-2.4l.7.2c-.1.3-.1.3-.2.6-.3.9-.7,1.7-1.1,2.4.4,1.1.8,2,1.1,2.1.2-.2.3-.7.3-1.5.2.2.4.3.6.4-.1.8-.2,1.3-.4,1.6-.1.3-.3.4-.5.4-.5,0-1.2-.9-1.6-2.2-.7.9-1.4,1.5-2.5,2.2-.2-.2-.3-.4-.5-.5,1.3-.7,2.1-1.4,2.8-2.5-.4-1.4-.6-2.9-.6-4.4h-2.7ZM221.5,141c0-.2,0-.5,0-.7.2,0,.4,0,.8,0h1.3c.3,0,.5,0,.7,0,0,.2,0,.3,0,.6v1.9c0,.3,0,.5,0,.7-.2,0-.5,0-.8,0h-1.3c-.4,0-.6,0-.7,0,0-.2,0-.4,0-.7v-1.7ZM222.2,142.8h1.5v-1.9h-1.5v1.9ZM227.2,138.6c-.4-.5-.7-.7-1.3-1.1l.4-.4c.5.3.8.5,1.3,1l-.5.5Z"/>
  </g>
  <g>
    <path class="st4" d="M413.6,139.8c.8.5,1.1.8,1.8,1.4l-.5.5c-.6-.6-.9-.9-1.8-1.4l.4-.5ZM415.5,143.4c-.4,1.2-.9,2.3-1.3,3.1q-.1.2-.2.4l-.6-.5c.4-.4,1-1.9,1.5-3.5l.6.5ZM414.3,137.1c.7.5,1.1.9,1.6,1.5l-.5.5c-.6-.7-1-1-1.6-1.5l.5-.5ZM421.9,138c.8,0,1.1,0,1.4,0v.7c-.3,0-.6,0-1.4,0h-4.4c-.5.9-.8,1.3-1.4,2-.2-.2-.3-.4-.5-.5.7-.6,1.2-1.3,1.7-2.4.2-.4.3-.7.3-1l.8.2q0,.1-.2.4c0,.2-.1.4-.3.7h4ZM417,145.4c0,.2-.1.4-.2.7h-.8c.3-1,.6-2,.8-3.3h0c-.5,0-.7,0-1,0v-.8c.3,0,.6,0,1.1,0h.1c.1-1,.2-1.7.2-2s0-.1,0-.3c.1,0,.5,0,.8,0h3.5c.6,0,.8,0,1.2,0,0,.3,0,.4-.1,1.7,0,.2,0,.4,0,.7h0c.5,0,.8,0,1,0v.8c-.3,0-.7,0-1,0h-.1q0,.1,0,.3c0,.5,0,1-.2,1.7h.1c.4,0,.6,0,.9,0v.7c-.3,0-.5,0-.9,0h-.2c-.2,1.3-.4,1.5-1.3,1.5s-.6,0-1.2,0c0-.3,0-.4-.1-.7.5,0,.9.1,1.2.1.6,0,.6,0,.8-.9h-4.4ZM417.5,142.8c0,.5-.1.9-.4,2h1.8q.2-1.1.3-2h-1.7ZM419.3,142.1c0-.8,0-.8.1-1.7h-1.7c0,.8,0,1-.2,1.7h1.7ZM419.9,142.8q-.1.9-.3,2h1.9c0-.6.1-1.1.2-2h-1.8ZM421.8,142.1c0-.4,0-1.1,0-1.7h-1.7c0,.7-.1,1.3-.1,1.7h1.8Z"/>
    <path class="st4" d="M425,139.7c.7.5,1.2.8,1.9,1.4l-.4.6c-.7-.7-1.1-1.1-1.9-1.5l.4-.5ZM427,143.3c-.5,1.4-.6,1.4-1.4,3q0,.2-.2.3t0,.2l-.6-.6c.6-.6,1.2-1.7,1.7-3.3l.6.4ZM425.6,137.1c.7.5,1.2.8,1.8,1.4l-.4.6c-.6-.7-1-1-1.8-1.5l.5-.5ZM428.6,139.5c-.5,0-.8,0-1.1,0v-.8c.3,0,.6,0,1.1,0h2.6c.6-.9.7-1.2,1-2l.7.3c-.4.7-.6,1.2-1,1.7h1.1c.5,0,.9,0,1.2,0v.8c-.3,0-.7,0-1.2,0h-2v1.6h1.7c.5,0,.9,0,1.2,0v.8c-.3,0-.7,0-1.2,0h-1.7v1.7h2.1c.6,0,1,0,1.3,0v.8c-.4,0-.8,0-1.3,0h-2.2v1.5c0,.5,0,.9,0,1.3h-.9c0-.4,0-.8,0-1.3v-1.5h-1.7c-.4,0-.8,0-1.2,0v-.8c.3,0,.7,0,1.2,0h1.7v-1.7h-1.4c-.5,0-.8,0-1.2,0v-.8c.3,0,.7,0,1.2,0h1.4v-1.6h-1.7ZM428.9,136.9c.4.5.7.9,1,1.6l-.7.3c-.2-.6-.5-1-.9-1.6l.6-.3Z"/>
  </g>
  <rect class="st0" x="158.7" y="50.9" width="333.6" height="111.2"/>
  <g>
    <path d="M334.9,213.3c.7.4,1,.6,1.6,1.2l-.4.5c-.5-.5-.8-.8-1.5-1.2l.4-.4ZM336.6,216.4c-.3,1-.7,2-1.1,2.7q-.1.2-.2.3l-.5-.4c.4-.4.9-1.6,1.3-3l.5.4ZM335.5,211c.6.4,1,.8,1.4,1.2l-.4.4c-.5-.6-.8-.9-1.4-1.3l.4-.4ZM342,211.8c.7,0,1,0,1.2,0v.6c-.2,0-.5,0-1.2,0h-3.8c-.4.8-.7,1.1-1.2,1.7-.1-.2-.3-.3-.5-.4.6-.6,1-1.1,1.4-2.1.1-.3.2-.6.3-.8h.7q0,.2-.1.5c0,.2-.1.3-.2.6h3.4ZM337.8,218.1c0,.2,0,.3-.2.6h-.6c.3-.8.5-1.7.7-2.9h0c-.4,0-.6,0-.9,0v-.6c.2,0,.5,0,.9,0h0c.1-.8.2-1.4.2-1.8s0-.1,0-.3c.1,0,.4,0,.7,0h3c.5,0,.7,0,1,0,0,.2,0,.3,0,1.4,0,.2,0,.3,0,.6h0c.4,0,.6,0,.9,0v.6c-.3,0-.6,0-.9,0h-.1q0,0,0,.3c0,.4,0,.9-.2,1.5h.1c.4,0,.5,0,.8,0v.6c-.2,0-.4,0-.8,0h-.2c-.2,1.1-.4,1.3-1.1,1.3s-.5,0-1,0c0-.2,0-.4-.1-.6.4,0,.8.1,1.1.1.5,0,.5,0,.7-.8h-3.8ZM338.2,215.8c0,.5-.1.8-.3,1.7h1.5q.2-.9.3-1.7h-1.5ZM339.8,215.3c0-.7,0-.7.1-1.5h-1.4c0,.6,0,.8-.1,1.5h1.5ZM340.3,215.8q0,.8-.3,1.7h1.7c0-.5.1-.9.2-1.7h-1.6ZM341.9,215.3c0-.4,0-.9,0-1.5h-1.5c0,.6,0,1.1-.1,1.5h1.6Z"/>
    <path d="M344.7,213.2c.6.4,1,.7,1.7,1.2l-.4.5c-.6-.6-1-.9-1.6-1.3l.4-.4ZM346.4,216.3c-.5,1.2-.5,1.2-1.2,2.5q0,.1-.1.3h0c0,.1-.5-.4-.5-.4.5-.5,1-1.5,1.5-2.8l.5.4ZM345.2,211c.6.4,1,.7,1.5,1.2l-.4.5c-.5-.6-.9-.9-1.5-1.3l.4-.4ZM347.8,213.1c-.4,0-.7,0-1,0v-.7c.3,0,.5,0,.9,0h2.3c.5-.7.6-1,.9-1.7l.6.3c-.3.6-.6,1-.9,1.5h.9c.4,0,.8,0,1.1,0v.7c-.2,0-.6,0-1.1,0h-1.7v1.4h1.4c.4,0,.7,0,1,0v.6c-.3,0-.6,0-1,0h-1.4v1.5h1.8c.5,0,.9,0,1.1,0v.7c-.3,0-.7,0-1.1,0h-1.9v1.3c0,.4,0,.8,0,1.1h-.8c0-.3,0-.7,0-1.1v-1.3h-1.5c-.4,0-.7,0-1,0v-.7c.3,0,.6,0,1,0h1.5v-1.5h-1.2c-.4,0-.7,0-1,0v-.6c.3,0,.6,0,1,0h1.2v-1.4h-1.4ZM348.1,210.8c.4.5.6.8.8,1.4l-.6.2c-.2-.5-.4-.9-.8-1.4l.5-.2Z"/>
    <path d="M355.9,211.4c-.1.4-.3.9-.4,1.5-.2,1-.3,1.8-.3,3s0,1.3,0,1.8c.1-.6.3-1.2.6-1.9l.5.2c-.4.9-.8,2.1-.8,2.6h0c0,.1-.7.2-.7.2,0-.2,0-.2,0-.4-.2-1-.2-1.7-.2-2.7s.1-2.4.4-3.8c0-.4.1-.5.1-.8h.8ZM358.4,215.3c-.5.5-.7,1-.7,1.4,0,.7.6,1,1.8,1s1.7-.1,2.2-.3v.7s0,0-.2,0c-.7.1-1.3.2-2,.2-1.1,0-1.8-.2-2.2-.7-.2-.2-.3-.5-.3-.9,0-.6.2-1.1.8-1.8l.5.3ZM357.2,212.4c.4.1.9.1,1.6.1,1.1,0,1.9,0,2.6-.3v.7s-.2,0-.6,0c-.6,0-1.3.1-2.1.1s-.9,0-1.5,0v-.7Z"/>
    <path d="M365.4,211.4c-.4,1-.7,2.9-.7,4.5s0,.9,0,1.3c0,0,0,0,0,.3v.2h0c.2-.7.2-.9.6-1.7,0,0,0-.1,0-.2l.5.2c-.4.9-.8,2.1-.8,2.7s0,0,0,.2h-.7s0,0,0-.3c-.2-.9-.3-1.9-.3-2.8s.1-2.3.5-3.9c0-.4,0-.5.1-.6h.7ZM366.4,213.2c.5.1.9.2,1.7.2s.6,0,1,0q0-.9,0-1.6c0-.2,0-.3,0-.4h.7c0,.3,0,.7,0,1.5s0,.3,0,.5c.7,0,1.3-.2,1.6-.4v.6s0,0-.6.1c-.2,0-.5,0-1,.2,0,.9,0,1.4.1,2.7.7.3,1,.5,1.6.9.1,0,.1,0,.2.2l-.3.7c-.3-.3-.7-.6-1.4-1t0,0s0,0,0,0c0,.1,0,.2,0,.2,0,.2,0,.5-.1.6-.2.5-.8.8-1.6.8-1.1,0-1.8-.5-1.8-1.4s.8-1.4,1.8-1.4.8,0,1.1.2c0-.2,0-1.1,0-2.5-.4,0-.7,0-1.1,0s-.7,0-1.1,0c-.2,0-.3,0-.3,0,0,0-.1,0-.2,0,0,0,0,0,0,0h0v-.7ZM368.2,216.7c-.7,0-1.2.3-1.2.8s.4.8,1.1.8.8-.1,1-.3c.1-.1.2-.4.2-.7s0-.3,0-.3c-.4-.2-.6-.2-1-.2Z"/>
    <path d="M381.4,215.4c-.3,0-.7,0-1.3,0h-5.9c-.5,0-1,0-1.3,0v-.8c.3,0,.7,0,1.3,0h5.9c.6,0,1,0,1.3,0v.8Z"/>
    <path d="M384.1,218.3c0,.5,0,.9,0,1.2h-.7c0-.2,0-.7,0-1.2v-2c0-.4,0-.6,0-1.1-.3.4-.6.8-1,1.2-.1-.3-.2-.4-.3-.6.7-.6,1.2-1.2,1.7-2,.2-.4.3-.5.4-.8l.6.3c0,.1-.1.2-.3.6,0,.1-.2.3-.4.6v3.8ZM384.8,211.1c0,.1-.1.1-.3.4-.5.7-1,1.2-1.8,1.9-.1-.2-.2-.3-.4-.5.8-.5,1.3-1.1,1.8-1.7.1-.2.2-.3.2-.4l.6.4ZM387.4,212.2h-1.3c-.4,0-.6,0-.8,0v-.6c.2,0,.4,0,.9,0h1.3c0-.5,0-.7,0-.9h.7c0,.2,0,.4,0,.9h0c0,0,1.5,0,1.5,0,.4,0,.7,0,.8,0,0,.2,0,.3,0,.7v.7h0c.3,0,.5,0,.8,0v.6c-.2,0-.4,0-.8,0h0v.8c0,.4,0,.5,0,.6-.2,0-.4,0-.8,0h-1.5v.9h1.5c.4,0,.7,0,.9,0v.6c-.2,0-.6,0-.9,0h-1.5v1h2c.5,0,.7,0,1,0v.6c-.3,0-.6,0-1.1,0h-2v.4c0,.6,0,.9,0,1.2h-.7c0-.3,0-.6,0-1.2v-.4h-1.7c-.5,0-.8,0-1,0v-.6c.3,0,.5,0,1,0h1.7v-1h-1.4c-.4,0-.7,0-.9,0v-.6c.2,0,.5,0,.9,0h1.4v-.9h-1.3c-.4,0-.7,0-.9,0v-.6c.2,0,.4,0,.9,0h1.3v-.9h-1.5c-.4,0-.8,0-1,0v-.6c.2,0,.5,0,1,0h1.5v-.9ZM389.7,213.1v-.9h-1.7v.9h1.7ZM388,214.5h1.7v-.9h-1.7v.9Z"/>
    <path d="M396,211.4l-.2,2.4h-.5l-.2-2.4h.8ZM397.5,211.4l-.2,2.4h-.5l-.2-2.4h.8Z"/>
    <path d="M398.3,215.5c.3,0,.5,0,.9,0h1.1c.4,0,.6,0,.9,0v.8c-.3,0-.5,0-.9,0h-1.1c-.4,0-.6,0-.9,0v-.8Z"/>
    <path d="M402.8,217.1c.1.3.2.4.3.6.3.3.7.4,1.2.4s1.2-.3,1.5-.9c.2-.3.3-.8.4-1.2,0-.2,0-.6,0-1.1-.1.3-.2.4-.4.5-.5.5-1,.7-1.7.7s-1.3-.2-1.7-.6-.6-1-.6-1.7c0-1.5,1-2.5,2.6-2.5s1.9.6,2.3,1.6c.2.5.3,1.2.3,2,0,1.3-.3,2.4-.8,3-.5.6-1.1.9-2,.9s-1.2-.2-1.6-.5c-.3-.2-.4-.4-.7-.9l.8-.2ZM406.2,213.8c0-1-.8-1.8-1.8-1.8s-1.2.3-1.5.8c-.2.2-.2.6-.2,1,0,1.1.7,1.8,1.7,1.8s1.8-.8,1.8-1.8Z"/>
    <path d="M409,211.4l-.2,2.4h-.5l-.2-2.4h.8ZM410.6,211.4l-.2,2.4h-.5l-.2-2.4h.8Z"/>
    <path d="M417.7,212.3c.3-.7.4-1,.5-1.3h.8q0,.3-.2.6c-.1.3-.2.6-.3.6q.1,0,.2,0c1.5,0,2.5-.2,3-.4v.6c0,0-.2,0-.3,0-1,.1-2,.2-3.1.2-.3.6-.5.9-.9,1.4,0,.1-.3.3-.3.4,0,0-.1,0-.1,0,0,0,0,0,0,0h0s0,0,0,0q.3-.3.4-.3c.4-.3.9-.5,1.4-.5.7,0,1.1.4,1.3,1.1.7-.3,1.2-.5,1.7-.6.5-.2.5-.2.6-.3l.3.7c-.5,0-1.4.4-2.5.8,0,.2,0,.3,0,.6s0,.3,0,.5c0,.2,0,.3,0,.4,0,.1,0,.2,0,.3h-.6c0-.2,0-.8,0-1.4s0-.2,0-.3c-1.3.6-1.8,1.1-1.8,1.6s.6.9,1.9.9,2-.2,2.5-.4v.7c0,0-.1,0-.3,0-.8.1-1.6.2-2.3.2-1.7,0-2.5-.5-2.5-1.5s.3-1,1-1.5c.3-.2.8-.5,1.4-.8,0-.5-.3-.8-.8-.8s-1.4.4-2.1,1c-.4.3-.6.5-.7.8l-.5-.5c.7-.5,1.4-1.5,2.1-2.7t0-.1s-.1,0-.2,0c-.2,0-1,0-1.4,0h-.2c0,0-.1,0-.2,0v-.7c.4,0,1.1.1,2.1.1h.2Z"/>
    <path d="M426.4,214.7c0,.2-.1.3-.2.5h-.6c.4-1.1.6-1.6.9-2.5.3-1,.4-1.6.4-1.9h.7c0,.3,0,.4-.1.6,0,.4-.1.5-.2.8h3.9c.4,0,.7,0,.9,0v.7c-.2,0-.5,0-.9,0h-4c-.2.6-.2.9-.4,1.4h3.7c.4,0,.8,0,1,0,0,.3,0,.5-.2,1.7,0,.2,0,.2,0,.4h1c.4,0,.7,0,1,0v.7c-.3,0-.6,0-1,0h-1.1c-.2,1.1-.4,1.7-.6,2-.2.3-.5.5-1.2.5s-.9,0-1.7-.1c0-.2,0-.4-.2-.7.9.1,1.4.2,1.8.2s.7-.1.8-.5c.1-.3.2-.7.4-1.4h-5c-.4,0-.7,0-1,0v-.7c.3,0,.6,0,1,0h5.1c0-.5,0-.7.2-1.5h-4.1Z"/>
    <path d="M435.2,213.5c.2,0,.4,0,.6,0,.8,0,2.5-.1,3.3-.2.2,0,.3,0,.5-.1l.4.5c-.2.2-.3.2-.8.8-.8.8-1.4,1.4-1.9,1.7.5-.3.7-.3,1-.3s.5,0,.6.2.3.4.3,1c0,.6,0,.7.2.9.1.2.4.3.8.3.7,0,1.4-.1,1.9-.4v.7s0,0-.7.1c-.5,0-.9.1-1.3.1-.7,0-1.1-.2-1.3-.5-.1-.2-.2-.4-.2-1,0-.4,0-.5-.1-.7,0-.1-.2-.2-.4-.2-.5,0-1,.3-1.8,1-.5.4-1.1,1.1-1.4,1.5l-.5-.6c.3-.2.5-.3,1-.9.7-.6,1.5-1.4,2.2-2.2.3-.3.8-.8,1.5-1.4-.6.1-1.2.2-2.8.3-.5,0-.7,0-.9,0v-.7ZM436.3,211.2c1,.4,2.2.6,3.5.6v.6c-1.9-.2-2.5-.3-3.7-.6l.2-.6Z"/>
    <path d="M443.8,212.5h.3c.1,0,.2,0,.5,0,1.1,0,4.2-.3,5.4-.3.5,0,1,0,1.1-.1v.7c-.3,0-.6,0-1,.1-.6.2-1.3.5-1.8,1-.8.6-1.2,1.4-1.2,2.2s.5,1.4,1.3,1.8c.5.2,1.1.3,1.4.3h0v.8c-.2,0-.3,0-.4,0-.9-.2-1.5-.4-2.1-.7-.7-.5-1.1-1.2-1.1-1.9,0-1.1.6-2.2,1.8-2.9.3-.2.5-.3.9-.5-.6,0-1,.1-2.1.2-2,.1-2.8.2-3.3.3v-.8Z"/>
    <path d="M461.3,218.9c-.3,0-.5,0-.9,0h-6.3v.5h-.7c0-.3,0-.6,0-1v-6.1c0-.4,0-.7,0-1,.3,0,.6,0,1,0h5.7c.5,0,.7,0,1,0v.7c-.3,0-.6,0-1,0h-6v6.4h6.3c.5,0,.7,0,.9,0v.7ZM460,217.6c-.9-.9-1.3-1.3-2.2-2.1-.8.9-1.6,1.5-2.8,2.3-.1-.2-.3-.3-.5-.5,1.2-.7,2-1.3,2.8-2.2-.8-.7-1.4-1.1-2.4-1.7l.4-.5c1,.7,1.5,1,2.4,1.7.7-.8,1.2-1.8,1.4-2.4l.6.3c0,.1-.1.2-.3.5-.4.7-.7,1.3-1.3,2,.8.7,1.4,1.2,2.2,2l-.4.5Z"/>
    <path d="M463.8,214.1c-.5,0-.8,0-1.1,0,0-.3,0-.5,0-.9v-1.1c0-.4,0-.6,0-.9.2,0,.6,0,1.1,0h1.8c.6,0,.9,0,1.1,0,0,.3,0,.5,0,.9v1.1c0,.4,0,.6,0,.9-.3,0-.6,0-1.1,0h-1.2q0,.6,0,1.2h1.4c.4,0,.7,0,.9,0,0,.2,0,.2,0,.6,0,1.6-.1,2.7-.3,3.1-.1.3-.4.4-.9.4s-.5,0-1,0c0-.2,0-.4-.1-.6.5,0,.8.1,1.1.1s.4,0,.4-.3c0-.5.2-1.4.2-2.6h-1.7c-.2,1.6-.7,2.6-1.7,3.6-.1-.2-.2-.3-.5-.5.4-.4.7-.7.9-1.1.4-.7.6-1.4.6-2.6,0-.4,0-.6,0-1.1h0ZM463.4,213.5h2.8v-1.7h-2.8v1.7ZM468.5,211.3c0,.3,0,.5,0,1.1v3.7c0,.6,0,.8,0,1.1h-.7c0-.3,0-.5,0-1.1v-3.7c0-.5,0-.8,0-1.1h.7ZM470.7,210.9c0,.3,0,.7,0,1.2v6.3c0,.7-.2.9-1.1.9s-.6,0-1,0c0-.2,0-.4-.2-.6.4,0,1,.1,1.2.1s.4,0,.4-.3v-6.3c0-.5,0-.9,0-1.2h.7Z"/>
    <path d="M474.5,211.3c0,.3,0,.8-.1,2,0,1.1,0,2.4,0,2.9s0,.4,0,.6c0,.6.2.9.4,1.1.3.2.7.4,1.2.4,1.1,0,2-.6,2.6-1.7.2-.5.3-.8.5-1.5.3.2.4.3.7.5-.4,1.1-.6,1.7-1.1,2.2-.7.8-1.6,1.2-2.7,1.2s-1.4-.2-1.8-.7c-.4-.4-.5-1-.5-2s0-.9,0-3.9c0-.3,0-.5,0-.6s0-.3,0-.5h.8Z"/>
    <path d="M481.9,212.5h.3c.1,0,.2,0,.5,0,1.1,0,4.2-.3,5.4-.3.5,0,1,0,1.1-.1v.7c-.3,0-.6,0-1,.1-.6.2-1.3.5-1.8,1-.8.6-1.2,1.4-1.2,2.2s.5,1.4,1.3,1.8c.5.2,1.1.3,1.4.3h0v.8c-.2,0-.3,0-.4,0-.9-.2-1.5-.4-2.1-.7-.7-.5-1.1-1.2-1.1-1.9,0-1.1.6-2.2,1.8-2.9.3-.2.5-.3.9-.5-.6,0-1,.1-2.1.2-2,.1-2.8.2-3.3.3v-.8Z"/>
    <path d="M492.6,212c0,.3,0,.6,0,1.1,0,1,.1,2.4.2,3,.2,1,.6,1.6,1,1.6s.3-.2.5-.5c.2-.5.4-1,.5-1.6.2.2.3.3.6.5-.5,1.7-.9,2.3-1.6,2.3s-1-.5-1.4-1.5c-.3-.9-.5-2.1-.5-4.5,0-.4,0-.4,0-.6h.8ZM497.2,212.5c.6.7,1,1.4,1.4,2.2.4.8.5,1.5.7,2.5l-.7.3c-.2-1.8-.9-3.4-2-4.7l.6-.3Z"/>
    <path d="M502.3,211.6c.3,0,.4,0,.9,0,.8,0,2.1,0,2.9-.1.2,0,.3,0,.5-.1l.4.5c-.1,0-.2.1-.5.4-1.3,1.3-2.5,2.3-3.1,2.7h0c.7-.4,1.5-.6,2.3-.6,1.6,0,2.6.8,2.6,2s-1.4,2.5-3.5,2.5-2.1-.5-2.1-1.4.6-1.1,1.4-1.1,1.2.3,1.6.8c.2.3.3.5.4.9,1-.3,1.5-.9,1.5-1.7s-.8-1.5-2.1-1.5-2.9.6-4,1.6l-.4-.6c.3-.2.7-.4,1.3-1,1-.8,2.5-2.1,3.2-2.8h.1c0-.1,0-.2,0-.2h0s0,0,0,0t0,0c-.3,0-1.5.1-2.9.2-.2,0-.3,0-.5,0v-.7ZM504.1,217.1c-.5,0-.8.2-.8.6s.1.4.4.6c.2.1.7.2,1.1.2s.4,0,.7,0c-.2-.9-.7-1.3-1.4-1.3Z"/>
  </g>
  <rect class="st0" x="119" y="3.2" width="373.3" height="198.6"/>
  <line class="st6" x1="146.9" y1="28.2" x2="146.9" y2="165.9"/>
  <line class="st6" x1="146.9" y1="28.2" x2="492.3" y2="28.2"/>
</svg>