<?xml version="1.0" encoding="UTF-8"?>
<svg id="Layer_1" xmlns="http://www.w3.org/2000/svg" xmlns:xlink="http://www.w3.org/1999/xlink" version="1.1" viewBox="0 0 618.7 163.4">
  <!-- Generator: Adobe Illustrator 29.2.1, SVG Export Plug-In . SVG Version: 2.1.0 Build 116)  -->
  <defs>
    <style>
      .st0, .st1, .st2, .st3, .st4, .st5, .st6 {
        fill: none;
      }

      .st7 {
        opacity: .2;
      }

      .st7, .st8 {
        isolation: isolate;
      }

      .st8 {
        opacity: .2;
      }

      .st1 {
        stroke: #bfbfbf;
        stroke-width: 1.5px;
      }

      .st1, .st2 {
        stroke-linecap: round;
      }

      .st2, .st4, .st6 {
        stroke: #7ec01b;
      }

      .st9 {
        fill: #fff;
        opacity: .8;
      }

      .st10 {
        fill: #7ec01b;
      }

      .st3 {
        stroke-width: .2px;
      }

      .st3, .st5 {
        stroke: #000;
      }

      .st4, .st6 {
        stroke-width: 2px;
      }

      .st11 {
        clip-path: url(#clippath-17);
      }

      .st12 {
        clip-path: url(#clippath-11);
      }

      .st13 {
        clip-path: url(#clippath-16);
      }

      .st14 {
        clip-path: url(#clippath-10);
      }

      .st15 {
        clip-path: url(#clippath-15);
      }

      .st16 {
        clip-path: url(#clippath-13);
      }

      .st17 {
        clip-path: url(#clippath-14);
      }

      .st18 {
        clip-path: url(#clippath-12);
      }

      .st19 {
        clip-path: url(#clippath-1);
      }

      .st20 {
        clip-path: url(#clippath-3);
      }

      .st21 {
        clip-path: url(#clippath-4);
      }

      .st22 {
        clip-path: url(#clippath-2);
      }

      .st23 {
        clip-path: url(#clippath-7);
      }

      .st24 {
        clip-path: url(#clippath-6);
      }

      .st25 {
        clip-path: url(#clippath-9);
      }

      .st26 {
        clip-path: url(#clippath-8);
      }

      .st27 {
        clip-path: url(#clippath-5);
      }

      .st5 {
        stroke-linejoin: round;
      }

      .st6 {
        stroke-dasharray: 4 3;
      }

      .st28 {
        clip-path: url(#clippath);
      }
    </style>
    <clipPath id="clippath">
      <rect class="st0" x="217.5" y="33.7" width="8" height="16"/>
    </clipPath>
    <clipPath id="clippath-1">
      <rect class="st0" x="217.5" y="33.7" width="8" height="16"/>
    </clipPath>
    <clipPath id="clippath-2">
      <rect class="st0" x="219.5" y="37.7" width="4" height="8"/>
    </clipPath>
    <clipPath id="clippath-3">
      <rect class="st0" x="219.5" y="37.7" width="4" height="8"/>
    </clipPath>
    <clipPath id="clippath-4">
      <rect class="st0" x="287.5" y="33.7" width="8" height="16"/>
    </clipPath>
    <clipPath id="clippath-5">
      <rect class="st0" x="287.5" y="33.7" width="8" height="16"/>
    </clipPath>
    <clipPath id="clippath-6">
      <rect class="st0" x="289.5" y="37.7" width="4" height="8"/>
    </clipPath>
    <clipPath id="clippath-7">
      <rect class="st0" x="289.5" y="37.7" width="4" height="8"/>
    </clipPath>
    <clipPath id="clippath-8">
      <rect class="st0" x="387.5" y="33.7" width="8" height="16"/>
    </clipPath>
    <clipPath id="clippath-9">
      <rect class="st0" x="387.5" y="33.7" width="8" height="16"/>
    </clipPath>
    <clipPath id="clippath-10">
      <rect class="st0" x="389.5" y="37.7" width="4" height="8"/>
    </clipPath>
    <clipPath id="clippath-11">
      <rect class="st0" x="389.5" y="37.7" width="4" height="8"/>
    </clipPath>
    <clipPath id="clippath-12">
      <rect class="st0" x="207.5" y="40.7" width="15" height="2"/>
    </clipPath>
    <clipPath id="clippath-13">
      <rect class="st0" x="207.5" y="40.7" width="15" height="2"/>
    </clipPath>
    <clipPath id="clippath-14">
      <rect class="st0" x="277.5" y="40.7" width="15" height="2"/>
    </clipPath>
    <clipPath id="clippath-15">
      <rect class="st0" x="277.5" y="40.7" width="15" height="2"/>
    </clipPath>
    <clipPath id="clippath-16">
      <rect class="st0" x="377.5" y="40.7" width="15" height="2"/>
    </clipPath>
    <clipPath id="clippath-17">
      <rect class="st0" x="377.5" y="40.7" width="15" height="2"/>
    </clipPath>
  </defs>
  <polygon class="st9" points="208 135.7 245 105.2 245 2.7 243 2.2 206 32.7 206 135.2 208 135.7"/>
  <polygon class="st5" points="208 135.7 245 105.2 245 2.7 243 2.2 206 32.7 206 135.2 208 135.7"/>
  <polyline class="st3" points="208 133.7 208 33.2 245 2.7"/>
  <rect class="st0" x="138.5" y="1.7" width="280" height="160"/>
  <g class="st7">
    <g class="st28">
      <g class="st19">
        <ellipse class="st10" cx="221.5" cy="41.7" rx="4" ry="8"/>
      </g>
    </g>
  </g>
  <rect class="st0" x="217.5" y="33.7" width="8" height="16"/>
  <g class="st7">
    <g class="st22">
      <g class="st20">
        <ellipse class="st10" cx="221.5" cy="41.7" rx="2" ry="4"/>
      </g>
    </g>
  </g>
  <rect class="st0" x="219.5" y="37.7" width="4" height="8"/>
  <polygon class="st9" points="278 135.7 315 105.2 315 2.7 313 2.2 276 32.7 276 135.2 278 135.7"/>
  <polygon class="st5" points="278 135.7 315 105.2 315 2.7 313 2.2 276 32.7 276 135.2 278 135.7"/>
  <polyline class="st3" points="278 133.7 278 33.2 315 2.7"/>
  <rect class="st0" x="138.5" y="1.7" width="280" height="160"/>
  <g class="st7">
    <g class="st21">
      <g class="st27">
        <ellipse class="st10" cx="291.5" cy="41.7" rx="4" ry="8"/>
      </g>
    </g>
  </g>
  <rect class="st0" x="287.5" y="33.7" width="8" height="16"/>
  <g class="st7">
    <g class="st24">
      <g class="st23">
        <ellipse class="st10" cx="291.5" cy="41.7" rx="2" ry="4"/>
      </g>
    </g>
  </g>
  <rect class="st0" x="289.5" y="37.7" width="4" height="8"/>
  <polygon class="st9" points="378 135.7 415 105.2 415 2.7 413 2.2 376 32.7 376 135.2 378 135.7"/>
  <polygon class="st5" points="378 135.7 415 105.2 415 2.7 413 2.2 376 32.7 376 135.2 378 135.7"/>
  <polyline class="st3" points="378 133.7 378 33.2 415 2.7"/>
  <rect class="st0" x="138.5" y="1.7" width="280" height="160"/>
  <g class="st7">
    <g class="st26">
      <g class="st25">
        <ellipse class="st10" cx="391.5" cy="41.7" rx="4" ry="8"/>
      </g>
    </g>
  </g>
  <rect class="st0" x="387.5" y="33.7" width="8" height="16"/>
  <g class="st7">
    <g class="st14">
      <g class="st12">
        <ellipse class="st10" cx="391.5" cy="41.7" rx="2" ry="4"/>
      </g>
    </g>
  </g>
  <rect class="st0" x="389.5" y="37.7" width="4" height="8"/>
  <line class="st2" x1="177.5" y1="37.7" x2="214.5" y2="7.7"/>
  <polyline class="st2" points="214 10.7 214.5 7.7 211.5 7.7"/>
  <line class="st6" x1="156.5" y1="41.7" x2="192.5" y2="41.7"/>
  <line class="st4" x1="192.5" y1="41.7" x2="205.5" y2="41.7"/>
  <rect class="st0" x="138.5" y="1.7" width="280" height="160"/>
  <g class="st8">
    <g class="st18">
      <g class="st16">
        <line class="st4" x1="208.5" y1="41.7" x2="221.5" y2="41.7"/>
      </g>
    </g>
  </g>
  <rect class="st0" x="207.5" y="40.7" width="15" height="2"/>
  <line class="st4" x1="221.5" y1="41.7" x2="275.5" y2="41.7"/>
  <rect class="st0" x="138.5" y="1.7" width="280" height="160"/>
  <g class="st8">
    <g class="st17">
      <g class="st15">
        <line class="st4" x1="278.5" y1="41.7" x2="291.5" y2="41.7"/>
      </g>
    </g>
  </g>
  <rect class="st0" x="277.5" y="40.7" width="15" height="2"/>
  <line class="st4" x1="291.5" y1="41.7" x2="375.5" y2="41.7"/>
  <rect class="st0" x="138.5" y="1.7" width="280" height="160"/>
  <g class="st8">
    <g class="st13">
      <g class="st11">
        <line class="st4" x1="378.5" y1="41.7" x2="391.5" y2="41.7"/>
      </g>
    </g>
  </g>
  <rect class="st0" x="377.5" y="40.7" width="15" height="2"/>
  <g>
    <path d="M176.5,156.6c-.6.2-1.2.3-1.7.3-.8,0-1.4-.3-1.9-.8-.5-.5-.7-1.2-.7-2s.2-1.5.7-2,1-.8,1.7-.8,1.1.2,1.5.7.5,1.1.5,1.9v.3h-3.3c.1,1.3.8,1.9,1.9,1.9s.9-.1,1.5-.3v.8ZM173.2,153.5h2.3c0-1-.4-1.5-1.1-1.5s-1.2.5-1.2,1.5Z"/>
    <path d="M178.2,156.7v-7.7h1v7.7h-1Z"/>
    <path d="M184.9,156.6c-.6.2-1.2.3-1.7.3-.8,0-1.4-.3-1.9-.8-.5-.5-.7-1.2-.7-2s.2-1.5.7-2,1-.8,1.7-.8,1.1.2,1.5.7.5,1.1.5,1.9v.3h-3.3c.1,1.3.8,1.9,1.9,1.9s.9-.1,1.5-.3v.8ZM181.7,153.5h2.3c0-1-.4-1.5-1.1-1.5s-1.2.5-1.2,1.5Z"/>
    <path d="M187.7,156.7l-2-5.3h1l1.5,4.1,1.6-4.1h.9l-2.1,5.3h-1Z"/>
    <path d="M194.5,156c-.6.5-1.1.8-1.7.8s-.8-.1-1.1-.4c-.3-.3-.4-.6-.4-1s.2-1,.7-1.3c.5-.3,1.2-.5,2.1-.5h.2v-.6c0-.6-.3-.9-.9-.9s-1.1.2-1.6.5v-.8c.6-.3,1.3-.4,1.8-.4s1,.1,1.3.4.4.7.4,1.2v2.4c0,.5.2.8.5.8s.1,0,.2,0v.5c-.1.1-.4.2-.7.2-.4,0-.7-.3-.9-.8ZM194.4,155.5v-1.4h-.3c-.5,0-1,0-1.3.3-.3.2-.5.5-.5.8s0,.4.2.6.4.2.6.2c.4,0,.8-.2,1.2-.5Z"/>
    <path d="M198.9,156.8c-.5,0-.9-.1-1.1-.4s-.4-.7-.4-1.2v-3.1h-.7v-.7h.7v-1h1c0,0,0,1,0,1h1.4v.7h-1.4v2.9c0,.7.3,1,.9,1s.3,0,.5,0v.7c-.3,0-.6.1-.8.1Z"/>
    <path d="M201.1,150.5v-1h1v1h-1ZM201.1,156.7v-5.3h1v5.3h-1Z"/>
    <path d="M206,156.8c-.8,0-1.4-.3-1.8-.8-.5-.5-.7-1.2-.7-2s.2-1.5.7-2c.5-.5,1.1-.7,1.8-.7s1.4.2,1.8.7c.5.5.7,1.2.7,2s-.2,1.5-.7,2-1.1.7-1.9.7ZM206,156.1c1,0,1.5-.7,1.5-2.1s-.5-2-1.5-2-1.5.7-1.5,2,.5,2.1,1.5,2.1Z"/>
    <path d="M210.1,156.7v-5.3h1v1c.5-.7,1.1-1.1,1.9-1.1s.8.1,1.1.4c.3.3.4.7.4,1.2v3.8h-1v-3.5c0-.4,0-.7-.2-.8-.1-.2-.3-.3-.6-.3-.6,0-1.1.4-1.7,1.2v3.4h-1Z"/>
    <path d="M216.4,156.7v-.9c.7.3,1.2.4,1.6.4s.8-.1,1.1-.4c.3-.3.4-.6.4-1,0-1-.7-1.5-2.1-1.5h-.4v-.6h.3c1.3,0,2-.5,2-1.4s-.4-1.1-1.3-1.1-1,.1-1.6.4v-.8c.6-.2,1.1-.3,1.7-.3,1.5,0,2.2.6,2.2,1.7s-.5,1.5-1.5,1.8c1.2.3,1.7.9,1.7,1.9s-.2,1.2-.7,1.6-1.1.6-1.9.6-1,0-1.7-.2Z"/>
    <path d="M222.6,156.7v-1.2h1.2v1.2h-1.2Z"/>
    <path d="M227.9,156.8c-.7,0-1.3-.3-1.8-.8s-.7-1.2-.7-2,.2-1.5.7-2,1.1-.7,2-.7.9,0,1.4.2v.8c-.5-.2-1-.2-1.3-.2-.5,0-.9.2-1.2.6-.3.4-.4.9-.4,1.5s.2,1.1.5,1.4.7.6,1.2.6.9-.1,1.4-.3v.8c-.6.2-1.2.3-1.6.3Z"/>
    <path d="M232.3,156.8c-.4,0-1-.1-1.6-.3v-.9c.6.3,1.2.5,1.6.5s.5,0,.7-.2.3-.3.3-.6c0-.3-.3-.6-.8-.8l-.6-.2c-.8-.3-1.2-.8-1.2-1.5s.2-.8.5-1.1c.3-.3.8-.4,1.3-.4s.7,0,1.1.1h.2v.8c-.5-.2-1-.2-1.3-.2-.6,0-.9.2-.9.7s.2.5.7.7l.5.2c.5.2.9.5,1.1.7.2.2.3.6.3.9s-.2.8-.6,1.1-.8.4-1.4.4Z"/>
    <path d="M237.1,156.7l-2-5.3h1l1.5,4.1,1.6-4.1h.9l-2.1,5.3h-1Z"/>
  </g>
  <g>
    <path d="M267.9,156.8c-.4,0-1-.1-1.6-.3v-.9c.6.3,1.2.5,1.6.5s.5,0,.7-.2.3-.3.3-.6c0-.3-.3-.6-.8-.8l-.6-.2c-.8-.3-1.2-.8-1.2-1.5s.2-.8.5-1.1c.3-.3.8-.4,1.3-.4s.7,0,1.1.1h.2v.8c-.5-.2-1-.2-1.3-.2-.6,0-.9.2-.9.7s.2.5.7.7l.5.2c.5.2.9.5,1.1.7.2.2.3.6.3.9s-.2.8-.6,1.1-.8.4-1.4.4Z"/>
    <path d="M271.6,156.7v-5.3h1v1c.5-.7,1.1-1.1,1.9-1.1s.8.1,1.1.4c.3.3.4.7.4,1.2v3.8h-1v-3.5c0-.4,0-.7-.2-.8-.1-.2-.3-.3-.6-.3-.6,0-1.1.4-1.7,1.2v3.4h-1Z"/>
    <path d="M279.8,156.8c-.8,0-1.4-.3-1.8-.8-.5-.5-.7-1.2-.7-2s.2-1.5.7-2c.5-.5,1.1-.7,1.8-.7s1.4.2,1.8.7c.5.5.7,1.2.7,2s-.2,1.5-.7,2-1.1.7-1.9.7ZM279.9,156.1c1,0,1.5-.7,1.5-2.1s-.5-2-1.5-2-1.5.7-1.5,2,.5,2.1,1.5,2.1Z"/>
    <path d="M284.5,156.7l-1.5-5.3h.9l1.2,4.1,1.3-4.1h1l1.1,4.1,1.3-4.1h.8l-1.7,5.3h-1l-1.1-4.1-1.3,4.1h-1Z"/>
    <path d="M290.6,158.4v-.7h5v.7h-5Z"/>
    <path d="M298.7,156.8c-.7,0-1.3-.3-1.8-.8s-.7-1.2-.7-2,.2-1.5.7-2c.5-.5,1.1-.7,2-.7s.9,0,1.4.2v.8c-.5-.2-1-.2-1.3-.2-.5,0-.9.2-1.2.6-.3.4-.4.9-.4,1.5s.2,1.1.5,1.4.7.6,1.2.6.9-.1,1.4-.3v.8c-.6.2-1.2.3-1.6.3Z"/>
    <path d="M303.8,156.8c-.8,0-1.4-.3-1.8-.8-.5-.5-.7-1.2-.7-2s.2-1.5.7-2c.5-.5,1.1-.7,1.8-.7s1.4.2,1.8.7c.5.5.7,1.2.7,2s-.2,1.5-.7,2-1.1.7-1.9.7ZM303.8,156.1c1,0,1.5-.7,1.5-2.1s-.5-2-1.5-2-1.5.7-1.5,2,.5,2.1,1.5,2.1Z"/>
    <path d="M309,156.7l-2-5.3h1l1.5,4.1,1.6-4.1h.9l-2.1,5.3h-1Z"/>
    <path d="M316.9,156.6c-.6.2-1.2.3-1.7.3-.8,0-1.4-.3-1.9-.8-.5-.5-.7-1.2-.7-2s.2-1.5.7-2c.4-.5,1-.8,1.7-.8s1.1.2,1.5.7c.4.5.5,1.1.5,1.9v.3h-3.3c.1,1.3.8,1.9,1.9,1.9s.9-.1,1.5-.3v.8ZM313.7,153.5h2.3c0-1-.4-1.5-1.1-1.5s-1.2.5-1.2,1.5Z"/>
    <path d="M318.6,156.7v-5.3h1v1c.4-.7.9-1.1,1.7-1.1s.2,0,.3,0v.9c-.2,0-.3,0-.4,0-.6,0-1.1.4-1.5,1.1v3.5h-1Z"/>
    <path d="M322.7,156.7v-1.2h1.2v1.2h-1.2Z"/>
    <path d="M327.9,156.8c-.7,0-1.3-.3-1.8-.8s-.7-1.2-.7-2,.2-1.5.7-2c.5-.5,1.1-.7,2-.7s.9,0,1.4.2v.8c-.5-.2-1-.2-1.3-.2-.5,0-.9.2-1.2.6-.3.4-.4.9-.4,1.5s.2,1.1.5,1.4.7.6,1.2.6.9-.1,1.4-.3v.8c-.6.2-1.2.3-1.6.3Z"/>
    <path d="M332.4,156.8c-.4,0-1-.1-1.6-.3v-.9c.6.3,1.2.5,1.6.5s.5,0,.7-.2.3-.3.3-.6c0-.3-.3-.6-.8-.8l-.6-.2c-.8-.3-1.2-.8-1.2-1.5s.2-.8.5-1.1c.3-.3.8-.4,1.3-.4s.7,0,1.1.1h.2v.8c-.5-.2-1-.2-1.3-.2-.6,0-.9.2-.9.7s.2.5.7.7l.5.2c.5.2.9.5,1.1.7.2.2.3.6.3.9s-.2.8-.6,1.1-.8.4-1.4.4Z"/>
    <path d="M337.2,156.7l-2-5.3h1l1.5,4.1,1.6-4.1h.9l-2.1,5.3h-1Z"/>
  </g>
  <g>
    <path d="M376.3,156.6c-.6.2-1.2.3-1.7.3-.8,0-1.4-.3-1.9-.8-.5-.5-.7-1.2-.7-2s.2-1.5.7-2c.4-.5,1-.8,1.7-.8s1.1.2,1.5.7c.4.5.5,1.1.5,1.9v.3h-3.3c.1,1.3.8,1.9,1.9,1.9s.9-.1,1.5-.3v.8ZM373.1,153.5h2.3c0-1-.4-1.5-1.1-1.5s-1.2.5-1.2,1.5Z"/>
    <path d="M378,156.7v-7.7h1v7.7h-1Z"/>
    <path d="M384.8,156.6c-.6.2-1.2.3-1.7.3-.8,0-1.4-.3-1.9-.8-.5-.5-.7-1.2-.7-2s.2-1.5.7-2c.4-.5,1-.8,1.7-.8s1.1.2,1.5.7c.4.5.5,1.1.5,1.9v.3h-3.3c.1,1.3.8,1.9,1.9,1.9s.9-.1,1.5-.3v.8ZM381.5,153.5h2.3c0-1-.4-1.5-1.1-1.5s-1.2.5-1.2,1.5Z"/>
    <path d="M387.6,156.7l-2-5.3h1l1.5,4.1,1.6-4.1h.9l-2.1,5.3h-1Z"/>
    <path d="M394.4,156c-.6.5-1.1.8-1.7.8s-.8-.1-1.1-.4c-.3-.3-.4-.6-.4-1s.2-1,.7-1.3c.5-.3,1.2-.5,2.1-.5h.2v-.6c0-.6-.3-.9-.9-.9s-1.1.2-1.6.5v-.8c.6-.3,1.3-.4,1.8-.4s1,.1,1.3.4c.3.3.4.7.4,1.2v2.4c0,.5.2.8.5.8s.1,0,.2,0v.5c-.1.1-.4.2-.7.2-.4,0-.7-.3-.9-.8ZM394.3,155.5v-1.4h-.3c-.5,0-1,0-1.3.3-.3.2-.5.5-.5.8s0,.4.2.6.4.2.6.2c.4,0,.8-.2,1.2-.5Z"/>
    <path d="M398.8,156.8c-.5,0-.9-.1-1.1-.4s-.4-.7-.4-1.2v-3.1h-.7v-.7h.7v-1h1c0,0,0,1,0,1h1.4v.7h-1.4v2.9c0,.7.3,1,.9,1s.3,0,.5,0v.7c-.3,0-.6.1-.8.1Z"/>
    <path d="M400.9,150.5v-1h1v1h-1ZM400.9,156.7v-5.3h1v5.3h-1Z"/>
    <path d="M405.9,156.8c-.8,0-1.4-.3-1.8-.8-.5-.5-.7-1.2-.7-2s.2-1.5.7-2c.5-.5,1.1-.7,1.8-.7s1.4.2,1.8.7c.5.5.7,1.2.7,2s-.2,1.5-.7,2-1.1.7-1.9.7ZM405.9,156.1c1,0,1.5-.7,1.5-2.1s-.5-2-1.5-2-1.5.7-1.5,2,.5,2.1,1.5,2.1Z"/>
    <path d="M410,156.7v-5.3h1v1c.5-.7,1.1-1.1,1.9-1.1s.8.1,1.1.4c.3.3.4.7.4,1.2v3.8h-1v-3.5c0-.4,0-.7-.2-.8-.1-.2-.3-.3-.6-.3-.6,0-1.1.4-1.7,1.2v3.4h-1Z"/>
    <path d="M415.2,158.4v-.7h5v.7h-5Z"/>
    <path d="M422.6,156.8c-.4,0-1-.1-1.6-.3v-.9c.6.3,1.2.5,1.6.5s.5,0,.7-.2.3-.3.3-.6c0-.3-.3-.6-.8-.8l-.6-.2c-.8-.3-1.2-.8-1.2-1.5s.2-.8.5-1.1c.3-.3.8-.4,1.3-.4s.7,0,1.1.1h.2v.8c-.5-.2-1-.2-1.3-.2-.6,0-.9.2-.9.7s.2.5.7.7l.5.2c.5.2.9.5,1.1.7.2.2.3.6.3.9s-.2.8-.6,1.1-.8.4-1.4.4Z"/>
    <path d="M426.3,156.7v-5.3h1v1c.5-.7,1.1-1.1,1.9-1.1s.8.1,1.1.4c.3.3.4.7.4,1.2v3.8h-1v-3.5c0-.4,0-.7-.2-.8-.1-.2-.3-.3-.6-.3-.6,0-1.1.4-1.7,1.2v3.4h-1Z"/>
    <path d="M434.5,156.8c-.8,0-1.4-.3-1.8-.8-.5-.5-.7-1.2-.7-2s.2-1.5.7-2c.5-.5,1.1-.7,1.8-.7s1.4.2,1.8.7c.5.5.7,1.2.7,2s-.2,1.5-.7,2-1.1.7-1.9.7ZM434.6,156.1c1,0,1.5-.7,1.5-2.1s-.5-2-1.5-2-1.5.7-1.5,2,.5,2.1,1.5,2.1Z"/>
    <path d="M439.2,156.7l-1.5-5.3h.9l1.2,4.1,1.3-4.1h1l1.1,4.1,1.3-4.1h.8l-1.7,5.3h-1l-1.1-4.1-1.3,4.1h-1Z"/>
    <path d="M446.3,156.7v-1.2h1.2v1.2h-1.2Z"/>
    <path d="M451.1,156.8c-.5,0-.9-.1-1.1-.4s-.4-.7-.4-1.2v-3.1h-.7v-.7h.7v-1h1c0,0,0,1,0,1h1.4v.7h-1.4v2.9c0,.7.3,1,.9,1s.3,0,.5,0v.7c-.3,0-.6.1-.8.1Z"/>
    <path d="M452.7,156.7l2-2.7-2-2.6h1.1l1.5,2,1.4-2h.9l-1.8,2.7,2,2.6h-1.1l-1.6-2.1-1.5,2.1h-1Z"/>
    <path d="M461,156.8c-.5,0-.9-.1-1.1-.4s-.4-.7-.4-1.2v-3.1h-.7v-.7h.7v-1h1c0,0,0,1,0,1h1.4v.7h-1.4v2.9c0,.7.3,1,.9,1s.3,0,.5,0v.7c-.3,0-.6.1-.8.1Z"/>
  </g>
  <line class="st1" x1="248.5" y1="153.7" x2="256.5" y2="153.7"/>
  <line class="st1" x1="252.5" y1="149.7" x2="252.5" y2="157.7"/>
  <line class="st1" x1="348.5" y1="153.7" x2="363.5" y2="153.7"/>
  <polyline class="st1" points="360.5 150.2 364.5 153.7 360.5 157.2"/>
  <rect class="st0" x="138.5" y="1.7" width="280" height="160"/>
</svg>