<?xml version="1.0" encoding="UTF-8"?>
<svg id="Layer_1" xmlns="http://www.w3.org/2000/svg" version="1.1" viewBox="0 0 618.7 179.2">
  <!-- Generator: Adobe Illustrator 29.2.1, SVG Export Plug-In . SVG Version: 2.1.0 Build 116)  -->
  <defs>
    <style>
      .st0, .st1, .st2, .st3, .st4 {
        fill: none;
      }

      .st5 {
        fill: #057aa8;
      }

      .st6 {
        fill: #e0f1c5;
      }

      .st1 {
        stroke: #7ec01b;
      }

      .st1, .st2 {
        stroke-width: 1.5px;
      }

      .st2, .st3 {
        stroke: #999;
      }

      .st7 {
        fill: #7ec01b;
      }

      .st8 {
        fill: #c0e3e8;
      }

      .st4 {
        stroke: #057aa8;
      }

      .st9 {
        fill: #f2f2f2;
      }

      .st10 {
        fill: #999;
      }
    </style>
  </defs>
  <rect class="st8" x="105.5" y="142.2" width="400" height="33"/>
  <line class="st4" x1="105.5" y1="142.2" x2="505.5" y2="142.2"/>
  <path class="st9" d="M137.5,141.7s10-36,10-45,12-43,20-46,26-25,32-20,22,69,27,73,25,12,27,15,1,35,1,35"/>
  <path class="st2" d="M137.5,141.7s10-36,10-45,12-43,20-46,26-25,32-20,22,69,27,73,25,12,27,15,1,35,1,35"/>
  <path class="st9" d="M314.5,149.2s-2-60,5-63,26-3,36,2,26,30,30,35,5,29,5,29"/>
  <path class="st2" d="M314.5,149.2s-2-60,5-63,26-3,36,2,26,30,30,35,5,29,5,29"/>
  <path class="st6" d="M137,174.7v-33s19-19,19-29,14-47,20-47,27-15,34-4,17,38,26,53,19,27,19,27v33"/>
  <path class="st1" d="M137,174.7v-33s19-19,19-29,14-47,20-47,27-15,34-4,17,38,26,53,19,27,19,27v33"/>
  <path class="st6" d="M314,174.7v-33s3-9,11-15,34.1-16.3,41-18c12-3,24,15,24,21s1,12,1,12v33"/>
  <path class="st1" d="M314,174.7v-33s3-9,11-15,34.1-16.3,41-18c12-3,24,15,24,21s1,12,1,12v33"/>
  <path class="st10" d="M187.9,44.2c-.7,0-1.1,0-1.5,0v-.9c.4,0,.9,0,1.5,0h7.1c.6,0,1.1,0,1.5,0v.9c-.4,0-.8,0-1.5,0h-3.2v1h4.5c.6,0,.9,0,1.2,0,0,.4,0,.6,0,1.1v1.3c0,.5,0,.8,0,1.2h-.9v-2.8h-4.8v2.4c0,.5,0,.8,0,1.2h-1c0-.4,0-.7,0-1.2v-2.4h-4.5v2.8h-.9c0-.4,0-.7,0-1.1v-1.4c0-.5,0-.7,0-1.1.4,0,.7,0,1.2,0h4.2v-1h-3ZM195.3,51h-7.5c-.5,0-.9,0-1.2,0v-.9c.4,0,.7,0,1.3,0h7.2c.4,0,.8,0,1.2,0,0,.4,0,.7,0,1.1v3.1c0,.5,0,.9,0,1.4h-1v-.7h-7.6c-.5,0-.9,0-1.3,0v-.9c.4,0,.7,0,1.3,0h7.6v-1.3h-7.2c-.5,0-.9,0-1.2,0v-.9c.4,0,.6,0,1.3,0h7.1v-1.2ZM190.1,47.6c-.3,0-.6,0-.9,0h-1.1c-.3,0-.6,0-.9,0v-.8c.3,0,.5,0,.9,0h1.1c.4,0,.6,0,.9,0v.8ZM190.1,49.2c-.3,0-.6,0-.9,0h-1.1c-.3,0-.7,0-.9,0v-.8c.3,0,.5,0,.9,0h1.1c.4,0,.7,0,.9,0v.8ZM195.7,47.6c-.3,0-.6,0-.9,0h-1.3c-.3,0-.6,0-.9,0v-.8c.3,0,.5,0,.9,0h1.3c.4,0,.7,0,.9,0v.8ZM195.7,49.2c-.3,0-.6,0-.9,0h-1.3c-.3,0-.7,0-.9,0v-.8c.3,0,.5,0,.9,0h1.3c.4,0,.7,0,.9,0v.8Z"/>
  <g>
    <path class="st7" d="M181.8,154.7c0-.4,0-.8,0-1.3.2,0,.5,0,1,0h1.5c.5,0,.8,0,1,0l.4.5c0,.1-.1.2-.2.4-.4,1-1,2.3-1.4,3.2.5.6.8,1,1,1.7.2.6.3,1.1.3,1.6,0,.7-.3,1.2-.7,1.4-.3.1-.7.2-1.2.2h-.3c0-.4,0-.6-.2-.9.3,0,.4,0,.6,0,.7,0,.9-.2.9-.8s0-1-.3-1.5c-.3-.6-.5-1-1.1-1.6.6-1.1,1.1-2.1,1.5-3.4h-2v9.9c0,.7,0,1.2,0,1.6h-1c0-.4,0-.9,0-1.6v-9.4ZM188.8,160.8c0-.4,0-.6,0-.9h1c0,.3,0,.5,0,.9v.8h2.3c.6,0,.9,0,1.3,0v.9c-.4,0-.7,0-1.3,0h-2.3v2h2.9c.7,0,1,0,1.4,0v.9c-.5,0-.9,0-1.4,0h-6.8c-.6,0-1,0-1.4,0v-.9c.4,0,.9,0,1.4,0h3v-2h-1.8c-.6,0-.9,0-1.3,0v-.9c.4,0,.6,0,1.3,0h1.8v-.8ZM188.9,155.3h-1.7c-.6,0-.8,0-1.2,0v-.9c.3,0,.6,0,1.2,0h1.7v-.7c0-.3,0-.6,0-.9h1c0,.3,0,.5,0,.9v.7h2.2c.6,0,.9,0,1.3,0v.9c-.4,0-.7,0-1.3,0h-2.2v1.7h2.8c.6,0,1,0,1.3,0v.9c-.4,0-.8,0-1.3,0h-1.7v1.5c0,.3,0,.4.7.4s1,0,1.2-.1c.1,0,.2-.4.2-1.1.4.2.5.2.8.3-.2,1.6-.3,1.7-2.2,1.7s-.9,0-1.1,0c-.4-.1-.5-.3-.5-.8v-1.8h-1.5c-.1.7-.2.9-.4,1.3-.4.8-1,1.2-2.1,1.7-.1-.3-.3-.5-.5-.7,1-.3,1.5-.7,1.9-1.3.2-.3.2-.5.3-1h-1.1c-.5,0-.9,0-1.3,0v-.9c.3,0,.6,0,1.3,0h2.3v-1.7Z"/>
    <path class="st7" d="M196.8,154.7c0-.6,0-1.1,0-1.5h1c0,.4,0,.9,0,1.5v2.1h.3c.5,0,.8,0,1.2,0v.9c-.3,0-.6,0-1.2,0h-.3v4.1c.6-.3.9-.5,1.5-.9v.9c-.8.5-1.5.9-3.4,1.8-.2,0-.3.1-.5.2l-.3-1c.4,0,.8-.3,1.8-.7v-4.6h-.4c-.4,0-.8,0-1.2,0v-.9c.4,0,.7,0,1.2,0h.4v-2.1ZM203.5,162.6c-1.2.4-2.1.6-3.9,1.1-.3,0-.7.2-.9.2l-.2-1c.8,0,3-.5,4.9-1.1v.8ZM200.4,156.2c-.5,0-1.1,0-1.5,0v-1c.3,0,.9,0,1.5,0h3.4q0-1.8-.1-2.3h1c0,.4,0,.7,0,1.4v.9h1.4c.6,0,1.1,0,1.5,0v1c-.4,0-.9,0-1.5,0h-1.4c0,1.8.2,3.2.5,4.6.6-1.2,1-2.3,1.1-3.1l.9.3c-.1.3-.2.4-.3.8-.4,1.1-.9,2.1-1.4,3,.5,1.4,1,2.5,1.4,2.6.2-.2.4-.9.4-1.9.3.3.5.4.7.5-.1,1.1-.2,1.6-.4,2-.2.3-.4.5-.6.5-.7,0-1.5-1.1-2-2.8-.9,1.1-1.8,1.9-3.2,2.8-.2-.3-.4-.4-.7-.7,1.6-.9,2.6-1.8,3.6-3.1-.5-1.8-.8-3.7-.8-5.6h-3.4ZM199.6,158.2c0-.3,0-.6,0-.9.2,0,.5,0,1,0h1.7c.4,0,.7,0,.9,0,0,.2,0,.4,0,.7v2.3c0,.4,0,.7,0,.8-.3,0-.6,0-1,0h-1.6c-.4,0-.7,0-.9,0,0-.3,0-.5,0-.9v-2.2ZM200.4,160.5h1.9v-2.3h-1.9v2.3ZM206.8,155.1c-.5-.6-.9-.9-1.6-1.4l.5-.5c.6.4,1,.7,1.7,1.3l-.6.6Z"/>
  </g>
  <g>
    <path class="st5" d="M274.4,156.7c1,.6,1.4,1,2.3,1.8l-.6.7c-.7-.8-1.2-1.2-2.2-1.8l.5-.6ZM276.9,161.3c-.5,1.5-1.1,2.9-1.6,3.9q-.2.3-.2.5l-.8-.6c.5-.6,1.3-2.3,1.9-4.4l.7.6ZM275.3,153.2c.9.6,1.4,1.1,2.1,1.8l-.6.7c-.8-.9-1.2-1.3-2-1.9l.6-.6ZM284.8,154.4c1,0,1.4,0,1.8,0v.9c-.3,0-.8,0-1.8,0h-5.5c-.6,1.1-1,1.6-1.8,2.5-.2-.3-.4-.5-.7-.6.9-.8,1.5-1.7,2.1-3.1.2-.5.3-.9.4-1.2l1,.2q0,.2-.2.5c0,.3-.2.5-.4.8h5.1ZM278.7,163.7c0,.3-.1.4-.3.9h-1c.4-1.2.7-2.5,1-4.2h0c-.6,0-.9,0-1.3,0v-1c.3,0,.7,0,1.3,0h.1c.2-1.2.2-2.1.2-2.6s0-.2,0-.4c.2,0,.6,0,1,0h4.5c.7,0,1,0,1.5,0,0,.4,0,.5-.1,2.1,0,.3,0,.5,0,.9h0c.6,0,1,0,1.3,0v1c-.4,0-.8,0-1.3,0h-.2q0,.1,0,.4c0,.6-.1,1.3-.2,2.1h.2c.5,0,.8,0,1.1,0v.9c-.4,0-.6,0-1.1,0h-.3c-.3,1.6-.5,1.9-1.7,1.9s-.8,0-1.5,0c0-.4,0-.6-.2-.9.6.1,1.2.2,1.6.2.7,0,.8,0,1-1.1h-5.6ZM279.3,160.4c0,.7-.2,1.2-.5,2.5h2.3q.3-1.4.4-2.5h-2.2ZM281.6,159.6c0-1,0-1.1.2-2.2h-2.1c0,1,0,1.2-.2,2.2h2.2ZM282.3,160.4q-.1,1.1-.4,2.5h2.5c0-.8.2-1.4.3-2.5h-2.3ZM284.7,159.6c0-.6,0-1.4,0-2.2h-2.2c0,.9-.1,1.7-.2,2.2h2.3Z"/>
    <path class="st5" d="M288.8,156.5c.9.6,1.5,1,2.4,1.8l-.5.8c-.9-.9-1.4-1.3-2.4-1.9l.5-.7ZM291.3,161.1c-.7,1.7-.7,1.8-1.8,3.7q-.1.2-.2.4t-.1.2l-.8-.7c.7-.8,1.5-2.2,2.2-4.1l.7.5ZM289.5,153.2c.9.6,1.5,1.1,2.2,1.8l-.5.7c-.8-.8-1.3-1.3-2.3-1.9l.6-.6ZM293.4,156.3c-.6,0-1,0-1.4,0v-1c.4,0,.8,0,1.4,0h3.3c.7-1.1.9-1.5,1.3-2.5l.9.4c-.5.9-.8,1.5-1.3,2.1h1.3c.6,0,1.2,0,1.6,0v1c-.4,0-.9,0-1.6,0h-2.5v2h2.1c.6,0,1.1,0,1.5,0v1c-.4,0-.9,0-1.5,0h-2.1v2.2h2.7c.7,0,1.3,0,1.6,0v1c-.5,0-1,0-1.6,0h-2.7v1.9c0,.6,0,1.1,0,1.6h-1.1c0-.5,0-1,0-1.6v-1.9h-2.2c-.6,0-1,0-1.5,0v-1c.4,0,.9,0,1.5,0h2.2v-2.2h-1.7c-.6,0-1,0-1.5,0v-1c.4,0,.8,0,1.5,0h1.7v-2h-2.1ZM293.8,153c.5.7.8,1.2,1.2,2l-.8.4c-.3-.8-.6-1.3-1.2-2l.8-.4Z"/>
  </g>
  <g>
    <path d="M303,42.8c0-.3,0-.7,0-1,.2,0,.4,0,.8,0h1.1c.4,0,.6,0,.8,0l.4.4c0,.1,0,.2-.1.3-.3.7-.7,1.8-1.1,2.5.4.5.6.8.8,1.3.2.4.3.9.3,1.3,0,.6-.2,1-.5,1.1-.2,0-.5.1-1,.1h-.2c0-.3,0-.5-.1-.7.2,0,.3,0,.5,0,.6,0,.7-.2.7-.6s0-.8-.2-1.2c-.2-.5-.4-.8-.8-1.3.5-.9.8-1.7,1.2-2.7h-1.6v7.8c0,.6,0,.9,0,1.2h-.8c0-.3,0-.7,0-1.3v-7.4ZM308.6,47.7c0-.3,0-.5,0-.7h.8c0,.2,0,.4,0,.7v.6h1.8c.5,0,.7,0,1,0v.7c-.3,0-.5,0-1,0h-1.8v1.6h2.3c.5,0,.8,0,1.1,0v.7c-.4,0-.7,0-1.1,0h-5.3c-.5,0-.8,0-1.1,0v-.7c.3,0,.7,0,1.1,0h2.4v-1.6h-1.4c-.5,0-.7,0-1,0v-.7c.3,0,.5,0,1,0h1.4v-.6ZM308.6,43.3h-1.3c-.4,0-.7,0-1,0v-.7c.3,0,.5,0,1,0h1.3v-.5c0-.3,0-.5,0-.7h.8c0,.2,0,.4,0,.7v.5h1.7c.5,0,.7,0,1,0v.7c-.3,0-.6,0-1,0h-1.7v1.3h2.2c.5,0,.8,0,1,0v.7c-.3,0-.6,0-1,0h-1.3v1.2c0,.2,0,.3.6.3s.8,0,1-.1c.1,0,.2-.3.2-.9.3.1.4.2.6.2-.1,1.3-.2,1.4-1.8,1.4s-.7,0-.8,0c-.3,0-.4-.2-.4-.6v-1.4h-1.2c0,.5-.1.7-.3,1-.3.6-.8,1-1.7,1.3-.1-.2-.2-.4-.4-.5.8-.3,1.2-.5,1.5-1,.1-.2.2-.4.2-.7h-.9c-.4,0-.7,0-1,0v-.7c.2,0,.5,0,1,0h1.8v-1.3Z"/>
    <path d="M314.8,42.9c0-.5,0-.9,0-1.2h.8c0,.4,0,.7,0,1.2v1.7h.2c.4,0,.6,0,.9,0v.7c-.3,0-.5,0-.9,0h-.2v3.3c.5-.3.7-.4,1.2-.7v.7c-.6.4-1.2.7-2.7,1.4-.2,0-.2.1-.4.2l-.2-.7c.3,0,.6-.2,1.4-.6v-3.6h-.3c-.3,0-.6,0-.9,0v-.7c.3,0,.6,0,.9,0h.3v-1.7ZM320,49c-1,.3-1.7.5-3,.8-.2,0-.5.1-.7.2l-.2-.7c.6,0,2.4-.4,3.9-.9v.6ZM317.7,44c-.4,0-.9,0-1.2,0v-.7c.3,0,.7,0,1.2,0h2.7q0-1.4,0-1.8h.8c0,.3,0,.6,0,1.1v.7h1.1c.5,0,.9,0,1.1,0v.7c-.3,0-.7,0-1.2,0h-1.1c0,1.4.2,2.5.4,3.6.5-.9.8-1.8.9-2.4l.7.2c-.1.3-.1.3-.2.6-.3.9-.7,1.7-1.1,2.4.4,1.1.8,1.9,1.1,2,.2-.2.3-.7.3-1.5.2.2.4.3.6.4,0,.8-.2,1.3-.4,1.6-.1.3-.3.4-.5.4-.5,0-1.2-.9-1.6-2.2-.7.9-1.4,1.5-2.5,2.2-.2-.2-.3-.4-.5-.5,1.3-.7,2.1-1.4,2.8-2.5-.4-1.4-.6-2.9-.6-4.4h-2.7ZM317,45.6c0-.2,0-.5,0-.7.2,0,.4,0,.7,0h1.3c.3,0,.5,0,.7,0,0,.2,0,.3,0,.6v1.8c0,.3,0,.5,0,.6-.2,0-.5,0-.8,0h-1.3c-.4,0-.6,0-.7,0,0-.2,0-.4,0-.7v-1.7ZM317.6,47.4h1.5v-1.8h-1.5v1.8ZM322.7,43.2c-.4-.5-.7-.7-1.3-1.1l.4-.4c.5.3.8.5,1.3,1l-.5.5Z"/>
    <path d="M327,42.2c-.2.5-.3,1-.5,1.8-.2,1.2-.3,2.1-.3,3.4s0,1.5,0,2.1c.2-.7.4-1.3.7-2.1l.5.3c-.5,1.1-.9,2.4-.9,3v.2h-.8c0-.1,0-.2,0-.4-.2-1.2-.3-2-.3-3.1s.1-2.7.5-4.4c.1-.5.1-.6.2-.9h.9ZM329.8,46.7c-.5.6-.8,1.1-.8,1.6,0,.8.7,1.2,2.1,1.2s1.9-.1,2.5-.4v.8s0,0-.3,0c-.8.2-1.5.2-2.3.2-1.3,0-2-.3-2.5-.8-.2-.3-.3-.6-.3-1,0-.7.3-1.3,1-2l.6.3ZM328.4,43.4c.5.1,1,.2,1.9.2,1.2,0,2.2,0,2.9-.3v.8s-.2,0-.7,0c-.6,0-1.5.1-2.4.1s-1,0-1.8-.1v-.8Z"/>
    <path d="M337.9,42.2c-.5,1.1-.8,3.4-.8,5.2s0,1,0,1.5c0,0,0,.1,0,.3v.2h0c.2-.8.3-1,.6-1.9,0,0,0-.1,0-.2l.5.3c-.5,1.1-.9,2.5-.9,3.1s0,0,0,.2h-.8s0,0,0-.3c-.2-1-.3-2.2-.3-3.3s.1-2.6.6-4.5c0-.5.1-.5.1-.7h.9ZM339,44.2c.5.1,1,.2,2,.2s.7,0,1.2,0q0-1,0-1.9c0-.2,0-.3,0-.5h.8c0,.3,0,.8,0,1.7s0,.3,0,.5c.8,0,1.5-.2,1.9-.4v.7s0,0-.7.2c-.3,0-.6.1-1.2.2,0,1.1,0,1.7.1,3.1.8.4,1.1.5,1.8,1.1.1,0,.2.1.3.2l-.3.8c-.3-.4-.8-.7-1.6-1.1t-.1,0s0,0,0,0c0,.2,0,.2,0,.3,0,.3,0,.6-.1.7-.3.6-.9.9-1.8.9s-2.1-.6-2.1-1.6.9-1.6,2.1-1.6,1,0,1.2.2c0-.2,0-1.3-.1-2.9-.5,0-.8,0-1.3,0s-.9,0-1.2,0c-.2,0-.3,0-.4,0,0,0-.2,0-.2,0,0,0,0,0-.1,0h0v-.8ZM341.2,48.4c-.9,0-1.4.4-1.4.9s.5.9,1.3.9.9-.1,1.1-.4c.1-.2.2-.4.2-.9s0-.3,0-.3c-.5-.2-.7-.2-1.2-.2Z"/>
    <path d="M348.7,42.5c-.6,0-.9,0-1.2,0v-.7c.4,0,.7,0,1.2,0h5.6c.5,0,.8,0,1.2,0v.7c-.3,0-.6,0-1.2,0h-2.6v.8h3.5c.5,0,.7,0,.9,0,0,.3,0,.5,0,.9v1c0,.4,0,.6,0,.9h-.7v-2.2h-3.8v1.9c0,.4,0,.6,0,.9h-.8c0-.3,0-.6,0-.9v-1.9h-3.6v2.2h-.7c0-.3,0-.6,0-.9v-1.1c0-.4,0-.5,0-.9.3,0,.5,0,1,0h3.3v-.8h-2.4ZM354.5,47.8h-5.9c-.4,0-.7,0-1,0v-.7c.3,0,.5,0,1.1,0h5.6c.3,0,.6,0,.9,0,0,.3,0,.5,0,.9v2.4c0,.4,0,.7,0,1.1h-.8v-.6h-6c-.4,0-.7,0-1,0v-.7c.3,0,.6,0,1,0h6v-1h-5.7c-.4,0-.7,0-1,0v-.7c.3,0,.5,0,1,0h5.6v-.9ZM350.4,45.1c-.3,0-.5,0-.7,0h-.9c-.3,0-.5,0-.7,0v-.6c.2,0,.4,0,.7,0h.9c.3,0,.5,0,.7,0v.6ZM350.4,46.3c-.2,0-.5,0-.7,0h-.9c-.3,0-.5,0-.7,0v-.6c.2,0,.4,0,.7,0h.9c.3,0,.5,0,.7,0v.6ZM354.8,45.1c-.3,0-.5,0-.7,0h-1c-.3,0-.5,0-.7,0v-.6c.2,0,.4,0,.7,0h1c.3,0,.5,0,.7,0v.6ZM354.8,46.3c-.2,0-.5,0-.7,0h-1c-.3,0-.5,0-.7,0v-.6c.2,0,.4,0,.7,0h1c.3,0,.5,0,.7,0v.6Z"/>
    <path d="M357.8,44.6c.4,0,.8,0,2.4-.3.2-.8.3-1.9.3-2.3h0c0-.1.9,0,.9,0,0,.2-.1.5-.2,1.1,0,.3-.1.8-.2,1.3.3,0,.4,0,.6,0,.8,0,1.2.1,1.6.5.4.4.5.9.5,1.8,0,1.7-.3,3.1-.7,3.8-.3.4-.6.5-1.1.5s-.9-.1-1.7-.4c0-.2,0-.2,0-.4s0-.2,0-.4c.6.3,1.2.5,1.6.5s.5-.2.6-.5c.3-.7.5-1.8.5-3.1s-.3-1.5-1.4-1.5-.4,0-.8,0c-.5,2.1-1.2,4-2.4,6l-.7-.4c.9-1.2,1.9-3.4,2.4-5.5-1.4.2-1.7.3-2.2.4v-.8ZM365,43.6c1.1,1.2,1.8,2.4,2.3,3.9l-.7.4c-.4-1.4-1.3-3-2.2-3.9l.6-.3ZM365.5,41.8c.5.6.8,1.1,1.1,1.7l-.5.3c-.3-.6-.8-1.4-1.1-1.7l.6-.3ZM366.8,41.2c.5.6.8,1,1.1,1.7l-.5.3c-.2-.5-.7-1.2-1.1-1.7l.5-.3Z"/>
    <path d="M371.9,45c-.2,0-.4,0-.7,0h-.3c.3.8.6,1.4,1.2,2-.2.2-.3.3-.4.5-.4-.5-.6-.9-.9-1.7,0,.5,0,1.2,0,1.7v2.8c0,.6,0,1,0,1.3h-.8c0-.3,0-.7,0-1.3v-2.5c0-.5,0-1.2,0-1.8-.3,1.3-.7,2.2-1.4,3-.1-.2-.2-.4-.4-.6.8-.9,1.4-2.2,1.7-3.5h-.5c-.4,0-.6,0-.9,0v-.7c.3,0,.5,0,1,0h.6v-1.6c-.5.1-.7.2-1.3.3,0-.2-.1-.3-.3-.6,1-.1,1.8-.3,2.6-.7.2,0,.3-.2.5-.3l.4.6c-.2,0-.2,0-.3.1-.3.1-.6.2-.9.4v1.8h.4c.4,0,.6,0,.8,0v.4c.2,0,.5,0,1,0h1.8v-.7h-1.3c-.4,0-.7,0-.9,0v-.6c.3,0,.5,0,.9,0h1.3v-.6h-1.6c-.4,0-.7,0-.9,0v-.6c.3,0,.5,0,1,0h1.6c0-.4,0-.6,0-.8h.8c0,.2,0,.5,0,.8h1.8c.4,0,.7,0,1,0v.6c-.3,0-.5,0-1,0h-1.9v.6h1.5c.5,0,.7,0,1,0v.6c-.3,0-.5,0-1,0h-1.5v.7h2.1c.4,0,.7,0,1,0v.7c-.3,0-.6,0-1,0h-4.5c-.4,0-.7,0-1,0v-.4ZM374.2,50.3c-.8.6-1.4.9-2.5,1.2-.1-.3-.2-.3-.4-.6,1.1-.3,1.6-.5,2.4-1.1l.5.4ZM373.4,49.8c-.5,0-.9,0-1,0,0-.2,0-.6,0-1v-2c0-.6,0-.7,0-1,.3,0,.5,0,1,0h3.3c.5,0,.7,0,1,0,0,.2,0,.4,0,1v2c0,.6,0,.8,0,1-.3,0-.6,0-.9,0h-3.4ZM373.1,47h3.9v-.6h-3.9v.6ZM373.1,48.1h3.9v-.6h-3.9v.6ZM373.1,49.3h3.9v-.7h-3.9v.7ZM376.2,49.9c.8.5,1.4.8,2.5,1-.2.2-.3.3-.4.6-1-.3-1.6-.6-2.5-1.2l.4-.4Z"/>
    <path d="M380.5,46.2c.4.2,1.1.3,2,.4,0-.5.2-1.4.3-2-.5,0-1-.1-1.6-.3-.1,0-.2,0-.3,0v-.7c.6.2,1.3.4,2.1.4.2-1.1.3-1.8.3-2.1h0c0,0,.9,0,.9,0,0,.2,0,.3-.2.7q0,0-.1.7c0,.2,0,.4-.1.7.3,0,.5,0,.6,0,.8,0,1.5,0,2-.2v.8q-.3,0-.8,0c-.3,0-.7,0-1,0s-.4,0-1,0c-.2,1.3-.2,1.4-.3,2,.4,0,.6,0,.7,0,.8,0,1.6,0,2-.2v.7c-.1,0-.2,0-.3,0-.6,0-1,0-1.6,0s-.5,0-.9,0q0,0,0,.2c0,.3,0,.6,0,.8,0,.6.2,1,.5,1.3.4.3.9.5,1.6.5,1.5,0,2.4-.8,2.4-1.9s-.3-1.3-1-1.9c.4,0,.5,0,.8-.2.8.8,1,1.4,1,2.2,0,1.6-1.3,2.6-3.2,2.6s-2-.4-2.5-1.1c-.2-.4-.3-.9-.3-1.5s0-.5,0-.7q0-.2,0-.3c-.7,0-1.2-.2-1.7-.3-.2,0-.2,0-.3,0v-.8Z"/>
    <path d="M392.6,42.5c.3,0,.5,0,1,0,.9,0,2.4,0,3.4-.1.3,0,.4,0,.5-.1l.5.6c-.2,0-.2.1-.6.5-1.5,1.5-2.8,2.6-3.6,3.1h0c.8-.4,1.7-.6,2.7-.6,1.8,0,3,.9,3,2.3s-1.6,2.8-4,2.8-2.4-.6-2.4-1.6.7-1.3,1.6-1.3,1.4.3,1.8.9c.2.3.4.6.5,1.1,1.2-.3,1.8-1,1.8-1.9s-.9-1.7-2.4-1.7-3.4.7-4.6,1.9l-.5-.7c.4-.2.8-.5,1.5-1.1,1.2-.9,2.9-2.5,3.7-3.2q0,0,.2-.2s0,0,0,0h0s0,0,0,0t0,0c-.4,0-1.7.1-3.3.2-.2,0-.4,0-.6,0v-.8ZM394.7,48.7c-.5,0-.9.3-.9.7s.1.5.4.7c.3.2.8.3,1.2.3s.4,0,.8,0c-.2-1-.8-1.5-1.6-1.5Z"/>
  </g>
  <g>
    <path d="M411.2,91.4c.8.5,1.1.7,1.8,1.4l-.5.5c-.6-.6-.9-.9-1.7-1.4l.4-.5ZM413.1,95c-.4,1.2-.8,2.3-1.3,3.1q-.1.2-.2.4l-.6-.5c.4-.4,1-1.8,1.5-3.4l.6.5ZM411.9,88.7c.7.5,1.1.9,1.6,1.4l-.5.5c-.6-.7-.9-1-1.6-1.5l.5-.5ZM419.4,89.6c.8,0,1.1,0,1.4,0v.7c-.3,0-.6,0-1.4,0h-4.3c-.5.9-.8,1.3-1.4,2-.2-.2-.3-.4-.5-.5.7-.6,1.2-1.3,1.7-2.4.2-.4.3-.7.3-.9l.8.2q0,.1-.2.4c0,.2-.1.4-.3.6h4ZM414.6,96.9c0,.2,0,.4-.2.7h-.7c.3-.9.6-2,.8-3.3h0c-.5,0-.7,0-1,0v-.7c.3,0,.6,0,1.1,0h.1c.1-1,.2-1.7.2-2s0-.1,0-.3c.1,0,.5,0,.8,0h3.5c.6,0,.8,0,1.1,0,0,.3,0,.4,0,1.7,0,.2,0,.4,0,.7h0c.5,0,.7,0,1,0v.7c-.3,0-.6,0-1,0h-.1q0,.1,0,.3c0,.5,0,1-.2,1.7h.1c.4,0,.6,0,.9,0v.7c-.3,0-.5,0-.9,0h-.2c-.2,1.3-.4,1.5-1.3,1.5s-.6,0-1.2,0c0-.3,0-.4-.1-.7.5,0,.9.1,1.2.1.6,0,.6,0,.8-.9h-4.4ZM415.1,94.3c0,.5-.1.9-.4,2h1.8q.2-1.1.3-2h-1.7ZM416.9,93.7c0-.8,0-.8.1-1.7h-1.7c0,.7,0,1-.2,1.7h1.7ZM417.4,94.3q-.1.9-.3,2h1.9c0-.6.1-1.1.2-2h-1.8ZM419.3,93.7c0-.4,0-1.1,0-1.7h-1.7c0,.7,0,1.3-.1,1.7h1.8Z"/>
    <path d="M422.5,91.3c.7.5,1.2.8,1.9,1.4l-.4.6c-.7-.7-1.1-1-1.9-1.5l.4-.5ZM424.5,94.9c-.5,1.3-.5,1.4-1.4,2.9q0,.2-.2.3t0,.2l-.6-.6c.6-.6,1.2-1.7,1.7-3.2l.6.4ZM423.1,88.7c.7.5,1.2.8,1.7,1.4l-.4.6c-.6-.7-1-1-1.8-1.5l.5-.5ZM426.1,91.1c-.5,0-.8,0-1.1,0v-.8c.3,0,.6,0,1.1,0h2.6c.6-.8.7-1.2,1-2l.7.3c-.4.7-.6,1.2-1,1.7h1c.5,0,.9,0,1.2,0v.8c-.3,0-.7,0-1.2,0h-2v1.6h1.6c.5,0,.9,0,1.2,0v.7c-.3,0-.7,0-1.2,0h-1.6v1.7h2.1c.5,0,1,0,1.3,0v.8c-.4,0-.8,0-1.3,0h-2.1v1.5c0,.5,0,.9,0,1.3h-.9c0-.4,0-.8,0-1.3v-1.5h-1.7c-.4,0-.8,0-1.2,0v-.8c.3,0,.7,0,1.2,0h1.7v-1.7h-1.3c-.5,0-.8,0-1.2,0v-.7c.3,0,.7,0,1.2,0h1.3v-1.6h-1.7ZM426.4,88.5c.4.5.7.9,1,1.6l-.6.3c-.2-.6-.5-1-.9-1.6l.6-.3Z"/>
    <path d="M435.5,89.2c-.2.5-.3,1-.5,1.8-.2,1.2-.3,2.1-.3,3.4s0,1.5,0,2.1c.2-.7.4-1.3.7-2.1l.5.3c-.5,1.1-.9,2.4-.9,3v.2h-.8c0-.1,0-.2,0-.4-.2-1.2-.3-2-.3-3.1s.1-2.7.5-4.4c.1-.5.1-.6.2-.9h.9ZM438.3,93.7c-.5.6-.8,1.1-.8,1.6,0,.8.7,1.2,2.1,1.2s1.9-.1,2.5-.4v.8s0,0-.3,0c-.8.2-1.5.2-2.3.2-1.3,0-2-.3-2.5-.8-.2-.3-.3-.6-.3-1,0-.7.3-1.3,1-2l.6.3ZM436.9,90.4c.5.1,1,.2,1.9.2,1.2,0,2.2,0,2.9-.3v.8s-.2,0-.7,0c-.6,0-1.5.1-2.4.1s-1,0-1.8-.1v-.8Z"/>
    <path d="M447.8,89.3q0,.1-.4.9c-.3.6-.6,1.2-1,1.8.5.6.7.9.8,1.4.2.4.2.8.2,1.2s-.2.9-.5,1.1c-.2.1-.5.2-.9.2s-.3,0-.5,0c0-.3,0-.5-.1-.7.3,0,.4,0,.7,0,.6,0,.7-.1.7-.8s-.2-1-.5-1.5c-.1-.2-.3-.4-.6-.8.6-1,.9-1.6,1.2-2.5h-1.7v7.9c0,.4,0,.7,0,1h-.8c0-.3,0-.6,0-1v-7.7c0-.3,0-.6,0-.8.2,0,.2,0,.3,0h1.9c.3,0,.5,0,.7,0l.4.4ZM448.7,94.5c-.4,0-.6,0-.8,0v-.7c.2,0,.5,0,.9,0h2.3v-.2c0-.3,0-.5,0-.8h.8c0,.3,0,.5,0,.8v.2h.9c.5,0,.7,0,.9,0v.7c-.3,0-.5,0-.9,0h-.9v1.5h1.4c.5,0,.7,0,1,0v.7c-.3,0-.6,0-1,0h-1.4v.9c0,.4,0,.6,0,.9h-.8c0-.3,0-.6,0-.9v-.9h-2.8c-.5,0-.7,0-1,0v-.7c.3,0,.4,0,.8,0h.6v-1.5ZM452,89.3c.4,0,.6,0,.8,0l.4.4c-.8,1-1.1,1.3-1.8,2,.8.5,1.7.9,2.9,1.2-.2.2-.2.3-.3.6-1.3-.4-2.2-.8-3.1-1.4-.9.6-1.7,1-3.1,1.5-.1-.3-.3-.4-.4-.6,1.3-.4,2.1-.7,2.9-1.3-.4-.4-.7-.6-1.2-1.2-.4.5-.8.7-1.4,1.1-.1-.2-.2-.3-.5-.5,1-.6,1.7-1.2,2.2-2.1.1-.2.2-.4.3-.6l.7.2c-.2.4-.3.5-.5.8h2ZM451,96v-1.5h-1.7v1.5h1.7ZM449.5,90c.5.6.7.9,1.3,1.3.6-.5.9-.8,1.4-1.4h-2.7Z"/>
    <path d="M456.3,93.2c.3,0,.3,0,1-.2,1.4-.3,2.4-.5,3.4-.5s1.9.3,2.3,1c.2.4.3.8.3,1.3,0,1.2-1,2.4-2.5,2.8-.7.2-.9.3-2.3.4,0-.3-.1-.4-.3-.8,0,0,.1,0,.2,0,.7,0,1.5-.1,2.2-.3,1.3-.4,2-1.2,2-2.2s-.7-1.5-2-1.5-1.6.1-2.9.4c-.7.2-.8.2-1.2.4l-.2-.8Z"/>
    <path d="M466.7,90.8c.4,0,.8,0,1.4,0s.3,0,.7,0c.2-1.4.2-1.5.2-2h.9q0,.4-.2,1.1c0,.4,0,.5-.1.8.9,0,1.5-.2,2-.4v.8s0,0-.3,0c-.6.1-1.3.2-1.9.3-.2.9-.5,2.1-.8,3.1-.4,1.2-.7,2-1.3,3.4l-.8-.3c.8-1.4,1.7-3.9,2.1-6.1-.2,0-.4,0-.8,0s-.5,0-.9,0h0s0,0-.2,0v-.8ZM471.6,94.8c-.2.3-.3.3-.3.4-.2.2-.3.5-.3.8,0,.7.7,1,1.9,1s1.8-.2,2.4-.4v.8s0,0-.4,0c-.7.1-1.4.2-2,.2-1.8,0-2.7-.6-2.7-1.7s.2-.8.7-1.6l.6.3ZM475,92.9c-.5,0-.8,0-1.3,0-1,0-1.7,0-2.8.4v-.7c1.2-.3,1.9-.4,2.8-.4s.4,0,1.2,0v.8Z"/>
    <path d="M479.2,89.5c-.6,0-.9,0-1.2,0v-.7c.4,0,.7,0,1.2,0h5.6c.5,0,.8,0,1.2,0v.7c-.3,0-.6,0-1.2,0h-2.6v.8h3.5c.5,0,.7,0,.9,0,0,.3,0,.5,0,.9v1c0,.4,0,.6,0,.9h-.7v-2.2h-3.8v1.9c0,.4,0,.6,0,.9h-.8c0-.3,0-.6,0-.9v-1.9h-3.6v2.2h-.7c0-.3,0-.6,0-.9v-1.1c0-.4,0-.5,0-.9.3,0,.5,0,1,0h3.3v-.8h-2.4ZM485,94.8h-5.9c-.4,0-.7,0-1,0v-.7c.3,0,.5,0,1.1,0h5.6c.3,0,.6,0,.9,0,0,.3,0,.5,0,.9v2.4c0,.4,0,.7,0,1.1h-.8v-.6h-6c-.4,0-.7,0-1,0v-.7c.3,0,.6,0,1,0h6v-1h-5.7c-.4,0-.7,0-1,0v-.7c.3,0,.5,0,1,0h5.6v-.9ZM480.9,92.1c-.3,0-.5,0-.7,0h-.9c-.3,0-.5,0-.7,0v-.6c.2,0,.4,0,.7,0h.9c.3,0,.5,0,.7,0v.6ZM480.9,93.3c-.2,0-.5,0-.7,0h-.9c-.3,0-.5,0-.7,0v-.6c.2,0,.4,0,.7,0h.9c.3,0,.5,0,.7,0v.6ZM485.3,92.1c-.3,0-.5,0-.7,0h-1c-.3,0-.5,0-.7,0v-.6c.2,0,.4,0,.7,0h1c.3,0,.5,0,.7,0v.6ZM485.3,93.3c-.2,0-.5,0-.7,0h-1c-.3,0-.5,0-.7,0v-.6c.2,0,.4,0,.7,0h1c.3,0,.5,0,.7,0v.6Z"/>
    <path d="M490.4,89.2c-.5,1.1-.8,3.4-.8,5.2s0,1,0,1.5c0,0,0,.1,0,.3v.2h0c.2-.8.3-1,.6-1.9,0,0,0-.1,0-.2l.5.3c-.5,1.1-.9,2.5-.9,3.1s0,0,0,.2h-.8s0,0,0-.3c-.2-1-.3-2.2-.3-3.3s.1-2.6.6-4.5c0-.5.1-.5.1-.7h.9ZM491.5,91.2c.5.1,1,.2,2,.2s.7,0,1.2,0q0-1,0-1.9c0-.2,0-.3,0-.5h.8c0,.3,0,.8,0,1.7s0,.3,0,.5c.8,0,1.5-.2,1.9-.4v.7s0,0-.7.2c-.3,0-.6.1-1.2.2,0,1.1,0,1.7.1,3.1.8.4,1.1.5,1.8,1.1.1,0,.2.1.3.2l-.3.8c-.3-.4-.8-.7-1.6-1.1t-.1,0s0,0,0,0c0,.2,0,.2,0,.3,0,.3,0,.6-.1.7-.3.6-.9.9-1.8.9s-2.1-.6-2.1-1.6.9-1.6,2.1-1.6,1,0,1.2.2c0-.2,0-1.3-.1-2.9-.5,0-.8,0-1.3,0s-.9,0-1.2,0c-.2,0-.3,0-.4,0,0,0-.2,0-.2,0,0,0,0,0-.1,0h0v-.8ZM493.7,95.4c-.9,0-1.4.4-1.4.9s.5.9,1.3.9.9-.1,1.1-.4c.1-.2.2-.4.2-.9s0-.3,0-.3c-.5-.2-.7-.2-1.2-.2Z"/>
  </g>
  <g>
    <path d="M414.4,107c-.2,0-.4,0-.7,0h-.3c.3.8.6,1.4,1.2,2-.2.2-.3.3-.4.5-.4-.5-.6-.9-.9-1.7,0,.5,0,1.2,0,1.7v2.8c0,.6,0,1,0,1.3h-.8c0-.3,0-.7,0-1.3v-2.5c0-.5,0-1.2,0-1.8-.3,1.3-.7,2.2-1.4,3-.1-.2-.2-.4-.4-.6.8-.9,1.4-2.2,1.7-3.5h-.5c-.4,0-.6,0-.9,0v-.7c.3,0,.5,0,1,0h.6v-1.6c-.5.1-.7.2-1.3.3,0-.2-.1-.3-.3-.6,1-.1,1.8-.3,2.6-.7.2,0,.3-.2.5-.3l.4.6c-.2,0-.2,0-.3.1-.3.1-.6.2-.9.4v1.8h.4c.4,0,.6,0,.8,0v.4c.2,0,.5,0,1,0h1.8v-.7h-1.3c-.4,0-.7,0-.9,0v-.6c.3,0,.5,0,.9,0h1.3v-.6h-1.6c-.4,0-.7,0-.9,0v-.6c.3,0,.5,0,1,0h1.6c0-.4,0-.6,0-.8h.8c0,.2,0,.5,0,.8h1.8c.4,0,.7,0,1,0v.6c-.3,0-.5,0-1,0h-1.9v.6h1.5c.5,0,.7,0,1,0v.6c-.3,0-.5,0-1,0h-1.5v.7h2.1c.4,0,.7,0,1,0v.7c-.3,0-.6,0-1,0h-4.5c-.4,0-.7,0-1,0v-.4ZM416.7,112.3c-.8.6-1.4.9-2.5,1.2-.1-.3-.2-.3-.4-.6,1.1-.3,1.6-.5,2.4-1.1l.5.4ZM415.9,111.8c-.5,0-.9,0-1,0,0-.2,0-.6,0-1v-2c0-.6,0-.7,0-1,.3,0,.5,0,1,0h3.3c.5,0,.7,0,1,0,0,.2,0,.4,0,1v2c0,.6,0,.8,0,1-.3,0-.6,0-.9,0h-3.4ZM415.6,109h3.9v-.6h-3.9v.6ZM415.6,110.1h3.9v-.6h-3.9v.6ZM415.6,111.3h3.9v-.7h-3.9v.7ZM418.7,111.9c.8.5,1.4.8,2.5,1-.2.2-.3.3-.4.6-1-.3-1.6-.6-2.5-1.2l.4-.4Z"/>
    <path d="M424.9,106c0,.3-.2.6-.3,1.2-.3,1.6-.3,1.7-.3,1.9,0,.1,0,.2,0,.3h0c.1-.1.2-.2.3-.3.8-.6,2-.9,3.2-.9,1.8,0,2.9.8,2.9,2.1s-.4,1.5-1,1.9c-.7.5-1.6.7-2.7.7s-1.3,0-1.9-.2q-.2,0-.9-.2c0,0,0-.2,0-.2,0-.3,0-.4,0-.7.8.3,1.9.5,2.8.5,1.8,0,3-.7,3-1.8s-.8-1.4-2.1-1.4-2.3.4-3.1,1c-.2.1-.3.2-.4.5h-.9c0-.2,0-.3,0-.7.1-.8.3-2.1.5-3,0-.3,0-.4,0-.6h.8ZM425.4,104c.9.5,2.5,1,3.7,1.2l-.3.8q-1.4-.4-2.1-.6t-1.7-.7l.4-.7Z"/>
    <path d="M437,103.9c0,.2,0,.3-.2.7,0,.4-.1.6-.3,1.2.8,0,1.5-.2,2-.4v.8q0,0-.4,0c-.5,0-1.1.2-1.8.2-.3,1.2-.7,2.2-1.2,3.2-.3.5-.4.7-.8,1.4,0,.2-.2.3-.2.4l-.7-.4c.4-.4.6-.9,1.1-1.7.5-1,.8-1.8,1.1-2.8-.3,0-.6,0-.8,0s-.6,0-.7,0c-.1,0-.2,0-.2,0h-.1v-.8c.4,0,.7,0,1.3,0s.6,0,.8,0c.2-.6.4-1.6.4-2.1h.9ZM442.2,112.4c-.4-.5-1.1-1.1-1.9-1.5,0,.2,0,.2,0,.4,0,1.1-.7,1.8-2.1,1.8s-2.1-.6-2.1-1.6.4-1.1,1-1.4c.4-.2.8-.2,1.3-.2s.7,0,1.1.2c0-.7,0-1.2,0-1.5,0-.4,0-.7.1-1.1h.7c-.1.5-.1.7-.1,1.1s0,1.3.1,1.7c.9.4,1.6.8,2.2,1.3q.1.1.2.2l-.4.7ZM438.3,110.5c-.9,0-1.5.4-1.5,1s.5.9,1.4.9,1.4-.4,1.4-1.2,0-.5,0-.5c-.5-.2-.8-.2-1.2-.2ZM442.2,107.5c-.9-.6-1.8-1.1-2.9-1.5l.4-.6c1.3.5,2,.9,2.9,1.5l-.4.7Z"/>
    <path d="M445.9,104.9c0,.3,0,.7,0,1.3,0,1.2.1,2.7.3,3.4.2,1.1.7,1.9,1.1,1.9s.4-.2.6-.6c.3-.5.4-1.1.6-1.9.2.3.3.4.6.6-.5,1.9-1,2.7-1.8,2.7s-1.2-.6-1.6-1.7c-.4-1-.5-2.5-.6-5.2,0-.4,0-.5,0-.6h.9ZM451.2,105.5c.7.8,1.2,1.6,1.6,2.5.4.9.6,1.7.8,2.9l-.8.3c-.2-2-1-3.9-2.3-5.4l.7-.3Z"/>
    <path d="M455,105.4c.2,0,.3,0,.4,0,.2,0,.3,0,.6,0,.6,0,.7,0,2-.1h1.7c1.4-.2,1.5-.2,1.9-.2h.6c.9,0,1.2,0,1.3-.1v.8c-.4,0-.7,0-1.2.2-.7.2-1.5.6-2.1,1.1-.9.7-1.4,1.6-1.4,2.5s.6,1.7,1.5,2c.5.2,1.2.4,1.7.4h.1v.9c-.3,0-.3,0-.5,0-1.1-.2-1.7-.4-2.4-.8-.8-.5-1.2-1.3-1.2-2.2s.7-2.5,2.1-3.4c.3-.2.6-.4,1-.6-.6.1-1.3.2-2.4.2-2.2.2-3.4.3-3.8.4v-.9ZM462.4,107c.5.6.8,1.1,1.1,1.7l-.6.3c-.3-.6-.8-1.4-1.1-1.7l.6-.3ZM463.6,106.4c.5.6.8,1,1.1,1.7l-.5.3c-.2-.5-.7-1.2-1.1-1.7l.5-.3Z"/>
    <path d="M470.9,104.7c-.3,0-.6,0-1.1,0h-2.9c-.5,0-.8,0-1.1,0v-.7c.3,0,.6,0,1.1,0h2.8c.5,0,.8,0,1.1,0v.7ZM466.6,108.6v3.6c0,.6,0,.9,0,1.2h-.7c0-.4,0-.7,0-1.3v-3.1c0-.4,0-.8,0-1,.2,0,.7,0,1,0h2.9c.5,0,.8,0,.9,0,0,.3,0,.6,0,1v3.6c0,.6-.2.8-1.1.8s-.4,0-.6,0c0-.3,0-.5-.1-.7.4,0,.6,0,.9,0s.3,0,.3-.2v-2.3c-.2,0-.4,0-.6,0-.7,0-.9-.1-.9-.5v-1h-.6c0,.4,0,.6-.1.9-.1.4-.4.7-.9,1.1-.1-.2-.2-.3-.4-.4.7-.5.8-.7.9-1.6h-.9ZM470.4,106.7c0,.3,0,.5,0,.7-.2,0-.4,0-.8,0h-2.5c-.4,0-.6,0-.8,0,0-.2,0-.4,0-.7v-.7c0-.3,0-.5,0-.7.2,0,.5,0,.8,0h2.4c.4,0,.6,0,.9,0,0,.2,0,.4,0,.7v.7ZM469.8,105.8h-2.7v1h2.7v-1ZM468.6,112.2c0,.3,0,.5,0,.8h-.7c0-.2,0-.5,0-.8v-1.1h-.3c-.3,0-.5,0-.6,0v-.6c.2,0,.4,0,.6,0h1.2c.3,0,.5,0,.7,0v.6c-.2,0-.4,0-.7,0h-.4v1.1ZM469.2,109.5c0,.2,0,.2.5.2s.3,0,.5,0v-1h-1v.9ZM472.9,104.7c0-.4,0-.8,0-1.1h.8c0,.4,0,.7,0,1.1v.9h.6c.4,0,.7,0,1,0,0,.3,0,.6,0,1v2.1c0,.5,0,.8,0,1.1-.3,0-.5,0-1,0h-.6v2.3c.5-.1.6-.1,1.2-.3-.2-.5-.3-.7-.6-1.3l.6-.3c.4.9.7,1.7,1.1,2.9l-.6.3c-.1-.5-.2-.7-.3-1.1-.8.2-1.9.5-2.8.7-.6.1-.6.1-.9.2l-.2-.8c0,0,.1,0,.1,0,.4,0,.4,0,1.8-.3v-2.4h-.6c-.5,0-.7,0-1,0,0-.3,0-.6,0-1v-2.2c0-.5,0-.8,0-1.1.3,0,.6,0,1.1,0h.5v-.9ZM471.9,106.2v3h1v-3h-1ZM474.5,109.2v-3h-1v3h1Z"/>
    <path d="M479.1,104.2c-.4,1-.7,3.3-.7,4.8s0,1.4,0,1.8c0,.2,0,.5,0,.6.2-.8.3-1,.9-2.3l.6.3c-.3.6-.6,1.3-.8,1.9-.2.6-.3,1-.3,1.4h-.8c0,0,0-.1,0-.3-.3-1-.4-2.1-.4-3.3s0-2.2.4-4.2c0-.5,0-.6,0-.8h.9ZM480.2,106.4c.4,0,1.1.1,1.9.1s.8,0,1.4,0c0-1.9,0-2.2-.1-2.6h.8c0,.2,0,.2,0,.4s0,.1,0,.3q0,.3,0,1.8c.8-.1,1.3-.3,1.7-.5v.8c-.2,0-.2,0-.5.1-.4,0-.8.2-1.2.2,0,.3,0,.5,0,.8,0,2.1-.2,3-.8,3.9-.4.5-.9.9-1.7,1.4-.2-.3-.3-.4-.6-.6.8-.4,1.3-.8,1.7-1.3.6-.7.7-1.5.7-3.3s0-.5,0-.9c-.5,0-1.1,0-1.6,0s-.9,0-1.3,0c0,0-.2,0-.2,0s0,0-.2,0v-.8Z"/>
    <path d="M489.3,104.5c.3,0,.5,0,1,0,.9,0,2.4,0,3.4-.1.3,0,.4,0,.5-.1l.5.6c-.2,0-.2.1-.6.5-1.5,1.5-2.8,2.6-3.6,3.1h0c.8-.4,1.7-.6,2.7-.6,1.8,0,3,.9,3,2.3s-1.6,2.8-4,2.8-2.4-.6-2.4-1.6.7-1.3,1.6-1.3,1.4.3,1.8.9c.2.3.4.6.5,1.1,1.2-.3,1.8-1,1.8-1.9s-.9-1.7-2.4-1.7-3.4.7-4.6,1.9l-.5-.7c.4-.2.8-.5,1.5-1.1,1.2-.9,2.9-2.5,3.7-3.2l.2-.2h0s0,0,0,0h0s0,0,0,0c-.4,0-1.7.1-3.3.2-.2,0-.4,0-.6,0v-.8ZM491.4,110.7c-.5,0-.9.3-.9.7s.1.5.4.7c.3.2.8.3,1.2.3s.4,0,.8,0c-.2-1-.8-1.5-1.6-1.5Z"/>
  </g>
  <polyline class="st3" points="311 68.7 316 73.7 321 68.7"/>
  <line class="st3" x1="316" y1="73.7" x2="316" y2="58.7"/>
  <polyline class="st3" points="341 68.7 346 73.7 351 68.7"/>
  <line class="st3" x1="346" y1="73.7" x2="346" y2="58.7"/>
  <polyline class="st3" points="371 68.7 376 73.7 381 68.7"/>
  <line class="st3" x1="376" y1="73.7" x2="376" y2="58.7"/>
  <polyline class="st3" points="416 133.7 421 138.7 426 133.7"/>
  <line class="st3" x1="421" y1="138.7" x2="421" y2="123.7"/>
  <polyline class="st3" points="446 133.7 451 138.7 456 133.7"/>
  <line class="st3" x1="451" y1="138.7" x2="451" y2="123.7"/>
  <polyline class="st3" points="476 133.7 481 138.7 486 133.7"/>
  <line class="st3" x1="481" y1="138.7" x2="481" y2="123.7"/>
  <rect class="st0" x="105.5" y="24.7" width="400" height="150"/>
</svg>