<?xml version="1.0" encoding="UTF-8"?>
<svg id="Layer_1" xmlns="http://www.w3.org/2000/svg" version="1.1" viewBox="0 0 618.7 179.2">
  <!-- Generator: Adobe Illustrator 29.2.1, SVG Export Plug-In . SVG Version: 2.1.0 Build 116)  -->
  <defs>
    <style>
      .st0, .st1, .st2, .st3, .st4 {
        fill: none;
      }

      .st1 {
        stroke-dasharray: 6 6;
      }

      .st1, .st2, .st4 {
        stroke: #000;
      }

      .st5 {
        fill: #e0f1c5;
      }

      .st6 {
        fill: gray;
      }

      .st7 {
        fill: #e6e6e6;
      }

      .st2 {
        stroke-width: .2px;
      }

      .st8 {
        fill: #c0e3e8;
      }

      .st3 {
        stroke: #7ec01b;
        stroke-linejoin: round;
      }
    </style>
  </defs>
  <g>
    <path class="st6" d="M217.9,9c.2.2.5.3.8.3s.5,0,.7-.2c.2-.1.3-.3.3-.4h1.1c-.2.6-.5,1-.8,1.2-.4.2-.8.4-1.3.4s-.7,0-1-.2c-.3-.1-.5-.3-.7-.5s-.4-.5-.5-.8c-.1-.3-.2-.6-.2-1s0-.7.2-1,.3-.6.5-.8.5-.4.7-.5c.3-.1.6-.2,1-.2s.7,0,1,.2c.3.2.5.4.7.6.2.3.3.5.4.9s.1.7,0,1h-3.3c0,.4.1.7.3.9ZM219.4,6.6c-.2-.2-.4-.2-.7-.2s-.4,0-.5.1c-.1,0-.2.2-.3.3,0,.1-.1.2-.2.3,0,.1,0,.2,0,.3h2.1c0-.3-.2-.6-.3-.7Z"/>
    <path class="st6" d="M223,3.7v6.4h-1.3V3.7h1.3Z"/>
    <path class="st6" d="M225.3,9c.2.2.5.3.8.3s.5,0,.7-.2c.2-.1.3-.3.3-.4h1.1c-.2.6-.5,1-.8,1.2-.4.2-.8.4-1.3.4s-.7,0-1-.2c-.3-.1-.5-.3-.7-.5s-.4-.5-.5-.8c-.1-.3-.2-.6-.2-1s0-.7.2-1,.3-.6.5-.8.5-.4.7-.5c.3-.1.6-.2,1-.2s.7,0,1,.2c.3.2.5.4.7.6.2.3.3.5.4.9s.1.7,0,1h-3.3c0,.4.1.7.3.9ZM226.8,6.6c-.2-.2-.4-.2-.7-.2s-.4,0-.5.1c-.1,0-.2.2-.3.3,0,.1-.1.2-.2.3,0,.1,0,.2,0,.3h2.1c0-.3-.2-.6-.3-.7Z"/>
    <path class="st6" d="M230.3,10.1l-1.6-4.6h1.3l1,3.2h0l1-3.2h1.3l-1.6,4.6h-1.4Z"/>
    <path class="st6" d="M233.7,6.9c0-.3,0-.5.2-.7.1-.2.3-.4.5-.5.2-.1.4-.2.7-.3.3,0,.5,0,.8,0s.5,0,.7,0,.5,0,.7.2c.2,0,.4.2.5.4.1.2.2.4.2.7v2.4c0,.2,0,.4,0,.6,0,.2,0,.3.1.4h-1.3c0,0,0-.1,0-.2,0,0,0-.2,0-.2-.2.2-.4.4-.7.4-.3,0-.6.1-.8.1s-.4,0-.6,0c-.2,0-.4-.1-.5-.2-.1-.1-.3-.3-.3-.4,0-.2-.1-.4-.1-.6s0-.5.1-.6c0-.2.2-.3.4-.4.1-.1.3-.2.5-.2s.4,0,.6-.1c.2,0,.4,0,.6,0,.2,0,.3,0,.5,0s.3,0,.3-.2.1-.2.1-.3c0-.1,0-.2,0-.3,0,0-.1-.1-.2-.2,0,0-.2,0-.3,0,0,0-.2,0-.3,0-.2,0-.4,0-.6.2-.1.1-.2.3-.3.5h-1.3ZM236.6,7.9c0,0-.1,0-.2.1,0,0-.2,0-.3,0s-.2,0-.3,0c-.1,0-.2,0-.3,0,0,0-.2,0-.3,0s-.2,0-.2.1c0,0-.1.1-.2.2,0,0,0,.2,0,.3s0,.2,0,.3c0,0,0,.1.2.2,0,0,.2,0,.3,0,0,0,.2,0,.3,0,.2,0,.4,0,.6-.1.1,0,.2-.2.3-.3,0-.1.1-.2.1-.4s0-.2,0-.3v-.5Z"/>
    <path class="st6" d="M241.4,5.5v.8h-.9v2.3c0,.2,0,.4.1.4,0,0,.2.1.4.1s.1,0,.2,0c0,0,.1,0,.2,0v1c-.1,0-.2,0-.4,0s-.3,0-.4,0c-.2,0-.4,0-.6,0s-.3,0-.5-.2c-.1,0-.2-.2-.3-.3,0-.1-.1-.3-.1-.6v-2.7h-.8v-.8h.8v-1.4h1.3v1.4h.9Z"/>
    <path class="st6" d="M242.1,4.8v-1h1.3v1h-1.3ZM243.3,5.5v4.6h-1.3v-4.6h1.3Z"/>
    <path class="st6" d="M244.4,6.8c.1-.3.3-.6.5-.8s.5-.4.8-.5c.3-.1.6-.2,1-.2s.7,0,1,.2c.3.1.5.3.8.5s.4.5.5.8c.1.3.2.6.2,1s0,.7-.2,1c-.1.3-.3.6-.5.8-.2.2-.5.4-.8.5-.3.1-.6.2-1,.2s-.7,0-1-.2c-.3-.1-.5-.3-.8-.5-.2-.2-.4-.5-.5-.8-.1-.3-.2-.6-.2-1s0-.7.2-1ZM245.5,8.4c0,.2,0,.3.2.5,0,.1.2.3.3.3.1,0,.3.1.5.1s.4,0,.5-.1c.1,0,.3-.2.3-.3,0-.1.1-.3.2-.5,0-.2,0-.4,0-.5s0-.4,0-.5,0-.3-.2-.5c0-.1-.2-.2-.3-.3-.1,0-.3-.1-.5-.1s-.4,0-.5.1c-.1,0-.3.2-.3.3,0,.1-.1.3-.2.5s0,.4,0,.5,0,.4,0,.5Z"/>
    <path class="st6" d="M251,5.5v.6h0c.2-.3.4-.5.6-.6.3-.1.5-.2.8-.2s.6,0,.8.1c.2,0,.4.2.5.4.1.2.2.4.3.6,0,.2,0,.5,0,.8v2.8h-1.3v-2.6c0-.4,0-.7-.2-.9s-.3-.3-.6-.3-.6.1-.8.3c-.2.2-.2.5-.2,1v2.4h-1.3v-4.6h1.2Z"/>
    <path class="st6" d="M255.1,5.3c0-.3.2-.6.4-.8.2-.2.4-.4.7-.5.3-.1.6-.2,1-.2s.6,0,.8.1c.3,0,.5.2.7.4.2.2.4.4.5.6.1.2.2.5.2.8s0,.6-.2.8c-.1.2-.2.4-.4.6-.2.2-.4.3-.6.5-.2.1-.4.3-.6.4-.2.1-.4.3-.6.5s-.4.3-.5.6h3v1.1h-4.6c0-.4,0-.7.2-.9s.2-.5.4-.7.4-.4.6-.6c.2-.2.5-.4.8-.5.1,0,.3-.2.4-.3s.3-.2.4-.3c.1-.1.2-.3.3-.4,0-.1.1-.3.1-.5,0-.3,0-.5-.3-.7-.2-.2-.4-.3-.7-.3s-.3,0-.5.1c-.1,0-.2.2-.3.3,0,.1-.1.3-.2.5,0,.2,0,.3,0,.5h-1.2c0-.4,0-.7.1-1Z"/>
    <path class="st6" d="M261.5,8.7v1.4h-1.4v-1.4h1.4Z"/>
    <path class="st6" d="M264.7,6.3c-.2,0-.4,0-.5.1-.1,0-.2.2-.3.4,0,.1-.1.3-.2.5,0,.2,0,.4,0,.5s0,.3,0,.5,0,.3.2.5c0,.1.2.3.3.3.1,0,.3.1.5.1.3,0,.5,0,.7-.3.2-.2.3-.4.3-.7h1.2c0,.6-.3,1.1-.7,1.4-.4.3-.9.5-1.5.5s-.7,0-1-.2c-.3-.1-.5-.3-.7-.5s-.4-.5-.5-.7c-.1-.3-.2-.6-.2-1s0-.7.2-1,.3-.6.5-.8c.2-.2.4-.4.7-.5.3-.1.6-.2,1-.2s.5,0,.8.1c.3,0,.5.2.7.3.2.1.4.3.5.5s.2.5.2.8h-1.2c0-.5-.4-.8-.9-.8Z"/>
    <path class="st6" d="M268.7,9c0,0,.1.2.2.2s.2.1.3.1.2,0,.4,0,.2,0,.3,0c0,0,.2,0,.3,0,0,0,.1-.1.2-.2,0,0,0-.2,0-.3,0-.2-.1-.3-.4-.4-.3,0-.6-.2-1.1-.3-.2,0-.4,0-.5-.1s-.3-.1-.5-.2c-.1,0-.2-.2-.3-.3,0-.1-.1-.3-.1-.5,0-.3,0-.5.2-.7.1-.2.3-.3.5-.5.2-.1.4-.2.6-.2.2,0,.5,0,.7,0s.5,0,.7,0c.2,0,.4.1.6.2.2.1.3.3.5.5s.2.4.2.7h-1.2c0-.2-.1-.4-.3-.5-.2,0-.4-.1-.6-.1s-.1,0-.2,0-.2,0-.2,0c0,0-.1,0-.2.1,0,0,0,.1,0,.2s0,.2.1.3c0,0,.2.1.3.2.1,0,.3,0,.5.1.2,0,.3,0,.5.1.2,0,.4,0,.5.2s.3.1.5.2c.1,0,.2.2.3.4s.1.3.1.5c0,.3,0,.6-.2.8-.1.2-.3.4-.5.5-.2.1-.4.2-.7.3-.3,0-.5,0-.8,0s-.5,0-.8,0c-.3,0-.5-.1-.7-.3-.2-.1-.4-.3-.5-.5s-.2-.5-.2-.8h1.2c0,.1,0,.3,0,.4Z"/>
    <path class="st6" d="M273.6,10.1l-1.6-4.6h1.3l1,3.2h0l1-3.2h1.3l-1.6,4.6h-1.4Z"/>
  </g>
  <rect class="st7" x="186.2" y="14.6" width="219.9" height="136"/>
  <rect class="st1" x="186.2" y="14.6" width="219.9" height="136"/>
  <rect class="st8" x="186.2" y="14.6" width="120.9" height="136"/>
  <rect class="st4" x="186.2" y="14.6" width="120.9" height="136"/>
  <line class="st2" x1="186.2" y1="148.6" x2="186.2" y2="150.6"/>
  <line class="st2" x1="201.3" y1="148.6" x2="201.3" y2="150.6"/>
  <line class="st2" x1="216.5" y1="148.6" x2="216.5" y2="150.6"/>
  <line class="st2" x1="231.6" y1="148.6" x2="231.6" y2="150.6"/>
  <line class="st2" x1="246.7" y1="148.6" x2="246.7" y2="150.6"/>
  <line class="st2" x1="261.8" y1="148.6" x2="261.8" y2="150.6"/>
  <line class="st2" x1="276.9" y1="148.6" x2="276.9" y2="150.6"/>
  <line class="st2" x1="292" y1="148.6" x2="292" y2="150.6"/>
  <line class="st2" x1="186.2" y1="14.6" x2="186.2" y2="16.6"/>
  <line class="st2" x1="201.3" y1="14.6" x2="201.3" y2="16.6"/>
  <line class="st2" x1="216.5" y1="14.6" x2="216.5" y2="16.6"/>
  <line class="st2" x1="231.6" y1="14.6" x2="231.6" y2="16.6"/>
  <line class="st2" x1="246.7" y1="14.6" x2="246.7" y2="16.6"/>
  <line class="st2" x1="261.8" y1="14.6" x2="261.8" y2="16.6"/>
  <line class="st2" x1="276.9" y1="14.6" x2="276.9" y2="16.6"/>
  <line class="st2" x1="292" y1="14.6" x2="292" y2="16.6"/>
  <line class="st2" x1="186.2" y1="14.6" x2="188.3" y2="14.6"/>
  <line class="st2" x1="186.2" y1="29.7" x2="188.3" y2="29.7"/>
  <line class="st2" x1="186.2" y1="44.8" x2="188.3" y2="44.8"/>
  <line class="st2" x1="186.2" y1="59.9" x2="188.3" y2="59.9"/>
  <line class="st2" x1="186.2" y1="75" x2="188.3" y2="75"/>
  <line class="st2" x1="186.2" y1="90.2" x2="188.3" y2="90.2"/>
  <line class="st2" x1="186.2" y1="105.3" x2="188.3" y2="105.3"/>
  <line class="st2" x1="186.2" y1="120.4" x2="188.3" y2="120.4"/>
  <line class="st2" x1="186.2" y1="135.5" x2="188.3" y2="135.5"/>
  <line class="st2" x1="305.1" y1="14.6" x2="307.2" y2="14.6"/>
  <line class="st2" x1="305.1" y1="29.7" x2="307.2" y2="29.7"/>
  <line class="st2" x1="305.1" y1="44.8" x2="307.2" y2="44.8"/>
  <line class="st2" x1="305.1" y1="59.9" x2="307.2" y2="59.9"/>
  <line class="st2" x1="305.1" y1="75" x2="307.2" y2="75"/>
  <line class="st2" x1="305.1" y1="90.2" x2="307.2" y2="90.2"/>
  <line class="st2" x1="305.1" y1="105.3" x2="307.2" y2="105.3"/>
  <line class="st2" x1="305.1" y1="120.4" x2="307.2" y2="120.4"/>
  <line class="st2" x1="305.1" y1="135.5" x2="307.2" y2="135.5"/>
  <polygon class="st5" points="276.9 44.8 261.8 29.7 246.7 22.1 231.6 24.7 224 29.7 216.5 37.3 208.9 44.8 201.3 59.9 224 75 216.5 90.2 216.5 105.3 231.6 120.4 231.6 135.5 246.7 127.9 261.8 120.4 276.9 105.3 261.8 95.2 254.3 90.2 261.8 75 269.4 59.9 276.9 44.8"/>
  <polygon class="st3" points="276.9 44.8 261.8 29.7 246.7 22.1 231.6 24.7 224 29.7 216.5 37.3 208.9 44.8 201.3 59.9 224 75 216.5 90.2 216.5 105.3 231.6 120.4 231.6 135.5 246.7 127.9 261.8 120.4 276.9 105.3 261.8 95.2 254.3 90.2 261.8 75 269.4 59.9 276.9 44.8"/>
  <polygon class="st5" points="261.8 105.3 246.7 97.7 231.6 105.3 246.7 112.8 261.8 105.3"/>
  <polygon class="st3" points="261.8 105.3 246.7 97.7 231.6 105.3 246.7 112.8 261.8 105.3"/>
  <polygon class="st5" points="261.8 44.8 246.7 29.7 231.6 37.3 224 44.8 216.5 59.9 231.6 67.5 246.7 75 254.3 59.9 261.8 44.8"/>
  <polygon class="st3" points="261.8 44.8 246.7 29.7 231.6 37.3 224 44.8 216.5 59.9 231.6 67.5 246.7 75 254.3 59.9 261.8 44.8"/>
  <polygon class="st5" points="246.7 39.8 239.1 44.8 246.7 52.4 251.8 44.8 246.7 39.8"/>
  <polygon class="st3" points="246.7 39.8 239.1 44.8 246.7 52.4 251.8 44.8 246.7 39.8"/>
  <path class="st6" d="M344.4,73.6c0-1.5.3-2.8.8-4.1s1.2-2.3,2-3.2,1.9-1.6,3.1-2.1c1.2-.5,2.6-.8,4.1-.8s3.6.3,4.9.8c1.3.5,2.4,1.2,3.2,2,.8.8,1.4,1.7,1.7,2.6.3.9.5,1.8.5,2.6,0,1.3-.2,2.4-.5,3.3-.3.9-.8,1.6-1.3,2.2-.5.6-1.1,1.1-1.7,1.5-.6.4-1.2.9-1.8,1.3-.6.4-1,.9-1.5,1.5-.4.5-.7,1.2-.8,2.1v1.6h-5.6v-1.9c0-1.2.3-2.2.7-3,.4-.8.8-1.5,1.3-2,.5-.6,1-1.1,1.6-1.5.5-.4,1.1-.8,1.5-1.2.5-.4.8-.9,1.1-1.4s.4-1.1.4-1.9c0-1.3-.3-2.2-.9-2.8-.6-.6-1.5-.9-2.6-.9s-1.4.1-1.9.4c-.5.3-1,.7-1.3,1.2-.3.5-.6,1-.8,1.7-.2.6-.2,1.3-.2,2.1h-6.1ZM357.5,87.2v6.3h-6.5v-6.3h6.5Z"/>
  <path d="M405,161c-.8.4-2,.7-3.7.7h-96.4c-1.8,0-3.3.2-4.5.6-1.2.4-2.2,1.3-3.1,2.5h-.9c0-.5-.4-.9-.8-1.3-.4-.4-1-.7-1.7-1-.7-.3-1.4-.5-2.3-.6-.8-.1-1.7-.2-2.6-.2h-96.6c-1.7,0-2.9-.2-3.6-.7-.8-.4-1.1-1.3-1.1-2.5v-2.2h.9v2.1c0,.9.3,1.5,1,1.9.7.4,1.9.5,3.7.5h96.5c.6,0,1.3,0,2.1.2.7.1,1.4.3,2.1.6.7.3,1.3.6,1.8,1s.9.9,1.1,1.4c.5-1,1.4-1.7,2.7-2.3,1.3-.6,2.8-.9,4.5-.9h96.4c1,0,1.8,0,2.4-.2.6-.1,1.1-.2,1.5-.4.4-.2.6-.4.7-.7.1-.3.2-.7.2-1.1v-2.1h.9v2.2c0,1.2-.4,2.1-1.2,2.5Z"/>
  <g>
    <path d="M263.4,173.8c.2.2.5.3.9.3s.5,0,.7-.2c.2-.1.3-.3.4-.4h1.2c-.2.6-.5,1-.9,1.3-.4.3-.9.4-1.4.4s-.7,0-1.1-.2c-.3-.1-.6-.3-.8-.5-.2-.2-.4-.5-.5-.8-.1-.3-.2-.7-.2-1.1s0-.7.2-1c.1-.3.3-.6.5-.8s.5-.4.8-.6.7-.2,1-.2.8,0,1.1.2c.3.2.6.4.8.7.2.3.3.6.4.9s.1.7,0,1.1h-3.6c0,.4.1.8.3,1ZM265,171.2c-.2-.2-.4-.3-.7-.3s-.4,0-.5.1c-.1,0-.3.2-.3.3,0,.1-.1.2-.2.3,0,.1,0,.2,0,.3h2.2c0-.3-.2-.6-.3-.8Z"/>
    <path d="M268.9,168.1v6.9h-1.4v-6.9h1.4Z"/>
    <path d="M271.5,173.8c.2.2.5.3.9.3s.5,0,.7-.2c.2-.1.3-.3.4-.4h1.2c-.2.6-.5,1-.9,1.3-.4.3-.9.4-1.4.4s-.7,0-1.1-.2c-.3-.1-.6-.3-.8-.5-.2-.2-.4-.5-.5-.8-.1-.3-.2-.7-.2-1.1s0-.7.2-1c.1-.3.3-.6.5-.8s.5-.4.8-.6.7-.2,1-.2.8,0,1.1.2c.3.2.6.4.8.7.2.3.3.6.4.9s.1.7,0,1.1h-3.6c0,.4.1.8.3,1ZM273,171.2c-.2-.2-.4-.3-.7-.3s-.4,0-.5.1c-.1,0-.3.2-.3.3,0,.1-.1.2-.2.3,0,.1,0,.2,0,.3h2.2c0-.3-.2-.6-.3-.8Z"/>
    <path d="M276.7,175l-1.7-5h1.4l1,3.4h0l1-3.4h1.4l-1.7,5h-1.5Z"/>
    <path d="M280.5,171.6c0-.3,0-.6.2-.8.1-.2.3-.4.5-.5.2-.1.5-.2.7-.3.3,0,.5,0,.8,0s.5,0,.8,0c.3,0,.5.1.7.2.2.1.4.2.5.4.1.2.2.4.2.7v2.6c0,.2,0,.4,0,.6,0,.2,0,.4.1.5h-1.4c0,0,0-.2,0-.2s0-.2,0-.2c-.2.2-.5.4-.8.5s-.6.1-.9.1-.5,0-.7,0-.4-.1-.5-.3c-.2-.1-.3-.3-.4-.5,0-.2-.1-.4-.1-.7s0-.5.1-.7c0-.2.2-.3.4-.4.2-.1.3-.2.5-.2s.4,0,.6-.1c.2,0,.4,0,.6,0s.4,0,.5,0c.2,0,.3,0,.4-.2,0,0,.1-.2.1-.3,0-.1,0-.3,0-.4,0,0-.1-.2-.2-.2,0,0-.2,0-.3,0-.1,0-.2,0-.3,0-.3,0-.5,0-.6.2-.2.1-.2.3-.3.6h-1.4ZM283.6,172.6c0,0-.1,0-.2.1,0,0-.2,0-.3,0,0,0-.2,0-.3,0-.1,0-.2,0-.3,0-.1,0-.2,0-.3,0,0,0-.2,0-.3.1,0,0-.1.1-.2.2,0,0,0,.2,0,.3s0,.2,0,.3c0,0,.1.1.2.2,0,0,.2,0,.3.1.1,0,.2,0,.3,0,.3,0,.5,0,.6-.1s.3-.2.3-.3c0-.1.1-.3.1-.4,0-.1,0-.2,0-.3v-.5Z"/>
    <path d="M288.8,170v.9h-1v2.5c0,.2,0,.4.1.5s.2.1.5.1.2,0,.2,0c0,0,.1,0,.2,0v1.1c-.1,0-.2,0-.4,0-.1,0-.3,0-.4,0-.2,0-.4,0-.6,0-.2,0-.4,0-.5-.2-.1,0-.3-.2-.3-.4,0-.2-.1-.4-.1-.6v-2.9h-.8v-.9h.8v-1.5h1.4v1.5h1Z"/>
    <path d="M289.5,169.3v-1.1h1.4v1.1h-1.4ZM290.8,170v5h-1.4v-5h1.4Z"/>
    <path d="M291.9,171.5c.1-.3.3-.6.5-.8.2-.2.5-.4.8-.5.3-.1.7-.2,1.1-.2s.7,0,1.1.2.6.3.8.5c.2.2.4.5.5.8.1.3.2.7.2,1.1s0,.8-.2,1.1c-.1.3-.3.6-.5.8-.2.2-.5.4-.8.5s-.7.2-1.1.2-.7,0-1.1-.2c-.3-.1-.6-.3-.8-.5-.2-.2-.4-.5-.5-.8-.1-.3-.2-.7-.2-1.1s0-.8.2-1.1ZM293.2,173.1c0,.2.1.4.2.5,0,.2.2.3.4.4s.3.1.6.1.4,0,.6-.1.3-.2.4-.4c0-.2.2-.3.2-.5,0-.2,0-.4,0-.6s0-.4,0-.6-.1-.4-.2-.5c0-.1-.2-.3-.4-.4-.2,0-.4-.1-.6-.1s-.4,0-.6.1c-.2,0-.3.2-.4.4,0,.1-.2.3-.2.5s0,.4,0,.6,0,.4,0,.6Z"/>
    <path d="M299.1,170v.7h0c.2-.3.4-.5.7-.6.3-.1.6-.2.8-.2s.7,0,.9.1c.2,0,.4.2.6.4.1.2.2.4.3.6,0,.3,0,.5,0,.8v3.1h-1.4v-2.8c0-.4,0-.7-.2-.9-.1-.2-.4-.3-.7-.3s-.6.1-.8.3c-.2.2-.2.6-.2,1.1v2.6h-1.4v-5h1.3Z"/>
    <path d="M305.6,171c.2,0,.3,0,.5-.1.1,0,.3-.1.4-.3,0-.1.1-.3.1-.5,0-.3,0-.5-.3-.7-.2-.2-.4-.2-.7-.2s-.6.1-.8.3c-.2.2-.3.5-.3.9h-1.3c0-.3,0-.7.2-.9.1-.3.3-.5.5-.7.2-.2.4-.4.7-.5s.6-.2.9-.2.5,0,.8.1c.3,0,.5.2.7.4s.4.4.5.6c.1.2.2.5.2.8s0,.6-.2.9-.4.4-.7.5h0c.4.1.7.3.9.6s.3.6.3,1,0,.7-.2.9c-.1.3-.3.5-.6.7s-.5.3-.8.4c-.3,0-.6.1-.9.1s-.7,0-1-.2c-.3-.1-.6-.3-.8-.5-.2-.2-.4-.5-.5-.8s-.2-.6-.2-1h1.3c0,.2,0,.4,0,.5,0,.2.1.3.2.4,0,.1.2.2.4.3.1,0,.3.1.5.1.3,0,.6,0,.8-.3.2-.2.3-.4.3-.8s0-.5-.1-.6c0-.1-.2-.2-.4-.3-.2,0-.3,0-.5-.1-.2,0-.4,0-.5,0v-1c.1,0,.3,0,.5,0Z"/>
    <path d="M310.4,173.5v1.5h-1.5v-1.5h1.5Z"/>
    <path d="M313.9,170.9c-.2,0-.4,0-.5.1-.1,0-.3.2-.4.4,0,.2-.2.3-.2.5,0,.2,0,.4,0,.6s0,.4,0,.5.1.4.2.5.2.3.4.4c.1,0,.3.1.5.1.3,0,.6,0,.8-.3.2-.2.3-.4.3-.7h1.3c0,.7-.3,1.2-.8,1.5-.4.3-1,.5-1.6.5s-.7,0-1-.2-.6-.3-.8-.5c-.2-.2-.4-.5-.5-.8-.1-.3-.2-.7-.2-1s0-.7.2-1.1c.1-.3.3-.6.5-.9.2-.2.5-.4.8-.6.3-.1.7-.2,1.1-.2s.6,0,.9.1c.3,0,.5.2.7.4s.4.4.5.6c.1.2.2.5.2.8h-1.3c0-.6-.4-.9-1-.9Z"/>
    <path d="M318.2,173.8c0,.1.1.2.2.3s.2.1.3.1.3,0,.4,0,.2,0,.3,0c.1,0,.2,0,.3-.1,0,0,.2-.1.2-.2,0,0,0-.2,0-.3,0-.2-.1-.4-.4-.5-.3-.1-.7-.2-1.1-.3-.2,0-.4,0-.6-.2-.2,0-.4-.1-.5-.2-.1,0-.3-.2-.4-.4,0-.2-.1-.3-.1-.6,0-.3,0-.6.2-.8s.3-.4.5-.5c.2-.1.4-.2.7-.2.3,0,.5,0,.8,0s.5,0,.8,0c.3,0,.5.1.7.3.2.1.4.3.5.5.1.2.2.5.2.8h-1.3c0-.3-.1-.4-.3-.5-.2,0-.4-.1-.6-.1s-.2,0-.2,0c0,0-.2,0-.2,0,0,0-.1,0-.2.1,0,0,0,.1,0,.2s0,.2.1.3c0,0,.2.1.4.2.1,0,.3,0,.5.1.2,0,.4,0,.6.1.2,0,.4,0,.6.2.2,0,.4.1.5.3.1.1.3.2.4.4s.1.4.1.6c0,.3,0,.6-.2.8-.1.2-.3.4-.5.5-.2.1-.5.2-.7.3-.3,0-.5,0-.8,0s-.6,0-.8,0c-.3,0-.5-.2-.7-.3s-.4-.3-.5-.5c-.1-.2-.2-.5-.2-.8h1.3c0,.1,0,.3,0,.4Z"/>
    <path d="M323.4,175l-1.7-5h1.4l1,3.4h0l1-3.4h1.4l-1.7,5h-1.5Z"/>
  </g>
  <rect class="st0" x="185.9" y="2.6" width="220.5" height="178.6"/>
</svg>