<?xml version="1.0" encoding="UTF-8"?>
<svg id="Layer_1" xmlns="http://www.w3.org/2000/svg" version="1.1" viewBox="0 0 618.7 247">
  <!-- Generator: Adobe Illustrator 29.2.1, SVG Export Plug-In . SVG Version: 2.1.0 Build 116)  -->
  <defs>
    <style>
      .st0, .st1 {
        fill: #057aa8;
      }

      .st2 {
        stroke-width: 2.2px;
      }

      .st2, .st3, .st4, .st5, .st6, .st7, .st8, .st9, .st10, .st11, .st12 {
        fill: none;
      }

      .st2, .st3, .st5, .st6, .st7, .st8, .st9, .st10, .st11, .st12 {
        stroke: #000;
      }

      .st3 {
        stroke-width: 2px;
      }

      .st4 {
        stroke: #7ec01b;
        stroke-width: .9px;
      }

      .st13, .st14 {
        fill: #7ec01b;
      }

      .st5, .st11 {
        stroke-width: .3px;
      }

      .st6 {
        stroke-width: .6px;
      }

      .st7, .st8 {
        stroke-width: .5px;
      }

      .st8, .st9 {
        stroke-dasharray: 4 2;
      }

      .st9 {
        stroke-width: .3px;
      }

      .st1, .st14 {
        opacity: 0;
      }

      .st10 {
        stroke-dasharray: 2.5 1.3;
        stroke-width: .3px;
      }

      .st11 {
        stroke-dasharray: 5.1 2.5;
      }

      .st15 {
        fill: #999;
      }
    </style>
  </defs>
  <rect class="st12" x="190.7" y="31.9" width="226.1" height="105.5"/>
  <line class="st7" x1="191" y1="84.8" x2="416.8" y2="84.8"/>
  <line class="st8" x1="305.1" y1="32.2" x2="305.1" y2="137.7"/>
  <path d="M172.1,55.2l2.6,4.2h0v-4.2h1.3v6.3h-1.4l-2.6-4.2h0v4.2h-1.3v-6.3h1.4Z"/>
  <path d="M172.2,112.7c0,.1.2.3.3.4.1,0,.3.2.4.2s.3,0,.5,0,.3,0,.4,0c.1,0,.3,0,.4-.1.1,0,.2-.1.3-.2,0-.1.1-.2.1-.4s0-.3-.2-.4c-.1-.1-.3-.2-.4-.3s-.4-.1-.6-.2-.4-.1-.7-.2c-.2,0-.5-.1-.7-.2s-.4-.2-.6-.3-.3-.3-.4-.5-.2-.4-.2-.7,0-.6.2-.8.3-.4.5-.6c.2-.2.5-.3.8-.4s.6-.1.8-.1.6,0,.9.1.6.2.8.4.4.4.6.6.2.6.2.9h-1.3c0-.2,0-.3-.1-.5,0-.1-.2-.2-.3-.3s-.2-.1-.4-.1-.3,0-.5,0-.2,0-.3,0-.2,0-.3.1-.2.1-.2.2,0,.2,0,.3,0,.2,0,.3c0,0,.1.1.3.2.1,0,.3.1.6.2s.6.1,1,.2c.1,0,.3,0,.5.1.2,0,.4.2.6.3s.4.3.5.5.2.5.2.9,0,.6-.2.8-.3.5-.5.6-.5.3-.8.4-.7.1-1.1.1-.7,0-1-.1-.6-.2-.9-.4c-.2-.2-.4-.4-.6-.7s-.2-.6-.2-1h1.3c0,.2,0,.4.1.5Z"/>
  <path d="M252,17.2v1.2h-3.3v1.3h3v1.1h-3v1.5h3.4v1.2h-4.8v-6.3h4.7Z"/>
  <path d="M363.2,23.4l-1.1-4.3h0l-1,4.3h-1.4l-1.7-6.3h1.4l1,4.3h0l1.1-4.3h1.3l1.1,4.3h0l1-4.3h1.4l-1.7,6.3h-1.4Z"/>
  <g>
    <path class="st0" d="M177.5,37.4c.2.1.4.2.6.2.4,0,.6-.2.8-.5.2-.3.3-.8.3-1.5h0c-.1.2-.3.4-.5.5-.2.1-.4.2-.7.2s-.5,0-.7-.1c-.2,0-.4-.2-.5-.3-.1-.1-.2-.3-.3-.5,0-.2-.1-.4-.1-.7s0-.5.1-.7.2-.4.3-.5c.1-.1.3-.3.5-.3.2,0,.4-.1.7-.1s.5,0,.7.1c.2,0,.4.2.5.4.2.2.3.4.4.7,0,.3.1.7.1,1.2,0,.9-.1,1.5-.4,2-.3.5-.7.7-1.3.7s-.8-.1-1-.3c-.3-.2-.4-.5-.5-1h.6c0,.2.1.4.3.6ZM179,34.3c0-.1-.1-.3-.2-.4,0-.1-.2-.2-.3-.2-.1,0-.3,0-.4,0s-.3,0-.5,0c-.1,0-.2.2-.3.3,0,.1-.1.2-.2.4s0,.3,0,.4,0,.3,0,.4c0,.1.1.2.2.3,0,0,.2.2.3.2.1,0,.3,0,.4,0s.3,0,.4,0c.1,0,.2-.1.3-.2s.2-.2.2-.4c0-.1,0-.3,0-.4s0-.3,0-.4Z"/>
    <path class="st0" d="M180.4,35.1c0-.2,0-.4,0-.6,0-.2,0-.4.2-.5,0-.2.2-.3.3-.4.1-.1.3-.2.5-.3.2,0,.4-.1.7-.1s.5,0,.7.1c.2,0,.3.2.5.3.1.1.2.3.3.4,0,.2.1.3.2.5,0,.2,0,.4,0,.6,0,.2,0,.4,0,.6s0,.4,0,.6c0,.2,0,.4,0,.6,0,.2,0,.4-.2.5,0,.2-.2.3-.3.4s-.3.2-.5.3c-.2,0-.4.1-.7.1s-.5,0-.7-.1c-.2,0-.3-.2-.5-.3-.1-.1-.2-.3-.3-.4,0-.2-.1-.3-.2-.5,0-.2,0-.4,0-.6,0-.2,0-.4,0-.6s0-.4,0-.6ZM181.1,36.3c0,.2,0,.4.1.7,0,.2.2.4.3.5s.3.2.6.2.4,0,.6-.2.2-.3.3-.5c0-.2.1-.4.1-.7,0-.2,0-.4,0-.6s0-.3,0-.4c0-.1,0-.3,0-.4,0-.1,0-.3,0-.4,0-.1,0-.3-.2-.4,0-.1-.2-.2-.3-.3-.1,0-.3,0-.4,0s-.3,0-.4,0c-.1,0-.2.2-.3.3,0,.1-.1.2-.2.4,0,.1,0,.3,0,.4,0,.1,0,.3,0,.4,0,.1,0,.3,0,.4,0,.2,0,.4,0,.6Z"/>
    <path class="st0" d="M184.5,33.7c0-.1.1-.2.2-.3s.2-.2.3-.2c.1,0,.3,0,.4,0s.3,0,.4,0c.1,0,.2.1.3.2s.2.2.2.3c0,.1,0,.3,0,.4s0,.3,0,.4-.1.2-.2.3-.2.2-.3.2c-.1,0-.3,0-.4,0s-.3,0-.4,0c-.1,0-.2-.1-.3-.2s-.2-.2-.2-.3c0-.1,0-.3,0-.4s0-.3,0-.4ZM184.8,34.4c0,0,0,.1.1.2s.1.1.2.2c0,0,.2,0,.3,0s.2,0,.3,0c0,0,.2,0,.2-.2s0-.1.1-.2c0,0,0-.2,0-.2s0-.2,0-.2c0,0,0-.1-.1-.2,0,0-.1-.1-.2-.2s-.2,0-.3,0-.2,0-.3,0-.2,0-.2.2c0,0,0,.1-.1.2,0,0,0,.2,0,.2s0,.2,0,.2Z"/>
  </g>
  <g>
    <path class="st0" d="M180.4,84.9c0-.2,0-.4,0-.6,0-.2,0-.4.2-.5,0-.2.2-.3.3-.4.1-.1.3-.2.5-.3.2,0,.4-.1.7-.1s.5,0,.7.1c.2,0,.3.2.5.3.1.1.2.3.3.4,0,.2.1.3.2.5,0,.2,0,.4,0,.6,0,.2,0,.4,0,.6s0,.4,0,.6c0,.2,0,.4,0,.6,0,.2,0,.4-.2.5,0,.2-.2.3-.3.4s-.3.2-.5.3c-.2,0-.4.1-.7.1s-.5,0-.7-.1c-.2,0-.3-.2-.5-.3-.1-.1-.2-.3-.3-.4,0-.2-.1-.3-.2-.5,0-.2,0-.4,0-.6,0-.2,0-.4,0-.6s0-.4,0-.6ZM181.1,86.1c0,.2,0,.4.1.7,0,.2.2.4.3.5s.3.2.6.2.4,0,.6-.2.2-.3.3-.5c0-.2.1-.4.1-.7,0-.2,0-.4,0-.6s0-.3,0-.4c0-.1,0-.3,0-.4,0-.1,0-.3,0-.4,0-.1,0-.3-.2-.4,0-.1-.2-.2-.3-.3-.1,0-.3,0-.4,0s-.3,0-.4,0c-.1,0-.2.2-.3.3,0,.1-.1.2-.2.4,0,.1,0,.3,0,.4,0,.1,0,.3,0,.4,0,.1,0,.3,0,.4,0,.2,0,.4,0,.6Z"/>
    <path class="st0" d="M184.5,83.5c0-.1.1-.2.2-.3s.2-.2.3-.2c.1,0,.3,0,.4,0s.3,0,.4,0c.1,0,.2.1.3.2s.2.2.2.3c0,.1,0,.3,0,.4s0,.3,0,.4-.1.2-.2.3-.2.2-.3.2c-.1,0-.3,0-.4,0s-.3,0-.4,0c-.1,0-.2-.1-.3-.2s-.2-.2-.2-.3c0-.1,0-.3,0-.4s0-.3,0-.4ZM184.8,84.1c0,0,0,.1.1.2s.1.1.2.2c0,0,.2,0,.3,0s.2,0,.3,0c0,0,.2,0,.2-.2s0-.1.1-.2c0,0,0-.2,0-.2s0-.2,0-.2c0,0,0-.1-.1-.2,0,0-.1-.1-.2-.2s-.2,0-.3,0-.2,0-.3,0-.2,0-.2.2c0,0,0,.1-.1.2,0,0,0,.2,0,.2s0,.2,0,.2Z"/>
  </g>
  <g>
    <path class="st0" d="M175.9,135.4v.6h-2v-.6h2Z"/>
    <path class="st0" d="M177.5,137c.2.1.4.2.6.2.4,0,.6-.2.8-.5.2-.3.3-.8.3-1.5h0c-.1.2-.3.4-.5.5-.2.1-.4.2-.7.2s-.5,0-.7-.1c-.2,0-.4-.2-.5-.3-.1-.1-.2-.3-.3-.5,0-.2-.1-.4-.1-.7s0-.5.1-.7.2-.4.3-.5c.1-.1.3-.3.5-.3.2,0,.4-.1.7-.1s.5,0,.7.1c.2,0,.4.2.5.4.2.2.3.4.4.7,0,.3.1.7.1,1.2,0,.9-.1,1.5-.4,2-.3.5-.7.7-1.3.7s-.8-.1-1-.3c-.3-.2-.4-.5-.5-1h.6c0,.2.1.4.3.6ZM179,133.9c0-.1-.1-.3-.2-.4,0-.1-.2-.2-.3-.2-.1,0-.3,0-.4,0s-.3,0-.5,0c-.1,0-.2.2-.3.3,0,.1-.1.2-.2.4s0,.3,0,.4,0,.3,0,.4c0,.1.1.2.2.3,0,0,.2.2.3.2.1,0,.3,0,.4,0s.3,0,.4,0c.1,0,.2-.1.3-.2s.2-.2.2-.4c0-.1,0-.3,0-.4s0-.3,0-.4Z"/>
    <path class="st0" d="M180.4,134.7c0-.2,0-.4,0-.6,0-.2,0-.4.2-.5,0-.2.2-.3.3-.4.1-.1.3-.2.5-.3.2,0,.4-.1.7-.1s.5,0,.7.1c.2,0,.3.2.5.3.1.1.2.3.3.4,0,.2.1.3.2.5,0,.2,0,.4,0,.6,0,.2,0,.4,0,.6s0,.4,0,.6c0,.2,0,.4,0,.6,0,.2,0,.4-.2.5,0,.2-.2.3-.3.4s-.3.2-.5.3c-.2,0-.4.1-.7.1s-.5,0-.7-.1c-.2,0-.3-.2-.5-.3-.1-.1-.2-.3-.3-.4,0-.2-.1-.3-.2-.5,0-.2,0-.4,0-.6,0-.2,0-.4,0-.6s0-.4,0-.6ZM181.1,135.8c0,.2,0,.4.1.7,0,.2.2.4.3.5s.3.2.6.2.4,0,.6-.2.2-.3.3-.5c0-.2.1-.4.1-.7,0-.2,0-.4,0-.6s0-.3,0-.4c0-.1,0-.3,0-.4,0-.1,0-.3,0-.4,0-.1,0-.3-.2-.4,0-.1-.2-.2-.3-.3-.1,0-.3,0-.4,0s-.3,0-.4,0c-.1,0-.2.2-.3.3,0,.1-.1.2-.2.4,0,.1,0,.3,0,.4,0,.1,0,.3,0,.4,0,.1,0,.3,0,.4,0,.2,0,.4,0,.6Z"/>
    <path class="st0" d="M184.5,133.3c0-.1.1-.2.2-.3s.2-.2.3-.2c.1,0,.3,0,.4,0s.3,0,.4,0c.1,0,.2.1.3.2s.2.2.2.3c0,.1,0,.3,0,.4s0,.3,0,.4-.1.2-.2.3-.2.2-.3.2c-.1,0-.3,0-.4,0s-.3,0-.4,0c-.1,0-.2-.1-.3-.2s-.2-.2-.2-.3c0-.1,0-.3,0-.4s0-.3,0-.4ZM184.8,133.9c0,0,0,.1.1.2s.1.1.2.2c0,0,.2,0,.3,0s.2,0,.3,0c0,0,.2,0,.2-.2s0-.1.1-.2c0,0,0-.2,0-.2s0-.2,0-.2c0,0,0-.1-.1-.2,0,0-.1-.1-.2-.2s-.2,0-.3,0-.2,0-.3,0-.2,0-.2.2c0,0,0,.1-.1.2,0,0,0,.2,0,.2s0,.2,0,.2Z"/>
  </g>
  <g>
    <path class="st13" d="M188.8,25.1c0-.2,0-.4,0-.6,0-.2,0-.4.2-.5,0-.2.2-.3.3-.4.1-.1.3-.2.5-.3.2,0,.4-.1.7-.1s.5,0,.7.1c.2,0,.3.2.5.3.1.1.2.3.3.4,0,.2.1.3.2.5,0,.2,0,.4,0,.6,0,.2,0,.4,0,.6s0,.4,0,.6c0,.2,0,.4,0,.6,0,.2,0,.4-.2.5,0,.2-.2.3-.3.4s-.3.2-.5.3c-.2,0-.4.1-.7.1s-.5,0-.7-.1c-.2,0-.3-.2-.5-.3-.1-.1-.2-.3-.3-.4,0-.2-.1-.3-.2-.5,0-.2,0-.4,0-.6,0-.2,0-.4,0-.6s0-.4,0-.6ZM189.5,26.3c0,.2,0,.4.1.7,0,.2.2.4.3.5s.3.2.6.2.4,0,.6-.2.2-.3.3-.5c0-.2.1-.4.1-.7,0-.2,0-.4,0-.6s0-.3,0-.4c0-.1,0-.3,0-.4,0-.1,0-.3,0-.4,0-.1,0-.3-.2-.4,0-.1-.2-.2-.3-.3-.1,0-.3,0-.4,0s-.3,0-.4,0c-.1,0-.2.2-.3.3,0,.1-.1.2-.2.4,0,.1,0,.3,0,.4,0,.1,0,.3,0,.4,0,.1,0,.3,0,.4,0,.2,0,.4,0,.6Z"/>
    <path class="st13" d="M192.9,23.8c0-.1.1-.2.2-.3s.2-.2.3-.2c.1,0,.3,0,.4,0s.3,0,.4,0c.1,0,.2.1.3.2s.2.2.2.3c0,.1,0,.3,0,.4s0,.3,0,.4-.1.2-.2.3-.2.2-.3.2c-.1,0-.3,0-.4,0s-.3,0-.4,0c-.1,0-.2-.1-.3-.2s-.2-.2-.2-.3c0-.1,0-.3,0-.4s0-.3,0-.4ZM193.2,24.4c0,0,0,.1.1.2s.1.1.2.2c0,0,.2,0,.3,0s.2,0,.3,0c0,0,.2,0,.2-.2s0-.1.1-.2c0,0,0-.2,0-.2s0-.2,0-.2c0,0,0-.1-.1-.2,0,0-.1-.1-.2-.2s-.2,0-.3,0-.2,0-.3,0-.2,0-.2.2c0,0,0,.1-.1.2,0,0,0,.2,0,.2s0,.2,0,.2Z"/>
  </g>
  <g>
    <path class="st13" d="M299.5,28.1v-3.6h-1.3v-.5c.2,0,.3,0,.5,0s.3,0,.4-.1.2-.2.3-.3c0-.1.2-.3.2-.5h.5v5h-.6Z"/>
    <path class="st13" d="M302.1,23.9c0-.2.2-.3.3-.4.1-.1.3-.2.5-.2s.4,0,.6,0,.5,0,.7.1c.2,0,.3.2.5.3.1.1.2.3.3.4,0,.2,0,.3,0,.5s0,.4-.2.6c-.1.2-.3.3-.5.4.3,0,.5.2.7.5.1.2.2.5.2.8s0,.5-.1.6c0,.2-.2.3-.4.5s-.3.2-.5.3c-.2,0-.4,0-.6,0s-.5,0-.7,0c-.2,0-.4-.2-.5-.3-.2-.1-.3-.3-.4-.5,0-.2-.1-.4-.1-.7s0-.6.2-.8c.1-.2.4-.4.6-.5-.2,0-.4-.2-.5-.4-.1-.2-.2-.4-.2-.6s0-.4.1-.5ZM302.7,27.4c.2.2.5.3.8.3s.3,0,.4,0,.2-.1.3-.2c0,0,.2-.2.2-.3,0-.1,0-.2,0-.4s0-.3,0-.4-.1-.2-.2-.3-.2-.2-.3-.2c-.1,0-.3,0-.4,0s-.3,0-.4,0c-.1,0-.2.1-.3.2,0,0-.2.2-.2.3s0,.2,0,.4c0,.3,0,.5.3.7ZM302.6,24.8c0,.1.1.2.2.2,0,0,.2.1.3.1.1,0,.2,0,.3,0,.2,0,.4,0,.6-.2.2-.1.2-.3.2-.6s0-.4-.2-.6-.4-.2-.6-.2-.2,0-.3,0c-.1,0-.2,0-.3.1,0,0-.1.1-.2.2s0,.2,0,.3,0,.3,0,.4Z"/>
    <path class="st13" d="M305.7,25.1c0-.2,0-.4,0-.6,0-.2,0-.4.2-.5,0-.2.2-.3.3-.4.1-.1.3-.2.5-.3.2,0,.4-.1.7-.1s.5,0,.7.1c.2,0,.3.2.5.3.1.1.2.3.3.4,0,.2.1.3.2.5,0,.2,0,.4,0,.6,0,.2,0,.4,0,.6s0,.4,0,.6c0,.2,0,.4,0,.6,0,.2,0,.4-.2.5,0,.2-.2.3-.3.4s-.3.2-.5.3c-.2,0-.4.1-.7.1s-.5,0-.7-.1c-.2,0-.3-.2-.5-.3s-.2-.3-.3-.4c0-.2-.1-.3-.2-.5,0-.2,0-.4,0-.6,0-.2,0-.4,0-.6s0-.4,0-.6ZM306.3,26.3c0,.2,0,.4.1.7,0,.2.2.4.3.5s.3.2.6.2.5,0,.6-.2.2-.3.3-.5c0-.2.1-.4.1-.7s0-.4,0-.6,0-.3,0-.4c0-.1,0-.3,0-.4,0-.1,0-.3,0-.4s0-.3-.2-.4-.2-.2-.3-.3c-.1,0-.3,0-.4,0s-.3,0-.4,0c-.1,0-.2.2-.3.3s-.1.2-.2.4,0,.3,0,.4c0,.1,0,.3,0,.4,0,.1,0,.3,0,.4,0,.2,0,.4,0,.6Z"/>
    <path class="st13" d="M309.8,23.8c0-.1.1-.2.2-.3,0,0,.2-.2.3-.2.1,0,.3,0,.4,0s.3,0,.4,0c.1,0,.2.1.3.2,0,0,.2.2.2.3,0,.1,0,.3,0,.4s0,.3,0,.4-.1.2-.2.3c0,0-.2.2-.3.2-.1,0-.3,0-.4,0s-.3,0-.4,0c-.1,0-.2-.1-.3-.2,0,0-.2-.2-.2-.3,0-.1,0-.3,0-.4s0-.3,0-.4ZM310.1,24.4c0,0,0,.1.1.2,0,0,.1.1.2.2,0,0,.2,0,.3,0s.2,0,.3,0c0,0,.2,0,.2-.2,0,0,0-.1.1-.2s0-.2,0-.2,0-.2,0-.2c0,0,0-.1-.1-.2,0,0-.1-.1-.2-.2s-.2,0-.3,0-.2,0-.3,0-.2,0-.2.2c0,0,0,.1-.1.2,0,0,0,.2,0,.2s0,.2,0,.2Z"/>
  </g>
  <g>
    <path class="st13" d="M414.1,25.1c0-.2,0-.4,0-.6,0-.2,0-.4.2-.5,0-.2.2-.3.3-.4.1-.1.3-.2.5-.3.2,0,.4-.1.7-.1s.5,0,.7.1c.2,0,.3.2.5.3.1.1.2.3.3.4,0,.2.1.3.2.5s0,.4,0,.6c0,.2,0,.4,0,.6s0,.4,0,.6,0,.4,0,.6c0,.2,0,.4-.2.5,0,.2-.2.3-.3.4s-.3.2-.5.3c-.2,0-.4.1-.7.1s-.5,0-.7-.1c-.2,0-.3-.2-.5-.3-.1-.1-.2-.3-.3-.4,0-.2-.1-.3-.2-.5,0-.2,0-.4,0-.6,0-.2,0-.4,0-.6s0-.4,0-.6ZM414.8,26.3c0,.2,0,.4.1.7,0,.2.2.4.3.5s.3.2.6.2.4,0,.6-.2.2-.3.3-.5c0-.2.1-.4.1-.7s0-.4,0-.6,0-.3,0-.4c0-.1,0-.3,0-.4,0-.1,0-.3,0-.4s0-.3-.2-.4-.2-.2-.3-.3c-.1,0-.3,0-.4,0s-.3,0-.4,0c-.1,0-.2.2-.3.3,0,.1-.1.2-.2.4,0,.1,0,.3,0,.4,0,.1,0,.3,0,.4,0,.1,0,.3,0,.4,0,.2,0,.4,0,.6Z"/>
    <path class="st13" d="M418.2,23.8c0-.1.1-.2.2-.3,0,0,.2-.2.3-.2.1,0,.3,0,.4,0s.3,0,.4,0c.1,0,.2.1.3.2s.2.2.2.3c0,.1,0,.3,0,.4s0,.3,0,.4-.1.2-.2.3-.2.2-.3.2c-.1,0-.3,0-.4,0s-.3,0-.4,0c-.1,0-.2-.1-.3-.2,0,0-.2-.2-.2-.3s0-.3,0-.4,0-.3,0-.4ZM418.5,24.4c0,0,0,.1.1.2,0,0,.1.1.2.2,0,0,.2,0,.3,0s.2,0,.3,0c0,0,.2,0,.2-.2s0-.1.1-.2c0,0,0-.2,0-.2s0-.2,0-.2c0,0,0-.1-.1-.2,0,0-.1-.1-.2-.2s-.2,0-.3,0-.2,0-.3,0-.2,0-.2.2c0,0,0,.1-.1.2,0,0,0,.2,0,.2s0,.2,0,.2Z"/>
    <path class="st13" d="M423.5,28.7c-.1-.3-.3-.5-.3-.8,0-.3-.2-.5-.2-.8,0-.3,0-.6,0-.9,0-.6,0-1.1.3-1.7.2-.6.5-1.1.8-1.6h.5c-.3.5-.6,1.1-.7,1.6s-.2,1.1-.2,1.7,0,1.2.2,1.7c.1.5.4,1.1.7,1.6h-.5c-.2-.3-.3-.5-.5-.8Z"/>
    <path class="st13" d="M425.9,25.3h.2c.1,0,.2,0,.4,0s.2,0,.3-.2c0,0,.2-.2.2-.3,0-.1,0-.2,0-.4,0-.3,0-.5-.3-.6-.2-.1-.4-.2-.6-.2s-.3,0-.4,0-.2.1-.3.2c0,0-.1.2-.2.3s0,.3,0,.4h-.6c0-.2,0-.5.1-.7s.2-.4.3-.5c.1-.1.3-.3.5-.3s.4-.1.7-.1.4,0,.6,0c.2,0,.3.1.5.2.1.1.2.2.3.4,0,.2.1.4.1.6s0,.4-.2.6c-.1.2-.3.3-.5.4h0c.3,0,.5.2.7.4.1.2.2.5.2.8s0,.5-.1.7c0,.2-.2.3-.4.5-.2.1-.3.2-.5.3-.2,0-.4,0-.7,0s-.5,0-.7-.1-.4-.2-.5-.3-.3-.3-.3-.5-.1-.4-.1-.7h.6c0,.3.1.6.3.8.2.2.4.3.8.3s.3,0,.4,0c.1,0,.2-.1.3-.2,0,0,.2-.2.2-.3,0-.1,0-.3,0-.4s0-.3,0-.4c0-.1-.1-.2-.2-.3s-.2-.1-.3-.2c-.1,0-.3,0-.4,0s-.2,0-.4,0v-.5s0,0,0,0Z"/>
    <path class="st13" d="M430.9,23.9c-.1-.1-.3-.2-.6-.2s-.5,0-.6.2c-.2.1-.3.3-.4.5,0,.2-.1.4-.2.6s0,.4,0,.6h0c.1-.2.3-.4.5-.5.2-.1.4-.2.7-.2s.5,0,.6.1c.2,0,.3.2.5.3.1.1.2.3.3.5s.1.4.1.6,0,.4,0,.6-.1.4-.3.5-.3.3-.5.4-.5.2-.8.2-.7,0-.9-.2-.4-.3-.5-.6-.2-.5-.2-.8c0-.3,0-.6,0-.8s0-.7,0-1,.2-.6.3-.9c.1-.2.3-.4.6-.6s.5-.2.9-.2.7.1,1,.3c.2.2.4.5.4.9h-.6c0-.2-.1-.4-.3-.5ZM429.8,25.5c-.1,0-.2.1-.3.2,0,.1-.2.2-.2.4,0,.1,0,.3,0,.4s0,.3,0,.4.1.3.2.4c0,0,.2.2.3.2s.3,0,.4,0,.3,0,.4,0c.1,0,.2-.1.3-.2,0-.1.1-.2.2-.4,0-.1,0-.3,0-.4s0-.3,0-.4-.1-.3-.2-.4c0-.1-.2-.2-.3-.2-.1,0-.3,0-.4,0s-.3,0-.4,0Z"/>
    <path class="st13" d="M432.5,25.1c0-.2,0-.4,0-.6,0-.2,0-.4.2-.5,0-.2.2-.3.3-.4.1-.1.3-.2.5-.3.2,0,.4-.1.7-.1s.5,0,.7.1c.2,0,.3.2.5.3.1.1.2.3.3.4,0,.2.1.3.2.5s0,.4,0,.6c0,.2,0,.4,0,.6s0,.4,0,.6,0,.4,0,.6c0,.2,0,.4-.2.5,0,.2-.2.3-.3.4-.1.1-.3.2-.5.3-.2,0-.4.1-.7.1s-.5,0-.7-.1c-.2,0-.3-.2-.5-.3-.1-.1-.2-.3-.3-.4,0-.2-.1-.3-.2-.5,0-.2,0-.4,0-.6,0-.2,0-.4,0-.6s0-.4,0-.6ZM433.1,26.3c0,.2,0,.4.1.7,0,.2.2.4.3.5s.3.2.6.2.4,0,.6-.2.2-.3.3-.5c0-.2.1-.4.1-.7,0-.2,0-.4,0-.6s0-.3,0-.4c0-.1,0-.3,0-.4,0-.1,0-.3,0-.4,0-.1,0-.3-.2-.4,0-.1-.2-.2-.3-.3-.1,0-.3,0-.4,0s-.3,0-.4,0c-.1,0-.2.2-.3.3,0,.1-.1.2-.2.4,0,.1,0,.3,0,.4,0,.1,0,.3,0,.4,0,.1,0,.3,0,.4,0,.2,0,.4,0,.6Z"/>
    <path class="st13" d="M436.5,23.8c0-.1.1-.2.2-.3s.2-.2.3-.2c.1,0,.3,0,.4,0s.3,0,.4,0c.1,0,.2.1.3.2,0,0,.2.2.2.3,0,.1,0,.3,0,.4s0,.3,0,.4c0,.1-.1.2-.2.3,0,0-.2.2-.3.2-.1,0-.3,0-.4,0s-.3,0-.4,0c-.1,0-.2-.1-.3-.2s-.2-.2-.2-.3c0-.1,0-.3,0-.4s0-.3,0-.4ZM436.9,24.4c0,0,0,.1.1.2s.1.1.2.2c0,0,.2,0,.3,0s.2,0,.3,0c0,0,.2,0,.2-.2,0,0,0-.1.1-.2,0,0,0-.2,0-.2s0-.2,0-.2c0,0,0-.1-.1-.2,0,0-.1-.1-.2-.2s-.2,0-.3,0-.2,0-.3,0-.2,0-.2.2c0,0,0,.1-.1.2,0,0,0,.2,0,.2s0,.2,0,.2Z"/>
    <path class="st13" d="M439.5,27.9c.1-.5.2-1.1.2-1.6s0-1.2-.2-1.7c-.1-.5-.4-1.1-.7-1.6h.4c.2.3.3.5.5.8.1.3.3.5.3.8,0,.3.2.5.2.8,0,.3,0,.6,0,.9,0,.6,0,1.1-.3,1.7s-.5,1.1-.8,1.6h-.4c.3-.5.6-1.1.7-1.6Z"/>
  </g>
  <path d="M284,8.3c.5.3.7.5,1,.7.2-.5.3-.8.4-1.4h-1.2c-.3.8-.7,1.3-1.3,2-.2-.4-.3-.6-.5-.8.8-.7,1.2-1.6,1.4-2.8h-.4c-.3,0-.5,0-.8,0v-.9c.2,0,.5,0,.9,0h2.2c.4,0,.6,0,.9,0v.9c-.3,0-.5,0-.9,0h-1.1c0,.4-.1.5-.2.9h1.2c.3,0,.5,0,.7,0q0,0,0,.3c-.1,1-.4,2-.7,2.7-.3.6-.7,1.2-1.1,1.6-.4.4-.7.6-1.3,1-.2-.4-.3-.5-.6-.7.6-.4,1-.6,1.4-1.1.2-.2.4-.5.6-.8-.3-.4-.6-.6-1-.8l.4-.7ZM287.8,5.5c0,.2,0,.5,0,1v3c0,.5,0,.7,0,1h-.9c0-.2,0-.4,0-1v-3c0-.5,0-.7,0-1h1ZM289.6,4.9c0,.3,0,.6,0,1.1v5.3c0,.8-.2,1-1.4,1s-.1,0-.5,0q-.1,0-.3,0c0-.4,0-.7-.2-.9.3,0,.6,0,1,0s.5,0,.5-.2v-5.1c0-.4,0-.8,0-1.1h1Z"/>
  <g>
    <path d="M293.5,12.3c-.1-.3-.2-.5-.3-.8,0-.3-.2-.5-.2-.8,0-.3,0-.6,0-.9,0-.5,0-1.1.3-1.6.2-.5.4-1.1.8-1.5h.4c-.3.5-.6,1-.7,1.5s-.2,1-.2,1.6,0,1.1.2,1.6c.1.5.4,1,.7,1.6h-.4c-.2-.3-.3-.5-.4-.8Z"/>
    <path d="M295.3,6.8v4.9h-.6v-4.9h.6Z"/>
    <path d="M296.2,9.2c0-.2.2-.4.3-.6.1-.2.3-.3.5-.4.2,0,.5-.1.7-.1s.5,0,.7.1.4.2.5.4c.1.2.3.4.3.6,0,.2.1.5.1.7s0,.5-.1.7c0,.2-.2.4-.3.6-.1.2-.3.3-.5.4s-.5.1-.7.1-.5,0-.7-.1c-.2,0-.4-.2-.5-.4-.1-.2-.3-.4-.3-.6,0-.2-.1-.5-.1-.7s0-.5.1-.7ZM296.7,10.5c0,.2.1.3.2.4.1.1.2.2.4.3.1,0,.3,0,.4,0s.3,0,.4,0c.1,0,.3-.1.4-.3.1-.1.2-.3.2-.4,0-.2,0-.4,0-.6s0-.4,0-.6-.1-.3-.2-.4-.2-.2-.4-.3-.3,0-.4,0-.3,0-.4,0c-.1,0-.3.1-.4.3-.1.1-.2.3-.2.4,0,.2,0,.4,0,.6s0,.4,0,.6Z"/>
    <path d="M300.7,8.2v.6h0c.2-.4.6-.6,1.1-.6s.4,0,.6,0c.2,0,.3.2.4.3s.2.2.2.4c0,.2,0,.3,0,.5v2.3h-.6v-2.4c0-.2,0-.4-.2-.5s-.3-.2-.5-.2-.3,0-.5,0c-.1,0-.2.1-.3.2,0,.1-.2.2-.2.4,0,.1,0,.3,0,.4v2h-.6v-3.5h.5Z"/>
    <path d="M306.6,12.7c-.3.3-.7.4-1.2.4s-.3,0-.5,0c-.2,0-.3,0-.5-.2-.1,0-.3-.2-.3-.3,0-.1-.1-.3-.2-.5h.6c0,.1,0,.2,0,.3,0,0,.1.1.2.2,0,0,.2,0,.3,0,.1,0,.2,0,.3,0,.2,0,.4,0,.5,0,.1,0,.2-.2.3-.3s.1-.3.2-.4,0-.3,0-.5v-.2h0c-.1.2-.3.4-.5.5s-.4.2-.6.2-.5,0-.7-.1c-.2,0-.4-.2-.5-.4-.1-.2-.2-.4-.3-.6,0-.2,0-.4,0-.7s0-.4,0-.6.1-.4.3-.6c.1-.2.3-.3.5-.4.2-.1.5-.2.8-.2s.4,0,.6.1c.2,0,.3.2.4.4h0v-.5h.5v3.2c0,.6-.1,1-.4,1.3ZM305.9,11.1c.1,0,.2-.2.3-.3s.1-.3.2-.4c0-.2,0-.3,0-.5s0-.3,0-.5,0-.3-.2-.4-.2-.2-.3-.3-.3-.1-.5-.1-.3,0-.5.1c-.1,0-.2.2-.3.3,0,.1-.1.3-.2.4,0,.2,0,.3,0,.5s0,.3,0,.5c0,.2,0,.3.2.4,0,.1.2.2.3.3.1,0,.3.1.5.1s.4,0,.5-.1Z"/>
    <path d="M309.4,8.2v.5h-.7v2.2c0,0,0,.1,0,.2,0,0,0,0,0,0,0,0,0,0,.1,0,0,0,.1,0,.2,0h.3v.5h-.4c-.1,0-.3,0-.4,0-.1,0-.2,0-.3-.1,0,0-.1-.1-.1-.2,0-.1,0-.2,0-.4v-2.2h-.6v-.5h.6v-1.1h.6v1.1h.7Z"/>
    <path d="M310.1,7.5v-.7h.6v.7h-.6ZM310.7,8.2v3.5h-.6v-3.5h.6Z"/>
    <path d="M313.1,8.2v.5h-.7v2.2c0,0,0,.1,0,.2,0,0,0,0,0,0,0,0,0,0,.1,0,0,0,.1,0,.2,0h.3v.5h-.4c-.1,0-.3,0-.4,0-.1,0-.2,0-.3-.1,0,0-.1-.1-.1-.2,0-.1,0-.2,0-.4v-2.2h-.6v-.5h.6v-1.1h.6v1.1h.7Z"/>
    <path d="M316.1,11.7v-.6h0c-.1.2-.3.4-.5.5s-.4.2-.7.2-.4,0-.6,0c-.2,0-.3-.1-.4-.3s-.2-.2-.2-.4c0-.2,0-.3,0-.5v-2.3h.6v2.4c0,.2,0,.4.2.5.1.1.3.2.5.2s.3,0,.5,0,.2-.1.3-.2c0-.1.2-.2.2-.4,0-.1,0-.3,0-.4v-2h.6v3.5h-.5Z"/>
    <path d="M320.1,11.7v-.5h0c0,.2-.2.3-.5.4s-.4.1-.7.1-.5,0-.7-.2c-.2-.1-.4-.2-.5-.4-.1-.2-.2-.4-.3-.6,0-.2-.1-.5-.1-.7s0-.5,0-.7c0-.2.2-.4.3-.6.1-.2.3-.3.5-.4.2,0,.4-.1.7-.1s.2,0,.3,0c.1,0,.2,0,.3,0,.1,0,.2.1.3.2,0,0,.2.2.2.3h0v-1.8h.6v4.9h-.6ZM318,10.5c0,.2.1.3.2.4s.2.2.3.3c.1,0,.3.1.5.1s.4,0,.5-.1c.1,0,.2-.2.3-.3,0-.1.1-.3.2-.4,0-.2,0-.3,0-.5s0-.3,0-.5-.1-.3-.2-.4-.2-.2-.3-.3-.3-.1-.5-.1-.4,0-.5.1c-.1,0-.2.2-.3.3s-.1.3-.2.4c0,.2,0,.3,0,.5s0,.3,0,.5Z"/>
    <path d="M324.1,11.5c-.3.2-.6.3-1,.3s-.5,0-.7-.1c-.2,0-.4-.2-.5-.4-.1-.2-.2-.4-.3-.6,0-.2-.1-.5-.1-.7,0-.3,0-.5.1-.7s.2-.4.3-.6c.1-.2.3-.3.5-.4.2,0,.4-.1.7-.1s.6,0,.8.2.4.3.5.5c.1.2.2.4.3.7s0,.5,0,.7h-2.6c0,.2,0,.3,0,.4,0,.1.1.3.2.4,0,.1.2.2.3.3.1,0,.3,0,.5,0s.4,0,.6-.2c.2-.1.3-.3.3-.5h.6c0,.4-.2.7-.5.9ZM323.9,9.2c0-.1-.1-.2-.2-.3s-.2-.2-.3-.2-.3,0-.4,0-.3,0-.4,0c-.1,0-.2.1-.3.2,0,0-.2.2-.2.3,0,.1,0,.2,0,.4h2c0-.1,0-.3,0-.4Z"/>
    <path d="M325.4,11.5c.1-.5.2-1,.2-1.6s0-1.1-.2-1.6c-.1-.5-.4-1-.7-1.6h.4c.2.3.3.5.4.8.1.3.2.5.3.8,0,.3.2.5.2.8,0,.3,0,.6,0,.9,0,.5,0,1.1-.3,1.6-.2.5-.4,1.1-.8,1.5h-.4c.3-.5.6-1,.7-1.5Z"/>
  </g>
  <path d="M155.3,100.2q0,0,.3.2c.6.5,1.1,1.1,1.6,1.9-.3.2-.5.3-.8.5-.4-.6-.7-1.1-1.1-1.5-.2-.2-.4-.3-.6-.4l.5-.8ZM155.1,99.8c0-.2,0-.5,0-1v-2.2c0-.4,0-.7,0-.9h.9c0,.3,0,.6,0,.9v2.2c0,.3,0,.7,0,1h-.9ZM159.9,101.7c-.3,0-.4,0-1,0,.3.2.5.5.7.7-.4.1-.6.2-.9.4-.6-.9-1.5-1.7-2.2-2l.5-.8c0,0,.2.2.4.3.3.2.4.3.6.5h3.2c.4,0,.8,0,1,0v1c-.3,0-.6,0-1,0h-1.4ZM158.1,99.1c0,.4,0,.8,0,1h-.9c0-.2,0-.6,0-1v-2.8c0-.5,0-.8,0-1h.9c0,.3,0,.6,0,1v.4h3.3c.7,0,.9.2.9,1.2s0,.5,0,.9c-.4,0-.6,0-.9.2,0-.4,0-.9,0-1.1s0-.4-.2-.4h-3.1v1.6Z"/>
  <g>
    <path d="M162.3,91.8c-.3.1-.5.2-.8.3-.3,0-.5.2-.8.2-.3,0-.6,0-.9,0-.5,0-1.1,0-1.6-.3-.5-.2-1.1-.4-1.5-.8v-.4c.5.3,1,.6,1.5.7s1,.2,1.6.2,1.1,0,1.6-.2c.5-.1,1-.4,1.6-.7v.4c-.3.2-.5.3-.8.4Z"/>
    <path d="M156.8,89.9h4.9v.6h-4.9v-.6Z"/>
    <path d="M161.7,85.9c0,.1,0,.2,0,.4s0,.3-.1.4-.2.1-.4.1c.2.2.3.3.4.6s.1.4.1.7,0,.3,0,.5,0,.3-.2.4c0,.1-.2.2-.3.2-.1,0-.3,0-.5,0s-.4,0-.5-.1c-.1,0-.2-.2-.3-.3,0-.1-.1-.2-.2-.4s0-.3-.1-.4c0-.2,0-.3,0-.5s0-.3,0-.4,0-.2-.1-.3-.1,0-.2,0-.2,0-.3,0-.1.1-.2.2,0,.2,0,.3,0,.2,0,.3c0,.2,0,.5.1.6s.3.3.5.3v.6c-.2,0-.4,0-.6-.1s-.3-.2-.4-.3c0-.1-.2-.3-.2-.5,0-.2,0-.4,0-.6s0-.3,0-.5c0-.2,0-.3.1-.4,0-.1.2-.2.3-.3s.3-.1.5-.1h1.8c.1,0,.2,0,.3,0,0,0,0,0,0-.2s0-.1,0-.2h.5ZM159.8,86.8c0,0,0,.2.1.3,0,.1,0,.2,0,.4,0,.1,0,.3,0,.4,0,.1,0,.3,0,.4,0,.1.1.2.2.3,0,0,.2,0,.3,0s.2,0,.2,0c0,0,.1,0,.2-.2,0,0,0-.1,0-.2,0,0,0-.2,0-.3,0-.2,0-.4,0-.5s-.1-.2-.2-.3c0,0-.2-.2-.3-.2s-.2,0-.3,0h-.6Z"/>
    <path d="M158.1,83.8h.5v.7h2.2c0,0,.1,0,.2,0,0,0,0,0,0,0,0,0,0,0,0-.1,0,0,0-.1,0-.2v-.3h.5v.4c0,.1,0,.3,0,.4,0,.1,0,.2-.1.3,0,0-.1.1-.2.1-.1,0-.2,0-.4,0h-2.2v.6h-.5v-.6h-1.1v-.6h1.1v-.7Z"/>
    <path d="M157.5,83.2h-.7v-.6h.7v.6ZM158.1,82.6h3.5v.6h-3.5v-.6Z"/>
    <path d="M158.1,80.2h.5v.7h2.2c0,0,.1,0,.2,0,0,0,0,0,0,0,0,0,0,0,0-.1,0,0,0-.1,0-.2v-.3h.5v.4c0,.1,0,.3,0,.4,0,.1,0,.2-.1.3,0,0-.1.1-.2.1-.1,0-.2,0-.4,0h-2.2v.6h-.5v-.6h-1.1v-.6h1.1v-.7Z"/>
    <path d="M161.7,77.1h-.6c.2.1.4.3.5.5s.2.4.2.7,0,.4,0,.6c0,.2-.1.3-.3.4s-.2.2-.4.2c-.2,0-.3,0-.5,0h-2.3v-.6h2.4c.2,0,.4,0,.5-.2.1-.1.2-.3.2-.5s0-.3,0-.5-.1-.2-.2-.3c-.1,0-.2-.2-.4-.2-.1,0-.3,0-.4,0h-2v-.6h3.5v.5Z"/>
    <path d="M161.7,73.1h-.5c.2.1.3.3.4.5s.1.4.1.7,0,.5-.2.7c-.1.2-.2.4-.4.5-.2.1-.4.2-.6.3-.2,0-.5.1-.7.1s-.5,0-.7,0c-.2,0-.4-.2-.6-.3-.2-.1-.3-.3-.4-.5,0-.2-.1-.4-.1-.7s0-.2,0-.3c0-.1,0-.2,0-.3,0-.1.1-.2.2-.3,0,0,.2-.2.3-.2h0s-1.8,0-1.8,0v-.6h4.9v.6ZM160.4,75.2c.2,0,.3-.1.4-.2s.2-.2.3-.3c0-.1.1-.3.1-.5s0-.4-.1-.5c0-.1-.2-.2-.3-.3-.1,0-.3-.1-.4-.2-.2,0-.3,0-.5,0s-.3,0-.5,0-.3.1-.4.2-.2.2-.3.3-.1.3-.1.5,0,.4.1.5c0,.1.2.2.3.3s.3.1.4.2c.2,0,.3,0,.5,0s.3,0,.5,0Z"/>
    <path d="M161.4,69.2c.2.3.3.6.3,1s0,.5-.1.7c0,.2-.2.4-.4.5-.2.1-.4.2-.6.3-.2,0-.5.1-.7.1-.3,0-.5,0-.7-.1s-.4-.2-.6-.3c-.2-.1-.3-.3-.4-.5,0-.2-.1-.4-.1-.7s0-.6.2-.8.3-.4.5-.5c.2-.1.4-.2.7-.3s.5,0,.7,0v2.6c.2,0,.3,0,.4,0,.1,0,.3-.1.4-.2.1,0,.2-.2.3-.3,0-.1,0-.3,0-.5s0-.4-.2-.6c-.1-.2-.3-.3-.5-.3v-.6c.4,0,.7.2.9.5ZM159.2,69.3c-.1,0-.2.1-.3.2s-.2.2-.2.3,0,.3,0,.4,0,.3,0,.4c0,.1.1.2.2.3,0,0,.2.2.3.2.1,0,.2,0,.4,0v-2c-.1,0-.3,0-.4,0Z"/>
    <path d="M161.5,67.8c-.5-.1-1-.2-1.6-.2s-1.1,0-1.6.2c-.5.1-1,.4-1.6.7v-.4c.3-.2.5-.3.8-.4.3-.1.5-.2.8-.3.3,0,.5-.2.8-.2.3,0,.6,0,.9,0,.5,0,1.1,0,1.6.3.5.2,1.1.4,1.5.8v.4c-.5-.3-1-.6-1.5-.7Z"/>
  </g>
  <g>
    <path d="M194.8,37.4c.1,0,.2,0,.3,0,0,0,.2-.1.2-.2s0-.2.1-.4h.3v3.7h-.3v-2.7h-1v-.2c.1,0,.3,0,.4,0Z"/>
    <path d="M197,40.4c0-.2,0-.3,0-.5s.1-.3.2-.4c0-.1.2-.2.3-.3.1,0,.2-.2.4-.3.1,0,.3-.2.4-.3.1,0,.2-.2.3-.3s.2-.2.2-.3c0-.1,0-.2,0-.4s0-.2,0-.3c0,0-.1-.2-.2-.2s-.2-.1-.3-.1c-.1,0-.2,0-.3,0s-.3,0-.4,0c-.1,0-.2.1-.3.2,0,0-.1.2-.1.3,0,.1,0,.3,0,.4h-.3c0-.2,0-.4,0-.5,0-.2.1-.3.2-.4,0-.1.2-.2.4-.3.1,0,.3,0,.5,0s.3,0,.5,0c.1,0,.3.1.4.2.1,0,.2.2.2.3s0,.3,0,.5,0,.3,0,.4c0,.1-.1.2-.2.3,0,.1-.2.2-.3.3-.1,0-.2.2-.4.2,0,0-.2.1-.3.2-.1,0-.2.2-.3.2-.1,0-.2.2-.3.3,0,.1-.1.2-.2.3h2.1v.3h-2.4Z"/>
    <path d="M200.3,39.9h.4v.6h-.4v-.6Z"/>
    <path d="M201.8,39.6c0,.1.1.2.2.3s.2.2.3.2.3,0,.4,0,.2,0,.4,0c.1,0,.2,0,.3-.2s.2-.2.2-.3,0-.2,0-.3,0-.2,0-.3c0,0-.1-.2-.2-.2s-.2-.1-.3-.1c-.1,0-.2,0-.3,0h-.3v-.3h.3c0,0,.2,0,.3,0,0,0,.2,0,.2-.1,0,0,.1-.1.2-.2,0,0,0-.2,0-.3s0-.2,0-.3c0,0-.1-.2-.2-.2,0,0-.2-.1-.3-.1s-.2,0-.3,0-.3,0-.4,0c-.1,0-.2.1-.3.2,0,0-.1.2-.2.3,0,.1,0,.2,0,.4h-.3c0-.2,0-.3,0-.5,0-.1.1-.3.2-.4.1-.1.2-.2.4-.3.1,0,.3,0,.5,0s.3,0,.4,0c.1,0,.3,0,.4.2.1,0,.2.2.3.3,0,.1,0,.3,0,.4s0,.4-.2.5c-.1.1-.3.2-.5.3h0c.2,0,.4.2.6.3s.2.4.2.6,0,.3-.1.5-.2.3-.3.4-.3.2-.4.2c-.2,0-.3,0-.5,0s-.4,0-.5,0c-.2,0-.3-.1-.4-.2s-.2-.2-.3-.4c0-.2,0-.3,0-.5h.3c0,.1,0,.3,0,.4Z"/>
    <path d="M205.1,40.4c0,0,0,.2,0,.2,0,0,0,.1,0,.2,0,0,0,.1-.1.2,0,0-.1,0-.2.1v-.2s0,0,.1,0,0,0,0-.1,0,0,0-.1c0,0,0,0,0-.1h-.2v-.6h.4v.6Z"/>
    <path d="M206.5,37.4c.1,0,.2,0,.3,0,0,0,.2-.1.2-.2s0-.2.1-.4h.3v3.7h-.3v-2.7h-1v-.2c.1,0,.3,0,.4,0Z"/>
    <path d="M210.7,36.9c.2.1.3.3.4.5,0,.2.2.4.2.6s0,.4,0,.7,0,.4,0,.7c0,.2,0,.4-.2.6,0,.2-.2.3-.4.4-.2.1-.4.2-.7.2s-.5,0-.7-.2c-.2-.1-.3-.3-.4-.4,0-.2-.2-.4-.2-.6,0-.2,0-.4,0-.7s0-.4,0-.7c0-.2,0-.4.2-.6,0-.2.2-.3.4-.5.2-.1.4-.2.7-.2s.5,0,.7.2ZM209.5,37.1c-.1.1-.2.2-.3.4,0,.2-.1.3-.1.5s0,.4,0,.5,0,.3,0,.5,0,.4.1.5c0,.2.2.3.3.4s.3.2.5.2.4,0,.5-.2c.1-.1.2-.2.3-.4s.1-.3.1-.5c0-.2,0-.4,0-.5s0-.3,0-.5c0-.2,0-.4-.1-.5s-.2-.3-.3-.4c-.1-.1-.3-.2-.5-.2s-.4,0-.5.2Z"/>
    <path d="M212,39.9h.4v.6h-.4v-.6Z"/>
    <path d="M214.8,36.7h.3v2.5h.6v.3h-.6v.9h-.3v-.9h-1.7v-.3l1.7-2.5ZM214.8,37.2h0l-1.4,2h1.4v-2Z"/>
    <path d="M216.8,40.4c0,0,0,.2,0,.2,0,0,0,.1,0,.2,0,0,0,.1-.1.2,0,0-.1,0-.2.1v-.2s0,0,.1,0,0,0,0-.1,0,0,0-.1c0,0,0,0,0-.1h-.2v-.6h.4v.6Z"/>
    <path d="M217.7,38.8h1.3v.3h-1.3v-.3Z"/>
    <path d="M219.5,40.4c0-.2,0-.3,0-.5s.1-.3.2-.4c0-.1.2-.2.3-.3.1,0,.2-.2.4-.3.1,0,.3-.2.4-.3.1,0,.2-.2.3-.3s.2-.2.2-.3c0-.1,0-.2,0-.4s0-.2,0-.3c0,0-.1-.2-.2-.2s-.2-.1-.3-.1c-.1,0-.2,0-.3,0s-.3,0-.4,0c-.1,0-.2.1-.3.2,0,0-.1.2-.1.3,0,.1,0,.3,0,.4h-.3c0-.2,0-.4,0-.5,0-.2.1-.3.2-.4,0-.1.2-.2.4-.3.1,0,.3,0,.5,0s.3,0,.5,0c.1,0,.3.1.4.2.1,0,.2.2.2.3s0,.3,0,.5,0,.3,0,.4c0,.1-.1.2-.2.3,0,.1-.2.2-.3.3-.1,0-.2.2-.4.2,0,0-.2.1-.3.2-.1,0-.2.2-.3.2-.1,0-.2.2-.3.3,0,.1-.1.2-.2.3h2.1v.3h-2.4Z"/>
    <path d="M222.7,39.9h.4v.6h-.4v-.6Z"/>
    <path d="M224.2,39.6c0,.1.1.2.2.3s.2.2.3.2.3,0,.4,0,.2,0,.4,0c.1,0,.2,0,.3-.2s.2-.2.2-.3,0-.2,0-.3,0-.2,0-.3c0,0-.1-.2-.2-.2s-.2-.1-.3-.1c-.1,0-.2,0-.3,0h-.3v-.3h.3c0,0,.2,0,.3,0,0,0,.2,0,.2-.1,0,0,.1-.1.2-.2,0,0,0-.2,0-.3s0-.2,0-.3c0,0-.1-.2-.2-.2,0,0-.2-.1-.3-.1s-.2,0-.3,0-.3,0-.4,0c-.1,0-.2.1-.3.2,0,0-.1.2-.2.3,0,.1,0,.2,0,.4h-.3c0-.2,0-.3,0-.5,0-.1.1-.3.2-.4.1-.1.2-.2.4-.3.1,0,.3,0,.5,0s.3,0,.4,0c.1,0,.3,0,.4.2.1,0,.2.2.3.3,0,.1,0,.3,0,.4s0,.4-.2.5c-.1.1-.3.2-.5.3h0c.2,0,.4.2.6.3s.2.4.2.6,0,.3-.1.5-.2.3-.3.4-.3.2-.4.2c-.2,0-.3,0-.5,0s-.4,0-.5,0c-.2,0-.3-.1-.4-.2s-.2-.2-.3-.4c0-.2,0-.3,0-.5h.3c0,.1,0,.3,0,.4Z"/>
    <path d="M227.6,40.4c0,0,0,.2,0,.2,0,0,0,.1,0,.2,0,0,0,.1-.1.2,0,0-.1,0-.2.1v-.2s0,0,.1,0,0,0,0-.1,0,0,0-.1c0,0,0,0,0-.1h-.2v-.6h.4v.6Z"/>
    <path d="M230,36.7h.3v2.5h.6v.3h-.6v.9h-.3v-.9h-1.7v-.3l1.7-2.5ZM229.9,37.2h0l-1.4,2h1.4v-2Z"/>
    <path d="M231.5,39.9h.4v.6h-.4v-.6Z"/>
    <path d="M233.4,37.4c.1,0,.2,0,.3,0,0,0,.2-.1.2-.2s0-.2.1-.4h.3v3.7h-.3v-2.7h-1v-.2c.1,0,.3,0,.4,0Z"/>
    <path d="M236.4,40.4c0,0,0,.2,0,.2,0,0,0,.1,0,.2,0,0,0,.1-.1.2,0,0-.1,0-.2.1v-.2s0,0,.1,0,0,0,0-.1,0,0,0-.1c0,0,0,0,0-.1h-.2v-.6h.4v.6Z"/>
    <path d="M237.2,38.8h1.3v.3h-1.3v-.3Z"/>
    <path d="M239.7,40c.1.1.3.2.5.2s.4,0,.5-.2.2-.2.3-.4c0-.2.1-.3.1-.5,0-.2,0-.4,0-.5h0c0,.2-.2.3-.4.4-.2.1-.4.2-.6.2s-.4,0-.5,0c-.2,0-.3-.1-.4-.3s-.2-.2-.2-.4c0-.2,0-.3,0-.5s0-.3,0-.5.1-.3.3-.4c.1-.1.2-.2.4-.3.2,0,.3,0,.5,0s.4,0,.6.1.3.2.4.3c.1.2.2.4.2.6,0,.2,0,.6,0,.9s0,.2,0,.3c0,.1,0,.2,0,.4,0,.1,0,.3-.1.4,0,.1-.1.3-.2.4s-.2.2-.4.3c-.1,0-.3.1-.5.1-.3,0-.6,0-.8-.2-.2-.2-.3-.4-.3-.7h.3c0,.2.1.4.2.5ZM240.6,38.8c.1,0,.2-.1.3-.2s.1-.2.2-.3c0-.1,0-.2,0-.4s0-.3,0-.4,0-.2-.2-.3c0,0-.2-.2-.3-.2-.1,0-.3,0-.4,0s-.2,0-.4,0c-.1,0-.2.1-.3.2,0,0-.1.2-.2.3,0,.1,0,.2,0,.4s0,.3,0,.4c0,.1,0,.2.2.3s.2.2.3.2c.1,0,.2,0,.4,0s.3,0,.4,0Z"/>
    <path d="M242.6,40c.1.1.3.2.5.2s.4,0,.5-.2.2-.2.3-.4c0-.2.1-.3.1-.5,0-.2,0-.4,0-.5h0c0,.2-.2.3-.4.4-.2.1-.4.2-.6.2s-.4,0-.5,0c-.2,0-.3-.1-.4-.3s-.2-.2-.2-.4c0-.2,0-.3,0-.5s0-.3,0-.5.1-.3.3-.4c.1-.1.2-.2.4-.3.2,0,.3,0,.5,0s.4,0,.6.1.3.2.4.3c.1.2.2.4.2.6,0,.2,0,.6,0,.9s0,.2,0,.3c0,.1,0,.2,0,.4,0,.1,0,.3-.1.4,0,.1-.1.3-.2.4s-.2.2-.4.3c-.1,0-.3.1-.5.1-.3,0-.6,0-.8-.2-.2-.2-.3-.4-.3-.7h.3c0,.2.1.4.2.5ZM243.6,38.8c.1,0,.2-.1.3-.2s.1-.2.2-.3c0-.1,0-.2,0-.4s0-.3,0-.4,0-.2-.2-.3c0,0-.2-.2-.3-.2-.1,0-.3,0-.4,0s-.2,0-.4,0c-.1,0-.2.1-.3.2,0,0-.1.2-.2.3,0,.1,0,.2,0,.4s0,.3,0,.4c0,.1,0,.2.2.3s.2.2.3.2c.1,0,.2,0,.4,0s.3,0,.4,0Z"/>
    <path d="M245.5,40c.1.1.3.2.5.2s.4,0,.5-.2.2-.2.3-.4c0-.2.1-.3.1-.5,0-.2,0-.4,0-.5h0c0,.2-.2.3-.4.4-.2.1-.4.2-.6.2s-.4,0-.5,0c-.2,0-.3-.1-.4-.3s-.2-.2-.2-.4c0-.2,0-.3,0-.5s0-.3,0-.5.1-.3.3-.4c.1-.1.2-.2.4-.3.2,0,.3,0,.5,0s.4,0,.6.1.3.2.4.3c.1.2.2.4.2.6,0,.2,0,.6,0,.9s0,.2,0,.3c0,.1,0,.2,0,.4,0,.1,0,.3-.1.4,0,.1-.1.3-.2.4s-.2.2-.4.3c-.1,0-.3.1-.5.1-.3,0-.6,0-.8-.2-.2-.2-.3-.4-.3-.7h.3c0,.2.1.4.2.5ZM246.5,38.8c.1,0,.2-.1.3-.2s.1-.2.2-.3c0-.1,0-.2,0-.4s0-.3,0-.4,0-.2-.2-.3c0,0-.2-.2-.3-.2-.1,0-.3,0-.4,0s-.2,0-.4,0c-.1,0-.2.1-.3.2,0,0-.1.2-.2.3,0,.1,0,.2,0,.4s0,.3,0,.4c0,.1,0,.2.2.3s.2.2.3.2c.1,0,.2,0,.4,0s.3,0,.4,0Z"/>
    <path d="M248.5,40c.1.1.3.2.5.2s.4,0,.5-.2.2-.2.3-.4c0-.2.1-.3.1-.5,0-.2,0-.4,0-.5h0c0,.2-.2.3-.4.4-.2.1-.4.2-.6.2s-.4,0-.5,0c-.2,0-.3-.1-.4-.3s-.2-.2-.2-.4c0-.2,0-.3,0-.5s0-.3,0-.5.1-.3.3-.4c.1-.1.2-.2.4-.3.2,0,.3,0,.5,0s.4,0,.6.1.3.2.4.3c.1.2.2.4.2.6,0,.2,0,.6,0,.9s0,.2,0,.3c0,.1,0,.2,0,.4,0,.1,0,.3-.1.4,0,.1-.1.3-.2.4s-.2.2-.4.3c-.1,0-.3.1-.5.1-.3,0-.6,0-.8-.2-.2-.2-.3-.4-.3-.7h.3c0,.2.1.4.2.5ZM249.4,38.8c.1,0,.2-.1.3-.2s.1-.2.2-.3c0-.1,0-.2,0-.4s0-.3,0-.4,0-.2-.2-.3c0,0-.2-.2-.3-.2-.1,0-.3,0-.4,0s-.2,0-.4,0c-.1,0-.2.1-.3.2,0,0-.1.2-.2.3,0,.1,0,.2,0,.4s0,.3,0,.4c0,.1,0,.2.2.3s.2.2.3.2c.1,0,.2,0,.4,0s.3,0,.4,0Z"/>
    <path d="M251.5,40.4c0,0,0,.2,0,.2,0,0,0,.1,0,.2,0,0,0,.1-.1.2,0,0-.1,0-.2.1v-.2s0,0,.1,0,0,0,0-.1,0,0,0-.1c0,0,0,0,0-.1h-.2v-.6h.4v.6Z"/>
    <path d="M252.9,37.4c.1,0,.2,0,.3,0,0,0,.2-.1.2-.2s0-.2.1-.4h.3v3.7h-.3v-2.7h-1v-.2c.1,0,.3,0,.4,0Z"/>
    <path d="M257,37.2c-.1-.1-.3-.2-.5-.2s-.4,0-.5.2c-.1.1-.2.2-.3.4,0,.2-.1.3-.1.5,0,.2,0,.4,0,.5h0c0-.2.2-.3.4-.4.2-.1.4-.2.6-.2s.4,0,.5,0c.1,0,.3.1.4.3s.2.2.2.4c0,.2,0,.3,0,.5s0,.3,0,.5-.1.3-.3.4c-.1.1-.2.2-.4.3s-.3,0-.5,0-.4,0-.6-.1c-.2,0-.3-.2-.4-.3s-.2-.4-.2-.6c0-.2,0-.6,0-.9s0-.2,0-.3,0-.2,0-.4,0-.3.1-.4c0-.1.1-.3.2-.4,0-.1.2-.2.4-.3.1,0,.3-.1.5-.1.3,0,.6,0,.8.2s.3.4.3.7h-.3c0-.2-.1-.4-.2-.5ZM256.1,38.4c-.1,0-.2.1-.3.2,0,0-.1.2-.2.3,0,.1,0,.2,0,.4s0,.3,0,.4c0,.1,0,.2.2.3,0,0,.2.2.3.2.1,0,.3,0,.4,0s.3,0,.4,0c.1,0,.2-.1.3-.2s.1-.2.2-.3c0-.1,0-.2,0-.4s0-.3,0-.4c0-.1,0-.2-.2-.3,0,0-.2-.2-.3-.2-.1,0-.2,0-.4,0s-.3,0-.4,0Z"/>
    <path d="M258.4,39.9h.4v.6h-.4v-.6Z"/>
    <path d="M260.3,37.4c.1,0,.2,0,.3,0,0,0,.2-.1.2-.2s0-.2.1-.4h.3v3.7h-.3v-2.7h-1v-.2c.1,0,.3,0,.4,0Z"/>
    <path d="M263.2,40.4c0,0,0,.2,0,.2,0,0,0,.1,0,.2,0,0,0,.1-.1.2,0,0-.1,0-.2.1v-.2s0,0,.1,0,0,0,0-.1,0,0,0-.1c0,0,0,0,0-.1h-.2v-.6h.4v.6Z"/>
    <path d="M264.3,39.9h.4v.6h-.4v-.6Z"/>
    <path d="M265.7,39.9h.4v.6h-.4v-.6Z"/>
    <path d="M267.2,39.9h.4v.6h-.4v-.6Z"/>
    <path d="M268.7,39.9h.4v.6h-.4v-.6Z"/>
    <path d="M270.1,39.9h.4v.6h-.4v-.6Z"/>
    <path d="M271.6,39.9h.4v.6h-.4v-.6Z"/>
    <path d="M273.1,39.9h.4v.6h-.4v-.6Z"/>
    <path d="M274.5,39.9h.4v.6h-.4v-.6Z"/>
    <path d="M276,39.9h.4v.6h-.4v-.6Z"/>
    <path d="M277.5,39.9h.4v.6h-.4v-.6Z"/>
    <path d="M278.9,39.9h.4v.6h-.4v-.6Z"/>
    <path d="M280.4,39.9h.4v.6h-.4v-.6Z"/>
    <path d="M281.8,39.9h.4v.6h-.4v-.6Z"/>
    <path d="M283.3,39.9h.4v.6h-.4v-.6Z"/>
    <path d="M284.8,39.9h.4v.6h-.4v-.6Z"/>
    <path d="M286.2,39.9h.4v.6h-.4v-.6Z"/>
    <path d="M287.7,39.9h.4v.6h-.4v-.6Z"/>
    <path d="M289.2,39.9h.4v.6h-.4v-.6Z"/>
    <path d="M290.6,39.9h.4v.6h-.4v-.6Z"/>
    <path d="M292.1,39.9h.4v.6h-.4v-.6Z"/>
    <path d="M293.6,39.9h.4v.6h-.4v-.6Z"/>
    <path d="M295,39.9h.4v.6h-.4v-.6Z"/>
    <path d="M296.5,39.9h.4v.6h-.4v-.6Z"/>
    <path d="M298,39.9h.4v.6h-.4v-.6Z"/>
    <path d="M299.4,39.9h.4v.6h-.4v-.6Z"/>
    <path d="M300.9,39.9h.4v.6h-.4v-.6Z"/>
    <path d="M302.4,39.9h.4v.6h-.4v-.6Z"/>
    <path d="M303.8,39.9h.4v.6h-.4v-.6Z"/>
    <path d="M305.3,39.9h.4v.6h-.4v-.6Z"/>
    <path d="M306.8,39.9h.4v.6h-.4v-.6Z"/>
    <path d="M308.2,39.9h.4v.6h-.4v-.6Z"/>
    <path d="M309.7,39.9h.4v.6h-.4v-.6Z"/>
    <path d="M311.2,39.9h.4v.6h-.4v-.6Z"/>
    <path d="M312.6,39.9h.4v.6h-.4v-.6Z"/>
    <path d="M314.1,39.9h.4v.6h-.4v-.6Z"/>
  </g>
  <g>
    <path d="M194.2,45.9h1.3v.3h-1.3v-.3Z"/>
    <path d="M196.7,47.1c.1.1.3.2.5.2s.4,0,.5-.2.2-.2.3-.4c0-.2.1-.3.1-.5,0-.2,0-.4,0-.5h0c0,.2-.2.3-.4.4-.2.1-.4.2-.6.2s-.4,0-.5,0c-.2,0-.3-.1-.4-.3s-.2-.2-.2-.4c0-.2,0-.3,0-.5s0-.3,0-.5.1-.3.3-.4c.1-.1.2-.2.4-.3.2,0,.3,0,.5,0s.4,0,.6.1.3.2.4.3c.1.2.2.4.2.6,0,.2,0,.6,0,.9s0,.2,0,.3c0,.1,0,.2,0,.4,0,.1,0,.3-.1.4,0,.1-.1.3-.2.4s-.2.2-.4.3c-.1,0-.3.1-.5.1-.3,0-.6,0-.8-.2-.2-.2-.3-.4-.3-.7h.3c0,.2.1.4.2.5ZM197.6,45.9c.1,0,.2-.1.3-.2s.1-.2.2-.3c0-.1,0-.2,0-.4s0-.3,0-.4,0-.2-.2-.3c0,0-.2-.2-.3-.2-.1,0-.3,0-.4,0s-.2,0-.4,0c-.1,0-.2.1-.3.2,0,0-.1.2-.2.3,0,.1,0,.2,0,.4s0,.3,0,.4c0,.1,0,.2.2.3s.2.2.3.2c.1,0,.2,0,.4,0s.3,0,.4,0Z"/>
    <path d="M199.6,47.1c.1.1.3.2.5.2s.4,0,.5-.2.2-.2.3-.4c0-.2.1-.3.1-.5,0-.2,0-.4,0-.5h0c0,.2-.2.3-.4.4-.2.1-.4.2-.6.2s-.4,0-.5,0c-.2,0-.3-.1-.4-.3s-.2-.2-.2-.4c0-.2,0-.3,0-.5s0-.3,0-.5.1-.3.3-.4c.1-.1.2-.2.4-.3.2,0,.3,0,.5,0s.4,0,.6.1.3.2.4.3c.1.2.2.4.2.6,0,.2,0,.6,0,.9s0,.2,0,.3c0,.1,0,.2,0,.4,0,.1,0,.3-.1.4,0,.1-.1.3-.2.4s-.2.2-.4.3c-.1,0-.3.1-.5.1-.3,0-.6,0-.8-.2-.2-.2-.3-.4-.3-.7h.3c0,.2.1.4.2.5ZM200.6,45.9c.1,0,.2-.1.3-.2s.1-.2.2-.3c0-.1,0-.2,0-.4s0-.3,0-.4,0-.2-.2-.3c0,0-.2-.2-.3-.2-.1,0-.3,0-.4,0s-.2,0-.4,0c-.1,0-.2.1-.3.2,0,0-.1.2-.2.3,0,.1,0,.2,0,.4s0,.3,0,.4c0,.1,0,.2.2.3s.2.2.3.2c.1,0,.2,0,.4,0s.3,0,.4,0Z"/>
    <path d="M202.5,47.1c.1.1.3.2.5.2s.4,0,.5-.2.2-.2.3-.4c0-.2.1-.3.1-.5,0-.2,0-.4,0-.5h0c0,.2-.2.3-.4.4-.2.1-.4.2-.6.2s-.4,0-.5,0c-.2,0-.3-.1-.4-.3s-.2-.2-.2-.4c0-.2,0-.3,0-.5s0-.3,0-.5.1-.3.3-.4c.1-.1.2-.2.4-.3.2,0,.3,0,.5,0s.4,0,.6.1.3.2.4.3c.1.2.2.4.2.6,0,.2,0,.6,0,.9s0,.2,0,.3c0,.1,0,.2,0,.4,0,.1,0,.3-.1.4,0,.1-.1.3-.2.4s-.2.2-.4.3c-.1,0-.3.1-.5.1-.3,0-.6,0-.8-.2-.2-.2-.3-.4-.3-.7h.3c0,.2.1.4.2.5ZM203.5,45.9c.1,0,.2-.1.3-.2s.1-.2.2-.3c0-.1,0-.2,0-.4s0-.3,0-.4,0-.2-.2-.3c0,0-.2-.2-.3-.2-.1,0-.3,0-.4,0s-.2,0-.4,0c-.1,0-.2.1-.3.2,0,0-.1.2-.2.3,0,.1,0,.2,0,.4s0,.3,0,.4c0,.1,0,.2.2.3s.2.2.3.2c.1,0,.2,0,.4,0s.3,0,.4,0Z"/>
    <path d="M205.5,47.1c.1.1.3.2.5.2s.4,0,.5-.2.2-.2.3-.4c0-.2.1-.3.1-.5,0-.2,0-.4,0-.5h0c0,.2-.2.3-.4.4-.2.1-.4.2-.6.2s-.4,0-.5,0c-.2,0-.3-.1-.4-.3s-.2-.2-.2-.4c0-.2,0-.3,0-.5s0-.3,0-.5.1-.3.3-.4c.1-.1.2-.2.4-.3.2,0,.3,0,.5,0s.4,0,.6.1.3.2.4.3c.1.2.2.4.2.6,0,.2,0,.6,0,.9s0,.2,0,.3c0,.1,0,.2,0,.4,0,.1,0,.3-.1.4,0,.1-.1.3-.2.4s-.2.2-.4.3c-.1,0-.3.1-.5.1-.3,0-.6,0-.8-.2-.2-.2-.3-.4-.3-.7h.3c0,.2.1.4.2.5ZM206.4,45.9c.1,0,.2-.1.3-.2s.1-.2.2-.3c0-.1,0-.2,0-.4s0-.3,0-.4,0-.2-.2-.3c0,0-.2-.2-.3-.2-.1,0-.3,0-.4,0s-.2,0-.4,0c-.1,0-.2.1-.3.2,0,0-.1.2-.2.3,0,.1,0,.2,0,.4s0,.3,0,.4c0,.1,0,.2.2.3s.2.2.3.2c.1,0,.2,0,.4,0s.3,0,.4,0Z"/>
    <path d="M208.5,47.5c0,0,0,.2,0,.2,0,0,0,.1,0,.2,0,0,0,.1-.1.2,0,0-.1,0-.2.1v-.2s0,0,.1,0,0,0,0-.1,0,0,0-.1c0,0,0,0,0-.1h-.2v-.6h.4v.6Z"/>
    <path d="M209.3,45.9h1.3v.3h-1.3v-.3Z"/>
    <path d="M211.8,47.1c.1.1.3.2.5.2s.4,0,.5-.2.2-.2.3-.4c0-.2.1-.3.1-.5,0-.2,0-.4,0-.5h0c0,.2-.2.3-.4.4-.2.1-.4.2-.6.2s-.4,0-.5,0c-.2,0-.3-.1-.4-.3s-.2-.2-.2-.4c0-.2,0-.3,0-.5s0-.3,0-.5.1-.3.3-.4c.1-.1.2-.2.4-.3.2,0,.3,0,.5,0s.4,0,.6.1.3.2.4.3c.1.2.2.4.2.6,0,.2,0,.6,0,.9s0,.2,0,.3c0,.1,0,.2,0,.4,0,.1,0,.3-.1.4,0,.1-.1.3-.2.4s-.2.2-.4.3c-.1,0-.3.1-.5.1-.3,0-.6,0-.8-.2-.2-.2-.3-.4-.3-.7h.3c0,.2.1.4.2.5ZM212.8,45.9c.1,0,.2-.1.3-.2s.1-.2.2-.3c0-.1,0-.2,0-.4s0-.3,0-.4,0-.2-.2-.3c0,0-.2-.2-.3-.2-.1,0-.3,0-.4,0s-.2,0-.4,0c-.1,0-.2.1-.3.2,0,0-.1.2-.2.3,0,.1,0,.2,0,.4s0,.3,0,.4c0,.1,0,.2.2.3s.2.2.3.2c.1,0,.2,0,.4,0s.3,0,.4,0Z"/>
    <path d="M214.8,47.1c.1.1.3.2.5.2s.4,0,.5-.2.2-.2.3-.4c0-.2.1-.3.1-.5,0-.2,0-.4,0-.5h0c0,.2-.2.3-.4.4-.2.1-.4.2-.6.2s-.4,0-.5,0c-.2,0-.3-.1-.4-.3s-.2-.2-.2-.4c0-.2,0-.3,0-.5s0-.3,0-.5.1-.3.3-.4c.1-.1.2-.2.4-.3.2,0,.3,0,.5,0s.4,0,.6.1.3.2.4.3c.1.2.2.4.2.6,0,.2,0,.6,0,.9s0,.2,0,.3c0,.1,0,.2,0,.4,0,.1,0,.3-.1.4,0,.1-.1.3-.2.4s-.2.2-.4.3c-.1,0-.3.1-.5.1-.3,0-.6,0-.8-.2-.2-.2-.3-.4-.3-.7h.3c0,.2.1.4.2.5ZM215.7,45.9c.1,0,.2-.1.3-.2s.1-.2.2-.3c0-.1,0-.2,0-.4s0-.3,0-.4,0-.2-.2-.3c0,0-.2-.2-.3-.2-.1,0-.3,0-.4,0s-.2,0-.4,0c-.1,0-.2.1-.3.2,0,0-.1.2-.2.3,0,.1,0,.2,0,.4s0,.3,0,.4c0,.1,0,.2.2.3s.2.2.3.2c.1,0,.2,0,.4,0s.3,0,.4,0Z"/>
    <path d="M217.7,47.1c.1.1.3.2.5.2s.4,0,.5-.2.2-.2.3-.4c0-.2.1-.3.1-.5,0-.2,0-.4,0-.5h0c0,.2-.2.3-.4.4-.2.1-.4.2-.6.2s-.4,0-.5,0c-.2,0-.3-.1-.4-.3s-.2-.2-.2-.4c0-.2,0-.3,0-.5s0-.3,0-.5.1-.3.3-.4c.1-.1.2-.2.4-.3.2,0,.3,0,.5,0s.4,0,.6.1.3.2.4.3c.1.2.2.4.2.6,0,.2,0,.6,0,.9s0,.2,0,.3c0,.1,0,.2,0,.4,0,.1,0,.3-.1.4,0,.1-.1.3-.2.4s-.2.2-.4.3c-.1,0-.3.1-.5.1-.3,0-.6,0-.8-.2-.2-.2-.3-.4-.3-.7h.3c0,.2.1.4.2.5ZM218.6,45.9c.1,0,.2-.1.3-.2s.1-.2.2-.3c0-.1,0-.2,0-.4s0-.3,0-.4,0-.2-.2-.3c0,0-.2-.2-.3-.2-.1,0-.3,0-.4,0s-.2,0-.4,0c-.1,0-.2.1-.3.2,0,0-.1.2-.2.3,0,.1,0,.2,0,.4s0,.3,0,.4c0,.1,0,.2.2.3s.2.2.3.2c.1,0,.2,0,.4,0s.3,0,.4,0Z"/>
    <path d="M220.6,47.1c.1.1.3.2.5.2s.4,0,.5-.2.2-.2.3-.4c0-.2.1-.3.1-.5,0-.2,0-.4,0-.5h0c0,.2-.2.3-.4.4-.2.1-.4.2-.6.2s-.4,0-.5,0c-.2,0-.3-.1-.4-.3s-.2-.2-.2-.4c0-.2,0-.3,0-.5s0-.3,0-.5.1-.3.3-.4c.1-.1.2-.2.4-.3.2,0,.3,0,.5,0s.4,0,.6.1.3.2.4.3c.1.2.2.4.2.6,0,.2,0,.6,0,.9s0,.2,0,.3c0,.1,0,.2,0,.4,0,.1,0,.3-.1.4,0,.1-.1.3-.2.4s-.2.2-.4.3c-.1,0-.3.1-.5.1-.3,0-.6,0-.8-.2-.2-.2-.3-.4-.3-.7h.3c0,.2.1.4.2.5ZM221.6,45.9c.1,0,.2-.1.3-.2s.1-.2.2-.3c0-.1,0-.2,0-.4s0-.3,0-.4,0-.2-.2-.3c0,0-.2-.2-.3-.2-.1,0-.3,0-.4,0s-.2,0-.4,0c-.1,0-.2.1-.3.2,0,0-.1.2-.2.3,0,.1,0,.2,0,.4s0,.3,0,.4c0,.1,0,.2.2.3s.2.2.3.2c.1,0,.2,0,.4,0s.3,0,.4,0Z"/>
    <path d="M223.7,47.5c0,0,0,.2,0,.2,0,0,0,.1,0,.2,0,0,0,.1-.1.2,0,0-.1,0-.2.1v-.2s0,0,.1,0,0,0,0-.1,0,0,0-.1c0,0,0,0,0-.1h-.2v-.6h.4v.6Z"/>
    <path d="M224.5,45.9h1.3v.3h-1.3v-.3Z"/>
    <path d="M227,47.1c.1.1.3.2.5.2s.4,0,.5-.2.2-.2.3-.4c0-.2.1-.3.1-.5,0-.2,0-.4,0-.5h0c0,.2-.2.3-.4.4-.2.1-.4.2-.6.2s-.4,0-.5,0c-.2,0-.3-.1-.4-.3s-.2-.2-.2-.4c0-.2,0-.3,0-.5s0-.3,0-.5.1-.3.3-.4c.1-.1.2-.2.4-.3.2,0,.3,0,.5,0s.4,0,.6.1.3.2.4.3c.1.2.2.4.2.6,0,.2,0,.6,0,.9s0,.2,0,.3c0,.1,0,.2,0,.4,0,.1,0,.3-.1.4,0,.1-.1.3-.2.4s-.2.2-.4.3c-.1,0-.3.1-.5.1-.3,0-.6,0-.8-.2-.2-.2-.3-.4-.3-.7h.3c0,.2.1.4.2.5ZM227.9,45.9c.1,0,.2-.1.3-.2s.1-.2.2-.3c0-.1,0-.2,0-.4s0-.3,0-.4,0-.2-.2-.3c0,0-.2-.2-.3-.2-.1,0-.3,0-.4,0s-.2,0-.4,0c-.1,0-.2.1-.3.2,0,0-.1.2-.2.3,0,.1,0,.2,0,.4s0,.3,0,.4c0,.1,0,.2.2.3s.2.2.3.2c.1,0,.2,0,.4,0s.3,0,.4,0Z"/>
    <path d="M229.9,47.1c.1.1.3.2.5.2s.4,0,.5-.2.2-.2.3-.4c0-.2.1-.3.1-.5,0-.2,0-.4,0-.5h0c0,.2-.2.3-.4.4-.2.1-.4.2-.6.2s-.4,0-.5,0c-.2,0-.3-.1-.4-.3s-.2-.2-.2-.4c0-.2,0-.3,0-.5s0-.3,0-.5.1-.3.3-.4c.1-.1.2-.2.4-.3.2,0,.3,0,.5,0s.4,0,.6.1.3.2.4.3c.1.2.2.4.2.6,0,.2,0,.6,0,.9s0,.2,0,.3c0,.1,0,.2,0,.4,0,.1,0,.3-.1.4,0,.1-.1.3-.2.4s-.2.2-.4.3c-.1,0-.3.1-.5.1-.3,0-.6,0-.8-.2-.2-.2-.3-.4-.3-.7h.3c0,.2.1.4.2.5ZM230.8,45.9c.1,0,.2-.1.3-.2s.1-.2.2-.3c0-.1,0-.2,0-.4s0-.3,0-.4,0-.2-.2-.3c0,0-.2-.2-.3-.2-.1,0-.3,0-.4,0s-.2,0-.4,0c-.1,0-.2.1-.3.2,0,0-.1.2-.2.3,0,.1,0,.2,0,.4s0,.3,0,.4c0,.1,0,.2.2.3s.2.2.3.2c.1,0,.2,0,.4,0s.3,0,.4,0Z"/>
    <path d="M232.8,47.1c.1.1.3.2.5.2s.4,0,.5-.2.2-.2.3-.4c0-.2.1-.3.1-.5,0-.2,0-.4,0-.5h0c0,.2-.2.3-.4.4-.2.1-.4.2-.6.2s-.4,0-.5,0c-.2,0-.3-.1-.4-.3s-.2-.2-.2-.4c0-.2,0-.3,0-.5s0-.3,0-.5.1-.3.3-.4c.1-.1.2-.2.4-.3.2,0,.3,0,.5,0s.4,0,.6.1.3.2.4.3c.1.2.2.4.2.6,0,.2,0,.6,0,.9s0,.2,0,.3c0,.1,0,.2,0,.4,0,.1,0,.3-.1.4,0,.1-.1.3-.2.4s-.2.2-.4.3c-.1,0-.3.1-.5.1-.3,0-.6,0-.8-.2-.2-.2-.3-.4-.3-.7h.3c0,.2.1.4.2.5ZM233.8,45.9c.1,0,.2-.1.3-.2s.1-.2.2-.3c0-.1,0-.2,0-.4s0-.3,0-.4,0-.2-.2-.3c0,0-.2-.2-.3-.2-.1,0-.3,0-.4,0s-.2,0-.4,0c-.1,0-.2.1-.3.2,0,0-.1.2-.2.3,0,.1,0,.2,0,.4s0,.3,0,.4c0,.1,0,.2.2.3s.2.2.3.2c.1,0,.2,0,.4,0s.3,0,.4,0Z"/>
    <path d="M235.8,47.1c.1.1.3.2.5.2s.4,0,.5-.2.2-.2.3-.4c0-.2.1-.3.1-.5,0-.2,0-.4,0-.5h0c0,.2-.2.3-.4.4-.2.1-.4.2-.6.2s-.4,0-.5,0c-.2,0-.3-.1-.4-.3s-.2-.2-.2-.4c0-.2,0-.3,0-.5s0-.3,0-.5.1-.3.3-.4c.1-.1.2-.2.4-.3.2,0,.3,0,.5,0s.4,0,.6.1.3.2.4.3c.1.2.2.4.2.6,0,.2,0,.6,0,.9s0,.2,0,.3c0,.1,0,.2,0,.4,0,.1,0,.3-.1.4,0,.1-.1.3-.2.4s-.2.2-.4.3c-.1,0-.3.1-.5.1-.3,0-.6,0-.8-.2-.2-.2-.3-.4-.3-.7h.3c0,.2.1.4.2.5ZM236.7,45.9c.1,0,.2-.1.3-.2s.1-.2.2-.3c0-.1,0-.2,0-.4s0-.3,0-.4,0-.2-.2-.3c0,0-.2-.2-.3-.2-.1,0-.3,0-.4,0s-.2,0-.4,0c-.1,0-.2.1-.3.2,0,0-.1.2-.2.3,0,.1,0,.2,0,.4s0,.3,0,.4c0,.1,0,.2.2.3s.2.2.3.2c.1,0,.2,0,.4,0s.3,0,.4,0Z"/>
    <path d="M238.8,47.5c0,0,0,.2,0,.2,0,0,0,.1,0,.2,0,0,0,.1-.1.2,0,0-.1,0-.2.1v-.2s0,0,.1,0,0,0,0-.1,0,0,0-.1c0,0,0,0,0-.1h-.2v-.6h.4v.6Z"/>
    <path d="M239.6,45.9h1.3v.3h-1.3v-.3Z"/>
    <path d="M242.1,47.1c.1.1.3.2.5.2s.4,0,.5-.2.2-.2.3-.4c0-.2.1-.3.1-.5,0-.2,0-.4,0-.5h0c0,.2-.2.3-.4.4-.2.1-.4.2-.6.2s-.4,0-.5,0c-.2,0-.3-.1-.4-.3s-.2-.2-.2-.4c0-.2,0-.3,0-.5s0-.3,0-.5.1-.3.3-.4c.1-.1.2-.2.4-.3.2,0,.3,0,.5,0s.4,0,.6.1.3.2.4.3c.1.2.2.4.2.6,0,.2,0,.6,0,.9s0,.2,0,.3c0,.1,0,.2,0,.4,0,.1,0,.3-.1.4,0,.1-.1.3-.2.4s-.2.2-.4.3c-.1,0-.3.1-.5.1-.3,0-.6,0-.8-.2-.2-.2-.3-.4-.3-.7h.3c0,.2.1.4.2.5ZM243.1,45.9c.1,0,.2-.1.3-.2s.1-.2.2-.3c0-.1,0-.2,0-.4s0-.3,0-.4,0-.2-.2-.3c0,0-.2-.2-.3-.2-.1,0-.3,0-.4,0s-.2,0-.4,0c-.1,0-.2.1-.3.2,0,0-.1.2-.2.3,0,.1,0,.2,0,.4s0,.3,0,.4c0,.1,0,.2.2.3s.2.2.3.2c.1,0,.2,0,.4,0s.3,0,.4,0Z"/>
    <path d="M245,47.1c.1.1.3.2.5.2s.4,0,.5-.2.2-.2.3-.4c0-.2.1-.3.1-.5,0-.2,0-.4,0-.5h0c0,.2-.2.3-.4.4-.2.1-.4.2-.6.2s-.4,0-.5,0c-.2,0-.3-.1-.4-.3s-.2-.2-.2-.4c0-.2,0-.3,0-.5s0-.3,0-.5.1-.3.3-.4c.1-.1.2-.2.4-.3.2,0,.3,0,.5,0s.4,0,.6.1.3.2.4.3c.1.2.2.4.2.6,0,.2,0,.6,0,.9s0,.2,0,.3c0,.1,0,.2,0,.4,0,.1,0,.3-.1.4,0,.1-.1.3-.2.4s-.2.2-.4.3c-.1,0-.3.1-.5.1-.3,0-.6,0-.8-.2-.2-.2-.3-.4-.3-.7h.3c0,.2.1.4.2.5ZM246,45.9c.1,0,.2-.1.3-.2s.1-.2.2-.3c0-.1,0-.2,0-.4s0-.3,0-.4,0-.2-.2-.3c0,0-.2-.2-.3-.2-.1,0-.3,0-.4,0s-.2,0-.4,0c-.1,0-.2.1-.3.2,0,0-.1.2-.2.3,0,.1,0,.2,0,.4s0,.3,0,.4c0,.1,0,.2.2.3s.2.2.3.2c.1,0,.2,0,.4,0s.3,0,.4,0Z"/>
    <path d="M248,47.1c.1.1.3.2.5.2s.4,0,.5-.2.2-.2.3-.4c0-.2.1-.3.1-.5,0-.2,0-.4,0-.5h0c0,.2-.2.3-.4.4-.2.1-.4.2-.6.2s-.4,0-.5,0c-.2,0-.3-.1-.4-.3s-.2-.2-.2-.4c0-.2,0-.3,0-.5s0-.3,0-.5.1-.3.3-.4c.1-.1.2-.2.4-.3.2,0,.3,0,.5,0s.4,0,.6.1.3.2.4.3c.1.2.2.4.2.6,0,.2,0,.6,0,.9s0,.2,0,.3c0,.1,0,.2,0,.4,0,.1,0,.3-.1.4,0,.1-.1.3-.2.4s-.2.2-.4.3c-.1,0-.3.1-.5.1-.3,0-.6,0-.8-.2-.2-.2-.3-.4-.3-.7h.3c0,.2.1.4.2.5ZM248.9,45.9c.1,0,.2-.1.3-.2s.1-.2.2-.3c0-.1,0-.2,0-.4s0-.3,0-.4,0-.2-.2-.3c0,0-.2-.2-.3-.2-.1,0-.3,0-.4,0s-.2,0-.4,0c-.1,0-.2.1-.3.2,0,0-.1.2-.2.3,0,.1,0,.2,0,.4s0,.3,0,.4c0,.1,0,.2.2.3s.2.2.3.2c.1,0,.2,0,.4,0s.3,0,.4,0Z"/>
    <path d="M250.9,47.1c.1.1.3.2.5.2s.4,0,.5-.2.2-.2.3-.4c0-.2.1-.3.1-.5,0-.2,0-.4,0-.5h0c0,.2-.2.3-.4.4-.2.1-.4.2-.6.2s-.4,0-.5,0c-.2,0-.3-.1-.4-.3s-.2-.2-.2-.4c0-.2,0-.3,0-.5s0-.3,0-.5.1-.3.3-.4c.1-.1.2-.2.4-.3.2,0,.3,0,.5,0s.4,0,.6.1.3.2.4.3c.1.2.2.4.2.6,0,.2,0,.6,0,.9s0,.2,0,.3c0,.1,0,.2,0,.4,0,.1,0,.3-.1.4,0,.1-.1.3-.2.4s-.2.2-.4.3c-.1,0-.3.1-.5.1-.3,0-.6,0-.8-.2-.2-.2-.3-.4-.3-.7h.3c0,.2.1.4.2.5ZM251.9,45.9c.1,0,.2-.1.3-.2s.1-.2.2-.3c0-.1,0-.2,0-.4s0-.3,0-.4,0-.2-.2-.3c0,0-.2-.2-.3-.2-.1,0-.3,0-.4,0s-.2,0-.4,0c-.1,0-.2.1-.3.2,0,0-.1.2-.2.3,0,.1,0,.2,0,.4s0,.3,0,.4c0,.1,0,.2.2.3s.2.2.3.2c.1,0,.2,0,.4,0s.3,0,.4,0Z"/>
    <path d="M253.9,47.5c0,0,0,.2,0,.2,0,0,0,.1,0,.2,0,0,0,.1-.1.2,0,0-.1,0-.2.1v-.2s0,0,.1,0,0,0,0-.1,0,0,0-.1c0,0,0,0,0-.1h-.2v-.6h.4v.6Z"/>
    <path d="M255,46.9h.4v.6h-.4v-.6Z"/>
    <path d="M256.4,46.9h.4v.6h-.4v-.6Z"/>
    <path d="M257.9,46.9h.4v.6h-.4v-.6Z"/>
    <path d="M259.4,46.9h.4v.6h-.4v-.6Z"/>
    <path d="M260.8,46.9h.4v.6h-.4v-.6Z"/>
    <path d="M262.3,46.9h.4v.6h-.4v-.6Z"/>
    <path d="M263.8,46.9h.4v.6h-.4v-.6Z"/>
    <path d="M265.2,46.9h.4v.6h-.4v-.6Z"/>
    <path d="M266.7,46.9h.4v.6h-.4v-.6Z"/>
    <path d="M268.2,46.9h.4v.6h-.4v-.6Z"/>
    <path d="M269.6,46.9h.4v.6h-.4v-.6Z"/>
    <path d="M271.1,46.9h.4v.6h-.4v-.6Z"/>
    <path d="M272.6,46.9h.4v.6h-.4v-.6Z"/>
    <path d="M274,46.9h.4v.6h-.4v-.6Z"/>
    <path d="M275.5,46.9h.4v.6h-.4v-.6Z"/>
    <path d="M277,46.9h.4v.6h-.4v-.6Z"/>
    <path d="M278.4,46.9h.4v.6h-.4v-.6Z"/>
    <path d="M279.9,46.9h.4v.6h-.4v-.6Z"/>
  </g>
  <g>
    <path d="M194.8,51.5c.1,0,.2,0,.3,0,0,0,.2-.1.2-.2s0-.2.1-.4h.3v3.7h-.3v-2.7h-1v-.2c.1,0,.3,0,.4,0Z"/>
    <path d="M197,54.5c0-.2,0-.3,0-.5s.1-.3.2-.4c0-.1.2-.2.3-.3.1,0,.2-.2.4-.3.1,0,.3-.2.4-.3.1,0,.2-.2.3-.3s.2-.2.2-.3c0-.1,0-.2,0-.4s0-.2,0-.3c0,0-.1-.2-.2-.2s-.2-.1-.3-.1c-.1,0-.2,0-.3,0s-.3,0-.4,0c-.1,0-.2.1-.3.2,0,0-.1.2-.1.3,0,.1,0,.3,0,.4h-.3c0-.2,0-.4,0-.5,0-.2.1-.3.2-.4,0-.1.2-.2.4-.3.1,0,.3,0,.5,0s.3,0,.5,0c.1,0,.3.1.4.2.1,0,.2.2.2.3s0,.3,0,.5,0,.3,0,.4c0,.1-.1.2-.2.3,0,.1-.2.2-.3.3-.1,0-.2.2-.4.2,0,0-.2.1-.3.2-.1,0-.2.2-.3.2-.1,0-.2.2-.3.3,0,.1-.1.2-.2.3h2.1v.3h-2.4Z"/>
    <path d="M200.3,53.9h.4v.6h-.4v-.6Z"/>
    <path d="M203.3,51.2c-.1-.1-.3-.2-.5-.2s-.4,0-.5.2c-.1.1-.2.2-.3.4,0,.2-.1.3-.1.5,0,.2,0,.4,0,.5h0c0-.2.2-.3.4-.4.2-.1.4-.2.6-.2s.4,0,.5,0c.1,0,.3.1.4.3s.2.2.2.4c0,.2,0,.3,0,.5s0,.3,0,.5-.1.3-.3.4c-.1.1-.2.2-.4.3s-.3,0-.5,0-.4,0-.6-.1c-.2,0-.3-.2-.4-.3s-.2-.4-.2-.6c0-.2,0-.6,0-.9s0-.2,0-.3,0-.2,0-.4,0-.3.1-.4c0-.1.1-.3.2-.4,0-.1.2-.2.4-.3.1,0,.3-.1.5-.1.3,0,.6,0,.8.2s.3.4.3.7h-.3c0-.2-.1-.4-.2-.5ZM202.4,52.4c-.1,0-.2.1-.3.2,0,0-.1.2-.2.3,0,.1,0,.2,0,.4s0,.3,0,.4c0,.1,0,.2.2.3,0,0,.2.2.3.2.1,0,.3,0,.4,0s.3,0,.4,0c.1,0,.2-.1.3-.2s.1-.2.2-.3c0-.1,0-.2,0-.4s0-.3,0-.4c0-.1,0-.2-.2-.3,0,0-.2-.2-.3-.2-.1,0-.2,0-.4,0s-.3,0-.4,0Z"/>
    <path d="M205.1,54.5c0,0,0,.2,0,.2,0,0,0,.1,0,.2,0,0,0,.1-.1.2,0,0-.1,0-.2.1v-.2s0,0,.1,0,0,0,0-.1,0,0,0-.1c0,0,0,0,0-.1h-.2v-.6h.4v.6Z"/>
    <path d="M206.5,51.5c.1,0,.2,0,.3,0,0,0,.2-.1.2-.2s0-.2.1-.4h.3v3.7h-.3v-2.7h-1v-.2c.1,0,.3,0,.4,0Z"/>
    <path d="M211,52.2c-.1.1-.3.2-.4.3h0c.2,0,.4.2.6.3.1.2.2.4.2.6s0,.3-.1.5c0,.1-.2.3-.3.3-.1,0-.3.2-.4.2-.2,0-.3,0-.5,0s-.3,0-.5,0c-.2,0-.3-.1-.4-.2-.1,0-.2-.2-.3-.3,0-.1-.1-.3-.1-.5,0-.2,0-.5.2-.6.1-.2.3-.3.5-.3h0c-.2,0-.3-.2-.4-.3-.1-.1-.2-.3-.2-.5s0-.3,0-.4c0-.1.1-.2.3-.3.1,0,.2-.1.4-.2.1,0,.3,0,.4,0s.3,0,.4,0c.1,0,.3,0,.4.2.1,0,.2.2.3.3,0,.1,0,.3,0,.4s0,.4-.2.5ZM210.4,54.2c.1,0,.2,0,.3-.2,0,0,.2-.2.2-.3s0-.2,0-.4,0-.3,0-.4c0-.1-.1-.2-.2-.3,0,0-.2-.1-.3-.2-.1,0-.2,0-.4,0-.1,0-.2,0-.4,0-.1,0-.2,0-.3.1,0,0-.2.2-.2.3,0,.1,0,.2,0,.4s0,.3,0,.4.1.2.2.3c0,0,.2.1.3.2s.2,0,.4,0,.3,0,.4,0ZM210.3,52.3c0,0,.2,0,.3-.1,0,0,.1-.1.2-.2s0-.2,0-.3,0-.2,0-.3c0,0,0-.1-.2-.2,0,0-.2,0-.2-.1,0,0-.2,0-.3,0s-.2,0-.3,0c0,0-.2,0-.3.1,0,0-.1.1-.2.2s0,.2,0,.3,0,.2,0,.3c0,0,.1.2.2.2s.2,0,.3.1c0,0,.2,0,.3,0,.1,0,.2,0,.3,0Z"/>
    <path d="M212.4,54.5c0,0,0,.2,0,.2,0,0,0,.1,0,.2,0,0,0,.1-.1.2,0,0-.1,0-.2.1v-.2s0,0,.1,0,0,0,0-.1,0,0,0-.1c0,0,0,0,0-.1h-.2v-.6h.4v.6Z"/>
    <path d="M213.5,53.7c0,.1.1.2.2.3s.2.2.3.2.3,0,.4,0,.2,0,.4,0c.1,0,.2,0,.3-.2s.2-.2.2-.3,0-.2,0-.3,0-.2,0-.3c0,0-.1-.2-.2-.2s-.2-.1-.3-.1c-.1,0-.2,0-.3,0h-.3v-.3h.3c0,0,.2,0,.3,0,0,0,.2,0,.2-.1,0,0,.1-.1.2-.2,0,0,0-.2,0-.3s0-.2,0-.3c0,0-.1-.2-.2-.2,0,0-.2-.1-.3-.1s-.2,0-.3,0-.3,0-.4,0c-.1,0-.2.1-.3.2,0,0-.1.2-.2.3,0,.1,0,.2,0,.4h-.3c0-.2,0-.3,0-.5,0-.1.1-.3.2-.4.1-.1.2-.2.4-.3.1,0,.3,0,.5,0s.3,0,.4,0c.1,0,.3,0,.4.2.1,0,.2.2.3.3,0,.1,0,.3,0,.4s0,.4-.2.5c-.1.1-.3.2-.5.3h0c.2,0,.4.2.6.3s.2.4.2.6,0,.3-.1.5-.2.3-.3.4-.3.2-.4.2c-.2,0-.3,0-.5,0s-.4,0-.5,0c-.2,0-.3-.1-.4-.2s-.2-.2-.3-.4c0-.2,0-.3,0-.5h.3c0,.1,0,.3,0,.4Z"/>
    <path d="M216.8,54.5c0,0,0,.2,0,.2,0,0,0,.1,0,.2,0,0,0,.1-.1.2,0,0-.1,0-.2.1v-.2s0,0,.1,0,0,0,0-.1,0,0,0-.1c0,0,0,0,0-.1h-.2v-.6h.4v.6Z"/>
    <path d="M217.7,52.9h1.3v.3h-1.3v-.3Z"/>
    <path d="M219.5,54.5c0-.2,0-.3,0-.5s.1-.3.2-.4c0-.1.2-.2.3-.3.1,0,.2-.2.4-.3.1,0,.3-.2.4-.3.1,0,.2-.2.3-.3s.2-.2.2-.3c0-.1,0-.2,0-.4s0-.2,0-.3c0,0-.1-.2-.2-.2s-.2-.1-.3-.1c-.1,0-.2,0-.3,0s-.3,0-.4,0c-.1,0-.2.1-.3.2,0,0-.1.2-.1.3,0,.1,0,.3,0,.4h-.3c0-.2,0-.4,0-.5,0-.2.1-.3.2-.4,0-.1.2-.2.4-.3.1,0,.3,0,.5,0s.3,0,.5,0c.1,0,.3.1.4.2.1,0,.2.2.2.3s0,.3,0,.5,0,.3,0,.4c0,.1-.1.2-.2.3,0,.1-.2.2-.3.3-.1,0-.2.2-.4.2,0,0-.2.1-.3.2-.1,0-.2.2-.3.2-.1,0-.2.2-.3.3,0,.1-.1.2-.2.3h2.1v.3h-2.4Z"/>
    <path d="M222.7,53.9h.4v.6h-.4v-.6Z"/>
    <path d="M225.8,50.9c.2.1.3.3.4.5,0,.2.2.4.2.6s0,.4,0,.7,0,.4,0,.7c0,.2,0,.4-.2.6,0,.2-.2.3-.4.4-.2.1-.4.2-.7.2s-.5,0-.7-.2c-.2-.1-.3-.3-.4-.4,0-.2-.2-.4-.2-.6,0-.2,0-.4,0-.7s0-.4,0-.7c0-.2,0-.4.2-.6,0-.2.2-.3.4-.5.2-.1.4-.2.7-.2s.5,0,.7.2ZM224.6,51.2c-.1.1-.2.2-.3.4,0,.2-.1.3-.1.5s0,.4,0,.5,0,.3,0,.5,0,.4.1.5c0,.2.2.3.3.4s.3.2.5.2.4,0,.5-.2c.1-.1.2-.2.3-.4s.1-.3.1-.5c0-.2,0-.4,0-.5s0-.3,0-.5c0-.2,0-.4-.1-.5s-.2-.3-.3-.4c-.1-.1-.3-.2-.5-.2s-.4,0-.5.2Z"/>
    <path d="M227.6,54.5c0,0,0,.2,0,.2,0,0,0,.1,0,.2,0,0,0,.1-.1.2,0,0-.1,0-.2.1v-.2s0,0,.1,0,0,0,0-.1,0,0,0-.1c0,0,0,0,0-.1h-.2v-.6h.4v.6Z"/>
    <path d="M228.6,53.9h.4v.6h-.4v-.6Z"/>
    <path d="M230.1,53.9h.4v.6h-.4v-.6Z"/>
    <path d="M231.5,53.9h.4v.6h-.4v-.6Z"/>
    <path d="M233,53.9h.4v.6h-.4v-.6Z"/>
    <path d="M234.5,53.9h.4v.6h-.4v-.6Z"/>
    <path d="M235.9,53.9h.4v.6h-.4v-.6Z"/>
    <path d="M237.4,53.9h.4v.6h-.4v-.6Z"/>
    <path d="M238.9,53.9h.4v.6h-.4v-.6Z"/>
    <path d="M240.3,53.9h.4v.6h-.4v-.6Z"/>
    <path d="M241.8,53.9h.4v.6h-.4v-.6Z"/>
    <path d="M243.3,53.9h.4v.6h-.4v-.6Z"/>
    <path d="M244.7,53.9h.4v.6h-.4v-.6Z"/>
    <path d="M246.2,53.9h.4v.6h-.4v-.6Z"/>
    <path d="M247.7,53.9h.4v.6h-.4v-.6Z"/>
    <path d="M249.1,53.9h.4v.6h-.4v-.6Z"/>
    <path d="M250.6,53.9h.4v.6h-.4v-.6Z"/>
  </g>
  <g>
    <path d="M199.2,68v-.4h.6v.4h-.6Z"/>
    <path d="M199.2,66.6v-.4h.6v.4h-.6Z"/>
    <path d="M199.2,65.1v-.4h.6v.4h-.6Z"/>
    <path d="M199.2,63.6v-.4h.6v.4h-.6Z"/>
    <path d="M199.2,62.2v-.4h.6v.4h-.6Z"/>
    <path d="M199.2,60.7v-.4h.6v.4h-.6Z"/>
  </g>
  <g>
    <path class="st15" d="M372.5,146.5v-3.3h-1.2v-.4c.2,0,.3,0,.5,0,.1,0,.3,0,.4-.1s.2-.2.3-.3c0-.1.1-.3.2-.4h.4v4.6h-.5Z"/>
    <path class="st15" d="M374.8,142.6c0-.1.2-.3.3-.4.1,0,.3-.2.4-.2.2,0,.3,0,.5,0s.5,0,.6,0c.2,0,.3.2.4.3s.2.2.2.4c0,.1,0,.3,0,.4s0,.4-.2.6c-.1.2-.3.3-.5.4.3,0,.5.2.6.4.1.2.2.4.2.7s0,.4-.1.6c0,.2-.2.3-.3.4-.1.1-.3.2-.5.3-.2,0-.4,0-.6,0s-.4,0-.6,0c-.2,0-.4-.1-.5-.3-.1-.1-.2-.3-.3-.4,0-.2-.1-.4-.1-.6s0-.5.2-.7c.1-.2.3-.3.6-.4-.2,0-.3-.2-.5-.4-.1-.2-.2-.4-.2-.6s0-.4.1-.5ZM375.4,145.8c.2.2.4.2.7.2s.3,0,.4,0c.1,0,.2-.1.3-.2,0,0,.1-.2.2-.3s0-.2,0-.4,0-.2,0-.3c0-.1-.1-.2-.2-.3s-.2-.1-.3-.2c-.1,0-.2,0-.4,0s-.3,0-.4,0-.2,0-.3.2c0,0-.2.2-.2.3,0,.1,0,.2,0,.4,0,.3,0,.5.3.6ZM375.4,143.4c0,0,.1.2.2.2,0,0,.2.1.3.1,0,0,.2,0,.3,0,.2,0,.4,0,.5-.2s.2-.3.2-.5,0-.4-.2-.5c-.1-.1-.3-.2-.6-.2s-.2,0-.3,0c0,0-.2,0-.3.1,0,0-.1.1-.2.2s0,.2,0,.3,0,.2,0,.3Z"/>
    <path class="st15" d="M378.2,143.7c0-.2,0-.4,0-.5,0-.2,0-.3.1-.5,0-.2.2-.3.3-.4.1-.1.3-.2.4-.3.2,0,.4-.1.6-.1s.4,0,.6.1c.2,0,.3.2.4.3.1.1.2.3.3.4,0,.2.1.3.1.5s0,.3,0,.5,0,.4,0,.5,0,.3,0,.5,0,.4,0,.5,0,.3-.1.5-.2.3-.3.4c-.1.1-.3.2-.4.3-.2,0-.4,0-.6,0s-.4,0-.6,0-.3-.2-.4-.3c-.1-.1-.2-.3-.3-.4s-.1-.3-.1-.5c0-.2,0-.3,0-.5,0-.2,0-.4,0-.5s0-.3,0-.5ZM378.8,144.8c0,.2,0,.4.1.6,0,.2.2.3.3.5s.3.2.5.2.4,0,.5-.2.2-.3.3-.5,0-.4.1-.6c0-.2,0-.4,0-.6s0-.2,0-.4c0-.1,0-.3,0-.4,0-.1,0-.3,0-.4s0-.2-.2-.3c0,0-.2-.2-.3-.2-.1,0-.2,0-.4,0s-.3,0-.4,0c-.1,0-.2.1-.3.2,0,0-.1.2-.2.3,0,.1,0,.3,0,.4,0,.1,0,.3,0,.4,0,.1,0,.3,0,.4,0,.2,0,.4,0,.6Z"/>
    <path class="st15" d="M381.6,143.1h.7l.8,1.2.8-1.2h.7l-1.1,1.5,1.3,1.8h-.7l-.9-1.4-.9,1.4h-.7l1.2-1.8-1.2-1.6Z"/>
    <path class="st15" d="M386.3,143.9h.2c.1,0,.2,0,.3,0s.2,0,.3-.1c0,0,.1-.1.2-.2,0,0,0-.2,0-.3,0-.2,0-.4-.2-.6-.2-.1-.3-.2-.6-.2s-.3,0-.4,0-.2.1-.3.2c0,0-.1.2-.2.3s0,.2,0,.4h-.5c0-.2,0-.4.1-.6,0-.2.2-.3.3-.5s.3-.2.4-.3c.2,0,.4-.1.6-.1s.4,0,.6,0c.2,0,.3.1.4.2.1,0,.2.2.3.4,0,.2.1.3.1.5s0,.4-.2.5-.3.3-.5.4h0c.3,0,.5.2.6.4.1.2.2.4.2.7s0,.4-.1.6c0,.2-.2.3-.3.4-.1.1-.3.2-.5.3-.2,0-.4,0-.6,0s-.4,0-.6,0c-.2,0-.4-.2-.5-.3s-.2-.3-.3-.5c0-.2-.1-.4-.1-.6h.5c0,.3,0,.5.3.7s.4.3.7.3.3,0,.4,0c.1,0,.2,0,.3-.2,0,0,.2-.2.2-.3,0-.1,0-.2,0-.4s0-.3,0-.4c0-.1-.1-.2-.2-.3s-.2-.1-.3-.2c-.1,0-.2,0-.4,0s-.2,0-.3,0v-.5s0,0,0,0Z"/>
    <path class="st15" d="M390.8,142.6c-.1-.1-.3-.2-.5-.2s-.4,0-.6.2-.3.3-.3.4-.1.4-.2.6c0,.2,0,.4,0,.6h0c.1-.2.3-.3.5-.4.2,0,.4-.1.7-.1s.4,0,.6.1.3.2.4.3c.1.1.2.3.3.5s0,.4,0,.6,0,.3,0,.5-.1.3-.3.5c-.1.1-.3.3-.5.4-.2,0-.4.1-.7.1s-.6,0-.8-.2-.4-.3-.5-.5c-.1-.2-.2-.5-.2-.7s0-.5,0-.7,0-.6,0-.9.1-.6.3-.8.3-.4.5-.5c.2-.1.5-.2.8-.2s.7,0,.9.3.4.5.4.9h-.5c0-.2-.1-.4-.2-.5ZM389.8,144.1c-.1,0-.2.1-.3.2,0,0-.1.2-.2.3s0,.3,0,.4,0,.3,0,.4c0,.1.1.2.2.3,0,0,.2.2.3.2s.3,0,.4,0,.3,0,.4,0c.1,0,.2-.1.3-.2s.1-.2.2-.3c0-.1,0-.3,0-.4s0-.3,0-.4c0-.1,0-.2-.2-.3s-.2-.2-.3-.2c-.1,0-.3,0-.4,0s-.3,0-.4,0Z"/>
    <path class="st15" d="M392.3,143.7c0-.2,0-.4,0-.5,0-.2,0-.3.1-.5,0-.2.2-.3.3-.4.1-.1.3-.2.4-.3.2,0,.4-.1.6-.1s.4,0,.6.1c.2,0,.3.2.4.3.1.1.2.3.3.4,0,.2.1.3.1.5s0,.3,0,.5,0,.4,0,.5,0,.3,0,.5,0,.4,0,.5,0,.3-.1.5-.2.3-.3.4c-.1.1-.3.2-.4.3-.2,0-.4,0-.6,0s-.4,0-.6,0-.3-.2-.4-.3c-.1-.1-.2-.3-.3-.4s-.1-.3-.1-.5c0-.2,0-.3,0-.5,0-.2,0-.4,0-.5s0-.3,0-.5ZM392.8,144.8c0,.2,0,.4.1.6,0,.2.2.3.3.5s.3.2.5.2.4,0,.5-.2.2-.3.3-.5,0-.4.1-.6c0-.2,0-.4,0-.6s0-.2,0-.4c0-.1,0-.3,0-.4,0-.1,0-.3,0-.4s0-.2-.2-.3c0,0-.2-.2-.3-.2-.1,0-.2,0-.4,0s-.3,0-.4,0c-.1,0-.2.1-.3.2,0,0-.1.2-.2.3,0,.1,0,.3,0,.4,0,.1,0,.3,0,.4,0,.1,0,.3,0,.4,0,.2,0,.4,0,.6Z"/>
    <path class="st15" d="M398.2,147c-.1-.2-.2-.5-.3-.7,0-.2-.2-.5-.2-.8,0-.3,0-.5,0-.8,0-.5,0-1,.3-1.5.2-.5.4-1,.8-1.4h.4c-.3.5-.5,1-.7,1.5-.1.5-.2,1-.2,1.5s0,1.1.2,1.5.3,1,.7,1.5h-.4c-.2-.2-.3-.5-.4-.7Z"/>
    <path class="st15" d="M400.8,146.5v-3.3h-1.2v-.4c.2,0,.3,0,.5,0,.1,0,.3,0,.4-.1s.2-.2.3-.3c0-.1.1-.3.2-.4h.4v4.6h-.5Z"/>
    <path class="st15" d="M403,142.5c0-.1.1-.2.2-.3,0,0,.2-.2.3-.2.1,0,.2,0,.4,0s.2,0,.4,0,.2.1.3.2c0,0,.2.2.2.3,0,.1,0,.2,0,.4s0,.3,0,.4c0,.1-.1.2-.2.3,0,0-.2.1-.3.2s-.2,0-.4,0-.3,0-.4,0c-.1,0-.2-.1-.3-.2s-.1-.2-.2-.3c0-.1,0-.2,0-.4s0-.2,0-.4ZM403.3,143c0,0,0,.1.1.2s.1.1.2.1.2,0,.3,0,.2,0,.3,0,.1,0,.2-.1,0-.1.1-.2c0,0,0-.1,0-.2s0-.2,0-.2c0,0,0-.1-.1-.2,0,0-.1-.1-.2-.1s-.2,0-.3,0-.2,0-.3,0-.1,0-.2.1c0,0,0,.1-.1.2,0,0,0,.1,0,.2s0,.2,0,.2Z"/>
    <path class="st15" d="M405.3,143.1h.7l.8,1.2.8-1.2h.7l-1.1,1.5,1.3,1.8h-.7l-.9-1.4-.9,1.4h-.7l1.2-1.8-1.2-1.6Z"/>
    <path class="st15" d="M410.3,146.5v-3.3h-1.2v-.4c.2,0,.3,0,.5,0,.1,0,.3,0,.4-.1s.2-.2.3-.3c0-.1.1-.3.2-.4h.4v4.6h-.5Z"/>
    <path class="st15" d="M412.5,142.5c0-.1.1-.2.2-.3,0,0,.2-.2.3-.2.1,0,.2,0,.4,0s.2,0,.4,0c.1,0,.2.1.3.2,0,0,.2.2.2.3,0,.1,0,.2,0,.4s0,.3,0,.4c0,.1-.1.2-.2.3s-.2.1-.3.2c-.1,0-.2,0-.4,0s-.2,0-.4,0c-.1,0-.2-.1-.3-.2,0,0-.1-.2-.2-.3,0-.1,0-.2,0-.4s0-.2,0-.4ZM412.8,143c0,0,0,.1.1.2,0,0,.1.1.2.1s.2,0,.3,0,.2,0,.3,0,.1,0,.2-.1c0,0,0-.1.1-.2,0,0,0-.1,0-.2s0-.2,0-.2c0,0,0-.1-.1-.2,0,0-.1-.1-.2-.1s-.2,0-.3,0-.2,0-.3,0-.1,0-.2.1c0,0,0,.1-.1.2,0,0,0,.1,0,.2s0,.2,0,.2Z"/>
    <path class="st15" d="M415.3,146.3c.1-.5.2-1,.2-1.5s0-1.1-.2-1.5c-.1-.5-.3-1-.6-1.5h.4c.2.2.3.5.4.7.1.2.2.5.3.7s.2.5.2.8,0,.5,0,.8c0,.5,0,1-.3,1.5-.2.5-.4,1-.8,1.4h-.4c.3-.5.5-1,.7-1.5Z"/>
  </g>
  <path d="M487.8,20.1l2.6,4.2h0v-4.2h1.3v6.3h-1.4l-2.6-4.2h0v4.2h-1.3v-6.3h1.4Z"/>
  <path d="M487.9,147.8c0,.1.2.3.3.4s.3.2.4.2.3,0,.5,0,.3,0,.4,0,.3,0,.4-.1c.1,0,.2-.1.3-.2s.1-.2.1-.4,0-.3-.2-.4c-.1-.1-.3-.2-.4-.3s-.4-.1-.6-.2-.4-.1-.7-.2c-.2,0-.5-.1-.7-.2s-.4-.2-.6-.3-.3-.3-.4-.5-.2-.4-.2-.7,0-.6.2-.8.3-.4.5-.6c.2-.2.5-.3.8-.4s.6-.1.8-.1.6,0,.9.1.6.2.8.4.4.4.6.6.2.6.2.9h-1.3c0-.2,0-.3-.1-.5,0-.1-.2-.2-.3-.3s-.2-.1-.4-.1-.3,0-.5,0-.2,0-.3,0-.2,0-.3.1-.2.1-.2.2,0,.2,0,.3,0,.2,0,.3.1.1.3.2.3.1.6.2.6.1,1,.2c.1,0,.3,0,.5.1.2,0,.4.2.6.3s.4.3.5.5.2.5.2.9,0,.6-.2.8-.3.5-.5.6-.5.3-.8.4-.7.1-1.1.1-.7,0-1-.1-.6-.2-.9-.4-.4-.4-.6-.7-.2-.6-.2-1h1.3c0,.2,0,.4.1.5Z"/>
  <g>
    <path d="M427.9,82.9v.6h-2.8v1.6h2.6v.6h-2.6v1.7h2.8v.6h-3.5v-5h3.5Z"/>
    <path d="M431.3,89.3v-1.9h0c0,.2-.3.3-.5.4s-.4.1-.7.1-.5,0-.7-.2c-.2-.1-.4-.2-.5-.4-.1-.2-.2-.4-.3-.6s-.1-.5-.1-.7,0-.5.1-.7c0-.2.2-.4.3-.6.1-.2.3-.3.5-.4.2-.1.5-.2.7-.2s.2,0,.3,0c.1,0,.2,0,.3,0s.2.1.3.2c0,0,.2.2.2.3h0v-.5h.6v5h-.6ZM429.2,86.6c0,.2.1.3.2.4,0,.1.2.2.4.3.1,0,.3.1.5.1s.4,0,.5-.1c.1,0,.3-.2.3-.3,0-.1.2-.3.2-.4s0-.3,0-.5,0-.4,0-.5c0-.2-.1-.3-.2-.4,0-.1-.2-.2-.4-.3s-.3-.1-.5-.1-.4,0-.5.1c-.1,0-.3.2-.3.3,0,.1-.1.3-.2.5,0,.2,0,.3,0,.5s0,.3,0,.5Z"/>
  </g>
  <g>
    <path class="st0" d="M479.8,65.7v.5h-.7v1.2h-.6v-1.2h-2.2v-.6l2.3-3.2h.5v3.3h.7ZM478.6,63.2h0l-1.7,2.4h1.7v-2.4Z"/>
    <path class="st0" d="M481.4,63l-.3,1.4h0c.1-.1.2-.2.4-.3s.3,0,.5,0,.4,0,.6.1c.2,0,.4.2.5.3.1.1.3.3.3.5,0,.2.1.5.1.7s0,.4-.1.6c0,.2-.2.4-.3.5-.1.2-.3.3-.5.4-.2,0-.5.1-.8.1s-.4,0-.6,0c-.2,0-.4-.2-.5-.3-.1-.1-.3-.3-.3-.4,0-.2-.1-.4-.1-.6h.6c0,.1,0,.2,0,.4,0,.1.1.2.2.3,0,0,.2.1.3.2.1,0,.3,0,.4,0s.3,0,.4,0,.2-.1.3-.2c0,0,.2-.2.2-.4,0-.1,0-.3,0-.5s0-.3,0-.5-.1-.3-.2-.4c0-.1-.2-.2-.4-.2-.1,0-.3,0-.5,0s-.4,0-.5.1c-.2,0-.3.2-.4.3h-.5s.5-2.6.5-2.6h2.5v.5h-2Z"/>
    <path class="st0" d="M484.5,63c0-.1.1-.2.2-.3,0,0,.2-.2.3-.2.1,0,.3,0,.4,0s.3,0,.4,0c.1,0,.2.1.3.2,0,0,.2.2.2.3,0,.1,0,.3,0,.4s0,.3,0,.4-.1.2-.2.3c0,0-.2.2-.3.2-.1,0-.3,0-.4,0s-.3,0-.4,0c-.1,0-.2-.1-.3-.2,0,0-.2-.2-.2-.3s0-.3,0-.4,0-.3,0-.4ZM484.8,63.6c0,0,0,.1.1.2,0,0,.1.1.2.2,0,0,.2,0,.3,0s.2,0,.3,0c0,0,.2,0,.2-.2,0,0,0-.1.1-.2,0,0,0-.2,0-.2s0-.2,0-.2c0,0,0-.1-.1-.2,0,0-.1-.1-.2-.2s-.2,0-.3,0-.2,0-.3,0-.2,0-.2.2c0,0,0,.1-.1.2,0,0,0,.2,0,.2s0,.2,0,.2Z"/>
  </g>
  <path class="st1" d="M489.1,137.7c-29.1,0-52.7-23.6-52.7-52.7s23.6-52.7,52.7-52.7"/>
  <path class="st3" d="M489.1,137.7c-29.1,0-52.7-23.6-52.7-52.7s23.6-52.7,52.7-52.7"/>
  <line class="st12" x1="488.8" y1="137.7" x2="488.8" y2="32.2"/>
  <line class="st7" x1="489.1" y1="84.8" x2="436.4" y2="84.8"/>
  <line class="st9" x1="489.1" y1="84.9" x2="451.8" y2="47.7"/>
  <line class="st9" x1="489.1" y1="84.9" x2="451.8" y2="122.2"/>
  <path class="st7" d="M479.7,75.6c2.3-2.9,5.7-4.8,9.4-5.3"/>
  <path d="M304,143.1l2.6,4.2h0v-4.2h1.3v6.3h-1.4l-2.6-4.2h0v4.2h-1.3v-6.3h1.4Z"/>
  <path d="M227.6,210.6v1.2h-3.3v1.3h3v1.1h-3v1.5h3.4v1.2h-4.8v-6.3h4.7Z"/>
  <path d="M377.9,205l-1.1-4.3h0l-1,4.3h-1.4l-1.7-6.3h1.4l1,4.3h0l1.1-4.3h1.3l1.1,4.3h0l1-4.3h1.4l-1.7,6.3h-1.4Z"/>
  <g>
    <path class="st13" d="M234.4,215.3c.2.1.4.2.6.2.4,0,.6-.2.8-.5.2-.3.3-.8.3-1.5h0c-.1.2-.3.4-.5.5-.2.1-.4.2-.7.2s-.5,0-.7-.1c-.2,0-.4-.2-.5-.3-.1-.1-.2-.3-.3-.5s-.1-.4-.1-.7,0-.5.1-.7.2-.4.3-.5c.1-.1.3-.3.5-.3.2,0,.4-.1.7-.1s.5,0,.7.1c.2,0,.4.2.5.4s.3.4.4.7.1.7.1,1.2c0,.9-.1,1.5-.4,2-.3.5-.7.7-1.3.7s-.8-.1-1-.3-.4-.5-.5-1h.6c0,.2.1.4.3.6ZM235.9,212.2c0-.1-.1-.3-.2-.4,0-.1-.2-.2-.3-.2-.1,0-.3,0-.4,0s-.3,0-.5,0c-.1,0-.2.2-.3.3,0,.1-.1.2-.2.4s0,.3,0,.4,0,.3,0,.4c0,.1.1.2.2.3s.2.2.3.2c.1,0,.3,0,.4,0s.3,0,.4,0,.2-.1.3-.2c0-.1.2-.2.2-.4,0-.1,0-.3,0-.4s0-.3,0-.4Z"/>
    <path class="st13" d="M237.3,212.9c0-.2,0-.4,0-.6,0-.2,0-.4.2-.5,0-.2.2-.3.3-.4.1-.1.3-.2.5-.3.2,0,.4-.1.7-.1s.5,0,.7.1c.2,0,.3.2.5.3s.2.3.3.4c0,.2.1.3.2.5,0,.2,0,.4,0,.6,0,.2,0,.4,0,.6s0,.4,0,.6c0,.2,0,.4,0,.6,0,.2,0,.4-.2.5,0,.2-.2.3-.3.4-.1.1-.3.2-.5.3-.2,0-.4.1-.7.1s-.5,0-.7-.1c-.2,0-.3-.2-.5-.3-.1-.1-.2-.3-.3-.4,0-.2-.1-.3-.2-.5,0-.2,0-.4,0-.6,0-.2,0-.4,0-.6s0-.4,0-.6ZM238,214.1c0,.2,0,.5.1.7,0,.2.2.4.3.5.1.1.3.2.6.2s.4,0,.6-.2c.1-.1.2-.3.3-.5,0-.2.1-.4.1-.7,0-.2,0-.4,0-.6s0-.3,0-.4,0-.3,0-.4c0-.1,0-.3,0-.4,0-.1,0-.3-.2-.4,0-.1-.2-.2-.3-.3s-.3,0-.4,0-.3,0-.4,0-.2.2-.3.3c0,.1-.1.2-.2.4,0,.1,0,.3,0,.4,0,.1,0,.3,0,.4,0,.1,0,.3,0,.4,0,.2,0,.4,0,.6Z"/>
    <path class="st13" d="M241.4,211.5c0-.1.1-.2.2-.3,0,0,.2-.2.3-.2s.3,0,.4,0,.3,0,.4,0c.1,0,.2.1.3.2,0,0,.2.2.2.3,0,.1,0,.3,0,.4s0,.3,0,.4c0,.1-.1.2-.2.3,0,0-.2.2-.3.2-.1,0-.3,0-.4,0s-.3,0-.4,0-.2-.1-.3-.2c0,0-.2-.2-.2-.3,0-.1,0-.3,0-.4s0-.3,0-.4ZM241.7,212.2c0,0,0,.1.1.2s.1.1.2.2c0,0,.2,0,.3,0s.2,0,.3,0c0,0,.2,0,.2-.2s0-.1.1-.2c0,0,0-.2,0-.2s0-.2,0-.2c0,0,0-.1-.1-.2,0,0-.1-.1-.2-.2,0,0-.2,0-.3,0s-.2,0-.3,0c0,0-.2,0-.2.2,0,0,0,.1-.1.2,0,0,0,.2,0,.2s0,.2,0,.2Z"/>
  </g>
  <g>
    <path class="st13" d="M369.9,209.9c0-.2.2-.4.3-.6.1-.2.3-.3.5-.4.2,0,.4-.1.7-.1s.4,0,.6,0c.2,0,.4.2.5.3.1.1.3.3.3.4,0,.2.1.4.1.6s0,.4-.1.6c0,.2-.2.3-.3.5-.1.1-.2.3-.4.4-.1.1-.3.2-.4.3-.2,0-.3.2-.5.3-.2,0-.3.2-.4.3-.1.1-.2.2-.3.3,0,.1-.2.3-.2.4h2.6v.5h-3.3c0-.3,0-.5.2-.8,0-.2.2-.4.3-.5.1-.2.3-.3.4-.4s.3-.2.5-.3c.2-.1.4-.3.6-.4.2-.1.3-.2.4-.3.1-.1.2-.2.2-.4,0-.1,0-.3,0-.5s0-.3,0-.4c0-.1-.1-.2-.2-.3,0,0-.2-.1-.3-.2-.1,0-.2,0-.4,0s-.3,0-.4.1c-.1,0-.2.2-.3.3,0,.1-.1.2-.2.4s0,.3,0,.4h-.6c0-.3,0-.5,0-.7Z"/>
    <path class="st13" d="M376.3,210.3c-.2.3-.4.7-.6,1.1s-.3.8-.4,1.2c-.1.4-.2.8-.2,1.2h-.7c0-.4,0-.8.2-1.2.1-.4.3-.8.4-1.2.2-.4.4-.7.6-1s.5-.6.7-.9h-2.6v-.6h3.2v.5c-.3.2-.5.5-.7.9Z"/>
    <path class="st13" d="M377.6,210.8c0-.2,0-.4,0-.6,0-.2,0-.4.2-.5,0-.2.2-.3.3-.4.1-.1.3-.2.5-.3.2,0,.4-.1.7-.1s.5,0,.7.1c.2,0,.3.2.5.3.1.1.2.3.3.4,0,.2.1.3.2.5,0,.2,0,.4,0,.6,0,.2,0,.4,0,.6s0,.4,0,.6c0,.2,0,.4,0,.6,0,.2,0,.4-.2.5,0,.2-.2.3-.3.4-.1.1-.3.2-.5.3-.2,0-.4.1-.7.1s-.5,0-.7-.1c-.2,0-.3-.2-.5-.3-.1-.1-.2-.3-.3-.4,0-.2-.1-.3-.2-.5,0-.2,0-.4,0-.6,0-.2,0-.4,0-.6s0-.4,0-.6ZM378.2,212c0,.2,0,.5.1.7,0,.2.2.4.3.5.1.1.3.2.6.2s.5,0,.6-.2c.1-.1.2-.3.3-.5,0-.2.1-.4.1-.7,0-.2,0-.4,0-.6s0-.3,0-.4c0-.1,0-.3,0-.4,0-.1,0-.3,0-.4s0-.3-.2-.4c0-.1-.2-.2-.3-.3-.1,0-.3,0-.4,0s-.3,0-.4,0c-.1,0-.2.2-.3.3,0,.1-.1.2-.2.4s0,.3,0,.4c0,.1,0,.3,0,.4,0,.1,0,.3,0,.4,0,.2,0,.4,0,.6Z"/>
    <path class="st13" d="M381.7,209.5c0-.1.1-.2.2-.3s.2-.2.3-.2c.1,0,.3,0,.4,0s.3,0,.4,0c.1,0,.2.1.3.2s.2.2.2.3c0,.1,0,.3,0,.4s0,.3,0,.4c0,.1-.1.2-.2.3,0,0-.2.2-.3.2s-.3,0-.4,0-.3,0-.4,0-.2-.1-.3-.2c0,0-.2-.2-.2-.3,0-.1,0-.3,0-.4s0-.3,0-.4ZM382,210.1c0,0,0,.1.1.2,0,0,.1.1.2.2,0,0,.2,0,.3,0s.2,0,.3,0c0,0,.2,0,.2-.2,0,0,0-.1.1-.2s0-.2,0-.2,0-.2,0-.2c0,0,0-.1-.1-.2,0,0-.1-.1-.2-.2,0,0-.2,0-.3,0s-.2,0-.3,0c0,0-.2,0-.2.2,0,0,0,.1-.1.2,0,0,0,.2,0,.2s0,.2,0,.2Z"/>
  </g>
  <g>
    <path class="st13" d="M305.8,243.1v-3.6h-1.3v-.5c.2,0,.3,0,.5,0,.2,0,.3,0,.4-.1s.2-.2.3-.3c0-.1.1-.3.2-.5h.5v5h-.6Z"/>
    <path class="st13" d="M308.4,238.9c0-.2.2-.3.3-.4.1-.1.3-.2.5-.2.2,0,.4,0,.6,0s.5,0,.7.1c.2,0,.3.2.5.3.1.1.2.3.3.4s0,.3,0,.5,0,.4-.2.6c-.1.2-.3.3-.5.4.3,0,.5.2.7.5.1.2.2.5.2.8s0,.5-.1.6c0,.2-.2.3-.4.5s-.3.2-.5.3c-.2,0-.4,0-.6,0s-.5,0-.7,0c-.2,0-.4-.2-.5-.3-.2-.1-.3-.3-.4-.5,0-.2-.1-.4-.1-.7s0-.6.2-.8c.1-.2.4-.4.6-.5-.2,0-.4-.2-.5-.4-.1-.2-.2-.4-.2-.6s0-.4.1-.5ZM309,242.4c.2.2.5.3.8.3s.3,0,.4,0c.1,0,.2-.1.3-.2s.2-.2.2-.3,0-.2,0-.4,0-.3,0-.4c0-.1-.1-.2-.2-.3s-.2-.2-.3-.2c-.1,0-.3,0-.4,0s-.3,0-.4,0c-.1,0-.2.1-.3.2,0,0-.2.2-.2.3s0,.2,0,.4c0,.3,0,.5.3.7ZM308.9,239.8c0,.1.1.2.2.2s.2.1.3.1.2,0,.3,0c.2,0,.4,0,.6-.2s.2-.3.2-.6,0-.4-.2-.6c-.2-.1-.4-.2-.6-.2s-.2,0-.3,0c-.1,0-.2,0-.3.1,0,0-.1.1-.2.2,0,0,0,.2,0,.3s0,.3,0,.4Z"/>
    <path class="st13" d="M312,240.1c0-.2,0-.4,0-.6,0-.2,0-.4.2-.5,0-.2.2-.3.3-.4.1-.1.3-.2.5-.3.2,0,.4-.1.7-.1s.5,0,.7.1c.2,0,.3.2.5.3.1.1.2.3.3.4,0,.2.1.3.2.5,0,.2,0,.4,0,.6,0,.2,0,.4,0,.6s0,.4,0,.6c0,.2,0,.4,0,.6,0,.2,0,.4-.2.5,0,.2-.2.3-.3.4-.1.1-.3.2-.5.3-.2,0-.4.1-.7.1s-.5,0-.7-.1c-.2,0-.3-.2-.5-.3-.1-.1-.2-.3-.3-.4,0-.2-.1-.3-.2-.5,0-.2,0-.4,0-.6,0-.2,0-.4,0-.6s0-.4,0-.6ZM312.6,241.3c0,.2,0,.5.1.7,0,.2.2.4.3.5.1.1.3.2.6.2s.4,0,.6-.2c.1-.1.2-.3.3-.5,0-.2.1-.4.1-.7,0-.2,0-.4,0-.6s0-.3,0-.4,0-.3,0-.4c0-.1,0-.3,0-.4,0-.1,0-.3-.2-.4,0-.1-.2-.2-.3-.3s-.3,0-.4,0-.3,0-.4,0-.2.2-.3.3c0,.1-.1.2-.2.4,0,.1,0,.3,0,.4,0,.1,0,.3,0,.4,0,.1,0,.3,0,.4,0,.2,0,.4,0,.6Z"/>
    <path class="st13" d="M316.1,238.8c0-.1.1-.2.2-.3s.2-.2.3-.2.3,0,.4,0,.3,0,.4,0c.1,0,.2.1.3.2s.2.2.2.3c0,.1,0,.3,0,.4s0,.3,0,.4c0,.1-.1.2-.2.3,0,0-.2.2-.3.2-.1,0-.3,0-.4,0s-.3,0-.4,0-.2-.1-.3-.2c0,0-.2-.2-.2-.3,0-.1,0-.3,0-.4s0-.3,0-.4ZM316.4,239.4c0,0,0,.1.1.2s.1.1.2.2c0,0,.2,0,.3,0s.2,0,.3,0c0,0,.2,0,.2-.2s0-.1.1-.2c0,0,0-.2,0-.2s0-.2,0-.2c0,0,0-.1-.1-.2,0,0-.1-.1-.2-.2,0,0-.2,0-.3,0s-.2,0-.3,0c0,0-.2,0-.2.2,0,0,0,.1-.1.2,0,0,0,.2,0,.2s0,.2,0,.2Z"/>
  </g>
  <g>
    <path class="st13" d="M294.3,180.9c0-.2,0-.3,0-.5s0-.3.1-.4.1-.3.2-.4.2-.2.4-.3c.2,0,.3,0,.6,0s.4,0,.6,0c.2,0,.3.1.4.3s.2.2.2.4.1.3.1.4,0,.3,0,.5,0,.3,0,.5,0,.3,0,.5,0,.3,0,.5,0,.3-.1.4-.1.3-.2.4-.2.2-.4.2-.3,0-.6,0-.4,0-.6,0-.3-.1-.4-.2-.2-.2-.2-.4-.1-.3-.1-.4,0-.3,0-.5,0-.3,0-.5,0-.3,0-.5ZM294.9,181.8c0,.2,0,.4,0,.5s.1.3.3.4.3.2.5.2.4,0,.5-.2.2-.3.3-.4,0-.4,0-.5,0-.4,0-.5,0-.2,0-.3,0-.2,0-.4,0-.2,0-.4,0-.2-.1-.3-.1-.2-.2-.2-.2,0-.4,0-.3,0-.4,0c0,0-.2.1-.2.2s-.1.2-.1.3,0,.2,0,.4,0,.2,0,.4,0,.2,0,.3c0,.2,0,.3,0,.5Z"/>
    <path class="st13" d="M297.7,179.7c0-.1.1-.2.2-.3s.2-.1.3-.2c.1,0,.2,0,.3,0s.2,0,.3,0c.1,0,.2.1.3.2s.1.2.2.3,0,.2,0,.3,0,.2,0,.3-.1.2-.2.3-.2.1-.3.2-.2,0-.3,0-.2,0-.3,0-.2-.1-.3-.2-.1-.2-.2-.3,0-.2,0-.3,0-.2,0-.3ZM298,180.3c0,0,0,.1.1.2s.1,0,.2.1.1,0,.2,0,.2,0,.2,0c0,0,.1,0,.2-.1s0-.1.1-.2,0-.1,0-.2,0-.1,0-.2,0-.1-.1-.2-.1,0-.2-.1c0,0-.1,0-.2,0s-.2,0-.2,0-.1,0-.2.1,0,.1-.1.2,0,.1,0,.2,0,.1,0,.2Z"/>
    <path class="st13" d="M302.1,183.9c-.1-.2-.2-.4-.3-.7s-.1-.5-.2-.7,0-.5,0-.7c0-.5,0-.9.2-1.4s.4-.9.7-1.3h.4c-.3.4-.5.9-.6,1.3s-.2.9-.2,1.4,0,1,.2,1.4.3.9.6,1.3h-.4c-.1-.2-.3-.4-.4-.7Z"/>
    <path class="st13" d="M304.2,181h.2c.1,0,.2,0,.3,0s.2,0,.3-.1.1-.1.2-.2,0-.2,0-.3c0-.2,0-.4-.2-.5s-.3-.2-.5-.2-.2,0-.3,0-.2.1-.2.2-.1.2-.1.3,0,.2,0,.3h-.5c0-.2,0-.4,0-.5s.1-.3.2-.4.2-.2.4-.3.3,0,.5,0,.3,0,.5,0c.2,0,.3.1.4.2s.2.2.3.3,0,.3,0,.5,0,.4-.2.5-.2.3-.4.3h0c.3,0,.4.2.6.4s.2.4.2.7,0,.4-.1.5-.2.3-.3.4-.3.2-.5.2-.4,0-.6,0-.4,0-.6,0-.3-.1-.4-.3-.2-.3-.3-.4,0-.4,0-.6h.5c0,.3,0,.5.2.7s.4.3.6.3.2,0,.3,0,.2,0,.3-.2.1-.2.2-.3,0-.2,0-.3,0-.2,0-.3-.1-.2-.2-.3-.2-.1-.3-.2-.2,0-.3,0-.2,0-.3,0v-.4s0,0,0,0Z"/>
    <path class="st13" d="M308.3,179.8c-.1-.1-.3-.2-.5-.2s-.4,0-.5.2-.2.2-.3.4-.1.3-.1.5,0,.4,0,.5h0c.1-.2.3-.3.4-.4.2,0,.4-.1.6-.1s.4,0,.5.1.3.2.4.3.2.3.2.4,0,.3,0,.5,0,.3,0,.5-.1.3-.2.4-.2.2-.4.3-.4.1-.7.1-.6,0-.7-.2-.3-.3-.4-.5-.2-.4-.2-.6,0-.5,0-.7,0-.6,0-.8.1-.5.2-.7.3-.4.5-.5.4-.2.7-.2.6,0,.8.3.3.4.4.8h-.5c0-.2,0-.3-.2-.5ZM307.4,181.2c-.1,0-.2.1-.3.2,0,0-.1.2-.2.3s0,.2,0,.4,0,.2,0,.4,0,.2.2.3.2.1.3.2c.1,0,.2,0,.4,0s.3,0,.4,0,.2-.1.3-.2.1-.2.2-.3,0-.2,0-.3,0-.3,0-.4,0-.2-.2-.3-.2-.2-.3-.2-.2,0-.4,0-.3,0-.4,0Z"/>
    <path class="st13" d="M309.6,180.9c0-.2,0-.3,0-.5s0-.3.1-.4.1-.3.2-.4.2-.2.4-.3c.2,0,.3,0,.6,0s.4,0,.6,0c.2,0,.3.1.4.3s.2.2.2.4.1.3.1.4,0,.3,0,.5,0,.3,0,.5,0,.3,0,.5,0,.3,0,.5,0,.3-.1.4-.1.3-.2.4-.2.2-.4.2-.3,0-.6,0-.4,0-.6,0-.3-.1-.4-.2-.2-.2-.2-.4-.1-.3-.1-.4,0-.3,0-.5,0-.3,0-.5,0-.3,0-.5ZM310.1,181.8c0,.2,0,.4,0,.5s.1.3.3.4.3.2.5.2.4,0,.5-.2.2-.3.3-.4,0-.4,0-.5,0-.4,0-.5,0-.2,0-.3,0-.2,0-.4,0-.2,0-.4,0-.2-.1-.3-.1-.2-.2-.2-.2,0-.4,0-.3,0-.4,0c0,0-.2.1-.2.2s-.1.2-.1.3,0,.2,0,.4,0,.2,0,.4,0,.2,0,.3c0,.2,0,.3,0,.5Z"/>
    <path class="st13" d="M313,179.7c0-.1.1-.2.2-.3s.2-.1.3-.2c.1,0,.2,0,.3,0s.2,0,.3,0c.1,0,.2.1.3.2s.1.2.2.3,0,.2,0,.3,0,.2,0,.3-.1.2-.2.3-.2.1-.3.2-.2,0-.3,0-.2,0-.3,0-.2-.1-.3-.2-.1-.2-.2-.3,0-.2,0-.3,0-.2,0-.3ZM313.3,180.3c0,0,0,.1.1.2s.1,0,.2.1.1,0,.2,0,.2,0,.2,0c0,0,.1,0,.2-.1s0-.1.1-.2,0-.1,0-.2,0-.1,0-.2,0-.1-.1-.2-.1,0-.2-.1c0,0-.1,0-.2,0s-.2,0-.2,0-.1,0-.2.1,0,.1-.1.2,0,.1,0,.2,0,.1,0,.2Z"/>
    <path class="st13" d="M315.5,183.2c.1-.4.2-.9.2-1.4s0-1-.2-1.4-.3-.9-.6-1.3h.4c.1.2.3.4.4.7s.2.4.3.7.1.5.2.7c0,.2,0,.5,0,.7,0,.5,0,.9-.2,1.4s-.4.9-.7,1.3h-.4c.3-.4.5-.9.6-1.3Z"/>
  </g>
  <path class="st12" d="M246.7,210.9c0-32.4,26.2-58.6,58.6-58.6s58.6,26.2,58.6,58.6"/>
  <path class="st14" d="M363.1,208.9c2.8,12.8-20.8,24-52.7,25.1-31.9,1.1-60-8.3-62.8-21.1-2.8-12.8,20.8-24,52.7-25.1,31.9-1.1,60,8.3,62.8,21.1Z"/>
  <path class="st2" d="M363.1,208.9c2.8,12.8-20.8,24-52.7,25.1s-60-8.3-62.8-21.1c-2.8-12.8,20.8-24,52.7-25.1,31.9-1.1,60,8.3,62.8,21.1Z"/>
  <line class="st10" x1="305.3" y1="210.9" x2="260.4" y2="195.8"/>
  <line class="st10" x1="305.3" y1="210.9" x2="267.6" y2="228.9"/>
  <line class="st5" x1="305.3" y1="210.9" x2="300.2" y2="187.6"/>
  <line class="st11" x1="305.3" y1="210.9" x2="310.4" y2="234.2"/>
  <line class="st6" x1="305.3" y1="210.9" x2="246.9" y2="212.9"/>
  <path class="st5" d="M295.1,207.5c2.1-1.2,5.3-2.1,8.9-2.4"/>
  <path class="st4" d="M264.9,187.6c6.7-2.2,14.2-4,22.4-5.3"/>
  <polyline class="st4" points="267.8 184.9 264.9 187.6 270.8 187.9"/>
</svg>