<?xml version="1.0" encoding="UTF-8"?>
<svg id="Layer_1" xmlns="http://www.w3.org/2000/svg" xmlns:xlink="http://www.w3.org/1999/xlink" version="1.1" viewBox="0 0 618.7 163.4">
  <!-- Generator: Adobe Illustrator 29.2.1, SVG Export Plug-In . SVG Version: 2.1.0 Build 116)  -->
  <defs>
    <style>
      .st0, .st1, .st2 {
        fill: none;
      }

      .st3 {
        fill: #057aa8;
      }

      .st4 {
        isolation: isolate;
        opacity: .2;
      }

      .st5 {
        fill: #7ec01b;
      }

      .st6 {
        clip-path: url(#clippath-1);
      }

      .st7 {
        fill: #fff;
      }

      .st1 {
        stroke: #4d4d4d;
        stroke-width: .5px;
      }

      .st2 {
        stroke: #000;
      }

      .st8 {
        clip-path: url(#clippath);
      }
    </style>
    <clipPath id="clippath">
      <rect class="st0" x="167" y="5.9" width="7.7" height="8.8"/>
    </clipPath>
    <clipPath id="clippath-1">
      <rect class="st0" x="167" y="5.9" width="7.7" height="8.8"/>
    </clipPath>
  </defs>
  <g>
    <path d="M177.4,12.3c-.5,0-.9-.2-1.2-.5-.3-.3-.5-.8-.5-1.3s.2-1,.5-1.3.7-.5,1.3-.5.6,0,.9.1v.5c-.4-.1-.6-.2-.9-.2-.3,0-.6.1-.8.4-.2.2-.3.6-.3,1s.1.7.3.9c.2.2.5.4.8.4s.6,0,.9-.2v.5c-.4.1-.8.2-1.1.2Z"/>
    <path d="M180.5,12.3c-.3,0-.6,0-.8-.3-.2-.2-.3-.4-.3-.8v-2h-.4v-.5h.4v-.6h.6c0,0,0,.6,0,.6h.9v.5h-.9v1.9c0,.5.2.7.6.7s.2,0,.3,0v.4c-.2,0-.4,0-.5,0Z"/>
    <path d="M181.9,12.2v-3.5h.6v.7c.3-.5.7-.7,1.2-.7s.8.2,1,.7c.3-.5.7-.7,1.2-.7s.5,0,.7.3c.2.2.3.4.3.8v2.5h-.6v-2.4c0-.4-.2-.6-.5-.6s-.7.2-1,.7v2.3h-.6v-2.4c0-.4-.2-.6-.5-.6s-.7.2-1,.7v2.3h-.6Z"/>
    <path d="M188,13.4v-4.7h.6v.7c.3-.5.6-.7,1.2-.7s.7.2,1,.5c.2.3.4.7.4,1.3s-.1,1-.4,1.4c-.3.4-.6.5-1.1.5s-.8-.2-1-.5v1.7h-.6ZM188.7,11.3c.3.3.6.4.9.4.6,0,.9-.5.9-1.4s-.3-1.2-.8-1.2-.7.2-1,.6v1.6Z"/>
    <path d="M192.5,12.2v-.5h.9v-3.7l-.9.2v-.5l1.6-.4v4.4h.9v.5h-2.5Z"/>
    <path d="M196.4,12.1v-.5c.4.1.7.2,1,.2s.7-.2.9-.5c.2-.3.3-.8.3-1.4-.3.4-.7.6-1.1.6s-.7-.1-1-.4c-.3-.3-.4-.7-.4-1.1s.1-.9.4-1.2.7-.5,1.1-.5.9.2,1.2.6c.3.4.4,1,.4,1.7s-.2,1.5-.5,1.9c-.4.5-.9.7-1.5.7s-.6,0-1-.1ZM196.8,8.9c0,.4,0,.7.2.9.2.2.4.3.7.3s.5,0,.7-.3c.2-.2.3-.4.3-.7,0-.4,0-.7-.3-1-.2-.2-.4-.4-.7-.4s-.5,0-.7.3c-.2.2-.2.5-.2.8Z"/>
    <path d="M201,9.7c.3-.4.7-.6,1.1-.6s.8.1,1,.4c.3.3.4.6.4,1.1s-.1.9-.4,1.2-.7.5-1.1.5-.9-.2-1.2-.6-.4-1-.4-1.8.2-1.5.5-1.9c.3-.5.8-.7,1.4-.7s.6,0,1.1.2v.6c-.4-.2-.8-.3-1.1-.3-.8,0-1.2.6-1.2,1.9ZM202.9,10.7c0-.4,0-.6-.2-.8-.2-.2-.4-.3-.7-.3s-.5,0-.7.3c-.2.2-.3.4-.3.6,0,.4,0,.7.3,1,.2.2.4.4.7.4s.5,0,.6-.3c.2-.2.2-.5.2-.8Z"/>
    <path d="M205,12.2v-.5h.9v-3.7l-.9.2v-.5l1.6-.4v4.4h.9v.5h-2.5Z"/>
    <path d="M208.6,10.5v-.5h2.8v.5h-2.8Z"/>
    <path d="M212.9,12.2v-.5h.9v-3.7l-.9.2v-.5l1.6-.4v4.4h.9v.5h-2.5Z"/>
    <path d="M216.8,12.1v-.5c.4.1.7.2,1,.2s.7-.2.9-.5c.2-.3.3-.8.3-1.4-.3.4-.7.6-1.1.6s-.7-.1-1-.4c-.3-.3-.4-.7-.4-1.1s.1-.9.4-1.2.7-.5,1.1-.5.9.2,1.2.6c.3.4.4,1,.4,1.7s-.2,1.5-.5,1.9c-.4.5-.9.7-1.5.7s-.6,0-1-.1ZM217.2,8.9c0,.4,0,.7.2.9.2.2.4.3.7.3s.5,0,.7-.3c.2-.2.3-.4.3-.7,0-.4,0-.7-.3-1-.2-.2-.4-.4-.7-.4s-.5,0-.7.3c-.2.2-.2.5-.2.8Z"/>
    <path d="M221,12.1v-.5c.4.1.7.2,1,.2s.7-.2.9-.5c.2-.3.3-.8.3-1.4-.3.4-.7.6-1.1.6s-.7-.1-1-.4c-.3-.3-.4-.7-.4-1.1s.1-.9.4-1.2.7-.5,1.1-.5.9.2,1.2.6c.3.4.4,1,.4,1.7s-.2,1.5-.5,1.9c-.4.5-.9.7-1.5.7s-.6,0-1-.1ZM221.4,8.9c0,.4,0,.7.2.9.2.2.4.3.7.3s.5,0,.7-.3c.2-.2.3-.4.3-.7,0-.4,0-.7-.3-1-.2-.2-.4-.4-.7-.4s-.5,0-.7.3c-.2.2-.2.5-.2.8Z"/>
    <path d="M226.4,12.3c-.5,0-.9-.2-1.2-.7-.3-.5-.5-1.1-.5-1.8s.2-1.3.5-1.8c.3-.5.7-.7,1.2-.7s.9.2,1.2.7c.3.5.5,1.1.5,1.8s-.2,1.4-.5,1.8c-.3.5-.7.7-1.2.7ZM226.4,11.8c.7,0,1-.7,1-2s-.3-2-1-2-1,.7-1,2,.3,2,1,2Z"/>
    <path d="M228.5,13.3v-.5h3.3v.5h-3.3Z"/>
    <path d="M231.2,13.1v-.6c.3,0,.5.1.7.1s.4,0,.5-.2c.1-.1.2-.4.2-.8v-4.2h.7v4.1c0,1-.5,1.5-1.5,1.5s-.3,0-.6,0Z"/>
    <path d="M236.7,12.2v-.7c-.3.5-.7.7-1.2.7s-.5,0-.7-.3c-.2-.2-.3-.4-.3-.8v-2.5h.6v2.3c0,.3,0,.4.1.6,0,.1.2.2.4.2.4,0,.7-.3,1.1-.8v-2.3h.6v3.5h-.6Z"/>
    <path d="M238.6,12.2v-5.1h.6v5.1h-.6Z"/>
    <path d="M240.5,12.2v-.8h.8v.8h-.8Z"/>
    <path d="M243.9,12.3c-.5,0-.9-.2-1.2-.5-.3-.3-.5-.8-.5-1.3s.2-1,.5-1.3.7-.5,1.3-.5.6,0,.9.1v.5c-.4-.1-.6-.2-.9-.2-.3,0-.6.1-.8.4-.2.2-.3.6-.3,1s.1.7.3.9c.2.2.5.4.8.4s.6,0,.9-.2v.5c-.4.1-.8.2-1.1.2Z"/>
    <path d="M246.8,12.3c-.3,0-.6,0-1.1-.2v-.6c.4.2.8.3,1.1.3s.3,0,.5-.1c.1,0,.2-.2.2-.4,0-.2-.2-.4-.5-.5l-.4-.2c-.5-.2-.8-.6-.8-1s.1-.5.3-.7c.2-.2.5-.3.9-.3s.4,0,.7,0h.1v.6c-.4-.1-.6-.2-.8-.2-.4,0-.6.1-.6.4s.2.4.5.5h.3c.3.3.6.4.7.6.1.2.2.4.2.6s-.1.6-.4.8c-.2.2-.6.3-.9.3Z"/>
    <path d="M250,12.2l-1.3-3.5h.6l1,2.7,1.1-2.7h.6l-1.4,3.5h-.6Z"/>
  </g>
  <g class="st4">
    <g class="st8">
      <g class="st6">
        <polygon points="170.2 7 168.1 9.2 168.1 13.5 173.5 13.5 173.5 7 170.2 7"/>
        <polygon class="st2" points="170.2 7 168.1 9.2 168.1 13.5 173.5 13.5 173.5 7 170.2 7"/>
      </g>
    </g>
  </g>
  <rect class="st0" x="167" y="5.9" width="7.7" height="8.8"/>
  <polygon class="st7" points="169.7 6.4 167.5 8.6 167.5 13 173 13 173 6.4 169.7 6.4"/>
  <polygon class="st2" points="169.7 6.4 167.5 8.6 167.5 13 173 13 173 6.4 169.7 6.4"/>
  <polyline class="st7" points="167.5 8.6 169.7 8.6 169.7 6.4"/>
  <polyline class="st2" points="167.5 8.6 169.7 8.6 169.7 6.4"/>
  <line class="st1" x1="167.8" y1="21.8" x2="443.2" y2="21.8"/>
  <line class="st1" x1="167.8" y1="35.5" x2="443.2" y2="35.5"/>
  <line class="st1" x1="167.8" y1="49.2" x2="443.2" y2="49.2"/>
  <line class="st1" x1="167.8" y1="62.9" x2="443.2" y2="62.9"/>
  <line class="st1" x1="167.8" y1="76.5" x2="443.2" y2="76.5"/>
  <line class="st1" x1="167.8" y1="90.2" x2="443.2" y2="90.2"/>
  <line class="st1" x1="167.8" y1="103.9" x2="443.2" y2="103.9"/>
  <line class="st1" x1="167.8" y1="117.6" x2="443.2" y2="117.6"/>
  <line class="st1" x1="167.8" y1="131.2" x2="443.2" y2="131.2"/>
  <line class="st1" x1="167.8" y1="144.9" x2="443.2" y2="144.9"/>
  <line class="st1" x1="167.8" y1="158.6" x2="443.2" y2="158.6"/>
  <g>
    <path d="M169,29.2c.1,0,.2,0,.4,0h.6c.2,0,.3,0,.5,0v.4c-.1,0-.2,0-.5,0h-.6c-.2,0-.3,0-.4,0v-.4Z"/>
    <path d="M171.4,30c0,.2,0,.2.2.3.1.2.4.2.6.2s.6-.1.8-.5c0-.2.2-.4.2-.6,0-.1,0-.3,0-.6,0,.1-.1.2-.2.3-.3.2-.5.3-.9.3s-.7-.1-.9-.3-.3-.5-.3-.9c0-.8.5-1.3,1.3-1.3s1,.3,1.2.8c0,.3.1.6.1,1,0,.7-.1,1.2-.4,1.6-.2.3-.6.5-1,.5s-.6,0-.8-.3c-.1-.1-.2-.2-.3-.5h.4ZM173.1,28.3c0-.5-.4-.9-.9-.9s-.6.2-.8.4c0,.1-.1.3-.1.5,0,.6.3.9.9.9s1-.4,1-.9Z"/>
    <path d="M174.6,30c0,.2,0,.2.2.3.1.2.4.2.6.2s.6-.1.8-.5c0-.2.2-.4.2-.6,0-.1,0-.3,0-.6,0,.1-.1.2-.2.3-.3.2-.5.3-.9.3s-.7-.1-.9-.3-.3-.5-.3-.9c0-.8.5-1.3,1.3-1.3s1,.3,1.2.8c0,.3.1.6.1,1,0,.7-.1,1.2-.4,1.6-.2.3-.6.5-1,.5s-.6,0-.8-.3c-.1-.1-.2-.2-.3-.5h.4ZM176.4,28.3c0-.5-.4-.9-.9-.9s-.6.2-.8.4c0,.1-.1.3-.1.5,0,.6.3.9.9.9s1-.4,1-.9Z"/>
    <path d="M177.8,30c0,.2,0,.2.2.3.1.2.4.2.6.2s.6-.1.8-.5c0-.2.2-.4.2-.6,0-.1,0-.3,0-.6,0,.1-.1.2-.2.3-.3.2-.5.3-.9.3s-.7-.1-.9-.3-.3-.5-.3-.9c0-.8.5-1.3,1.3-1.3s1,.3,1.2.8c0,.3.1.6.1,1,0,.7-.1,1.2-.4,1.6-.2.3-.6.5-1,.5s-.6,0-.8-.3c-.1-.1-.2-.2-.3-.5h.4ZM179.6,28.3c0-.5-.4-.9-.9-.9s-.6.2-.8.4c0,.1-.1.3-.1.5,0,.6.3.9.9.9s1-.4,1-.9Z"/>
    <path d="M181.1,30c0,.2,0,.2.2.3.1.2.4.2.6.2s.6-.1.8-.5c0-.2.2-.4.2-.6,0-.1,0-.3,0-.6,0,.1-.1.2-.2.3-.3.2-.5.3-.9.3s-.7-.1-.9-.3-.3-.5-.3-.9c0-.8.5-1.3,1.3-1.3s1,.3,1.2.8c0,.3.1.6.1,1,0,.7-.1,1.2-.4,1.6-.2.3-.6.5-1,.5s-.6,0-.8-.3c-.1-.1-.2-.2-.3-.5h.4ZM182.8,28.3c0-.5-.4-.9-.9-.9s-.6.2-.8.4c0,.1-.1.3-.1.5,0,.6.3.9.9.9s1-.4,1-.9Z"/>
    <path d="M184.4,30.8c0,.4,0,.5-.3.6v-.2c0,0,.1-.2.1-.5h-.3v-.5h.5v.5Z"/>
  </g>
  <g>
    <path d="M191.5,29.2c.1,0,.2,0,.4,0h.6c.2,0,.3,0,.5,0v.4c-.1,0-.2,0-.5,0h-.6c-.2,0-.3,0-.4,0v-.4Z"/>
    <path d="M193.8,30c0,.2,0,.2.2.3.1.2.4.2.6.2s.6-.1.8-.5c0-.2.2-.4.2-.6,0-.1,0-.3,0-.6,0,.1-.1.2-.2.3-.3.2-.5.3-.9.3s-.7-.1-.9-.3-.3-.5-.3-.9c0-.8.5-1.3,1.3-1.3s1,.3,1.2.8c0,.3.1.6.1,1,0,.7-.1,1.2-.4,1.6-.2.3-.6.5-1,.5s-.6,0-.8-.3c-.1-.1-.2-.2-.3-.5h.4ZM195.6,28.3c0-.5-.4-.9-.9-.9s-.6.2-.8.4c0,.1-.1.3-.1.5,0,.6.3.9.9.9s1-.4,1-.9Z"/>
    <path d="M197,30c0,.2,0,.2.2.3.1.2.4.2.6.2s.6-.1.8-.5c0-.2.2-.4.2-.6,0-.1,0-.3,0-.6,0,.1-.1.2-.2.3-.3.2-.5.3-.9.3s-.7-.1-.9-.3-.3-.5-.3-.9c0-.8.5-1.3,1.3-1.3s1,.3,1.2.8c0,.3.1.6.1,1,0,.7-.1,1.2-.4,1.6-.2.3-.6.5-1,.5s-.6,0-.8-.3c-.1-.1-.2-.2-.3-.5h.4ZM198.8,28.3c0-.5-.4-.9-.9-.9s-.6.2-.8.4c0,.1-.1.3-.1.5,0,.6.3.9.9.9s1-.4,1-.9Z"/>
    <path d="M200.3,30c0,.2,0,.2.2.3.1.2.4.2.6.2s.6-.1.8-.5c0-.2.2-.4.2-.6,0-.1,0-.3,0-.6,0,.1-.1.2-.2.3-.3.2-.5.3-.9.3s-.7-.1-.9-.3-.3-.5-.3-.9c0-.8.5-1.3,1.3-1.3s1,.3,1.2.8c0,.3.1.6.1,1,0,.7-.1,1.2-.4,1.6-.2.3-.6.5-1,.5s-.6,0-.8-.3c-.1-.1-.2-.2-.3-.5h.4ZM202,28.3c0-.5-.4-.9-.9-.9s-.6.2-.8.4c0,.1-.1.3-.1.5,0,.6.3.9.9.9s1-.4,1-.9Z"/>
    <path d="M203.5,30c0,.2,0,.2.2.3.1.2.4.2.6.2s.6-.1.8-.5c0-.2.2-.4.2-.6,0-.1,0-.3,0-.6,0,.1-.1.2-.2.3-.3.2-.5.3-.9.3s-.7-.1-.9-.3-.3-.5-.3-.9c0-.8.5-1.3,1.3-1.3s1,.3,1.2.8c0,.3.1.6.1,1,0,.7-.1,1.2-.4,1.6-.2.3-.6.5-1,.5s-.6,0-.8-.3c-.1-.1-.2-.2-.3-.5h.4ZM205.3,28.3c0-.5-.4-.9-.9-.9s-.6.2-.8.4c0,.1-.1.3-.1.5,0,.6.3.9.9.9s1-.4,1-.9Z"/>
    <path d="M206.9,30.8c0,.4,0,.5-.3.6v-.2c0,0,.1-.2.1-.5h-.3v-.5h.5v.5Z"/>
  </g>
  <g>
    <path d="M213.9,29.2c.1,0,.2,0,.4,0h.6c.2,0,.3,0,.5,0v.4c-.1,0-.2,0-.5,0h-.6c-.2,0-.3,0-.4,0v-.4Z"/>
    <path d="M216.3,30c0,.2,0,.2.2.3.1.2.4.2.6.2s.6-.1.8-.5c0-.2.2-.4.2-.6,0-.1,0-.3,0-.6,0,.1-.1.2-.2.3-.3.2-.5.3-.9.3s-.7-.1-.9-.3-.3-.5-.3-.9c0-.8.5-1.3,1.3-1.3s1,.3,1.2.8c0,.3.1.6.1,1,0,.7-.1,1.2-.4,1.6-.2.3-.6.5-1,.5s-.6,0-.8-.3c-.1-.1-.2-.2-.3-.5h.4ZM218,28.3c0-.5-.4-.9-.9-.9s-.6.2-.8.4c0,.1-.1.3-.1.5,0,.6.3.9.9.9s1-.4,1-.9Z"/>
    <path d="M219.5,30c0,.2,0,.2.2.3.1.2.4.2.6.2s.6-.1.8-.5c0-.2.2-.4.2-.6,0-.1,0-.3,0-.6,0,.1-.1.2-.2.3-.3.2-.5.3-.9.3s-.7-.1-.9-.3-.3-.5-.3-.9c0-.8.5-1.3,1.3-1.3s1,.3,1.2.8c0,.3.1.6.1,1,0,.7-.1,1.2-.4,1.6-.2.3-.6.5-1,.5s-.6,0-.8-.3c-.1-.1-.2-.2-.3-.5h.4ZM221.2,28.3c0-.5-.4-.9-.9-.9s-.6.2-.8.4c0,.1-.1.3-.1.5,0,.6.3.9.9.9s1-.4,1-.9Z"/>
    <path d="M222.7,30c0,.2,0,.2.2.3.1.2.4.2.6.2s.6-.1.8-.5c0-.2.2-.4.2-.6,0-.1,0-.3,0-.6,0,.1-.1.2-.2.3-.3.2-.5.3-.9.3s-.7-.1-.9-.3-.3-.5-.3-.9c0-.8.5-1.3,1.3-1.3s1,.3,1.2.8c0,.3.1.6.1,1,0,.7-.1,1.2-.4,1.6-.2.3-.6.5-1,.5s-.6,0-.8-.3c-.1-.1-.2-.2-.3-.5h.4ZM224.5,28.3c0-.5-.4-.9-.9-.9s-.6.2-.8.4c0,.1-.1.3-.1.5,0,.6.3.9.9.9s1-.4,1-.9Z"/>
    <path d="M226,30c0,.2,0,.2.2.3.1.2.4.2.6.2s.6-.1.8-.5c0-.2.2-.4.2-.6,0-.1,0-.3,0-.6,0,.1-.1.2-.2.3-.3.2-.5.3-.9.3s-.7-.1-.9-.3-.3-.5-.3-.9c0-.8.5-1.3,1.3-1.3s1,.3,1.2.8c0,.3.1.6.1,1,0,.7-.1,1.2-.4,1.6-.2.3-.6.5-1,.5s-.6,0-.8-.3c-.1-.1-.2-.2-.3-.5h.4ZM227.7,28.3c0-.5-.4-.9-.9-.9s-.6.2-.8.4c0,.1-.1.3-.1.5,0,.6.3.9.9.9s1-.4,1-.9Z"/>
    <path d="M229.3,30.8c0,.4,0,.5-.3.6v-.2c0,0,.1-.2.1-.5h-.3v-.5h.5v.5Z"/>
  </g>
  <g>
    <path d="M239.1,29c0,.2-.2.4-.4.4s-.4-.2-.4-.4.2-.4.4-.4.4.2.4.4Z"/>
    <path d="M244,29c0,.2-.2.4-.4.4s-.4-.2-.4-.4.2-.4.4-.4.4.2.4.4Z"/>
    <path d="M248.9,29c0,.2-.2.4-.4.4s-.4-.2-.4-.4.2-.4.4-.4.4.2.4.4Z"/>
    <path d="M253.9,29c0,.2-.2.4-.4.4s-.4-.2-.4-.4.2-.4.4-.4.4.2.4.4Z"/>
  </g>
  <g>
    <path d="M262.6,29.2c.1,0,.2,0,.4,0h.6c.2,0,.3,0,.5,0v.4c-.1,0-.2,0-.5,0h-.6c-.2,0-.3,0-.4,0v-.4Z"/>
    <path d="M265,30c0,.2,0,.2.2.3.1.2.4.2.6.2s.6-.1.8-.5c0-.2.2-.4.2-.6,0-.1,0-.3,0-.6,0,.1-.1.2-.2.3-.3.2-.5.3-.9.3s-.7-.1-.9-.3-.3-.5-.3-.9c0-.8.5-1.3,1.3-1.3s1,.3,1.2.8c0,.3.1.6.1,1,0,.7-.1,1.2-.4,1.6-.2.3-.6.5-1,.5s-.6,0-.8-.3c-.1-.1-.2-.2-.3-.5h.4ZM266.7,28.3c0-.5-.4-.9-.9-.9s-.6.2-.8.4c0,.1-.1.3-.1.5,0,.6.3.9.9.9s1-.4,1-.9Z"/>
    <path d="M268.2,30c0,.2,0,.2.2.3.1.2.4.2.6.2s.6-.1.8-.5c0-.2.2-.4.2-.6,0-.1,0-.3,0-.6,0,.1-.1.2-.2.3-.3.2-.5.3-.9.3s-.7-.1-.9-.3-.3-.5-.3-.9c0-.8.5-1.3,1.3-1.3s1,.3,1.2.8c0,.3.1.6.1,1,0,.7-.1,1.2-.4,1.6-.2.3-.6.5-1,.5s-.6,0-.8-.3c-.1-.1-.2-.2-.3-.5h.4ZM270,28.3c0-.5-.4-.9-.9-.9s-.6.2-.8.4c0,.1-.1.3-.1.5,0,.6.3.9.9.9s1-.4,1-.9Z"/>
    <path d="M271.4,30c0,.2,0,.2.2.3.1.2.4.2.6.2s.6-.1.8-.5c0-.2.2-.4.2-.6,0-.1,0-.3,0-.6,0,.1-.1.2-.2.3-.3.2-.5.3-.9.3s-.7-.1-.9-.3-.3-.5-.3-.9c0-.8.5-1.3,1.3-1.3s1,.3,1.2.8c0,.3.1.6.1,1,0,.7-.1,1.2-.4,1.6-.2.3-.6.5-1,.5s-.6,0-.8-.3c-.1-.1-.2-.2-.3-.5h.4ZM273.2,28.3c0-.5-.4-.9-.9-.9s-.6.2-.8.4c0,.1-.1.3-.1.5,0,.6.3.9.9.9s1-.4,1-.9Z"/>
    <path d="M274.7,30c0,.2,0,.2.2.3.1.2.4.2.6.2s.6-.1.8-.5c0-.2.2-.4.2-.6,0-.1,0-.3,0-.6,0,.1-.1.2-.2.3-.3.2-.5.3-.9.3s-.7-.1-.9-.3-.3-.5-.3-.9c0-.8.5-1.3,1.3-1.3s1,.3,1.2.8c0,.3.1.6.1,1,0,.7-.1,1.2-.4,1.6-.2.3-.6.5-1,.5s-.6,0-.8-.3c-.1-.1-.2-.2-.3-.5h.4ZM276.4,28.3c0-.5-.4-.9-.9-.9s-.6.2-.8.4c0,.1-.1.3-.1.5,0,.6.3.9.9.9s1-.4,1-.9Z"/>
    <path d="M278,30.8c0,.4,0,.5-.3.6v-.2c0,0,.1-.2.1-.5h-.3v-.5h.5v.5Z"/>
  </g>
  <g>
    <path d="M285.1,29.2c.1,0,.2,0,.4,0h.6c.2,0,.3,0,.5,0v.4c-.1,0-.2,0-.5,0h-.6c-.2,0-.3,0-.4,0v-.4Z"/>
    <path d="M287.4,30c0,.2,0,.2.2.3.1.2.4.2.6.2s.6-.1.8-.5c0-.2.2-.4.2-.6,0-.1,0-.3,0-.6,0,.1-.1.2-.2.3-.3.2-.5.3-.9.3s-.7-.1-.9-.3-.3-.5-.3-.9c0-.8.5-1.3,1.3-1.3s1,.3,1.2.8c0,.3.1.6.1,1,0,.7-.1,1.2-.4,1.6-.2.3-.6.5-1,.5s-.6,0-.8-.3c-.1-.1-.2-.2-.3-.5h.4ZM289.2,28.3c0-.5-.4-.9-.9-.9s-.6.2-.8.4c0,.1-.1.3-.1.5,0,.6.3.9.9.9s1-.4,1-.9Z"/>
    <path d="M290.6,30c0,.2,0,.2.2.3.1.2.4.2.6.2s.6-.1.8-.5c0-.2.2-.4.2-.6,0-.1,0-.3,0-.6,0,.1-.1.2-.2.3-.3.2-.5.3-.9.3s-.7-.1-.9-.3-.3-.5-.3-.9c0-.8.5-1.3,1.3-1.3s1,.3,1.2.8c0,.3.1.6.1,1,0,.7-.1,1.2-.4,1.6-.2.3-.6.5-1,.5s-.6,0-.8-.3c-.1-.1-.2-.2-.3-.5h.4ZM292.4,28.3c0-.5-.4-.9-.9-.9s-.6.2-.8.4c0,.1-.1.3-.1.5,0,.6.3.9.9.9s1-.4,1-.9Z"/>
    <path d="M293.9,30c0,.2,0,.2.2.3.1.2.4.2.6.2s.6-.1.8-.5c0-.2.2-.4.2-.6,0-.1,0-.3,0-.6,0,.1-.1.2-.2.3-.3.2-.5.3-.9.3s-.7-.1-.9-.3-.3-.5-.3-.9c0-.8.5-1.3,1.3-1.3s1,.3,1.2.8c0,.3.1.6.1,1,0,.7-.1,1.2-.4,1.6-.2.3-.6.5-1,.5s-.6,0-.8-.3c-.1-.1-.2-.2-.3-.5h.4ZM295.6,28.3c0-.5-.4-.9-.9-.9s-.6.2-.8.4c0,.1-.1.3-.1.5,0,.6.3.9.9.9s1-.4,1-.9Z"/>
    <path d="M297.1,30c0,.2,0,.2.2.3.1.2.4.2.6.2s.6-.1.8-.5c0-.2.2-.4.2-.6,0-.1,0-.3,0-.6,0,.1-.1.2-.2.3-.3.2-.5.3-.9.3s-.7-.1-.9-.3-.3-.5-.3-.9c0-.8.5-1.3,1.3-1.3s1,.3,1.2.8c0,.3.1.6.1,1,0,.7-.1,1.2-.4,1.6-.2.3-.6.5-1,.5s-.6,0-.8-.3c-.1-.1-.2-.2-.3-.5h.4ZM298.9,28.3c0-.5-.4-.9-.9-.9s-.6.2-.8.4c0,.1-.1.3-.1.5,0,.6.3.9.9.9s1-.4,1-.9Z"/>
    <path d="M300.5,30.8c0,.4,0,.5-.3.6v-.2c0,0,.1-.2.1-.5h-.3v-.5h.5v.5Z"/>
  </g>
  <g>
    <path d="M310.2,29c0,.2-.2.4-.4.4s-.4-.2-.4-.4.2-.4.4-.4.4.2.4.4Z"/>
    <path d="M315.2,29c0,.2-.2.4-.4.4s-.4-.2-.4-.4.2-.4.4-.4.4.2.4.4Z"/>
    <path d="M320.1,29c0,.2-.2.4-.4.4s-.4-.2-.4-.4.2-.4.4-.4.4.2.4.4Z"/>
    <path d="M325,29c0,.2-.2.4-.4.4s-.4-.2-.4-.4.2-.4.4-.4.4.2.4.4Z"/>
  </g>
  <g>
    <path d="M169,42.9c.1,0,.2,0,.4,0h.6c.2,0,.3,0,.5,0v.4c-.1,0-.2,0-.5,0h-.6c-.2,0-.3,0-.4,0v-.4Z"/>
    <path d="M171.4,43.7c0,.2,0,.2.2.3.1.2.4.2.6.2s.6-.1.8-.5c0-.2.2-.4.2-.6,0-.1,0-.3,0-.6,0,.1-.1.2-.2.3-.3.2-.5.3-.9.3s-.7-.1-.9-.3-.3-.5-.3-.9c0-.8.5-1.3,1.3-1.3s1,.3,1.2.8c0,.3.1.6.1,1,0,.7-.1,1.2-.4,1.6-.2.3-.6.5-1,.5s-.6,0-.8-.3c-.1-.1-.2-.2-.3-.5h.4ZM173.1,41.9c0-.5-.4-.9-.9-.9s-.6.2-.8.4c0,.1-.1.3-.1.5,0,.6.3.9.9.9s1-.4,1-.9Z"/>
    <path d="M174.6,43.7c0,.2,0,.2.2.3.1.2.4.2.6.2s.6-.1.8-.5c0-.2.2-.4.2-.6,0-.1,0-.3,0-.6,0,.1-.1.2-.2.3-.3.2-.5.3-.9.3s-.7-.1-.9-.3-.3-.5-.3-.9c0-.8.5-1.3,1.3-1.3s1,.3,1.2.8c0,.3.1.6.1,1,0,.7-.1,1.2-.4,1.6-.2.3-.6.5-1,.5s-.6,0-.8-.3c-.1-.1-.2-.2-.3-.5h.4ZM176.4,41.9c0-.5-.4-.9-.9-.9s-.6.2-.8.4c0,.1-.1.3-.1.5,0,.6.3.9.9.9s1-.4,1-.9Z"/>
    <path d="M177.8,43.7c0,.2,0,.2.2.3.1.2.4.2.6.2s.6-.1.8-.5c0-.2.2-.4.2-.6,0-.1,0-.3,0-.6,0,.1-.1.2-.2.3-.3.2-.5.3-.9.3s-.7-.1-.9-.3-.3-.5-.3-.9c0-.8.5-1.3,1.3-1.3s1,.3,1.2.8c0,.3.1.6.1,1,0,.7-.1,1.2-.4,1.6-.2.3-.6.5-1,.5s-.6,0-.8-.3c-.1-.1-.2-.2-.3-.5h.4ZM179.6,41.9c0-.5-.4-.9-.9-.9s-.6.2-.8.4c0,.1-.1.3-.1.5,0,.6.3.9.9.9s1-.4,1-.9Z"/>
    <path d="M181.1,43.7c0,.2,0,.2.2.3.1.2.4.2.6.2s.6-.1.8-.5c0-.2.2-.4.2-.6,0-.1,0-.3,0-.6,0,.1-.1.2-.2.3-.3.2-.5.3-.9.3s-.7-.1-.9-.3-.3-.5-.3-.9c0-.8.5-1.3,1.3-1.3s1,.3,1.2.8c0,.3.1.6.1,1,0,.7-.1,1.2-.4,1.6-.2.3-.6.5-1,.5s-.6,0-.8-.3c-.1-.1-.2-.2-.3-.5h.4ZM182.8,41.9c0-.5-.4-.9-.9-.9s-.6.2-.8.4c0,.1-.1.3-.1.5,0,.6.3.9.9.9s1-.4,1-.9Z"/>
    <path d="M184.4,44.5c0,.4,0,.5-.3.6v-.2c0,0,.1-.2.1-.5h-.3v-.5h.5v.5Z"/>
  </g>
  <g>
    <path d="M191.5,42.9c.1,0,.2,0,.4,0h.6c.2,0,.3,0,.5,0v.4c-.1,0-.2,0-.5,0h-.6c-.2,0-.3,0-.4,0v-.4Z"/>
    <path d="M193.8,43.7c0,.2,0,.2.2.3.1.2.4.2.6.2s.6-.1.8-.5c0-.2.2-.4.2-.6,0-.1,0-.3,0-.6,0,.1-.1.2-.2.3-.3.2-.5.3-.9.3s-.7-.1-.9-.3-.3-.5-.3-.9c0-.8.5-1.3,1.3-1.3s1,.3,1.2.8c0,.3.1.6.1,1,0,.7-.1,1.2-.4,1.6-.2.3-.6.5-1,.5s-.6,0-.8-.3c-.1-.1-.2-.2-.3-.5h.4ZM195.6,41.9c0-.5-.4-.9-.9-.9s-.6.2-.8.4c0,.1-.1.3-.1.5,0,.6.3.9.9.9s1-.4,1-.9Z"/>
    <path d="M197,43.7c0,.2,0,.2.2.3.1.2.4.2.6.2s.6-.1.8-.5c0-.2.2-.4.2-.6,0-.1,0-.3,0-.6,0,.1-.1.2-.2.3-.3.2-.5.3-.9.3s-.7-.1-.9-.3-.3-.5-.3-.9c0-.8.5-1.3,1.3-1.3s1,.3,1.2.8c0,.3.1.6.1,1,0,.7-.1,1.2-.4,1.6-.2.3-.6.5-1,.5s-.6,0-.8-.3c-.1-.1-.2-.2-.3-.5h.4ZM198.8,41.9c0-.5-.4-.9-.9-.9s-.6.2-.8.4c0,.1-.1.3-.1.5,0,.6.3.9.9.9s1-.4,1-.9Z"/>
    <path d="M200.3,43.7c0,.2,0,.2.2.3.1.2.4.2.6.2s.6-.1.8-.5c0-.2.2-.4.2-.6,0-.1,0-.3,0-.6,0,.1-.1.2-.2.3-.3.2-.5.3-.9.3s-.7-.1-.9-.3-.3-.5-.3-.9c0-.8.5-1.3,1.3-1.3s1,.3,1.2.8c0,.3.1.6.1,1,0,.7-.1,1.2-.4,1.6-.2.3-.6.5-1,.5s-.6,0-.8-.3c-.1-.1-.2-.2-.3-.5h.4ZM202,41.9c0-.5-.4-.9-.9-.9s-.6.2-.8.4c0,.1-.1.3-.1.5,0,.6.3.9.9.9s1-.4,1-.9Z"/>
    <path d="M203.5,43.7c0,.2,0,.2.2.3.1.2.4.2.6.2s.6-.1.8-.5c0-.2.2-.4.2-.6,0-.1,0-.3,0-.6,0,.1-.1.2-.2.3-.3.2-.5.3-.9.3s-.7-.1-.9-.3-.3-.5-.3-.9c0-.8.5-1.3,1.3-1.3s1,.3,1.2.8c0,.3.1.6.1,1,0,.7-.1,1.2-.4,1.6-.2.3-.6.5-1,.5s-.6,0-.8-.3c-.1-.1-.2-.2-.3-.5h.4ZM205.3,41.9c0-.5-.4-.9-.9-.9s-.6.2-.8.4c0,.1-.1.3-.1.5,0,.6.3.9.9.9s1-.4,1-.9Z"/>
    <path d="M206.9,44.5c0,.4,0,.5-.3.6v-.2c0,0,.1-.2.1-.5h-.3v-.5h.5v.5Z"/>
  </g>
  <g>
    <path d="M216.6,42.7c0,.2-.2.4-.4.4s-.4-.2-.4-.4.2-.4.4-.4.4.2.4.4Z"/>
    <path d="M221.6,42.7c0,.2-.2.4-.4.4s-.4-.2-.4-.4.2-.4.4-.4.4.2.4.4Z"/>
    <path d="M226.5,42.7c0,.2-.2.4-.4.4s-.4-.2-.4-.4.2-.4.4-.4.4.2.4.4Z"/>
    <path d="M231.4,42.7c0,.2-.2.4-.4.4s-.4-.2-.4-.4.2-.4.4-.4.4.2.4.4Z"/>
  </g>
  <g>
    <path d="M240.2,42.9c.1,0,.2,0,.4,0h.6c.2,0,.3,0,.5,0v.4c-.1,0-.2,0-.5,0h-.6c-.2,0-.3,0-.4,0v-.4Z"/>
    <path d="M244.7,41.1c0,0-.2.2-.4.5-.4.7-.7,1.1-.8,1.7-.1.4-.2.7-.3,1.2h-.5c.2-.9.3-1.3.6-2,.2-.5.4-.8.9-1.4h-1.6c-.2,0-.4,0-.6,0v-.4c.2,0,.3,0,.6,0h1.5c.3,0,.4,0,.6,0v.4Z"/>
    <path d="M245.9,44v.5h-.5v-.5h.5Z"/>
    <path d="M247,44.5c-.3,0-.4,0-.5,0,0-.4,0-.5.1-.7.1-.3.3-.6.6-.8.2-.1.2-.2.8-.5.5-.3.7-.5.7-.8s-.3-.6-.8-.6-.6.1-.7.3c0,.1-.1.3-.2.5h-.4c0-.4.1-.6.3-.8.2-.3.6-.4,1-.4.7,0,1.2.4,1.2,1s0,.5-.3.7c-.1.2-.3.3-.8.6-.4.3-.5.4-.7.6-.2.2-.2.3-.3.6h1.6c.2,0,.4,0,.6,0v.4c-.2,0-.4,0-.6,0h-1.5Z"/>
    <path d="M250.3,44.5c0,.4,0,.5-.3.6v-.2c0,0,.1-.2.1-.5h-.3v-.5h.5v.5Z"/>
  </g>
  <g>
    <path d="M257.3,42.9c.1,0,.2,0,.4,0h.6c.2,0,.3,0,.5,0v.4c-.1,0-.2,0-.5,0h-.6c-.2,0-.3,0-.4,0v-.4Z"/>
    <path d="M261.4,41.6c0-.2,0-.2-.2-.3-.1-.2-.3-.2-.6-.2-.4,0-.7.2-.9.6-.1.3-.2.5-.2,1.1,0-.2.1-.2.2-.3.2-.2.5-.3.8-.3.8,0,1.2.5,1.2,1.2s-.5,1.3-1.3,1.3-.7-.1-.9-.3c-.3-.3-.5-.8-.5-1.5s.1-1.2.4-1.5c.3-.4.6-.5,1-.5s.6,0,.7.2c.2.1.3.3.4.6h-.4ZM260.6,42.4c-.2,0-.5.1-.7.3s-.2.4-.2.6c0,.5.4.9.9.9s.6-.2.8-.4c0-.1.1-.3.1-.5,0-.6-.3-.9-.9-.9Z"/>
    <path d="M263,44v.5h-.5v-.5h.5Z"/>
    <path d="M264.2,42.2q0,0,0,.2c.2-.2.5-.3.9-.3s.7.1.9.3c.2.2.3.5.3.9,0,.8-.5,1.3-1.3,1.3s-.7-.1-.9-.3c-.1-.1-.2-.2-.3-.5h.4s0,0,.2.2c.2.2.4.3.7.3.6,0,.9-.4.9-.9s-.3-.9-.9-.9-.5,0-.6.2c-.1,0-.2.2-.2.3h-.4c0-.2,0-.3,0-.5v-1.1c.1-.1.1-.2.1-.3s0,0,0-.2c.2,0,.2,0,.5,0h1c.3,0,.4,0,.6,0v.4c-.2,0-.3,0-.6,0h-1.2v1.1Z"/>
    <path d="M267.4,44.5c0,.4,0,.5-.3.6v-.2c0,0,.1-.2.1-.5h-.3v-.5h.5v.5Z"/>
  </g>
  <g>
    <path d="M277.2,42.7c0,.2-.2.4-.4.4s-.4-.2-.4-.4.2-.4.4-.4.4.2.4.4Z"/>
    <path d="M282.1,42.7c0,.2-.2.4-.4.4s-.4-.2-.4-.4.2-.4.4-.4.4.2.4.4Z"/>
    <path d="M287.1,42.7c0,.2-.2.4-.4.4s-.4-.2-.4-.4.2-.4.4-.4.4.2.4.4Z"/>
    <path d="M292,42.7c0,.2-.2.4-.4.4s-.4-.2-.4-.4.2-.4.4-.4.4.2.4.4Z"/>
  </g>
  <g>
    <path d="M169,56.5c.1,0,.2,0,.4,0h.6c.2,0,.3,0,.5,0v.4c-.1,0-.2,0-.5,0h-.6c-.2,0-.3,0-.4,0v-.4Z"/>
    <path d="M171.4,57.4c0,.2,0,.2.2.3.1.2.4.2.6.2s.6-.1.8-.5c0-.2.2-.4.2-.6,0-.1,0-.3,0-.6,0,.1-.1.2-.2.3-.3.2-.5.3-.9.3s-.7-.1-.9-.3-.3-.5-.3-.9c0-.8.5-1.3,1.3-1.3s1,.3,1.2.8c0,.3.1.6.1,1,0,.7-.1,1.2-.4,1.6-.2.3-.6.5-1,.5s-.6,0-.8-.3c-.1-.1-.2-.2-.3-.5h.4ZM173.1,55.6c0-.5-.4-.9-.9-.9s-.6.2-.8.4c0,.1-.1.3-.1.5,0,.6.3.9.9.9s1-.4,1-.9Z"/>
    <path d="M174.6,57.4c0,.2,0,.2.2.3.1.2.4.2.6.2s.6-.1.8-.5c0-.2.2-.4.2-.6,0-.1,0-.3,0-.6,0,.1-.1.2-.2.3-.3.2-.5.3-.9.3s-.7-.1-.9-.3-.3-.5-.3-.9c0-.8.5-1.3,1.3-1.3s1,.3,1.2.8c0,.3.1.6.1,1,0,.7-.1,1.2-.4,1.6-.2.3-.6.5-1,.5s-.6,0-.8-.3c-.1-.1-.2-.2-.3-.5h.4ZM176.4,55.6c0-.5-.4-.9-.9-.9s-.6.2-.8.4c0,.1-.1.3-.1.5,0,.6.3.9.9.9s1-.4,1-.9Z"/>
    <path d="M177.8,57.4c0,.2,0,.2.2.3.1.2.4.2.6.2s.6-.1.8-.5c0-.2.2-.4.2-.6,0-.1,0-.3,0-.6,0,.1-.1.2-.2.3-.3.2-.5.3-.9.3s-.7-.1-.9-.3-.3-.5-.3-.9c0-.8.5-1.3,1.3-1.3s1,.3,1.2.8c0,.3.1.6.1,1,0,.7-.1,1.2-.4,1.6-.2.3-.6.5-1,.5s-.6,0-.8-.3c-.1-.1-.2-.2-.3-.5h.4ZM179.6,55.6c0-.5-.4-.9-.9-.9s-.6.2-.8.4c0,.1-.1.3-.1.5,0,.6.3.9.9.9s1-.4,1-.9Z"/>
    <path d="M181.1,57.4c0,.2,0,.2.2.3.1.2.4.2.6.2s.6-.1.8-.5c0-.2.2-.4.2-.6,0-.1,0-.3,0-.6,0,.1-.1.2-.2.3-.3.2-.5.3-.9.3s-.7-.1-.9-.3-.3-.5-.3-.9c0-.8.5-1.3,1.3-1.3s1,.3,1.2.8c0,.3.1.6.1,1,0,.7-.1,1.2-.4,1.6-.2.3-.6.5-1,.5s-.6,0-.8-.3c-.1-.1-.2-.2-.3-.5h.4ZM182.8,55.6c0-.5-.4-.9-.9-.9s-.6.2-.8.4c0,.1-.1.3-.1.5,0,.6.3.9.9.9s1-.4,1-.9Z"/>
    <path d="M184.4,58.2c0,.4,0,.5-.3.6v-.2c0,0,.1-.2.1-.5h-.3v-.5h.5v.5Z"/>
  </g>
  <g>
    <path d="M194.2,56.3c0,.2-.2.4-.4.4s-.4-.2-.4-.4.2-.4.4-.4.4.2.4.4Z"/>
    <path d="M199.1,56.3c0,.2-.2.4-.4.4s-.4-.2-.4-.4.2-.4.4-.4.4.2.4.4Z"/>
    <path d="M204,56.3c0,.2-.2.4-.4.4s-.4-.2-.4-.4.2-.4.4-.4.4.2.4.4Z"/>
    <path d="M209,56.3c0,.2-.2.4-.4.4s-.4-.2-.4-.4.2-.4.4-.4.4.2.4.4Z"/>
  </g>
  <g>
    <path d="M217.7,56.5c.1,0,.2,0,.4,0h.6c.2,0,.3,0,.5,0v.4c-.1,0-.2,0-.5,0h-.6c-.2,0-.3,0-.4,0v-.4Z"/>
    <path d="M220.2,55.9q0,0,0,.2c.2-.2.5-.3.9-.3s.7.1.9.3c.2.2.3.5.3.9,0,.8-.5,1.3-1.3,1.3s-.7-.1-.9-.3c-.1-.1-.2-.2-.3-.5h.4s0,0,.2.2c.2.2.4.3.7.3.6,0,.9-.4.9-.9s-.3-.9-.9-.9-.5,0-.6.2c-.1,0-.2.2-.2.3h-.4c0-.2,0-.3,0-.5v-1.1c.1-.1.1-.2.1-.3s0,0,0-.2c.2,0,.2,0,.5,0h1c.3,0,.4,0,.6,0v.4c-.2,0-.3,0-.6,0h-1.2v1.1Z"/>
    <path d="M223.4,57.7v.5h-.5v-.5h.5Z"/>
    <path d="M224.6,54.4c.1,0,.2,0,.4,0h.3c.2,0,.2,0,.4,0,0,.3,0,.6,0,.8v2.4c0,.2,0,.4,0,.6h-.5c0-.2,0-.3,0-.6v-2.9h-.3c-.2,0-.3,0-.4,0v-.4Z"/>
    <path d="M227.8,58.2c0,.4,0,.5-.3.6v-.2c0,0,.1-.2.1-.5h-.3v-.5h.5v.5Z"/>
  </g>
  <g>
    <path d="M237.6,56.3c0,.2-.2.4-.4.4s-.4-.2-.4-.4.2-.4.4-.4.4.2.4.4Z"/>
    <path d="M242.5,56.3c0,.2-.2.4-.4.4s-.4-.2-.4-.4.2-.4.4-.4.4.2.4.4Z"/>
    <path d="M247.5,56.3c0,.2-.2.4-.4.4s-.4-.2-.4-.4.2-.4.4-.4.4.2.4.4Z"/>
    <path d="M252.4,56.3c0,.2-.2.4-.4.4s-.4-.2-.4-.4.2-.4.4-.4.4.2.4.4Z"/>
  </g>
  <g>
    <path d="M171.7,70c0,.2-.2.4-.4.4s-.4-.2-.4-.4.2-.4.4-.4.4.2.4.4Z"/>
    <path d="M176.7,70c0,.2-.2.4-.4.4s-.4-.2-.4-.4.2-.4.4-.4.4.2.4.4Z"/>
    <path d="M181.6,70c0,.2-.2.4-.4.4s-.4-.2-.4-.4.2-.4.4-.4.4.2.4.4Z"/>
    <path d="M186.5,70c0,.2-.2.4-.4.4s-.4-.2-.4-.4.2-.4.4-.4.4.2.4.4Z"/>
  </g>
  <g>
    <path d="M171.7,83.7c0,.2-.2.4-.4.4s-.4-.2-.4-.4.2-.4.4-.4.4.2.4.4Z"/>
    <path d="M176.7,83.7c0,.2-.2.4-.4.4s-.4-.2-.4-.4.2-.4.4-.4.4.2.4.4Z"/>
    <path d="M181.6,83.7c0,.2-.2.4-.4.4s-.4-.2-.4-.4.2-.4.4-.4.4.2.4.4Z"/>
    <path d="M186.5,83.7c0,.2-.2.4-.4.4s-.4-.2-.4-.4.2-.4.4-.4.4.2.4.4Z"/>
  </g>
  <g>
    <path d="M171.7,97.4c0,.2-.2.4-.4.4s-.4-.2-.4-.4.2-.4.4-.4.4.2.4.4Z"/>
    <path d="M176.7,97.4c0,.2-.2.4-.4.4s-.4-.2-.4-.4.2-.4.4-.4.4.2.4.4Z"/>
    <path d="M181.6,97.4c0,.2-.2.4-.4.4s-.4-.2-.4-.4.2-.4.4-.4.4.2.4.4Z"/>
    <path d="M186.5,97.4c0,.2-.2.4-.4.4s-.4-.2-.4-.4.2-.4.4-.4.4.2.4.4Z"/>
  </g>
  <g>
    <path d="M171.7,111c0,.2-.2.4-.4.4s-.4-.2-.4-.4.2-.4.4-.4.4.2.4.4Z"/>
    <path d="M176.7,111c0,.2-.2.4-.4.4s-.4-.2-.4-.4.2-.4.4-.4.4.2.4.4Z"/>
    <path d="M181.6,111c0,.2-.2.4-.4.4s-.4-.2-.4-.4.2-.4.4-.4.4.2.4.4Z"/>
    <path d="M186.5,111c0,.2-.2.4-.4.4s-.4-.2-.4-.4.2-.4.4-.4.4.2.4.4Z"/>
  </g>
  <g>
    <path d="M171.7,124.7c0,.2-.2.4-.4.4s-.4-.2-.4-.4.2-.4.4-.4.4.2.4.4Z"/>
    <path d="M176.7,124.7c0,.2-.2.4-.4.4s-.4-.2-.4-.4.2-.4.4-.4.4.2.4.4Z"/>
    <path d="M181.6,124.7c0,.2-.2.4-.4.4s-.4-.2-.4-.4.2-.4.4-.4.4.2.4.4Z"/>
    <path d="M186.5,124.7c0,.2-.2.4-.4.4s-.4-.2-.4-.4.2-.4.4-.4.4.2.4.4Z"/>
  </g>
  <g>
    <path d="M171.7,138.4c0,.2-.2.4-.4.4s-.4-.2-.4-.4.2-.4.4-.4.4.2.4.4Z"/>
    <path d="M176.7,138.4c0,.2-.2.4-.4.4s-.4-.2-.4-.4.2-.4.4-.4.4.2.4.4Z"/>
    <path d="M181.6,138.4c0,.2-.2.4-.4.4s-.4-.2-.4-.4.2-.4.4-.4.4.2.4.4Z"/>
  </g>
  <g>
    <path d="M171.7,152.1c0,.2-.2.4-.4.4s-.4-.2-.4-.4.2-.4.4-.4.4.2.4.4Z"/>
    <path d="M176.7,152.1c0,.2-.2.4-.4.4s-.4-.2-.4-.4.2-.4.4-.4.4.2.4.4Z"/>
  </g>
  <path d="M147.8,16.6c0-.3,0-.4,0-.9-.2.2-.4.5-.7.7-.1-.3-.2-.5-.4-.8.8-.5,1.6-1.4,1.9-2l.7.5c0,0-.1.2-.3.3-.2.3-.2.4-.4.6v3c0,.4,0,.7,0,1h-.9c0-.2,0-.6,0-1v-1.3ZM149.3,12.3q0,0-.2.3c-.5.6-1,1.1-1.8,1.5-.2-.3-.3-.5-.5-.7.6-.3,1-.6,1.4-1,.2-.2.3-.3.4-.5l.7.5ZM150.3,14.9c-.4,0-.7,0-.9,0v-.9c.2,0,.6,0,.9,0h2.6c.4,0,.7,0,.9,0v.9c-.3,0-.6,0-.9,0h-.3v3c0,.7-.2.8-1.1.8s-.5,0-.9,0c0-.3,0-.5-.2-.9.4,0,.8,0,1,0s.3,0,.3-.2v-2.9h-1.5ZM149.7,12.2c.2,0,.5,0,.9,0h2.1c.4,0,.6,0,.9,0v.9c-.3,0-.6,0-.9,0h-2.1c-.3,0-.6,0-.9,0v-.9Z"/>
  <path d="M158.3,13.3c.2,0,.4,0,.5,0v.7c-.1,0-.3,0-.5,0h-.5c.1.2.3.3.7.5-.2.2-.2.3-.4.6-.4-.3-.5-.4-.7-.7,0,.2,0,.3,0,.3v.3c0,0,0,.2,0,.3h-.8c0,0,0-.2,0-.3v-.3c0,0,0-.2,0-.3-.4.6-.7.8-1.2,1.2-.2-.3-.3-.4-.5-.6.6-.3,1-.6,1.2-1h-.4c-.3,0-.5,0-.6,0v-.7c.2,0,.4,0,.6,0h.9v-.9c0-.2,0-.4,0-.5h.8c0,.1,0,.3,0,.5v.9h.9ZM157.9,18.5c-.3-.2-.4-.3-.7-.5-.5.4-.9.7-1.8.9-.1-.3-.2-.5-.4-.7.7-.1,1.1-.3,1.5-.6-.4-.2-.6-.3-1.1-.5.2-.3.3-.4.5-.8h-.2c-.3,0-.4,0-.6,0v-.8c.2,0,.3,0,.6,0h.6c0-.2.1-.3.2-.5l.8.2c0,.2,0,.2-.2.4h1.2c.3,0,.4,0,.6,0v.8c-.2,0-.3,0-.6,0-.2.5-.2.6-.5,1,.3.1.4.2.6.3l-.4.7ZM155.9,11.9c.3.4.4.6.5,1l-.7.3c-.2-.4-.3-.7-.5-1l.7-.2ZM156.7,16.4c-.1.2-.1.2-.3.4.3.1.4.2.7.3.2-.2.3-.4.3-.7h-.7ZM158.7,12.2c-.3.6-.3.7-.6,1l-.7-.3c.2-.3.4-.7.5-1l.7.3ZM162.1,13.9c-.2,0-.2,0-.5,0,0,1.3-.3,2.2-.8,3,.4.5.9.9,1.5,1.2-.2.2-.3.5-.4.8-.6-.3-1.1-.8-1.5-1.3-.5.6-1.1,1-1.7,1.4-.2-.4-.2-.5-.4-.8.3-.2.4-.2.6-.3.4-.3.8-.6,1.1-1-.4-.7-.5-1.1-.6-1.8-.1.2-.2.3-.4.5-.2-.2-.3-.4-.6-.6.5-.6.8-1.3,1-2.2,0-.4.2-.8.2-1l.8.2c0,0,0,.2-.1.4,0,.2-.1.5-.2.8h1.3c.4,0,.5,0,.7,0v.8ZM159.8,13.9q0,.1,0,.2c.1.8.3,1.4.6,2,.3-.6.4-1.3.5-2.3h-1Z"/>
  <path d="M446.3,16.3c0,1.1-.1,1.6-.3,2.3l-.7-.3c.2-.6.2-1.1.3-2.1h.7ZM445.4,15c.1,0,.2,0,.3,0h.2c.2-.3.2-.3.4-.6-.3-.3-.6-.8-1-1.1l.4-.6c0,0,.1.1.2.2.3-.5.5-.9.6-1.2l.7.3q-.2.3-.3.4c-.2.4-.4.8-.6,1,.2.2.2.2.3.3.3-.5.6-1,.7-1.3l.7.4c0,0,0,.2-.2.4-.3.5-.7,1-1.1,1.7q.5,0,.8,0c0-.2,0-.2-.2-.5l.5-.2c.2.5.4.9.5,1.5l-.6.2c0-.2,0-.3,0-.4q0,0-.2,0s0,0-.2,0v2.4c0,.4,0,.6,0,.8h-.8c0-.3,0-.4,0-.8v-2.4c-.6,0-1,0-1.1,0v-.8ZM448.8,16.9c-.2,0-.3,0-.5,0v-.7c.2,0,.3,0,.7,0h1.4v-.3h-1.3c-.4,0-.4,0-.7,0,0-.1,0-.2,0-.5v-.6c0-.2,0-.4,0-.5.2,0,.3,0,.7,0h2.2c.4,0,.5,0,.7,0,0,.2,0,.3,0,.5v.6c0,.2,0,.3,0,.5-.2,0-.3,0-.7,0h-.2v.3h.3c.4,0,.5,0,.7,0v.7c-.2,0-.4,0-.7,0h-.3v.5h.4c.3,0,.6,0,.8,0v.8c-.3,0-.5,0-.8,0h-.5c0,.5,0,.7,0,.9h-.9c0-.2,0-.4,0-.7h0c0-.1-1.5-.1-1.5-.1-.4,0-.6,0-.8,0v-.3h-.4c0-.5,0-1.1-.2-1.6h.5c.1.4.1.4.2,1.1.1,0,.2,0,.3,0h.3v-.5ZM449,13.4c0-.2.1-.3.2-.4h-.3c-.2,0-.3,0-.6,0v-.7c.2,0,.4,0,.7,0h.4c0-.2,0-.3.1-.6h.8c0,.2,0,.3-.2.6h.8c.4,0,.6,0,.8,0,0,.2,0,.4,0,.7v.4h.1c.3,0,.4,0,.6,0v.7c-.2,0-.4,0-.8,0h-2.9c-.4,0-.5,0-.7,0v-.7c.2,0,.3,0,.7,0h.3ZM449.2,15.3h2v-.4h-2v.4ZM450.4,17.4v-.5h-.9v.5h.9ZM451,13.4v-.4h-.9c0,.2,0,.3-.2.4h1.1Z"/>
  <path d="M454.9,14.3c0,1.2,0,2-.2,2.7-.1.7-.3,1.2-.7,1.8-.2-.3-.4-.5-.6-.7.3-.5.4-.8.5-1.3.2-.8.2-1.6.2-3.5s0-.8,0-1c.3,0,.5,0,.9,0h1.9v-.2c0-.2,0-.3,0-.4h.9c0,.1,0,.3,0,.4v.2h1.9c.4,0,.7,0,.9,0v.8c-.3,0-.4,0-.8,0h-.6v.5h.7c.3,0,.5,0,.7,0v.8c-.2,0-.3,0-.7,0h-.7v.7c0,.2,0,.4,0,.5-.2,0-.2,0-.5,0h-2.1c-.3,0-.4,0-.5,0,0-.1,0-.3,0-.5v-.7h-1.1ZM459.7,16.4c0,0,0,0-.1.2-.4.5-.8.8-1.3,1.1.7.2,1.3.3,2.3.4-.1.3-.2.5-.3.9-1.3-.2-2.1-.4-2.8-.7-.8.4-1.5.6-2.6.8,0-.3-.1-.5-.3-.8,1,0,1.6-.2,2.2-.4-.4-.3-.7-.6-1-1.1-.3,0-.4,0-.5,0v-.7c.2,0,.4,0,.8,0h2.7c.3,0,.5,0,.6,0l.4.4ZM456,13.6v-.5h-1.1v.5h1.1ZM456.7,16.6c.2.3.5.5.9.7.4-.2.6-.4,1-.7h-1.8ZM458.3,13.6v-.5h-1.5v.5h1.5ZM456.8,14.9h1.5v-.5h-1.5v.5Z"/>
  <path d="M159.6,32c0-.3,0-.5,0-.9v-3.6h-.3c-.2,0-.4,0-.7,0v-.8c.2,0,.3,0,.7,0h.6c.3,0,.4,0,.7,0,0,.4,0,.7,0,1.1v3.3c0,.3,0,.6,0,.9h-1Z"/>
  <path d="M158.8,45.7c-.5,0-.6,0-.8,0,0-.4,0-.6.2-.8.2-.5.5-.9.9-1.3.2-.2.4-.4,1.1-.8.6-.4.8-.6.8-1s-.3-.7-.9-.7-.7.1-.8.4c-.1.2-.2.3-.2.6h-.9c0-.6.2-.9.5-1.2.3-.4.8-.6,1.5-.6,1.1,0,1.9.6,1.9,1.5s-.1.7-.5,1c-.2.2-.2.2-1.1.8-.3.2-.6.5-.8.7-.2.2-.3.3-.4.6h1.8c.4,0,.7,0,1,0v.9c-.3,0-.6,0-1,0h-2.1Z"/>
  <path d="M158.8,58c0,.3.1.4.3.5.2.2.5.3.8.3.6,0,1.1-.3,1.1-.9s-.1-.6-.4-.7c-.2,0-.5-.2-.8-.2s-.5,0-.7,0v-.8c.2,0,.4,0,.6,0,.7,0,1-.3,1-.8s-.3-.7-.9-.7-.6,0-.7.2c-.1.1-.2.2-.3.5l-.9-.2c.2-.5.3-.7.6-.9.3-.2.8-.4,1.3-.4,1.1,0,1.8.6,1.8,1.4s-.2.8-.5,1c-.1.1-.3.2-.6.3.5,0,.7.2.9.4.2.2.3.5.3.9s-.2.7-.4,1c-.4.3-.9.5-1.6.5s-1.3-.2-1.7-.6c-.2-.2-.2-.4-.4-.7l.9-.2Z"/>
  <g>
    <path d="M154.3,85.5c0,.2.1.3.2.4.2.2.4.3.8.3s.6,0,.7-.3c.3-.3.5-.8.5-1.6-.1.2-.2.3-.3.4-.3.2-.6.3-1.1.3-1.1,0-1.8-.7-1.8-1.7s.3-1.2.8-1.5c.3-.2.7-.3,1.1-.3.8,0,1.5.5,1.8,1.3.1.4.2.8.2,1.4,0,1-.3,1.9-.7,2.3-.3.3-.8.5-1.4.5s-.9-.1-1.3-.4c-.2-.2-.3-.3-.5-.7l.9-.2ZM156.3,83.2c0-.6-.5-1.1-1.1-1.1s-1.1.4-1.1,1.1.4,1,1,1,1.1-.5,1.1-1.1Z"/>
    <path d="M158.6,86.3c-.2-.2-.3-.4-.4-.7-.2-.5-.3-1-.3-1.5s.2-1.4.4-1.8c.4-.6.9-.9,1.7-.9s1,.2,1.4.5c.2.2.3.4.4.7.2.5.3,1,.3,1.5,0,.8-.2,1.5-.5,1.9-.4.5-.9.8-1.6.8s-1-.2-1.4-.5ZM160.7,85.8c.3-.3.5-.9.5-1.7s-.2-1.4-.5-1.7c-.2-.2-.4-.3-.7-.3s-.5.1-.7.3c-.3.3-.4.9-.4,1.6s.1,1.3.3,1.6c.2.3.5.4.8.4s.5,0,.7-.3Z"/>
  </g>
  <g>
    <path d="M154.3,99.1c0,.2.1.3.2.4.2.2.4.3.8.3s.6,0,.7-.3c.3-.3.5-.8.5-1.6-.1.2-.2.3-.3.4-.3.2-.6.3-1.1.3-1.1,0-1.8-.7-1.8-1.7s.3-1.2.8-1.5c.3-.2.7-.3,1.1-.3.8,0,1.5.5,1.8,1.3.1.4.2.8.2,1.4,0,1-.3,1.9-.7,2.3-.3.3-.8.5-1.4.5s-.9-.1-1.3-.4c-.2-.2-.3-.3-.5-.7l.9-.2ZM156.3,96.8c0-.6-.5-1.1-1.1-1.1s-1.1.4-1.1,1.1.4,1,1,1,1.1-.5,1.1-1.1Z"/>
    <path d="M159.6,100.4c0-.3,0-.5,0-.9v-3.6h-.3c-.2,0-.4,0-.7,0v-.8c.2,0,.3,0,.7,0h.6c.3,0,.4,0,.7,0,0,.4,0,.7,0,1.1v3.3c0,.3,0,.6,0,.9h-1Z"/>
  </g>
  <g>
    <path d="M154.3,112.8c0,.2.1.3.2.4.2.2.4.3.8.3s.6,0,.7-.3c.3-.3.5-.8.5-1.6-.1.2-.2.3-.3.4-.3.2-.6.3-1.1.3-1.1,0-1.8-.7-1.8-1.7s.3-1.2.8-1.5c.3-.2.7-.3,1.1-.3.8,0,1.5.5,1.8,1.3.1.4.2.8.2,1.4,0,1-.3,1.9-.7,2.3-.3.3-.8.5-1.4.5s-.9-.1-1.3-.4c-.2-.2-.3-.3-.5-.7l.9-.2ZM156.3,110.5c0-.6-.5-1.1-1.1-1.1s-1.1.4-1.1,1.1.4,1,1,1,1.1-.5,1.1-1.1Z"/>
    <path d="M158.8,114.1c-.5,0-.6,0-.8,0,0-.4,0-.6.2-.8.2-.5.5-.9.9-1.3.2-.2.4-.4,1.1-.8.6-.4.8-.6.8-1s-.3-.7-.9-.7-.7.1-.8.4c-.1.2-.2.3-.2.6h-.9c0-.6.2-.9.5-1.2.3-.4.8-.6,1.5-.6,1.1,0,1.9.6,1.9,1.5s-.1.7-.5,1c-.2.2-.2.2-1.1.8-.3.2-.6.5-.8.7-.2.2-.3.3-.4.6h1.8c.4,0,.7,0,1,0v.9c-.3,0-.6,0-1,0h-2.1Z"/>
  </g>
  <g>
    <path d="M150.2,141.4c0-.3,0-.5,0-.9v-3.6h-.3c-.2,0-.4,0-.7,0v-.8c.2,0,.3,0,.7,0h.6c.3,0,.4,0,.7,0,0,.4,0,.7,0,1.1v3.3c0,.3,0,.6,0,.9h-1Z"/>
    <path d="M157.2,136.9c-.2.2-.4.5-.7.9-.7,1.2-1,2.2-1.2,3.5h-1c.2-1.1.4-1.7.8-2.5.3-.6.6-1.1,1.1-1.9h-2c-.4,0-.6,0-.9,0v-.9c.3,0,.5,0,.9,0h2.1c.5,0,.7,0,.9,0v.8Z"/>
    <path d="M158.9,140.2c0,.2.1.3.2.4.2.2.4.3.8.3s.6,0,.7-.3c.3-.3.5-.8.5-1.6-.1.2-.2.3-.3.4-.3.2-.6.3-1.1.3-1.1,0-1.8-.7-1.8-1.7s.3-1.2.8-1.5c.3-.2.7-.3,1.1-.3.8,0,1.5.5,1.8,1.3.1.4.2.8.2,1.4,0,1-.3,1.9-.7,2.3-.3.3-.8.5-1.4.5s-.9-.1-1.3-.4c-.2-.2-.3-.3-.5-.7l.9-.2ZM161,137.9c0-.6-.5-1.1-1.1-1.1s-1.1.4-1.1,1.1.4,1,1,1,1.1-.5,1.1-1.1Z"/>
  </g>
  <g>
    <path d="M150.2,155.1c0-.3,0-.5,0-.9v-3.6h-.3c-.2,0-.4,0-.7,0v-.8c.2,0,.3,0,.7,0h.6c.3,0,.4,0,.7,0,0,.4,0,.7,0,1.1v3.3c0,.3,0,.6,0,.9h-1Z"/>
    <path d="M153.8,152c-.2-.2-.3-.5-.3-.9,0-.8.7-1.4,1.8-1.4s1.4.3,1.7.7c.1.2.2.4.2.7,0,.6-.3,1.1-.9,1.2.3,0,.5.1.7.3.3.2.5.6.5,1,0,1-.7,1.5-2.1,1.5s-1.3-.2-1.7-.5c-.2-.2-.4-.6-.4-1s.2-.8.5-1.1c.2-.2.4-.2.6-.3-.3,0-.4-.2-.6-.4ZM156.4,153.6c0-.5-.4-.9-1.1-.9s-1.1.3-1.1.9.4.9,1.1.9,1.1-.3,1.1-.9ZM154.4,151.2c0,.5.4.8,1,.8s.9-.3.9-.8-.4-.8-1-.8-1,.3-1,.8Z"/>
    <path d="M158.6,154.7c-.2-.2-.3-.4-.4-.7-.2-.5-.3-1-.3-1.5s.2-1.4.4-1.8c.4-.6.9-.9,1.7-.9s1,.2,1.4.5c.2.2.3.4.4.7.2.5.3,1,.3,1.5,0,.8-.2,1.5-.5,1.9-.4.5-.9.8-1.6.8s-1-.2-1.4-.5ZM160.7,154.2c.3-.3.5-.9.5-1.7s-.2-1.4-.5-1.7c-.2-.2-.4-.3-.7-.3s-.5.1-.7.3c-.3.3-.4.9-.4,1.6s.1,1.3.3,1.6c.2.3.5.4.8.4s.5,0,.7-.3Z"/>
  </g>
  <g>
    <path class="st5" d="M452.8,30.8c0,.2.1.3.2.4.2.2.4.3.8.3s.6,0,.7-.3c.3-.3.5-.8.5-1.6-.1.2-.2.3-.3.4-.3.2-.6.3-1.1.3-1.1,0-1.8-.7-1.8-1.7s.3-1.2.8-1.5c.3-.2.7-.3,1.1-.3.8,0,1.5.5,1.8,1.3.1.4.2.8.2,1.4,0,1-.3,1.9-.7,2.3-.3.3-.8.5-1.4.5s-.9-.1-1.3-.4c-.2-.2-.3-.3-.5-.7l.9-.2ZM454.9,28.5c0-.6-.5-1.1-1.1-1.1s-1.1.4-1.1,1.1.4,1,1,1,1.1-.5,1.1-1.1Z"/>
    <path class="st5" d="M457.2,31.6c-.2-.2-.3-.4-.4-.7-.2-.5-.3-1-.3-1.5s.2-1.4.4-1.8c.4-.6.9-.9,1.7-.9s1,.2,1.4.5c.2.2.3.4.4.7.2.5.3,1,.3,1.5,0,.8-.2,1.5-.5,1.9-.4.5-.9.8-1.6.8s-1-.2-1.4-.5ZM459.3,31.1c.3-.3.5-.9.5-1.7s-.2-1.4-.5-1.7c-.2-.2-.4-.3-.7-.3s-.5.1-.7.3c-.3.3-.4.9-.4,1.6s.1,1.3.3,1.6c.2.3.5.4.8.4s.5,0,.7-.3Z"/>
  </g>
  <g>
    <path class="st5" d="M452.4,42.6c-.2-.2-.3-.5-.3-.9,0-.8.7-1.4,1.8-1.4s1.4.3,1.7.7c.1.2.2.4.2.7,0,.6-.3,1.1-.9,1.2.3,0,.5.1.7.3.3.2.5.6.5,1,0,1-.7,1.5-2.1,1.5s-1.3-.2-1.7-.5c-.2-.2-.4-.6-.4-1s.2-.8.5-1.1c.2-.2.4-.2.7-.3-.3,0-.4-.2-.6-.4ZM455,44.2c0-.5-.4-.9-1.1-.9s-1.1.3-1.1.9.4.9,1.1.9,1.1-.3,1.1-.9ZM452.9,41.8c0,.5.4.8,1,.8s.9-.3.9-.8-.4-.8-1-.8-1,.3-1,.8Z"/>
    <path class="st5" d="M457.5,44.4c0,.2.1.3.2.4.2.2.4.3.8.3s.6,0,.7-.3c.3-.3.5-.8.5-1.6-.1.2-.2.3-.3.4-.3.2-.6.3-1.1.3-1.1,0-1.8-.7-1.8-1.7s.3-1.2.8-1.5c.3-.2.7-.3,1.1-.3.8,0,1.5.5,1.8,1.3.1.4.2.8.2,1.4,0,1-.3,1.9-.7,2.3-.3.3-.8.5-1.4.5s-.9-.1-1.3-.4c-.2-.2-.3-.3-.5-.7l.9-.2ZM459.6,42.1c0-.6-.5-1.1-1.1-1.1s-1.1.4-1.1,1.1.4,1,1,1,1.1-.5,1.1-1.1Z"/>
  </g>
  <g>
    <path class="st5" d="M452.4,56.3c-.2-.2-.3-.5-.3-.9,0-.8.7-1.4,1.8-1.4s1.4.3,1.7.7c.1.2.2.4.2.7,0,.6-.3,1.1-.9,1.2.3,0,.5.1.7.3.3.2.5.6.5,1,0,1-.7,1.5-2.1,1.5s-1.3-.2-1.7-.5c-.2-.2-.4-.6-.4-1s.2-.8.5-1.1c.2-.2.4-.2.7-.3-.3,0-.4-.2-.6-.4ZM455,57.9c0-.5-.4-.9-1.1-.9s-1.1.3-1.1.9.4.9,1.1.9,1.1-.3,1.1-.9ZM452.9,55.5c0,.5.4.8,1,.8s.9-.3.9-.8-.4-.8-1-.8-1,.3-1,.8Z"/>
    <path class="st5" d="M457,56.3c-.2-.2-.3-.5-.3-.9,0-.8.7-1.4,1.8-1.4s1.4.3,1.7.7c.1.2.2.4.2.7,0,.6-.3,1.1-.9,1.2.3,0,.5.1.7.3.3.2.5.6.5,1,0,1-.7,1.5-2.1,1.5s-1.3-.2-1.7-.5c-.2-.2-.4-.6-.4-1s.2-.8.5-1.1c.2-.2.4-.2.7-.3-.3,0-.4-.2-.6-.4ZM459.7,57.9c0-.5-.4-.9-1.1-.9s-1.1.3-1.1.9.4.9,1.1.9,1.1-.3,1.1-.9ZM457.6,55.5c0,.5.4.8,1,.8s.9-.3.9-.8-.4-.8-1-.8-1,.3-1,.8Z"/>
  </g>
  <path class="st5" d="M458.2,86.7c0-.3,0-.5,0-.9v-3.6h-.3c-.2,0-.4,0-.7,0v-.8c.2,0,.3,0,.7,0h.6c.3,0,.4,0,.7,0,0,.4,0,.7,0,1.1v3.3c0,.3,0,.6,0,.9h-1Z"/>
  <path class="st5" d="M457.2,100c-.2-.2-.3-.4-.4-.7-.2-.5-.3-1-.3-1.5s.2-1.4.4-1.8c.4-.6.9-.9,1.7-.9s1,.2,1.4.5c.2.2.3.4.4.7.2.5.3,1,.3,1.5,0,.8-.2,1.5-.5,1.9-.4.5-.9.8-1.6.8s-1-.2-1.4-.5ZM459.3,99.5c.3-.3.5-.9.5-1.7s-.2-1.4-.5-1.7c-.2-.2-.4-.3-.7-.3s-.5.1-.7.3c-.3.3-.4.9-.4,1.6s.1,1.3.3,1.6c.2.3.5.4.8.4s.5,0,.7-.3Z"/>
  <g>
    <path class="st3" d="M453.7,111.7c.2,0,.4,0,.6,0h1c.3,0,.4,0,.6,0v.9c-.2,0-.4,0-.6,0h-1c-.3,0-.4,0-.6,0v-.9Z"/>
    <path class="st3" d="M458.2,114.1c0-.3,0-.5,0-.9v-3.6h-.3c-.2,0-.4,0-.7,0v-.8c.2,0,.3,0,.7,0h.6c.3,0,.4,0,.7,0,0,.4,0,.7,0,1.1v3.3c0,.3,0,.6,0,.9h-1Z"/>
  </g>
  <g>
    <path class="st3" d="M449.1,139c.2,0,.4,0,.6,0h1c.3,0,.4,0,.6,0v.9c-.2,0-.4,0-.6,0h-1c-.3,0-.4,0-.6,0v-.9Z"/>
    <path class="st3" d="M452.4,138.3c-.2-.2-.3-.5-.3-.9,0-.8.7-1.4,1.8-1.4s1.4.3,1.7.7c.1.2.2.4.2.7,0,.6-.3,1.1-.9,1.2.3,0,.5.1.7.3.3.2.5.6.5,1,0,1-.7,1.5-2.1,1.5s-1.3-.2-1.7-.5c-.2-.2-.4-.6-.4-1s.2-.8.5-1.1c.2-.2.4-.2.6-.3-.3,0-.4-.2-.6-.4ZM455,140c0-.5-.4-.9-1.1-.9s-1.1.3-1.1.9.4.9,1.1.9,1.1-.3,1.1-.9ZM452.9,137.6c0,.5.4.8,1,.8s.9-.3.9-.8-.4-.8-1-.8-1,.3-1,.8Z"/>
    <path class="st3" d="M457,138.3c-.2-.2-.3-.5-.3-.9,0-.8.7-1.4,1.8-1.4s1.4.3,1.7.7c.1.2.2.4.2.7,0,.6-.3,1.1-.9,1.2.3,0,.5.1.7.3.3.2.5.6.5,1,0,1-.7,1.5-2.1,1.5s-1.3-.2-1.7-.5c-.2-.2-.4-.6-.4-1s.2-.8.5-1.1c.2-.2.4-.2.6-.3-.3,0-.4-.2-.6-.4ZM459.7,140c0-.5-.4-.9-1.1-.9s-1.1.3-1.1.9.4.9,1.1.9,1.1-.3,1.1-.9ZM457.6,137.6c0,.5.4.8,1,.8s.9-.3.9-.8-.4-.8-1-.8-1,.3-1,.8Z"/>
  </g>
  <g>
    <path class="st3" d="M449.1,152.7c.2,0,.4,0,.6,0h1c.3,0,.4,0,.6,0v.9c-.2,0-.4,0-.6,0h-1c-.3,0-.4,0-.6,0v-.9Z"/>
    <path class="st3" d="M452.4,152c-.2-.2-.3-.5-.3-.9,0-.8.7-1.4,1.8-1.4s1.4.3,1.7.7c.1.2.2.4.2.7,0,.6-.3,1.1-.9,1.2.3,0,.5.1.7.3.3.2.5.6.5,1,0,1-.7,1.5-2.1,1.5s-1.3-.2-1.7-.5c-.2-.2-.4-.6-.4-1s.2-.8.5-1.1c.2-.2.4-.2.6-.3-.3,0-.4-.2-.6-.4ZM455,153.6c0-.5-.4-.9-1.1-.9s-1.1.3-1.1.9.4.9,1.1.9,1.1-.3,1.1-.9ZM452.9,151.2c0,.5.4.8,1,.8s.9-.3.9-.8-.4-.8-1-.8-1,.3-1,.8Z"/>
    <path class="st3" d="M457.5,153.8c0,.2.1.3.2.4.2.2.4.3.8.3s.6,0,.7-.3c.3-.3.5-.8.5-1.6-.1.2-.2.3-.3.4-.3.2-.6.3-1.1.3-1.1,0-1.8-.7-1.8-1.7s.3-1.2.8-1.5c.3-.2.7-.3,1.1-.3.8,0,1.5.5,1.8,1.3.1.4.2.8.2,1.4,0,1-.3,1.9-.7,2.3-.3.3-.8.5-1.4.5s-.9-.1-1.3-.4c-.2-.2-.3-.3-.5-.7l.9-.2ZM459.6,151.5c0-.6-.5-1.1-1.1-1.1s-1.1.4-1.1,1.1.4,1,1,1,1.1-.5,1.1-1.1Z"/>
  </g>
  <path class="st5" d="M465.4,33.5c-.4-.6-.5-.9-.7-1.4-.2-.5-.3-1.1-.3-1.7s0-1.2.3-1.7c.2-.5.3-.8.7-1.4l.4.3c-.4.6-.5.9-.7,1.3-.2.5-.2,1-.2,1.5s0,1,.2,1.5c.1.5.3.8.7,1.3l-.4.3ZM467.7,28.1c0,.4-.3.7-.7.7s-.7-.3-.7-.7.3-.7.7-.7.7.3.7.7ZM466.5,28.1c0,.2.2.4.4.4s.4-.2.4-.4-.2-.4-.4-.4-.4.2-.4.4ZM469.1,27.5c0,.2.1.3.3.6l2.1,3.1c0,.1.3.4.4.7,0-.5,0-.8,0-.9v-2.8c0-.3,0-.5,0-.8h.6c0,.2,0,.4,0,.8v3.5c0,.3,0,.5,0,.7h-.7c0-.2-.2-.3-.3-.6l-2.1-3.2c0,0-.3-.5-.4-.6,0,.3,0,.6,0,.8v2.8c0,.3,0,.6,0,.8h-.6c0-.2,0-.4,0-.8v-3.5c0-.3,0-.5,0-.7h.7ZM473.6,27.4c.4.6.5.9.7,1.4.2.5.3,1.1.3,1.7s0,1.2-.3,1.7c-.2.5-.3.8-.7,1.4l-.4-.3c.4-.6.5-.9.7-1.3.2-.5.2-1,.2-1.5s0-1-.2-1.5c-.1-.5-.3-.8-.7-1.3l.4-.3Z"/>
  <path class="st3" d="M465.4,115.6c-.4-.6-.5-.9-.7-1.4-.2-.5-.3-1.1-.3-1.7s0-1.2.3-1.7c.2-.5.3-.8.7-1.4l.4.3c-.4.6-.5.9-.7,1.3-.2.5-.2,1-.2,1.5s0,1,.2,1.5c.1.5.3.8.7,1.3l-.4.3ZM467.7,110.2c0,.4-.3.7-.7.7s-.7-.3-.7-.7.3-.7.7-.7.7.3.7.7ZM466.5,110.2c0,.2.2.4.4.4s.4-.2.4-.4-.2-.4-.4-.4-.4.2-.4.4ZM471.3,110.8c0-.3-.1-.4-.2-.5-.2-.2-.5-.4-1-.4-.7,0-1.1.4-1.1.9s.2.6.6.7c.2,0,.2,0,.9.2,1.1.2,1.5.6,1.5,1.4s-.6,1.5-1.8,1.5-1.3-.2-1.6-.6c-.2-.2-.2-.4-.3-.9h.6c0,.2,0,.4.2.6.2.3.6.5,1.1.5.8,0,1.3-.4,1.3-1s-.1-.6-.4-.7c-.2-.1-.3-.1-1.1-.3-.4,0-.7-.2-.9-.3-.4-.2-.6-.6-.6-1,0-.8.7-1.4,1.7-1.4s1.2.2,1.5.6c.2.2.2.4.3.7h-.6ZM472.9,109.4c.4.6.5.9.7,1.4.2.5.3,1.1.3,1.7s0,1.2-.3,1.7c-.2.5-.3.8-.7,1.4l-.4-.3c.4-.6.5-.9.7-1.3.2-.5.2-1,.2-1.5s0-1-.2-1.5c-.1-.5-.3-.8-.7-1.3l.4-.3Z"/>
  <path d="M160.1,66.7c0,.3-.2.5-.5.5s-.5-.2-.5-.5.2-.5.5-.5.5.2.5.5Z"/>
  <path d="M160.1,69.9c0,.3-.2.5-.5.5s-.5-.2-.5-.5.2-.5.5-.5.5.2.5.5Z"/>
  <path d="M160.1,73.2c0,.3-.2.5-.5.5s-.5-.2-.5-.5.2-.5.5-.5.5.2.5.5Z"/>
  <path d="M160.1,121.4c0,.3-.2.5-.5.5s-.5-.2-.5-.5.2-.5.5-.5.5.2.5.5Z"/>
  <path d="M160.1,124.6c0,.3-.2.5-.5.5s-.5-.2-.5-.5.2-.5.5-.5.5.2.5.5Z"/>
  <path d="M160.1,127.9c0,.3-.2.5-.5.5s-.5-.2-.5-.5.2-.5.5-.5.5.2.5.5Z"/>
  <path class="st5" d="M458.7,66.7c0,.3-.2.5-.5.5s-.5-.2-.5-.5.2-.5.5-.5.5.2.5.5Z"/>
  <path class="st5" d="M458.7,69.9c0,.3-.2.5-.5.5s-.5-.2-.5-.5.2-.5.5-.5.5.2.5.5Z"/>
  <path class="st5" d="M458.7,73.2c0,.3-.2.5-.5.5s-.5-.2-.5-.5.2-.5.5-.5.5.2.5.5Z"/>
  <path class="st3" d="M458.7,121.4c0,.3-.2.5-.5.5s-.5-.2-.5-.5.2-.5.5-.5.5.2.5.5Z"/>
  <path class="st3" d="M458.7,124.6c0,.3-.2.5-.5.5s-.5-.2-.5-.5.2-.5.5-.5.5.2.5.5Z"/>
  <path class="st3" d="M458.7,127.9c0,.3-.2.5-.5.5s-.5-.2-.5-.5.2-.5.5-.5.5.2.5.5Z"/>
</svg>