<?xml version="1.0" encoding="UTF-8"?>
<svg id="Layer_1" xmlns="http://www.w3.org/2000/svg" xmlns:xlink="http://www.w3.org/1999/xlink" version="1.1" viewBox="0 0 618.7 122.9">
  <!-- Generator: Adobe Illustrator 29.2.1, SVG Export Plug-In . SVG Version: 2.1.0 Build 116)  -->
  <defs>
    <style>
      .st0, .st1 {
        fill: none;
      }

      .st2 {
        fill: #ff968d;
      }

      .st3 {
        clip-path: url(#clippath-10);
      }

      .st4 {
        clip-path: url(#clippath-1);
      }

      .st5 {
        clip-path: url(#clippath-3);
      }

      .st6 {
        clip-path: url(#clippath-4);
      }

      .st7 {
        clip-path: url(#clippath-2);
      }

      .st8 {
        clip-path: url(#clippath-7);
      }

      .st9 {
        clip-path: url(#clippath-6);
      }

      .st10 {
        clip-path: url(#clippath-9);
      }

      .st11 {
        clip-path: url(#clippath-8);
      }

      .st12 {
        clip-path: url(#clippath-5);
      }

      .st13 {
        fill: #fff;
      }

      .st1 {
        stroke: #000;
      }

      .st14 {
        clip-path: url(#clippath);
      }
    </style>
    <clipPath id="clippath">
      <rect class="st0" x="255.1" y="2.1" width="118.8" height="118.8"/>
    </clipPath>
    <clipPath id="clippath-1">
      <rect class="st0" x="256.3" y="3.3" width="38.6" height="38.6"/>
    </clipPath>
    <clipPath id="clippath-2">
      <rect class="st0" x="295.3" y="3.3" width="38.6" height="38.6"/>
    </clipPath>
    <clipPath id="clippath-3">
      <rect class="st0" x="334.3" y="3.3" width="38.6" height="38.6"/>
    </clipPath>
    <clipPath id="clippath-4">
      <rect class="st0" x="256.3" y="42.3" width="38.6" height="38.6"/>
    </clipPath>
    <clipPath id="clippath-5">
      <rect class="st0" x="295.3" y="42.3" width="38.6" height="38.6"/>
    </clipPath>
    <clipPath id="clippath-6">
      <rect class="st0" x="334.3" y="42.3" width="38.6" height="38.6"/>
    </clipPath>
    <clipPath id="clippath-7">
      <rect class="st0" x="256.3" y="81.3" width="38.6" height="38.6"/>
    </clipPath>
    <clipPath id="clippath-8">
      <rect class="st0" x="295.3" y="81.3" width="38.6" height="38.6"/>
    </clipPath>
    <clipPath id="clippath-9">
      <rect class="st0" x="334.3" y="81.3" width="38.6" height="38.6"/>
    </clipPath>
    <clipPath id="clippath-10">
      <rect class="st0" x="255.1" y="2.1" width="118.8" height="118.8"/>
    </clipPath>
  </defs>
  <g class="st14">
    <rect class="st13" x="256" y="3" width="39" height="39"/>
    <rect class="st13" x="295" y="3" width="39" height="39"/>
    <rect class="st13" x="334.1" y="3" width="39" height="39"/>
    <rect class="st13" x="256" y="42.1" width="39" height="39"/>
    <rect class="st2" x="295" y="42.1" width="39" height="39"/>
    <rect class="st13" x="334.1" y="42.1" width="39" height="39"/>
    <rect class="st13" x="256" y="81.1" width="39" height="39"/>
    <rect class="st13" x="295" y="81.1" width="39" height="39"/>
    <rect class="st13" x="334.1" y="81.1" width="39" height="39"/>
  </g>
  <g class="st4">
    <g>
      <path d="M268.2,20.7c-.9,0-1.2,0-1.2,0,0,0-.1,0-.1-.1v-.8c0,0,0-.1.1-.1s.3,0,1.2,0h1.2c0-.2,0-.4,0-.6,0-.3,0-.7,0-.9.4,0,.8,0,1,.1.1,0,.2,0,.2.1s0,.1,0,.2c0,0-.1.3-.2.6v.5c0,0,3.1,0,3.1,0,.9,0,1.2,0,1.2,0,0,0,.1,0,.1.1v.8c0,0,0,.1-.1.1s-.3,0-1.2,0h-3.3c-.1.6-.3,1.1-.5,1.7h3.1c.9,0,1.2,0,1.2,0,0,0,.1,0,.1.1v.7c0,0,0,.1-.1.1s-.4,0-1.2,0h-.8v2.2h1.4c.9,0,1.2,0,1.3,0,0,0,0,0,0,.1v.8c0,0,0,.1,0,.1s-.4,0-1.3,0h-3.8c-.9,0-1.2,0-1.3,0,0,0,0,0,0-.1v-.8c0-.1,0-.1,0-.1s.4,0,1.3,0h1.4v-2.2h-1.8c-.5,1-1.1,1.9-2,2.7,0,0-.2.1-.2.1s0,0-.2-.2c-.2-.2-.3-.5-.5-.6,1.4-1.1,2.3-2.7,2.7-4.6h-1.1Z"/>
      <path d="M277.4,26.3c-.8,0-1.1,0-1.2,0,0,0-.1,0-.1-.1v-.9c0,0,0-.1.1-.1s.3,0,1.2,0h2v-5.3c0-.8,0-1.1,0-1.6.4,0,.8,0,1.1,0,0,0,.2,0,.2.1s0,.1,0,.2c0,.1,0,.3,0,.9v1.5h1.8c.8,0,1.1,0,1.2,0,0,0,.1,0,.1.1v.9c0,0,0,.1-.1.1s-.3,0-1.2,0h-1.8v3h2.6c.8,0,1.1,0,1.2,0,0,0,.1,0,.1.1v.9c0,0,0,.1-.1.1s-.3,0-1.2,0h-5.6Z"/>
    </g>
  </g>
  <g class="st7">
    <path d="M311.8,26.3c-.8,0-1.1,0-1.2,0,0,0-.1,0-.1-.1v-.9c0,0,0-.1.1-.1s.3,0,1.2,0h2v-5.3c0-.8,0-1.1,0-1.6.4,0,.8,0,1.1,0,0,0,.2,0,.2.1s0,.1,0,.2c0,.1,0,.3,0,.9v1.5h1.8c.8,0,1.1,0,1.2,0,0,0,.1,0,.1.1v.9c0,0,0,.1-.1.1s-.3,0-1.2,0h-1.8v3h2.6c.8,0,1.1,0,1.2,0,0,0,.1,0,.1.1v.9c0,0,0,.1-.1.1s-.3,0-1.2,0h-5.6Z"/>
  </g>
  <g class="st5">
    <g>
      <path d="M346,20.9c-.8,0-1.1,0-1.2,0-.1,0-.1,0-.1-.1v-.8c0,0,0-.1.1-.1s.3,0,1.2,0h1.6c0-.2,0-.3.1-.5.1-.5.2-.8.2-1.2.3,0,.7.1,1,.2.1,0,.2,0,.2.1s0,.1,0,.2c0,.1-.1.3-.2.6,0,.2,0,.3-.1.5h3c.8,0,1.1,0,1.2,0,0,0,0,0,0,.1v.8c0,0,0,.1,0,.1s-.3,0-1.2,0h-3.3c-.2.6-.5,1.2-.9,1.7h3.2c.9,0,1.2,0,1.3,0s0,0,0,.1,0,.3,0,1.1v1c0,1.5,0,1.7,0,1.8,0,0,0,0,0,0h-.8c0,0,0,0,0,0v-.4h-3.4v.5c0,0,0,0-.1,0h-.8c0,0-.1,0-.1,0s0-.3,0-1.8v-1.2c-.3.4-.7.7-1.1,1.1-.1,0-.2.1-.2.1s0,0-.2-.2c-.2-.3-.4-.5-.5-.6,1.3-.9,2.2-1.9,2.7-3.2h-1.3ZM347.7,25.3h3.4v-1.8h-3.4v1.8Z"/>
      <path d="M355.5,26.3c-.8,0-1.1,0-1.2,0,0,0-.1,0-.1-.1v-.9c0,0,0-.1.1-.1s.3,0,1.2,0h2v-5.3c0-.8,0-1.1,0-1.6.4,0,.8,0,1.1,0,0,0,.2,0,.2.1s0,.1,0,.2c0,.1,0,.3,0,.9v1.5h1.8c.8,0,1.1,0,1.2,0,0,0,.1,0,.1.1v.9c0,0,0,.1-.1.1s-.3,0-1.2,0h-1.8v3h2.6c.8,0,1.1,0,1.2,0,0,0,.1,0,.1.1v.9c0,0,0,.1-.1.1s-.3,0-1.2,0h-5.6Z"/>
    </g>
  </g>
  <g class="st6">
    <path d="M272.8,59.7c-.9,0-1.2,0-1.2,0,0,0-.1,0-.1-.1v-.8c0,0,0-.1.1-.1s.3,0,1.2,0h1.2c0-.2,0-.4,0-.6,0-.3,0-.7,0-.9.4,0,.8,0,1,.1.1,0,.2,0,.2.1s0,.1,0,.2c0,0-.1.3-.2.6v.5c0,0,3.1,0,3.1,0,.9,0,1.2,0,1.2,0,0,0,.1,0,.1.1v.8c0,0,0,.1-.1.1s-.3,0-1.2,0h-3.3c-.1.6-.3,1.1-.5,1.7h3.1c.9,0,1.2,0,1.2,0,0,0,.1,0,.1.1v.7c0,0,0,.1-.1.1s-.4,0-1.2,0h-.8v2.2h1.4c.9,0,1.2,0,1.3,0,0,0,0,0,0,.1v.8c0,0,0,.1,0,.1s-.4,0-1.3,0h-3.8c-.9,0-1.2,0-1.3,0,0,0,0,0,0-.1v-.8c0-.1,0-.1,0-.1s.4,0,1.3,0h1.4v-2.2h-1.8c-.5,1-1.1,1.9-2,2.7,0,0-.2.1-.2.1s0,0-.2-.2c-.2-.2-.3-.5-.5-.6,1.4-1.1,2.3-2.7,2.7-4.6h-1.1Z"/>
  </g>
  <g class="st12">
    <g>
      <path d="M307.6,60.5c0,0,0,0,0,0s0-.5,0-2.8v-1.6c0-1.6,0-2,0-2.1,0,0,0,0,0,0s.4,0,1.2,0h.5c.1-.3.2-.5.3-.8,0-.1,0-.2,0-.4.3,0,.7,0,.9.1,0,0,.1,0,.1.1s0,0,0,.1c0,0-.1.1-.1.2,0,.2-.2.4-.3.6h1.6c.8,0,1.1,0,1.2,0,0,0,0,0,0,0s0,.5,0,1.9v1.8c0,2.3,0,2.7,0,2.7,0,0,0,0,0,0h-.8c0,0,0,0,0,0v-.4h-3.8v.4c0,0,0,0,0,0h-.7ZM308.4,55.7h3.8v-.9h-3.8v.9ZM312.2,57.4v-.9h-3.8v.9h3.8ZM312.2,59.2v-1h-3.8v1h3.8Z"/>
      <path d="M319.9,53c.1,0,.1,0,.2,0,.5,1.3,1.6,2.5,2.7,3.1-.2.1-.3.4-.5.6,0,.1-.1.2-.2.2s0,0-.2-.1c-.3-.2-.6-.4-.8-.7,0,.2,0,.5,0,.8,0,.9,0,1.6-.2,2.4-.1.7-.4,1-1.3,1s-.4,0-.6,0c-.3,0-.3,0-.3-.3,0-.3-.1-.5-.3-.7.4,0,.7,0,1,0s.5-.1.6-.5c0-.5.1-1.1.2-2.1h-1.5c-.2,1.7-1,2.9-2.6,3.6,0,0-.2,0-.2,0s0,0-.2-.2c-.1-.2-.3-.4-.4-.5,1.5-.6,2.3-1.5,2.4-2.9h-.1c-.8,0-1.1,0-1.1,0,0,0,0,0,0,0v-.6c-.3.3-.5.5-.8.7,0,0-.1.1-.2.1,0,0,0,0-.2-.2-.1-.2-.3-.4-.5-.5,1.1-.7,2-1.7,2.4-2.8,0-.2.1-.3.2-.5.3,0,.7.2.9.3,0,0,.1,0,.1.1s0,0,0,.1c0,0-.1.1-.2.3-.4.9-.9,1.6-1.5,2.2.1,0,.4,0,1.1,0h2.3c.7,0,1,0,1.1,0-.8-.8-1.4-1.7-1.8-2.7,0,0,0-.1,0-.1l.6-.2Z"/>
    </g>
    <g>
      <path d="M305.8,63.2c-1.4,1.2-1.9,2.4-1.9,3.9s.5,2.7,1.9,3.9l-.2.3c-1.6-1.2-2.3-2.5-2.3-4.1s.7-3,2.3-4.1l.2.3Z"/>
      <path d="M309.8,64.3c0-.5,0-.8,0-1.1.3,0,.7,0,.9,0,0,0,.1,0,.1.1s0,.1,0,.2c0,.1,0,.3,0,.7v.6h1.6c.8,0,1.1,0,1.2,0s0,0,0,0,0,.3,0,1v1c0,1.4,0,1.6,0,1.6,0,0,0,0,0,0h-.7c0,0,0,0,0,0v-.4h-2v1c0,1,0,1.5,0,1.6,0,0,0,0,0,0h-.8c0,0,0,0,0,0s0-.5,0-1.5v-1.1h-1.9v.4c0,0,0,.1,0,.1h-.7c0,0,0,0,0-.1s0-.3,0-1.7v-.9c0-.9,0-1.1,0-1.2,0,0,0,0,0,0s.3,0,1.1,0h1.5v-.6ZM308,67.4h1.9v-1.8h-1.9v1.8ZM310.7,65.7v1.8h2v-1.8h-2Z"/>
      <path d="M316.5,66.4c.1,0,.1,0,.1.1-.1,1.1-.4,1.9-.8,2.9,0,0,0,.1-.2,0l-.6-.3c-.1,0-.1,0,0-.2.4-.9.6-1.7.8-2.7,0-.1,0-.1.2,0l.6.2ZM318.1,69.4c0,.2,0,.3.2.4.1,0,.3,0,.7,0s.7,0,.8-.2c.2-.2.2-.4.2-1.4.2.1.4.2.7.3q.2,0,.2.3c0,1-.2,1.3-.5,1.5-.3.3-.8.4-1.6.4s-1.2,0-1.4-.2c-.2-.1-.3-.3-.3-.8v-3.2c0-.4,0-.7,0-1,.3,0,.6,0,.9,0,.1,0,.2,0,.2.1s0,0,0,.2c0,0,0,.2,0,.6v2.9ZM317.7,63.4c0,0,0-.1.2,0,.8.3,1.5.6,2.3,1.1,0,0,0,0,0,.2l-.4.6c0,.1,0,.1-.2,0-.7-.5-1.6-.9-2.3-1.2,0,0,0,0,0,0s0,0,0-.1l.4-.5ZM321.4,66.1c.1,0,.1,0,.2,0,.5.8.9,1.8,1.1,2.6,0,0,0,.1,0,.2l-.6.3c-.1,0-.1,0-.2,0-.2-.9-.6-1.8-1.1-2.7,0,0,0-.1,0-.2l.6-.3Z"/>
      <path d="M323.5,62.9c1.6,1.2,2.3,2.5,2.3,4.1s-.7,3-2.3,4.1l-.2-.3c1.4-1.2,1.9-2.4,1.9-3.9s-.5-2.7-1.9-3.9l.2-.3Z"/>
    </g>
  </g>
  <g class="st9">
    <path d="M350.7,59.9c-.8,0-1.1,0-1.2,0-.1,0-.1,0-.1-.1v-.8c0,0,0-.1.1-.1s.3,0,1.2,0h1.6c0-.2,0-.3.1-.5.1-.5.2-.8.2-1.2.3,0,.7.1,1,.2.1,0,.2,0,.2.1s0,.1,0,.2c0,.1-.1.3-.2.6,0,.2,0,.3-.1.5h3c.8,0,1.1,0,1.2,0,0,0,0,0,0,.1v.8c0,0,0,.1,0,.1s-.3,0-1.2,0h-3.3c-.2.6-.5,1.2-.9,1.7h3.2c.9,0,1.2,0,1.3,0s0,0,0,.1,0,.3,0,1.1v1c0,1.5,0,1.7,0,1.8,0,0,0,0,0,0h-.8c0,0,0,0,0,0v-.4h-3.4v.5c0,0,0,0-.1,0h-.8c0,0-.1,0-.1,0s0-.3,0-1.8v-1.2c-.3.4-.7.7-1.1,1.1-.1,0-.2.1-.2.1s0,0-.2-.2c-.2-.3-.4-.5-.5-.6,1.3-.9,2.2-1.9,2.7-3.2h-1.3ZM352.4,64.3h3.4v-1.8h-3.4v1.8Z"/>
  </g>
  <g class="st8">
    <g>
      <path d="M268.2,98.8c-.9,0-1.2,0-1.2,0,0,0-.1,0-.1-.1v-.8c0,0,0-.1.1-.1s.3,0,1.2,0h1.2c0-.2,0-.4,0-.6,0-.3,0-.7,0-.9.4,0,.8,0,1,.1.1,0,.2,0,.2.1s0,.1,0,.2c0,0-.1.3-.2.6v.5c0,0,3.1,0,3.1,0,.9,0,1.2,0,1.2,0,0,0,.1,0,.1.1v.8c0,0,0,.1-.1.1s-.3,0-1.2,0h-3.3c-.1.6-.3,1.1-.5,1.7h3.1c.9,0,1.2,0,1.2,0,0,0,.1,0,.1.1v.7c0,0,0,.1-.1.1s-.4,0-1.2,0h-.8v2.2h1.4c.9,0,1.2,0,1.3,0,0,0,0,0,0,.1v.8c0,0,0,.1,0,.1s-.4,0-1.3,0h-3.8c-.9,0-1.2,0-1.3,0,0,0,0,0,0-.1v-.8c0-.1,0-.1,0-.1s.4,0,1.3,0h1.4v-2.2h-1.8c-.5,1-1.1,1.9-2,2.7,0,0-.2.1-.2.1s0,0-.2-.2c-.2-.2-.3-.5-.5-.6,1.4-1.1,2.3-2.7,2.7-4.6h-1.1Z"/>
      <path d="M277.4,97.9c-.8,0-1.1,0-1.2,0,0,0-.1,0-.1-.1v-.8c0,0,0-.1.1-.1s.3,0,1.2,0h5.7c.8,0,1.1,0,1.2,0,0,0,.1,0,.1.1v.8c0,0,0,.1-.1.1s-.3,0-1.2,0h-2.5v1.2c.9.4,2,.9,2.9,1.5,0,0,0,0,0,0s0,0,0,.1l-.4.6c0,.1-.1.1-.2,0-.8-.5-1.6-1-2.3-1.4v3.3c0,.8,0,1.2,0,1.3,0,0,0,.1-.1.1h-.9c-.1,0-.1,0-.1-.1s0-.4,0-1.3v-5.6h-2.1Z"/>
    </g>
  </g>
  <g class="st11">
    <path d="M311.7,97.9c-.8,0-1.1,0-1.2,0,0,0-.1,0-.1-.1v-.8c0,0,0-.1.1-.1s.3,0,1.2,0h5.7c.8,0,1.1,0,1.2,0,0,0,.1,0,.1.1v.8c0,0,0,.1-.1.1s-.3,0-1.2,0h-2.5v1.2c.9.4,2,.9,2.9,1.5,0,0,0,0,0,0s0,0,0,.1l-.4.6c0,.1-.1.1-.2,0-.8-.5-1.6-1-2.3-1.4v3.3c0,.8,0,1.2,0,1.3,0,0,0,.1-.1.1h-.9c-.1,0-.1,0-.1-.1s0-.4,0-1.3v-5.6h-2.1Z"/>
  </g>
  <g class="st10">
    <g>
      <path d="M346,98.9c-.8,0-1.1,0-1.2,0-.1,0-.1,0-.1-.1v-.8c0,0,0-.1.1-.1s.3,0,1.2,0h1.6c0-.2,0-.3.1-.5.1-.5.2-.8.2-1.2.3,0,.7.1,1,.2.1,0,.2,0,.2.1s0,.1,0,.2c0,.1-.1.3-.2.6,0,.2,0,.3-.1.5h3c.8,0,1.1,0,1.2,0,0,0,0,0,0,.1v.8c0,0,0,.1,0,.1s-.3,0-1.2,0h-3.3c-.2.6-.5,1.2-.9,1.7h3.2c.9,0,1.2,0,1.3,0s0,0,0,.1,0,.3,0,1.1v1c0,1.5,0,1.7,0,1.8,0,0,0,0,0,0h-.8c0,0,0,0,0,0v-.4h-3.4v.5c0,0,0,0-.1,0h-.8c0,0-.1,0-.1,0s0-.3,0-1.8v-1.2c-.3.4-.7.7-1.1,1.1-.1,0-.2.1-.2.1s0,0-.2-.2c-.2-.3-.4-.5-.5-.6,1.3-.9,2.2-1.9,2.7-3.2h-1.3ZM347.7,103.3h3.4v-1.8h-3.4v1.8Z"/>
      <path d="M355.4,97.9c-.8,0-1.1,0-1.2,0,0,0-.1,0-.1-.1v-.8c0,0,0-.1.1-.1s.3,0,1.2,0h5.7c.8,0,1.1,0,1.2,0,0,0,.1,0,.1.1v.8c0,0,0,.1-.1.1s-.3,0-1.2,0h-2.5v1.2c.9.4,2,.9,2.9,1.5,0,0,0,0,0,0s0,0,0,.1l-.4.6c0,.1-.1.1-.2,0-.8-.5-1.6-1-2.3-1.4v3.3c0,.8,0,1.2,0,1.3,0,0,0,.1-.1.1h-.9c-.1,0-.1,0-.1-.1s0-.4,0-1.3v-5.6h-2.1Z"/>
    </g>
  </g>
  <g class="st3">
    <line class="st1" x1="295" y1="2.8" x2="295" y2="42.1"/>
    <line class="st1" x1="295" y1="42.1" x2="295" y2="81.1"/>
    <line class="st1" x1="295" y1="81.1" x2="295" y2="120.3"/>
    <line class="st1" x1="334.1" y1="2.8" x2="334.1" y2="42.1"/>
    <line class="st1" x1="334.1" y1="42.1" x2="334.1" y2="120.3"/>
    <line class="st1" x1="255.8" y1="81.1" x2="295" y2="81.1"/>
    <line class="st1" x1="295" y1="81.1" x2="373.3" y2="81.1"/>
    <line class="st1" x1="255.8" y1="42.1" x2="295" y2="42.1"/>
    <line class="st1" x1="295" y1="42.1" x2="334.1" y2="42.1"/>
    <line class="st1" x1="334.1" y1="42.1" x2="373.3" y2="42.1"/>
    <line class="st1" x1="256" y1="2.8" x2="256" y2="81.1"/>
    <line class="st1" x1="256" y1="81.1" x2="256" y2="120.3"/>
    <line class="st1" x1="373.1" y1="2.8" x2="373.1" y2="42.1"/>
    <line class="st1" x1="373.1" y1="42.1" x2="373.1" y2="120.3"/>
    <line class="st1" x1="255.8" y1="3" x2="295" y2="3"/>
    <line class="st1" x1="295" y1="3" x2="334.1" y2="3"/>
    <line class="st1" x1="334.1" y1="3" x2="373.3" y2="3"/>
    <line class="st1" x1="255.8" y1="120.1" x2="295" y2="120.1"/>
    <line class="st1" x1="295" y1="120.1" x2="373.3" y2="120.1"/>
  </g>
</svg>