<?xml version="1.0" encoding="UTF-8"?>
<svg id="Layer_1" xmlns="http://www.w3.org/2000/svg" xmlns:xlink="http://www.w3.org/1999/xlink" version="1.1" viewBox="0 0 618.7 163.4">
  <!-- Generator: Adobe Illustrator 29.2.1, SVG Export Plug-In . SVG Version: 2.1.0 Build 116)  -->
  <defs>
    <style>
      .st0, .st1, .st2, .st3 {
        fill: none;
      }

      .st1 {
        stroke-width: 2px;
      }

      .st1, .st2, .st3 {
        stroke: #000;
      }

      .st4 {
        fill: #ff968d;
      }

      .st2 {
        stroke-width: .8px;
      }

      .st5 {
        clip-path: url(#clippath-17);
      }

      .st6 {
        clip-path: url(#clippath-19);
      }

      .st7 {
        clip-path: url(#clippath-11);
      }

      .st8 {
        clip-path: url(#clippath-16);
      }

      .st9 {
        clip-path: url(#clippath-18);
      }

      .st10 {
        clip-path: url(#clippath-10);
      }

      .st11 {
        clip-path: url(#clippath-15);
      }

      .st12 {
        clip-path: url(#clippath-13);
      }

      .st13 {
        clip-path: url(#clippath-14);
      }

      .st14 {
        clip-path: url(#clippath-12);
      }

      .st15 {
        clip-path: url(#clippath-30);
      }

      .st16 {
        clip-path: url(#clippath-27);
      }

      .st17 {
        clip-path: url(#clippath-29);
      }

      .st18 {
        clip-path: url(#clippath-26);
      }

      .st19 {
        clip-path: url(#clippath-28);
      }

      .st20 {
        clip-path: url(#clippath-20);
      }

      .st21 {
        clip-path: url(#clippath-21);
      }

      .st22 {
        clip-path: url(#clippath-22);
      }

      .st23 {
        clip-path: url(#clippath-23);
      }

      .st24 {
        clip-path: url(#clippath-24);
      }

      .st25 {
        clip-path: url(#clippath-25);
      }

      .st26 {
        clip-path: url(#clippath-1);
      }

      .st27 {
        clip-path: url(#clippath-3);
      }

      .st28 {
        clip-path: url(#clippath-4);
      }

      .st29 {
        clip-path: url(#clippath-2);
      }

      .st30 {
        clip-path: url(#clippath-7);
      }

      .st31 {
        clip-path: url(#clippath-6);
      }

      .st32 {
        clip-path: url(#clippath-9);
      }

      .st33 {
        clip-path: url(#clippath-8);
      }

      .st34 {
        clip-path: url(#clippath-5);
      }

      .st35 {
        fill: #fff;
      }

      .st36 {
        clip-path: url(#clippath);
      }
    </style>
    <clipPath id="clippath">
      <rect class="st0" x="251.2" y="29.5" width="128.6" height="128.6"/>
    </clipPath>
    <clipPath id="clippath-1">
      <rect class="st0" x="252.5" y="30.7" width="41.7" height="41.7"/>
    </clipPath>
    <clipPath id="clippath-2">
      <rect class="st0" x="294.8" y="30.7" width="41.7" height="41.7"/>
    </clipPath>
    <clipPath id="clippath-3">
      <rect class="st0" x="337" y="30.7" width="41.7" height="41.7"/>
    </clipPath>
    <clipPath id="clippath-4">
      <rect class="st0" x="252.5" y="73" width="41.7" height="41.7"/>
    </clipPath>
    <clipPath id="clippath-5">
      <rect class="st0" x="294.8" y="73" width="41.7" height="41.7"/>
    </clipPath>
    <clipPath id="clippath-6">
      <rect class="st0" x="337" y="73" width="41.7" height="41.7"/>
    </clipPath>
    <clipPath id="clippath-7">
      <rect class="st0" x="252.5" y="115.2" width="41.7" height="41.7"/>
    </clipPath>
    <clipPath id="clippath-8">
      <rect class="st0" x="294.8" y="115.2" width="41.7" height="41.7"/>
    </clipPath>
    <clipPath id="clippath-9">
      <rect class="st0" x="337" y="115.2" width="41.7" height="41.7"/>
    </clipPath>
    <clipPath id="clippath-10">
      <rect class="st0" x="251.2" y="29.5" width="128.6" height="128.6"/>
    </clipPath>
    <clipPath id="clippath-11">
      <rect class="st0" x="227.9" y="39.9" width="5.9" height="118.1"/>
    </clipPath>
    <clipPath id="clippath-12">
      <rect class="st0" x="174.8" y="-14.6" width="302.5" height="427.8"/>
    </clipPath>
    <clipPath id="clippath-13">
      <rect class="st0" x="245.5" y="93.7" width="7.3" height="1.4"/>
    </clipPath>
    <clipPath id="clippath-14">
      <rect class="st0" x="245.5" y="51" width="7.3" height="1.4"/>
    </clipPath>
    <clipPath id="clippath-15">
      <rect class="st0" x="245.5" y="135.1" width="7.3" height="1.4"/>
    </clipPath>
    <clipPath id="clippath-16">
      <rect class="st0" x="238.5" y="88.1" width="10.7" height="16.3"/>
    </clipPath>
    <clipPath id="clippath-17">
      <rect class="st0" x="234.8" y="45.4" width="13.3" height="16.3"/>
    </clipPath>
    <clipPath id="clippath-18">
      <rect class="st0" x="233.3" y="129.1" width="14.8" height="16.3"/>
    </clipPath>
    <clipPath id="clippath-19">
      <rect class="st0" x="222.1" y="27.3" width="26" height="16.3"/>
    </clipPath>
    <clipPath id="clippath-20">
      <rect class="st0" x="272.4" y="23.5" width="1.4" height="7.3"/>
    </clipPath>
    <clipPath id="clippath-21">
      <rect class="st0" x="174.8" y="-14.6" width="302.5" height="427.8"/>
    </clipPath>
    <clipPath id="clippath-22">
      <rect class="st0" x="314.7" y="23.5" width="1.4" height="7.3"/>
    </clipPath>
    <clipPath id="clippath-23">
      <rect class="st0" x="174.8" y="-14.6" width="302.5" height="427.8"/>
    </clipPath>
    <clipPath id="clippath-24">
      <rect class="st0" x="357" y="23.5" width="1.4" height="7.3"/>
    </clipPath>
    <clipPath id="clippath-25">
      <rect class="st0" x="174.8" y="-14.6" width="302.5" height="427.8"/>
    </clipPath>
    <clipPath id="clippath-26">
      <rect class="st0" x="266.4" y="14.3" width="13.3" height="16.3"/>
    </clipPath>
    <clipPath id="clippath-27">
      <rect class="st0" x="311.4" y="14.3" width="10.7" height="16.3"/>
    </clipPath>
    <clipPath id="clippath-28">
      <rect class="st0" x="349.8" y="14.3" width="14.8" height="16.3"/>
    </clipPath>
    <clipPath id="clippath-29">
      <rect class="st0" x="264.5" y="8.9" width="115.3" height="5.9"/>
    </clipPath>
    <clipPath id="clippath-30">
      <rect class="st0" x="240.5" y="5.4" width="26" height="16.3"/>
    </clipPath>
  </defs>
  <g class="st36">
    <rect class="st35" x="252.3" y="30.5" width="42.2" height="42.2"/>
    <rect class="st35" x="294.5" y="30.5" width="42.2" height="42.2"/>
    <rect class="st35" x="336.7" y="30.5" width="42.2" height="42.2"/>
    <rect class="st35" x="252.3" y="72.7" width="42.2" height="42.2"/>
    <rect class="st4" x="294.5" y="72.7" width="42.2" height="42.2"/>
    <rect class="st35" x="336.7" y="72.7" width="42.2" height="42.2"/>
    <rect class="st35" x="252.3" y="115" width="42.2" height="42.2"/>
    <rect class="st35" x="294.5" y="115" width="42.2" height="42.2"/>
    <rect class="st35" x="336.7" y="115" width="42.2" height="42.2"/>
  </g>
  <g class="st26">
    <g>
      <path d="M265.4,42c-.9,0-1.2,0-1.3,0-.1,0-.1,0-.1-.1v-.8c0-.1,0-.1.1-.1s.4,0,1.3,0h1.3c0-.2,0-.4,0-.6,0-.4,0-.7,0-1,.4,0,.8,0,1.1.2.1,0,.2,0,.2.1s0,.1,0,.2c0,.1-.1.3-.2.6v.5c0,0,3.3,0,3.3,0,.9,0,1.2,0,1.3,0,.1,0,.1,0,.1.1v.8c0,.1,0,.1-.1.1s-.4,0-1.3,0h-3.6c-.1.6-.3,1.2-.5,1.8h3.4c1,0,1.3,0,1.3,0,.1,0,.1,0,.1.1v.8c0,.1,0,.1-.1.1s-.4,0-1.3,0h-.8v2.4h1.6c1,0,1.4,0,1.4,0,0,0,.1,0,.1.1v.8c0,.1,0,.1-.1.1s-.4,0-1.4,0h-4.2c-1,0-1.3,0-1.4,0,0,0-.1,0-.1-.1v-.8c0-.1,0-.1.1-.1s.4,0,1.4,0h1.5v-2.4h-1.9c-.5,1.1-1.2,2-2.1,2.9-.1.1-.2.2-.2.2s-.1,0-.2-.2c-.2-.3-.4-.5-.6-.6,1.5-1.2,2.5-2.9,3-5h-1.1Z"/>
      <path d="M275.4,48c-.9,0-1.2,0-1.3,0-.1,0-.1,0-.1-.1v-.9c0-.1,0-.1.1-.1s.4,0,1.3,0h2.1v-5.7c0-.8,0-1.2,0-1.7.4,0,.8,0,1.2,0,.1,0,.2,0,.2.1s0,.2,0,.2c0,.1,0,.4,0,1v1.6h2c.9,0,1.2,0,1.2,0,.1,0,.1,0,.1.1v.9c0,.1,0,.1-.1.1s-.4,0-1.2,0h-2v3.3h2.8c.9,0,1.2,0,1.3,0,.1,0,.1,0,.1.1v.9c0,.1,0,.1-.1.1s-.4,0-1.3,0h-6.1Z"/>
    </g>
    <g>
      <path d="M264.7,60.2h-5.1v-.4h5.1v.4Z"/>
      <path d="M268.3,62.1h1.5v1h-4.2v-1h1.5v-5.5c-.4.3-.9.5-1.4.7l-.2-1.1c.7-.2,1.3-.5,1.8-.9h1v6.8Z"/>
      <path d="M272.7,63.1l-.8,1.6h-.6l.7-1.6h-.7v-1.4h1.5v1.4Z"/>
      <path d="M281.3,60.2h-5.1v-.4h5.1v.4Z"/>
      <path d="M285,62.1h1.5v1h-4.2v-1h1.5v-5.5c-.4.3-.9.5-1.4.7l-.2-1.1c.7-.2,1.3-.5,1.8-.9h1v6.8Z"/>
    </g>
  </g>
  <g class="st29">
    <path d="M312.6,48c-.9,0-1.2,0-1.3,0-.1,0-.1,0-.1-.1v-.9c0-.1,0-.1.1-.1s.4,0,1.3,0h2.1v-5.7c0-.8,0-1.2,0-1.7.4,0,.8,0,1.2,0,.1,0,.2,0,.2.1s0,.2,0,.2c0,.1,0,.4,0,1v1.6h2c.9,0,1.2,0,1.2,0,.1,0,.1,0,.1.1v.9c0,.1,0,.1-.1.1s-.4,0-1.2,0h-2v3.3h2.8c.9,0,1.2,0,1.3,0,.1,0,.1,0,.1.1v.9c0,.1,0,.1-.1.1s-.4,0-1.3,0h-6.1Z"/>
    <g>
      <path d="M309.5,60.2h-5.1v-.4h5.1v.4Z"/>
      <path d="M313.1,62.1h1.5v1h-4.2v-1h1.5v-5.5c-.4.3-.9.5-1.4.7l-.2-1.1c.7-.2,1.3-.5,1.8-.9h1v6.8Z"/>
      <path d="M317.4,63.1l-.8,1.6h-.6l.7-1.6h-.7v-1.4h1.5v1.4Z"/>
      <path d="M326.4,59.2c0,2.9-.9,4-2.5,4s-2.4-1.1-2.4-4,.9-4,2.4-4,2.4,1.1,2.4,4ZM322.8,59.2c0,2.3.3,3,1.1,3s1.1-.8,1.1-3-.3-3-1.1-3-1.1.7-1.1,3Z"/>
    </g>
  </g>
  <g class="st27">
    <g>
      <path d="M349.7,42.2c-.9,0-1.2,0-1.3,0-.1,0-.1,0-.1-.1v-.8c0-.1,0-.1.1-.1s.4,0,1.3,0h1.7c0-.2.1-.4.1-.5.1-.6.2-.9.2-1.3.4,0,.8.1,1.1.2.1,0,.2,0,.2.2s0,.1-.1.2c0,.1-.2.3-.2.7,0,.2,0,.4-.1.6h3.3c.9,0,1.2,0,1.3,0,0,0,.1,0,.1.1v.8c0,.1,0,.1-.1.1s-.4,0-1.3,0h-3.6c-.3.7-.6,1.3-.9,1.8h3.4c1,0,1.3,0,1.4,0s.1,0,.1.1,0,.4,0,1.2v1.1c0,1.6,0,1.9,0,1.9,0,0,0,.1-.1.1h-.9c0,0-.1,0-.1-.1v-.5h-3.6v.5c0,0,0,.1-.1.1h-.9c-.1,0-.1,0-.1-.1s0-.4,0-2v-1.3c-.4.4-.8.8-1.2,1.1-.1,0-.2.1-.2.1s-.1,0-.2-.2c-.2-.3-.4-.5-.6-.7,1.4-.9,2.3-2,2.9-3.5h-1.4ZM351.5,46.9h3.6v-2h-3.6v2Z"/>
      <path d="M359.9,48c-.9,0-1.2,0-1.3,0-.1,0-.1,0-.1-.1v-.9c0-.1,0-.1.1-.1s.4,0,1.3,0h2.1v-5.7c0-.8,0-1.2,0-1.7.4,0,.8,0,1.2,0,.1,0,.2,0,.2.1s0,.2,0,.2c0,.1,0,.4,0,1v1.6h2c.9,0,1.2,0,1.2,0,.1,0,.1,0,.1.1v.9c0,.1,0,.1-.1.1s-.4,0-1.2,0h-2v3.3h2.8c.9,0,1.2,0,1.3,0,.1,0,.1,0,.1.1v.9c0,.1,0,.1-.1.1s-.4,0-1.3,0h-6.1Z"/>
    </g>
    <g>
      <path d="M347.9,60.2h-5.1v-.4h5.1v.4Z"/>
      <path d="M351.6,62.1h1.5v1h-4.2v-1h1.5v-5.5c-.4.3-.9.5-1.4.7l-.2-1.1c.7-.2,1.3-.5,1.8-.9h1v6.8Z"/>
      <path d="M355.9,63.1l-.8,1.6h-.6l.7-1.6h-.7v-1.4h1.5v1.4Z"/>
      <path d="M363.6,59.7h2.8v.6h-2.8v2.8h-.6v-2.8h-2.8v-.6h2.8v-2.8h.6v2.8Z"/>
      <path d="M370.7,62.1h1.5v1h-4.2v-1h1.5v-5.5c-.4.3-.9.5-1.4.7l-.2-1.1c.7-.2,1.3-.5,1.8-.9h1v6.8Z"/>
    </g>
  </g>
  <g class="st28">
    <path d="M270.5,84.2c-.9,0-1.2,0-1.3,0-.1,0-.1,0-.1-.1v-.8c0-.1,0-.1.1-.1s.4,0,1.3,0h1.3c0-.2,0-.4,0-.6,0-.4,0-.7,0-1,.4,0,.8,0,1.1.2.1,0,.2,0,.2.1s0,.1,0,.2c0,.1-.1.3-.2.6v.5c0,0,3.3,0,3.3,0,.9,0,1.2,0,1.3,0,.1,0,.1,0,.1.1v.8c0,.1,0,.1-.1.1s-.4,0-1.3,0h-3.6c-.1.6-.3,1.2-.5,1.8h3.4c1,0,1.3,0,1.3,0,.1,0,.1,0,.1.1v.8c0,.1,0,.1-.1.1s-.4,0-1.3,0h-.8v2.4h1.6c1,0,1.4,0,1.4,0,0,0,.1,0,.1.1v.8c0,.1,0,.1-.1.1s-.4,0-1.4,0h-4.2c-1,0-1.3,0-1.4,0,0,0-.1,0-.1-.1v-.8c0-.1,0-.1.1-.1s.4,0,1.4,0h1.5v-2.4h-1.9c-.5,1.1-1.2,2-2.1,2.9-.1.1-.2.2-.2.2s-.1,0-.2-.2c-.2-.3-.4-.5-.6-.6,1.5-1.2,2.5-2.9,3-5h-1.1Z"/>
    <g>
      <path d="M267.5,101.4c0,2.9-.9,4-2.5,4s-2.4-1.1-2.4-4,.9-4,2.4-4,2.4,1.1,2.4,4ZM263.9,101.4c0,2.3.3,3,1.1,3s1.1-.8,1.1-3-.3-3-1.1-3-1.1.7-1.1,3Z"/>
      <path d="M270.1,105.3l-.8,1.6h-.6l.7-1.6h-.7v-1.4h1.5v1.4Z"/>
      <path d="M278.8,102.5h-5.1v-.4h5.1v.4Z"/>
      <path d="M282.4,104.3h1.5v1h-4.2v-1h1.5v-5.5c-.4.3-.9.5-1.4.7l-.2-1.1c.7-.2,1.3-.5,1.8-.9h1v6.8Z"/>
    </g>
  </g>
  <g class="st34">
    <g>
      <path d="M308.1,87.2c0,0-.1,0-.1-.1s0-.5,0-3v-1.7c0-1.7,0-2.2,0-2.3,0,0,0-.1.1-.1s.4,0,1.3,0h.6c.1-.3.2-.5.3-.9,0-.1,0-.3.1-.4.3,0,.7,0,1,.1,0,0,.1,0,.1.1s0,0,0,.1c0,0-.1.1-.1.2,0,.2-.2.4-.3.7h1.8c.9,0,1.2,0,1.3,0,0,0,.1,0,.1.1s0,.6,0,2v1.9c0,2.4,0,2.9,0,3,0,0,0,.1-.1.1h-.8c0,0-.1,0-.1-.1v-.4h-4.1v.4c0,0,0,.1,0,.1h-.8ZM309,81.9h4.1v-1h-4.1v1ZM313.1,83.8v-1h-4.1v1h4.1ZM313.1,85.7v-1.1h-4.1v1.1h4.1Z"/>
      <path d="M321.4,79c.1,0,.1,0,.2,0,.6,1.4,1.7,2.7,3,3.4-.2.1-.4.4-.5.7,0,.1-.1.2-.2.2s-.1,0-.2-.1c-.3-.2-.6-.5-.9-.7,0,.3,0,.6,0,.9,0,1,0,1.7-.2,2.6-.1.7-.5,1.1-1.4,1.1s-.4,0-.6,0c-.3,0-.3,0-.3-.3,0-.3-.2-.6-.3-.7.5,0,.7,0,1,0s.5-.1.6-.6c0-.5.2-1.2.2-2.3h-1.6c-.2,1.8-1.1,3.1-2.8,3.9-.1,0-.2,0-.2,0s-.1,0-.2-.2c-.1-.2-.3-.4-.5-.5,1.7-.6,2.5-1.6,2.6-3.2h-.1c-.9,0-1.2,0-1.2,0,0,0-.1,0-.1-.1v-.7c-.3.3-.6.5-.9.8-.1,0-.2.1-.2.1s-.1,0-.2-.2c-.1-.2-.4-.5-.5-.6,1.2-.8,2.1-1.9,2.6-3,0-.2.1-.4.2-.6.3,0,.7.2,1,.3.1,0,.1,0,.1.2s0,0,0,.1c0,0-.1.2-.2.3-.5,1-1,1.8-1.7,2.4.1,0,.4,0,1.2,0h2.5c.8,0,1.1,0,1.2,0-.9-.9-1.5-1.9-2-2.9,0-.1,0-.1,0-.2l.6-.3Z"/>
    </g>
    <g>
      <path d="M306.1,90c-1.5,1.3-2.1,2.6-2.1,4.2s.5,2.9,2.1,4.2l-.2.3c-1.8-1.3-2.5-2.7-2.5-4.5s.7-3.2,2.5-4.5l.2.3Z"/>
      <path d="M310.5,91.2c0-.5,0-.8,0-1.2.3,0,.7,0,1,0,0,0,.2,0,.2.1s0,.1,0,.2c0,.1,0,.3,0,.7v.7h1.8c.9,0,1.2,0,1.2,0,0,0,.1,0,.1.1s0,.3,0,1.1v1.1c0,1.5,0,1.7,0,1.8,0,0,0,.1-.1.1h-.8c0,0-.1,0-.1-.1v-.4h-2.1v1.1c0,1.1,0,1.6,0,1.7,0,0,0,.1-.1.1h-.8c0,0-.1,0-.1-.1s0-.6,0-1.7v-1.1h-2v.4c0,.1,0,.1-.1.1h-.8c0,0-.1,0-.1-.1s0-.3,0-1.8v-.9c0-.9,0-1.2,0-1.3,0,0,0-.1.1-.1s.4,0,1.2,0h1.7v-.6ZM308.5,94.6h2v-1.9h-2v1.9ZM311.5,92.7v1.9h2.1v-1.9h-2.1Z"/>
      <path d="M317.8,93.5c.1,0,.1,0,.1.1-.2,1.2-.4,2-.8,3.1,0,0,0,.1-.2,0l-.7-.3c-.1,0-.1-.1-.1-.2.4-.9.7-1.8.9-2.9,0-.1,0-.1.2,0l.6.2ZM319.5,96.7c0,.2,0,.3.2.4.1,0,.3,0,.8,0s.7,0,.9-.2c.2-.2.3-.4.3-1.5.2.1.5.2.8.3q.2,0,.2.3c0,1-.2,1.4-.5,1.7-.3.3-.8.4-1.7.4s-1.3,0-1.5-.2c-.2-.2-.4-.4-.4-.9v-3.5c0-.5,0-.7,0-1,.3,0,.7,0,1,0,.1,0,.2,0,.2.1s0,.1,0,.2c0,0,0,.2,0,.6v3.2ZM319.1,90.2c0-.1,0-.1.2,0,.8.3,1.7.7,2.5,1.2,0,0,0,0,0,.2l-.4.7c0,.1,0,.1-.2,0-.8-.5-1.7-1-2.5-1.3,0,0,0,0,0,0s0,0,0-.1l.4-.6ZM323,93.2c.1,0,.1,0,.2,0,.5.9,1,1.9,1.2,2.8,0,.1,0,.1-.1.2l-.7.3c-.1,0-.2,0-.2,0-.2-1-.6-2-1.2-2.9,0,0,0-.1,0-.2l.6-.3Z"/>
      <path d="M325.4,89.7c1.8,1.3,2.5,2.7,2.5,4.5s-.7,3.2-2.5,4.5l-.2-.3c1.5-1.3,2.1-2.6,2.1-4.2s-.5-2.9-2.1-4.2l.2-.3Z"/>
    </g>
    <g>
      <path d="M312.6,105.4c0,2.6-.8,3.6-2.2,3.6s-2.2-1-2.2-3.6.8-3.6,2.2-3.6,2.2,1,2.2,3.6ZM309.4,105.4c0,2.1.3,2.7,1,2.7s1-.7,1-2.7-.3-2.7-1-2.7-1,.6-1,2.7Z"/>
      <path d="M315,108.9l-.7,1.4h-.6l.6-1.4h-.7v-1.2h1.3v1.2Z"/>
      <path d="M323,105.4c0,2.6-.8,3.6-2.2,3.6s-2.2-1-2.2-3.6.8-3.6,2.2-3.6,2.2,1,2.2,3.6ZM319.8,105.4c0,2.1.3,2.7,1,2.7s1-.7,1-2.7-.3-2.7-1-2.7-1,.6-1,2.7Z"/>
    </g>
  </g>
  <g class="st31">
    <path d="M354.8,84.4c-.9,0-1.2,0-1.3,0-.1,0-.1,0-.1-.1v-.8c0-.1,0-.1.1-.1s.4,0,1.3,0h1.7c0-.2.1-.4.1-.5.1-.6.2-.9.2-1.3.4,0,.8.1,1.1.2.1,0,.2,0,.2.2s0,.1-.1.2c0,.1-.2.3-.2.7,0,.2,0,.4-.1.6h3.3c.9,0,1.2,0,1.3,0,0,0,.1,0,.1.1v.8c0,.1,0,.1-.1.1s-.4,0-1.3,0h-3.6c-.3.7-.6,1.3-.9,1.8h3.4c1,0,1.3,0,1.4,0s.1,0,.1.1,0,.4,0,1.2v1.1c0,1.6,0,1.9,0,1.9,0,0,0,.1-.1.1h-.9c0,0-.1,0-.1-.1v-.5h-3.6v.5c0,0,0,.1-.1.1h-.9c-.1,0-.1,0-.1-.1s0-.4,0-2v-1.3c-.4.4-.8.8-1.2,1.1-.1,0-.2.1-.2.1s-.1,0-.2-.2c-.2-.3-.4-.5-.6-.7,1.4-.9,2.3-2,2.9-3.5h-1.4ZM356.6,89.2h3.6v-2h-3.6v2Z"/>
    <g>
      <path d="M350.8,101.4c0,2.9-.9,4-2.5,4s-2.4-1.1-2.4-4,.9-4,2.4-4,2.4,1.1,2.4,4ZM347.2,101.4c0,2.3.3,3,1.1,3s1.1-.8,1.1-3-.3-3-1.1-3-1.1.7-1.1,3Z"/>
      <path d="M353.4,105.3l-.8,1.6h-.6l.7-1.6h-.7v-1.4h1.5v1.4Z"/>
      <path d="M361,101.9h2.8v.6h-2.8v2.8h-.6v-2.8h-2.8v-.6h2.8v-2.8h.6v2.8Z"/>
      <path d="M368.2,104.3h1.5v1h-4.2v-1h1.5v-5.5c-.4.3-.9.5-1.4.7l-.2-1.1c.7-.2,1.3-.5,1.8-.9h1v6.8Z"/>
    </g>
  </g>
  <g class="st30">
    <g>
      <path d="M265.4,126.5c-.9,0-1.2,0-1.3,0-.1,0-.1,0-.1-.1v-.8c0-.1,0-.1.1-.1s.4,0,1.3,0h1.3c0-.2,0-.4,0-.6,0-.4,0-.7,0-1,.4,0,.8,0,1.1.2.1,0,.2,0,.2.1s0,.1,0,.2c0,.1-.1.3-.2.6v.5c0,0,3.3,0,3.3,0,.9,0,1.2,0,1.3,0,.1,0,.1,0,.1.1v.8c0,.1,0,.1-.1.1s-.4,0-1.3,0h-3.6c-.1.6-.3,1.2-.5,1.8h3.4c1,0,1.3,0,1.3,0,.1,0,.1,0,.1.1v.8c0,.1,0,.1-.1.1s-.4,0-1.3,0h-.8v2.4h1.6c1,0,1.4,0,1.4,0,0,0,.1,0,.1.1v.8c0,.1,0,.1-.1.1s-.4,0-1.4,0h-4.2c-1,0-1.3,0-1.4,0,0,0-.1,0-.1-.1v-.8c0-.1,0-.1.1-.1s.4,0,1.4,0h1.5v-2.4h-1.9c-.5,1.1-1.2,2-2.1,2.9-.1.1-.2.2-.2.2s-.1,0-.2-.2c-.2-.3-.4-.5-.6-.6,1.5-1.2,2.5-2.9,3-5h-1.1Z"/>
      <path d="M275.4,125.5c-.9,0-1.2,0-1.3,0-.1,0-.1,0-.1-.1v-.9c0-.1,0-.1.1-.1s.4,0,1.3,0h6.2c.9,0,1.2,0,1.3,0,.1,0,.1,0,.1.1v.9c0,.1,0,.1-.1.1s-.4,0-1.3,0h-2.7v1.4c1,.4,2.1.9,3.2,1.6,0,0,0,0,0,.1s0,0,0,.1l-.5.7c0,.1-.1.1-.2,0-.9-.6-1.7-1.1-2.5-1.5v3.6c0,.9,0,1.3,0,1.4,0,.1,0,.1-.1.1h-.9c-.1,0-.1,0-.1-.1s0-.5,0-1.4v-6h-2.3Z"/>
    </g>
    <g>
      <path d="M262.5,144.2h2.8v.6h-2.8v2.8h-.6v-2.8h-2.8v-.6h2.8v-2.8h.6v2.8Z"/>
      <path d="M269.6,146.6h1.5v1h-4.2v-1h1.5v-5.5c-.4.3-.9.5-1.4.7l-.2-1.1c.7-.2,1.3-.5,1.8-.9h1v6.8Z"/>
      <path d="M273.9,147.6l-.8,1.6h-.6l.7-1.6h-.7v-1.4h1.5v1.4Z"/>
      <path d="M282.6,144.7h-5.1v-.4h5.1v.4Z"/>
      <path d="M286.2,146.6h1.5v1h-4.2v-1h1.5v-5.5c-.4.3-.9.5-1.4.7l-.2-1.1c.7-.2,1.3-.5,1.8-.9h1v6.8Z"/>
    </g>
  </g>
  <g class="st33">
    <path d="M312.5,125.5c-.9,0-1.2,0-1.3,0-.1,0-.1,0-.1-.1v-.9c0-.1,0-.1.1-.1s.4,0,1.3,0h6.2c.9,0,1.2,0,1.3,0,.1,0,.1,0,.1.1v.9c0,.1,0,.1-.1.1s-.4,0-1.3,0h-2.7v1.4c1,.4,2.1.9,3.2,1.6,0,0,0,0,0,.1s0,0,0,.1l-.5.7c0,.1-.1.1-.2,0-.9-.6-1.7-1.1-2.5-1.5v3.6c0,.9,0,1.3,0,1.4,0,.1,0,.1-.1.1h-.9c-.1,0-.1,0-.1-.1s0-.5,0-1.4v-6h-2.3Z"/>
    <g>
      <path d="M307.2,144.2h2.8v.6h-2.8v2.8h-.6v-2.8h-2.8v-.6h2.8v-2.8h.6v2.8Z"/>
      <path d="M314.4,146.6h1.5v1h-4.2v-1h1.5v-5.5c-.4.3-.9.5-1.4.7l-.2-1.1c.7-.2,1.3-.5,1.8-.9h1v6.8Z"/>
      <path d="M318.7,147.6l-.8,1.6h-.6l.7-1.6h-.7v-1.4h1.5v1.4Z"/>
      <path d="M327.6,143.7c0,2.9-.9,4-2.5,4s-2.4-1.1-2.4-4,.9-4,2.4-4,2.4,1.1,2.4,4ZM324,143.7c0,2.3.3,3,1.1,3s1.1-.8,1.1-3-.3-3-1.1-3-1.1.7-1.1,3Z"/>
    </g>
  </g>
  <g class="st32">
    <g>
      <path d="M349.7,126.7c-.9,0-1.2,0-1.3,0-.1,0-.1,0-.1-.1v-.8c0-.1,0-.1.1-.1s.4,0,1.3,0h1.7c0-.2.1-.4.1-.5.1-.6.2-.9.2-1.3.4,0,.8.1,1.1.2.1,0,.2,0,.2.2s0,.1-.1.2c0,.1-.2.3-.2.7,0,.2,0,.4-.1.6h3.3c.9,0,1.2,0,1.3,0,0,0,.1,0,.1.1v.8c0,.1,0,.1-.1.1s-.4,0-1.3,0h-3.6c-.3.7-.6,1.3-.9,1.8h3.4c1,0,1.3,0,1.4,0s.1,0,.1.1,0,.4,0,1.2v1.1c0,1.6,0,1.9,0,1.9,0,0,0,.1-.1.1h-.9c0,0-.1,0-.1-.1v-.5h-3.6v.5c0,0,0,.1-.1.1h-.9c-.1,0-.1,0-.1-.1s0-.4,0-2v-1.3c-.4.4-.8.8-1.2,1.1-.1,0-.2.1-.2.1s-.1,0-.2-.2c-.2-.3-.4-.5-.6-.7,1.4-.9,2.3-2,2.9-3.5h-1.4ZM351.5,131.4h3.6v-2h-3.6v2Z"/>
      <path d="M359.9,125.5c-.9,0-1.2,0-1.3,0-.1,0-.1,0-.1-.1v-.9c0-.1,0-.1.1-.1s.4,0,1.3,0h6.2c.9,0,1.2,0,1.3,0,.1,0,.1,0,.1.1v.9c0,.1,0,.1-.1.1s-.4,0-1.3,0h-2.7v1.4c1,.4,2.1.9,3.2,1.6,0,0,0,0,0,.1s0,0,0,.1l-.5.7c0,.1-.1.1-.2,0-.9-.6-1.7-1.1-2.5-1.5v3.6c0,.9,0,1.3,0,1.4,0,.1,0,.1-.1.1h-.9c-.1,0-.1,0-.1-.1s0-.5,0-1.4v-6h-2.3Z"/>
    </g>
    <g>
      <path d="M345.7,144.2h2.8v.6h-2.8v2.8h-.6v-2.8h-2.8v-.6h2.8v-2.8h.6v2.8Z"/>
      <path d="M352.8,146.6h1.5v1h-4.2v-1h1.5v-5.5c-.4.3-.9.5-1.4.7l-.2-1.1c.7-.2,1.3-.5,1.8-.9h1v6.8Z"/>
      <path d="M357.1,147.6l-.8,1.6h-.6l.7-1.6h-.7v-1.4h1.5v1.4Z"/>
      <path d="M364.8,144.2h2.8v.6h-2.8v2.8h-.6v-2.8h-2.8v-.6h2.8v-2.8h.6v2.8Z"/>
      <path d="M371.9,146.6h1.5v1h-4.2v-1h1.5v-5.5c-.4.3-.9.5-1.4.7l-.2-1.1c.7-.2,1.3-.5,1.8-.9h1v6.8Z"/>
    </g>
  </g>
  <g class="st10">
    <line class="st3" x1="294.5" y1="30.2" x2="294.5" y2="72.7"/>
    <line class="st3" x1="294.5" y1="72.7" x2="294.5" y2="115"/>
    <line class="st3" x1="294.5" y1="115" x2="294.5" y2="157.5"/>
    <line class="st3" x1="336.7" y1="30.2" x2="336.7" y2="72.7"/>
    <line class="st3" x1="336.7" y1="72.7" x2="336.7" y2="157.5"/>
    <line class="st3" x1="252" y1="115" x2="294.5" y2="115"/>
    <line class="st3" x1="294.5" y1="115" x2="379.2" y2="115"/>
    <line class="st3" x1="252" y1="72.7" x2="294.5" y2="72.7"/>
    <line class="st3" x1="294.5" y1="72.7" x2="336.7" y2="72.7"/>
    <line class="st3" x1="336.7" y1="72.7" x2="379.2" y2="72.7"/>
    <line class="st3" x1="252.3" y1="30.2" x2="252.3" y2="115"/>
    <line class="st3" x1="252.3" y1="115" x2="252.3" y2="157.5"/>
    <line class="st3" x1="379" y1="30.2" x2="379" y2="72.7"/>
    <line class="st3" x1="379" y1="72.7" x2="379" y2="157.5"/>
    <line class="st3" x1="252" y1="30.5" x2="294.5" y2="30.5"/>
    <line class="st3" x1="294.5" y1="30.5" x2="336.7" y2="30.5"/>
    <line class="st3" x1="336.7" y1="30.5" x2="379.2" y2="30.5"/>
    <line class="st3" x1="252" y1="157.2" x2="294.5" y2="157.2"/>
    <line class="st3" x1="294.5" y1="157.2" x2="379.2" y2="157.2"/>
  </g>
  <g class="st7">
    <g class="st14">
      <polyline class="st1" points="230.9 40.4 230.9 152.6 230.9 153.1"/>
      <polygon points="228.4 152.6 230.9 157.5 233.3 152.6 228.4 152.6"/>
    </g>
  </g>
  <g class="st12">
    <line class="st2" x1="246" y1="94.4" x2="252.3" y2="94.4"/>
  </g>
  <g class="st13">
    <line class="st2" x1="246" y1="51.7" x2="252.3" y2="51.7"/>
  </g>
  <g class="st11">
    <line class="st2" x1="246" y1="135.8" x2="252.3" y2="135.8"/>
  </g>
  <g class="st8">
    <path d="M244.8,94.2c0,2.3-.7,3.2-2,3.2s-1.9-.9-1.9-3.2.7-3.2,2-3.2,2,.9,2,3.2ZM241.9,94.2c0,1.8.3,2.4.9,2.4s.9-.6.9-2.4-.3-2.4-.9-2.4-.9.6-.9,2.4Z"/>
  </g>
  <g class="st5">
    <g>
      <path d="M240.9,52.3h-4.1v-.3h4.1v.3Z"/>
      <path d="M243.8,53.8h1.2v.8h-3.4v-.8h1.2v-4.4c-.3.2-.7.4-1.1.6l-.2-.9c.5-.2,1-.4,1.4-.7h.8v5.5Z"/>
    </g>
  </g>
  <g class="st9">
    <g>
      <path d="M238.6,135.6h2.2v.5h-2.2v2.2h-.5v-2.2h-2.2v-.5h2.2v-2.2h.5v2.2Z"/>
      <path d="M244.3,137.5h1.2v.8h-3.4v-.8h1.2v-4.4c-.3.2-.7.4-1.1.6l-.2-.9c.5-.2,1-.4,1.4-.7h.8v5.5Z"/>
    </g>
  </g>
  <g class="st6">
    <g>
      <path d="M226.7,36.7c-.3,1-.9,1.4-1.8,1.4s-.3,0-.6,0v-.8c.2,0,.3,0,.5,0,.4,0,.7-.2.8-.7v-.2c0,0-1.4-4.4-1.4-4.4h1.1l.5,1.9c.1.5.2.9.4,1.5h0c.1-.5.3-1,.4-1.5l.5-1.9h1l-1.6,4.6Z"/>
      <path d="M230.3,32.4c0,.6,0,1.1,0,1.5.5-.5.7-1,.9-1.6,0-.2,0-.4,0-.5.2,0,.5,0,.7.2,0,0,.1,0,.1.1s0,0,0,.1c0,0,0,.1-.1.3,0,.1,0,.3-.1.4.2.3.5.7.8.9-.1.1-.3.2-.3.4,0,.1-.1.2-.1.2s0,0-.2-.1c-.2-.2-.4-.4-.5-.6-.1.2-.3.5-.5.7,0,.1-.1.2-.2.2s0,0-.1,0c-.1-.1-.4-.3-.5-.3,0,.4,0,.8-.1,1.1-.1.7-.3,1.3-.6,1.9,0,.1,0,.2-.1.2s0,0-.2-.1c-.2-.2-.4-.4-.5-.5.3-.5.5-1.1.6-1.8,0-.6.1-1.3.1-2.5s0-1.6,0-1.6c0,0,0,0,0,0s.3,0,1.1,0h1.6v-.2c0-.2,0-.5,0-.7.3,0,.6,0,.9,0,0,0,.1,0,.1,0,0,0,0,0,0,.2,0,0,0,.2,0,.4v.2h1.8c.8,0,1,0,1.1,0,0,0,0,0,0,0v.6c0,0,0,0,0,0s-.3,0-1.1,0h-4.6v1.1ZM231.3,36.9c-.8,0-1.1,0-1.1,0,0,0,0,0,0,0v-.6c0,0,0,0,0,0s.3,0,1.1,0h1.3v-.8h-.7c-.8,0-1.1,0-1.1,0,0,0,0,0,0,0v-.6c0,0,0,0,0,0s.3,0,1.1,0h.7v-2.3c0-.4,0-.6,0-.9.3,0,.5,0,.8,0,0,0,.1,0,.1,0s0,.1,0,.2c0,0,0,.2,0,.6v1.5c.5-.5.7-1,.9-1.6,0-.2,0-.4,0-.5.2,0,.5,0,.7.2,0,0,.1,0,.1.1s0,0,0,.1c0,0,0,.1-.1.3v.3c.2.4.5.7.9,1.1-.1,0-.3.3-.4.4,0,.1-.1.2-.1.2s0,0-.2-.1c-.2-.2-.5-.5-.7-.8-.1.3-.3.6-.5.8,0,0-.1.1-.2.1s0,0-.2-.1c-.1-.1-.3-.2-.4-.3v.7h1c.8,0,1,0,1.1,0,0,0,0,0,0,0v.6c0,0,0,0,0,0s-.3,0-1.1,0h-1v.8h1.5c.8,0,1.1,0,1.1,0,0,0,0,0,0,0v.6c0,0,0,0,0,0s-.3,0-1.1,0h-3.6Z"/>
      <path d="M237.8,32.1c-.5,0-.7,0-.7,0,0,0,0,0,0,0v-.6c0,0,0,0,0,0s.2,0,.7,0h.1v-.5c0-.5,0-.8,0-1.1.3,0,.5,0,.8,0,0,0,.1,0,.1,0s0,.1,0,.2c0,.1,0,.2,0,.8v.5c.4,0,.6,0,.6,0,0,0,0,0,0,0v.6c0,0,0,0,0,0s-.2,0-.6,0c.2.5.5,1,.8,1.5-.1.1-.2.3-.3.5,0,0,0,.2-.1.2s0,0,0-.1c-.2-.3-.3-.6-.4-1,0,2.2,0,3.9,0,4.1s0,0,0,0h-.7c0,0,0,0,0,0,0-.1,0-1.7,0-3.6-.2.6-.4,1.2-.7,1.7,0,0,0,.1-.1.1s0,0,0-.1c0-.2-.2-.5-.3-.6.5-.7.8-1.5,1-2.5h0ZM240,35.6c0,0,.1-.2.2-.3.2,0,.4.2.6.3,0,0,0,0,0,0s0,0,0,.1c0,0-.1,0-.2.2-.3.4-.5.6-.9,1,0,0-.1.1-.2.1s0,0-.2-.1c-.1-.1-.3-.3-.4-.3.5-.3.8-.6,1-.9ZM240.5,35.1c-.8,0-1.1,0-1.1,0,0,0,0,0,0,0v-.5c0,0,0,0,0,0s.3,0,1.1,0h2.7c.8,0,1.1,0,1.1,0,0,0,0,0,0,0v.5c0,0,0,0,0,0s-.3,0-1.1,0h-1v.3c0,.3,0,.6,0,.9s0,.5-.2.7c-.2.1-.4.2-.9.2s-.2,0-.3-.2c0-.2-.1-.3-.2-.5.2,0,.4,0,.6,0s.3-.1.3-.3v-1.1h-.9ZM240.5,30.7c-.8,0-1.1,0-1.1,0,0,0,0,0,0,0v-.5c0,0,0,0,0,0s.3,0,1.1,0h2.6c.8,0,1.1,0,1.1,0,0,0,0,0,0,0v.5c0,0,0,0,0,0s-.3,0-1.1,0h-.4v.5h.1c.8,0,1,0,1.1,0s0,0,0,0,0,.2,0,.5v.5c0,.4,0,.5,0,.5,0,0,0,0,0,0s-.3,0-1.1,0h-2.1c-.8,0-1,0-1.1,0,0,0,0,0,0,0s0-.2,0-.5v-.5c0-.4,0-.5,0-.5,0,0,0,0,0,0s.3,0,1.1,0h.1v-.5h-.3ZM241,34c-.7,0-1,0-1,0,0,0,0,0,0,0v-.5c0,0,0,0,0,0s.3,0,1,0h1.7c.7,0,1,0,1,0,0,0,0,0,0,0v.5c0,0,0,0,0,0s-.3,0-1,0h-1.7ZM240.9,32.4v-.6h-.6v.6h.6ZM242.1,30.7h-.5v.5h.5v-.5ZM241.6,32.4h.5v-.6h-.5v.6ZM243.1,35.3c0,0,.1,0,.2,0,.3.4.7.7,1.2,1-.1.1-.2.3-.3.4,0,.1-.1.2-.2.2s0,0-.2-.1c-.4-.3-.8-.7-1.1-1.1,0,0,0,0,0-.2l.4-.2ZM243.3,31.8h-.6v.6h.6v-.6Z"/>
    </g>
  </g>
  <g class="st20">
    <g class="st21">
      <line class="st2" x1="273.1" y1="30.2" x2="273.1" y2="24"/>
    </g>
  </g>
  <g class="st22">
    <g class="st23">
      <line class="st2" x1="315.4" y1="30.2" x2="315.4" y2="24"/>
    </g>
  </g>
  <g class="st24">
    <g class="st25">
      <line class="st2" x1="357.7" y1="30.2" x2="357.7" y2="24"/>
    </g>
  </g>
  <g class="st18">
    <g>
      <path d="M272.5,21.2h-4.1v-.3h4.1v.3Z"/>
      <path d="M275.4,22.7h1.2v.8h-3.4v-.8h1.2v-4.4c-.3.2-.7.4-1.1.6l-.2-.9c.5-.2,1-.4,1.4-.7h.8v5.5Z"/>
    </g>
  </g>
  <g class="st16">
    <path d="M317.7,20.4c0,2.3-.7,3.2-2,3.2s-1.9-.9-1.9-3.2.7-3.2,2-3.2,2,.9,2,3.2ZM314.9,20.4c0,1.8.3,2.4.9,2.4s.9-.6.9-2.4-.3-2.4-.9-2.4-.9.6-.9,2.4Z"/>
  </g>
  <g class="st19">
    <g>
      <path d="M355.1,20.8h2.2v.5h-2.2v2.2h-.5v-2.2h-2.2v-.5h2.2v-2.2h.5v2.2Z"/>
      <path d="M360.8,22.7h1.2v.8h-3.4v-.8h1.2v-4.4c-.3.2-.7.4-1.1.6l-.2-.9c.5-.2,1-.4,1.4-.7h.8v5.5Z"/>
    </g>
  </g>
  <g class="st17">
    <polyline class="st1" points="265 11.9 374.4 11.9 374.9 11.9"/>
    <polygon points="374.4 14.3 379.2 11.9 374.4 9.4 374.4 14.3"/>
  </g>
  <g class="st15">
    <g>
      <path d="M245.3,12.3l1.4,2.3h-1.1l-.7-1.3c0-.1-.1-.2-.2-.4,0,.1-.1.2-.2.3l-.7,1.3h-1.1l1.4-2.3-1.4-2.2h1.1l.7,1.2c0,.1.1.2.2.3,0-.1.1-.2.2-.3l.6-1.2h1.1l-1.4,2.2Z"/>
      <path d="M248.7,10.4c0,.6,0,1.1,0,1.5.5-.5.7-1,.9-1.6,0-.2,0-.4,0-.5.2,0,.5,0,.7.2,0,0,.1,0,.1.1s0,0,0,.1c0,0,0,.1-.1.3,0,.1,0,.3-.1.4.2.3.5.7.8.9-.1.1-.3.2-.3.4,0,.1-.1.2-.1.2s0,0-.2-.1c-.2-.2-.4-.4-.5-.6-.1.2-.3.5-.5.7,0,.1-.1.2-.2.2s0,0-.1,0c-.1-.1-.4-.3-.5-.3,0,.4,0,.8-.1,1.1-.1.7-.3,1.3-.6,1.9,0,.1,0,.2-.1.2s0,0-.2-.1c-.2-.2-.4-.4-.5-.5.3-.5.5-1.1.6-1.8,0-.6.1-1.3.1-2.5s0-1.6,0-1.6c0,0,0,0,0,0s.3,0,1.1,0h1.6v-.2c0-.2,0-.5,0-.7.3,0,.6,0,.9,0,0,0,.1,0,.1,0,0,0,0,0,0,.2,0,0,0,.2,0,.4v.2h1.8c.8,0,1,0,1.1,0,0,0,0,0,0,0v.6c0,0,0,0,0,0s-.3,0-1.1,0h-4.6v1.1ZM249.7,14.9c-.8,0-1.1,0-1.1,0,0,0,0,0,0,0v-.6c0,0,0,0,0,0s.3,0,1.1,0h1.3v-.8h-.7c-.8,0-1.1,0-1.1,0,0,0,0,0,0,0v-.6c0,0,0,0,0,0s.3,0,1.1,0h.7v-2.3c0-.4,0-.6,0-.9.3,0,.5,0,.8,0,0,0,.1,0,.1,0s0,.1,0,.2c0,0,0,.2,0,.6v1.5c.5-.5.7-1,.9-1.6,0-.2,0-.4,0-.5.2,0,.5,0,.7.2,0,0,.1,0,.1.1s0,0,0,.1c0,0,0,.1-.1.3v.3c.2.4.5.7.9,1.1-.1,0-.3.3-.4.4,0,.1-.1.2-.1.2s0,0-.2-.1c-.2-.2-.5-.5-.7-.8-.1.3-.3.6-.5.8,0,0-.1.1-.2.1s0,0-.2-.1c-.1-.1-.3-.2-.4-.3v.7h1c.8,0,1,0,1.1,0,0,0,0,0,0,0v.6c0,0,0,0,0,0s-.3,0-1.1,0h-1v.8h1.5c.8,0,1.1,0,1.1,0,0,0,0,0,0,0v.6c0,0,0,0,0,0s-.3,0-1.1,0h-3.6Z"/>
      <path d="M256.2,10.1c-.5,0-.7,0-.7,0,0,0,0,0,0,0v-.6c0,0,0,0,0,0s.2,0,.7,0h.1v-.5c0-.5,0-.8,0-1.1.3,0,.5,0,.8,0,0,0,.1,0,.1,0s0,.1,0,.2c0,.1,0,.2,0,.8v.5c.4,0,.6,0,.6,0,0,0,0,0,0,0v.6c0,0,0,0,0,0s-.2,0-.6,0c.2.5.5,1,.8,1.5-.1.1-.2.3-.3.5,0,0,0,.2-.1.2s0,0,0-.1c-.2-.3-.3-.6-.4-1,0,2.2,0,3.9,0,4.1s0,0,0,0h-.7c0,0,0,0,0,0,0-.1,0-1.7,0-3.6-.2.6-.4,1.2-.7,1.7,0,0,0,.1-.1.1s0,0,0-.1c0-.2-.2-.5-.3-.6.5-.7.8-1.5,1-2.5h0ZM258.4,13.6c0,0,.1-.2.2-.3.2,0,.4.2.6.3,0,0,0,0,0,0s0,0,0,.1c0,0-.1,0-.2.2-.3.4-.5.6-.9,1,0,0-.1.1-.2.1s0,0-.2-.1c-.1-.1-.3-.3-.4-.3.5-.3.8-.6,1-.9ZM258.9,13.1c-.8,0-1.1,0-1.1,0,0,0,0,0,0,0v-.5c0,0,0,0,0,0s.3,0,1.1,0h2.7c.8,0,1.1,0,1.1,0,0,0,0,0,0,0v.5c0,0,0,0,0,0s-.3,0-1.1,0h-1v.3c0,.3,0,.6,0,.9s0,.5-.2.7c-.2.1-.4.2-.9.2s-.2,0-.3-.2c0-.2-.1-.3-.2-.5.2,0,.4,0,.6,0s.3-.1.3-.3v-1.1h-.9ZM258.9,8.8c-.8,0-1.1,0-1.1,0,0,0,0,0,0,0v-.5c0,0,0,0,0,0s.3,0,1.1,0h2.6c.8,0,1.1,0,1.1,0,0,0,0,0,0,0v.5c0,0,0,0,0,0s-.3,0-1.1,0h-.4v.5h.1c.8,0,1,0,1.1,0s0,0,0,0,0,.2,0,.5v.5c0,.4,0,.5,0,.5,0,0,0,0,0,0s-.3,0-1.1,0h-2.1c-.8,0-1,0-1.1,0,0,0,0,0,0,0s0-.2,0-.5v-.5c0-.4,0-.5,0-.5,0,0,0,0,0,0s.3,0,1.1,0h.1v-.5h-.3ZM259.3,12.1c-.7,0-1,0-1,0,0,0,0,0,0,0v-.5c0,0,0,0,0,0s.3,0,1,0h1.7c.7,0,1,0,1,0,0,0,0,0,0,0v.5c0,0,0,0,0,0s-.3,0-1,0h-1.7ZM259.3,10.5v-.6h-.6v.6h.6ZM260.5,8.8h-.5v.5h.5v-.5ZM259.9,10.5h.5v-.6h-.5v.6ZM261.5,13.3c0,0,.1,0,.2,0,.3.4.7.7,1.2,1-.1.1-.2.3-.4.4,0,.1-.1.2-.2.2s0,0-.2-.1c-.4-.3-.8-.7-1.1-1.1,0,0,0,0,0-.2l.4-.2ZM261.7,9.8h-.6v.6h.6v-.6Z"/>
    </g>
  </g>
</svg>