<?xml version="1.0" encoding="UTF-8"?>
<svg id="Layer_1" xmlns="http://www.w3.org/2000/svg" xmlns:xlink="http://www.w3.org/1999/xlink" version="1.1" viewBox="0 0 618.7 66.2">
  <!-- Generator: Adobe Illustrator 29.2.1, SVG Export Plug-In . SVG Version: 2.1.0 Build 116)  -->
  <defs>
    <style>
      .st0, .st1 {
        fill: none;
      }

      .st2 {
        clip-path: url(#clippath-1);
      }

      .st3 {
        clip-path: url(#clippath-3);
      }

      .st4 {
        clip-path: url(#clippath-4);
      }

      .st5 {
        clip-path: url(#clippath-2);
      }

      .st6 {
        clip-path: url(#clippath-5);
      }

      .st7 {
        fill: #feae00;
      }

      .st1 {
        stroke: #f27200;
        stroke-width: 4px;
      }

      .st8 {
        clip-path: url(#clippath);
      }

      .st9 {
        fill: #f27200;
      }
    </style>
    <clipPath id="clippath">
      <rect class="st0" x="242.7" y="3.8" width="145.9" height="59.6"/>
    </clipPath>
    <clipPath id="clippath-1">
      <rect class="st0" x="243.7" y="4.8" width="143.9" height="57.6"/>
    </clipPath>
    <clipPath id="clippath-2">
      <rect class="st0" x="168.7" y="32.6" width="76" height="18.8"/>
    </clipPath>
    <clipPath id="clippath-3">
      <rect class="st0" x="164.9" y="13.3" width="83.7" height="28.5"/>
    </clipPath>
    <clipPath id="clippath-4">
      <rect class="st0" x="385.5" y="32.6" width="76" height="18.8"/>
    </clipPath>
    <clipPath id="clippath-5">
      <rect class="st0" x="385.5" y="13.3" width="83.7" height="28.5"/>
    </clipPath>
  </defs>
  <g class="st8">
    <path class="st7" d="M266.7,4.8h98c6.7,0,10.8,0,13.5,1.1,3.9,1.4,6.9,4.5,8.3,8.3,1.1,2.7,1.1,6.7,1.1,13.5v11.7c0,6.7,0,10.8-1.1,13.5-1.4,3.9-4.5,6.9-8.3,8.3-2.7,1.1-6.7,1.1-13.5,1.1h-98c-6.7,0-10.8,0-13.5-1.1-3.9-1.4-6.9-4.5-8.3-8.3-1.1-2.7-1.1-6.7-1.1-13.5v-11.7c0-6.7,0-10.8,1.1-13.5,1.4-3.9,4.5-6.9,8.3-8.3,2.7-1.1,6.7-1.1,13.5-1.1Z"/>
  </g>
  <g class="st2">
    <g>
      <path d="M293.5,23.2c.3-.6.4-.9.5-1.5.6.2,1.2.5,1.5.8,0,0,.1.1.1.2s0,.2-.1.3c-.2.1-.3.3-.5.8-.5.9-.9,1.7-1.4,2.4.7.5,1,.8,1.8,1.6,0,0,0,.1,0,.2s0,0,0,.2c-.2.3-.5.6-.7.9,0,0,0,0-.1,0s-.1,0-.2-.1c-.6-.7-1-1.1-1.6-1.6-1.4,1.7-2.7,2.9-4.1,3.7,0,0-.2,0-.3,0s-.2,0-.2,0c-.3-.3-.7-.6-1.1-.7,1.9-1.1,3.2-2.2,4.5-3.9-.8-.6-1.4-.9-2.3-1.4.3-.4.6-.8.8-1,0,0,0,0,.1,0s0,0,.1,0c.6.3,1.4.8,2.1,1.3.5-.8.8-1.3,1.2-2.1Z"/>
      <path d="M306.2,23c.3,0,.5,0,.7-.2,0,0,.1,0,.2,0s.1,0,.2,0c.3.2.6.5.8.7,0,0,0,.1,0,.2s0,.1-.1.2c-.1.1-.2.2-.4.5-.5,1-1.1,2-1.8,2.9.5.4.9.8,1.3,1.2,0,0,0,.1,0,.2s0,.1,0,.2c-.2.2-.5.6-.7.8,0,0,0,0-.1,0s0,0-.1,0c-.3-.3-.8-.8-1.2-1.2-1.2,1.3-2.5,2.3-3.8,3-.1,0-.2.1-.3.1s-.1,0-.2-.1c-.4-.3-.7-.5-1.1-.6,1.9-.9,3.1-1.8,4.4-3.2-.5-.4-1-.7-1.7-1.1.3-.3.5-.6.8-.9,0,0,0,0,.2,0s0,0,.1,0c.4.2,1,.6,1.5,1,.6-.7,1-1.5,1.4-2.4h-3c-1,1.3-1.8,2.1-2.6,2.8,0,0-.2.1-.2.1s-.1,0-.2,0c-.3-.2-.6-.4-1-.6,1.7-1.3,2.6-2.4,3.4-3.8.4-.6.5-1,.6-1.5.4.1,1,.3,1.4.6,0,0,.1.1.1.2s0,.2-.1.2c-.1,0-.2.2-.3.3,0,.2-.2.3-.4.6h2.1Z"/>
      <path d="M311.6,27.4c0-.5,0-1,0-1.6-.2.3-.4.6-.7.9,0,0-.2.2-.2.2s-.1,0-.1-.2c-.1-.4-.3-.8-.4-1,.9-1,1.6-2.2,2.1-3.8,0-.3.2-.6.2-.9.4,0,.8.2,1.1.3.1,0,.2,0,.2.2s0,.1-.1.2c0,0-.1.2-.3.5-.2.6-.4,1.1-.6,1.5v6.3c0,1.2,0,1.8,0,1.8,0,.1,0,.1-.1.1h-1c-.1,0-.1,0-.1-.1s0-.6,0-1.8v-2.6ZM313.9,31.9c-.1,0-.1,0-.1-.1s0-.9,0-4v-3c0-2.1,0-2.9,0-3,0-.1,0-.1.1-.1s.5,0,1.6,0h3.7c1.2,0,1.6,0,1.7,0,.1,0,.1,0,.1.1s0,.9,0,2.7v3.3c0,3.1,0,3.9,0,4,0,.1,0,.1-.1.1h-.9c-.1,0-.1,0-.1-.1v-.5h-4.9v.6c0,.1,0,.1-.1.1h-.9ZM314.9,30.2h4.9v-7.5h-4.9v7.5ZM317.8,25.3v1.1h0c.7,0,.9,0,1,0,.1,0,.1,0,.1.1s0,.3,0,.9v1.1c0,.6,0,.9,0,.9,0,.1,0,.1-.1.1s-.3,0-1,0h-1.1c-.7,0-.9,0-1,0-.1,0-.1,0-.1-.1s0-.3,0-.9v-1.1c0-.6,0-.8,0-.9,0-.1,0-.1.1-.1s.3,0,1,0v-1.1h-.2c-.9,0-1.2,0-1.3,0-.1,0-.1,0-.1-.1v-.7c0-.1,0-.1.1-.1s.4,0,1.3,0h.2c0-.7,0-1,0-1.4.4,0,.7,0,1.1,0,.1,0,.2,0,.2.1s0,.1,0,.2c0,0,0,.3,0,.9h0c0,.1.2.1.2.1.9,0,1.2,0,1.3,0,.1,0,.1,0,.1.1v.7c0,.1,0,.1-.1.1s-.4,0-1.3,0h-.2ZM318,27.3h-1.4v1.3h1.4v-1.3Z"/>
      <path d="M327.4,24.7c-1.2,0-1.6,0-1.6,0-.1,0-.1,0-.1-.1v-.9c0-.1,0-.1.1-.1s.5,0,1.6,0h1.2v-.8c0-.8,0-1.2,0-1.7.4,0,.9,0,1.3,0,.1,0,.2,0,.2.1,0,0,0,.2,0,.3,0,.1,0,.4,0,1.2v.8h1.7c1.2,0,1.6,0,1.7,0s.1,0,.1.1v.9c0,.1,0,.1-.1.1s-.5,0-1.7,0h-1.2c.8,1.6,1.7,2.7,3.3,4.1-.3.3-.4.5-.6.8s-.1.3-.2.3-.1,0-.3-.2c-1.4-1.4-2.1-2.5-2.8-4,0,1.1,0,2.1,0,3.1h.3c.9,0,1.2,0,1.3,0,.1,0,.1,0,.1.1v.9c0,.1,0,.1-.1.1s-.4,0-1.3,0h-.3c0,1.1,0,1.9,0,2.1s0,.1-.1.1h-1c-.1,0-.1,0-.1-.1s0-.9,0-2.1h-.2c-.9,0-1.2,0-1.3,0-.1,0-.1,0-.1-.1v-.9c0-.1,0-.1.1-.1s.4,0,1.3,0h.2c0-.9,0-2,0-3.1-.7,1.6-1.5,2.9-2.7,4-.1.1-.2.2-.3.2s-.1,0-.2-.2c-.2-.3-.4-.5-.5-.7v1.2c0,1.2,0,1.8,0,1.8,0,.1,0,.1-.1.1h-1c-.1,0-.1,0-.1-.1s0-.6,0-1.8v-2.7c0-.4,0-.9,0-1.4-.2.3-.5.6-.7.9,0,0-.2.2-.2.2s0,0-.1-.2c0-.4-.3-.8-.4-1,1-1.1,1.8-2.5,2.3-3.9,0-.3.2-.6.2-.9.4.1.8.2,1.2.4.1,0,.2,0,.2.2s0,.1-.1.2c0,0-.1.2-.2.5-.2.6-.5,1.2-.8,1.8v4.9c1.3-1.1,2.4-2.4,3.1-4.2h-.7Z"/>
      <path d="M336,24.6c-1.1,0-1.4,0-1.5,0-.1,0-.1,0-.1-.1v-.8c0-.1,0-.1.1-.1s.4,0,1.5,0h.3c0-.3,0-.6,0-.9-.9,0-1.1,0-1.2,0-.1,0-.1,0-.1-.1v-.8c0-.1,0-.1.1-.1s.4,0,1.3,0h1.5c1,0,1.4,0,1.5,0,.1,0,.1,0,.1.1s0,.5,0,1.3v.6c.2,0,.4,0,.4,0,.1,0,.1,0,.1.1v.8c0,.1,0,.1-.1.1s-.2,0-.4,0v.5c0,.8,0,1.2,0,1.3,0,.1,0,.1-.1.1s-.5,0-1.5,0h-.9c0,.3-.2.6-.3.9h1.6c.8,0,1.1,0,1.2,0,.1,0,.1,0,.1.1s0,.4,0,1.2v.8c0,1.5,0,1.8,0,1.9,0,.1,0,.1-.1.1h-.9c-.1,0-.1,0-.1-.1v-.3h-1.5v.6c0,.1,0,.1-.1.1h-.9c-.1,0-.1,0-.1-.1s0-.4,0-2v-.7c-.2.3-.4.6-.7.9-.1.1-.2.2-.2.2s-.1,0-.2-.2c-.1-.3-.3-.6-.5-.8.8-.8,1.2-1.5,1.5-2.5-.5,0-.7,0-.7,0-.1,0-.1,0-.1-.1v-.8c0-.1,0-.1.1-.1s.3,0,1,0c0-.3,0-.6.1-.9h-.2ZM337,28.4v1.7h1.5v-1.7h-1.5ZM338.4,25.5v-.9h-1.1c0,.3,0,.6-.1.9h1.2ZM337.4,22.7c0,.3,0,.6,0,.9h1v-.9h-.9ZM343.2,24.3v1.2h.3c.9,0,1.2,0,1.3,0,.1,0,.1,0,.1.1v.9c0,.1,0,.1-.1.1s-.4,0-1.3,0h-.3v1.4h.6c1,0,1.4,0,1.4,0,.1,0,.1,0,.1.1v.9c0,.1,0,.1-.1.1s-.4,0-1.4,0h-.6v.9c0,1.2,0,1.7,0,1.8,0,.1,0,.1-.1.1h-1c-.1,0-.1,0-.1-.1s0-.6,0-1.8v-.9h-.4c-1,0-1.4,0-1.5,0-.1,0-.1,0-.1-.1v-.9c0-.1,0-.1.1-.1s.4,0,1.5,0h.4v-1.4h-.2c-.9,0-1.2,0-1.3,0-.1,0-.1,0-.1-.1v-.9c0-.1,0-.1.1-.1s.4,0,1.3,0h.2v-1.2h-.2c-1,0-1.3,0-1.4,0-.1,0-.1,0-.1-.1v-.8c0-.1,0-.1.1-.1s.4,0,1.4,0h1c.3-.5.5-1,.7-1.6,0-.2.1-.4.2-.6.4,0,.8.2,1.1.3.1,0,.2.1.2.2s0,.1-.1.2c0,0-.2.2-.3.4-.2.4-.3.7-.6,1.1.8,0,1.1,0,1.2,0,.1,0,.1,0,.1.1v.8c0,.1,0,.1-.1.1s-.4,0-1.4,0h-.5ZM341.3,21.1c.1,0,.2,0,.2,0,.3.4.5.9.7,1.4,0,.1,0,.2-.1.2l-.7.3c-.2,0-.2,0-.2,0-.2-.5-.4-.9-.7-1.4,0-.1,0-.1,0-.2l.7-.3Z"/>
    </g>
    <g>
      <path d="M261.5,35c-2,1.6-2.7,3.4-2.7,5.5s.7,3.8,2.7,5.5l-.3.4c-2.3-1.7-3.2-3.5-3.2-5.9s.9-4.2,3.2-5.9l.3.4Z"/>
      <path d="M273,42.4c0,1,0,1.7,0,2.1,0,.4-.1.8-.4,1-.2.2-.7.3-1.8.3s-.4,0-.5-.4c0-.3-.2-.7-.3-.9.5,0,1,0,1.2,0s.5-.1.5-.4v-7.5h-7.4v7c0,1.4,0,2.1,0,2.2,0,.1,0,.1-.1.1h-1c-.1,0-.1,0-.1-.1s0-.9,0-2.5v-5.2c0-1.6,0-2.4,0-2.5,0-.1,0-.1.1-.1s.5,0,1.6,0h6.5c1.1,0,1.5,0,1.6,0,.1,0,.1,0,.1.1s0,.9,0,2.6v4.3ZM266.7,38.7c-1.1,0-1.4,0-1.5,0-.1,0-.1,0-.1-.1v-.9c0-.1,0-.1.1-.1s.4,0,1.5,0h2.5c1.1,0,1.4,0,1.5,0,.1,0,.1,0,.1.1v.9c0,.1,0,.1-.1.1s-.4,0-1.5,0h-2.5ZM265.8,44.3c-.1,0-.1,0-.1-.1s0-.4,0-2v-1c0-.9,0-1.3,0-1.3,0-.1,0-.1.1-.1s.4,0,1.3,0h1.7c.9,0,1.2,0,1.3,0,.1,0,.1,0,.1.1s0,.4,0,1.1v1c0,1.6,0,1.9,0,2,0,.1,0,.1-.1.1h-.9c-.1,0-.1,0-.1-.1v-.4h-2.3v.6c0,.1,0,.1-.1.1h-.9ZM266.8,42.5h2.3v-1.7h-2.3v1.7Z"/>
      <path d="M275.8,39.3c-.8,0-1,0-1.1,0-.1,0-.1,0-.1-.1v-.8c0-.1,0-.1.1-.1s.3,0,1.1,0h.3v-1.4c-.2,0-.5.1-.7.2q-.4,0-.5-.3c0-.2-.2-.5-.3-.6,1.1-.2,1.9-.4,2.7-.7.2,0,.3-.2.5-.3.3.3.5.4.7.7,0,0,.1.1.1.2s0,.2-.2.2-.2,0-.4.1c-.2,0-.4.2-.6.2v1.8c.6,0,.8,0,.9,0,.1,0,.1,0,.1.1v.8c0,.1,0,.1-.1.1s-.3,0-.8,0c.3.7.8,1.3,1.2,1.7-.2.2-.3.5-.4.8,0,.1,0,.2-.1.2s0,0-.2-.2c-.2-.3-.4-.7-.6-1.1,0,2.9,0,4.9,0,5.2s0,.1-.1.1h-1c-.1,0-.1,0-.1-.1,0-.2,0-2.3,0-4.9-.3,1.1-.7,1.9-1.2,2.6,0,.1-.1.2-.2.2s0,0-.1-.2c-.1-.4-.3-.7-.4-.9.7-.9,1.2-1.8,1.7-3.3h-.1ZM279.6,45.6c-1.2,0-1.6,0-1.6,0-.1,0-.1,0-.1-.1v-.7c0-.1,0-.1.1-.1s.5,0,1.6,0h1.5v-.7h-.9c-1.1,0-1.5,0-1.6,0-.1,0-.1,0-.1-.1v-.7c0-.1,0-.1.1-.1s.5,0,1.6,0h.9v-.6h-.7c-1.1,0-1.5,0-1.5,0-.1,0-.1,0-.1-.1s0-.3,0-1v-1.5c0-.7,0-.9,0-1s0-.1.1-.1.4,0,1.5,0h.7v-.6h-1.2c-1.2,0-1.6,0-1.6,0-.1,0-.1,0-.1-.1v-.7c0-.1,0-.1.1-.1s.5,0,1.6,0h1.2v-.6c-.6,0-1.1,0-1.7,0q-.3,0-.5-.3c-.1-.2-.2-.4-.4-.6,1.9,0,3.4-.1,4.7-.4.3,0,.5-.1.7-.2.3.2.6.5.8.6,0,0,0,.1,0,.2s0,.1-.2.1-.3,0-.5,0c-.6.1-1.2.2-1.9.3v.7h1.4c1.2,0,1.6,0,1.6,0,.1,0,.1,0,.1.1v.7c0,.1,0,.1-.1.1s-.5,0-1.6,0h-1.4v.6h.8c1.1,0,1.5,0,1.5,0,.1,0,.1,0,.1.1s0,.4,0,1v1.5c0,.7,0,1,0,1,0,.1,0,.1-.1.1s-.5,0-1.5,0h-.8v.6h1.1c1.1,0,1.5,0,1.6,0,.1,0,.1,0,.1.1v.7c0,.1,0,.1-.1.1s-.5,0-1.6,0h-1.1v.7h1.5c1.2,0,1.6,0,1.6,0,.1,0,.1,0,.1.1v.7c0,.1,0,.1-.1.1s-.5,0-1.6,0h-4.1ZM281.1,40.2v-.7h-1.2v.7h1.2ZM281.1,41.6v-.7h-1.2v.7h1.2ZM282.2,39.5v.7h1.4v-.7h-1.4ZM283.6,40.9h-1.4v.7h1.4v-.7Z"/>
      <path d="M292.8,37.7c-.3,2-.8,3.9-1.5,5.2-.5.9-1.1,1.4-2,1.4s-2.1-1.1-2.1-3.1.5-2.3,1.4-3.1,2.3-1.5,3.9-1.5c2.9,0,4.6,1.8,4.6,4.2s-1.3,3.6-3.7,4.4c-.3,0-.4,0-.5-.2-.1-.2-.4-.5-.8-.8,2-.5,3.6-1.3,3.6-3.6s-1.1-2.8-2.7-2.8h0ZM289.3,38.8c-.6.6-.9,1.5-.9,2.2,0,1.1.4,1.7.8,1.7s.6-.2.9-.7c.5-1,1.1-2.7,1.3-4.3-.8.2-1.5.5-2.1,1.1Z"/>
      <path d="M300.4,45.4c-1.1,0-1.5,0-1.5,0-.1,0-.1,0-.1-.1v-1c0-.1,0-.1.1-.1s.4,0,1.5,0h3v-2.2h-1.3c-1.2,0-1.6,0-1.7,0-.1,0-.1,0-.1-.1v-1c0-.1,0-.1.1-.1s.5,0,1.7,0h1.3v-2.1h-2.5c-.3.6-.6,1.2-1.1,1.7-.1.1-.2.2-.2.2s-.1,0-.3-.2c-.2-.2-.5-.4-.8-.5.9-1,1.5-2.2,1.9-3.5,0-.3.1-.6.2-.8.4,0,.8.2,1.2.3.1,0,.2,0,.2.2s0,.1-.1.2c0,0-.1.2-.2.5l-.3.8h2v-.6c0-.9,0-1.2,0-1.8.5,0,1,0,1.4,0,.1,0,.2,0,.2.1s0,.2,0,.2c0,.2,0,.5,0,1.3v.7h2.1c1.2,0,1.6,0,1.6,0,.1,0,.1,0,.1.1v1c0,.1,0,.1-.1.1s-.5,0-1.6,0h-2.1v2.1h1.5c1.2,0,1.6,0,1.7,0,.1,0,.1,0,.1.1v1c0,.1,0,.1-.1.1s-.5,0-1.7,0h-1.5v2.2h2.8c1.1,0,1.5,0,1.5,0,.1,0,.1,0,.1.1v1c0,.1,0,.1-.1.1s-.4,0-1.5,0h-7.2Z"/>
      <path d="M311.9,38.6c0,.5-.1,1-.3,1.4,0,.2,0,.3-.2.3s-.1,0-.3-.1c-.2,0-.5-.2-.7-.2.3-1.1.5-2.2.5-3.1,0-.2,0-.5,0-.8.3,0,.7,0,1,.1.1,0,.2,0,.2.1s0,.1,0,.2c0,0,0,.2,0,.4,0,.2,0,.4,0,.6h.6v-.7c0-.9,0-1.2,0-1.8.4,0,.8,0,1.2,0,.1,0,.2,0,.2.1,0,0,0,.2,0,.3,0,.1,0,.4,0,1.3v.7c.6,0,.9,0,.9,0,.1,0,.1,0,.1.1v.8c.6-.8,1-1.5,1.3-2.4,0-.3.2-.6.2-1,.3,0,.8.1,1.1.2.1,0,.2,0,.2.2s0,.1-.1.2c0,0-.1.3-.2.6-.1.3-.2.6-.4,1h2.8c.9,0,1.2,0,1.3,0,.1,0,.2,0,.2.2,0,.3,0,.6,0,.9,0,2.9-.1,4.4-.3,5.8-.2,1.3-.7,1.9-1.8,1.9s-.6,0-.9,0q-.4,0-.4-.4c0-.4-.2-.7-.3-.9.6,0,1,.1,1.4.1s.7-.4.8-1c.2-1.3.3-2.6.4-5.2-.9,3-2,5.2-4.1,6.8-.1.1-.2.2-.3.2s-.1,0-.3-.2c-.2-.3-.4-.5-.7-.7,2.3-1.5,3.5-3.6,4.3-6.3h-.8c-.6,1.9-1.4,3.3-2.7,4.4-.1.1-.2.2-.3.2s-.1,0-.2-.2c-.2-.3-.5-.5-.7-.6,1.3-.9,2.2-2.1,2.7-3.7h-.6c-.3.4-.6.8-.9,1.2-.1.1-.2.2-.3.2s-.1,0-.3-.2c-.2-.2-.5-.4-.7-.5l.3-.3c-.1,0-.4,0-.9,0v1.9c.3-.2.7-.3,1.1-.6,0,.2,0,.5,0,.8,0,.4,0,.4-.3.5-.3.2-.6.3-.8.4v2c0,1.4,0,2.1,0,2.1,0,.1,0,.1-.1.1h-1c-.1,0-.1,0-.1-.1s0-.7,0-2.1v-1.5c-.3.1-.6.2-.8.3-.2,0-.3.2-.4.2,0,0-.1.1-.2.1s-.1,0-.2-.1c-.1-.3-.3-.8-.4-1.2.4,0,.7-.2,1.1-.3.3,0,.6-.2.9-.3v-2.4h-.7Z"/>
      <path d="M328.8,37.7c-.3,2-.8,3.9-1.5,5.2-.5.9-1.1,1.4-2,1.4s-2.1-1.1-2.1-3.1.5-2.3,1.4-3.1,2.3-1.5,3.9-1.5c2.9,0,4.6,1.8,4.6,4.2s-1.3,3.6-3.7,4.4c-.3,0-.4,0-.5-.2-.1-.2-.4-.5-.8-.8,2-.5,3.6-1.3,3.6-3.6s-1.1-2.8-2.7-2.8h0ZM325.3,38.8c-.6.6-.9,1.5-.9,2.2,0,1.1.4,1.7.8,1.7s.6-.2.9-.7c.5-1,1.1-2.7,1.3-4.3-.8.2-1.5.5-2.1,1.1Z"/>
      <path d="M336.4,43.1c-1.1,0-1.5,0-1.5,0-.1,0-.1,0-.1-.1v-.8c0-.1,0-.1.1-.1s.4,0,1.5,0h2.9c0-.3,0-.5,0-.7h-1.5c-1.2,0-1.6,0-1.7,0-.1,0-.1,0-.1-.1s0-.5,0-1.4v-1.9c-.2.2-.5.5-.7.7-.1.1-.2.2-.3.2s-.1,0-.2-.3c-.1-.3-.3-.5-.5-.7,1-.7,1.8-1.6,2.2-2.3.2-.3.3-.5.3-.7.4,0,.7.2,1.1.3.1,0,.2,0,.2.2s0,.1-.1.2c0,0-.2.2-.3.4l-.2.3h2.2c.1-.2.2-.4.3-.6s.1-.4.2-.6c.4,0,.8.2,1.1.3.1,0,.1.1.1.2s0,.1-.1.2c0,0-.2.2-.2.3,0,.1-.1.3-.2.4h1.8c1.2,0,1.5,0,1.6,0,.1,0,.1,0,.1.1v.7c0,.1,0,.1-.1.1s-.5,0-1.6,0h-2.1v.6h1.5c1.2,0,1.5,0,1.6,0,.1,0,.1,0,.1.1v.6c0,.1,0,.1-.1.1s-.5,0-1.6,0h-1.5v.6h1.5c1.2,0,1.5,0,1.6,0,.1,0,.1,0,.1.1v.6c0,.1,0,.1-.1.1s-.5,0-1.6,0h-1.5v.6h2.2c1.2,0,1.6,0,1.7,0,.1,0,.1,0,.1.1v.7c0,.1,0,.1-.1.1s-.5,0-1.7,0h-2.4c0,.1,0,.3,0,.6h0c0,0,3,0,3,0,1.1,0,1.5,0,1.5,0,.1,0,.1,0,.1.1v.8c0,.1,0,.1-.1.1s-.4,0-1.5,0h-2.3c1.1.7,2.5,1.2,4.1,1.5-.2.2-.4.5-.5.8,0,.2-.1.3-.2.3s-.1,0-.3,0c-1.6-.5-3-1.2-4-2.1,0,1.3,0,2,0,2.3s0,.1-.1.1h-1c-.1,0-.1,0-.1-.1,0-.3,0-.9,0-2.2-.9.9-2.4,1.6-3.9,2.1-.1,0-.2,0-.3,0-.1,0-.2,0-.2-.3,0-.3-.2-.5-.4-.7,1.6-.4,2.9-.8,4-1.6h-2.1ZM339.6,37.7v-.6h-2.4v.6h2.4ZM339.6,39.1v-.6h-2.4v.6h2.4ZM339.6,40.6v-.6h-2.4v.6h2.4Z"/>
      <path d="M351.4,40.9c-.8,0-1.6,0-2.5,0-.1,0-.2,0-.2-.2,0-.3,0-.7,0-1,.9.1,1.8.1,2.7,0,0-.5,0-.9,0-1.4-1.2,0-2,0-2.9,0-.1,0-.2,0-.2-.2,0-.3,0-.6,0-1.1,1,.1,2.1.1,3.1.1,0-.4,0-.8,0-1.2,0-.3,0-.5-.1-.8.6,0,1.2.1,1.5.2.1,0,.2.2.1.4,0,.2-.2.4-.2.6,0,.2,0,.4,0,.8,1.1,0,1.9-.2,2.6-.4.1,0,.2,0,.2.1,0,.3,0,.7,0,.9s0,.2-.1.2c-.9.1-1.6.2-2.8.3,0,.5,0,.9,0,1.4.9,0,1.5-.2,2.4-.3.1,0,.2,0,.2,0,0,.2,0,.6,0,1s0,.2-.2.2c-.8.1-1.3.2-2.4.3,0,.6,0,1.1,0,1.7,1.2.3,2.1.8,3.2,1.5.1.1.1.1,0,.3,0,.2-.3.7-.5.9,0,0,0,0-.2,0s0,0-.1,0c-.7-.6-1.5-1-2.4-1.4,0,1.3-.8,1.8-2.4,1.8s-2.4-.7-2.4-1.7.9-1.7,2.4-1.7.6,0,1.2,0c0-.5,0-1,0-1.4ZM350.4,43.4c-.9,0-1.3.3-1.3.6s.4.5,1.2.5.9-.1,1.1-.4c0-.1.1-.3.1-.7-.3,0-.8-.1-1.1-.1Z"/>
      <path d="M362.6,35.8c.2,0,.2.1.2.2s0,.1,0,.2c0,0-.1.3-.2.6-.2.8-.3,1.7-.3,2.3,0,.4,0,.9,0,1.3.3-.5.5-.9.8-1.5.1.4.2.6.4.8,0,0,0,.1,0,.2,0,0,0,.2-.1.3-.3.5-.5,1-.7,1.5,0,.1,0,.2,0,.4,0,.1,0,.2-.2.2-.1,0-.7.1-1,.1,0,0-.1,0-.2-.2-.2-.5-.4-1.4-.4-2.4s.1-1.8.3-3c0-.4,0-.8,0-1.4.5.1,1,.2,1.3.4ZM366.5,35.6c.2,0,.3.1.2.3,0,.2,0,.4,0,.6,0,1.1.2,2.2.2,3.1,0,1.7-.3,3.2-.9,4.2-.5.7-1.2,1.5-2,1.9,0,0-.2,0-.2,0s-.2,0-.3-.1c-.3-.2-.6-.4-1-.6,1-.5,1.6-1,2-1.6.7-.9,1-1.9,1-3.8s0-2.1-.1-2.9c0-.6-.1-.9-.3-1.3.5,0,1,0,1.4.1Z"/>
      <path d="M370.7,34.6c2.3,1.7,3.3,3.5,3.3,5.9s-.9,4.2-3.3,5.9l-.3-.4c2-1.6,2.7-3.4,2.7-5.5s-.7-3.8-2.7-5.5l.3-.4Z"/>
    </g>
  </g>
  <g class="st5">
    <polyline class="st1" points="169.7 42 226.9 42 228.9 42"/>
    <polygon class="st9" points="226.9 50.4 243.7 42 226.9 33.6 226.9 50.4"/>
  </g>
  <g class="st3">
    <g>
      <path d="M171.7,20.2c-.3,0-.6.2-.9.2q-.4,0-.6-.4c-.1-.3-.3-.6-.5-.8,1.4-.2,2.6-.5,3.4-.9.3-.1.4-.2.6-.3.3.3.6.6.8.9,0,0,.1.2.1.3s-.1.2-.3.2-.3,0-.4.1c-.3.1-.6.2-.9.3v2c1,0,1.3,0,1.4,0,.1,0,.2,0,.2.2v1c0,.1,0,.2-.2.2s-.4,0-1.2,0c.4.9.9,1.6,1.5,2.2-.2.3-.4.6-.5.9,0,.2-.1.2-.2.2s-.1,0-.2-.2c-.3-.5-.5-1-.7-1.6,0,3.4,0,5.8,0,6.1s0,.2-.2.2h-1.1c-.2,0-.2,0-.2-.2,0-.2,0-2.6.1-5.7-.4,1.2-.9,2.1-1.5,3,0,.2-.2.2-.2.2s-.1,0-.2-.2c-.2-.4-.4-.7-.6-1,.9-1,1.7-2.2,2.2-3.9h-.3c-1,0-1.4,0-1.4,0-.1,0-.2,0-.2-.2v-1c0-.1,0-.2.2-.2s.4,0,1.4,0h.5v-1.6ZM178.2,25.5c-.7.7-1.5,1.4-2.6,2-.2,0-.3.1-.3.1s-.1,0-.3-.2c-.2-.3-.5-.6-.7-.8,1.8-.9,3-1.8,3.8-2.8,0,0,.1-.2.2-.3-.8.5-1.8,1-2.9,1.3-.1,0-.2,0-.3,0-.1,0-.2,0-.3-.4-.1-.3-.4-.6-.6-.8,1.2-.3,2.2-.7,3.1-1.1-.3-.3-.6-.5-.9-.8-.1,0-.1-.1,0-.3l.6-.5c.1-.1.1-.1.3,0,.4.2.8.5,1.1.9.6-.5,1.1-1,1.5-1.7h-2.4c-.6.6-1.2,1.1-2,1.6-.2.1-.3.2-.3.2s-.2,0-.3-.3c-.2-.2-.4-.5-.6-.7,1.3-.7,2.3-1.5,3-2.5.2-.2.3-.4.4-.7.4,0,.9.2,1.3.3.1,0,.2.1.2.2s0,.2-.2.2c-.1,0-.2.2-.5.5h1.9c.2,0,.3,0,.4,0,0,0,0,0,.2,0,.1,0,.2,0,.6.4.3.3.4.4.4.5s0,.2-.2.2c-.1,0-.2.2-.4.5-.7,1-1.4,1.8-2.3,2.4.4,0,.7.1.9.2.1,0,.2.1.2.2s0,.1-.1.2c-.1,0-.2.2-.4.5h-.1c0,.1,1.7.1,1.7.1.2,0,.3,0,.4,0,0,0,.1,0,.2,0s.2,0,.6.5c.3.3.4.4.4.5s0,.2-.2.2c-.2,0-.3.2-.4.5-1.4,2.3-3.4,3.8-6.8,4.6-.4,0-.4.1-.6-.3-.1-.3-.3-.6-.5-.8,1.7-.3,3-.8,4.1-1.4-.4-.4-.7-.6-1.1-.9-.1,0-.1-.1,0-.3l.6-.5c.1-.1.2,0,.3,0,.4.3.8.6,1.2,1,.6-.5,1.1-1.2,1.6-1.9h-2.4Z"/>
      <path d="M189.2,18.7c1,0,1.3,0,1.4,0,.1,0,.2,0,.2.2,0,.5,0,.9,0,1.6.4,3.8,2.2,6.7,5.4,8.7-.3.2-.6.6-.8,1.1-.1.2-.2.3-.3.3s-.2,0-.3-.2c-2.5-1.9-4.1-4.2-4.8-6.9-.8,2.9-2.6,5.4-5.2,7-.2,0-.3.2-.3.2s-.2-.1-.3-.3c-.2-.4-.5-.7-.8-.9,3.5-1.7,5.4-5.1,5.6-9.1h-1.7c-1,0-1.3,0-1.4,0-.2,0-.2,0-.2-.2v-1.2c0-.1,0-.2.2-.2s.4,0,1.4,0h1.8Z"/>
      <path d="M205.3,24.3c0,.8-.6,1.4-1.4,1.4s-1.4-.6-1.4-1.4.6-1.4,1.4-1.4,1.4.6,1.4,1.4Z"/>
      <path d="M214.2,20.4c1,0,1.3,0,1.4,0,.1,0,.1,0,.1.2v1c0,.2,0,.2-.1.2s-.4,0-1.4,0h-1.2c-1,0-1.3,0-1.4,0-.1,0-.1,0-.1-.2v-1c0-.1,0-.2.1-.2s.4,0,1.4,0h1.2ZM218.1,22.6c0,0,.2,0,.2,0,0,0,.1,0,.2,0,0,0,.2,0,.4.3.2.2.2.3.2.4s0,.2-.1.3c0,.1-.1.3-.2.7-.1,1.3-.4,2.4-.8,3.5.1.1.2.3.4.4.6.6,1.6,1,3.1,1s2,0,3-.2c-.1.3-.2.6-.3,1,0,.4,0,.4-.5.5-.6,0-1.4,0-2.3,0-1.6,0-2.8-.5-3.6-1.1-.1-.1-.3-.2-.4-.4-.3.5-.7,1-1.1,1.4-.1.2-.2.2-.3.2s-.1,0-.3-.3c-.2-.2-.3-.5-.5-.6,0,.4,0,.6,0,.6,0,.1,0,.2-.2.2h-.9c-.1,0-.2,0-.2-.2v-.5h-1.1v.7c0,.1,0,.1-.2.1h-.9c-.2,0-.2,0-.2-.1s0-.4,0-2v-1c0-.9,0-1.2,0-1.3,0-.1,0-.2.2-.2s.4,0,1.3,0h.6c.9,0,1.2,0,1.3,0,.1,0,.2,0,.2.2s0,.4,0,1.1v2.1c.5-.5,1-1.1,1.3-1.7-.4-.7-.7-1.6-1-2.6,0-.1,0-.2.2-.2l.7-.2c.2,0,.3,0,.3.1,0,.6.3,1.1.4,1.5.2-.8.4-1.6.5-2.6h-.8l-.2.3c0,.2-.1.2-.4,0l-.7-.3c-.1,0-.2,0-.2-.1s0,0,0-.2c.8-1.3,1.3-2.6,1.7-3.7h-.5c-.4,0-.6,0-.7,0-.2,0-.2,0-.2-.2v-1c0-.1,0-.2.2-.2s.3,0,1,0h.6c.2,0,.3,0,.3,0,0,0,.1,0,.2,0,0,0,.2,0,.5.4.3.3.4.4.4.5s0,.2-.1.2c-.1,0-.2.2-.3.5-.3.8-.7,1.7-1.1,2.6h.6ZM214.1,18.5c.8,0,1.1,0,1.2,0,.1,0,.2,0,.2.2v.9c0,.1,0,.1-.2.1s-.4,0-1.2,0h-.8c-.8,0-1.1,0-1.2,0-.1,0-.1,0-.1-.1v-.9c0-.1,0-.2.1-.2s.4,0,1.2,0h.8ZM214,22.4c.8,0,1,0,1.1,0,.2,0,.2,0,.2.1v.9c0,.1,0,.2-.2.2s-.3,0-1.1,0h-.7c-.8,0-1,0-1.1,0-.1,0-.1,0-.1-.2v-.9c0-.1,0-.1.1-.1s.3,0,1.1,0h.7ZM214,24.2c.8,0,1,0,1.1,0,.2,0,.2,0,.2.2v.9c0,.1,0,.2-.2.2s-.3,0-1.1,0h-.7c-.8,0-1,0-1.1,0-.1,0-.1,0-.1-.2v-.9c0-.1,0-.2.1-.2s.3,0,1.1,0h.7ZM213.1,27.3v1.4h1.1v-1.4h-1.1ZM220.5,27.9c-1.1,0-1.4,0-1.5,0-.1,0-.2,0-.2-.2v-1c0-.1,0-.2.2-.2s.2,0,.6,0v-3.1c0-1,0-1.4,0-1.8.4,0,.9,0,1.2,0,.1,0,.2,0,.2.2,0,.1,0,.2,0,.3,0,.1,0,.4,0,1.2v3.1h.7v-6.4c-.4,0-.8.2-1.2.2-.4,0-.4,0-.6-.3-.1-.3-.3-.5-.4-.8,1.4-.2,2.7-.5,3.6-.8.2,0,.4-.2.6-.3.3.2.6.6.8.8,0,0,0,.2,0,.3s0,.2-.2.2c-.1,0-.3,0-.5.1-.3.1-.5.2-.8.3v2.6h.2c.7,0,.9,0,1,0,.1,0,.2,0,.2.2v1c0,.1,0,.2-.2.2s-.3,0-1,0h-.2v2.9c.9,0,1.2,0,1.3,0,.2,0,.2,0,.2.2v1c0,.1,0,.2-.2.2s-.4,0-1.5,0h-2Z"/>
      <path d="M227.7,30.1c-1.3,0-1.7,0-1.8,0-.1,0-.2,0-.2-.2v-1.2c0-.1,0-.2.2-.2s.5,0,1.8,0h3.5v-2.5h-1.5c-1.4,0-1.8,0-1.9,0-.1,0-.2,0-.2-.2v-1.1c0-.1,0-.1.2-.1s.6,0,1.9,0h1.5v-2.4h-2.9c-.3.7-.7,1.3-1.2,2-.1.2-.2.3-.3.3s-.2,0-.3-.2c-.3-.3-.6-.5-.9-.6,1-1.2,1.7-2.5,2.3-4.1,0-.3.2-.6.2-.9.5,0,1,.2,1.4.3.2,0,.3.1.3.2s0,.1-.1.3c0,0-.2.2-.3.5l-.3.9h2.3v-.7c0-1,0-1.4-.1-2.1.5,0,1.1,0,1.6,0,.1,0,.2,0,.2.2s0,.2,0,.3c0,.2,0,.5,0,1.6v.8h2.4c1.4,0,1.8,0,1.9,0,.2,0,.2,0,.2.2v1.1c0,.1,0,.2-.2.2s-.5,0-1.9,0h-2.4v2.4h1.8c1.4,0,1.8,0,1.9,0,.1,0,.2,0,.2.1v1.1c0,.1,0,.2-.2.2s-.6,0-1.9,0h-1.8v2.5h3.3c1.3,0,1.7,0,1.8,0,.1,0,.2,0,.2.2v1.2c0,.1,0,.2-.2.2s-.5,0-1.8,0h-8.4Z"/>
    </g>
  </g>
  <g class="st4">
    <polyline class="st1" points="386.5 42 443.7 42 445.7 42"/>
    <polygon class="st9" points="443.7 50.4 460.5 42 443.7 33.6 443.7 50.4"/>
  </g>
  <g class="st6">
    <g>
      <path d="M392.4,20.2c-.3,0-.6.2-.9.2q-.4,0-.6-.4c-.1-.3-.3-.6-.5-.8,1.4-.2,2.6-.5,3.4-.9.3-.1.4-.2.6-.3.3.3.6.6.8.9,0,0,.1.2.1.3s-.1.2-.3.2-.3,0-.4.1c-.3.1-.6.2-.9.3v2c1,0,1.3,0,1.4,0,.1,0,.2,0,.2.2v1c0,.1,0,.2-.2.2s-.4,0-1.2,0c.4.9.9,1.6,1.5,2.2-.2.3-.4.6-.5.9,0,.2-.1.2-.2.2s-.1,0-.2-.2c-.3-.5-.5-1-.7-1.6,0,3.4,0,5.8,0,6.1s0,.2-.2.2h-1.1c-.2,0-.2,0-.2-.2,0-.2,0-2.6.1-5.7-.4,1.2-.9,2.1-1.5,3,0,.2-.2.2-.2.2s-.1,0-.2-.2c-.2-.4-.4-.7-.6-1,.9-1,1.7-2.2,2.2-3.9h-.3c-1,0-1.4,0-1.4,0-.1,0-.2,0-.2-.2v-1c0-.1,0-.2.2-.2s.4,0,1.4,0h.5v-1.6ZM398.8,25.5c-.7.7-1.5,1.4-2.6,2-.2,0-.3.1-.3.1s-.1,0-.3-.2c-.2-.3-.5-.6-.7-.8,1.8-.9,3-1.8,3.8-2.8,0,0,.1-.2.2-.3-.8.5-1.8,1-2.9,1.3-.1,0-.2,0-.3,0-.1,0-.2,0-.3-.4-.1-.3-.4-.6-.6-.8,1.2-.3,2.2-.7,3.1-1.1-.3-.3-.6-.5-.9-.8-.1,0-.1-.1,0-.3l.6-.5c.1-.1.1-.1.3,0,.4.2.8.5,1.1.9.6-.5,1.1-1,1.5-1.7h-2.4c-.6.6-1.2,1.1-2,1.6-.2.1-.3.2-.3.2s-.2,0-.3-.3c-.2-.2-.4-.5-.6-.7,1.3-.7,2.3-1.5,3-2.5.2-.2.3-.4.3-.7.4,0,.9.2,1.3.3.1,0,.2.1.2.2s0,.2-.2.2c-.1,0-.2.2-.5.5h1.9c.2,0,.3,0,.3,0,0,0,0,0,.2,0,.1,0,.2,0,.6.4.3.3.4.4.4.5s0,.2-.2.2c-.1,0-.2.2-.4.5-.7,1-1.4,1.8-2.3,2.4.3,0,.7.1.9.2.1,0,.2.1.2.2s0,.1-.1.2c-.1,0-.2.2-.4.5h-.1c0,.1,1.7.1,1.7.1.2,0,.3,0,.4,0,0,0,.1,0,.2,0s.2,0,.6.5c.3.3.4.4.4.5s0,.2-.2.2c-.2,0-.3.2-.4.5-1.4,2.3-3.4,3.8-6.8,4.6-.4,0-.4.1-.6-.3-.1-.3-.3-.6-.5-.8,1.7-.3,3-.8,4.1-1.4-.3-.4-.7-.6-1.1-.9-.1,0-.1-.1,0-.3l.6-.5c.1-.1.2,0,.3,0,.4.3.8.6,1.2,1,.6-.5,1.1-1.2,1.6-1.9h-2.4Z"/>
      <path d="M414.1,21.3c0-.8,0-1.2,0-1.8.5,0,1,0,1.5,0,.1,0,.2,0,.2.2s0,.2,0,.3c0,.2,0,.4,0,1.4v2c0,.8,0,1.2,0,1.3,0,.2,0,.2-.1.2h-1.2c-.2,0-.2,0-.2-.2v-.5h-2.9v4.3h3.3v-1.1c0-.8,0-1.2,0-1.8.5,0,1,0,1.5,0,.1,0,.2,0,.2.2s0,.2,0,.3c0,.2,0,.4,0,1.4v1.7c0,.8,0,1.1,0,1.2,0,.1,0,.1-.2.1h-1.1c-.1,0-.2,0-.2-.1v-.6h-8v.7c0,.1,0,.1-.2.1h-1.1c-.2,0-.2,0-.2-.1s0-.4,0-1.2v-1.8c0-.8,0-1.2,0-1.8.5,0,1,0,1.5,0,.1,0,.2,0,.2.2s0,.2,0,.3c0,.2,0,.4,0,1.2v1h3.2v-4.3h-2.7v.6c0,.1,0,.2-.2.2h-1.2c-.1,0-.2,0-.2-.2s0-.5,0-1.3v-2.1c0-.8,0-1.2,0-1.8.5,0,1,0,1.5,0,.1,0,.2,0,.2.2s0,.2,0,.3c0,.2,0,.4,0,1.2v1.5h2.7v-3.1c0-.8,0-1.3,0-1.8.5,0,1.1,0,1.5.1.1,0,.2,0,.2.1s0,.2,0,.3c0,.2,0,.4,0,1.3v3.1h2.9v-1.6Z"/>
      <path d="M425.9,24.3c0,.8-.6,1.4-1.4,1.4s-1.4-.6-1.4-1.4.6-1.4,1.4-1.4,1.4.6,1.4,1.4Z"/>
      <path d="M434.3,20c-1.3,0-1.7,0-1.8,0-.2,0-.2,0-.2-.2v-1.1c0-.2,0-.2.2-.2s.5,0,1.8,0h8.5c1.3,0,1.7,0,1.8,0,.1,0,.2,0,.2.2v1.1c0,.1,0,.2-.2.2s-.5,0-1.8,0h-6.3c-.1.6-.3,1.1-.5,1.6h1.5c.2,0,.2,0,.3,0,0,0,0,0,.2,0s.2,0,.5.4c.3.3.4.4.4.5s0,.2-.1.3c0,.1-.2.3-.3.8-.6,3-2,5.3-4.7,7-.2.1-.3.2-.3.2s-.2,0-.3-.3c-.3-.3-.5-.6-.8-.7,1.3-.7,2.4-1.6,3.2-2.7-.4-.5-.9-1-1.4-1.4,0,0,0,0,0-.1s0,0,0-.1l.6-.6c.1-.1.2-.2.3,0,.4.3.8.7,1.2,1.1.4-.8.7-1.7.8-2.7h-1.7c-.5,1.1-1.3,2-2.2,2.9-.1.1-.2.2-.3.2s-.1,0-.2-.3c-.2-.4-.4-.7-.6-.9,1.5-1.2,2.4-2.7,2.9-4.9h-.7ZM440.9,24.2c.7-.4,1.4-1,2.1-1.5.3-.3.5-.5.7-.8.4.3.7.6,1,1,0,.1.1.2.1.3s0,.1-.2.2c-.2,0-.3.2-.6.4-.9.7-2,1.5-3,2v2.4c0,.5,0,.7.2.8.2.1.4.2,1.1.2s.9,0,1.1-.3.3-.6.4-1.8c.3.2.7.3,1,.4.3,0,.3,0,.3.5,0,1.3-.3,1.7-.7,2.1-.4.4-1.1.5-2.3.5s-1.6,0-2-.3c-.3-.2-.5-.4-.5-1.2v-6.7c0-.9,0-1.4,0-1.8.5,0,1,0,1.4.1.2,0,.3,0,.3.2,0,.1,0,.2,0,.3,0,.1,0,.4,0,1.3v2Z"/>
      <path d="M448.3,22.3c-1.2,0-1.7,0-1.8,0-.1,0-.2,0-.2-.2v-1.2c0-.1,0-.2.2-.2s.5,0,1.8,0h3.4v-1.3c0-.8,0-1.2,0-1.6.5,0,1.1,0,1.6,0,.1,0,.2,0,.2.2,0,.1,0,.2,0,.3,0,.1,0,.4,0,.9v1.4h3.7c1.2,0,1.7,0,1.8,0,.2,0,.2,0,.2.2v1.2c0,.1,0,.2-.2.2s-.5,0-1.8,0h-6.9v5c0,.6,0,1,.6,1.1.4.1,1.2.2,2.9.2s3,0,4.3-.2c.3,0,.3,0,.3.8,0,.7,0,.7-.2.8-1.3.1-2.5.2-4.3.2s-3.6-.1-4.2-.4c-.6-.2-.9-.8-.9-1.9v-5.5h-.2Z"/>
    </g>
  </g>
  <g>
    <path d="M197.8,48.7h3.1c.8,0,1.4.2,1.8.5s.6.8.6,1.3-.1.8-.4,1.2-.6.7-1.1.9-1.1.4-1.6.4-.8,0-1.4-.2l-.6,2.2c-.1.5-.2.9-.2,1s0,.2.2.3.4.1.8.2v.2h-3.2v-.2c.5,0,.8,0,.9-.2s.3-.5.5-1.2l1.3-4.5c.2-.5.2-.9.2-1.1s0-.2-.2-.3-.4-.1-.7-.2v-.2ZM198.9,52.4c.4.1.8.2,1.1.2.4,0,.8,0,1.2-.3s.6-.4.8-.8.3-.7.3-1.1-.1-.7-.4-.9-.6-.3-1.1-.3-.6,0-1,0l-.9,3.2Z"/>
    <path d="M205.1,55v3.6c0,.3,0,.5,0,.6s.1.2.2.2.2,0,.4,0v.2h-2.2v-.2c.2,0,.4,0,.4,0s.1-.1.2-.2,0-.3,0-.6v-1.7c0-.5,0-.8,0-.9,0-.1,0-.2-.1-.2s-.1,0-.2,0-.2,0-.3,0v-.2c0,0,1.3-.5,1.3-.5h.2ZM204.7,52.7c.1,0,.3,0,.3.1s.1.2.1.3,0,.3-.1.4-.2.1-.3.1-.3,0-.4-.1-.1-.2-.1-.4,0-.3.1-.3.2-.1.4-.1Z"/>
  </g>
  <g>
    <path d="M412.7,48.7h3.1c.8,0,1.4.2,1.8.5s.6.8.6,1.3-.1.8-.4,1.2-.6.7-1.1.9-1.1.4-1.6.4-.8,0-1.4-.2l-.6,2.2c-.1.5-.2.9-.2,1s0,.2.2.3.4.1.8.2v.2h-3.2v-.2c.5,0,.8,0,.9-.2s.3-.5.5-1.2l1.3-4.5c.2-.5.2-.9.2-1.1s0-.2-.2-.3-.4-.1-.7-.2v-.2ZM413.8,52.4c.4.1.8.2,1.1.2.4,0,.8,0,1.2-.3s.6-.4.8-.8.3-.7.3-1.1-.1-.7-.4-.9-.6-.3-1.1-.3-.6,0-1,0l-.9,3.2Z"/>
    <path d="M419.3,56.9c0,.7.2,1.2.5,1.6.3.4.7.6,1.1.6s.5,0,.8-.2c.2-.2.4-.4.5-.8h.2c0,.5-.3.9-.6,1.3-.3.4-.7.5-1.2.5s-1-.2-1.4-.6c-.4-.4-.6-1-.6-1.7s.2-1.4.6-1.8c.4-.4.9-.6,1.5-.6s.9.2,1.2.5.5.8.5,1.3h-3.1ZM419.3,56.6h2.1c0-.3,0-.5-.1-.6,0-.2-.2-.3-.4-.4s-.3-.2-.5-.2c-.3,0-.5.1-.7.3-.2.2-.3.5-.4.9Z"/>
  </g>
</svg>