<?xml version="1.0" encoding="UTF-8"?>
<svg id="Layer_1" xmlns="http://www.w3.org/2000/svg" xmlns:xlink="http://www.w3.org/1999/xlink" version="1.1" viewBox="0 0 618.7 224.7">
  <!-- Generator: Adobe Illustrator 29.2.1, SVG Export Plug-In . SVG Version: 2.1.0 Build 116)  -->
  <defs>
    <style>
      .st0, .st1 {
        fill: none;
      }

      .st2, .st3, .st4, .st5, .st6, .st7, .st8 {
        isolation: isolate;
      }

      .st2, .st9 {
        opacity: .1;
      }

      .st3, .st10 {
        opacity: 0;
      }

      .st4, .st11 {
        opacity: 0;
      }

      .st5, .st12 {
        opacity: 0;
      }

      .st6, .st13 {
        opacity: .1;
      }

      .st7, .st14 {
        opacity: .1;
      }

      .st8, .st15 {
        opacity: .5;
      }

      .st1 {
        stroke: #000;
        stroke-width: 2px;
      }

      .st16 {
        clip-path: url(#clippath-17);
      }

      .st17 {
        clip-path: url(#clippath-19);
      }

      .st18 {
        clip-path: url(#clippath-11);
      }

      .st19 {
        clip-path: url(#clippath-16);
      }

      .st20 {
        clip-path: url(#clippath-18);
      }

      .st21 {
        clip-path: url(#clippath-10);
      }

      .st22 {
        clip-path: url(#clippath-15);
      }

      .st23 {
        clip-path: url(#clippath-13);
      }

      .st24 {
        clip-path: url(#clippath-14);
      }

      .st25 {
        clip-path: url(#clippath-12);
      }

      .st26 {
        clip-path: url(#clippath-61);
      }

      .st27 {
        clip-path: url(#clippath-67);
      }

      .st28 {
        clip-path: url(#clippath-68);
      }

      .st29 {
        clip-path: url(#clippath-60);
      }

      .st30 {
        clip-path: url(#clippath-65);
      }

      .st31 {
        clip-path: url(#clippath-62);
      }

      .st32 {
        clip-path: url(#clippath-64);
      }

      .st33 {
        clip-path: url(#clippath-66);
      }

      .st34 {
        clip-path: url(#clippath-63);
      }

      .st35 {
        clip-path: url(#clippath-50);
      }

      .st36 {
        clip-path: url(#clippath-55);
      }

      .st37 {
        clip-path: url(#clippath-52);
      }

      .st38 {
        clip-path: url(#clippath-57);
      }

      .st39 {
        clip-path: url(#clippath-54);
      }

      .st40 {
        clip-path: url(#clippath-56);
      }

      .st41 {
        clip-path: url(#clippath-53);
      }

      .st42 {
        clip-path: url(#clippath-51);
      }

      .st43 {
        clip-path: url(#clippath-58);
      }

      .st44 {
        clip-path: url(#clippath-59);
      }

      .st45 {
        clip-path: url(#clippath-31);
      }

      .st46 {
        clip-path: url(#clippath-32);
      }

      .st47 {
        clip-path: url(#clippath-33);
      }

      .st48 {
        clip-path: url(#clippath-34);
      }

      .st49 {
        clip-path: url(#clippath-35);
      }

      .st50 {
        clip-path: url(#clippath-39);
      }

      .st51 {
        clip-path: url(#clippath-30);
      }

      .st52 {
        clip-path: url(#clippath-36);
      }

      .st53 {
        clip-path: url(#clippath-37);
      }

      .st54 {
        clip-path: url(#clippath-38);
      }

      .st55 {
        clip-path: url(#clippath-27);
      }

      .st56 {
        clip-path: url(#clippath-29);
      }

      .st57 {
        clip-path: url(#clippath-26);
      }

      .st58 {
        clip-path: url(#clippath-28);
      }

      .st59 {
        clip-path: url(#clippath-20);
      }

      .st60 {
        clip-path: url(#clippath-21);
      }

      .st61 {
        clip-path: url(#clippath-22);
      }

      .st62 {
        clip-path: url(#clippath-23);
      }

      .st63 {
        clip-path: url(#clippath-24);
      }

      .st64 {
        clip-path: url(#clippath-25);
      }

      .st65 {
        clip-path: url(#clippath-69);
      }

      .st66 {
        clip-path: url(#clippath-41);
      }

      .st67 {
        clip-path: url(#clippath-42);
      }

      .st68 {
        clip-path: url(#clippath-43);
      }

      .st69 {
        clip-path: url(#clippath-44);
      }

      .st70 {
        clip-path: url(#clippath-45);
      }

      .st71 {
        clip-path: url(#clippath-49);
      }

      .st72 {
        clip-path: url(#clippath-40);
      }

      .st73 {
        clip-path: url(#clippath-46);
      }

      .st74 {
        clip-path: url(#clippath-47);
      }

      .st75 {
        clip-path: url(#clippath-48);
      }

      .st76 {
        clip-path: url(#clippath-1);
      }

      .st77 {
        clip-path: url(#clippath-3);
      }

      .st78 {
        clip-path: url(#clippath-4);
      }

      .st79 {
        clip-path: url(#clippath-2);
      }

      .st80 {
        clip-path: url(#clippath-7);
      }

      .st81 {
        clip-path: url(#clippath-6);
      }

      .st82 {
        clip-path: url(#clippath-9);
      }

      .st83 {
        clip-path: url(#clippath-8);
      }

      .st84 {
        clip-path: url(#clippath-5);
      }

      .st85, .st15, .st13, .st14, .st10, .st11, .st9, .st12 {
        fill: #feae00;
      }

      .st86 {
        clip-path: url(#clippath);
      }
    </style>
    <clipPath id="clippath">
      <rect class="st0" x="148.8" y="67.6" width="66.9" height="59.6"/>
    </clipPath>
    <clipPath id="clippath-1">
      <rect class="st0" x="149.8" y="68.6" width="64.9" height="57.6"/>
    </clipPath>
    <clipPath id="clippath-2">
      <rect class="st0" x="76.8" y="2.8" width="66.9" height="59.6"/>
    </clipPath>
    <clipPath id="clippath-3">
      <rect class="st0" x="92.8" y="21.1" width="33" height="21"/>
    </clipPath>
    <clipPath id="clippath-4">
      <rect class="st0" x="77.8" y="3.8" width="64.9" height="57.6"/>
    </clipPath>
    <clipPath id="clippath-5">
      <rect class="st0" x="148.8" y="2.8" width="66.9" height="59.6"/>
    </clipPath>
    <clipPath id="clippath-6">
      <rect class="st0" x="170.8" y="21.1" width="21" height="20"/>
    </clipPath>
    <clipPath id="clippath-7">
      <rect class="st0" x="149.8" y="3.8" width="64.9" height="57.6"/>
    </clipPath>
    <clipPath id="clippath-8">
      <rect class="st0" x="220.7" y="2.8" width="66.9" height="59.6"/>
    </clipPath>
    <clipPath id="clippath-9">
      <rect class="st0" x="236.8" y="21.1" width="33" height="21"/>
    </clipPath>
    <clipPath id="clippath-10">
      <rect class="st0" x="221.7" y="3.8" width="64.9" height="57.6"/>
    </clipPath>
    <clipPath id="clippath-11">
      <rect class="st0" x="220.7" y="67.6" width="66.9" height="59.6"/>
    </clipPath>
    <clipPath id="clippath-12">
      <rect class="st0" x="242.8" y="85.1" width="21" height="21"/>
    </clipPath>
    <clipPath id="clippath-13">
      <rect class="st0" x="221.7" y="68.6" width="64.9" height="57.6"/>
    </clipPath>
    <clipPath id="clippath-14">
      <rect class="st0" x="76.8" y="67.6" width="66.9" height="59.6"/>
    </clipPath>
    <clipPath id="clippath-15">
      <rect class="st0" x="98.8" y="85.1" width="21" height="21"/>
    </clipPath>
    <clipPath id="clippath-16">
      <rect class="st0" x="77.8" y="68.6" width="64.9" height="57.6"/>
    </clipPath>
    <clipPath id="clippath-17">
      <rect class="st0" x="76.8" y="132.4" width="66.9" height="59.6"/>
    </clipPath>
    <clipPath id="clippath-18">
      <rect class="st0" x="92.8" y="151.1" width="33" height="20"/>
    </clipPath>
    <clipPath id="clippath-19">
      <rect class="st0" x="77.8" y="133.4" width="64.9" height="57.6"/>
    </clipPath>
    <clipPath id="clippath-20">
      <rect class="st0" x="148.8" y="132.4" width="66.9" height="59.6"/>
    </clipPath>
    <clipPath id="clippath-21">
      <rect class="st0" x="170.8" y="150.1" width="21" height="21"/>
    </clipPath>
    <clipPath id="clippath-22">
      <rect class="st0" x="149.8" y="133.4" width="64.9" height="57.6"/>
    </clipPath>
    <clipPath id="clippath-23">
      <rect class="st0" x="219.6" y="132.4" width="66.9" height="59.6"/>
    </clipPath>
    <clipPath id="clippath-24">
      <rect class="st0" x="235.8" y="151.1" width="32" height="20"/>
    </clipPath>
    <clipPath id="clippath-25">
      <rect class="st0" x="220.6" y="133.4" width="64.9" height="57.6"/>
    </clipPath>
    <clipPath id="clippath-26">
      <rect class="st0" x="176.4" y="109.7" width="11.6" height="32.9"/>
    </clipPath>
    <clipPath id="clippath-27">
      <rect class="st0" x="29.8" y="-270.8" width="595.3" height="841.9"/>
    </clipPath>
    <clipPath id="clippath-28">
      <rect class="st0" x="125" y="124" width="35.4" height="11.6" transform="translate(-50 139) rotate(-45)"/>
    </clipPath>
    <clipPath id="clippath-29">
      <rect class="st0" x="29.8" y="-270.8" width="595.3" height="841.9"/>
    </clipPath>
    <clipPath id="clippath-30">
      <rect class="st0" x="124.4" y="91.6" width="36.7" height="11.6"/>
    </clipPath>
    <clipPath id="clippath-31">
      <rect class="st0" x="29.8" y="-270.8" width="595.3" height="841.9"/>
    </clipPath>
    <clipPath id="clippath-32">
      <rect class="st0" x="197" y="61.3" width="35.4" height="11.6" transform="translate(15.5 171.5) rotate(-45)"/>
    </clipPath>
    <clipPath id="clippath-33">
      <rect class="st0" x="29.8" y="-270.8" width="595.3" height="841.9"/>
    </clipPath>
    <clipPath id="clippath-34">
      <rect class="st0" x="199.3" y="91.6" width="36.7" height="11.6"/>
    </clipPath>
    <clipPath id="clippath-35">
      <rect class="st0" x="29.8" y="-270.8" width="595.3" height="841.9"/>
    </clipPath>
    <clipPath id="clippath-36">
      <rect class="st0" x="139" y="46.4" width="11.6" height="35.4" transform="translate(-2.9 121.1) rotate(-45)"/>
    </clipPath>
    <clipPath id="clippath-37">
      <rect class="st0" x="29.8" y="-270.8" width="595.3" height="841.9"/>
    </clipPath>
    <clipPath id="clippath-38">
      <rect class="st0" x="402.6" y="67.6" width="66.9" height="59.6"/>
    </clipPath>
    <clipPath id="clippath-39">
      <rect class="st0" x="403.6" y="68.6" width="64.9" height="57.6"/>
    </clipPath>
    <clipPath id="clippath-40">
      <rect class="st0" x="330.7" y="2.8" width="66.9" height="59.6"/>
    </clipPath>
    <clipPath id="clippath-41">
      <rect class="st0" x="346.8" y="21.1" width="33" height="21"/>
    </clipPath>
    <clipPath id="clippath-42">
      <rect class="st0" x="331.7" y="3.8" width="64.9" height="57.6"/>
    </clipPath>
    <clipPath id="clippath-43">
      <rect class="st0" x="402.6" y="2.8" width="66.9" height="59.6"/>
    </clipPath>
    <clipPath id="clippath-44">
      <rect class="st0" x="424.8" y="21.1" width="20" height="20"/>
    </clipPath>
    <clipPath id="clippath-45">
      <rect class="st0" x="403.6" y="3.8" width="64.9" height="57.6"/>
    </clipPath>
    <clipPath id="clippath-46">
      <rect class="st0" x="474.6" y="2.8" width="66.9" height="59.6"/>
    </clipPath>
    <clipPath id="clippath-47">
      <rect class="st0" x="490.8" y="21.1" width="32" height="21"/>
    </clipPath>
    <clipPath id="clippath-48">
      <rect class="st0" x="475.6" y="3.8" width="64.9" height="57.6"/>
    </clipPath>
    <clipPath id="clippath-49">
      <rect class="st0" x="474.6" y="67.6" width="66.9" height="59.6"/>
    </clipPath>
    <clipPath id="clippath-50">
      <rect class="st0" x="496.8" y="85.1" width="20" height="21"/>
    </clipPath>
    <clipPath id="clippath-51">
      <rect class="st0" x="475.6" y="68.6" width="64.9" height="57.6"/>
    </clipPath>
    <clipPath id="clippath-52">
      <rect class="st0" x="330.7" y="67.6" width="66.9" height="59.6"/>
    </clipPath>
    <clipPath id="clippath-53">
      <rect class="st0" x="352.8" y="85.1" width="21" height="21"/>
    </clipPath>
    <clipPath id="clippath-54">
      <rect class="st0" x="331.7" y="68.6" width="64.9" height="57.6"/>
    </clipPath>
    <clipPath id="clippath-55">
      <rect class="st0" x="330.7" y="132.4" width="66.9" height="59.6"/>
    </clipPath>
    <clipPath id="clippath-56">
      <rect class="st0" x="346.8" y="151.1" width="33" height="20"/>
    </clipPath>
    <clipPath id="clippath-57">
      <rect class="st0" x="331.7" y="133.4" width="64.9" height="57.6"/>
    </clipPath>
    <clipPath id="clippath-58">
      <rect class="st0" x="402.6" y="132.4" width="66.9" height="59.6"/>
    </clipPath>
    <clipPath id="clippath-59">
      <rect class="st0" x="424.8" y="150.1" width="20" height="21"/>
    </clipPath>
    <clipPath id="clippath-60">
      <rect class="st0" x="403.6" y="133.4" width="64.9" height="57.6"/>
    </clipPath>
    <clipPath id="clippath-61">
      <rect class="st0" x="473.5" y="132.4" width="66.9" height="59.6"/>
    </clipPath>
    <clipPath id="clippath-62">
      <rect class="st0" x="488.8" y="151.1" width="33" height="20"/>
    </clipPath>
    <clipPath id="clippath-63">
      <rect class="st0" x="474.5" y="133.4" width="64.9" height="57.6"/>
    </clipPath>
    <clipPath id="clippath-64">
      <rect class="st0" x="430.3" y="109.7" width="11.6" height="32.9"/>
    </clipPath>
    <clipPath id="clippath-65">
      <rect class="st0" x="29.8" y="-270.8" width="595.3" height="841.9"/>
    </clipPath>
    <clipPath id="clippath-66">
      <rect class="st0" x="450.9" y="61.3" width="35.4" height="11.6" transform="translate(89.8 351) rotate(-45)"/>
    </clipPath>
    <clipPath id="clippath-67">
      <rect class="st0" x="29.8" y="-270.8" width="595.3" height="841.9"/>
    </clipPath>
    <clipPath id="clippath-68">
      <rect class="st0" x="77.6" y="202.3" width="226.8" height="25"/>
    </clipPath>
    <clipPath id="clippath-69">
      <rect class="st0" x="327.5" y="202.3" width="226.8" height="25"/>
    </clipPath>
  </defs>
  <g class="st86">
    <path class="st85" d="M172.7,68.6h19.1c6.7,0,10.8,0,13.5,1.1,3.9,1.4,6.9,4.5,8.3,8.3,1.1,2.7,1.1,6.7,1.1,13.5v11.7c0,6.7,0,10.8-1.1,13.5-1.4,3.9-4.5,6.9-8.3,8.3-2.7,1.1-6.7,1.1-13.5,1.1h-19.1c-6.7,0-10.8,0-13.5-1.1-3.9-1.4-6.9-4.5-8.3-8.3-1.1-2.7-1.1-6.7-1.1-13.5v-11.7c0-6.7,0-10.8,1.1-13.5,1.4-3.9,4.5-6.9,8.3-8.3,2.7-1.1,6.7-1.1,13.5-1.1Z"/>
  </g>
  <g class="st76">
    <g>
      <path d="M169.9,98.9c-1.2,0-1.6,0-1.7,0-.1,0-.1,0-.1-.1v-1c0-.1,0-.1.1-.1s.5,0,1.7,0h1.5v-2.1h-2.3c-1.2,0-1.5,0-1.6,0-.1,0-.1,0-.1-.1v-1c0-.1,0-.1.1-.1s.5,0,1.6,0h6c1.2,0,1.5,0,1.6,0,.1,0,.1,0,.1.1v1c0,.1,0,.1-.1.1s-.5,0-1.6,0h-2.4v2.1h1.7c1.2,0,1.6,0,1.7,0,.1,0,.1,0,.1.1v1c0,.1,0,.1-.1.1s-.5,0-1.7,0h-1.7v2.4h3.1c1.1,0,1.4,0,1.5,0,.1,0,.1,0,.1.1v1c0,.1,0,.1-.1.1s-.4,0-1.5,0h-7.4c-1.1,0-1.4,0-1.5,0-.1,0-.1,0-.1-.1v-1c0-.1,0-.1.1-.1s.4,0,1.5,0h2.9v-2.4h-1.5ZM171,92c.1-.1.1-.1.2,0,.8.3,1.7.7,2.6,1.3,0,0,0,0,0,0s0,0,0,.1l-.7.8c-.1.1-.1.1-.3,0-.8-.6-1.6-1.1-2.5-1.4,0,0,0,0,0,0s0,0,0-.1l.7-.7Z"/>
      <path d="M183.6,95.7c-1.2,0-1.6,0-1.6,0-.1,0-.1,0-.1-.1v-.9c0-.1,0-.1.1-.1s.5,0,1.6,0h1.2v-.8c0-.8,0-1.2,0-1.7.4,0,.9,0,1.3,0,.1,0,.2,0,.2.1,0,0,0,.2,0,.3,0,.1,0,.4,0,1.2v.8h1.7c1.2,0,1.6,0,1.7,0s.1,0,.1.1v.9c0,.1,0,.1-.1.1s-.5,0-1.7,0h-1.2c.8,1.6,1.7,2.7,3.3,4.1-.3.3-.4.5-.6.8s-.1.3-.2.3-.1,0-.3-.2c-1.4-1.4-2.1-2.5-2.8-4,0,1.1,0,2.1,0,3.1h.3c.9,0,1.2,0,1.3,0,.1,0,.1,0,.1.1v.9c0,.1,0,.1-.1.1s-.4,0-1.3,0h-.3c0,1.1,0,1.9,0,2.1s0,.1-.1.1h-1c-.1,0-.1,0-.1-.1s0-.9,0-2.1h-.2c-.9,0-1.2,0-1.3,0-.1,0-.1,0-.1-.1v-.9c0-.1,0-.1.1-.1s.4,0,1.3,0h.2c0-.9,0-2,0-3.1-.7,1.6-1.5,2.9-2.7,4-.1.1-.2.2-.3.2s-.1,0-.2-.2c-.2-.3-.4-.5-.5-.7v1.2c0,1.2,0,1.8,0,1.8,0,.1,0,.1-.1.1h-1c-.1,0-.1,0-.1-.1s0-.6,0-1.8v-2.7c0-.4,0-.9,0-1.4-.2.3-.5.6-.7.9,0,0-.2.2-.2.2s0,0-.1-.2c0-.4-.3-.8-.4-1,1-1.1,1.8-2.5,2.3-3.9,0-.3.2-.6.2-.9.4.1.8.2,1.2.4.1,0,.2,0,.2.2s0,.1-.1.2c0,0-.1.2-.2.5-.2.6-.5,1.2-.8,1.8v4.9c1.3-1.1,2.4-2.4,3.1-4.2h-.7Z"/>
      <path d="M198.1,102.1h-1.7l-.8-2.7h-2.9l-.8,2.7h-1.5l2.9-9.3h2l2.9,9.3ZM194.8,96.3c-.2-.7-.3-1.4-.6-2.3h-.1c-.2.9-.4,1.6-.6,2.3l-.5,1.9h2.3l-.5-1.9Z"/>
    </g>
  </g>
  <g class="st79">
    <path class="st15" d="M100.7,3.8h19.1c6.7,0,10.8,0,13.5,1.1,3.9,1.4,6.9,4.5,8.3,8.3,1.1,2.7,1.1,6.7,1.1,13.5v11.7c0,6.7,0,10.8-1.1,13.5-1.4,3.9-4.5,6.9-8.3,8.3-2.7,1.1-6.7,1.1-13.5,1.1h-19.1c-6.7,0-10.8,0-13.5-1.1-3.9-1.4-6.9-4.5-8.3-8.3-1.1-2.7-1.1-6.7-1.1-13.5v-11.7c0-6.7,0-10.8,1.1-13.5,1.4-3.9,4.5-6.9,8.3-8.3,2.7-1.1,6.7-1.1,13.5-1.1Z"/>
  </g>
  <g class="st8">
    <g class="st77">
      <g class="st78">
        <g>
          <path d="M100.9,30.4c-1.1,0-1.5,0-1.5,0-.1,0-.1,0-.1-.1v-1c0-.1,0-.1.1-.1s.4,0,1.5,0h1.6c0-.2,0-.5.1-.7,0-.4,0-.8,0-1.2.5,0,1,.1,1.3.2.1,0,.2,0,.2.2s0,.1,0,.2c0,.1-.1.4-.2.7v.6c0,0,3.9,0,3.9,0,1.1,0,1.5,0,1.5,0,.1,0,.1,0,.1.1v1c0,.1,0,.1-.1.1s-.4,0-1.5,0h-4.3c-.2.7-.4,1.4-.6,2.1h4c1.1,0,1.5,0,1.6,0,.1,0,.1,0,.1.1v.9c0,.1,0,.1-.1.1s-.5,0-1.6,0h-1v2.8h1.8c1.2,0,1.6,0,1.7,0,.1,0,.1,0,.1.1v1c0,.1,0,.1-.1.1s-.5,0-1.7,0h-4.9c-1.2,0-1.6,0-1.7,0-.1,0-.1,0-.1-.1v-1c0-.1,0-.1.1-.1s.5,0,1.7,0h1.8v-2.8h-2.2c-.6,1.2-1.4,2.4-2.5,3.4-.1.1-.2.2-.3.2s-.1,0-.2-.3c-.2-.3-.4-.6-.7-.8,1.8-1.4,2.9-3.5,3.5-5.9h-1.3Z"/>
          <path d="M112.7,37.6c-1.1,0-1.5,0-1.5,0-.1,0-.1,0-.1-.1v-1.1c0-.1,0-.1.1-.1s.4,0,1.5,0h2.5v-6.8c0-1,0-1.5,0-2,.5,0,1,0,1.4,0,.1,0,.2,0,.2.2s0,.2,0,.3c0,.1,0,.4,0,1.2v1.9h2.4c1,0,1.4,0,1.5,0,.1,0,.1,0,.1.1v1.1c0,.1,0,.1-.1.1s-.4,0-1.5,0h-2.4v3.9h3.3c1.1,0,1.5,0,1.5,0,.1,0,.1,0,.1.1v1.1c0,.1,0,.1-.1.1s-.4,0-1.5,0h-7.2Z"/>
        </g>
      </g>
    </g>
  </g>
  <g class="st84">
    <path class="st11" d="M172.7,3.8h19.1c6.7,0,10.8,0,13.5,1.1,3.9,1.4,6.9,4.5,8.3,8.3,1.1,2.7,1.1,6.7,1.1,13.5v11.7c0,6.7,0,10.8-1.1,13.5-1.4,3.9-4.5,6.9-8.3,8.3-2.7,1.1-6.7,1.1-13.5,1.1h-19.1c-6.7,0-10.8,0-13.5-1.1-3.9-1.4-6.9-4.5-8.3-8.3-1.1-2.7-1.1-6.7-1.1-13.5v-11.7c0-6.7,0-10.8,1.1-13.5,1.4-3.9,4.5-6.9,8.3-8.3,2.7-1.1,6.7-1.1,13.5-1.1Z"/>
  </g>
  <g class="st4">
    <g class="st81">
      <g class="st80">
        <path d="M178.7,37.2c-1.1,0-1.5,0-1.5,0-.1,0-.1,0-.1-.1v-1.1c0-.1,0-.1.1-.1s.4,0,1.5,0h2.5v-6.8c0-1,0-1.5,0-2,.5,0,1,0,1.4,0,.1,0,.2,0,.2.2s0,.2,0,.3c0,.1,0,.4,0,1.2v1.9h2.4c1,0,1.4,0,1.5,0,.1,0,.1,0,.1.1v1.1c0,.1,0,.1-.1.1s-.4,0-1.5,0h-2.4v3.9h3.3c1.1,0,1.5,0,1.5,0,.1,0,.1,0,.1.1v1.1c0,.1,0,.1-.1.1s-.4,0-1.5,0h-7.2Z"/>
      </g>
    </g>
  </g>
  <g class="st83">
    <path class="st15" d="M244.6,3.8h19.1c6.7,0,10.8,0,13.5,1.1,3.9,1.4,6.9,4.5,8.3,8.3,1.1,2.7,1.1,6.7,1.1,13.5v11.7c0,6.7,0,10.8-1.1,13.5-1.4,3.9-4.5,6.9-8.3,8.3-2.7,1.1-6.7,1.1-13.5,1.1h-19.1c-6.7,0-10.8,0-13.5-1.1-3.9-1.4-6.9-4.5-8.3-8.3-1.1-2.7-1.1-6.7-1.1-13.5v-11.7c0-6.7,0-10.8,1.1-13.5,1.4-3.9,4.5-6.9,8.3-8.3,2.7-1.1,6.7-1.1,13.5-1.1Z"/>
  </g>
  <g class="st8">
    <g class="st82">
      <g class="st21">
        <g>
          <path d="M244.6,30.6c-1.1,0-1.4,0-1.5,0-.1,0-.1,0-.1-.1v-1c0-.1,0-.1.1-.1s.4,0,1.5,0h2c0-.2.1-.4.2-.6.2-.7.2-1.1.3-1.6.4,0,.9.1,1.3.3.1,0,.2,0,.2.2s0,.2-.1.3c0,.1-.2.3-.3.8,0,.2-.1.4-.2.7h3.9c1.1,0,1.4,0,1.5,0,.1,0,.1,0,.1.1v1c0,.1,0,.1-.1.1s-.4,0-1.5,0h-4.2c-.3.8-.7,1.5-1.1,2.2h4.1c1.1,0,1.5,0,1.6,0s.1,0,.1.1,0,.4,0,1.4v1.3c0,1.9,0,2.2,0,2.3,0,.1,0,.1-.1.1h-1.1c-.1,0-.1,0-.1-.1v-.6h-4.3v.6c0,.1,0,.1-.1.1h-1c-.1,0-.1,0-.1-.1s0-.4,0-2.3v-1.5c-.4.5-.9.9-1.5,1.4-.1.1-.2.2-.3.2s-.1,0-.2-.3c-.2-.3-.5-.6-.7-.8,1.6-1.1,2.8-2.4,3.5-4.1h-1.6ZM246.7,36.3h4.3v-2.3h-4.3v2.3Z"/>
          <path d="M256.6,37.6c-1.1,0-1.5,0-1.5,0-.1,0-.1,0-.1-.1v-1.1c0-.1,0-.1.1-.1s.4,0,1.5,0h2.5v-6.8c0-1,0-1.5,0-2,.5,0,1,0,1.4,0,.1,0,.2,0,.2.2s0,.2,0,.3c0,.1,0,.4,0,1.2v1.9h2.4c1,0,1.4,0,1.5,0,.1,0,.1,0,.1.1v1.1c0,.1,0,.1-.1.1s-.4,0-1.5,0h-2.4v3.9h3.3c1.1,0,1.5,0,1.5,0,.1,0,.1,0,.1.1v1.1c0,.1,0,.1-.1.1s-.4,0-1.5,0h-7.2Z"/>
        </g>
      </g>
    </g>
  </g>
  <g class="st18">
    <path class="st15" d="M244.6,68.6h19.1c6.7,0,10.8,0,13.5,1.1,3.9,1.4,6.9,4.5,8.3,8.3,1.1,2.7,1.1,6.7,1.1,13.5v11.7c0,6.7,0,10.8-1.1,13.5-1.4,3.9-4.5,6.9-8.3,8.3-2.7,1.1-6.7,1.1-13.5,1.1h-19.1c-6.7,0-10.8,0-13.5-1.1-3.9-1.4-6.9-4.5-8.3-8.3-1.1-2.7-1.1-6.7-1.1-13.5v-11.7c0-6.7,0-10.8,1.1-13.5,1.4-3.9,4.5-6.9,8.3-8.3,2.7-1.1,6.7-1.1,13.5-1.1Z"/>
  </g>
  <g class="st8">
    <g class="st25">
      <g class="st23">
        <path d="M250.6,95.1c-1.1,0-1.4,0-1.5,0-.1,0-.1,0-.1-.1v-1c0-.1,0-.1.1-.1s.4,0,1.5,0h2c0-.2.1-.4.2-.6.2-.7.2-1.1.3-1.6.4,0,.9.1,1.3.3.1,0,.2,0,.2.2s0,.2-.1.3c0,.1-.2.3-.3.8,0,.2-.1.4-.2.7h3.9c1.1,0,1.4,0,1.5,0,.1,0,.1,0,.1.1v1c0,.1,0,.1-.1.1s-.4,0-1.5,0h-4.2c-.3.8-.7,1.5-1.1,2.2h4.1c1.1,0,1.5,0,1.6,0s.1,0,.1.1,0,.4,0,1.4v1.3c0,1.9,0,2.2,0,2.3,0,.1,0,.1-.1.1h-1.1c-.1,0-.1,0-.1-.1v-.6h-4.3v.6c0,.1,0,.1-.1.1h-1c-.1,0-.1,0-.1-.1s0-.4,0-2.3v-1.5c-.4.5-.9.9-1.5,1.4-.1.1-.2.2-.3.2s-.1,0-.2-.3c-.2-.3-.5-.6-.7-.8,1.6-1.1,2.8-2.4,3.5-4.1h-1.6ZM252.7,100.7h4.3v-2.3h-4.3v2.3Z"/>
      </g>
    </g>
  </g>
  <g class="st24">
    <path class="st15" d="M100.7,68.6h19.1c6.7,0,10.8,0,13.5,1.1,3.9,1.4,6.9,4.5,8.3,8.3,1.1,2.7,1.1,6.7,1.1,13.5v11.7c0,6.7,0,10.8-1.1,13.5-1.4,3.9-4.5,6.9-8.3,8.3-2.7,1.1-6.7,1.1-13.5,1.1h-19.1c-6.7,0-10.8,0-13.5-1.1-3.9-1.4-6.9-4.5-8.3-8.3-1.1-2.7-1.1-6.7-1.1-13.5v-11.7c0-6.7,0-10.8,1.1-13.5,1.4-3.9,4.5-6.9,8.3-8.3,2.7-1.1,6.7-1.1,13.5-1.1Z"/>
  </g>
  <g class="st8">
    <g class="st22">
      <g class="st19">
        <path d="M106.9,94.9c-1.1,0-1.5,0-1.5,0-.1,0-.1,0-.1-.1v-1c0-.1,0-.1.1-.1s.4,0,1.5,0h1.6c0-.2,0-.5.1-.7,0-.4,0-.8,0-1.2.5,0,1,.1,1.3.2.1,0,.2,0,.2.2s0,.1,0,.2c0,.1-.1.4-.2.7v.6c0,0,3.9,0,3.9,0,1.1,0,1.5,0,1.5,0,.1,0,.1,0,.1.1v1c0,.1,0,.1-.1.1s-.4,0-1.5,0h-4.3c-.2.7-.4,1.4-.6,2.1h4c1.1,0,1.5,0,1.6,0,.1,0,.1,0,.1.1v.9c0,.1,0,.1-.1.1s-.5,0-1.6,0h-1v2.8h1.8c1.2,0,1.6,0,1.7,0,.1,0,.1,0,.1.1v1c0,.1,0,.1-.1.1s-.5,0-1.7,0h-4.9c-1.2,0-1.6,0-1.7,0-.1,0-.1,0-.1-.1v-1c0-.1,0-.1.1-.1s.5,0,1.7,0h1.8v-2.8h-2.2c-.6,1.2-1.4,2.4-2.5,3.4-.1.1-.2.2-.3.2s-.1,0-.2-.3c-.2-.3-.4-.6-.7-.8,1.8-1.4,2.9-3.5,3.5-5.9h-1.3Z"/>
      </g>
    </g>
  </g>
  <g class="st16">
    <path class="st15" d="M100.7,133.4h19.1c6.7,0,10.8,0,13.5,1.1,3.9,1.4,6.9,4.5,8.3,8.3,1.1,2.7,1.1,6.7,1.1,13.5v11.7c0,6.7,0,10.8-1.1,13.5-1.4,3.9-4.5,6.9-8.3,8.3-2.7,1.1-6.7,1.1-13.5,1.1h-19.1c-6.7,0-10.8,0-13.5-1.1-3.9-1.4-6.9-4.5-8.3-8.3-1.1-2.7-1.1-6.7-1.1-13.5v-11.7c0-6.7,0-10.8,1.1-13.5,1.4-3.9,4.5-6.9,8.3-8.3,2.7-1.1,6.7-1.1,13.5-1.1Z"/>
  </g>
  <g class="st8">
    <g class="st20">
      <g class="st17">
        <g>
          <path d="M100.9,160c-1.1,0-1.5,0-1.5,0-.1,0-.1,0-.1-.1v-1c0-.1,0-.1.1-.1s.4,0,1.5,0h1.6c0-.2,0-.5.1-.7,0-.4,0-.8,0-1.2.5,0,1,.1,1.3.2.1,0,.2,0,.2.2s0,.1,0,.2c0,.1-.1.4-.2.7v.6c0,0,3.9,0,3.9,0,1.1,0,1.5,0,1.5,0,.1,0,.1,0,.1.1v1c0,.1,0,.1-.1.1s-.4,0-1.5,0h-4.3c-.2.7-.4,1.4-.6,2.1h4c1.1,0,1.5,0,1.6,0,.1,0,.1,0,.1.1v.9c0,.1,0,.1-.1.1s-.5,0-1.6,0h-1v2.8h1.8c1.2,0,1.6,0,1.7,0,.1,0,.1,0,.1.1v1c0,.1,0,.1-.1.1s-.5,0-1.7,0h-4.9c-1.2,0-1.6,0-1.7,0-.1,0-.1,0-.1-.1v-1c0-.1,0-.1.1-.1s.5,0,1.7,0h1.8v-2.8h-2.2c-.6,1.2-1.4,2.4-2.5,3.4-.1.1-.2.2-.3.2s-.1,0-.2-.3c-.2-.3-.4-.6-.7-.8,1.8-1.4,2.9-3.5,3.5-5.9h-1.3Z"/>
          <path d="M112.6,158.9c-1.1,0-1.4,0-1.5,0-.1,0-.1,0-.1-.1v-1c0-.1,0-.1.1-.1s.4,0,1.5,0h7.3c1.1,0,1.4,0,1.5,0,.1,0,.1,0,.1.1v1c0,.1,0,.1-.1.1s-.4,0-1.5,0h-3.2v1.6c1.1.5,2.5,1.1,3.7,1.9,0,0,0,0,0,.1s0,0,0,.1l-.6.8c0,.1-.1.2-.2,0-1-.7-2-1.3-3-1.8v4.2c0,1.1,0,1.6,0,1.6,0,.1,0,.1-.1.1h-1.1c-.1,0-.1,0-.1-.1s0-.6,0-1.6v-7.1h-2.7Z"/>
        </g>
      </g>
    </g>
  </g>
  <g class="st59">
    <path class="st15" d="M172.7,133.4h19.1c6.7,0,10.8,0,13.5,1.1,3.9,1.4,6.9,4.5,8.3,8.3,1.1,2.7,1.1,6.7,1.1,13.5v11.7c0,6.7,0,10.8-1.1,13.5-1.4,3.9-4.5,6.9-8.3,8.3-2.7,1.1-6.7,1.1-13.5,1.1h-19.1c-6.7,0-10.8,0-13.5-1.1-3.9-1.4-6.9-4.5-8.3-8.3-1.1-2.7-1.1-6.7-1.1-13.5v-11.7c0-6.7,0-10.8,1.1-13.5,1.4-3.9,4.5-6.9,8.3-8.3,2.7-1.1,6.7-1.1,13.5-1.1Z"/>
  </g>
  <g class="st8">
    <g class="st60">
      <g class="st61">
        <path d="M178.6,158.6c-1.1,0-1.4,0-1.5,0-.1,0-.1,0-.1-.1v-1c0-.1,0-.1.1-.1s.4,0,1.5,0h7.3c1.1,0,1.4,0,1.5,0,.1,0,.1,0,.1.1v1c0,.1,0,.1-.1.1s-.4,0-1.5,0h-3.2v1.6c1.1.5,2.5,1.1,3.7,1.9,0,0,0,0,0,.1s0,0,0,.1l-.6.8c0,.1-.1.2-.2,0-1-.7-2-1.3-3-1.8v4.2c0,1.1,0,1.6,0,1.6,0,.1,0,.1-.1.1h-1.1c-.1,0-.1,0-.1-.1s0-.6,0-1.6v-7.1h-2.7Z"/>
      </g>
    </g>
  </g>
  <g class="st62">
    <path class="st14" d="M243.5,133.4h19.1c6.7,0,10.8,0,13.5,1.1,3.9,1.4,6.9,4.5,8.3,8.3,1.1,2.7,1.1,6.7,1.1,13.5v11.7c0,6.7,0,10.8-1.1,13.5-1.4,3.9-4.5,6.9-8.3,8.3-2.7,1.1-6.7,1.1-13.5,1.1h-19.1c-6.7,0-10.8,0-13.5-1.1-3.9-1.4-6.9-4.5-8.3-8.3-1.1-2.7-1.1-6.7-1.1-13.5v-11.7c0-6.7,0-10.8,1.1-13.5,1.4-3.9,4.5-6.9,8.3-8.3,2.7-1.1,6.7-1.1,13.5-1.1Z"/>
  </g>
  <g class="st7">
    <g class="st63">
      <g class="st64">
        <g>
          <path d="M243.5,160.2c-1.1,0-1.4,0-1.5,0-.1,0-.1,0-.1-.1v-1c0-.1,0-.1.1-.1s.4,0,1.5,0h2c0-.2.1-.4.2-.6.2-.7.2-1.1.3-1.6.4,0,.9.1,1.3.3.1,0,.2,0,.2.2s0,.2-.1.3c0,.1-.2.3-.3.8,0,.2-.1.4-.2.7h3.9c1.1,0,1.4,0,1.5,0,.1,0,.1,0,.1.1v1c0,.1,0,.1-.1.1s-.4,0-1.5,0h-4.2c-.3.8-.7,1.5-1.1,2.2h4.1c1.1,0,1.5,0,1.6,0s.1,0,.1.1,0,.4,0,1.4v1.3c0,1.9,0,2.2,0,2.3,0,.1,0,.1-.1.1h-1.1c-.1,0-.1,0-.1-.1v-.6h-4.3v.6c0,.1,0,.1-.1.1h-1c-.1,0-.1,0-.1-.1s0-.4,0-2.3v-1.5c-.4.5-.9.9-1.5,1.4-.1.1-.2.2-.3.2s-.1,0-.2-.3c-.2-.3-.5-.6-.7-.8,1.6-1.1,2.8-2.4,3.5-4.1h-1.6ZM245.6,165.9h4.3v-2.3h-4.3v2.3Z"/>
          <path d="M255.4,158.9c-1.1,0-1.4,0-1.5,0-.1,0-.1,0-.1-.1v-1c0-.1,0-.1.1-.1s.4,0,1.5,0h7.3c1.1,0,1.4,0,1.5,0,.1,0,.1,0,.1.1v1c0,.1,0,.1-.1.1s-.4,0-1.5,0h-3.2v1.6c1.1.5,2.5,1.1,3.7,1.9,0,0,0,0,0,.1s0,0,0,.1l-.6.8c0,.1-.1.2-.2,0-1-.7-2-1.3-3-1.8v4.2c0,1.1,0,1.6,0,1.6,0,.1,0,.1-.1.1h-1.1c-.1,0-.1,0-.1-.1s0-.6,0-1.6v-7.1h-2.7Z"/>
        </g>
      </g>
    </g>
  </g>
  <g class="st57">
    <g class="st55">
      <polyline class="st1" points="182.2 133 182.2 132 182.2 120.3 182.2 119.3"/>
      <polygon points="187 120.3 182.2 110.7 177.4 120.3 187 120.3"/>
      <polygon points="177.4 132 182.2 141.6 187 132 177.4 132"/>
    </g>
  </g>
  <g class="st58">
    <g class="st56">
      <polyline class="st1" points="137 135.5 137.7 134.8 147.8 124.8 148.5 124.1"/>
      <polygon points="151.2 128.2 154.6 118 144.4 121.4 151.2 128.2"/>
      <polygon points="134.3 131.4 130.9 141.6 141.1 138.2 134.3 131.4"/>
    </g>
  </g>
  <g class="st51">
    <g class="st45">
      <polyline class="st1" points="151.5 97.4 150.5 97.4 135 97.4 134 97.4"/>
      <polygon points="135 92.6 125.4 97.4 135 102.2 135 92.6"/>
      <polygon points="150.5 102.2 160.1 97.4 150.5 92.6 150.5 102.2"/>
    </g>
  </g>
  <g class="st46">
    <g class="st47">
      <polyline class="st1" points="209 72.8 209.7 72.1 219.7 62.1 220.4 61.3"/>
      <polygon points="223.1 65.5 226.5 55.3 216.3 58.7 223.1 65.5"/>
      <polygon points="206.3 68.7 202.9 78.9 213.1 75.5 206.3 68.7"/>
    </g>
  </g>
  <g class="st48">
    <g class="st49">
      <polyline class="st1" points="226.4 97.4 225.4 97.4 209.9 97.4 208.9 97.4"/>
      <polygon points="209.9 92.6 200.3 97.4 209.9 102.2 209.9 92.6"/>
      <polygon points="225.4 102.2 235 97.4 225.4 92.6 225.4 102.2"/>
    </g>
  </g>
  <g class="st52">
    <g class="st53">
      <polyline class="st1" points="139 58.3 139.7 59.1 149.8 69.1 150.5 69.8"/>
      <polygon points="146.4 72.5 156.6 75.9 153.2 65.7 146.4 72.5"/>
      <polygon points="143.1 55.7 132.9 52.3 136.3 62.5 143.1 55.7"/>
    </g>
  </g>
  <g class="st54">
    <path class="st85" d="M426.6,68.6h19.1c6.7,0,10.8,0,13.5,1.1,3.9,1.4,6.9,4.5,8.3,8.3,1.1,2.7,1.1,6.7,1.1,13.5v11.7c0,6.7,0,10.8-1.1,13.5-1.4,3.9-4.5,6.9-8.3,8.3-2.7,1.1-6.7,1.1-13.5,1.1h-19.1c-6.7,0-10.8,0-13.5-1.1-3.9-1.4-6.9-4.5-8.3-8.3-1.1-2.7-1.1-6.7-1.1-13.5v-11.7c0-6.7,0-10.8,1.1-13.5,1.4-3.9,4.5-6.9,8.3-8.3,2.7-1.1,6.7-1.1,13.5-1.1Z"/>
  </g>
  <g class="st50">
    <g>
      <path d="M423.6,98.9c-1.2,0-1.6,0-1.7,0-.1,0-.1,0-.1-.1v-1c0-.1,0-.1.1-.1s.5,0,1.7,0h1.5v-2.1h-2.3c-1.2,0-1.5,0-1.6,0-.1,0-.1,0-.1-.1v-1c0-.1,0-.1.1-.1s.5,0,1.6,0h6c1.2,0,1.5,0,1.6,0,.1,0,.1,0,.1.1v1c0,.1,0,.1-.1.1s-.5,0-1.6,0h-2.4v2.1h1.7c1.2,0,1.6,0,1.7,0,.1,0,.1,0,.1.1v1c0,.1,0,.1-.1.1s-.5,0-1.7,0h-1.7v2.4h3.1c1.1,0,1.4,0,1.5,0,.1,0,.1,0,.1.1v1c0,.1,0,.1-.1.1s-.4,0-1.5,0h-7.4c-1.1,0-1.4,0-1.5,0-.1,0-.1,0-.1-.1v-1c0-.1,0-.1.1-.1s.4,0,1.5,0h2.9v-2.4h-1.5ZM424.7,92c.1-.1.1-.1.2,0,.8.3,1.7.7,2.6,1.3,0,0,0,0,0,0s0,0,0,.1l-.7.8c-.1.1-.1.1-.3,0-.8-.6-1.6-1.1-2.5-1.4,0,0,0,0,0,0s0,0,0-.1l.7-.7Z"/>
      <path d="M437.3,95.7c-1.2,0-1.6,0-1.6,0-.1,0-.1,0-.1-.1v-.9c0-.1,0-.1.1-.1s.5,0,1.6,0h1.2v-.8c0-.8,0-1.2,0-1.7.4,0,.9,0,1.3,0,.1,0,.2,0,.2.1,0,0,0,.2,0,.3,0,.1,0,.4,0,1.2v.8h1.7c1.2,0,1.6,0,1.7,0s.1,0,.1.1v.9c0,.1,0,.1-.1.1s-.5,0-1.7,0h-1.2c.8,1.6,1.7,2.7,3.3,4.1-.3.3-.4.5-.6.8,0,.2-.1.3-.2.3s-.1,0-.3-.2c-1.4-1.4-2.1-2.5-2.8-4,0,1.1,0,2.1,0,3.1h.3c.9,0,1.2,0,1.3,0,.1,0,.1,0,.1.1v.9c0,.1,0,.1-.1.1s-.4,0-1.3,0h-.3c0,1.1,0,1.9,0,2.1s0,.1-.1.1h-1c-.1,0-.1,0-.1-.1s0-.9,0-2.1h-.2c-.9,0-1.2,0-1.3,0-.1,0-.1,0-.1-.1v-.9c0-.1,0-.1.1-.1s.4,0,1.3,0h.2c0-.9,0-2,0-3.1-.7,1.6-1.5,2.9-2.7,4-.1.1-.2.2-.3.2s-.1,0-.2-.2c-.2-.3-.4-.5-.5-.7v1.2c0,1.2,0,1.8,0,1.8,0,.1,0,.1-.1.1h-1c-.1,0-.1,0-.1-.1s0-.6,0-1.8v-2.7c0-.4,0-.9,0-1.4-.2.3-.5.6-.7.9,0,0-.2.2-.2.2s0,0-.1-.2c0-.4-.3-.8-.4-1,1-1.1,1.8-2.5,2.3-3.9,0-.3.2-.6.2-.9.4.1.8.2,1.2.4.1,0,.2,0,.2.2s0,.1-.1.2c0,0-.1.2-.2.5-.2.6-.5,1.2-.8,1.8v4.9c1.3-1.1,2.4-2.4,3.1-4.2h-.7Z"/>
      <path d="M448.3,92.8c2.3,0,3.2.9,3.2,2.3s-.7,1.8-1.8,2h0c1.4.3,2.1,1.1,2.1,2.3s-1.2,2.6-3.3,2.6h-3.5v-9.3h3.3ZM446.5,96.6h1.4c1.3,0,1.9-.5,1.9-1.4s-.5-1.3-1.8-1.3h-1.6v2.6ZM446.5,100.9h1.7c1.2,0,1.8-.6,1.8-1.5s-.8-1.5-2.1-1.5h-1.5v3.1Z"/>
    </g>
  </g>
  <g class="st72">
    <path class="st10" d="M354.6,3.8h19.1c6.7,0,10.8,0,13.5,1.1,3.9,1.4,6.9,4.5,8.3,8.3,1.1,2.7,1.1,6.7,1.1,13.5v11.7c0,6.7,0,10.8-1.1,13.5-1.4,3.9-4.5,6.9-8.3,8.3-2.7,1.1-6.7,1.1-13.5,1.1h-19.1c-6.7,0-10.8,0-13.5-1.1-3.9-1.4-6.9-4.5-8.3-8.3-1.1-2.7-1.1-6.7-1.1-13.5v-11.7c0-6.7,0-10.8,1.1-13.5,1.4-3.9,4.5-6.9,8.3-8.3,2.7-1.1,6.7-1.1,13.5-1.1Z"/>
  </g>
  <g class="st3">
    <g class="st66">
      <g class="st67">
        <g>
          <path d="M354.7,30.4c-1.1,0-1.5,0-1.5,0-.1,0-.1,0-.1-.1v-1c0-.1,0-.1.1-.1s.4,0,1.5,0h1.6c0-.2,0-.5.1-.7,0-.4,0-.8,0-1.2.5,0,1,.1,1.3.2.1,0,.2,0,.2.2s0,.1,0,.2c0,.1-.1.4-.2.7v.6c0,0,3.9,0,3.9,0,1.1,0,1.5,0,1.5,0,.1,0,.1,0,.1.1v1c0,.1,0,.1-.1.1s-.4,0-1.5,0h-4.3c-.2.7-.4,1.4-.6,2.1h4c1.1,0,1.5,0,1.6,0,.1,0,.1,0,.1.1v.9c0,.1,0,.1-.1.1s-.5,0-1.6,0h-1v2.8h1.8c1.2,0,1.6,0,1.7,0,.1,0,.1,0,.1.1v1c0,.1,0,.1-.1.1s-.5,0-1.7,0h-4.9c-1.2,0-1.6,0-1.7,0-.1,0-.1,0-.1-.1v-1c0-.1,0-.1.1-.1s.5,0,1.7,0h1.8v-2.8h-2.2c-.6,1.2-1.4,2.4-2.5,3.4-.1.1-.2.2-.3.2s-.1,0-.2-.3c-.2-.3-.4-.6-.7-.8,1.8-1.4,2.9-3.5,3.5-5.9h-1.3Z"/>
          <path d="M366.6,37.6c-1.1,0-1.5,0-1.5,0-.1,0-.1,0-.1-.1v-1.1c0-.1,0-.1.1-.1s.4,0,1.5,0h2.5v-6.8c0-1,0-1.5,0-2,.5,0,1,0,1.4,0,.1,0,.2,0,.2.2s0,.2,0,.3c0,.1,0,.4,0,1.2v1.9h2.4c1,0,1.4,0,1.5,0,.1,0,.1,0,.1.1v1.1c0,.1,0,.1-.1.1s-.4,0-1.5,0h-2.4v3.9h3.3c1.1,0,1.5,0,1.5,0,.1,0,.1,0,.1.1v1.1c0,.1,0,.1-.1.1s-.4,0-1.5,0h-7.2Z"/>
        </g>
      </g>
    </g>
  </g>
  <g class="st68">
    <path class="st11" d="M426.6,3.8h19.1c6.7,0,10.8,0,13.5,1.1,3.9,1.4,6.9,4.5,8.3,8.3,1.1,2.7,1.1,6.7,1.1,13.5v11.7c0,6.7,0,10.8-1.1,13.5-1.4,3.9-4.5,6.9-8.3,8.3-2.7,1.1-6.7,1.1-13.5,1.1h-19.1c-6.7,0-10.8,0-13.5-1.1-3.9-1.4-6.9-4.5-8.3-8.3-1.1-2.7-1.1-6.7-1.1-13.5v-11.7c0-6.7,0-10.8,1.1-13.5,1.4-3.9,4.5-6.9,8.3-8.3,2.7-1.1,6.7-1.1,13.5-1.1Z"/>
  </g>
  <g class="st4">
    <g class="st69">
      <g class="st70">
        <path d="M432.5,37.2c-1.1,0-1.5,0-1.5,0-.1,0-.1,0-.1-.1v-1.1c0-.1,0-.1.1-.1s.4,0,1.5,0h2.5v-6.8c0-1,0-1.5,0-2,.5,0,1,0,1.4,0,.1,0,.2,0,.2.2s0,.2,0,.3c0,.1,0,.4,0,1.2v1.9h2.4c1,0,1.4,0,1.5,0,.1,0,.1,0,.1.1v1.1c0,.1,0,.1-.1.1s-.4,0-1.5,0h-2.4v3.9h3.3c1.1,0,1.5,0,1.5,0,.1,0,.1,0,.1.1v1.1c0,.1,0,.1-.1.1s-.4,0-1.5,0h-7.2Z"/>
      </g>
    </g>
  </g>
  <g class="st73">
    <path class="st15" d="M498.5,3.8h19.1c6.7,0,10.8,0,13.5,1.1,3.9,1.4,6.9,4.5,8.3,8.3,1.1,2.7,1.1,6.7,1.1,13.5v11.7c0,6.7,0,10.8-1.1,13.5-1.4,3.9-4.5,6.9-8.3,8.3-2.7,1.1-6.7,1.1-13.5,1.1h-19.1c-6.7,0-10.8,0-13.5-1.1-3.9-1.4-6.9-4.5-8.3-8.3-1.1-2.7-1.1-6.7-1.1-13.5v-11.7c0-6.7,0-10.8,1.1-13.5,1.4-3.9,4.5-6.9,8.3-8.3,2.7-1.1,6.7-1.1,13.5-1.1Z"/>
  </g>
  <g class="st8">
    <g class="st74">
      <g class="st75">
        <g>
          <path d="M498.4,30.6c-1.1,0-1.4,0-1.5,0-.1,0-.1,0-.1-.1v-1c0-.1,0-.1.1-.1s.4,0,1.5,0h2c0-.2.1-.4.2-.6.2-.7.2-1.1.3-1.6.4,0,.9.1,1.3.3.1,0,.2,0,.2.2s0,.2-.1.3c0,.1-.2.3-.3.8,0,.2-.1.4-.2.7h3.9c1.1,0,1.4,0,1.5,0,.1,0,.1,0,.1.1v1c0,.1,0,.1-.1.1s-.4,0-1.5,0h-4.2c-.3.8-.7,1.5-1.1,2.2h4.1c1.1,0,1.5,0,1.6,0s.1,0,.1.1,0,.4,0,1.4v1.3c0,1.9,0,2.2,0,2.3,0,.1,0,.1-.1.1h-1.1c-.1,0-.1,0-.1-.1v-.6h-4.3v.6c0,.1,0,.1-.1.1h-1c-.1,0-.1,0-.1-.1s0-.4,0-2.3v-1.5c-.4.5-.9.9-1.5,1.4-.1.1-.2.2-.3.2s-.1,0-.2-.3c-.2-.3-.5-.6-.7-.8,1.6-1.1,2.8-2.4,3.5-4.1h-1.6ZM500.5,36.2h4.3v-2.3h-4.3v2.3Z"/>
          <path d="M510.5,37.6c-1.1,0-1.5,0-1.5,0-.1,0-.1,0-.1-.1v-1.1c0-.1,0-.1.1-.1s.4,0,1.5,0h2.5v-6.8c0-1,0-1.5,0-2,.5,0,1,0,1.4,0,.1,0,.2,0,.2.2s0,.2,0,.3c0,.1,0,.4,0,1.2v1.9h2.4c1,0,1.4,0,1.5,0,.1,0,.1,0,.1.1v1.1c0,.1,0,.1-.1.1s-.4,0-1.5,0h-2.4v3.9h3.3c1.1,0,1.5,0,1.5,0,.1,0,.1,0,.1.1v1.1c0,.1,0,.1-.1.1s-.4,0-1.5,0h-7.2Z"/>
        </g>
      </g>
    </g>
  </g>
  <g class="st71">
    <path class="st9" d="M498.5,68.6h19.1c6.7,0,10.8,0,13.5,1.1,3.9,1.4,6.9,4.5,8.3,8.3,1.1,2.7,1.1,6.7,1.1,13.5v11.7c0,6.7,0,10.8-1.1,13.5-1.4,3.9-4.5,6.9-8.3,8.3-2.7,1.1-6.7,1.1-13.5,1.1h-19.1c-6.7,0-10.8,0-13.5-1.1-3.9-1.4-6.9-4.5-8.3-8.3-1.1-2.7-1.1-6.7-1.1-13.5v-11.7c0-6.7,0-10.8,1.1-13.5,1.4-3.9,4.5-6.9,8.3-8.3,2.7-1.1,6.7-1.1,13.5-1.1Z"/>
  </g>
  <g class="st2">
    <g class="st35">
      <g class="st42">
        <path d="M504.4,95.1c-1.1,0-1.4,0-1.5,0-.1,0-.1,0-.1-.1v-1c0-.1,0-.1.1-.1s.4,0,1.5,0h2c0-.2.1-.4.2-.6.2-.7.2-1.1.3-1.6.4,0,.9.1,1.3.3.1,0,.2,0,.2.2s0,.2-.1.3c0,.1-.2.3-.3.8,0,.2-.1.4-.2.7h3.9c1.1,0,1.4,0,1.5,0,.1,0,.1,0,.1.1v1c0,.1,0,.1-.1.1s-.4,0-1.5,0h-4.2c-.3.8-.7,1.5-1.1,2.2h4.1c1.1,0,1.5,0,1.6,0s.1,0,.1.1,0,.4,0,1.4v1.3c0,1.9,0,2.2,0,2.3,0,.1,0,.1-.1.1h-1.1c-.1,0-.1,0-.1-.1v-.6h-4.3v.6c0,.1,0,.1-.1.1h-1c-.1,0-.1,0-.1-.1s0-.4,0-2.3v-1.5c-.4.5-.9.9-1.5,1.4-.1.1-.2.2-.3.2s-.1,0-.2-.3c-.2-.3-.5-.6-.7-.8,1.6-1.1,2.8-2.4,3.5-4.1h-1.6ZM506.5,100.7h4.3v-2.3h-4.3v2.3Z"/>
      </g>
    </g>
  </g>
  <g class="st37">
    <path class="st12" d="M354.6,68.6h19.1c6.7,0,10.8,0,13.5,1.1,3.9,1.4,6.9,4.5,8.3,8.3,1.1,2.7,1.1,6.7,1.1,13.5v11.7c0,6.7,0,10.8-1.1,13.5-1.4,3.9-4.5,6.9-8.3,8.3-2.7,1.1-6.7,1.1-13.5,1.1h-19.1c-6.7,0-10.8,0-13.5-1.1-3.9-1.4-6.9-4.5-8.3-8.3-1.1-2.7-1.1-6.7-1.1-13.5v-11.7c0-6.7,0-10.8,1.1-13.5,1.4-3.9,4.5-6.9,8.3-8.3,2.7-1.1,6.7-1.1,13.5-1.1Z"/>
  </g>
  <g class="st5">
    <g class="st41">
      <g class="st39">
        <path d="M360.7,94.9c-1.1,0-1.5,0-1.5,0-.1,0-.1,0-.1-.1v-1c0-.1,0-.1.1-.1s.4,0,1.5,0h1.6c0-.2,0-.5.1-.7,0-.4,0-.8,0-1.2.5,0,1,.1,1.3.2.1,0,.2,0,.2.2s0,.1,0,.2c0,.1-.1.4-.2.7v.6c0,0,3.9,0,3.9,0,1.1,0,1.5,0,1.5,0,.1,0,.1,0,.1.1v1c0,.1,0,.1-.1.1s-.4,0-1.5,0h-4.3c-.2.7-.4,1.4-.6,2.1h4c1.1,0,1.5,0,1.6,0,.1,0,.1,0,.1.1v.9c0,.1,0,.1-.1.1s-.5,0-1.6,0h-1v2.8h1.8c1.2,0,1.6,0,1.7,0,.1,0,.1,0,.1.1v1c0,.1,0,.1-.1.1s-.5,0-1.7,0h-4.9c-1.2,0-1.6,0-1.7,0-.1,0-.1,0-.1-.1v-1c0-.1,0-.1.1-.1s.5,0,1.7,0h1.8v-2.8h-2.2c-.6,1.2-1.4,2.4-2.5,3.4-.1.1-.2.2-.3.2s-.1,0-.2-.3c-.2-.3-.4-.6-.7-.8,1.8-1.4,2.9-3.5,3.5-5.9h-1.3Z"/>
      </g>
    </g>
  </g>
  <g class="st36">
    <path class="st13" d="M354.6,133.4h19.1c6.7,0,10.8,0,13.5,1.1,3.9,1.4,6.9,4.5,8.3,8.3,1.1,2.7,1.1,6.7,1.1,13.5v11.7c0,6.7,0,10.8-1.1,13.5-1.4,3.9-4.5,6.9-8.3,8.3-2.7,1.1-6.7,1.1-13.5,1.1h-19.1c-6.7,0-10.8,0-13.5-1.1-3.9-1.4-6.9-4.5-8.3-8.3-1.1-2.7-1.1-6.7-1.1-13.5v-11.7c0-6.7,0-10.8,1.1-13.5,1.4-3.9,4.5-6.9,8.3-8.3,2.7-1.1,6.7-1.1,13.5-1.1Z"/>
  </g>
  <g class="st6">
    <g class="st40">
      <g class="st38">
        <g>
          <path d="M354.7,160c-1.1,0-1.5,0-1.5,0-.1,0-.1,0-.1-.1v-1c0-.1,0-.1.1-.1s.4,0,1.5,0h1.6c0-.2,0-.5.1-.7,0-.4,0-.8,0-1.2.5,0,1,.1,1.3.2.1,0,.2,0,.2.2s0,.1,0,.2c0,.1-.1.4-.2.7v.6c0,0,3.9,0,3.9,0,1.1,0,1.5,0,1.5,0,.1,0,.1,0,.1.1v1c0,.1,0,.1-.1.1s-.4,0-1.5,0h-4.3c-.2.7-.4,1.4-.6,2.1h4c1.1,0,1.5,0,1.6,0,.1,0,.1,0,.1.1v.9c0,.1,0,.1-.1.1s-.5,0-1.6,0h-1v2.8h1.8c1.2,0,1.6,0,1.7,0,.1,0,.1,0,.1.1v1c0,.1,0,.1-.1.1s-.5,0-1.7,0h-4.9c-1.2,0-1.6,0-1.7,0-.1,0-.1,0-.1-.1v-1c0-.1,0-.1.1-.1s.5,0,1.7,0h1.8v-2.8h-2.2c-.6,1.2-1.4,2.4-2.5,3.4-.1.1-.2.2-.3.2s-.1,0-.2-.3c-.2-.3-.4-.6-.7-.8,1.8-1.4,2.9-3.5,3.5-5.9h-1.3Z"/>
          <path d="M366.5,158.9c-1.1,0-1.4,0-1.5,0-.1,0-.1,0-.1-.1v-1c0-.1,0-.1.1-.1s.4,0,1.5,0h7.3c1.1,0,1.4,0,1.5,0,.1,0,.1,0,.1.1v1c0,.1,0,.1-.1.1s-.4,0-1.5,0h-3.2v1.6c1.1.5,2.5,1.1,3.7,1.9,0,0,0,0,0,.1s0,0,0,.1l-.6.8c0,.1-.1.2-.2,0-1-.7-2-1.3-3-1.8v4.2c0,1.1,0,1.6,0,1.6,0,.1,0,.1-.1.1h-1.1c-.1,0-.1,0-.1-.1s0-.6,0-1.6v-7.1h-2.7Z"/>
        </g>
      </g>
    </g>
  </g>
  <g class="st43">
    <path class="st15" d="M426.6,133.4h19.1c6.7,0,10.8,0,13.5,1.1,3.9,1.4,6.9,4.5,8.3,8.3,1.1,2.7,1.1,6.7,1.1,13.5v11.7c0,6.7,0,10.8-1.1,13.5-1.4,3.9-4.5,6.9-8.3,8.3-2.7,1.1-6.7,1.1-13.5,1.1h-19.1c-6.7,0-10.8,0-13.5-1.1-3.9-1.4-6.9-4.5-8.3-8.3-1.1-2.7-1.1-6.7-1.1-13.5v-11.7c0-6.7,0-10.8,1.1-13.5,1.4-3.9,4.5-6.9,8.3-8.3,2.7-1.1,6.7-1.1,13.5-1.1Z"/>
  </g>
  <g class="st8">
    <g class="st44">
      <g class="st29">
        <path d="M432.4,158.6c-1.1,0-1.4,0-1.5,0-.1,0-.1,0-.1-.1v-1c0-.1,0-.1.1-.1s.4,0,1.5,0h7.3c1.1,0,1.4,0,1.5,0,.1,0,.1,0,.1.1v1c0,.1,0,.1-.1.1s-.4,0-1.5,0h-3.2v1.6c1.1.5,2.5,1.1,3.7,1.9,0,0,0,0,0,.1s0,0,0,.1l-.6.8c0,.1-.1.2-.2,0-1-.7-2-1.3-3-1.8v4.2c0,1.1,0,1.6,0,1.6,0,.1,0,.1-.1.1h-1.1c-.1,0-.1,0-.1-.1s0-.6,0-1.6v-7.1h-2.7Z"/>
      </g>
    </g>
  </g>
  <g class="st26">
    <path class="st14" d="M497.4,133.4h19.1c6.7,0,10.8,0,13.5,1.1,3.9,1.4,6.9,4.5,8.3,8.3,1.1,2.7,1.1,6.7,1.1,13.5v11.7c0,6.7,0,10.8-1.1,13.5-1.4,3.9-4.5,6.9-8.3,8.3-2.7,1.1-6.7,1.1-13.5,1.1h-19.1c-6.7,0-10.8,0-13.5-1.1-3.9-1.4-6.9-4.5-8.3-8.3-1.1-2.7-1.1-6.7-1.1-13.5v-11.7c0-6.7,0-10.8,1.1-13.5,1.4-3.9,4.5-6.9,8.3-8.3,2.7-1.1,6.7-1.1,13.5-1.1Z"/>
  </g>
  <g class="st7">
    <g class="st31">
      <g class="st34">
        <g>
          <path d="M497.3,160.2c-1.1,0-1.4,0-1.5,0-.1,0-.1,0-.1-.1v-1c0-.1,0-.1.1-.1s.4,0,1.5,0h2c0-.2.1-.4.2-.6.2-.7.2-1.1.3-1.6.4,0,.9.1,1.3.3.1,0,.2,0,.2.2s0,.2-.1.3c0,.1-.2.3-.3.8,0,.2-.1.4-.2.7h3.9c1.1,0,1.4,0,1.5,0,.1,0,.1,0,.1.1v1c0,.1,0,.1-.1.1s-.4,0-1.5,0h-4.2c-.3.8-.7,1.5-1.1,2.2h4.1c1.1,0,1.5,0,1.6,0s.1,0,.1.1,0,.4,0,1.4v1.3c0,1.9,0,2.2,0,2.3,0,.1,0,.1-.1.1h-1.1c-.1,0-.1,0-.1-.1v-.6h-4.3v.6c0,.1,0,.1-.1.1h-1c-.1,0-.1,0-.1-.1s0-.4,0-2.3v-1.5c-.4.5-.9.9-1.5,1.4-.1.1-.2.2-.3.2s-.1,0-.2-.3c-.2-.3-.5-.6-.7-.8,1.6-1.1,2.8-2.4,3.5-4.1h-1.6ZM499.4,165.9h4.3v-2.3h-4.3v2.3Z"/>
          <path d="M509.3,158.9c-1.1,0-1.4,0-1.5,0-.1,0-.1,0-.1-.1v-1c0-.1,0-.1.1-.1s.4,0,1.5,0h7.3c1.1,0,1.4,0,1.5,0,.1,0,.1,0,.1.1v1c0,.1,0,.1-.1.1s-.4,0-1.5,0h-3.2v1.6c1.1.5,2.5,1.1,3.7,1.9,0,0,0,0,0,.1s0,0,0,.1l-.6.8c0,.1-.1.2-.2,0-1-.7-2-1.3-3-1.8v4.2c0,1.1,0,1.6,0,1.6,0,.1,0,.1-.1.1h-1.1c-.1,0-.1,0-.1-.1s0-.6,0-1.6v-7.1h-2.7Z"/>
        </g>
      </g>
    </g>
  </g>
  <g class="st32">
    <g class="st30">
      <polyline class="st1" points="436.1 133 436.1 132 436.1 120.3 436.1 119.3"/>
      <polygon points="440.9 120.3 436.1 110.7 431.3 120.3 440.9 120.3"/>
      <polygon points="431.3 132 436.1 141.6 440.9 132 431.3 132"/>
    </g>
  </g>
  <g class="st33">
    <g class="st27">
      <polyline class="st1" points="462.8 72.8 463.5 72.1 473.6 62.1 474.3 61.3"/>
      <polygon points="477 65.4 480.4 55.3 470.2 58.7 477 65.4"/>
      <polygon points="460.1 68.7 456.7 78.9 466.9 75.5 460.1 68.7"/>
    </g>
  </g>
  <g class="st28">
    <g>
      <path d="M84.9,215.2c.3.5.5.8,1,1,.4.2,1.2.2,2.3.2,1.5,0,3.4,0,5.2-.3-.2.2-.3.5-.3.8q0,.4-.4.4c-1.5,0-3,.1-4.2.1s-2.2,0-2.8-.3c-.6-.2-1-.6-1.3-1.1-.4.4-.7.7-1.1,1-.1,0-.2.2-.3.3,0,0,0,.1-.2.1s-.1,0-.2-.2c-.2-.3-.3-.6-.5-1.1.3-.1.5-.2.7-.4.3-.2.6-.5.9-.8v-2.7h-.5c-.6,0-.8,0-.8,0-.1,0-.1,0-.1-.1v-.9c0-.1,0-.1.1-.1s.2,0,.8,0h.7c.6,0,.8,0,.9,0,.1,0,.1,0,.1.1s0,.4,0,1.2v2.6ZM83.2,207.3c.1,0,.2,0,.3,0,.6.5,1.1,1.1,1.5,1.8,0,0,0,.1,0,.2l-.6.5c0,0-.1,0-.1,0,0,0,0,0-.1,0-.4-.7-.9-1.3-1.5-1.9,0,0,0-.1,0-.2l.6-.4ZM86.8,210.6c-1.2,0-1.6,0-1.7,0-.1,0-.1,0-.1-.1v-.6c0-.1,0-.1.1-.1s.5,0,1.7,0h1.6v-.4h-.9c-1.1,0-1.5,0-1.6,0-.1,0-.1,0-.1-.1s0-.2,0-.6v-.5c0-.4,0-.5,0-.6,0-.1,0-.1.1-.1s.5,0,1.6,0h.9c0-.2,0-.5,0-.7.4,0,.8,0,1.2,0,.1,0,.2,0,.2.1s0,.1,0,.2c0,0,0,.2,0,.4h1c1.1,0,1.5,0,1.6,0,.1,0,.1,0,.1.1s0,.2,0,.6v.5c0,.4,0,.5,0,.6,0,.1,0,.1-.1.1s-.5,0-1.6,0h-1v.4h1.7c1.2,0,1.6,0,1.7,0,.1,0,.1,0,.1.1v.6c0,.1,0,.1-.1.1s-.5,0-1.7,0h-4.5ZM92,213.6c0,.7,0,1,0,1,0,.1,0,.1-.1.1s-.4,0-1.3,0c.5.3,1.2.5,2.2.7-.2.1-.3.3-.4.5-.2.3-.2.3-.6.2-.8-.2-1.5-.5-2.1-.9-.1,0,0,0,0-.2l.5-.4h-2.8c.3.1.5.3.7.4,0,0,.1,0,.1.2s0,.1-.1.1c0,0-.2,0-.3.2-.3.2-.8.4-1.3.6-.4.1-.4,0-.6-.2-.1-.2-.3-.3-.5-.4.6-.1,1.1-.3,1.5-.5.1,0,.3-.2.3-.3-.8,0-1.2,0-1.2,0-.1,0-.1,0-.1-.1s0-.4,0-1v-1.5c0-.7,0-1,0-1,0-.1,0-.1.1-.1s.5,0,1.5,0h2.6c1.1,0,1.5,0,1.5,0s.1,0,.1.1,0,.4,0,1v1.5ZM88.4,208.6v-.4h-1.5v.4h1.5ZM87.2,211.6v.4h3.6v-.4h-3.6ZM90.8,213.1v-.4h-3.6v.4h3.6ZM90.8,213.7h-3.6v.4h3.6v-.4ZM91.1,208.2h-1.6v.4h1.6v-.4Z"/>
      <path d="M95.4,213.1c0-.4,0-.8,0-1.3-.2.3-.4.6-.7.9,0,.1-.2.2-.2.2s-.1,0-.2-.2c-.1-.4-.3-.8-.4-1,1.1-1.2,1.8-2.5,2.3-3.9.1-.3.2-.6.2-.9.4.1.8.2,1.1.4.1,0,.2.1.2.2s0,.1-.1.2c0,0-.1.2-.3.5-.2.6-.5,1.2-.7,1.7v6c0,1.2,0,1.8,0,1.8,0,.1,0,.1-.1.1h-1c-.1,0-.1,0-.1-.1s0-.6,0-1.8v-2.8ZM99.1,212.2c-1.2,0-1.6,0-1.6,0-.1,0-.1,0-.1-.1v-.9c0-.1,0-.1.1-.1s.5,0,1.6,0h4.2c1.2,0,1.6,0,1.6,0,.1,0,.1,0,.1.1v.9c0,.1,0,.1-.1.1s-.5,0-1.6,0h-2.3c-.4,1.4-.8,2.6-1.3,3.7,1-.1,2-.2,3.1-.4-.3-.5-.6-1-.9-1.4,0-.1,0-.2,0-.2l.7-.3c.1,0,.2,0,.3,0,.7,1,1.4,2.1,2,3.4,0,.1,0,.2-.1.3l-.8.4c-.2,0-.2,0-.2,0-.2-.4-.3-.7-.5-1-1.8.3-3.1.5-5,.7-.2,0-.4,0-.4,0,0,0-.2,0-.2,0s-.1,0-.2-.2c0-.3-.2-.7-.3-1.2.5,0,.8,0,1.2,0,.5-1.3.9-2.5,1.3-3.8h-.6ZM99.8,209c-1.1,0-1.5,0-1.5,0-.1,0-.1,0-.1-.1v-.9c0-.1,0-.1.1-.1s.4,0,1.5,0h2.8c1.1,0,1.5,0,1.5,0,.1,0,.1,0,.1.1v.9c0,.1,0,.1-.1.1s-.4,0-1.5,0h-2.8Z"/>
      <path d="M109.4,208.7c.9,0,1.1,0,1.2,0,.1,0,.1,0,.1.1s0,.5,0,1.7c.8-.9,1.2-1.9,1.5-2.7,0-.3.2-.6.2-1,.5,0,1,.2,1.2.3.2,0,.3.1.3.2s0,.1-.1.2c0,0-.2.3-.3.6,0,.2-.2.4-.3.7h2.2c.9,0,1.1,0,1.2,0,.1,0,.1,0,.1.1,0,.3,0,.7,0,1,0,2.8,0,4.5-.3,6.1-.2,1.2-.7,1.8-1.8,1.8-.3,0-.6,0-.9,0q-.3,0-.4-.4c0-.3-.2-.7-.3-.9.6,0,1.1.1,1.5.1.4,0,.6-.4.8-1,.2-1.3.3-3.2.3-5.6h-2.9c-.3.5-.6,1-1,1.5-.1.1-.2.2-.3.2s-.1,0-.3-.2c-.1-.1-.3-.3-.4-.4v2.5c0,2.8,0,3.3,0,3.4,0,.1,0,.1-.1.1h-.9c-.1,0-.1,0-.1-.1v-.6h-1.7v.9c0,.1,0,.1-.1.1h-.9c-.1,0-.1,0-.1-.1s0-.6,0-3.5v-2.1c0-2.1,0-2.7,0-2.7,0-.1,0-.1.1-.1s.3,0,1,0c.1-.4.3-.9.4-1.3,0-.2,0-.4,0-.7.4,0,.9.1,1.2.2.1,0,.2,0,.2.2s0,.1-.1.2c0,0-.1.2-.2.3-.1.4-.3.8-.4,1.1h.4ZM107.8,209.8v2.1h1.7v-2.1h-1.7ZM109.5,215.2v-2.2h-1.7v2.2h1.7ZM112.6,211.5c0,0,0,0,.1,0s0,0,0,0c.6.6,1.1,1.5,1.5,2.2,0,.1,0,.2,0,.3l-.7.5c0,0,0,0-.1,0,0,0,0,0,0-.1-.4-.9-.9-1.6-1.4-2.3,0,0,0-.1,0-.2l.7-.4Z"/>
      <path d="M122.1,212c.1,0,.2,0,.2,0,.4.7.8,1.4,1.3,1.9.3-.3.6-.7.8-1.1.2-.4.4-.7.5-1,.5.2.8.4,1.1.5.1,0,.2.1.2.2s0,.2-.1.2c-.1,0-.3.3-.4.5-.4.5-.7,1-1.1,1.4,1.1.8,2.6,1.4,4.6,1.8-.2.3-.4.6-.5.9,0,.2-.1.3-.2.3s-.2,0-.3,0c-2-.5-3.4-1.2-4.4-2.1-1,.9-2.3,1.5-4.3,2.1-.1,0-.2,0-.3,0-.1,0-.1,0-.2-.3-.1-.3-.3-.6-.5-.8,1.9-.4,3.4-1,4.5-1.9-.6-.6-1.1-1.4-1.5-2.2,0-.1,0-.1.1-.2l.8-.4ZM120.7,210.3c.2-.2.3-.5.5-.7.4.2.7.3.9.5.2.1.2.2.2.2s0,.1-.2.2c-.1,0-.3.2-.4.4-.5.7-1.3,1.4-2.3,2.1-.1,0-.2.1-.3.1s-.1,0-.2-.2c-.2-.3-.4-.6-.6-.7,1.1-.6,1.8-1.2,2.4-1.9ZM120.1,209.4c-1.1,0-1.5,0-1.5,0-.1,0-.1,0-.1-.1v-1c0-.1,0-.1.1-.1s.4,0,1.5,0h2.9v-.2c0-.5,0-.8,0-1.1.4,0,.9,0,1.3,0,.1,0,.2,0,.2.1s0,.1,0,.2c0,.1,0,.3,0,.7v.2h3c1.1,0,1.5,0,1.5,0,.1,0,.1,0,.1.1v1c0,.1,0,.1-.1.1s-.4,0-1.5,0h-7.1ZM125.6,209.7c0,0,.1,0,.1,0s0,0,.1,0c.8.9,1.8,1.8,3.1,2.3-.2.2-.5.5-.6.8-.1.2-.2.3-.3.3s-.2,0-.3-.1c-1.2-.7-2.1-1.5-2.9-2.6,0-.1,0-.1,0-.2l.6-.4Z"/>
      <path d="M130.7,210.1c0-.1.1-.1.2,0,.6.3,1.2.7,1.7,1.2,0,0,0,0,0,0,0,0,0,0,0,.1l-.6.8c0,0,0,0,0,0s0,0-.1,0c-.5-.5-1.1-.9-1.7-1.3,0,0,0,0,0,0,0,0,0,0,0-.1l.5-.6ZM130.8,216c.3-.7.8-1.6,1.2-2.8.2.2.4.4.7.6.2.1.3.2.3.3s0,.1,0,.3c-.3,1-.7,1.9-1.1,2.7-.1.2-.2.4-.2.5,0,0,0,.2-.1.2s-.1,0-.2,0c-.3-.2-.6-.4-.9-.7.3-.3.4-.6.6-.9ZM131.1,207.1c0-.1.1-.1.2,0,.6.3,1.1.8,1.7,1.2,0,0,0,0,0,.1s0,0,0,.1l-.5.8c0,.1-.1.1-.2,0-.5-.5-1.1-1-1.7-1.4,0,0,0,0,0,0,0,0,0,0,0-.1l.6-.6ZM134,213.5c0-.3,0-.6,0-1,.4,0,.7,0,1.1,0,.1,0,.2,0,.2.1s0,.2,0,.3c0,.1,0,.3,0,.6,0,1.9-.5,3-1.7,3.9-.1.1-.2.2-.3.2s-.1,0-.3-.2c-.2-.2-.5-.4-.7-.6,1.4-.8,1.8-1.7,1.9-3.4ZM138.7,209.5c.1,0,.2,0,.3,0,.7.6,1.4,1.4,1.9,2.1,0,.1,0,.1,0,.2l-.7.5c0,0-.1,0-.2,0s0,0,0,0c-.2-.3-.3-.5-.6-.8-1.7.2-3.5.4-5,.5-.3,0-.4,0-.5.1,0,0-.1,0-.2,0s-.1,0-.2-.2c0-.3-.2-.7-.2-1.1.5,0,.8,0,1.2,0,.1,0,.2,0,.4,0,.3-.6.6-1.2.7-1.7h-.3c-1.2,0-1.6,0-1.6,0-.1,0-.1,0-.1-.1v-.9c0-.1,0-.1.1-.1s.5,0,1.6,0h1.1v-.2c0-.4,0-.7,0-1.2.4,0,.9,0,1.3,0,.1,0,.2,0,.2.1,0,0,0,.2,0,.3,0,.1,0,.2,0,.7v.2h1.5c1.2,0,1.6,0,1.7,0,.1,0,.1,0,.1.1v.9c0,.1,0,.1-.1.1s-.5,0-1.7,0h-2.2c-.2.6-.5,1.1-.7,1.6.8,0,1.7-.1,2.4-.2-.2-.2-.3-.3-.5-.5,0,0,0-.1,0-.2l.6-.5ZM136,214.2c0-.6,0-1,0-1.6.3,0,.8,0,1.2,0,.1,0,.2,0,.2.1s0,.2,0,.3c0,.2,0,.4,0,1.1v1.6c0,.9,0,1.3,0,1.4,0,.1,0,.1-.1.1h-.9c-.1,0-.1,0-.1-.1s0-.5,0-1.4v-1.6ZM139.4,216.2c0,.2,0,.2,0,.3,0,0,.1,0,.3,0s.2,0,.3-.1c0-.2.1-.4.1-1.2.2.1.4.2.7.3.3,0,.3.1.3.4,0,.9-.2,1.2-.4,1.4-.2.2-.5.4-1.3.4s-.8,0-1-.2c-.2-.1-.3-.4-.3-.8v-2.9c0-.6,0-.9,0-1.2.3,0,.8,0,1.1,0,.1,0,.2,0,.2.1s0,.2,0,.3c0,.1,0,.2,0,.9v2.3Z"/>
      <path d="M145.8,208.6c0-.4.1-.8.1-1.3.6.1,1,.2,1.4.4.1,0,.2.1.2.2s0,.1,0,.2c-.1.2-.2.3-.2.5-.2.5-.3.9-.4,1.4.3,0,.7,0,1,0,1.1,0,1.7.8,1.7,2.3s-.2,2.9-.6,3.8c-.3.8-.9,1.1-1.6,1.1s-1,0-1.2-.2c-.1,0-.2-.2-.2-.3,0-.4,0-.7-.2-1.1.5.3,1,.3,1.4.3s.6-.1.8-.6c.3-.7.5-1.8.5-3s-.2-1.1-.7-1.1-.7,0-1,0c-.8,2.3-1.5,4-2.4,5.6,0,.2-.2.2-.3.1-.2-.1-.7-.4-.8-.5,0,0,0-.1,0-.2s0,0,0-.1c1-1.7,1.6-2.9,2.2-4.7-.5,0-.9.1-1.2.2-.3,0-.5.1-.7.2-.2,0-.3,0-.4-.2-.1-.3-.2-.7-.4-1.2.5,0,1.1,0,1.6,0,.5,0,.9-.1,1.4-.2.2-.7.3-1.1.4-1.5ZM150.6,209.5c0,0,.1,0,.2,0,.8.8,1.5,1.8,2,2.9,0,.1,0,.2,0,.2-.2.2-.7.5-.9.6-.1,0-.2,0-.3,0-.5-1.3-1.1-2.3-2-3.1.3-.2.6-.4,1-.6ZM150.9,207.8c0,0,.1,0,.2,0,.4.3.8.8,1.1,1.3,0,0,0,.1,0,.2l-.5.4c0,0-.1,0-.2,0-.4-.6-.7-1-1.2-1.4l.6-.4ZM152,207c0,0,.1,0,.2,0,.4.3.9.8,1.1,1.2,0,0,0,.1,0,.2l-.5.4c0,0-.2,0-.2,0-.3-.5-.7-1-1.2-1.4l.6-.4Z"/>
      <path d="M157,212.4c.6,0,.7,0,.8,0,.1,0,.2,0,.1.2,0,.2,0,.6,0,.8-.1,2.1-.3,3.1-.5,3.5-.2.5-.6.8-1.5.8s-.4,0-.6,0q-.3,0-.3-.4c0-.3-.2-.7-.3-.9.5,0,.8.1,1.1.1s.4,0,.5-.2c.2-.2.4-1,.5-2.9h-1.2v.4q-.1.1-.7,0c-.6,0-.6,0-.5-.3.2-1,.4-1.9.4-2.8,0-.3,0-.6,0-.9,0-.1,0-.2.2-.2s.3,0,.8,0h1.1v-1.5h-1.2c-.7,0-1,0-1,0-.1,0-.1,0-.1-.1v-.9c0-.1,0-.1.1-.1s.3,0,1,0h1.3c.6,0,.8,0,.8,0,.1,0,.1,0,.1.1s0,.4,0,1.1v1.2c0,.7,0,1,0,1.1,0,.1,0,.1-.1.1s-.3,0-.8,0h-1.1c0,.5-.1,1-.2,1.4h1.3ZM163,215.2c0,0,0-.1.1-.2l.6-.3c.1,0,.2,0,.2,0,.5.6.9,1.5,1.3,2.3,0,.1,0,.1-.1.2l-.7.3c-.1,0-.2,0-.2,0-.1-.3-.2-.6-.3-.8-1.5.3-3.2.5-4.7.7-.2,0-.4,0-.5.1,0,0-.1,0-.2,0s-.2,0-.2-.2c-.1-.4-.2-.8-.3-1.2.5,0,.9,0,1.4,0,.4,0,1,0,1.5-.1v-1.5h-.7c-1.1,0-1.5,0-1.5,0-.1,0-.1,0-.1-.1s0-.3,0-1v-1.3c0-.6,0-.9,0-1,0-.1,0-.1.1-.1s.5,0,1.5,0h.7v-1c-.6,0-1.1,0-1.6.1-.2,0-.3,0-.4,0,0,0-.1,0-.2,0s-.1,0-.2-.2c0-.3-.1-.7-.2-1.1.3,0,.6,0,.9,0,.3-.6.6-1.2.7-1.5.1-.3.2-.5.2-.8.5,0,.8.1,1.2.2.1,0,.2,0,.2.2s0,.2-.1.2c0,0-.1.1-.2.3-.2.4-.5.9-.7,1.4.9,0,1.8-.1,2.5-.2-.2-.3-.5-.6-.7-.9,0,0,0-.1,0-.2l.6-.3c.1,0,.2,0,.2,0,.7.7,1.4,1.5,1.9,2.3,0,.1,0,.1,0,.2l-.7.4c0,0-.1,0-.1,0,0,0,0,0-.1-.1-.1-.2-.2-.4-.4-.6-.5,0-1,.1-1.6.2v1.1h.8c1.1,0,1.5,0,1.5,0,.1,0,.1,0,.1.1s0,.3,0,1v1.3c0,.6,0,.9,0,1,0,.1,0,.1-.1.1s-.5,0-1.5,0h-.8v1.3l1.3-.2-.3-.5ZM160.9,213.6v-1.4h-1.2v1.4h1.2ZM163.3,212.1h-1.3v1.4h1.3v-1.4Z"/>
      <path d="M168.5,208.9c.1,0,.2.1.2.2s0,.2,0,.3c0,.1-.1.7-.1,1.2,0,.8,0,1.6.2,2.7.2.9.5,1.8,1,1.8s.7-.4,1.2-1.7c.3.4.5.7.8.9.1.1.1.3,0,.4-.5,1.2-1.2,1.9-2,1.9s-1.9-1.1-2.2-3.1c-.2-1.1-.3-2.4-.3-3.5s0-1-.1-1.6c.6,0,1.2.2,1.5.4ZM174.1,209.7s0,0,.1,0,0,0,.1,0c1.1.9,2.1,2.6,2.4,4.1,0,.2,0,.2-.1.3-.3.2-.6.4-.9.5-.1,0-.2,0-.3-.1-.4-1.7-1-3-2.2-4.2.5-.3.8-.5.9-.6Z"/>
      <path d="M187.3,210.9v.7h-7.3v-.7h7.3ZM187.3,213v.7h-7.3v-.7h7.3Z"/>
      <path d="M191.4,213.1c0-.4,0-.9,0-1.4-.3.3-.5.7-.8,1,0,.1-.2.2-.2.2s0,0-.1-.2c0-.4-.3-.9-.4-1.1,1-1.1,1.8-2.5,2.3-3.9,0-.3.2-.6.2-.9.4.1.8.2,1.2.4.1,0,.2,0,.2.2s0,.1-.1.2c0,0-.1.2-.3.5-.2.5-.4,1.1-.7,1.6v6.2c0,1.2,0,1.8,0,1.8,0,.1,0,.1-.1.1h-1c-.1,0-.1,0-.1-.1s0-.6,0-1.8v-2.8ZM196.5,208.7c0-.8,0-1.3,0-1.8.5,0,.9,0,1.3,0,.1,0,.2,0,.2.1s0,.2,0,.3c0,.1,0,.4,0,1.3v.7h1.3c1.2,0,1.6,0,1.6,0,.1,0,.1,0,.1.1s0,.5,0,1.5v1.5c0,1.7,0,2,0,2.1,0,.1,0,.1-.1.1h-1c-.1,0-.1,0-.1-.1v-.5h-1.8v1.5c0,1.4,0,2.1,0,2.1,0,.1,0,.1-.1.1h-1c-.1,0-.1,0-.1-.1s0-.7,0-2.1v-1.5h-1.7v.5c0,.1,0,.1-.1.1h-1c-.1,0-.1,0-.1-.1s0-.4,0-2.1v-1.4c0-1.2,0-1.6,0-1.6,0-.1,0-.1.1-.1s.5,0,1.6,0h1.1v-.7ZM194.8,213h1.7v-2.4h-1.7v2.4ZM197.7,210.5v2.4h1.8v-2.4h-1.8Z"/>
      <path d="M205.8,207.2c.8,0,1.1,0,1.2,0,.1,0,.1,0,.1.1s0,.4,0,1.1v1.5c0,.7,0,1.1,0,1.1,0,.1,0,.1-.1.1s-.4,0-1.2,0h-1.9v3.9c0,1.7,0,2.5,0,2.6,0,.1,0,.1-.1.1h-1c-.1,0-.1,0-.1-.1s0-.9,0-2.6v-5.2c0-1.7,0-2.5,0-2.6,0-.1,0-.1.1-.1s.5,0,1.4,0h1.7ZM203.9,208.1v.7h2.1v-.7h-2.1ZM205.9,209.6h-2.1v.7h2.1v-.7ZM205.5,216.9c-.1,0-.1,0-.1-.1s0-.4,0-2.2v-1.1c0-1.1,0-1.4,0-1.5,0-.1,0-.1.1-.1s.4,0,1.3,0h1.6c.9,0,1.2,0,1.3,0,.1,0,.1,0,.1.1s0,.4,0,1.3v1.2c0,1.7,0,2.1,0,2.1,0,.1,0,.1-.1.1h-.9c-.1,0-.1,0-.1-.1v-.4h-2.2v.5c0,.1,0,.1-.1.1h-.9ZM206.5,213.7h2.2v-.8h-2.2v.8ZM208.7,215.4v-.8h-2.2v.8h2.2ZM212.6,213.8c0,.8,0,1.8,0,2.4s0,.9-.3,1.1c-.3.2-.6.3-1.7.3s-.4,0-.4-.4c0-.3-.2-.6-.3-.9.4,0,.8,0,1,0,.4,0,.5-.1.5-.5v-4.8h-2c-.9,0-1.2,0-1.3,0-.1,0-.1,0-.1-.1s0-.3,0-1.1v-1.7c0-.7,0-1,0-1.1,0-.1,0-.1.1-.1s.4,0,1.3,0h1.8c.9,0,1.3,0,1.3,0,.1,0,.1,0,.1.1s0,.6,0,1.6v4.9ZM209.2,208.1v.7h2.2v-.7h-2.2ZM211.4,210.3v-.7h-2.2v.7h2.2Z"/>
      <path d="M217.8,208.6c0-.4.1-.8.1-1.3.6.1,1,.2,1.4.4.1,0,.2.1.2.2s0,.1,0,.2c-.1.2-.2.3-.2.5-.2.5-.3.9-.4,1.4.3,0,.7,0,1,0,1.1,0,1.7.8,1.7,2.3s-.2,2.9-.6,3.8c-.3.8-.9,1.1-1.6,1.1s-1,0-1.2-.2c-.1,0-.2-.2-.2-.3,0-.4,0-.7-.2-1.1.5.3,1,.3,1.4.3s.6-.1.8-.6c.3-.7.5-1.8.5-3s-.2-1.1-.7-1.1-.7,0-1,0c-.8,2.3-1.5,4-2.4,5.6,0,.2-.2.2-.3.1-.2-.1-.7-.4-.8-.5,0,0,0-.1,0-.2s0,0,0-.1c1-1.7,1.6-2.9,2.2-4.7-.5,0-.9.1-1.2.2-.3,0-.5.1-.7.2-.2,0-.3,0-.4-.2-.1-.3-.2-.7-.4-1.2.5,0,1.1,0,1.6,0,.5,0,.9-.1,1.4-.2.2-.7.3-1.1.4-1.5ZM222.6,209.5c0,0,.1,0,.2,0,.8.8,1.5,1.8,2,2.9,0,.1,0,.2,0,.2-.2.2-.7.5-.9.6-.1,0-.2,0-.3,0-.5-1.3-1.1-2.3-2-3.1.3-.2.6-.4,1-.6ZM222.9,207.8c0,0,.1,0,.2,0,.4.3.8.8,1.1,1.3,0,0,0,.1,0,.2l-.5.4c0,0-.1,0-.2,0-.4-.6-.7-1-1.2-1.4l.6-.4ZM224,207c0,0,.1,0,.2,0,.4.3.9.8,1.1,1.2,0,0,0,.1,0,.2l-.5.4c0,0-.2,0-.2,0-.3-.5-.7-1-1.2-1.4l.6-.4Z"/>
      <path d="M228.7,214c.4-.2.8-.3,1.2-.6,0,.2,0,.5,0,.7q0,.4-.3.6c-.7.4-1.5.7-2.3,1-.3.1-.4.2-.5.2,0,0-.1,0-.2,0s-.1,0-.2-.2c-.1-.3-.2-.7-.3-1.1.4,0,.8-.2,1.2-.3,0,0,.2,0,.3,0v-3.4h0c-.8,0-1,0-1.1,0-.1,0-.1,0-.1-.1v-.9c0-.1,0-.1.1-.1s.3,0,1.1,0h0v-1.1c0-.9,0-1.2,0-1.8.5,0,.8,0,1.2,0,.1,0,.2,0,.2.1,0,0,0,.2,0,.3,0,.1,0,.4,0,1.3v1.1c.6,0,.9,0,.9,0,.1,0,.1,0,.1.1v.9c0,.1,0,.1-.1.1s-.3,0-.9,0v3ZM231.8,206.8c.1,0,.2,0,.3,0,.3.3.6.8.8,1.2,0,.1,0,.1-.1.2l-.7.3h1.7c.3-.4.5-.8.6-1.2,0-.2.1-.3.2-.6.4,0,.8.2,1.2.3.1,0,.2,0,.2.1,0,0,0,.1-.1.2,0,0-.1.2-.2.2-.1.2-.3.6-.6.9h0c1.1,0,1.5,0,1.6,0s.1,0,.1.1,0,.4,0,1.1v1.8c0,.7,0,1,0,1.1,0,.1,0,.1-.1.1s-.5,0-1.6,0h-3.2c-1.1,0-1.5,0-1.6,0-.1,0-.1,0-.1-.1s0-.4,0-1.1v-1.8c0-.7,0-1,0-1.1,0-.1,0-.1.1-.1s.5,0,1.6,0h0c-.2-.4-.5-.9-.8-1.2,0-.1,0-.1,0-.2l.7-.3ZM230.8,217.8c-.1,0-.1,0-.1-.1s0-.4,0-2v-1c0-.9,0-1.2,0-1.3,0-.1,0-.1.1-.1s.4,0,1.5,0h2.3c1,0,1.4,0,1.5,0,.1,0,.1,0,.1.1s0,.4,0,1.2v1.1c0,1.6,0,1.9,0,2,0,.1,0,.1-.1.1h-1c-.1,0-.1,0-.1-.1v-.4h-3.1v.4c0,.1,0,.1-.1.1h-.9ZM232.8,210.2v-.8h-1.6v.8h1.6ZM232.8,211.8v-.8h-1.6v.8h1.6ZM231.9,214.9h3.1v-.7h-3.1v.7ZM235,216.4v-.7h-3.1v.7h3.1ZM233.9,209.4v.8h1.7v-.8h-1.7ZM235.6,211h-1.7v.8h1.7v-.8Z"/>
      <path d="M242.1,210.5c.9-.1,1.6-.3,2.1-.4.2,0,.3,0,.5-.2.1,0,.2,0,.3,0s.1,0,.2,0c.2.1.5.4.7.6,0,0,.1.2.1.3,0,.1,0,.2-.2.3-.2,0-.3.2-.4.3-.9.8-1.4,1.3-2.2,2.2.2,0,.3,0,.4,0,.6,0,1.1.4,1.3,1.2.2,1,.4,1.2,1.3,1.2s1.3,0,1.9-.2c.1,0,.2,0,.2.2,0,.3,0,.7,0,1.1s0,.2-.2.2c-.5,0-1.2.2-1.8.2-1.8,0-2.3-.5-2.6-1.7-.2-.8-.3-1.2-.8-1.2s-.7.2-1.1.6c-.5.6-1.4,1.6-1.8,2.1,0,0,0,0-.2,0s0,0-.1,0c-.3-.2-.6-.5-.8-.7s0,0,0-.1c0,0,0-.1,0-.2.8-.8,1.5-1.5,2.3-2.3.5-.5,1.1-1.2,2.4-2.6-.9.2-1.7.4-2.5.6-.4.1-.6.2-.6.2,0,0-.2,0-.3,0s-.1,0-.2-.2c-.2-.3-.3-.7-.5-1.3,1,0,1.5,0,2.5-.2ZM245.5,207.9c.1,0,.2,0,.1.3,0,.3-.2.7-.3,1,0,0-.1.2-.2.1-1.1-.2-2.5-.6-3.3-1,0,0-.1,0-.1-.2,0-.3.2-.7.4-1.1,1.2.4,2.3.7,3.4,1Z"/>
      <path d="M255.2,209.6c.8-.3,1.4-.3,2.1-.3,1.5,0,2.5.9,2.5,2.2s-1.1,2.5-3.1,2.5-.4,0-.5,0c-.2,0-.3,0-.3-.2-.1-.4-.3-.8-.6-1.2.5,0,.9.1,1.3.1,1.1,0,1.8-.5,1.8-1.3s-.5-1-1.2-1-1.1.1-1.8.3c-.7.2-1.2.5-2,.8.6,1.8,1.2,3.5,1.9,5.3,0,.2,0,.2-.1.3-.3.2-.6.3-1,.4,0,0-.1,0-.2-.1-.6-1.9-1.1-3.5-1.7-5.3-.5.2-.8.4-1.1.5-.3.1-.4.2-.6.4,0,0-.2.1-.2.1s-.2,0-.3-.2c-.3-.4-.5-.8-.7-1.2.5,0,.7-.2,1.2-.3.3,0,.7-.2,1.4-.6-.1-.4-.3-.9-.6-1.5,0-.2-.2-.6-.6-1,.5-.1,1.1-.2,1.6-.2s.2,0,.2.3,0,.2,0,.4c0,.3.1.4.2.9,0,.3.2.5.2.6.8-.3,1.5-.6,2.2-.8ZM254.9,207.2c0,0,0,0,.1,0s0,0,.1,0c.4.3.9.7,1.3,1.1,0,0,0,0,0,.1s0,0,0,.1c-.2.2-.5.5-.8.7,0,0,0,0-.1,0s0,0,0,0c-.4-.5-.9-.9-1.5-1.3.3-.3.7-.5.9-.7Z"/>
      <path d="M266.6,208c0-.3,0-.5-.1-.9.5,0,1.1.1,1.4.2.2,0,.3.1.3.2s0,.2-.1.3c0,0,0,.2,0,.3,0,.2,0,.3,0,.8,1.3,0,2.5,0,3.7,0s.2,0,.2.2c0,.3,0,.6,0,.9,0,.1,0,.2-.2.2-1.2,0-2.4,0-3.7,0,0,.7,0,1.5,0,2.2.1.3.2.8.2,1.2,0,1.4-.6,2.8-2.1,3.9-.2.1-.4.2-.5.2s-.2,0-.4-.2c-.3-.2-.6-.4-.9-.5,1.4-.6,2.2-1.6,2.5-2.6-.2.3-.7.5-1.1.5-.9,0-1.7-.7-1.7-1.8s.8-1.8,1.8-1.8.7,0,.9.2c0-.4,0-.8,0-1.2-1.5,0-3.2.2-4.1.4-.3,0-.5.1-.6.1s-.2,0-.2-.2c0-.2-.2-.7-.3-1.2.4,0,.8,0,1.5,0,.7,0,2.3-.2,3.7-.2,0-.4,0-.7,0-1ZM265.1,212.9c0,.5.3.8.8.8s.8-.3.8-.8-.3-.8-.8-.8-.8.3-.8.8Z"/>
      <path d="M275.6,208.9c.1,0,.2.1.2.2s0,.2,0,.3c0,.1-.1.7-.1,1.2,0,.8,0,1.6.2,2.7.2.9.5,1.8,1,1.8s.7-.4,1.2-1.7c.3.4.5.7.8.9.1.1.1.3,0,.4-.5,1.2-1.2,1.9-2,1.9s-1.9-1.1-2.2-3.1c-.2-1.1-.3-2.4-.3-3.5s0-1-.1-1.6c.6,0,1.2.2,1.5.4ZM281.1,209.7s0,0,.1,0,0,0,.1,0c1.1.9,2.1,2.6,2.4,4.1,0,.2,0,.2-.1.3-.3.2-.6.4-.9.5-.1,0-.2,0-.3-.1-.4-1.7-1-3-2.2-4.2.5-.3.8-.5.9-.6Z"/>
    </g>
  </g>
  <g class="st65">
    <g>
      <path d="M334.7,215.2c.3.5.5.8,1,1,.4.2,1.2.2,2.3.2,1.5,0,3.4,0,5.2-.3-.2.2-.3.5-.3.8q0,.4-.4.4c-1.5,0-3,.1-4.2.1s-2.2,0-2.8-.3c-.6-.2-1-.6-1.3-1.1-.4.4-.7.7-1.1,1-.1,0-.2.2-.3.3,0,0,0,.1-.2.1s-.1,0-.2-.2c-.2-.3-.3-.6-.5-1.1.3-.1.5-.2.7-.4.3-.2.6-.5.9-.8v-2.7h-.5c-.6,0-.8,0-.8,0-.1,0-.1,0-.1-.1v-.9c0-.1,0-.1.1-.1s.2,0,.8,0h.7c.6,0,.8,0,.9,0,.1,0,.1,0,.1.1s0,.4,0,1.2v2.6ZM333.1,207.3c.1,0,.2,0,.3,0,.6.5,1.1,1.1,1.5,1.8,0,0,0,.1,0,.2l-.6.5c0,0-.1,0-.1,0,0,0,0,0-.1,0-.4-.7-.9-1.3-1.5-1.9,0,0,0-.1,0-.2l.6-.4ZM336.7,210.6c-1.2,0-1.6,0-1.7,0-.1,0-.1,0-.1-.1v-.6c0-.1,0-.1.1-.1s.5,0,1.7,0h1.6v-.4h-.9c-1.1,0-1.5,0-1.6,0-.1,0-.1,0-.1-.1s0-.2,0-.6v-.5c0-.4,0-.5,0-.6,0-.1,0-.1.1-.1s.5,0,1.6,0h.9c0-.2,0-.5,0-.7.4,0,.8,0,1.2,0,.1,0,.2,0,.2.1s0,.1,0,.2c0,0,0,.2,0,.4h1c1.1,0,1.5,0,1.6,0,.1,0,.1,0,.1.1s0,.2,0,.6v.5c0,.4,0,.5,0,.6,0,.1,0,.1-.1.1s-.5,0-1.6,0h-1v.4h1.7c1.2,0,1.6,0,1.7,0,.1,0,.1,0,.1.1v.6c0,.1,0,.1-.1.1s-.5,0-1.7,0h-4.5ZM341.8,213.6c0,.7,0,1,0,1,0,.1,0,.1-.1.1s-.4,0-1.3,0c.5.3,1.2.5,2.2.7-.2.1-.3.3-.4.5-.2.3-.2.3-.6.2-.8-.2-1.5-.5-2.1-.9-.1,0,0,0,0-.2l.5-.4h-2.8c.3.1.5.3.7.4,0,0,.1,0,.1.2s0,.1-.1.1c0,0-.2,0-.3.2-.3.2-.8.4-1.3.6-.4.1-.4,0-.6-.2-.1-.2-.3-.3-.5-.4.6-.1,1.1-.3,1.5-.5.1,0,.3-.2.3-.3-.8,0-1.2,0-1.2,0-.1,0-.1,0-.1-.1s0-.4,0-1v-1.5c0-.7,0-1,0-1,0-.1,0-.1.1-.1s.5,0,1.5,0h2.6c1.1,0,1.5,0,1.5,0s.1,0,.1.1,0,.4,0,1v1.5ZM338.3,208.6v-.4h-1.5v.4h1.5ZM337.1,211.6v.4h3.6v-.4h-3.6ZM340.7,213.1v-.4h-3.6v.4h3.6ZM340.7,213.7h-3.6v.4h3.6v-.4ZM341,208.2h-1.6v.4h1.6v-.4Z"/>
      <path d="M345.3,213.1c0-.4,0-.8,0-1.3-.2.3-.4.6-.7.9,0,.1-.2.2-.2.2s-.1,0-.2-.2c-.1-.4-.3-.8-.4-1,1.1-1.2,1.8-2.5,2.3-3.9.1-.3.2-.6.2-.9.4.1.8.2,1.1.4.1,0,.2.1.2.2s0,.1-.1.2c0,0-.1.2-.3.5-.2.6-.5,1.2-.7,1.7v6c0,1.2,0,1.8,0,1.8,0,.1,0,.1-.1.1h-1c-.1,0-.1,0-.1-.1s0-.6,0-1.8v-2.8ZM349,212.2c-1.2,0-1.6,0-1.6,0-.1,0-.1,0-.1-.1v-.9c0-.1,0-.1.1-.1s.5,0,1.6,0h4.2c1.2,0,1.6,0,1.6,0,.1,0,.1,0,.1.1v.9c0,.1,0,.1-.1.1s-.5,0-1.6,0h-2.3c-.4,1.4-.8,2.6-1.3,3.7,1-.1,2-.2,3.1-.4-.3-.5-.6-1-.9-1.4,0-.1,0-.2,0-.2l.7-.3c.1,0,.2,0,.3,0,.7,1,1.4,2.1,2,3.4,0,.1,0,.2-.1.3l-.8.4c-.2,0-.2,0-.2,0-.2-.4-.3-.7-.5-1-1.8.3-3.1.5-5,.7-.2,0-.4,0-.4,0,0,0-.2,0-.2,0s-.1,0-.2-.2c0-.3-.2-.7-.3-1.2.5,0,.8,0,1.2,0,.5-1.3.9-2.5,1.3-3.8h-.6ZM349.7,209c-1.1,0-1.5,0-1.5,0-.1,0-.1,0-.1-.1v-.9c0-.1,0-.1.1-.1s.4,0,1.5,0h2.8c1.1,0,1.5,0,1.5,0,.1,0,.1,0,.1.1v.9c0,.1,0,.1-.1.1s-.4,0-1.5,0h-2.8Z"/>
      <path d="M359.2,208.7c.9,0,1.1,0,1.2,0,.1,0,.1,0,.1.1s0,.5,0,1.7c.8-.9,1.2-1.9,1.5-2.7,0-.3.2-.6.2-1,.5,0,1,.2,1.2.3.2,0,.3.1.3.2s0,.1-.1.2c0,0-.2.3-.3.6,0,.2-.2.4-.3.7h2.2c.9,0,1.1,0,1.2,0,.1,0,.1,0,.1.1,0,.3,0,.7,0,1,0,2.8,0,4.5-.3,6.1-.2,1.2-.7,1.8-1.8,1.8-.3,0-.6,0-.9,0q-.3,0-.4-.4c0-.3-.2-.7-.3-.9.6,0,1.1.1,1.5.1.4,0,.6-.4.8-1,.2-1.3.3-3.2.3-5.6h-2.9c-.3.5-.6,1-1,1.5-.1.1-.2.2-.3.2s-.1,0-.3-.2c-.1-.1-.3-.3-.4-.4v2.5c0,2.8,0,3.3,0,3.4,0,.1,0,.1-.1.1h-.9c-.1,0-.1,0-.1-.1v-.6h-1.7v.9c0,.1,0,.1-.1.1h-.9c-.1,0-.1,0-.1-.1s0-.6,0-3.5v-2.1c0-2.1,0-2.7,0-2.7,0-.1,0-.1.1-.1s.3,0,1,0c.1-.4.3-.9.4-1.3,0-.2,0-.4,0-.7.4,0,.9.1,1.2.2.1,0,.2,0,.2.2s0,.1-.1.2c0,0-.1.2-.2.3-.1.4-.3.8-.4,1.1h.4ZM357.7,209.8v2.1h1.7v-2.1h-1.7ZM359.4,215.2v-2.2h-1.7v2.2h1.7ZM362.5,211.5c0,0,0,0,.1,0s0,0,0,0c.6.6,1.1,1.5,1.5,2.2,0,.1,0,.2,0,.3l-.7.5c0,0,0,0-.1,0,0,0,0,0,0-.1-.4-.9-.9-1.6-1.4-2.3,0,0,0-.1,0-.2l.7-.4Z"/>
      <path d="M371.9,212c.1,0,.2,0,.2,0,.4.7.8,1.4,1.3,1.9.3-.3.6-.7.8-1.1.2-.4.4-.7.5-1,.5.2.8.4,1.1.5.1,0,.2.1.2.2s0,.2-.1.2c-.1,0-.3.3-.4.5-.4.5-.7,1-1.1,1.4,1.1.8,2.6,1.4,4.6,1.8-.2.3-.4.6-.5.9,0,.2-.1.3-.2.3s-.2,0-.3,0c-2-.5-3.4-1.2-4.5-2.1-1,.9-2.3,1.5-4.3,2.1-.1,0-.2,0-.3,0-.1,0-.1,0-.2-.3-.1-.3-.3-.6-.5-.8,1.9-.4,3.4-1,4.5-1.9-.6-.6-1.1-1.4-1.5-2.2,0-.1,0-.1.1-.2l.8-.4ZM370.6,210.3c.2-.2.3-.5.5-.7.4.2.7.3.9.5.2.1.2.2.2.2s0,.1-.2.2c-.1,0-.3.2-.4.4-.5.7-1.3,1.4-2.3,2.1-.1,0-.2.1-.3.1s-.1,0-.2-.2c-.2-.3-.4-.6-.6-.7,1.1-.6,1.8-1.2,2.4-1.9ZM369.9,209.4c-1.1,0-1.5,0-1.5,0-.1,0-.1,0-.1-.1v-1c0-.1,0-.1.1-.1s.4,0,1.5,0h2.9v-.2c0-.5,0-.8,0-1.1.4,0,.9,0,1.3,0,.1,0,.2,0,.2.1s0,.1,0,.2c0,.1,0,.3,0,.7v.2h3c1.1,0,1.5,0,1.5,0,.1,0,.1,0,.1.1v1c0,.1,0,.1-.1.1s-.4,0-1.5,0h-7.1ZM375.5,209.7c0,0,.1,0,.1,0s0,0,.1,0c.8.9,1.8,1.8,3.1,2.3-.2.2-.5.5-.6.8-.1.2-.2.3-.3.3s-.2,0-.3-.1c-1.2-.7-2.1-1.5-2.9-2.6,0-.1,0-.1,0-.2l.6-.4Z"/>
      <path d="M380.5,210.1c0-.1.1-.1.2,0,.6.3,1.2.7,1.7,1.2,0,0,0,0,0,0,0,0,0,0,0,.1l-.6.8c0,0,0,0,0,0s0,0-.1,0c-.5-.5-1.1-.9-1.7-1.3,0,0,0,0,0,0,0,0,0,0,0-.1l.5-.6ZM380.7,216c.3-.7.8-1.6,1.2-2.8.2.2.4.4.7.6.2.1.3.2.3.3s0,.1,0,.3c-.3,1-.7,1.9-1.1,2.7-.1.2-.2.4-.2.5,0,0,0,.2-.1.2s-.1,0-.2,0c-.3-.2-.6-.4-.9-.7.3-.3.4-.6.6-.9ZM381,207.1c0-.1.1-.1.2,0,.6.3,1.1.8,1.7,1.2,0,0,0,0,0,.1s0,0,0,.1l-.5.8c0,.1-.1.1-.2,0-.5-.5-1.1-1-1.7-1.4,0,0,0,0,0,0,0,0,0,0,0-.1l.6-.6ZM383.9,213.5c0-.3,0-.6,0-1,.4,0,.7,0,1.1,0,.1,0,.2,0,.2.1s0,.2,0,.3c0,.1,0,.3,0,.6,0,1.9-.5,3-1.7,3.9-.1.1-.2.2-.3.2s-.1,0-.3-.2c-.2-.2-.5-.4-.7-.6,1.4-.8,1.8-1.7,1.9-3.4ZM388.5,209.5c.1,0,.2,0,.3,0,.7.6,1.4,1.4,1.9,2.1,0,.1,0,.1,0,.2l-.7.5c0,0-.1,0-.2,0s0,0,0,0c-.2-.3-.3-.5-.6-.8-1.7.2-3.5.4-5,.5-.3,0-.4,0-.5.1,0,0-.1,0-.2,0s-.1,0-.2-.2c0-.3-.2-.7-.2-1.1.5,0,.8,0,1.2,0,.1,0,.2,0,.4,0,.3-.6.6-1.2.7-1.7h-.3c-1.2,0-1.6,0-1.6,0-.1,0-.1,0-.1-.1v-.9c0-.1,0-.1.1-.1s.5,0,1.6,0h1.1v-.2c0-.4,0-.7,0-1.2.4,0,.9,0,1.3,0,.1,0,.2,0,.2.1,0,0,0,.2,0,.3,0,.1,0,.2,0,.7v.2h1.5c1.2,0,1.6,0,1.7,0,.1,0,.1,0,.1.1v.9c0,.1,0,.1-.1.1s-.5,0-1.7,0h-2.2c-.2.6-.5,1.1-.7,1.6.8,0,1.7-.1,2.4-.2-.2-.2-.3-.3-.5-.5,0,0,0-.1,0-.2l.6-.5ZM385.9,214.2c0-.6,0-1,0-1.6.3,0,.8,0,1.2,0,.1,0,.2,0,.2.1s0,.2,0,.3c0,.2,0,.4,0,1.1v1.6c0,.9,0,1.3,0,1.4,0,.1,0,.1-.1.1h-.9c-.1,0-.1,0-.1-.1s0-.5,0-1.4v-1.6ZM389.2,216.2c0,.2,0,.2,0,.3,0,0,.1,0,.3,0s.2,0,.3-.1c0-.2.1-.4.1-1.2.2.1.4.2.7.3.3,0,.3.1.3.4,0,.9-.2,1.2-.4,1.4-.2.2-.5.4-1.3.4s-.8,0-1-.2c-.2-.1-.3-.4-.3-.8v-2.9c0-.6,0-.9,0-1.2.3,0,.8,0,1.1,0,.1,0,.2,0,.2.1s0,.2,0,.3c0,.1,0,.2,0,.9v2.3Z"/>
      <path d="M395.7,208.6c0-.4.1-.8.1-1.3.6.1,1,.2,1.4.4.1,0,.2.1.2.2s0,.1,0,.2c-.1.2-.2.3-.2.5-.2.5-.3.9-.4,1.4.3,0,.7,0,1,0,1.1,0,1.7.8,1.7,2.3s-.2,2.9-.6,3.8c-.3.8-.9,1.1-1.6,1.1s-1,0-1.2-.2c-.1,0-.2-.2-.2-.3,0-.4,0-.7-.2-1.1.5.3,1,.3,1.4.3s.6-.1.8-.6c.3-.7.5-1.8.5-3s-.2-1.1-.7-1.1-.7,0-1,0c-.8,2.3-1.5,4-2.4,5.6,0,.2-.2.2-.3.1-.2-.1-.7-.4-.8-.5,0,0,0-.1,0-.2s0,0,0-.1c1-1.7,1.6-2.9,2.2-4.7-.5,0-.9.1-1.2.2-.3,0-.5.1-.7.2-.2,0-.3,0-.4-.2-.1-.3-.2-.7-.4-1.2.5,0,1.1,0,1.6,0,.5,0,.9-.1,1.4-.2.2-.7.3-1.1.4-1.5ZM400.4,209.5c0,0,.1,0,.2,0,.8.8,1.5,1.8,2,2.9,0,.1,0,.2,0,.2-.2.2-.7.5-.9.6-.1,0-.2,0-.3,0-.5-1.3-1.1-2.3-2-3.1.3-.2.6-.4,1-.6ZM400.8,207.8c0,0,.1,0,.2,0,.4.3.8.8,1.1,1.3,0,0,0,.1,0,.2l-.5.4c0,0-.1,0-.2,0-.4-.6-.7-1-1.2-1.4l.6-.4ZM401.8,207c0,0,.1,0,.2,0,.4.3.9.8,1.1,1.2,0,0,0,.1,0,.2l-.5.4c0,0-.2,0-.2,0-.3-.5-.7-1-1.2-1.4l.6-.4Z"/>
      <path d="M407.3,214.8q0,.4-.3.6c-.6.3-1.1.6-1.8.9-.2,0-.3.2-.4.2,0,0-.1.1-.2.1s-.1,0-.2-.2c-.1-.3-.3-.6-.4-1,.4,0,.7-.2,1-.3.6-.2,1.3-.5,2.1-1.1v.7ZM404.5,207.5c0-.1,0-.1.1-.1s.3,0,1.2,0h2c.6,0,.9,0,.9,0,.1,0,.1,0,.1.1s0,.4,0,1v.8c0,.6,0,.9,0,1,0,.1,0,.1-.1.1s-.3,0-.9,0h-1.8v1c-.1,0,1.9,0,1.9,0,.7,0,.9,0,1,0,.1,0,.1,0,.1.1,0,.4,0,.8,0,1.3-.1,2.3-.3,3.3-.4,3.8-.2.7-.7,1-1.6,1s-.4,0-.6,0c-.2,0-.3,0-.3-.4,0-.3-.2-.6-.3-.8.4,0,.7,0,1,0s.5,0,.6-.3c.2-.4.3-1.6.4-3.8h-2.2v.2c0,.1,0,.1-.7,0-.6,0-.6,0-.6-.2.2-.6.3-1.3.4-2.1,0-.3,0-.6,0-.8s0-.1.2-.1.4,0,.9,0h1.7v-1h-1.9c-.8,0-1.1,0-1.2,0-.1,0-.1,0-.1-.1v-.8ZM405.5,212.8c.1-.1.1-.1.2,0,.3.2.7.5,1.1.8,0,0,0,.1,0,.2l-.5.5c0,0-.1,0-.2,0s0,0-.1,0c-.3-.3-.6-.6-1-.9,0,0,0,0,0,0s0,0,0-.1l.5-.5ZM412.7,214.7q0,.4-.3.6c-.7.4-1.3.7-2,1-.2,0-.3.1-.4.2,0,0-.1.1-.2.1,0,0-.1,0-.2-.1-.1-.3-.3-.6-.4-1,.4-.1.6-.2,1-.3.6-.2,1.5-.6,2.3-1.1,0,.2,0,.4,0,.7ZM410.8,212.6c0,0,0,0,0,.1,0,0,0,0,.1,0,.3.2.7.5,1.1.8,0,0,0,0,0,0,0,0,0,0,0,.1l-.5.6c0,0,0,0-.1,0s0,0-.1,0c-.3-.3-.7-.6-1-.8,0,0,0,0,0-.1,0,0,0,0,0-.1l.4-.5s0,0,0,0c0,0-.2,0-.5,0-.6,0-.6,0-.5-.2.1-.6.3-1.3.4-2.1,0-.3,0-.6,0-.8,0-.1,0-.1.2-.1s.4,0,.9,0h1.8v-1h-2c-.9,0-1.1,0-1.2,0-.1,0-.1,0-.1-.1v-.8c0-.1,0-.1.1-.1s.3,0,1.2,0h2.1c.7,0,.9,0,1,0,.1,0,.1,0,.1.1s0,.4,0,1v.8c0,.6,0,.9,0,1,0,.1,0,.1-.1.1s-.3,0-1,0h-1.9c0,.3,0,.7-.1,1h2.3c.8,0,1,0,1.1,0,.1,0,.1,0,.1.1,0,.4,0,.8,0,1.3-.1,2.3-.3,3.3-.5,3.9-.2.6-.7.9-1.6.9s-.4,0-.6,0c-.3,0-.3,0-.3-.4,0-.3-.2-.6-.3-.8.4,0,.7,0,1,0s.5,0,.6-.3c.2-.4.3-1.6.4-3.8h-2.4v.2Z"/>
      <path d="M418.4,208.9c.1,0,.2.1.2.2s0,.2,0,.3c0,.1-.1.7-.1,1.2,0,.8,0,1.6.2,2.7.2.9.5,1.8,1,1.8s.7-.4,1.2-1.7c.3.4.5.7.8.9.1.1.1.3,0,.4-.5,1.2-1.2,1.9-2,1.9s-1.9-1.1-2.2-3.1c-.2-1.1-.3-2.4-.3-3.5s0-1-.1-1.6c.6,0,1.2.2,1.5.4ZM424,209.7s0,0,.1,0,0,0,.1,0c1.1.9,2.1,2.6,2.4,4.1,0,.2,0,.2-.1.3-.3.2-.6.4-.9.5-.1,0-.2,0-.3-.1-.4-1.7-1-3-2.2-4.2.5-.3.8-.5.9-.6Z"/>
      <path d="M437.1,210.9v.7h-7.3v-.7h7.3ZM437.1,213v.7h-7.3v-.7h7.3Z"/>
      <path d="M441.3,213.1c0-.4,0-.9,0-1.4-.3.3-.5.7-.8,1,0,.1-.2.2-.2.2s0,0-.1-.2c0-.4-.3-.9-.4-1.1,1-1.1,1.8-2.5,2.3-3.9,0-.3.2-.6.2-.9.4.1.8.2,1.2.4.1,0,.2,0,.2.2s0,.1-.1.2c0,0-.1.2-.3.5-.2.5-.4,1.1-.7,1.6v6.2c0,1.2,0,1.8,0,1.8,0,.1,0,.1-.1.1h-1c-.1,0-.1,0-.1-.1s0-.6,0-1.8v-2.8ZM446.4,208.7c0-.8,0-1.3,0-1.8.5,0,.9,0,1.3,0,.1,0,.2,0,.2.1s0,.2,0,.3c0,.1,0,.4,0,1.3v.7h1.3c1.2,0,1.6,0,1.6,0,.1,0,.1,0,.1.1s0,.5,0,1.5v1.5c0,1.7,0,2,0,2.1,0,.1,0,.1-.1.1h-1c-.1,0-.1,0-.1-.1v-.5h-1.8v1.5c0,1.4,0,2.1,0,2.1,0,.1,0,.1-.1.1h-1c-.1,0-.1,0-.1-.1s0-.7,0-2.1v-1.5h-1.7v.5c0,.1,0,.1-.1.1h-1c-.1,0-.1,0-.1-.1s0-.4,0-2.1v-1.4c0-1.2,0-1.6,0-1.6,0-.1,0-.1.1-.1s.5,0,1.6,0h1.1v-.7ZM444.7,213h1.7v-2.4h-1.7v2.4ZM447.6,210.5v2.4h1.8v-2.4h-1.8Z"/>
      <path d="M455.7,207.2c.8,0,1.1,0,1.2,0,.1,0,.1,0,.1.1s0,.4,0,1.1v1.5c0,.7,0,1.1,0,1.1,0,.1,0,.1-.1.1s-.4,0-1.2,0h-1.9v3.9c0,1.7,0,2.5,0,2.6,0,.1,0,.1-.1.1h-1c-.1,0-.1,0-.1-.1s0-.9,0-2.6v-5.2c0-1.7,0-2.5,0-2.6,0-.1,0-.1.1-.1s.5,0,1.4,0h1.7ZM453.7,208.1v.7h2.1v-.7h-2.1ZM455.8,209.6h-2.1v.7h2.1v-.7ZM455.3,216.9c-.1,0-.1,0-.1-.1s0-.4,0-2.2v-1.1c0-1.1,0-1.4,0-1.5,0-.1,0-.1.1-.1s.4,0,1.3,0h1.6c.9,0,1.2,0,1.3,0,.1,0,.1,0,.1.1s0,.4,0,1.3v1.2c0,1.7,0,2.1,0,2.1,0,.1,0,.1-.1.1h-.9c-.1,0-.1,0-.1-.1v-.4h-2.2v.5c0,.1,0,.1-.1.1h-.9ZM456.3,213.7h2.2v-.8h-2.2v.8ZM458.5,215.4v-.8h-2.2v.8h2.2ZM462.5,213.8c0,.8,0,1.8,0,2.4s0,.9-.3,1.1c-.3.2-.6.3-1.7.3s-.4,0-.4-.4c0-.3-.2-.6-.3-.9.4,0,.8,0,1,0,.4,0,.5-.1.5-.5v-4.8h-2c-.9,0-1.2,0-1.3,0-.1,0-.1,0-.1-.1s0-.3,0-1.1v-1.7c0-.7,0-1,0-1.1,0-.1,0-.1.1-.1s.4,0,1.3,0h1.8c.9,0,1.3,0,1.3,0,.1,0,.1,0,.1.1s0,.6,0,1.6v4.9ZM459,208.1v.7h2.2v-.7h-2.2ZM461.2,210.3v-.7h-2.2v.7h2.2Z"/>
      <path d="M467.7,208.6c0-.4.1-.8.1-1.3.6.1,1,.2,1.4.4.1,0,.2.1.2.2s0,.1,0,.2c-.1.2-.2.3-.2.5-.2.5-.3.9-.4,1.4.3,0,.7,0,1,0,1.1,0,1.7.8,1.7,2.3s-.2,2.9-.6,3.8c-.3.8-.9,1.1-1.6,1.1s-1,0-1.2-.2c-.1,0-.2-.2-.2-.3,0-.4,0-.7-.2-1.1.5.3,1,.3,1.4.3s.6-.1.8-.6c.3-.7.5-1.8.5-3s-.2-1.1-.7-1.1-.7,0-1,0c-.8,2.3-1.5,4-2.4,5.6,0,.2-.2.2-.3.1-.2-.1-.7-.4-.8-.5,0,0,0-.1,0-.2s0,0,0-.1c1-1.7,1.6-2.9,2.2-4.7-.5,0-.9.1-1.2.2-.3,0-.5.1-.7.2-.2,0-.3,0-.4-.2-.1-.3-.2-.7-.4-1.2.5,0,1.1,0,1.6,0,.5,0,.9-.1,1.4-.2.2-.7.3-1.1.4-1.5ZM472.4,209.5c0,0,.1,0,.2,0,.8.8,1.5,1.8,2,2.9,0,.1,0,.2,0,.2-.2.2-.7.5-.9.6-.1,0-.2,0-.3,0-.5-1.3-1.1-2.3-2-3.1.3-.2.6-.4,1-.6ZM472.8,207.8c0,0,.1,0,.2,0,.4.3.8.8,1.1,1.3,0,0,0,.1,0,.2l-.5.4c0,0-.1,0-.2,0-.4-.6-.7-1-1.2-1.4l.6-.4ZM473.8,207c0,0,.1,0,.2,0,.4.3.9.8,1.1,1.2,0,0,0,.1,0,.2l-.5.4c0,0-.2,0-.2,0-.3-.5-.7-1-1.2-1.4l.6-.4Z"/>
      <path d="M478.6,214c.4-.2.8-.3,1.2-.6,0,.2,0,.5,0,.7q0,.4-.3.6c-.7.4-1.5.7-2.3,1-.3.1-.4.2-.5.2,0,0-.1,0-.2,0s-.1,0-.2-.2c-.1-.3-.2-.7-.3-1.1.4,0,.8-.2,1.2-.3,0,0,.2,0,.3,0v-3.4h0c-.8,0-1,0-1.1,0-.1,0-.1,0-.1-.1v-.9c0-.1,0-.1.1-.1s.3,0,1.1,0h0v-1.1c0-.9,0-1.2,0-1.8.5,0,.8,0,1.2,0,.1,0,.2,0,.2.1,0,0,0,.2,0,.3,0,.1,0,.4,0,1.3v1.1c.6,0,.9,0,.9,0,.1,0,.1,0,.1.1v.9c0,.1,0,.1-.1.1s-.3,0-.9,0v3ZM481.6,206.8c.1,0,.2,0,.3,0,.3.3.6.8.8,1.2,0,.1,0,.1-.1.2l-.7.3h1.7c.3-.4.5-.8.6-1.2,0-.2.1-.3.2-.6.4,0,.8.2,1.2.3.1,0,.2,0,.2.1,0,0,0,.1-.1.2,0,0-.1.2-.2.2-.1.2-.3.6-.6.9h0c1.1,0,1.5,0,1.6,0s.1,0,.1.1,0,.4,0,1.1v1.8c0,.7,0,1,0,1.1,0,.1,0,.1-.1.1s-.5,0-1.6,0h-3.2c-1.1,0-1.5,0-1.6,0-.1,0-.1,0-.1-.1s0-.4,0-1.1v-1.8c0-.7,0-1,0-1.1,0-.1,0-.1.1-.1s.5,0,1.6,0h0c-.2-.4-.5-.9-.8-1.2,0-.1,0-.1,0-.2l.7-.3ZM480.7,217.8c-.1,0-.1,0-.1-.1s0-.4,0-2v-1c0-.9,0-1.2,0-1.3,0-.1,0-.1.1-.1s.4,0,1.5,0h2.3c1,0,1.4,0,1.5,0,.1,0,.1,0,.1.1s0,.4,0,1.2v1.1c0,1.6,0,1.9,0,2,0,.1,0,.1-.1.1h-1c-.1,0-.1,0-.1-.1v-.4h-3.1v.4c0,.1,0,.1-.1.1h-.9ZM482.7,210.2v-.8h-1.6v.8h1.6ZM482.7,211.8v-.8h-1.6v.8h1.6ZM481.7,214.9h3.1v-.7h-3.1v.7ZM484.9,216.4v-.7h-3.1v.7h3.1ZM483.8,209.4v.8h1.7v-.8h-1.7ZM485.5,211h-1.7v.8h1.7v-.8Z"/>
      <path d="M492,210.5c.9-.1,1.6-.3,2.1-.4.2,0,.3,0,.5-.2.1,0,.2,0,.3,0s.1,0,.2,0c.2.1.5.4.7.6,0,0,.1.2.1.3,0,.1,0,.2-.2.3s-.3.2-.4.3c-.9.8-1.4,1.3-2.2,2.2.2,0,.3,0,.4,0,.6,0,1.1.4,1.3,1.2.2,1,.4,1.2,1.3,1.2s1.3,0,1.9-.2c.1,0,.2,0,.2.2,0,.3,0,.7,0,1.1s0,.2-.2.2c-.5,0-1.2.2-1.8.2-1.8,0-2.3-.5-2.6-1.7-.2-.8-.3-1.2-.8-1.2s-.7.2-1.1.6c-.5.6-1.4,1.6-1.8,2.1,0,0,0,0-.2,0s0,0-.1,0c-.3-.2-.6-.5-.8-.7s0,0,0-.1c0,0,0-.1,0-.2.8-.8,1.5-1.5,2.3-2.3.5-.5,1.1-1.2,2.4-2.6-.9.2-1.7.4-2.5.6-.4.1-.6.2-.6.2,0,0-.2,0-.3,0s-.1,0-.2-.2c-.2-.3-.3-.7-.5-1.3,1,0,1.5,0,2.5-.2ZM495.3,207.9c.1,0,.2,0,.1.3,0,.3-.2.7-.3,1,0,0-.1.2-.2.1-1.1-.2-2.5-.6-3.3-1,0,0-.1,0-.1-.2,0-.3.2-.7.4-1.1,1.2.4,2.3.7,3.4,1Z"/>
      <path d="M503,208.2c.2.1.3.2.3.3s0,.1-.2.4c-.1.2-.2.4-.3.9-.3,1.5-.5,3-.5,3.9s0,1,0,1.4c.3-.6.5-.9.8-1.8,0,.3.3.5.4.8,0,0,0,.1,0,.2,0,0,0,.1,0,.2-.3.6-.5,1.1-.7,1.8,0,0,0,.2,0,.4s0,.2,0,.3,0,.1-.2.2c-.3,0-.6.2-1,.2,0,0-.1,0-.2-.1-.3-.8-.6-2.4-.6-3.6s.1-2.4.4-3.9c.2-.9.2-1.3.2-1.8.5.1.9.3,1.3.4ZM505.5,213.8c0,0,.1,0,.1.2,0,.8.6,1.1,2,1.1s1.5,0,2.3-.2c.1,0,.1,0,.2.2,0,.3,0,.7,0,1s0,.2-.2.2c-.8,0-1.4.1-2,.1-1.8,0-2.6-.3-3.1-1-.3-.4-.4-1-.4-1.6h1.1ZM504.9,209.3c0-.1,0-.2.2-.2.7-.1,2.1-.2,2.6-.2s1.3,0,1.8,0c.3,0,.3,0,.3.2,0,.4,0,.7,0,1,0,.1,0,.2-.2.1-.7,0-1.3,0-2,0s-1.6,0-2.7.3c0-.7,0-1,0-1.2Z"/>
      <path d="M519.7,208c0,0,0,.1,0,.2,0,.1,0,.2-.2.2-.1,0-.3.2-.6.4-1,.9-2.4,2.2-3.3,3.1-.1.1-.2.2-.2.3s0,.1.2.2c1.6,1.1,3.2,2.4,4.5,3.8,0,0,0,.1,0,.2s0,0,0,.1c-.3.3-.6.6-.8.8,0,0-.1,0-.2,0s0,0-.1-.1c-1.4-1.6-2.7-2.8-4.4-4.1-.5-.3-.6-.6-.6-1s.2-.7.6-1.1c1-1.1,2-2.1,3-3.2.3-.3.5-.6.6-.9.5.3,1,.6,1.3.9Z"/>
      <path d="M526.4,208.9c.1,0,.2.1.2.2s0,.2,0,.3c0,.1-.1.7-.1,1.2,0,.8,0,1.6.2,2.7.2.9.5,1.8,1,1.8s.7-.4,1.2-1.7c.3.4.5.7.8.9.1.1.1.3,0,.4-.5,1.2-1.2,1.9-2,1.9s-1.9-1.1-2.2-3.1c-.2-1.1-.3-2.4-.3-3.5s0-1-.1-1.6c.6,0,1.2.2,1.5.4ZM532,209.7s0,0,.1,0,0,0,.1,0c1.1.9,2.1,2.6,2.4,4.1,0,.2,0,.2-.1.3-.3.2-.6.4-.9.5-.1,0-.2,0-.3-.1-.4-1.7-1-3-2.2-4.2.5-.3.8-.5.9-.6Z"/>
    </g>
  </g>
</svg>