<?xml version="1.0" encoding="UTF-8"?>
<svg id="Layer_1" xmlns="http://www.w3.org/2000/svg" version="1.1" viewBox="0 0 618.7 102">
  <!-- Generator: Adobe Illustrator 29.2.1, SVG Export Plug-In . SVG Version: 2.1.0 Build 116)  -->
  <defs>
    <style>
      .st0, .st1, .st2 {
        fill: none;
        stroke: #000;
        stroke-miterlimit: 10;
      }

      .st0, .st2 {
        stroke-width: .5px;
      }

      .st2 {
        stroke-dasharray: 4.6 2.3;
      }

      .st3 {
        fill: #75c043;
      }
    </style>
  </defs>
  <rect class="st3" x="387.3" y="39.3" width="88" height="25.4"/>
  <g>
    <path d="M330,47.5l2.5,6.2,1.3-4.7c.1-.4.2-.7.2-.9s0-.3-.2-.3-.3-.1-.6-.1,0,0-.1,0v-.2h2.6v.2c-.3,0-.5,0-.7,0-.2,0-.3.2-.4.3-.1.2-.3.5-.4,1l-1.9,6.6h-.2l-2.6-6.7-1.4,5c-.1.4-.2.7-.2.9s0,.3.1.3.3.1.7.2v.2h-2.6v-.2c.4,0,.6,0,.7,0,.2,0,.3-.2.4-.3.1-.2.2-.5.4-1l1.6-5.5c-.2-.2-.3-.4-.5-.5s-.4-.1-.8-.1v-.2h2.1Z"/>
    <path d="M336.9,53.4l-.3,1.2h.7v.3h-.8l-.8,2.6c0,.3-.1.5-.1.5s0,0,0,.1,0,0,0,0c0,0,.2,0,.3-.2,0,0,.2-.2.5-.5h.1c-.3.5-.5.8-.8.9-.2.1-.3.2-.5.2s-.2,0-.3-.1c0,0-.1-.2-.1-.3s0-.4.1-.7l.7-2.5h-.7v-.2c.4,0,.6-.2.8-.4s.5-.5.7-.9h.2Z"/>
    <path d="M341.6,57.9v-2.2h-2.2v-.4h2.2v-2.2h.4v2.2h2.2v.4h-2.2v2.2h-.4Z"/>
    <path d="M347.7,53.1l1.5-.7h.1v5c0,.3,0,.5,0,.6s0,.1.2.2.3,0,.5,0v.2h-2.2v-.2c.3,0,.5,0,.5,0,0,0,.1,0,.2-.2s0-.3,0-.6v-3.2c0-.4,0-.7,0-.8,0,0,0-.2-.1-.2s-.1,0-.2,0c-.1,0-.3,0-.5.1h0Z"/>
  </g>
  <g>
    <path d="M413.1,47.5l2.5,6.2,1.3-4.7c.1-.4.2-.7.2-.9s0-.3-.2-.3-.3-.1-.6-.1,0,0-.1,0v-.2h2.6v.2c-.3,0-.5,0-.7,0-.2,0-.3.2-.4.3-.1.2-.3.5-.4,1l-1.9,6.6h-.2l-2.6-6.7-1.4,5c-.1.4-.2.7-.2.9s0,.3.1.3.3.1.7.2v.2h-2.6v-.2c.4,0,.6,0,.7,0,.2,0,.3-.2.4-.3.1-.2.2-.5.4-1l1.6-5.5c-.2-.2-.3-.4-.5-.5s-.4-.1-.8-.1v-.2h2.1Z"/>
    <path d="M420,53.4l-.3,1.2h.7v.3h-.8l-.8,2.6c0,.3-.1.5-.1.5s0,0,0,.1,0,0,0,0c0,0,.2,0,.3-.2,0,0,.2-.2.5-.5h.1c-.3.5-.5.8-.8.9-.2.1-.3.2-.5.2s-.2,0-.3-.1c0,0-.1-.2-.1-.3s0-.4.1-.7l.7-2.5h-.7v-.2c.4,0,.6-.2.8-.4.2-.2.5-.5.7-.9h.2Z"/>
  </g>
  <g>
    <path d="M413.5,3.2l2.5,6.2,1.3-4.7c.1-.4.2-.7.2-.9s0-.3-.2-.3-.3-.1-.6-.1,0,0-.1,0v-.2h2.6v.2c-.3,0-.5,0-.7,0-.2,0-.3.2-.4.3-.1.2-.3.5-.4,1l-1.9,6.6h-.2l-2.6-6.7-1.4,5c-.1.4-.2.7-.2.9s0,.3.1.3.3.1.7.2v.2h-2.6v-.2c.4,0,.6,0,.7,0,.2,0,.3-.2.4-.3.1-.2.2-.5.4-1l1.6-5.5c-.2-.2-.3-.4-.5-.5s-.4-.1-.8-.1v-.2h2.1Z"/>
    <path d="M418.4,11.2c0-.7.1-1.3.3-1.8.2-.5.5-.9.8-1.1.3-.2.5-.3.8-.3.5,0,.9.2,1.2.7.5.6.7,1.4.7,2.3s0,1.3-.3,1.8-.5.8-.8,1.1c-.3.2-.6.3-.9.3-.6,0-1-.3-1.4-1-.3-.6-.5-1.2-.5-2ZM419.2,11.3c0,.8.1,1.5.3,2,.2.4.4.7.7.7s.3,0,.5-.2c.2-.1.3-.4.4-.7.1-.5.2-1.2.2-2.1s0-1.2-.2-1.7c-.1-.3-.2-.6-.4-.7-.1,0-.3-.1-.4-.1s-.4,0-.5.3c-.2.2-.4.6-.4,1.1s-.1,1-.1,1.5Z"/>
    <path d="M425.8,6h6.3v.5h-6.3v-.5ZM425.8,7.9h6.3v.5h-6.3v-.5Z"/>
    <path d="M435.9,4.7c.2-.5.5-.9.9-1.2s.8-.4,1.3-.4,1.1.2,1.5.6c.3.3.4.6.4,1,0,.6-.4,1.2-1.1,1.8.5.2.9.5,1.1.8s.4.8.4,1.3c0,.7-.2,1.3-.7,1.8-.6.7-1.4,1-2.5,1s-.9,0-1.1-.2-.3-.3-.3-.4,0-.2.1-.3.2-.1.3-.1.2,0,.3,0c0,0,.2,0,.5.2s.4.2.5.2c.1,0,.3,0,.5,0,.4,0,.7-.2,1-.5s.4-.7.4-1.1,0-.6-.2-.9c-.1-.2-.2-.4-.3-.5-.2-.2-.4-.3-.7-.4s-.6-.2-.9-.2h-.2v-.2c.3,0,.6-.2.9-.3s.5-.4.7-.7.2-.5.2-.8-.1-.7-.4-1-.6-.4-.9-.4c-.6,0-1.1.3-1.5,1h-.2Z"/>
    <path d="M441.7,7.2c0-.9.1-1.7.4-2.3s.6-1.1,1.1-1.5c.4-.3.7-.4,1.1-.4.6,0,1.2.3,1.6.9.6.8.9,1.8.9,3.1s-.1,1.7-.4,2.3-.6,1.1-1,1.4-.8.4-1.2.4c-.8,0-1.4-.4-1.9-1.3-.4-.8-.6-1.7-.6-2.7ZM442.9,7.4c0,1.1.1,2,.4,2.7.2.6.6.9,1,.9s.4,0,.7-.3.4-.5.5-1c.2-.7.3-1.6.3-2.8s0-1.7-.3-2.3c-.1-.4-.3-.8-.5-1-.2-.1-.4-.2-.6-.2s-.5.1-.7.4c-.3.3-.5.8-.6,1.5s-.2,1.4-.2,2.1Z"/>
  </g>
  <path d="M441.1,50.5l2-.3-.8,2.8c.7-1.2,1.3-2,1.9-2.4.3-.3.6-.4.8-.4s.2,0,.3.1.1.2.1.3c0,.3,0,.5-.2.7,0,.2-.2.3-.4.3s-.2,0-.2,0-.1-.1-.1-.3c0,0,0-.1,0-.1,0,0,0,0-.1,0,0,0-.1,0-.2,0-.1,0-.3.2-.5.5-.3.4-.7.9-1.1,1.5-.2.3-.3.5-.4.9-.2.4-.3.7-.3.8l-.2.7h-.9l1.1-3.6c.1-.4.2-.7.2-.9s0-.1,0-.2-.2,0-.3,0-.2,0-.5,0v-.2Z"/>
  <path d="M432.3,51.3c.3,0,.6.1.9.4s.4.5.4.9-.1.6-.4.9-.5.4-.9.4-.6-.1-.9-.4-.4-.5-.4-.9.1-.6.4-.9c.2-.2.5-.4.9-.4Z"/>
  <g>
    <path d="M460.9,31.5c.3,0,.5,0,.7,0q0,.2,0,.5c-.1,1.8-.3,2.8-.9,4,.4.6.7.9,1.2,1.1.6.3,1.5.4,2.8.4s.9,0,1.7,0c-.2.4-.2.6-.3,1-.3,0-.9,0-1.2,0-.8,0-1.8,0-2.4-.2-.9-.2-1.6-.6-2.3-1.5-.6.8-1,1.3-1.8,2-.2-.4-.3-.7-.6-.9.9-.7,1.4-1.2,1.9-1.9-.3-.6-.4-.9-.6-1.6-.2.5-.4.7-.7,1.2-.2-.4-.3-.6-.6-.9.5-.6.8-1.3,1.1-2.2.2-.7.3-1.5.3-1.9s0,0,0-.1h1c0,.2,0,.4,0,.6,0,.2,0,.3,0,.5h1ZM459.8,32.4c0,.3-.1.5-.2.8.3,1,.4,1.2.6,1.8.3-.7.4-1.4.5-2.6h-.9ZM463.2,31.8c0,1.5,0,2.3-.2,3.1-.2.9-.4,1.4-.8,2-.3-.3-.4-.4-.8-.7.7-.9.9-1.7.9-4.7s0-.5,0-.7c.2,0,.3,0,.7,0h1.2c.4,0,.6,0,.8,0,0,.2,0,.4,0,.8v3.9c0,.1,0,.2.2.2s.2,0,.3-.3c0-.3,0-.6,0-1.4.3.1.5.2.8.3,0,1.1-.1,1.7-.2,2-.1.3-.4.4-1,.4-.8,0-1-.1-1-.7v-4.2h-.8Z"/>
    <path d="M467.6,31.7c-.3,0-.5,0-.7,0v-1c.2,0,.5,0,.8,0h1.3c.4,0,.6,0,.8,0v1c-.2,0-.4,0-.7,0h-.3v1.8h.2c.2,0,.4,0,.6,0v.9c-.2,0-.4,0-.6,0h-.2v1.8c.4-.2.5-.2.9-.4v1c-.8.4-1.1.5-2.5,1.1,0,0,0,0-.2,0l-.2-1c.3,0,.5-.1,1.1-.3v-2.1h-.3c-.3,0-.4,0-.6,0v-.9c.2,0,.4,0,.6,0h.3v-1.8h-.3ZM472,36.6h-1c-.5,0-.7,0-.9,0v-.9c.2,0,.4,0,.9,0h1v-.7h-.9c-.6,0-.8,0-1.1,0q0-.2,0-1.1v-2c0-.6,0-.9,0-1.2.3,0,.6,0,1.2,0h2.5c.7,0,.9,0,1.2,0,0,.3,0,.7,0,1.2v1.9c0,.6,0,.9,0,1.2-.3,0-.4,0-1,0h-1v.7h1.2c.5,0,.7,0,1,0v.9c-.3,0-.5,0-.9,0h-1.2v.9h1.5c.5,0,.7,0,1,0v1c-.3,0-.5,0-1,0h-3.8c-.5,0-.7,0-1,0v-1c.2,0,.4,0,.9,0h1.6v-.9ZM471,31.6v.9h1v-.9h-1ZM471,33.3v.9h1v-.9h-1ZM472.9,32.5h1v-.9h-1v.9ZM472.9,34.2h1v-.9h-1v.9Z"/>
  </g>
  <g>
    <path d="M364.8,45.7c0-.5,0-.7,0-1-.4.5-.5.7-.9,1.1-.2-.5-.3-.7-.5-1,.8-.8,1.4-1.6,1.8-2.7.2-.4.3-.9.4-1.2l1,.4c-.3.8-.5,1.2-.8,1.9v5c0,.4,0,.8,0,1.1h-1.1c0-.3,0-.6,0-1.1v-2.4ZM369,44.2c.2,1.2.5,2,.9,2.8.3.5.7,1,.9,1s.3-.4.4-1.5c.4.3.5.4.9.6-.2,1.5-.5,2.1-1.2,2.1s-.9-.3-1.4-.9c-.8-1-1.3-2.3-1.5-3.9h-1c-.4.1-.6.1-.9.2v-1c.1,0,.2,0,.3,0,.2,0,.5,0,.7,0h.8c0-.8,0-.9,0-1.8,0-.2,0-.5,0-.7h1.1c0,.2,0,.4,0,.7,0,.5,0,.9,0,1.6l1.9-.2c.5,0,.7,0,1-.1v1c-.1,0-.2,0-.2,0-.1,0-.4,0-.7,0l-1.9.2ZM369.9,41c.5.4.6.6,1.4,1.4l-.7.7c-.2-.3-.3-.4-.7-.8q-.4-.5-.7-.7l.7-.6Z"/>
    <path d="M375.1,42.3c-.2,0-.5,0-.9,0v-1.1c.3,0,.5,0,.8,0h1.4c.4,0,.6,0,.8,0,0,.3,0,.3,0,.6,0,1.3.3,2.5,1,3.6.4.6.8,1.2,1.4,1.7.5.4.7.6,1.3,1-.3.3-.5.6-.8,1-.9-.6-1.6-1.3-2.2-2.1-.3-.4-.5-.8-.8-1.3-.2-.5-.3-.7-.5-1.3-.3,1.2-.7,1.9-1.3,2.7-.6.7-1.3,1.4-2.2,2-.2-.4-.4-.7-.7-.9.8-.4,1.2-.8,1.8-1.4.7-.7,1.3-1.7,1.5-2.7.2-.6.3-1.1.3-1.8h-1.1Z"/>
  </g>
  <g>
    <path d="M382.1,8.2v2.1c0,.5,0,.8,0,1.1h-1.1c0-.3,0-.7,0-1.1v-1.9q0,0,0-.2c-.3.3-.6.5-1,.8-.1-.3-.2-.6-.5-.9.5-.3.9-.6,1.3-1,.5-.5.8-.9,1.2-1.6h-1.3c-.3,0-.6,0-.8,0v-1c.3,0,.4,0,.8,0h.3v-.7c0-.3,0-.5,0-.7h1.1c0,.2,0,.4,0,.7v.7h.2c.3,0,.5,0,.6,0l.4.5c0,0,0,.2-.2.4-.2.5-.5,1-1,1.6,0,.1.1.2.3.3.4-.5.6-.8.9-1.3l.7.5c-.6.8-.6.9-.9,1.2.2.1.3.2.6.4-.2.2-.3.4-.5.8-.4-.3-.8-.6-1.1-.9h0ZM384.4,4.6c-.4,0-.8,0-1.1,0v-1c.3,0,.6,0,1.1,0h2.6c.4,0,.7,0,.9,0q0,.3,0,1.9c0,2.4-.2,4.1-.4,4.8,0,.3-.2.5-.5.6-.2.1-.4.1-.9.1s-.4,0-.9,0c0-.5,0-.7-.2-1,.5,0,.8,0,1.1,0s.5-.1.6-.7c0-.4.2-1.4.2-2.1,0-.9,0-1.2,0-2.8h-1.3c0,1.5-.1,2.4-.4,3.3-.2.9-.6,1.6-1.1,2.3-.3.4-.5.6-1,1-.2-.4-.4-.6-.7-.8.6-.5,1-1,1.3-1.6.5-.9.7-1.8.8-3.1,0-.4,0-.5,0-1.1h-.2Z"/>
    <path d="M389.6,4c0-.3,0-.5,0-.8h1c0,.2,0,.4,0,.8v.2h1.3v-.2c0-.4,0-.6,0-.8h1c0,.2,0,.4,0,.8v.2c.3,0,.5,0,.6,0v.9c-.2,0-.3,0-.6,0v3.5c.3,0,.4,0,.5,0v.9c-.2,0-.4,0-.8,0h-3c-.4,0-.5,0-.7,0v-.9c.2,0,.3,0,.7,0h.1v-3.5c-.4,0-.5,0-.7,0v-.9c.2,0,.3,0,.7,0v-.2ZM390.9,9.8c-.5.8-.7,1-1.4,1.6-.2-.3-.3-.4-.7-.7.6-.4.9-.8,1.3-1.4l.8.5ZM391.8,5.6v-.6h-1.3v.6h1.3ZM391.8,7v-.6h-1.3v.6h1.3ZM391.8,8.5v-.7h-1.3v.7h1.3ZM392,9.4c.3.5.3.5.8,1-.3.2-.5.4-.7.7q-.5-.6-.9-1.2l.7-.5ZM394.4,8.6c-.1,1.4-.4,2.1-1,2.9-.3-.3-.5-.5-.8-.7.4-.5.6-1,.8-1.7.1-.8.2-2.1.2-4.4s0-.9,0-1.2c.3,0,.5,0,1,0h1.3c.5,0,.7,0,1,0,0,.2,0,.5,0,1v6c0,.4-.1.7-.4.8-.2,0-.5.1-.9.1s-.1,0-.6,0c0-.4,0-.6-.2-1,.4,0,.6,0,.8,0s.3,0,.3-.2v-1.7h-1.5ZM394.5,6.5c0,.5,0,.9,0,1.3h1.4v-1.3h-1.4ZM395.8,4.4h-1.3v1.2h1.3v-1.2Z"/>
    <path d="M398.6,7.7c0-.3,0-.6,0-1-.3.5-.4.6-.6.9,0-.4-.2-.7-.4-1.1.6-.7,1-1.3,1.3-2.2.2-.5.3-.9.4-1.3l1,.2q-.4,1.3-.8,2v5.1c0,.4,0,.7,0,1h-1c0-.4,0-.6,0-1.1v-2.7ZM400.2,11.5c0-.3,0-.6,0-1.1v-4c0-.5,0-.7,0-1h1c0,.3,0,.6,0,1v3.8h4c.5,0,.7,0,1,0v1c-.3,0-.6,0-1,0h-4v.4h-1ZM401.2,4.7c-.4,0-.6,0-.8,0v-.9c.2,0,.5,0,1,0h1.6c0-.3,0-.4,0-.7h1q0,.5-.1.7h1.4c.4,0,.6,0,.9,0v.9c-.3,0-.5,0-.8,0h-1.6q0,.3-.1.6h1.3c.4,0,.6,0,.8,0,0,.3,0,.5,0,.9v2.7c0,.4,0,.5,0,.8-.3,0-.5,0-.8,0h-2.3c-.3,0-.4,0-.8,0,0-.2,0-.4,0-.7v-3c0-.4,0-.6,0-.7.2,0,.4,0,.7,0h.1c0-.3,0-.4.1-.6h-1.6ZM402.7,6.6h2v-.5h-2v.5ZM402.7,7.7h2v-.5h-2v.5ZM402.7,8.9h2v-.5h-2v.5Z"/>
  </g>
  <g>
    <line x1="415.7" y1="15.1" x2="415.7" y2="45.5"/>
    <g>
      <line class="st0" x1="415.7" y1="15.1" x2="415.7" y2="17.1"/>
      <line class="st2" x1="415.7" y1="19.4" x2="415.7" y2="38.7"/>
      <line class="st0" x1="415.7" y1="39.9" x2="415.7" y2="41.9"/>
      <polygon points="413.2 41.1 415.7 45.5 418.2 41.1 413.2 41.1"/>
    </g>
  </g>
  <g>
    <polyline class="st1" points="415.7 68.5 415.7 84.5 338.1 84.5 338.1 67.1"/>
    <polygon points="332 67.9 344.2 67.9 338.1 61.9 332 67.9"/>
  </g>
  <g>
    <line class="st1" x1="354.1" y1="53.7" x2="397.5" y2="53.7"/>
    <polygon points="396.7 47.6 396.7 59.8 402.8 53.7 396.7 47.6"/>
  </g>
  <rect class="st3" x="196.5" y="39.3" width="88" height="25.4"/>
  <g>
    <path d="M139.1,47.5l2.5,6.2,1.3-4.7c.1-.4.2-.7.2-.9s0-.3-.2-.3-.3-.1-.6-.1,0,0-.1,0v-.2h2.6v.2c-.3,0-.5,0-.7,0-.2,0-.3.2-.4.3-.1.2-.3.5-.4,1l-1.9,6.6h-.2l-2.6-6.7-1.4,5c-.1.4-.2.7-.2.9s0,.3.1.3.3.1.7.2v.2h-2.6v-.2c.4,0,.6,0,.7,0,.2,0,.3-.2.4-.3.1-.2.2-.5.4-1l1.6-5.5c-.2-.2-.3-.4-.5-.5s-.4-.1-.8-.1v-.2h2.1Z"/>
    <path d="M146,53.4l-.3,1.2h.7v.3h-.8l-.8,2.6c0,.3-.1.5-.1.5s0,0,0,.1,0,0,0,0c0,0,.2,0,.3-.2,0,0,.2-.2.5-.5h.1c-.3.5-.5.8-.8.9-.2.1-.3.2-.5.2s-.2,0-.3-.1c0,0-.1-.2-.1-.3s0-.4.1-.7l.7-2.5h-.7v-.2c.4,0,.6-.2.8-.4s.5-.5.7-.9h.2Z"/>
    <path d="M150.8,57.9v-2.2h-2.2v-.4h2.2v-2.2h.4v2.2h2.2v.4h-2.2v2.2h-.4Z"/>
    <path d="M156.8,53.1l1.5-.7h.1v5c0,.3,0,.5,0,.6s0,.1.2.2.3,0,.5,0v.2h-2.2v-.2c.3,0,.5,0,.5,0,0,0,.1,0,.2-.2s0-.3,0-.6v-3.2c0-.4,0-.7,0-.8,0,0,0-.2-.1-.2s-.1,0-.2,0c-.1,0-.3,0-.5.1h0Z"/>
  </g>
  <g>
    <path d="M222.3,47.5l2.5,6.2,1.3-4.7c.1-.4.2-.7.2-.9s0-.3-.2-.3-.3-.1-.6-.1,0,0-.1,0v-.2h2.6v.2c-.3,0-.5,0-.7,0-.2,0-.3.2-.4.3-.1.2-.3.5-.4,1l-1.9,6.6h-.2l-2.6-6.7-1.4,5c-.1.4-.2.7-.2.9s0,.3.1.3.3.1.7.2v.2h-2.6v-.2c.4,0,.6,0,.7,0,.2,0,.3-.2.4-.3.1-.2.2-.5.4-1l1.6-5.5c-.2-.2-.3-.4-.5-.5s-.4-.1-.8-.1v-.2h2.1Z"/>
    <path d="M229.2,53.4l-.3,1.2h.7v.3h-.8l-.8,2.6c0,.3-.1.5-.1.5s0,0,0,.1,0,0,0,0c0,0,.2,0,.3-.2,0,0,.2-.2.5-.5h.1c-.3.5-.5.8-.8.9-.2.1-.3.2-.5.2s-.2,0-.3-.1c0,0-.1-.2-.1-.3s0-.4.1-.7l.7-2.5h-.7v-.2c.4,0,.6-.2.8-.4s.5-.5.7-.9h.2Z"/>
  </g>
  <path d="M250.3,50.5l2-.3-.8,2.8c.7-1.2,1.3-2,1.9-2.4.3-.3.6-.4.8-.4s.2,0,.3.1.1.2.1.3c0,.3,0,.5-.2.7,0,.2-.2.3-.4.3s-.2,0-.2,0-.1-.1-.1-.3c0,0,0-.1,0-.1,0,0,0,0-.1,0,0,0-.1,0-.2,0-.1,0-.3.2-.5.5-.3.4-.7.9-1.1,1.5-.2.3-.3.5-.4.9-.2.4-.3.7-.3.8l-.2.7h-.9l1.1-3.6c.1-.4.2-.7.2-.9s0-.1,0-.2-.2,0-.3,0-.2,0-.5,0v-.2Z"/>
  <path d="M241.5,51.3c.3,0,.6.1.9.4s.4.5.4.9-.1.6-.4.9-.5.4-.9.4-.6-.1-.9-.4-.4-.5-.4-.9.1-.6.4-.9.5-.4.9-.4Z"/>
  <g>
    <path d="M270.1,31.5c.3,0,.5,0,.7,0q0,.2,0,.5c-.1,1.8-.3,2.8-.9,4,.4.6.7.9,1.2,1.1.6.3,1.5.4,2.8.4s.9,0,1.7,0c-.2.4-.2.6-.3,1-.3,0-.9,0-1.2,0-.8,0-1.8,0-2.4-.2-.9-.2-1.6-.6-2.3-1.5-.6.8-1,1.3-1.8,2-.2-.4-.3-.7-.6-.9.9-.7,1.4-1.2,1.9-1.9-.3-.6-.4-.9-.6-1.6-.2.5-.4.7-.7,1.2-.2-.4-.3-.6-.6-.9.5-.6.8-1.3,1.1-2.2.2-.7.3-1.5.3-1.9s0,0,0-.1h1c0,.2,0,.4,0,.6,0,.2,0,.3,0,.5h1ZM269,32.4c0,.3-.1.5-.2.8.3,1,.4,1.2.6,1.8.3-.7.4-1.4.5-2.6h-.9ZM272.3,31.8c0,1.5,0,2.3-.2,3.1-.2.9-.4,1.4-.8,2-.3-.3-.4-.4-.8-.7.7-.9.9-1.7.9-4.7s0-.5,0-.7c.2,0,.3,0,.7,0h1.2c.4,0,.6,0,.8,0,0,.2,0,.4,0,.8v3.9c0,.1,0,.2.2.2s.2,0,.3-.3c0-.3,0-.6,0-1.4.3.1.5.2.8.3,0,1.1-.1,1.7-.2,2-.1.3-.4.4-1,.4-.8,0-1-.1-1-.7v-4.2h-.8Z"/>
    <path d="M276.8,31.7c-.3,0-.5,0-.7,0v-1c.2,0,.5,0,.8,0h1.3c.4,0,.6,0,.8,0v1c-.2,0-.4,0-.7,0h-.3v1.8h.2c.2,0,.4,0,.6,0v.9c-.2,0-.4,0-.6,0h-.2v1.8c.4-.2.5-.2.9-.4v1c-.8.4-1.1.5-2.5,1.1,0,0,0,0-.2,0l-.2-1c.3,0,.5-.1,1.1-.3v-2.1h-.3c-.3,0-.4,0-.6,0v-.9c.2,0,.4,0,.6,0h.3v-1.8h-.3ZM281.1,36.6h-1c-.5,0-.7,0-.9,0v-.9c.2,0,.4,0,.9,0h1v-.7h-.9c-.6,0-.8,0-1.1,0q0-.2,0-1.1v-2c0-.6,0-.9,0-1.2.3,0,.6,0,1.2,0h2.5c.7,0,.9,0,1.2,0,0,.3,0,.7,0,1.2v1.9c0,.6,0,.9,0,1.2-.3,0-.4,0-1,0h-1v.7h1.2c.5,0,.7,0,1,0v.9c-.3,0-.5,0-.9,0h-1.2v.9h1.4c.5,0,.7,0,1,0v1c-.3,0-.5,0-1,0h-3.8c-.5,0-.7,0-1,0v-1c.2,0,.4,0,.9,0h1.6v-.9ZM280.1,31.6v.9h1v-.9h-1ZM280.1,33.3v.9h1v-.9h-1ZM282,32.5h1v-.9h-1v.9ZM282,34.2h1v-.9h-1v.9Z"/>
  </g>
  <g>
    <path d="M361,93.3c0,1.4-.2,1.9-.4,2.7l-.7-.4c.2-.7.3-1.2.4-2.5h.7ZM360,91.9c.2,0,.3,0,.4,0h.2c.2-.3.3-.4.4-.6-.3-.4-.6-.9-1.1-1.4l.5-.7c.1.1.2.2.3.3.3-.5.5-1.1.6-1.5l.9.4q-.2.3-.4.8c-.2.3-.4.6-.6,1,.2.2.2.3.3.4.5-.8.7-1.2.9-1.6l.8.4c0,.1-.1.2-.3.4-.5.7-.8,1.3-1.4,2,.5,0,.6,0,.9,0,0-.2-.1-.3-.3-.7l.6-.2c.3.5.4.9.5,1.5,0-.1,0-.3,0-.4v-.7c0-.3,0-.5,0-.6.2,0,.3,0,.6,0h1.1c.3,0,.5,0,.6,0,0,.2,0,.4,0,.6v.8c0,.2,0,.2,0,.4h.4c0-.2,0-.3,0-.4v-.8c0-.3,0-.4,0-.6.1,0,.3,0,.6,0h1.3c.2,0,.4,0,.4,0,0,0,0,.3,0,.5v1c0,.2,0,.3,0,.4-.2,0-.3,0-.5,0h-1.3c0,0-.1,0-.2,0,0,.1,0,.2,0,.3v.2h1.4c.4,0,.7,0,.9,0v.9c-.3,0-.6,0-.9,0h-.9c.2.2.3.3.5.5.5.4.8.5,1.6.8-.2.3-.3.5-.4.9-.6-.3-.9-.5-1.3-.8-.4-.3-.5-.5-.8-.9,0,.5,0,.6,0,.8v.5c0,.3,0,.6,0,.8h-1c0-.3,0-.5,0-.8v-.5c0-.3,0-.4,0-.7-.3.4-.4.5-.6.8-.4.4-.7.6-1.3,1-.1-.3-.3-.5-.5-.8.9-.4,1.4-.8,2-1.5h-.6c-.4,0-.6,0-.9,0v-.9c.2,0,.5,0,.9,0h1.1v-.2c0-.2,0-.2,0-.3h-1.4c-.2,0-.3,0-.4,0h0c0,.1-.7.4-.7.4,0-.2,0-.2,0-.4-.2,0-.2,0-.5,0v2.7c0,.6,0,.8,0,1.1h-1c0-.3,0-.5,0-1.1v-2.6q-1,0-1.2.1v-.9ZM362.9,93.1c.2.8.2,1.1.3,1.8l-.7.2c0-.9,0-1.1-.3-1.9h.6ZM363.9,89c0-.3,0-.5,0-.6.2,0,.4,0,.7,0h2.2c.4,0,.6,0,.8,0,0,.2,0,.3,0,.6v.8c0,.3,0,.4,0,.6-.2,0-.4,0-.7,0h-2.2c-.4,0-.5,0-.7,0,0-.2,0-.4,0-.6v-.8ZM364,91.9h.8v-.6h-.8v.6ZM364.7,89.7h1.8v-.6h-1.8v.6ZM366.5,91.9h.8v-.6h-.8v.6Z"/>
    <path d="M371.3,88.3c-.1.3-.2.5-.3,1.7,0,.4,0,.7-.1.9h0q0,0,0-.2c0-.3.3-.8.6-1.1.5-.6,1.1-.9,1.7-.9s1.2.3,1.5.8c.5.6.6,1.3.6,2.4,0,1.7-.8,3-2.3,3.7-.5.2-1.1.4-1.8.5-.2-.5-.3-.7-.5-1.1.9,0,1.4-.2,2-.5,1-.5,1.5-1.4,1.5-2.8s-.4-2-1.2-2-.7.2-1,.5c-.7.7-1.1,1.8-1.1,2.9v.2h-1.1s0,0,0,0v-.2c0-.3,0-.9,0-1.1,0-.7,0-1.7.1-2.3v-1.1c.2-.2.2-.2.2-.3h1.1Z"/>
    <path d="M376.9,91.6c.2,0,.4,0,.7,0h.7c.3,0,.5,0,.7,0,0,.3,0,.5,0,1v1.9c.2.4.4.5.7.6.4.2.8.2,1.8.2,1.8,0,3,0,3.9-.2-.1.4-.2.7-.3,1.1-.8,0-2.2,0-2.8,0-1.3,0-2.2,0-2.7-.2-.4-.1-.8-.4-1.1-.8-.4.4-.6.5-1,.9,0,0-.2.1-.3.2l-.4-1c.4-.1.9-.5,1.3-.9v-1.9h-.5c-.2,0-.4,0-.6,0v-1ZM377.6,88.3c.7.6,1.1,1,1.6,1.6l-.7.7c-.5-.7-.8-1.1-1.5-1.7l.7-.7ZM380.7,91.2c0,1.1-.2,1.6-.3,2.3-.1.5-.3.9-.7,1.5-.2-.3-.4-.5-.7-.8.3-.5.4-.8.6-1.4.2-.8.3-1.7.3-3.2s0-.9,0-1.2c.3,0,.6,0,1,0h3.1c.4,0,.7,0,1,0v1c-.3,0-.6,0-1,0h-3.2c0,.5,0,.8,0,1h2.6c.4,0,.6,0,.8,0l.5.5c0,0-.1.3-.2.5-.3.8-.6,1.4-1.1,1.9.5.4,1,.6,1.8.9-.2.3-.4.6-.5.9-.9-.4-1.4-.6-2-1.2-.6.5-1,.8-1.8,1.2-.2-.4-.3-.5-.6-.8.8-.3,1.2-.6,1.8-1.1-.6-.6-.9-1.1-1.1-2h-.2ZM381.8,91.2c.2.6.5,1,.8,1.4.4-.5.6-.8.8-1.4h-1.7Z"/>
    <path d="M388,88.5c0,.3,0,.5-.1,1.2,0,.8,0,2.7,0,3.3s0,1.2.2,1.4c.2.3.6.5,1.2.5,1,0,1.8-.5,2.2-1.5.2-.5.3-.9.4-1.5.5.4.6.5,1.1.7-.4,1.2-.6,1.8-1.1,2.3-.7.8-1.6,1.1-2.7,1.1s-1.2-.1-1.6-.4c-.6-.4-.9-1.1-.9-2.3s0-1.4,0-3.6c0-.3,0-.5,0-.6,0-.3,0-.4,0-.6h1.3Z"/>
  </g>
  <g>
    <polyline class="st1" points="224.9 68.5 224.9 84.5 147.3 84.5 147.3 67.1"/>
    <polygon points="141.2 67.9 153.3 67.9 147.3 61.9 141.2 67.9"/>
  </g>
  <g>
    <line class="st1" x1="163.3" y1="53.7" x2="206.7" y2="53.7"/>
    <polygon points="205.9 47.6 205.9 59.8 212 53.7 205.9 47.6"/>
  </g>
</svg>