<?xml version="1.0" encoding="UTF-8"?>
<svg id="Layer_1" xmlns="http://www.w3.org/2000/svg" version="1.1" viewBox="0 0 618.7 90.5">
  <!-- Generator: Adobe Illustrator 29.2.1, SVG Export Plug-In . SVG Version: 2.1.0 Build 116)  -->
  <defs>
    <style>
      .st0 {
        fill: none;
        stroke: #000;
        stroke-miterlimit: 10;
      }
    </style>
  </defs>
  <g>
    <path d="M178.5,39.1c0-.5,0-.9,0-1.6v-6.6h-.6c-.4,0-.8,0-1.2,0v-1.5c.4,0,.6,0,1.2,0h1.1c.6,0,.8,0,1.2,0,0,.7,0,1.3,0,2v6.1c0,.6,0,1.1,0,1.6h-1.8Z"/>
    <path d="M184.2,39.1v-1.8h1.8v1.8h-1.8Z"/>
    <path d="M194.8,35.2v-6.3h3.6v1.3h-2.2v5h-1.4Z"/>
    <path d="M201.4,32.4c-.8,0-1.1,0-1.5,0v-1.4c.4,0,.8,0,1.5,0h6.9c.6,0,1,0,1.5,0v1.4c-.4,0-.7,0-1.5,0h-2.8v2.1h2.3c.5,0,.9,0,1.3,0v1.4c-.4,0-.7,0-1.3,0h-2.4v2.5h3.2c.6,0,1.1,0,1.6,0v1.4c-.5,0-.9,0-1.5,0h-7.6c-.7,0-1.1,0-1.6,0v-1.4c.4,0,.9,0,1.6,0h3v-2.5h-2.1c-.6,0-1,0-1.4,0v-1.4c.3,0,.6,0,1.3,0h2.2v-2.1h-2.7ZM203.6,28.8c1.2.4,1.6.6,3.1,1.3l-.9,1.1c-1.2-.7-2.1-1.1-3.2-1.4l1-1Z"/>
    <path d="M213.9,38.6c0,.6,0,1,0,1.4h-1.4c0-.5,0-.8,0-1.4v-3.3c0-.6,0-.8,0-1.4-.3.6-.6.9-.9,1.3-.2-.6-.3-1-.5-1.5,1.3-1.4,2.2-3.1,2.5-4.9l1.3.4c-.4,1.2-.7,1.9-1.1,2.8v4.7c1.3-1,2.5-2.6,3.2-4.3h-1.3c-.4,0-.9,0-1.3,0v-1.3c.4,0,.8,0,1.3,0h1.8v-1.1c0-.4,0-.8,0-1.1h1.4c0,.4,0,.7,0,1.1v1.1h2.2c.5,0,1,0,1.4,0v1.4c-.4,0-.9,0-1.3,0h-1.8c.4.9.7,1.5,1.4,2.4.5.7,1.1,1.3,2,2-.3.4-.5.7-.8,1.2-.6-.6-.9-.9-1.3-1.4v1.1c-.3,0-.5,0-.9,0h-.9v1c0,.5,0,.9,0,1.3h-1.4c0-.4,0-.9,0-1.3v-1h-.8c-.3,0-.6,0-.9,0v-1.1c-.5.6-.7.8-1.3,1.3-.3-.5-.4-.7-.7-1v1.6ZM217.5,35.1c0-.6,0-.9,0-1.4-.5,1.3-.9,2-1.6,2.9.2,0,.4,0,.8,0h.8v-1.5ZM219.7,36.5c.3,0,.5,0,.8,0-.7-.9-1.2-1.7-1.7-2.9,0,.7,0,1,0,1.4v1.5h.9Z"/>
    <path d="M226.9,33.7v6.3h-3.6v-1.3h2.2v-5h1.4Z"/>
    <path d="M229.9,30.4c.5.1,1.3.2,2.8.2.3-.7.4-1.1.5-1.5l1.6.2q0,.1-.5,1.1c0,.1,0,.2-.1.2q0,0,.8,0c1.4,0,2.5-.2,3.1-.4v1.4q-.3,0-.9,0c-.9.1-2.4.2-3.6.2-.3.7-.7,1.2-1.1,1.6h0q0,0,.2-.2c.4-.3,1.1-.5,1.7-.5.9,0,1.5.4,1.7,1.3.9-.3,1.5-.6,1.8-.6.6-.2.7-.2.9-.4l.6,1.4c-.3,0-.7.1-1.3.3-.2,0-.8.3-1.8.6h0q0,.4,0,.6v.5c0,.2,0,.3,0,.4,0,.3,0,.4,0,.6h-1.4c0-.2,0-.8,0-1.4v-.3c-.6.3-.9.4-1.2.6-.4.3-.6.6-.6,1,0,.6.6.9,2,.9s2.7-.2,3.5-.5v1.5c0,0-.1,0-.4,0-.9.1-2,.2-3.1.2s-2.1-.1-2.7-.5c-.6-.3-.9-.9-.9-1.5s.1-.9.5-1.3c.5-.7,1.2-1.1,2.6-1.7,0-.4-.3-.6-.7-.6-.7,0-1.5.4-2.5,1.2-.5.4-.8.7-1,1.1l-1.1-1.1c.3-.2.7-.6,1.1-1.1.5-.6,1.2-1.6,1.4-2.1q0,0,0-.2s-.2,0-.2,0c-.2,0-1.2,0-1.5,0q-.2,0-.3,0s-.1,0-.2,0v-1.4Z"/>
    <path d="M251,33c-.1.3-.1.3-.3.6-.5,1.5-1,2.5-1.7,3.4.8.7,1.5,1.2,2.7,1.7-.3.4-.5.8-.7,1.3-1.2-.6-1.9-1.1-2.8-2-.8.8-1.7,1.5-2.9,2.1-.2-.5-.4-.7-.7-1.2,1.1-.5,1.9-1,2.7-1.8-.8-1-1.2-1.9-1.7-3.4-.1,1.8-.3,2.8-.6,3.7-.3,1-.6,1.7-1.3,2.6-.3-.5-.5-.6-.9-1,0,.6,0,.7,0,1.1h-1.4c0-.5,0-.8,0-1.4v-3.5c0-.3,0-.7,0-1.3-.3.5-.4.7-.9,1.3-.1-.6-.3-.9-.5-1.4.8-.9,1.4-1.9,1.8-3.2.3-.7.4-1.1.4-1.6l1.4.4c0,.2-.1.3-.2.6-.2.6-.5,1.4-.8,2v7c.5-.6.8-1.2,1-2.1.3-1.2.5-3,.5-5.5s0-1.2,0-1.8c.4,0,.8,0,1.3,0h4.4c.6,0,1,0,1.4,0v1.3c-.4,0-.8,0-1.4,0h-4.4v1.6s3.7,0,3.7,0c.5,0,.8,0,1,0l.6.7ZM246.9,33.5c.3,1,.8,1.9,1.4,2.6.6-.8.9-1.3,1.2-2.6h-2.6Z"/>
    <path d="M257.6,33.5h-1.8c-.5,0-.9,0-1.2,0v-1.3c.3,0,.7,0,1.2,0h4.6c.6,0,.9,0,1.2,0v1.3c-.3,0-.7,0-1.2,0h-1.6v1.5h2.3c.6,0,.9,0,1.2,0v1.3c-.4,0-.6,0-1.2,0h-2.3v2.1c.6,0,1.2.1,2,.1s1.5,0,2.7-.1c-.2.5-.3.8-.3,1.4-1,0-1.6,0-2.6,0-2.8,0-4.4-.6-5.4-2.1-.4.8-.8,1.5-1.6,2.4-.3-.4-.5-.6-1-1,1-.9,1.7-2,2.1-3.4.1-.5.2-1,.2-1.3l1.3.3c0,.2,0,.2-.2.7,0,.2-.1.5-.3,1.1.5.9,1,1.3,1.8,1.7v-4.4ZM257.4,29.7c0-.3,0-.5,0-.8h1.5c0,.3,0,.4,0,.8v.5h3.2c.5,0,.9,0,1.3,0,0,.3,0,.5,0,.9v.9c0,.3,0,.6,0,.9h-1.3v-1.5h-7.7v1.5h-1.3c0-.3,0-.5,0-.9v-.9c0-.3,0-.6,0-.9.4,0,.8,0,1.3,0h3.1v-.4Z"/>
    <path d="M271.4,33.6s0,.1,0,.3c.3.6.4,1,.4,1.7,0,1.3-.6,2.4-1.8,3.2-.5.3-1.1.6-2.2,1-.3-.7-.5-.9-.9-1.4,1-.2,1.5-.4,2-.7.8-.5,1.3-1.1,1.4-1.8-.3.6-1,.9-1.8.9s-1-.1-1.4-.4c-.6-.4-.8-.9-.8-1.6,0-1.3,1-2.2,2.4-2.2s1,.1,1.2.4q0,0,0-.1s0-.7,0-1c-1.7,0-2.8,0-3.4.1q-1.8.1-2.1.2v-1.4c.2,0,.3,0,.5,0s.5,0,2,0c.8,0,.9,0,1.9,0q.4,0,1,0t0-1.5h1.5c0,.4,0,.4,0,1.4,2.1,0,3,0,3.5,0v1.4c-.4,0-1,0-2,0s-.5,0-1.5,0v1.8ZM269,33.8c-.6,0-1.1.4-1.1,1s.4.9,1,.9,1.2-.5,1.2-1.1-.4-.8-1.1-.8Z"/>
    <path d="M279.5,34c1.1-.4,1.6-.6,2.5-.6,2.1,0,3.4,1.1,3.4,2.7s-.6,2.1-1.6,2.7c-.8.4-1.8.7-2.9.7s-1.8-.2-2.3-.6c-.5-.3-.7-.8-.7-1.4,0-1,.9-1.7,2.1-1.7s1.6.3,2.1,1c.2.3.4.6.6,1.1,1-.4,1.4-.9,1.4-1.7s-.9-1.5-2.4-1.5-3.5.7-4.9,2l-.8-1.3c.4-.2.9-.5,1.7-1.1,1.1-.9,2.7-2.2,3.6-3.1,0,0,.1-.1.2-.2h0c-.5,0-1.2,0-3.4.2-.3,0-.3,0-.6,0v-1.4c.3,0,.7,0,1.4,0,1,0,2.5,0,3.6-.1.4,0,.6,0,.7-.2l.7,1.1c-.2.1-.3.2-.6.5-.6.6-1.5,1.3-1.9,1.7-.2.2-1.1.8-1.3,1q-.3.2-.5.3h0ZM279.9,37c-.4,0-.7.2-.7.6,0,.5.5.8,1.4.8s.3,0,.6,0c-.2-.8-.7-1.3-1.3-1.3Z"/>
    <path d="M177.1,60.1c-.9,0-1.1,0-1.5,0,0-.7.2-1.1.3-1.5.3-.9.9-1.6,1.6-2.4.4-.4.8-.6,2-1.5,1.1-.8,1.4-1.2,1.4-1.8s-.6-1.3-1.7-1.3-1.2.2-1.5.7c-.2.3-.3.6-.4,1.1l-1.7-.2c.2-.9.4-1.4.8-1.9.6-.7,1.5-1.1,2.7-1.1,2.1,0,3.4,1,3.4,2.7s-.3,1.4-.9,1.9c-.3.3-.5.4-2,1.5-.5.4-1.1.9-1.4,1.2-.4.4-.5.6-.7,1.1h3.4c.8,0,1.4,0,1.8,0v1.6c-.6,0-1,0-1.8,0h-3.9Z"/>
    <path d="M184.2,60.1v-1.8h1.8v1.8h-1.8Z"/>
    <path d="M194.8,56.2v-6.3h3.6v1.3h-2.2v5h-1.4Z"/>
    <path d="M201.4,53.4c-.8,0-1.1,0-1.5,0v-1.4c.4,0,.8,0,1.5,0h6.9c.6,0,1,0,1.5,0v1.4c-.4,0-.7,0-1.5,0h-2.8v2.1h2.3c.5,0,.9,0,1.3,0v1.4c-.4,0-.7,0-1.3,0h-2.4v2.5h3.2c.6,0,1.1,0,1.6,0v1.4c-.5,0-.9,0-1.5,0h-7.6c-.7,0-1.1,0-1.6,0v-1.4c.4,0,.9,0,1.6,0h3v-2.5h-2.1c-.6,0-1,0-1.4,0v-1.4c.3,0,.6,0,1.3,0h2.2v-2.1h-2.7ZM203.6,49.8c1.2.4,1.6.6,3.1,1.3l-.9,1.1c-1.2-.7-2.1-1.1-3.2-1.4l1-1Z"/>
    <path d="M213.9,59.6c0,.6,0,1,0,1.4h-1.4c0-.5,0-.8,0-1.4v-3.3c0-.6,0-.8,0-1.4-.3.6-.6.9-.9,1.3-.2-.6-.3-1-.5-1.5,1.3-1.4,2.2-3.1,2.5-4.9l1.3.4c-.4,1.2-.7,1.9-1.1,2.8v4.7c1.3-1,2.5-2.6,3.2-4.3h-1.3c-.4,0-.9,0-1.3,0v-1.3c.4,0,.8,0,1.3,0h1.8v-1.1c0-.4,0-.8,0-1.1h1.4c0,.4,0,.7,0,1.1v1.1h2.2c.5,0,1,0,1.4,0v1.4c-.4,0-.9,0-1.3,0h-1.8c.4.9.7,1.5,1.4,2.4.5.7,1.1,1.3,2,2-.3.4-.5.7-.8,1.2-.6-.6-.9-.9-1.3-1.4v1.1c-.3,0-.5,0-.9,0h-.9v1c0,.5,0,.9,0,1.3h-1.4c0-.4,0-.9,0-1.3v-1h-.8c-.3,0-.6,0-.9,0v-1.1c-.5.6-.7.8-1.3,1.3-.3-.5-.4-.7-.7-1v1.6ZM217.5,56.1c0-.6,0-.9,0-1.4-.5,1.3-.9,2-1.6,2.9.2,0,.4,0,.8,0h.8v-1.5ZM219.7,57.5c.3,0,.5,0,.8,0-.7-.9-1.2-1.7-1.7-2.9,0,.7,0,1,0,1.4v1.5h.9Z"/>
    <path d="M226.9,54.7v6.3h-3.6v-1.3h2.2v-5h1.4Z"/>
    <path d="M234.3,57.2c-.7,1.5-1.5,2.3-2.4,2.3s-2.4-1.4-2.4-3.3.5-2.6,1.3-3.5c1-1.1,2.4-1.7,4.1-1.7,2.9,0,4.7,1.8,4.7,4.4s-1.1,3.7-2.9,4.5c-.6.2-1,.4-1.9.5-.2-.6-.3-.9-.7-1.4,1.1-.1,1.8-.3,2.4-.7,1-.6,1.7-1.7,1.7-3s-.5-2.1-1.5-2.7c-.4-.2-.7-.3-1.2-.4-.2,1.9-.6,3.5-1.2,4.9ZM232.6,52.9c-1,.7-1.6,2-1.6,3.2s.4,1.8.9,1.8.8-.5,1.2-1.5c.5-1.1.9-2.7,1-4.1-.6,0-1.1.2-1.5.6Z"/>
    <path d="M242.4,56.2v-6.3h3.6v1.3h-2.2v5h-1.4Z"/>
    <path d="M249.6,51.3c-.8,0-1.2,0-2.1.1,0-.3-.2-.6-.4-1,2.4,0,4.4-.3,5.2-.6l.7,1c-.1,0-.5,0-.7.1-.4,0-1,.2-1.6.3v.7h1.2c.6,0,.8,0,1.1,0v1.1c-.2,0-.3,0-.9,0h-1.5v.5h1.2c.5,0,.8,0,1,0,0,.3,0,.4,0,1.1v1.6c0,.6,0,.9,0,1.1-.3,0-.5,0-1.1,0h-1.1v.5h1.1c.6,0,.9,0,1.1,0v1.1c-.2,0-.4,0-.8,0h-1.3v.6c.6,0,1-.1,2.2-.3v.5c.5-.8.9-1.7,1.1-2.8.2-.9.3-1.6.3-3.2-.5,0-.7,0-1,0v-1.3c.2,0,.4,0,.9,0h.2c0-.3,0-.5,0-.9,0-1,0-1.2,0-1.5h1.4q0,.3,0,2.4h1c.5,0,.8,0,1.1,0,0,.4,0,.5,0,2.3,0,3.1-.2,4.8-.5,5.5-.2.5-.6.7-1.5.7s-.8,0-1,0c0-.5,0-.8-.3-1.3-.3.6-.5.9-1,1.6-.3-.4-.5-.7-.9-.9-1.6.2-2.5.3-4.7.5-.2,0-.4,0-.7,0l-.2-1.3c.3,0,.4,0,.6,0,.5,0,.8,0,2,0v-.7h-1.2c-.4,0-.8,0-1.1,0v-1.1c.3,0,.6,0,1.1,0h1.2v-.5h-1c-.5,0-.8,0-1.2,0,0-.3,0-.6,0-1.1v-1.5c0-.6,0-.8,0-1.1.3,0,.6,0,1.2,0h1v-.5h-1.5c-.5,0-.8,0-1.1,0v-1.1c.3,0,.6,0,1.1,0h1.5v-.6ZM248.5,54.3v.5h1v-.5h-1ZM248.5,55.7v.5h1v-.5h-1ZM250.7,54.8h1v-.5h-1v.5ZM250.7,56.2h1v-.5h-1v.5ZM255.6,53.6c-.1,2.9-.4,4.2-1.1,5.9.6,0,.8.1,1.1.1.5,0,.6-.1.8-1.3,0-.6.1-1.2.2-2.5q0-.4,0-1.4c0-.4,0-.4,0-.8h-.9Z"/>
    <path d="M259.6,51.8c.3,0,.6,0,1.2,0,.9,0,1.6,0,2.5-.1q0,0-.1-.3c-.3-.7-.5-1.1-.5-1.1l1.5-.2c0,.3.2.7.5,1.5,1-.1,2.4-.4,3.2-.7v1.3s0,0-.3,0c-.8.2-2.1.5-2.5.5.2.4.3.6.5,1,1-.2,1.6-.3,1.7-.3.7-.2.8-.2,1.1-.3v1.3c-.1,0-.4,0-.6.2-.5.1-.9.2-1.2.3q-.3,0-.4,0c.6,1,.8,1.3,1.6,2.2l-1.1.8c-.9-.4-1.6-.5-2.8-.5s-1.6.1-2,.3c-.3.2-.5.4-.5.7s.2.6.5.7c.4.2,1,.3,1.7.3,1.2,0,2.9-.4,3.7-.8l.2,1.5q-.2,0-.8.2c-1,.3-2,.4-3.1.4s-2.3-.2-2.9-.6c-.6-.4-.9-1-.9-1.6s.4-1.2,1-1.7c.6-.4,1.6-.6,2.8-.6s1.4,0,2.1.3c-.2-.2-.4-.5-.9-1.3-1.3.2-2,.2-4.6.3-.2,0-.3,0-.5,0v-1.3c.3,0,.4,0,1.2,0,1.3,0,2.3,0,3.4-.2,0-.1-.1-.2-.2-.4-.1-.3-.2-.3-.3-.5-1,.1-1.8.2-3.2.2-.5,0-.6,0-.8,0v-1.3Z"/>
    <path d="M273.4,54.7v6.3h-3.6v-1.3h2.2v-5h1.4Z"/>
    <path d="M276.3,51.4c.5.1,1.3.2,2.8.2.3-.7.4-1.1.5-1.5l1.6.2q0,.1-.5,1.1c0,.1,0,.2-.1.2q0,0,.8,0c1.4,0,2.5-.2,3.1-.4v1.4q-.3,0-.9,0c-.9.1-2.4.2-3.6.2-.3.7-.7,1.2-1.1,1.6h0q0,0,.2-.2c.4-.3,1.1-.5,1.7-.5.9,0,1.5.4,1.7,1.3.9-.3,1.5-.6,1.8-.6.6-.2.7-.2.9-.4l.6,1.4c-.3,0-.7.1-1.3.3-.2,0-.8.3-1.8.6h0q0,.4,0,.6v.5c0,.2,0,.3,0,.4,0,.3,0,.4,0,.6h-1.4c0-.2,0-.8,0-1.4v-.3c-.6.3-.9.4-1.2.6-.4.3-.6.6-.6,1,0,.6.6.9,2,.9s2.7-.2,3.5-.5v1.5c0,0-.1,0-.4,0-.9.1-2,.2-3.1.2s-2.1-.1-2.7-.5c-.6-.3-.9-.9-.9-1.5s.1-.9.5-1.3c.5-.7,1.2-1.1,2.6-1.7,0-.4-.3-.6-.7-.6-.7,0-1.5.4-2.5,1.2-.5.4-.8.7-1,1.1l-1.1-1.1c.3-.2.7-.6,1.1-1.1.5-.6,1.2-1.6,1.4-2.1q0,0,0-.2s-.2,0-.2,0c-.2,0-1.2,0-1.5,0q-.2,0-.3,0s-.1,0-.2,0v-1.4Z"/>
    <path d="M297.5,54c-.1.3-.1.3-.3.6-.5,1.5-1,2.5-1.7,3.4.8.7,1.5,1.2,2.7,1.7-.3.4-.5.8-.7,1.3-1.2-.6-1.9-1.1-2.8-2-.8.8-1.7,1.5-2.9,2.1-.2-.5-.4-.7-.7-1.2,1.1-.5,1.9-1,2.7-1.8-.8-1-1.2-1.9-1.7-3.4-.1,1.8-.3,2.8-.6,3.7-.3,1-.6,1.7-1.3,2.6-.3-.5-.5-.6-.9-1,0,.6,0,.7,0,1.1h-1.4c0-.5,0-.8,0-1.4v-3.5c0-.3,0-.7,0-1.3-.3.5-.4.7-.9,1.3-.1-.6-.3-.9-.5-1.4.8-.9,1.4-1.9,1.8-3.2.3-.7.4-1.1.4-1.6l1.4.4c0,.2-.1.3-.2.6-.2.6-.5,1.4-.8,2v7c.5-.6.8-1.2,1-2.1.3-1.2.5-3,.5-5.5s0-1.2,0-1.8c.4,0,.8,0,1.3,0h4.4c.6,0,1,0,1.4,0v1.3c-.4,0-.8,0-1.4,0h-4.4v1.6s3.7,0,3.7,0c.5,0,.8,0,1,0l.6.7ZM293.3,54.5c.3,1,.8,1.9,1.4,2.6.6-.8.9-1.3,1.2-2.6h-2.6Z"/>
    <path d="M304.1,54.5h-1.8c-.5,0-.9,0-1.2,0v-1.3c.3,0,.7,0,1.2,0h4.6c.6,0,.9,0,1.2,0v1.3c-.3,0-.7,0-1.2,0h-1.6v1.5h2.3c.6,0,.9,0,1.2,0v1.3c-.4,0-.6,0-1.2,0h-2.3v2.1c.6,0,1.2.1,2,.1s1.5,0,2.7-.1c-.2.5-.3.8-.3,1.4-1,0-1.6,0-2.6,0-2.8,0-4.4-.6-5.4-2.1-.4.8-.8,1.5-1.6,2.4-.3-.4-.5-.6-1-1,1-.9,1.7-2,2.1-3.4.1-.5.2-1,.2-1.3l1.3.3c0,.2,0,.2-.2.7,0,.2-.1.5-.3,1.1.5.9,1,1.3,1.8,1.7v-4.4ZM303.8,50.7c0-.3,0-.5,0-.8h1.5c0,.3,0,.4,0,.8v.5h3.2c.5,0,.9,0,1.3,0,0,.3,0,.5,0,.9v.9c0,.3,0,.6,0,.9h-1.3v-1.5h-7.7v1.5h-1.3c0-.3,0-.5,0-.9v-.9c0-.3,0-.6,0-.9.4,0,.8,0,1.3,0h3.1v-.4Z"/>
    <path d="M317.9,54.6s0,.1,0,.3c.3.6.4,1,.4,1.7,0,1.3-.6,2.4-1.8,3.2-.5.3-1.1.6-2.2,1-.3-.7-.5-.9-.9-1.4,1-.2,1.5-.4,2-.7.8-.5,1.3-1.1,1.4-1.8-.3.6-1,.9-1.8.9s-1-.1-1.4-.4c-.6-.4-.8-.9-.8-1.6,0-1.3,1-2.2,2.4-2.2s1,.1,1.2.4q0,0,0-.1s0-.7,0-1c-1.7,0-2.8,0-3.4.1q-1.8.1-2.1.2v-1.4c.2,0,.3,0,.5,0s.5,0,2,0c.8,0,.9,0,1.9,0q.4,0,1,0t0-1.5h1.5c0,.4,0,.4,0,1.4,2.1,0,3,0,3.5,0v1.4c-.4,0-1,0-2,0s-.5,0-1.5,0v1.8ZM315.4,54.8c-.6,0-1.1.4-1.1,1s.4.9,1,.9,1.2-.5,1.2-1.1-.4-.8-1.1-.8Z"/>
    <path d="M326,55c1.1-.4,1.6-.6,2.5-.6,2.1,0,3.4,1.1,3.4,2.7s-.6,2.1-1.6,2.7c-.8.4-1.8.7-2.9.7s-1.8-.2-2.3-.6c-.5-.3-.7-.8-.7-1.4,0-1,.9-1.7,2.1-1.7s1.6.3,2.1,1c.2.3.4.6.6,1.1,1-.4,1.4-.9,1.4-1.7s-.9-1.5-2.4-1.5-3.5.7-4.9,2l-.8-1.3c.4-.2.9-.5,1.7-1.1,1.1-.9,2.7-2.2,3.6-3.1,0,0,.1-.1.2-.2h0c-.5,0-1.2,0-3.4.2-.3,0-.3,0-.6,0v-1.4c.3,0,.7,0,1.4,0,1,0,2.5,0,3.6-.1.4,0,.6,0,.7-.2l.7,1.1c-.2.1-.3.2-.6.5-.6.6-1.5,1.3-1.9,1.7-.2.2-1.1.8-1.3,1q-.3.2-.5.3h0ZM326.4,58c-.4,0-.7.2-.7.6,0,.5.5.8,1.4.8s.3,0,.6,0c-.2-.8-.7-1.3-1.3-1.3Z"/>
  </g>
  <g>
    <line class="st0" x1="227.4" y1="12.1" x2="217.5" y2="22"/>
    <path d="M213.3,26.3c1.3-2.8,2.5-6.5,2.7-9.4l2.1,4.6,4.6,2.1c-2.9.2-6.7,1.4-9.4,2.7Z"/>
  </g>
  <g>
    <path d="M240,7.4c0-.1,0-.2,0-.3,0-.8.6-1.4,1.4-1.4s1.4.6,1.4,1.4-.6,1.4-1.4,1.4-.3,0-.4,0t0,0c-.6,2.1-1.4,3.6-2.4,4.8-1.2,1.3-2.6,2.2-4.4,2.8-.2-.4-.3-.5-.6-.8,1.6-.4,3.3-1.5,4.4-2.7,1-1.1,1.7-2.5,2.1-4.3h-6.1c-.7,0-1,0-1.3,0v-1c.4,0,.7,0,1.4,0h6.1ZM240.5,7c0,.5.4.9.9.9s.9-.4.9-.9-.4-.9-.9-.9-.9.4-.9.9Z"/>
    <path d="M245,14.8v.9h-.9c0-.3,0-.5,0-.9v-6.5c0-.5,0-.6,0-.9.2,0,.5,0,.9,0h6.4c.5,0,.7,0,.9,0,0,.3,0,.4,0,.9v6.5c0,.4,0,.7,0,.9h-.9v-.9h-6.4ZM251.4,8.1h-6.4v5.9h6.4v-5.9Z"/>
    <path d="M259,6.3c-.1.2-.1.2-.3.5-.3.6-.4.9-.6,1.1,0,0,.2,0,.4,0h2.9c.4,0,.5,0,.6-.1l.7.8c0,.1-.1.2-.2.5-1.1,3.5-3.2,5.9-6.5,7.4-.2-.3-.3-.5-.6-.7,3.1-1.2,5.4-3.7,6.3-7h-4c-.7,1.2-1.8,2.4-2.9,3.2-.2-.3-.3-.4-.7-.6,1.2-.7,2.1-1.8,3-3.3.5-.8.7-1.4.8-1.7l1,.3ZM262.7,6c.6.7.9,1.1,1.2,1.8l-.6.4c-.3-.6-.8-1.5-1.2-1.8l.6-.3ZM264,5.3c.6.7.8,1,1.2,1.8l-.6.3c-.3-.6-.7-1.3-1.2-1.8l.6-.3Z"/>
    <path d="M266.1,9.5c.4,0,.7,0,1.4,0h6.2c.4,0,.6,0,.8,0l.4.5c-.1.2-.1.2-.3.8-1,2.8-2.7,4.3-5.8,5.4-.1-.3-.2-.5-.5-.8,1.6-.5,2.7-1,3.6-1.8.9-.8,1.4-1.7,1.9-3.1h-6.3c-.6,0-1,0-1.4,0v-.9ZM267.2,6.7c.3,0,.6,0,1.3,0h4c.7,0,.9,0,1.3,0v.9c-.3,0-.6,0-1.2,0h-4c-.6,0-.9,0-1.2,0v-.9Z"/>
    <path d="M280.7,6.5c-.1.2-.2.5-.3.9-.9,2.9-1.7,5.2-2.5,7,1.6-.1,4.4-.5,5.8-.8-.6-1.3-1.3-2.3-1.8-3.1l.7-.4c1,1.3,2.2,3.5,3,5.4l-.8.5c-.3-.7-.4-1.1-.7-1.6-2,.4-4.4.7-7.4,1-.5,0-.8,0-1,.1v-1q.2,0,.2,0c0,0,.7,0,1,0,.7-1.7,1.2-3,1.8-4.7.6-1.8.9-2.8.9-3.5l1.1.3Z"/>
    <path d="M289.1,6.6c-.2.5-.3,1.1-.5,1.9-.3,1.3-.4,2.3-.4,3.8s0,1.6,0,2.3c.2-.8.4-1.5.8-2.3l.6.3c-.5,1.2-1,2.6-1,3.3v.2h-.9c0-.1,0-.2,0-.4-.2-1.3-.3-2.1-.3-3.4s.1-3,.5-4.7c.1-.6.1-.7.2-1h.9ZM292.1,11.4c-.6.7-.9,1.2-.9,1.8,0,.9.8,1.3,2.3,1.3s2.1-.2,2.8-.4v.9s0,0-.3,0c-.8.2-1.6.2-2.5.2-1.4,0-2.2-.3-2.7-.9-.2-.3-.4-.7-.4-1.1,0-.7.3-1.4,1-2.2l.7.4ZM290.6,7.8c.5.1,1.1.2,2,.2,1.3,0,2.4-.1,3.2-.3v.9s-.2,0-.8.1c-.7,0-1.7.2-2.6.2s-1.1,0-1.9-.1v-.9Z"/>
    <path d="M300,6.5c-.5,1.2-.9,3.7-.9,5.6s0,1.1,0,1.7c0,0,0,.1,0,.3v.2h0c.2-.9.3-1.1.7-2.1,0-.1,0-.2,0-.2l.6.3c-.6,1.2-1,2.7-1,3.4s0,0,0,.2h-.9s0,0,0-.4c-.2-1.1-.3-2.4-.3-3.6s.2-2.9.6-4.9c.1-.5.1-.6.1-.8l.9.2ZM301.3,8.8c.6.1,1.1.2,2.2.2s.8,0,1.3,0q0-1.1,0-2c0-.2,0-.4,0-.5h.9c0,.3,0,.9,0,1.9s0,.3,0,.6c.9-.1,1.6-.3,2.1-.4v.8s0,0-.8.2c-.3,0-.6.1-1.3.2,0,1.2,0,1.8.1,3.4.9.4,1.2.6,2,1.2.1,0,.2.1.3.2l-.4.8c-.4-.4-.9-.8-1.7-1.2t-.1,0s0,0-.1,0c0,.2,0,.2,0,.3,0,.3,0,.6-.1.8-.3.6-1,1-2,1-1.4,0-2.3-.7-2.3-1.7s.9-1.7,2.3-1.7,1.1,0,1.3.2c0-.3,0-1.4-.1-3.1-.5,0-.9,0-1.4,0s-.9,0-1.4,0c-.2,0-.3,0-.4,0-.1,0-.2,0-.2,0,0,0,0,0-.1,0h0v-.8ZM303.6,13.3c-.9,0-1.5.4-1.5,1s.6,1,1.4,1,1-.2,1.2-.4c.2-.2.2-.5.2-.9s0-.4,0-.4c-.5-.2-.8-.3-1.3-.3Z"/>
    <path d="M314.1,7.1h-2.6c-.5,0-.8,0-1.2,0v-.7c.3,0,.6,0,1.2,0h2.5c0-.4,0-.5,0-.8h.9c0,.3,0,.4,0,.8h2.4c.6,0,1,0,1.3,0,0,.2,0,.5,0,1v.3h0c.6,0,.9,0,1.2,0v.7c-.3,0-.6,0-1.3,0v.4c0,.5,0,.8,0,1-.3,0-.7,0-1.3,0h-2.4v.7h2.9c.6,0,.9,0,1.2,0v.7c-.3,0-.7,0-1.2,0h-2.9v.7h3.7c.7,0,1,0,1.3,0v.8c-.4,0-.8,0-1.3,0h-7.9c-.5,0-1,0-1.3,0v-.8c.3,0,.7,0,1.3,0h3.6v-.7h-2.8c-.6,0-.9,0-1.2,0v-.7c.3,0,.6,0,1.2,0h2.8v-.7h-2.5c-.6,0-.9,0-1.2,0v-.7c.3,0,.6,0,1.2,0h2.6v-.7h-3.6c-.6,0-1,0-1.3,0v-.7c.3,0,.7,0,1.3,0h3.6v-.7ZM310.8,14c0-.6,0-.9,0-1.1.3,0,.4,0,1.4,0h4.8c1,0,1.1,0,1.4,0,0,.3,0,.5,0,1.2v1.5c0,.6,0,.9,0,1.2h-.8v-.5h-6v.5h-.8c0-.3,0-.6,0-1.2v-1.5ZM311.5,14.2h6v-.7h-6v.7ZM311.5,15.6h6v-.8h-6v.8ZM317.8,7.7v-.7h-3v.7h3ZM314.8,9.1h3v-.7h-3v.7Z"/>
    <path d="M321.2,9.2c.4,0,1.7-.2,2.7-.3.2-.9.4-2,.4-2.5v-.2h1c0,.4-.1.6-.2,1.3,0,.3-.1.8-.3,1.4.3,0,.4,0,.7,0,.9,0,1.4.1,1.7.5.4.4.6.9.6,1.9,0,1.8-.3,3.4-.8,4.1-.3.4-.6.6-1.2.6s-1-.1-1.8-.5c0-.2,0-.3,0-.4s0-.3,0-.5c.7.3,1.4.6,1.8.6s.5-.2.7-.6c.3-.8.5-2,.5-3.3s-.4-1.7-1.5-1.7-.4,0-.9,0c-.4,1.9-1,3.4-1.8,5.1-.2.3-.4.8-.8,1.4l-.8-.5c.4-.5.8-1.3,1.2-2.2.6-1.2.9-2.3,1.3-3.8-1,.2-1.6.3-1.7.3-.3,0-.4,0-.7.2v-.9ZM329.1,8.1c1.2,1.3,1.9,2.6,2.5,4.2l-.8.4c-.5-1.7-1.3-3.1-2.4-4.3l.7-.4Z"/>
    <path d="M332.5,13.4c.3-.2,1.2-1.1,2.1-2,0-.5,0-1.2,0-2.3q-1.6.1-1.9.2v-.8c.1,0,.2,0,.3,0s.6,0,1.6,0c0-.9,0-1.5,0-1.6,0-.3,0-.4,0-.6h.9c0,.3,0,.7-.1,2.1.1,0,.1,0,.2,0l.3.4c-.2.1-.3.3-.6.7,0,.1,0,.2,0,.3q0,.2,0,.8s0,0,0,.1c0,0,0,.1,0,.2h0c.2-.3.6-.6,1.5-1.4,1.1-.9,2-1.3,2.7-1.3s1.4.5,1.4,1.4,0,.9-.3,1.8c-.4,1.9-.5,2.4-.5,2.8s.3.9.7.9.7-.3,1-.7c.3-.4.5-.9.7-1.4.3.4.3.6.6.8-.3.6-.5.9-.7,1.2-.5.6-1,.9-1.7.9s-.6,0-.8-.3c-.4-.3-.6-.7-.6-1.4s0-.7.5-2.8c.2-1.1.3-1.5.3-1.8s-.3-.6-.7-.6-1,.3-1.8.8c-.7.5-1.1.8-2.3,2v2.6c0,1.5,0,1.6,0,2h-.9q0-.4,0-2t0-1.9h0c0,0,0,.1-.2.3q-.2.2-.6.7c-.1.1-.3.3-.5.6-.2.2-.2.3-.3.4l-.5-.9Z"/>
    <path d="M348,6.2c0,.2,0,.3-.2.8,0,.4-.2.7-.3,1.3.8,0,1.6-.2,2.1-.4v.8q0,0-.4,0c-.5.1-1.2.2-2,.3-.4,1.3-.8,2.4-1.3,3.5-.3.6-.4.8-.9,1.6-.1.2-.2.3-.2.4l-.8-.5c.4-.5.7-1,1.2-1.9.6-1.1.9-2,1.2-3.1-.3,0-.7,0-.9,0s-.6,0-.8,0c-.1,0-.2,0-.3,0h-.2v-.8c.4,0,.8,0,1.4,0s.6,0,.9,0c.2-.7.4-1.7.4-2.3h.9ZM353.7,15.5c-.5-.6-1.2-1.2-2.1-1.6,0,.2,0,.3,0,.4,0,1.2-.8,1.9-2.3,1.9s-2.3-.7-2.3-1.7.4-1.2,1.1-1.5c.4-.2.9-.3,1.4-.3s.7,0,1.2.2c0-.8,0-1.3,0-1.6,0-.4,0-.7.1-1.2h.8c-.1.5-.2.8-.2,1.2s0,1.4.1,1.8c1,.4,1.7.9,2.4,1.5q.1.1.2.2l-.4.8ZM349.5,13.4c-1,0-1.7.4-1.7,1.1s.6,1,1.5,1,1.5-.4,1.5-1.3,0-.5,0-.5c-.5-.2-.9-.2-1.3-.2ZM353.7,10.1c-1-.7-1.9-1.2-3.2-1.6l.4-.7c1.4.6,2.2,1,3.2,1.6l-.4.7Z"/>
    <path d="M356.9,7.3c0,.4,0,.8,0,1.4,0,1.3.1,3,.3,3.7.3,1.2.8,2.1,1.2,2.1s.4-.2.6-.6c.3-.6.5-1.2.6-2.1.3.3.4.4.7.7-.6,2.1-1.1,2.9-2,2.9s-1.3-.7-1.7-1.8c-.4-1.1-.6-2.7-.6-5.6,0-.5,0-.5,0-.7h1ZM362.7,7.9c.8.9,1.3,1.7,1.7,2.7.5,1,.7,1.9.9,3.2l-.9.3c-.2-2.2-1.1-4.3-2.5-5.9l.7-.4Z"/>
    <path d="M369.2,11.5c-.8.6-1.1,1.2-1.1,1.8s.3.9,1,1.2c.5.2,1.2.2,2.2.2,1.5,0,2.9-.2,3.6-.5v1s0,0-.3,0c-1,.2-2.2.3-3.2.3s-2.2-.1-2.8-.4c-.9-.4-1.4-1-1.4-1.8s.5-1.5,1.4-2.3l.6.5ZM367.9,7.2c.9.2,1.8.3,3.2.3s2.4,0,3-.3v.8c-.7.3-1.8,1-3,1.8l-.6-.5c.8-.5,1.1-.7,1.6-1,.1,0,.2,0,.3-.2,0,0,.1,0,.2-.1-.7.1-1.1.2-1.8.2s-1.9,0-2.6-.2c-.2,0-.2,0-.4,0v-.9Z"/>
    <path d="M379.6,6.2c0,.8.5,2.8.9,4,.7-.3,1-.4,2.9-1.1.4-.2.5-.2.8-.3l.4.9c-.8.2-2.6.7-3.6,1.2-2.1.8-2.9,1.6-2.9,2.6s.9,1.5,3.3,1.5,2.7-.2,3.4-.4v1q-.1,0-.8,0c-1.2.1-1.8.2-2.7.2s-2.1-.1-2.7-.3c-1-.4-1.5-1-1.5-2s.4-1.5,1.1-2c.5-.4.8-.6,1.6-1-.3-1-.6-1.8-.9-3.4-.1-.5-.1-.6-.2-.8l.9-.2Z"/>
    <path d="M386.6,9.2c.4,0,.9,0,2.7-.3.2-.9.4-2,.4-2.5v-.2h1c0,.3-.1.6-.2,1.3,0,.3-.2.9-.3,1.4.3,0,.4,0,.7,0,.9,0,1.4.1,1.7.5.4.4.6.9.6,1.9,0,1.8-.3,3.4-.8,4.1-.3.4-.6.6-1.2.6s-1-.1-1.8-.5c0-.2,0-.3,0-.4s0-.3,0-.5c.7.3,1.4.6,1.8.6s.5-.2.7-.6c.3-.8.5-2,.5-3.3s-.4-1.7-1.5-1.7-.4,0-.9,0c-.5,2.2-1.3,4.3-2.6,6.5l-.8-.5c1-1.3,2-3.7,2.6-6-1.5.2-1.9.3-2.4.4v-.9ZM394.5,8.1c1.2,1.3,2,2.7,2.5,4.2l-.8.4c-.4-1.5-1.4-3.2-2.4-4.3l.7-.4ZM395,6.1c.5.6.9,1.2,1.2,1.9l-.6.4c-.3-.6-.9-1.5-1.2-1.9l.6-.3ZM396.4,5.4c.5.7.8,1.1,1.2,1.9l-.6.3c-.3-.6-.8-1.3-1.2-1.9l.6-.3Z"/>
    <path d="M402,8.4c.7.4,1.1.7,1.6,1.1,1-.7,1.5-1.3,2.3-2.2h-3.2c-1.1,1-2,1.7-3.4,2.4-.1-.3-.3-.4-.5-.6,1.4-.6,2.6-1.4,3.6-2.4.4-.4.7-.8.8-1.1l.9.2c-.1.1-.1.1-.4.5-.1.2-.2.2-.4.4h2.3c.5,0,.8,0,1.1,0l.4.5c-.7.9-.8,1-1.1,1.3-.9,1-2.1,2-3.4,2.7-1.1.6-2.1,1.1-3.5,1.5,0-.3-.2-.5-.4-.7,1.6-.4,2.9-1,4.3-2-.4-.4-.9-.7-1.5-1.1l.6-.4ZM404.4,11.6c-1.1,1-2.2,1.6-3.9,2.3-.2-.3-.3-.5-.5-.6,1.6-.5,2.8-1.2,3.8-2,.6-.5,1.1-1,1.3-1.4l.8.3c-.5.6-.6.6-.8.9h2.1c.5,0,.8,0,1.1,0l.4.5q-.1.2-.3.4c-1.1,1.4-2.1,2.3-3.5,3.2-1.4.8-2.6,1.2-4.9,1.8-.1-.3-.2-.4-.4-.8,1.8-.3,3.7-.9,5.1-1.8-.5-.4-.9-.7-1.6-1.1l.6-.4c.7.4,1,.6,1.6,1.2.9-.6,1.5-1.2,2.3-2.2h-3.2Z"/>
    <path d="M411.8,7.3c0,.4,0,.8,0,1.4,0,1.3.1,3,.3,3.7.3,1.2.8,2.1,1.2,2.1s.4-.2.6-.6c.3-.6.5-1.2.6-2.1.3.3.4.4.7.7-.6,2.1-1.1,2.9-2,2.9s-1.3-.7-1.7-1.8c-.4-1.1-.6-2.7-.6-5.6,0-.5,0-.5,0-.7h1ZM417.6,7.9c.8.9,1.3,1.7,1.7,2.7.5,1,.7,1.9.9,3.2l-.9.3c-.2-2.2-1.1-4.3-2.5-5.9l.7-.4Z"/>
  </g>
  <g>
    <line class="st0" x1="277.5" y1="75.6" x2="266.2" y2="67.6"/>
    <path d="M261.2,64.1c2.9.8,6.8,1.4,9.7,1.1l-4.2,2.9-1.4,4.9c-.7-2.8-2.5-6.3-4.2-8.8Z"/>
  </g>
  <g>
    <path d="M288.1,75.2c0-.1,0-.2,0-.3,0-.8.6-1.4,1.4-1.4s1.4.6,1.4,1.4-.6,1.4-1.4,1.4-.3,0-.4,0t0,0c-.6,2.1-1.4,3.6-2.4,4.8-1.2,1.3-2.6,2.2-4.4,2.8-.2-.4-.3-.5-.6-.8,1.6-.4,3.3-1.5,4.4-2.7,1-1.1,1.7-2.5,2.1-4.3h-6.1c-.7,0-1,0-1.3,0v-1c.4,0,.7,0,1.4,0h6.1ZM288.5,74.8c0,.5.4.9.9.9s.9-.4.9-.9-.4-.9-.9-.9-.9.4-.9.9Z"/>
    <path d="M293,82.6v.9h-.9c0-.3,0-.5,0-.9v-6.5c0-.5,0-.6,0-.9.2,0,.5,0,.9,0h6.4c.5,0,.7,0,.9,0,0,.3,0,.4,0,.9v6.5c0,.4,0,.7,0,.9h-.9v-.9h-6.4ZM299.5,75.9h-6.4v5.9h6.4v-5.9Z"/>
    <path d="M307,74.1c-.1.2-.1.2-.3.5-.3.6-.4.9-.6,1.1,0,0,.2,0,.4,0h2.9c.4,0,.5,0,.6-.1l.7.8c0,.1-.1.2-.2.5-1.1,3.5-3.2,5.9-6.5,7.4-.2-.3-.3-.5-.6-.7,3.1-1.2,5.4-3.7,6.3-7h-4c-.7,1.2-1.8,2.4-2.9,3.2-.2-.3-.3-.4-.7-.6,1.2-.7,2.1-1.8,3-3.3.5-.8.7-1.4.8-1.7l1,.3ZM310.7,73.7c.6.7.9,1.1,1.2,1.8l-.6.4c-.3-.6-.8-1.5-1.2-1.8l.6-.3ZM312.1,73.1c.6.7.8,1,1.2,1.8l-.6.3c-.3-.6-.7-1.3-1.2-1.8l.6-.3Z"/>
    <path d="M314.2,77.3c.4,0,.7,0,1.4,0h6.2c.4,0,.6,0,.8,0l.4.5c-.1.2-.1.2-.3.8-1,2.8-2.7,4.3-5.8,5.4-.1-.3-.2-.5-.5-.8,1.6-.5,2.7-1,3.6-1.8.9-.8,1.4-1.7,1.9-3.1h-6.3c-.6,0-1,0-1.4,0v-.9ZM315.2,74.5c.3,0,.6,0,1.3,0h4c.7,0,.9,0,1.3,0v.9c-.3,0-.6,0-1.2,0h-4c-.6,0-.9,0-1.2,0v-.9Z"/>
    <path d="M328.8,74.3c-.1.2-.2.5-.3.9-.9,2.9-1.7,5.2-2.5,7,1.6-.1,4.4-.5,5.8-.8-.6-1.3-1.3-2.3-1.8-3.1l.7-.4c1,1.3,2.2,3.5,3,5.4l-.8.5c-.3-.7-.4-1.1-.7-1.6-2,.4-4.4.7-7.4,1-.5,0-.8,0-1,.1v-1q.2,0,.2,0c0,0,.7,0,1,0,.7-1.7,1.2-3,1.8-4.7.6-1.8.9-2.8.9-3.5l1.1.3Z"/>
    <path d="M339.3,80.4c-.7,1.6-1.4,2.3-2.3,2.3s-2-1.2-2-2.9.5-2.4,1.3-3.3c1-1.1,2.3-1.6,3.9-1.6s2.5.4,3.3,1.2c.8.7,1.2,1.8,1.2,2.9,0,1.9-1,3.4-2.7,4.1-.5.2-1,.4-1.8.6-.1-.4-.2-.5-.4-.8.9-.1,1.4-.3,2-.6,1.3-.6,2.1-1.9,2.1-3.4s-.7-2.5-1.9-3c-.4-.2-.8-.3-1.4-.3-.2,1.7-.6,3.5-1.2,4.8ZM337.8,76.2c-1.2.7-2,2.1-2,3.6s.5,2,1.2,2,1-.6,1.5-1.7c.5-1.1.9-2.9,1.1-4.4-.7,0-1.2.2-1.8.6Z"/>
    <path d="M348.5,74.7c0-.5,0-.8,0-1h.9c0,.3,0,.6,0,1h0c0,0,4.2,0,4.2,0h0c0-.6,0-.9,0-1.1h.9c0,.3,0,.6,0,1h0c0,0,1.1,0,1.1,0,.5,0,.9,0,1.2,0v.8c-.4,0-.8,0-1.2,0h-1.1v3.8h1.3c.5,0,.9,0,1.2,0v.8c-.3,0-.7,0-1.2,0h-1.8c.8.8,1.8,1.3,3.3,1.7-.2.3-.3.4-.4.7-1.8-.6-2.8-1.2-3.8-2.4h-3c-.9,1.1-2,1.8-3.7,2.4-.1-.3-.2-.4-.4-.7,1.4-.3,2.6-.9,3.2-1.7h-1.8c-.5,0-.9,0-1.2,0v-.8c.3,0,.7,0,1.2,0h1.3v-3.8h-.9c-.5,0-.8,0-1.2,0v-.8c.3,0,.7,0,1.2,0h.9ZM351,81.3c0-.4,0-.7,0-1h.8c0,.3,0,.5,0,1h0c0,.1,1.7.1,1.7.1.5,0,.7,0,1,0v.7c-.3,0-.6,0-1,0h-1.7v1.3h3.3c.6,0,.9,0,1.3,0v.8c-.4,0-.8,0-1.3,0h-6.9c-.5,0-.9,0-1.3,0v-.8c.3,0,.6,0,1.3,0h3v-1.3h-1.5c-.5,0-.7,0-1,0v-.7c.3,0,.6,0,1,0h1.5ZM353.5,76.3v-.9h-4.2v.9h4.2ZM353.5,77.8v-.9h-4.2v.9h4.2ZM353.5,79.3v-.9h-4.2v.9h4.2Z"/>
    <path d="M359.6,76.5c-.5,0-.9,0-1.3,0v-.9c.4,0,.8,0,1.3,0h3.4v-1c0-.4,0-.7,0-1.1h.9c0,.4,0,.7,0,1.1v1h3.5c.6,0,1,0,1.3,0v.9c-.5,0-.9,0-1.3,0h-3.2c1.3,2.4,3,4.1,4.9,5.2-.3.3-.4.5-.6.8-1-.6-1.7-1.3-2.5-2.1-1-1.1-1.7-2.1-2.2-3.4,0,.7,0,1.2,0,1.6v2.7h1.3c.6,0,.9,0,1.2,0v.8c-.4,0-.6,0-1.2,0h-1.3v1.1c0,.6,0,1,0,1.4h-.9c0-.4,0-.8,0-1.4v-1.1h-1.2c-.6,0-.9,0-1.2,0v-.8c.3,0,.6,0,1.2,0h1.2v-2.7c0-.4,0-.9,0-1.5-.6,1.3-1.2,2.3-2.3,3.5-.8.8-1.4,1.4-2.3,2-.2-.3-.3-.4-.6-.7,1-.6,1.9-1.4,2.8-2.4.9-1,1.4-1.8,2-2.8h-3.1Z"/>
    <path d="M375.2,78.2c.6,0,.9,0,1.1,0v.8c-.2,0-.6,0-1.1,0h-4c-.6,0-.9,0-1.1,0v-.8c.3,0,.6,0,1.2,0h2.6c.4-.9.6-1.4.9-2.4l.7.3c-.3.9-.5,1.4-.9,2.1h.7ZM375,74.9c.5,0,.8,0,1.1,0v.8c-.2,0-.6,0-1.1,0h-3.6c-.5,0-.8,0-1.1,0v-.8c.3,0,.6,0,1.1,0h1.5v-.4c0-.4,0-.7,0-.9h.9c0,.3,0,.5,0,.9v.4h1.3ZM371.6,84.4h-.8c0-.3,0-.5,0-1.1v-2.4c0-.6,0-.8,0-1,.3,0,.5,0,.9,0h2.8c.4,0,.7,0,.9,0,0,.2,0,.4,0,1v2.6c0,.4,0,.7,0,.9h-.8v-.7h-3.1v.7ZM371.8,75.8c.4.7.6,1.2.8,2l-.7.2c-.2-.7-.4-1.2-.8-2l.7-.2ZM371.6,83h3.1v-2.4h-3.1v2.4ZM380.9,74.4q0,.1-.5,1.1c-.3.7-.8,1.6-1.2,2.4.8.8,1.1,1.2,1.4,1.9.2.5.4,1.1.4,1.7s-.2,1.1-.6,1.3c-.2.1-.6.2-1.1.2s-.6,0-1,0c0-.3,0-.5-.2-.8.5,0,.8.1,1.2.1.7,0,.9-.2.9-.9s-.1-1.1-.4-1.6c-.3-.6-.6-1-1.4-1.7.7-1.1,1.2-2.1,1.6-3.3h-2.4v8.5c0,.6,0,1,0,1.3h-.9c0-.3,0-.7,0-1.3v-8.2c0-.4,0-.7,0-1.1.3,0,.5,0,1,0h1.9c.5,0,.7,0,.9,0l.4.5Z"/>
    <path d="M386.5,74c-.1.1-.2.2-.3.6-.9,1.9-2.1,3.3-3.8,4.5-.2-.2-.3-.4-.6-.6,1.5-1,2.5-2.1,3.3-3.5.3-.5.5-.9.5-1.3l.9.3ZM385.4,78.6c-.5,0-.9,0-1.2,0v-.9c.3,0,.8,0,1.2,0h3.9c.6,0,.9,0,1.3,0,0,.2,0,.3,0,.9,0,2.3-.2,4.4-.5,4.9-.2.4-.5.5-1.2.5s-.8,0-1.6,0c0-.3,0-.5-.2-.9.7.1,1.3.2,1.7.2s.5,0,.6-.3c.3-.7.4-2.4.4-4.4h-2.8c-.1,1.3-.4,2.2-.9,3.2-.6,1-1.6,1.9-3,2.6-.2-.3-.3-.4-.5-.7,1.5-.7,2.4-1.5,3-2.6.4-.8.6-1.4.6-2.5h-.8ZM389.1,73.7c0,.3.2.6.5,1,.9,1.6,1.9,2.7,3.5,3.7-.2.2-.4.4-.6.7-1.9-1.4-2.9-2.6-4-4.8,0-.1-.1-.2-.2-.3l.8-.3Z"/>
    <path d="M397,74c0,.8.5,2.8.9,4,.7-.3,1-.4,2.9-1.1.4-.2.5-.2.8-.3l.4.9c-.8.2-2.6.7-3.6,1.2-2.1.8-2.9,1.6-2.9,2.6s.9,1.5,3.3,1.5,2.7-.2,3.4-.4v1q-.1,0-.8,0c-1.2.1-1.8.2-2.7.2s-2.1-.1-2.7-.3c-1-.4-1.5-1-1.5-2s.4-1.5,1.1-2c.5-.4.8-.6,1.6-1-.3-1-.6-1.8-.9-3.4-.1-.5-.1-.6-.2-.8l.9-.2Z"/>
    <path d="M406.4,74.2c0,.4-.1,1-.2,2.5,0,1.4,0,3.1,0,3.6s0,.4,0,.7c0,.7.2,1.1.6,1.4.3.3.9.5,1.5.5,1.4,0,2.5-.7,3.2-2.1.3-.6.4-1,.6-1.9.3.3.5.4.9.6-.5,1.4-.8,2.1-1.3,2.7-.9,1-2,1.5-3.4,1.5s-1.8-.3-2.3-.8c-.5-.6-.7-1.2-.7-2.5s0-1.1.1-4.9c0-.4,0-.6,0-.8s0-.4,0-.6h1Z"/>
    <path d="M413.6,75.7h.4c.2,0,.3,0,.7,0,1.4-.1,5.3-.3,6.8-.4.7,0,1.2,0,1.4-.1v.9c-.4,0-.8,0-1.3.2-.8.2-1.6.6-2.3,1.2-1,.8-1.5,1.8-1.5,2.8s.6,1.8,1.7,2.2c.6.2,1.3.4,1.8.4h.1l-.2,1c-.1,0-.2,0-.4,0-1.2-.2-1.9-.5-2.6-.9-.9-.6-1.3-1.5-1.3-2.4,0-1.4.8-2.7,2.2-3.7.4-.3.7-.4,1.1-.6-.7.1-1.3.2-2.6.3-2.5.2-3.5.3-4.1.4v-.9Z"/>
    <path d="M424.4,75.7c.3,0,.5,0,1,0h2.7c.5,0,.7,0,1,0v.8c-.2,0-.4,0-.9,0h-2.8c-.4,0-.7,0-1,0v-.8ZM424.9,74c.3,0,.5,0,.9,0h1.9c.4,0,.6,0,.9,0v.8c-.3,0-.5,0-.9,0h-1.9c-.4,0-.6,0-.9,0v-.8ZM424.9,77.4c.3,0,.4,0,.9,0h2c.4,0,.6,0,.9,0v.7c-.3,0-.5,0-.9,0h-2c-.4,0-.6,0-.9,0v-.7ZM424.9,79.1c.3,0,.4,0,.9,0h2c.4,0,.6,0,.9,0v.7c-.3,0-.5,0-.9,0h-2c-.4,0-.6,0-.9,0v-.7ZM425,84.5c0-.3,0-.7,0-1.2v-1.6c0-.4,0-.7,0-1,.3,0,.6,0,1,0h1.8c.5,0,.6,0,.9,0,0,.3,0,.5,0,.9v1.7c0,.3,0,.7,0,.9h-.7v-.6h-2.2v.8h-.8ZM425.7,83.1h2.2v-1.7h-2.2v1.7ZM430.4,82.9c0,.2,0,.3.3.4.2,0,.7,0,1.4,0,1.2,0,1.6,0,1.9-.3.2-.2.3-.8.4-1.9.3.2.6.3.8.4-.1,1.2-.3,1.8-.5,2.1-.3.4-.9.5-2.5.5s-1.6,0-2-.1c-.4-.1-.5-.3-.5-.9v-4c0-.6,0-.8,0-1.2.3,0,.7,0,1.2,0h3v-3.1h-3.2c-.5,0-.8,0-1.1,0v-.8c.3,0,.7,0,1.1,0h2.9c.5,0,.8,0,1.1,0,0,.3,0,.5,0,1.2v2.3c0,.5,0,.8,0,1.1-.4,0-.7,0-1.2,0h-3v4.3Z"/>
    <path d="M436.4,78.4c.3,0,.5,0,.9,0h.9,0c.3,0,.6,0,.7,0,0,.4,0,.7,0,1.3v2.3c.3.6.6.9,1.1,1.1.6.3,1.3.3,2.7.3,2.1,0,3.6,0,4.8-.2-.2.3-.2.5-.3.9-1.3,0-2.5,0-4,0s-2.7,0-3.5-.4c-.5-.2-.9-.6-1.2-1.1-.5.5-.8.7-1.4,1.2-.1.1-.3.2-.5.4l-.4-.8c.6-.3,1.3-.8,1.9-1.5v-2.9h-.8c-.4,0-.6,0-.9,0v-.8ZM437,73.9c.8.7,1.3,1.3,1.9,2.1l-.6.5c-.6-.9-1-1.4-1.8-2.1l.5-.5ZM441.4,77.5c-.2,1.2-.4,1.7-.7,2.5-.3.6-.4,1-.8,1.7-.2-.2-.4-.3-.6-.5.4-.7.6-1,.8-1.6.3-.8.4-1.3.6-2.4l.7.2ZM440.6,76.5c-.5,0-.9,0-1.2,0v-.8c.3,0,.6,0,1.2,0h2v-1.1c0-.4,0-.7,0-1h.9c0,.3,0,.6,0,1v1.1h2.4c.6,0,.9,0,1.2,0v.8c-.3,0-.7,0-1.2,0h-2.5v5.3c0,.4,0,.7,0,1h-.9c0-.3,0-.6,0-1v-5.3h-2ZM445.8,75.5c-.6-.6-1.1-.9-1.8-1.4l.5-.5c1.1.7,1.1.7,1.8,1.3l-.5.6ZM445.1,77.2c.5,1.8.8,2.6,1.7,3.9-.2.2-.4.3-.6.6-.9-1.4-1.2-2.3-1.7-4.3l.7-.2Z"/>
    <path d="M448.8,76.4c.3,0,.5,0,.9,0,1.1,0,2.4,0,3.6-.3-.2-.4-.4-.9-.6-1.4-.1-.3-.2-.5-.3-.7h.9q0,.2.3.9c.3.8.3.8.4,1.1,1.2-.2,2.3-.5,2.9-.8v.9c-.1,0-.2,0-.6.2-.7.2-.9.2-1.6.4q-.3,0-.4,0c.4.9,1.3,2.4,2.2,3.5l-.8.5c-.3-.3-.5-.4-.8-.5-.6-.2-1.3-.3-2.1-.3s-1.7.2-2.3.5c-.4.3-.6.7-.6,1.1s.2.7.5.9c.4.3,1.3.6,2.3.6s2.5-.3,3.4-.8v.9c-1.1.4-2.2.6-3.4.6s-2.6-.3-3.1-.9c-.3-.4-.5-.8-.5-1.3,0-.8.5-1.5,1.4-2,.6-.3,1.4-.4,2.3-.4s2,.2,2.5.4c-.6-.9-.9-1.3-1.4-2.4-.1-.3-.1-.3-.2-.4-1.2.2-2.7.3-4.3.3-.2,0-.3,0-.5,0v-.9Z"/>
    <path d="M458.8,81.2c.3-.2,1.2-1.1,2.1-2,0-.5,0-1.2,0-2.3q-1.6.1-1.9.2v-.8c.1,0,.2,0,.3,0s.6,0,1.6,0c0-.9,0-1.5,0-1.6,0-.3,0-.4,0-.6h.9c0,.3,0,.7-.1,2.1.1,0,.1,0,.2,0l.3.4c-.2.1-.3.3-.6.7,0,.1,0,.2,0,.3q0,.2,0,.8s0,0,0,.1c0,0,0,.1,0,.2h0c.2-.3.6-.6,1.5-1.4,1.1-.9,2-1.3,2.7-1.3s1.4.5,1.4,1.4,0,.9-.3,1.8c-.4,1.9-.5,2.4-.5,2.8s.3.9.7.9.7-.3,1-.7c.3-.4.5-.9.7-1.4.3.4.3.6.6.8-.3.6-.5.9-.7,1.2-.5.6-1,.9-1.7.9s-.6,0-.8-.3c-.4-.3-.6-.7-.6-1.4s0-.7.5-2.8c.2-1.1.3-1.5.3-1.8s-.3-.6-.7-.6-1,.3-1.8.8c-.7.5-1.1.8-2.3,2v2.6c0,1.5,0,1.6,0,2h-.9q0-.4,0-2t0-1.9h0c0,0,0,.1-.2.3q-.2.2-.6.7c-.1.1-.3.3-.5.6-.2.2-.2.3-.3.4l-.5-.9Z"/>
    <path d="M471.9,74.6c.3,0,.6,0,1.1,0,1,0,2.6,0,3.7-.2.3,0,.4,0,.6-.1l.5.7c-.2,0-.2.1-.6.5-1.7,1.6-3.1,2.9-3.9,3.4h0c.9-.5,1.9-.7,2.9-.7,2,0,3.3,1,3.3,2.5s-1.7,3.1-4.4,3.1-2.7-.6-2.7-1.7.7-1.4,1.7-1.4,1.5.3,2,1c.3.3.4.6.6,1.2,1.3-.3,1.9-1.1,1.9-2.1s-1-1.8-2.6-1.8-3.7.8-5,2.1l-.5-.8c.4-.3.9-.6,1.7-1.2,1.3-1,3.2-2.7,4-3.5q0,0,.2-.2s0,0,0,0h0s0,0,0,0t-.1,0c-.4,0-1.8.2-3.6.2-.3,0-.4,0-.6,0v-.9ZM474.2,81.5c-.6,0-1,.3-1,.7s.2.5.5.7c.3.2.8.3,1.3.3s.4,0,.9,0c-.3-1.1-.9-1.7-1.7-1.7Z"/>
  </g>
</svg>