<?xml version="1.0" encoding="UTF-8"?>
<svg id="Layer_1" xmlns="http://www.w3.org/2000/svg" version="1.1" viewBox="0 0 618.7 247.6">
  <!-- Generator: Adobe Illustrator 29.2.1, SVG Export Plug-In . SVG Version: 2.1.0 Build 116)  -->
  <defs>
    <style>
      .st0 {
        stroke-dasharray: 8 8;
      }

      .st0, .st1, .st2, .st3, .st4, .st5, .st6, .st7 {
        stroke-linecap: round;
        stroke-linejoin: round;
      }

      .st0, .st1, .st2, .st3, .st4, .st5, .st6, .st7, .st8 {
        fill: none;
        stroke: #000;
      }

      .st0, .st4, .st5 {
        stroke-width: .8px;
      }

      .st1 {
        stroke-dasharray: 7.9 7.9;
      }

      .st1, .st2, .st6 {
        stroke-width: 2px;
      }

      .st4 {
        stroke-dasharray: 8.1 8.1;
      }

      .st6 {
        stroke-dasharray: 8.3 8.3;
      }

      .st7 {
        stroke-width: .5px;
      }

      .st8 {
        stroke-miterlimit: 10;
      }
    </style>
  </defs>
  <g>
    <path d="M317,224.6c0-.2,0-.4,0-.6h1.3c0,.2,0,.4,0,.6h0c0,.1,2.7.1,2.7.1h0c0-.3,0-.5,0-.8h1.4c0,.2,0,.4,0,.6h0c0,.1,1.5.1,1.5.1.6,0,1,0,1.4,0v1.2c-.4,0-.7,0-1.4,0h-1.5c0,.2,0,.3,0,.5h-1.3c0-.2,0-.3,0-.5h-2.7c0,.2,0,.3,0,.5h-1.3c0-.2,0-.3,0-.5h-1.4c-.7,0-1,0-1.4,0v-1.2c.4,0,.8,0,1.4,0h1.4ZM322.2,228.2c-.5.5-1.4,1.1-1.8,1.4,1,0,1.7,0,2.2,0-.3-.2-.4-.3-.7-.6l.9-.6c1,.7,1.6,1.2,2.4,2.1l-.9.8c-.3-.4-.5-.6-.7-.8-2.7.2-4,.2-8.4.4-.3,0-.5,0-.7,0l-.2-1.2c.4,0,1.1,0,2.9,0s0,0,.6,0c-.4-.2-1.6-.7-2.2-1l.8-.8c.6.3.7.3,1.1.5.3-.2.4-.3.8-.7h-2.5c-.6,0-1,0-1.4,0v-1.2c.3,0,.8,0,1.4,0h3.1c0-.3,0-.4,0-.7h1.3c0,.2,0,.3,0,.7h3.3c.6,0,1.1,0,1.4,0v1.2c-.3,0-.8,0-1.4,0h-2.2l.9.5ZM315.4,232.1c0-.4,0-.8,0-1.1.3,0,.6,0,1.2,0h6.2c.6,0,.9,0,1.2,0,0,.3,0,.6,0,1.2v1.8c0,.4,0,.8,0,1.2h-1.3v-.5h-6.1v.5h-1.3c0-.4,0-.8,0-1.2v-1.8ZM316.6,232.4h2.4v-.5h-2.4v.5ZM316.6,233.7h2.4v-.5h-2.4v.5ZM319.7,227.8c-.4.4-.9.8-1.3,1.1.3.2.4.2.7.4.7-.5,1.4-1,1.8-1.5h-1.3ZM320.2,232.4h2.5v-.5h-2.5v.5ZM320.2,233.7h2.5v-.5h-2.5v.5Z"/>
    <path d="M329.9,228.2c-.2,0-.4,0-.7,0h-.2c.1.3.2.5.4.8.3.5.6.8,1,1.2-.2.3-.4.5-.6,1-.4-.4-.6-.7-.9-1.4q0,.4,0,1.4v2.6c0,.7,0,1.1,0,1.4h-1.4c0-.4,0-.8,0-1.4v-1.7c0-.6,0-1.2,0-1.8-.3.9-.7,1.7-1.2,2.4-.2-.4-.3-.7-.7-1.1.5-.6.9-1.2,1.2-2,.2-.5.4-1,.5-1.3h-.5c-.4,0-.6,0-.9,0v-1.3c.3,0,.5,0,.9,0h.6v-1.2c-.4,0-.5.1-1.1.2-.1-.4-.2-.6-.5-1.1,1.2-.1,2-.4,2.9-.7.2,0,.4-.2.5-.2l.7,1.1c0,0,0,0-.2,0-.3.1-.6.2-1,.4v1.5h.3c.4,0,.6,0,.8,0v.4c.3,0,.5,0,1,0h1.8v-.4h-1.3c-.5,0-.7,0-1,0v-.9c.3,0,.5,0,1,0h1.3v-.4h-1.5c-.5,0-.7,0-1.1,0v-1c.3,0,.7,0,1.1,0h1.4c0-.4,0-.5,0-.8h1.4c0,.2,0,.4,0,.8h1.6c.5,0,.8,0,1.2,0v1.1c-.4,0-.6,0-1.1,0h-1.7v.4h1.5c.5,0,.7,0,1,0v.9c-.3,0-.5,0-1,0h-1.5v.4h2c.5,0,.8,0,1.1,0v1.1c-.4,0-.6,0-1.1,0h-5c-.5,0-.8,0-1.1,0v-.2ZM331.5,233.3q-.8,0-1,0c0-.3,0-.6,0-1.1v-2.6c0-.6,0-.7,0-1,.3,0,.5,0,1,0h4c.6,0,.8,0,1,0,0,.3,0,.5,0,1.1v2.5c0,.6,0,.8,0,1.1-.3,0-.6,0-1,0h-.4c.8.4,1.5.6,2.4.8-.4.5-.5.7-.7,1.1-1.2-.3-1.9-.6-2.8-1.3l.5-.6h-2.2l.6.6c-.9.7-1.5,1-2.8,1.3-.3-.6-.4-.7-.6-1.1,1-.2,1.6-.4,2.4-.8h-.3ZM331.7,230h3.5v-.4h-3.5v.4ZM331.7,231.2h3.5v-.4h-3.5v.4ZM331.7,232.4h3.5v-.4h-3.5v.4Z"/>
    <path d="M341,224.6c0,.3,0,.7-.1,1.6,0,1.1-.1,3.5-.1,4.4s0,1.6.3,1.9c.3.4.9.6,1.6.6,1.3,0,2.3-.7,2.9-2.1.3-.6.4-1.2.6-2,.6.5.9.7,1.5.9-.5,1.6-.8,2.4-1.4,3.1-.9,1-2.1,1.5-3.6,1.5s-1.6-.2-2.1-.5c-.8-.6-1.2-1.5-1.2-3.1s0-1.8,0-4.8c0-.4,0-.6,0-.8,0-.3,0-.5,0-.8h1.7Z"/>
    <path d="M349,226.2c.4,0,.9.1,1.6.1s.3,0,.6,0c.1-.6.2-1.5.2-1.8s0-.1,0-.2h1.6q0,.4-.2,1.3c0,.3,0,.4-.1.7.9,0,1.5-.2,2.1-.4v1.4s0,0-.3,0c-.6.1-1.6.2-2,.3-.1.7-.4,2-.7,3.1-.3,1.2-.6,1.8-1.3,4l-1.5-.6c.8-1.5,1.8-4.3,2.1-6.5,0,0-.1,0-.2,0h-.7c0,0-.2,0-.4,0-.2,0-.4,0-.5,0s-.1,0-.2,0v-1.4ZM355,230.8c-.5.6-.6.9-.6,1.3,0,.6.6.9,1.8.9s2-.2,2.7-.4v1.5c-.1,0-.2,0-.5,0-1,.1-1.5.2-2.2.2-1.1,0-1.8-.2-2.4-.5-.5-.3-.9-.9-.9-1.5s.2-1.2.9-2.1l1.2.5ZM358.6,229.2c-.6,0-.9,0-1.5,0-1.2,0-2,0-3.2.3v-1.3c1.6-.3,2.2-.4,3.5-.4s.4,0,1.2,0v1.4Z"/>
    <path d="M369.5,226c-.1.2-.1.3-.2.5-.6,2.3-1.3,3.7-2.5,5-1.2,1.3-2.5,2.2-4.5,3.1-.3-.6-.5-.9-1.1-1.4,1.1-.3,1.7-.6,2.6-1.2,1.9-1.2,3-2.9,3.6-5.2h-5.7c-.8,0-1.1,0-1.5,0v-1.6c.5,0,.7,0,1.5,0h5.5c.7,0,.9,0,1.3-.1l.8.8Z"/>
    <path d="M375.7,228.8c0,.2,0,.3,0,.8,0,.2,0,.3,0,.4,1-.5,1.7-1,2.2-1.8,0,0,0,0,0,0,0,0,0,0,0,0h0c0,0-.2,0-.3,0h-4.7c-.6,0-.9,0-1.3,0v-1.4c.4,0,.7,0,1.3,0h5.1c.6,0,.7,0,1-.1l.7.8q-.1.2-.4.6c-.4.7-.9,1.4-1.5,1.9-.4.3-.7.6-1.3.9-.4-.5-.5-.6-.9-.9,0,1-.2,1.7-.5,2.3-.5,1.1-1.4,1.8-3,2.4-.3-.6-.4-.8-.9-1.2,1.3-.4,2.1-.9,2.6-1.8.3-.6.5-1.4.5-2.6s0-.3,0-.4h1.5Z"/>
    <path d="M390.7,225.4c-.2.2-.3.2-.4.4-.9.9-1.8,1.7-2.8,2.5v5.1c0,.7,0,1,0,1.3h-1.7c0-.3,0-.6,0-1.3v-4.2c-1.4.8-2.1,1.2-4.3,1.9-.3-.6-.4-.8-.8-1.4,2.4-.6,4.4-1.6,6.3-3.1,1.1-.8,1.9-1.7,2.2-2.2l1.4,1Z"/>
    <path d="M395.1,224.8q0,.3-.1,2.7c0,2.3-.3,3.7-1,4.9-.4.8-.9,1.4-1.7,2.2-.5-.6-.6-.8-1.2-1.2.6-.5.9-.8,1.2-1.4.9-1.4,1.1-2.9,1.1-6.3s0-.8,0-1.1h1.6ZM398.2,224.7c0,.3,0,.6,0,1.1v6.8c.8-.4,1.3-.8,1.8-1.4.6-.6.9-1.3,1.2-2.2.4.5.6.7,1.1,1.1-.5,1.2-1.1,2.1-1.9,2.8-.7.6-1.3.9-2.6,1.4-.3,0-.4.1-.5.2l-.8-.8c0-.3,0-.6.1-1.3v-6.8c0,0,0-.4,0-.4,0-.3,0-.6,0-.8h1.6Z"/>
    <path d="M403.4,225.5c.5.1,1.3.2,2.8.2.3-.7.4-1.1.5-1.5l1.6.2q0,.1-.5,1.1c0,.1,0,.2-.1.2q0,0,.8,0c1.4,0,2.5-.2,3.1-.4v1.4q-.3,0-.9,0c-.9.1-2.4.2-3.6.2-.3.7-.7,1.2-1.1,1.6h0q0,0,.2-.2c.4-.3,1.1-.5,1.7-.5.9,0,1.5.4,1.7,1.3.9-.3,1.5-.6,1.8-.6.6-.2.7-.2.9-.4l.6,1.4c-.3,0-.7.1-1.3.3-.2,0-.8.3-1.8.6h0q0,.4,0,.6v.5c0,.2,0,.3,0,.4,0,.3,0,.4,0,.6h-1.4c0-.2,0-.8,0-1.4v-.3c-.6.3-.9.4-1.2.6-.4.3-.6.6-.6,1,0,.6.6.9,2,.9s2.7-.2,3.5-.5v1.5c0,0-.1,0-.4,0-.9.1-2,.2-3.1.2s-2.1-.1-2.7-.5c-.6-.3-.9-.9-.9-1.5s.1-.9.5-1.3c.5-.7,1.2-1.1,2.6-1.7,0-.4-.3-.6-.7-.6-.7,0-1.5.4-2.5,1.2-.5.4-.8.7-1,1.1l-1.1-1.1c.3-.2.7-.6,1.1-1.1.5-.6,1.2-1.6,1.4-2.1q0,0,0-.2s-.2,0-.2,0c-.2,0-1.2,0-1.5,0q-.2,0-.3,0s-.1,0-.2,0v-1.4Z"/>
    <path d="M415.2,230.2c0-.4,0-.6,0-1.3-.3.5-.5.8-.8,1.3-.2-.6-.3-.9-.6-1.4,1.1-1.2,2-3.2,2.2-4.8l1.4.3c-.5,1.5-.6,1.7-1,2.7v6.8c0,.5,0,.9,0,1.4h-1.4c0-.5,0-.8,0-1.4v-3.5ZM421.5,230.8c-.1.8-.3,1.3-.7,1.8,1.3.7,2.5,1,4.5,1.1-.2.4-.4.9-.5,1.3-2-.2-3.4-.6-4.7-1.5-.7.7-1.5,1.1-2.7,1.5-.2-.4-.5-.8-.7-1.1,1.1-.3,1.8-.6,2.4-1.2-.3-.3-.5-.5-.7-.8-.2-.2-.3-.3-.4-.4l1-.6c.1.3.4.6.8,1,.2-.4.3-.7.4-1.1h-1.8c-.4,0-.7,0-1,0,0-.3,0-.6,0-1v-1.7c0-.5,0-.7,0-1,.4,0,.5,0,1.1,0h1.9v-.9h-2c-.5,0-.8,0-1.2,0v-1.3c.4,0,.8,0,1.3,0h1.8c0-.6,0-.8,0-1.2h1.4q0,.3,0,1.2h2.1c.6,0,.9,0,1.4,0v1.3c-.4,0-.7,0-1.2,0h-2.2v.9h1.8c.5,0,.8,0,1.1,0,0,.3,0,.6,0,1v1.5c0,.6,0,.8,0,1.1-.3,0-.6,0-1.2,0h-2ZM418.8,228.4v1.3h1.6c0-.5,0-.6,0-1.3h-1.7ZM421.7,228.4c0,.6,0,.9,0,1.3h1.7v-1.3h-1.6Z"/>
    <path d="M426.7,228.7q.3,0,1.2-.2c1.6-.4,2.7-.5,3.7-.5s2.3.4,2.8,1.2c.3.5.4,1,.4,1.5,0,1.6-1.1,2.9-3,3.5-.7.2-1,.3-2.6.5-.1-.6-.2-.8-.5-1.4h.2c.4,0,1.1,0,1.7-.2.9-.2,1.5-.4,2-.8.6-.4.9-1,.9-1.6,0-.9-.7-1.4-2-1.4s-1.8.1-3.2.5c-.8.2-1,.2-1.4.4l-.3-1.4Z"/>
    <path d="M435.9,225.8c.3,0,.4,0,.5,0q.2,0,2-.1c.7,0,2.7-.1,6-.3,1,0,1.2,0,1.4-.1v1.5s0,0-.2,0c-.7,0-1.6.2-2.4.6-1.5.8-2.4,2-2.4,3.2s.6,1.7,1.6,2c.6.2,1.4.3,1.8.3s.1,0,.2,0l-.2,1.6c-.1,0-.2,0-.4,0-1.3-.2-2.1-.4-2.8-.8-1.1-.6-1.7-1.6-1.7-2.9s.4-2,1.1-2.8c.5-.5.9-.8,1.7-1.2-1,.1-1.4.2-4,.4-.8,0-1.5.1-2,.2v-1.6Z"/>
    <path d="M452.2,227.4c0,.2,0,.2,0,1,0,2.1-.4,3.2-1.2,4.2-.7.9-1.6,1.5-3.1,2.2-.3-.6-.5-.9-.9-1.4,1-.3,1.5-.6,2.1-1,1.2-1,1.6-2,1.6-4.3s0-.5,0-.7h1.6ZM457.1,225.9c-.2.2-.2.2-.5.8-.4.9-1.1,1.8-1.8,2.4-.5.4-.9.7-1.4,1-.4-.5-.5-.7-1.1-1.1.8-.4,1.3-.6,1.8-1.1.5-.5.9-.9,1.1-1.5h-6.3c-.8,0-1.1,0-1.6,0v-1.5c.5,0,.8,0,1.7,0h6.3c.7,0,.8,0,1.2-.1l.8.9Z"/>
    <path d="M458.1,231.7c.5,0,.7,0,1.5,0h6.9c.8,0,1.1,0,1.5,0v1.6c-.4,0-.7,0-1.5,0h-6.9c-.8,0-1.1,0-1.5,0v-1.6ZM459.3,225.8c.4,0,.7,0,1.4,0h4.7c.7,0,1,0,1.4,0v1.6c-.4,0-.7,0-1.4,0h-4.7c-.7,0-1,0-1.4,0v-1.6Z"/>
    <path d="M478,225.1c-.1.2-.2.3-.4.9-.8,1.8-1.2,2.7-1.7,3.4,1,.9,1.6,1.4,2.7,2.5l-1.2,1.2c-.6-.8-1.3-1.6-2.4-2.5-.5.7-1.1,1.4-1.9,2-.9.8-1.6,1.3-2.9,2-.3-.6-.5-.8-1.1-1.2,1.3-.7,2.2-1.2,3.1-2.1.6-.5,1.1-1,1.5-1.6-1-.8-2.1-1.6-3.2-2.2l1.1-1.1c.9.5,1.4.9,2,1.3q.9.6,1,.7c.8-1.3,1.5-3,1.7-3.9l1.6.6Z"/>
    <path d="M480.4,228.7c.5,0,.8,0,1.9,0h6.4c1.2,0,1.4,0,1.9,0v1.7c-.5,0-.6,0-2,0h-6.4c-1.3,0-1.5,0-2,0v-1.7Z"/>
    <path d="M493.1,227.5c1.2.5,2.2,1,3.2,1.6l-.7,1.4c-1-.7-2-1.3-3.2-1.8l.8-1.2ZM492.6,232.9c.9,0,2.2-.3,3.5-.8,1.5-.6,2.5-1.4,3.5-2.6.6-.9,1-1.6,1.4-2.7.5.5.7.7,1.2,1.1-.6,1.3-1.1,2.2-1.8,3-1.5,1.8-3.6,2.8-6.5,3.4-.4,0-.6.1-.8.2l-.4-1.6ZM494,224.6c1.2.5,2.2.9,3.2,1.5l-.8,1.3c-1.1-.7-2.2-1.3-3.2-1.7l.8-1.2Z"/>
    <path d="M505.2,234.3c-.6,0-.8,0-1.1,0v-1.3c.3,0,.6,0,1.1,0h4.6v-1.8h-4.2c-.6,0-.8,0-1.1,0v-1.3c.3,0,.6,0,1.1,0h4.2v-1.7h-4.5c-.6,0-.8,0-1.1,0v-1.3c.3,0,.6,0,1.1,0h4.7c.4,0,.8,0,1.1,0,0,.4,0,.7,0,1.3v5.5c0,.5,0,.6,0,.9h-1.4v-.6h-4.6Z"/>
    <path d="M513.9,232.7c1,0,2.5-.4,3.5-.9,1.5-.6,2.6-1.6,3.6-2.9.5-.8.9-1.4,1.2-2.4.5.6.7.7,1.3,1.2-1,2.2-2.2,3.6-3.8,4.7-1.2.8-2.7,1.4-4.6,1.8-.5,0-.5.1-.8.2l-.4-1.7ZM514.9,225.2c1.4.9,2.2,1.4,3.1,2.3l-1,1.3c-1-1-1.9-1.8-3.1-2.4l1-1.2Z"/>
    <path d="M525,225.5c.5.1,1.3.2,2.8.2.3-.7.4-1.1.5-1.5l1.6.2q0,.1-.5,1.1c0,.1,0,.2-.1.2q0,0,.8,0c1.4,0,2.5-.2,3.1-.4v1.4q-.3,0-.9,0c-.9.1-2.4.2-3.6.2-.3.7-.7,1.2-1.1,1.6h0q0,0,.2-.2c.4-.3,1.1-.5,1.7-.5.9,0,1.5.4,1.7,1.3.9-.3,1.5-.6,1.8-.6.6-.2.7-.2.9-.4l.6,1.4c-.3,0-.7.1-1.3.3-.2,0-.8.3-1.8.6h0q0,.4,0,.6v.5c0,.2,0,.3,0,.4,0,.3,0,.4,0,.6h-1.4c0-.2,0-.8,0-1.4v-.3c-.6.3-.9.4-1.2.6-.4.3-.6.6-.6,1,0,.6.6.9,2,.9s2.7-.2,3.5-.5v1.5c0,0-.1,0-.4,0-.9.1-2,.2-3.1.2s-2.1-.1-2.7-.5c-.6-.3-.9-.9-.9-1.5s.1-.9.5-1.3c.5-.7,1.2-1.1,2.6-1.7,0-.4-.3-.6-.7-.6-.7,0-1.5.4-2.5,1.2-.5.4-.8.7-1,1.1l-1.1-1.1c.3-.2.7-.6,1.1-1.1.5-.6,1.2-1.6,1.4-2.1q0,0,0-.2s-.2,0-.2,0c-.2,0-1.2,0-1.5,0q-.2,0-.3,0s-.1,0-.2,0v-1.4Z"/>
    <path d="M539.6,224.4c-.1.3-.2.4-.3.7q-.2.5-.8,1.9v6.6c0,.6,0,1,0,1.5h-1.4c0-.5,0-.9,0-1.5v-3.4c0-.3,0-.4,0-1.4-.4.6-.7.9-1.2,1.4-.2-.6-.3-.9-.6-1.4.9-.8,1.7-1.9,2.3-3.3.3-.6.4-1.1.5-1.6l1.3.5ZM541.6,226.9c-.5,1.1-1.2,2-2,2.9-.3-.5-.5-.7-.9-1.1.9-.9,1.5-1.8,2-3.1.3-.7.5-1.3.5-1.7l1.4.4c-.1.3-.2.4-.2.6-.2.5-.2.5-.3.8h3.3c.6,0,1,0,1.3,0v1.3c-.3,0-.8,0-1.3,0h-2.3v1.5h2c.5,0,.8,0,1.2,0v1.3c-.4,0-.7,0-1.2,0h-1.9v1.5h2c.5,0,.8,0,1.2,0v1.3c-.4,0-.7,0-1.2,0h-2v1.4c0,.7,0,1.1,0,1.4h-1.5c0-.3,0-.7,0-1.4v-6.8h-.2Z"/>
    <path d="M558,228.2q0,.2-.3.6c-.5,1.3-1,2.2-1.6,3,.2.4.5.8.7,1,.2.2.5.4.5.4s0,0,.2-.2q0-.3.2-1.4c.4.4.6.5,1.1.8-.3,1.6-.7,2.3-1.4,2.3s-1.6-.8-2.3-1.9c-.9.9-1.8,1.6-2.9,2.1-.4-.6-.5-.7-.9-1,1.3-.5,2.3-1.2,3.2-2.2-.5-1.2-.8-2.7-.9-4.8h-3.7q0,1.2,0,1.6h2.2c.4,0,.6,0,.9,0,0,.2,0,.6,0,1-.1,2.2-.2,2.8-.4,3.3-.2.5-.6.7-1.5.7s-.5,0-.9,0c0-.5-.1-.8-.3-1.3.6,0,.8,0,1.2,0s.5,0,.5-.4c0-.4.2-1.2.2-2.2h-1.8c0,1.4-.2,2.2-.4,3-.2,1-.5,1.5-1,2.3-.4-.5-.6-.7-1-1,.4-.6.7-1.2.8-1.9.2-1,.4-2.6.4-4.7s0-1.2,0-1.7c.4,0,.9,0,1.5,0h3.5c0,0,0-.4,0-.9,0-.4,0-.5,0-.8h1.4c0,.3,0,.7,0,1.1v.6h1.6c-.3-.4-.6-.7-1.1-1.1l.9-.6c.6.5.8.7,1.2,1.3l-.6.4h.4c.6,0,1,0,1.3,0v1.3c-.4,0-.9,0-1.5,0h-2.2c.1,1.6.3,2.7.6,3.6.6-1,1-2,1.2-2.8l1.3.5Z"/>
  </g>
  <g>
    <line class="st8" x1="114.7" y1="55.4" x2="114.7" y2="81.7"/>
    <path d="M114.7,87.7c-1.1-2.8-2.9-6.4-4.8-8.5l4.8,1.7,4.8-1.7c-1.9,2.2-3.7,5.7-4.8,8.5Z"/>
  </g>
  <g>
    <line class="st8" x1="431" y1="194.9" x2="431" y2="209.6"/>
    <path d="M431,215.6c-1.1-2.8-2.9-6.4-4.8-8.5l4.8,1.7,4.8-1.7c-1.9,2.2-3.7,5.7-4.8,8.5Z"/>
  </g>
  <g>
    <line class="st8" x1="431" y1="139.8" x2="431" y2="151"/>
    <path d="M431,157c-1.1-2.8-2.9-6.4-4.8-8.5l4.8,1.7,4.8-1.7c-1.9,2.2-3.7,5.7-4.8,8.5Z"/>
  </g>
  <g>
    <line class="st8" x1="227.2" y1="101.1" x2="257.3" y2="101.1"/>
    <path d="M263.3,101.1c-2.8,1.1-6.4,2.9-8.5,4.8l1.7-4.8-1.7-4.8c2.2,1.9,5.7,3.7,8.5,4.8Z"/>
  </g>
  <rect class="st5" x="18" y="27.8" width="200.1" height="27.3"/>
  <rect class="st2" x="263.8" y="20.5" width="343.1" height="174.4"/>
  <g>
    <polyline class="st2" points="226.6 238.9 226.6 242.9 222.6 242.9"/>
    <line class="st6" x1="214.4" y1="242.9" x2="20" y2="242.9"/>
    <polyline class="st2" points="15.9 242.9 11.9 242.9 11.9 238.9"/>
    <line class="st1" x1="11.9" y1="231" x2="11.9" y2="29.1"/>
    <polyline class="st2" points="11.9 25.2 11.9 21.2 15.9 21.2"/>
    <line class="st6" x1="24.2" y1="21.2" x2="218.5" y2="21.2"/>
    <polyline class="st2" points="222.6 21.2 226.6 21.2 226.6 25.2"/>
    <line class="st1" x1="226.6" y1="33.1" x2="226.6" y2="235"/>
  </g>
  <g>
    <polyline class="st5" points="594.9 135.8 594.9 139.8 590.9 139.8"/>
    <line class="st4" x1="582.8" y1="139.8" x2="294.2" y2="139.8"/>
    <polyline class="st5" points="290.2 139.8 286.2 139.8 286.2 135.8"/>
    <line class="st0" x1="286.2" y1="127.8" x2="286.2" y2="51.5"/>
    <polyline class="st5" points="286.2 47.5 286.2 43.5 290.2 43.5"/>
    <line class="st4" x1="298.3" y1="43.5" x2="586.9" y2="43.5"/>
    <polyline class="st5" points="590.9 43.5 594.9 43.5 594.9 47.5"/>
    <line class="st0" x1="594.9" y1="55.5" x2="594.9" y2="131.8"/>
  </g>
  <rect class="st3" x="279.2" y="39.6" width="322.4" height="147.2"/>
  <rect class="st5" x="18" y="87.7" width="200.1" height="113.6"/>
  <rect class="st7" x="30.6" y="164.1" width="182.2" height="27.3"/>
  <rect class="st5" x="18" y="207.8" width="200.1" height="27.3"/>
  <rect class="st7" x="30.6" y="97.7" width="182.2" height="27.3"/>
  <rect class="st7" x="288.2" y="45.5" width="304.9" height="27.3"/>
  <rect class="st7" x="288.2" y="77.7" width="304.9" height="27.3"/>
  <rect class="st7" x="288.2" y="110" width="304.9" height="27.3"/>
  <rect class="st7" x="288.2" y="156.6" width="304.9" height="27.3"/>
  <rect class="st7" x="285.2" y="215.6" width="304.9" height="27.3"/>
  <rect class="st7" x="30.6" y="130.9" width="182.2" height="27.3"/>
  <g>
    <path d="M71.5,41.3c-.1.2-.2.4-.3.8-.6,1.8-1.5,3.1-2.8,4.1-.9.7-1.6,1.1-3.1,1.6-.3-.6-.4-.8-.9-1.4,1.5-.4,2.4-.8,3.3-1.6.9-.7,1.4-1.5,1.9-2.8h-5.8c-.8,0-1.1,0-1.5,0v-1.5c.5,0,.7,0,1.6,0h5.7c.7,0,1,0,1.4-.1l.7.8ZM63.3,37.7c.4,0,.6,0,1.4,0h4.2c.8,0,1,0,1.4,0v1.5c-.4,0-.6,0-1.4,0h-4.2c-.8,0-1,0-1.4,0v-1.5Z"/>
    <path d="M82.4,38.3c-.2.2-.3.2-.4.4-.9.9-1.8,1.7-2.8,2.5v5.1c0,.7,0,1,0,1.3h-1.7c0-.3,0-.6,0-1.3v-4.2c-1.4.8-2.1,1.2-4.3,1.9-.3-.6-.4-.8-.8-1.4,2.4-.6,4.4-1.6,6.3-3.1,1.1-.8,1.9-1.7,2.2-2.2l1.4,1Z"/>
    <path d="M92.9,39.6c0,.2-.1.3-.2.5-.9,3.8-3.1,6.2-6.8,7.8-.3-.6-.5-.9-1.1-1.4,3.3-1,5.5-3.3,6.3-6.5h-5.7c-.9,0-1.1,0-1.5,0v-1.6c.4,0,.7,0,1.5,0h5.5c.4,0,.6,0,.9,0-.2-.4-.4-.8-.7-1.2l.9-.3c.5.6.7,1.1,1.1,1.9l-.5.2.4.4ZM93.6,38.8c-.3-.7-.6-1.3-1-1.9l.9-.3c.5.6.8,1.1,1.1,1.8l-.9.4Z"/>
    <path d="M104.6,41.3c-.1.2-.2.4-.3.8-.6,1.8-1.5,3.1-2.8,4.1-.9.7-1.6,1.1-3.1,1.6-.3-.6-.4-.8-.9-1.4,1.5-.4,2.4-.8,3.3-1.6.9-.7,1.4-1.5,1.9-2.8h-5.8c-.8,0-1.1,0-1.5,0v-1.5c.5,0,.7,0,1.6,0h5.7c.7,0,1,0,1.4-.1l.7.8ZM96.3,37.7c.4,0,.6,0,1.4,0h4.2c.8,0,1,0,1.4,0v1.5c-.4,0-.6,0-1.4,0h-4.2c-.8,0-1,0-1.4,0v-1.5Z"/>
    <path d="M108.4,37.6c0,.3,0,.4,0,1.1v3.3c0,.6,0,.8,0,1.1h-1.6c0-.3,0-.6,0-1.1v-3.3c0-.6,0-.8,0-1.1h1.6ZM113.9,37.6c0,.3,0,.4,0,1.1v1.6c0,1.9,0,2.9-.3,3.6-.3,1.2-1.1,2.1-2.4,2.8-.6.4-1.2.6-2.3.9-.2-.6-.3-.8-.8-1.4,1.2-.2,1.9-.5,2.6-1,1.1-.7,1.5-1.5,1.7-3.1,0-.5,0-1,0-2v-1.5c0-.6,0-.9,0-1.1h1.7Z"/>
    <path d="M120.8,44.3c-.7,1.5-1.5,2.3-2.4,2.3s-2.4-1.4-2.4-3.3.5-2.6,1.3-3.5c1-1.1,2.4-1.7,4.1-1.7,2.9,0,4.7,1.8,4.7,4.4s-1.1,3.7-2.9,4.5c-.6.2-1,.4-1.9.5-.2-.6-.3-.9-.7-1.4,1.1-.1,1.8-.3,2.4-.7,1-.6,1.7-1.7,1.7-3s-.5-2.1-1.5-2.7c-.4-.2-.7-.3-1.2-.4-.2,1.9-.6,3.5-1.2,4.9ZM119.1,40c-1,.7-1.6,2-1.6,3.2s.4,1.8.9,1.8.8-.5,1.2-1.5c.5-1.1.9-2.7,1-4.1-.6,0-1.1.2-1.5.6Z"/>
    <path d="M127.4,38.9c.3,0,.5,0,1,0h2.1c.5,0,.7,0,1,0v1.2c-.3,0-.4,0-.9,0h-2.1c-.4,0-.6,0-1,0v-1.2ZM134.3,43.3c0,.2,0,.4,0,.6,0,1.5-.3,2.2-.8,2.9-.4.6-1,1-1.9,1.4-.2-.3-.2-.5-.4-.7-.3,0-.4,0-.6,0h-1.6v.6h-1.2c0-.4,0-.8,0-1.2v-1.8c0-.4,0-.6,0-.9.2,0,.3,0,.8,0h2c.3,0,.5,0,.7,0,0,.2,0,.4,0,.9v1.9c.5-.2.8-.4,1.1-.7.5-.5.8-1.3.8-2.4s0-.4,0-.6h1.3ZM127.8,37.3c.3,0,.5,0,1,0h1.5c.5,0,.7,0,1,0v1.2c-.3,0-.5,0-1,0h-1.5c-.4,0-.7,0-1,0v-1.2ZM127.8,40.8c.2,0,.4,0,.8,0h1.9c.4,0,.5,0,.7,0v1.1c-.2,0-.4,0-.7,0h-1.9c-.4,0-.5,0-.8,0v-1.1ZM127.8,42.4c.2,0,.4,0,.8,0h1.9c.4,0,.5,0,.7,0v1.1c-.2,0-.4,0-.8,0h-1.9c-.4,0-.5,0-.8,0v-1.1ZM128.9,46.3h1.2v-1.2h-1.2v1.2ZM137.1,44.1v-1.3h-4.5v1.3h-1.2c0-.3,0-.6,0-.9v-.7c0-.4,0-.6,0-.9.1,0,.5,0,1.1,0h4.7c.6,0,.9,0,1.2,0,0,.2,0,.5,0,.9v.8c0,.4,0,.6,0,.9h-1.3ZM132.7,39.1c-.5,0-.9,0-1.2,0v-1.3c.4,0,.7,0,1.3,0h1.3v-.2c0-.4,0-.6,0-.9h1.4c0,.3,0,.5,0,.9h0c0,.1,1.7.1,1.7.1.6,0,.9,0,1.3,0v1.3c-.3,0-.6,0-1.2,0h-1.8v.9h1.4c.5,0,.8,0,1.1,0v1.2c-.3,0-.6,0-1.1,0h-3.8c-.5,0-.8,0-1.1,0v-1.2c.3,0,.6,0,1.1,0h1.2v-.9h-1.4ZM136.3,43.3c0,.3,0,.5,0,.9v2.3c0,.2,0,.3.5.3s.5,0,.5-.3c0-.2,0-.7,0-1.4.5.2.8.4,1.2.4,0,1.3-.2,1.7-.4,2-.2.3-.6.4-1.5.4-1.3,0-1.7-.2-1.7-1v-2.8c0-.4,0-.6,0-.9h1.4Z"/>
    <path d="M140.8,37.8c.3,0,.6,0,1.2,0s1.8,0,2.2-.1c.2,0,.3,0,.5-.1l.9.8c-.1.1-.2.3-.3.5,0,.1-.8,2.4-.9,2.7.9.1,1.7.4,2.7.8,0-.6.1-1.1.1-2.2s0-.4,0-.6h1.5c0,.3,0,.4,0,.9,0,1.1,0,1.8-.2,2.5.4.2.9.5,1.3.7.3.2.4.2.6.3l-.5,1.6c-.3-.3-1-.8-1.7-1.1-.3.9-.7,1.5-1.3,2.1-.5.6-1.1,1-1.8,1.4-.5-.6-.6-.7-1.1-1.1.9-.4,1.4-.7,1.9-1.3.5-.5.9-1.2,1.1-1.8-.9-.4-1.6-.6-2.7-.8-.5,1.6-.8,2.4-1.2,3-.4.8-1,1.1-1.6,1.1-1.1,0-1.9-1-1.9-2.3s.5-2,1.5-2.6c.6-.4,1.3-.5,2.3-.6.3-.9.5-1.4.8-2.5-.6,0-.9,0-2.1.1-.5,0-.7,0-.9,0v-1.4ZM141.1,43.5c-.3.3-.5.7-.5,1.2s.3.9.6.9.4-.2.7-.8c.2-.5.5-1.2.8-2-.8.1-1.2.3-1.6.7Z"/>
    <path d="M151.1,41.5c.3,0,.5,0,1,0h1c.4,0,.6,0,.9,0,0,.4,0,.6,0,1.3v2.5c.2.4.3.5.7.8.6.4,1.2.4,3.3.4s3.3,0,4.4-.3c-.2.6-.3.9-.4,1.4-1.1,0-2.8,0-3.6,0-2,0-2.9,0-3.6-.3-.6-.2-1.1-.5-1.5-1.1-.4.4-.7.6-1.2,1.1-.2.2-.3.2-.4.3q-.1,0-.2.1l-.6-1.4c.5-.2,1.3-.7,1.8-1.2v-2.6h-.7c-.3,0-.5,0-.8,0v-1.3ZM152.2,37.2c.9.8,1.5,1.4,2.1,2.2l-1,1c-.7-1-1.1-1.4-2.1-2.3l1-.9ZM156.1,38.6c-.4,0-.7,0-1,0v-1.3c.3,0,.5,0,1,0h1.7c.4,0,.6,0,.9,0,0,.3,0,.4,0,.6,0,1.2.3,2.4.8,3.5.6,1.3,1.3,2.1,2.6,3.1-.3.4-.5.7-.8,1.3-.9-.7-1.4-1.1-1.9-1.9-.6-.8-.9-1.5-1.3-2.8-.3,1.3-.6,2-1.3,2.9-.4.6-.8,1-1.6,1.6-.3-.4-.5-.6-.9-1,.7-.5,1.1-.9,1.6-1.5.6-.9,1.1-1.8,1.3-2.9.1-.5.2-.8.2-1.7h-1.2Z"/>
    <path d="M164.3,37.8c.3,0,.6,0,1.2,0s1.8,0,2.2-.1c.2,0,.3,0,.5-.1l.9.8c-.1.1-.2.3-.3.5,0,.1-.8,2.4-.9,2.7.9.1,1.7.4,2.7.8,0-.6.1-1.1.1-2.2s0-.4,0-.6h1.5c0,.3,0,.4,0,.9,0,1.1,0,1.8-.2,2.5.4.2.9.5,1.3.7.3.2.4.2.6.3l-.5,1.6c-.3-.3-1-.8-1.7-1.1-.3.9-.7,1.5-1.3,2.1-.5.6-1.1,1-1.8,1.4-.5-.6-.6-.7-1.1-1.1.9-.4,1.4-.7,1.9-1.3.5-.5.9-1.2,1.1-1.8-.9-.4-1.6-.6-2.7-.8-.5,1.6-.8,2.4-1.2,3-.4.8-1,1.1-1.6,1.1-1.1,0-1.9-1-1.9-2.3s.5-2,1.5-2.6c.6-.4,1.3-.5,2.3-.6.3-.9.5-1.4.8-2.5-.6,0-.9,0-2.1.1-.5,0-.7,0-.9,0v-1.4ZM164.7,43.5c-.3.3-.5.7-.5,1.2s.3.9.6.9.4-.2.7-.8c.2-.5.5-1.2.8-2-.8.1-1.2.3-1.6.7Z"/>
  </g>
  <g>
    <path d="M20.1,81.3v2.8c0,.7,0,1.1,0,1.5h-1.4c0-.4,0-.9,0-1.5v-2.6q0-.1,0-.3c-.4.4-.8.7-1.4,1.1-.1-.5-.3-.8-.6-1.2.7-.4,1.2-.9,1.8-1.4.7-.7,1-1.2,1.5-2.2h-1.7c-.4,0-.8,0-1.1,0v-1.3c.3,0,.5,0,1.1,0h.4v-.9c0-.4,0-.7,0-1h1.4c0,.3,0,.5,0,1v.9h.2c.4,0,.6,0,.9,0l.6.7c0,.1-.1.2-.3.5-.3.7-.7,1.4-1.3,2.2.1.1.2.2.4.4.6-.7.9-1.1,1.2-1.7l.9.7c-.8,1.1-.8,1.1-1.3,1.6.2.2.4.3.8.5-.3.3-.5.6-.7,1-.6-.4-1-.8-1.5-1.2v.2ZM23.2,76.6c-.6,0-1.1,0-1.4,0v-1.3c.4,0,.9,0,1.4,0h3.5c.5,0,.9,0,1.2,0q0,.3,0,2.6c0,3.3-.2,5.5-.5,6.4-.1.4-.3.7-.6.9-.3.1-.6.2-1.2.2s-.5,0-1.3,0c0-.7-.1-.9-.3-1.3.6,0,1.1.1,1.5.1s.6-.1.8-1c0-.5.2-1.8.3-2.8,0-1.2,0-1.6,0-3.7h-1.7c0,2-.2,3.2-.5,4.5-.3,1.2-.8,2.1-1.5,3.1-.4.5-.7.8-1.3,1.4-.3-.5-.6-.8-.9-1.1.8-.7,1.4-1.3,1.8-2.1.6-1.2.9-2.4,1-4.1,0-.5,0-.6,0-1.5h-.3Z"/>
    <path d="M30.2,75.8c0-.4,0-.7,0-1h1.3c0,.3,0,.6,0,1v.2h1.7v-.2c0-.5,0-.8,0-1h1.3c0,.3,0,.6,0,1v.2c.4,0,.6,0,.8,0v1.2c-.2,0-.4,0-.8,0v4.6c.4,0,.5,0,.7,0v1.2c-.2,0-.5,0-1,0h-3.9c-.5,0-.7,0-.9,0v-1.2c.2,0,.4,0,.9,0h.2v-4.6c-.5,0-.7,0-.9,0v-1.2c.2,0,.4,0,.9,0v-.2ZM31.9,83.5c-.6,1-.9,1.4-1.8,2.2-.3-.4-.4-.6-.9-.9.8-.6,1.2-1,1.8-1.9l1,.6ZM33.1,77.9v-.8h-1.7v.8h1.7ZM33.1,79.7v-.8h-1.7v.8h1.7ZM33.1,81.7v-.9h-1.7v.9h1.7ZM33.4,82.9c.4.6.4.7,1.1,1.3-.4.3-.6.6-.9.9q-.7-.8-1.2-1.5l.9-.6ZM36.5,81.9c-.2,1.9-.5,2.8-1.3,3.9-.4-.4-.6-.6-1-1,.6-.7.9-1.3,1-2.2.2-1,.2-2.8.2-5.9s0-1.2,0-1.6c.4,0,.7,0,1.3,0h1.7c.7,0,.9,0,1.3,0,0,.3,0,.7,0,1.3v8c0,.6-.2,1-.5,1.1-.2.1-.7.2-1.2.2s-.2,0-.8,0c0-.5-.1-.8-.3-1.3.5,0,.8.1,1.1.1s.5,0,.5-.3v-2.2h-1.9ZM36.7,79.1c0,.7,0,1.2,0,1.7h1.9v-1.7h-1.8ZM38.5,76.3h-1.8v1.6h1.8v-1.6Z"/>
    <path d="M42.9,80.8c0-.4,0-.5,0-1.3-.3.4-.8,1.1-1.2,1.6-.2-.7-.3-.8-.6-1.4.8-.8,1.2-1.3,1.7-2.1.6-1.1,1.1-2.2,1.2-3l1.4.4c-.1.2-.2.4-.3.7-.3.8-.3.9-.9,2.1v6.4c0,.5,0,1,0,1.5h-1.5c0-.5,0-1,0-1.6v-3.3ZM47.7,83.7c0,.3.2.4,1.2.4s1.5,0,1.7-.3c.2-.3.3-.7.3-2.2.5.2.9.4,1.3.5,0,1.5-.3,2.3-.6,2.6-.4.5-1,.6-3,.6s-2.3-.2-2.3-1.3v-7.9c0-.6,0-1.1,0-1.4h1.5c0,.4,0,.8,0,1.4v2.7c1.4-.7,2.6-1.7,3.3-2.6l1,1.1c0,0-.1.1-.3.2-1.3,1.2-2.4,2-4.1,2.8v3.4Z"/>
  </g>
  <g>
    <path d="M284.6,205.2c-.3,0-.5,0-.8,0v-1.3c.3,0,.5,0,.8,0h.5v-1c0-.6,0-.9,0-1.2h1.4c0,.3,0,.6,0,1.2v1h.4c.2,0,.3,0,.5,0v-.7c.3,0,.6,0,1,0h.5v-.7c0-.3,0-.5,0-.8h1.3c0,.2,0,.4,0,.8v.7h1.6v-.7c0-.3,0-.6,0-.8h1.3c0,.3,0,.4,0,.8v.7h.5c.5,0,.9,0,1.2,0v1.3c-.4,0-.7,0-1.2,0h-.6v.5c0,.3,0,.5,0,.7h-1.3c0-.2,0-.4,0-.7v-.5h-1.6v.5c0,.3,0,.5,0,.7h-1.3c0-.2,0-.4,0-.7v-.5h-.6c-.5,0-.7,0-.9,0v.7c-.2,0-.3,0-.6,0h-.4v1.8c.3-.1.4-.2.8-.3v1.2c-.4.2-.5.2-.8.3v3.4c0,.9-.3,1.2-1.5,1.2s-.5,0-.8,0c0-.5,0-.8-.3-1.2.3,0,.8,0,1,0s.3,0,.3-.3v-2.6c-.8.3-1.1.4-1.3.5l-.2-1.3c.3,0,.7-.1,1.4-.3v-2.2h-.5ZM287.5,207.3c0-.6,0-.8,0-1.2.3,0,.6,0,1,0h4.5c.5,0,.9,0,1.2,0,0,.3,0,.6,0,1.1v4.3c0,.5,0,.9,0,1.4h-1.3v-.6h-4.2v.6h-1.3c0-.4,0-.9,0-1.4v-4.2ZM288.7,207.2v1.3h1.5v-1.3h-1.5ZM288.7,209.7v1.5h1.5v-1.5h-1.5ZM291.4,207.2v1.3h1.5v-1.3h-1.5ZM291.4,209.7v1.5h1.5v-1.5h-1.5Z"/>
    <path d="M297.2,203.3c-.5,0-1,0-1.5,0v-1.3c.4,0,.9,0,1.5,0h7.9c.5,0,1,0,1.5,0v1.3c-.4,0-1,0-1.5,0h-3.4v1.1h1.4c.4,0,.7,0,1,0,0,.3,0,.5,0,.9v4.3c0,.4,0,.6,0,.9-.3,0-.5,0-1.1,0h-3.9c-.6,0-.8,0-1.1,0,0-.3,0-.5,0-.9v-4.3c0-.4,0-.6,0-.9.3,0,.6,0,1,0h1.4v-1.1h-3.3ZM306.3,204.6c0,.4,0,.9,0,1.3v5.4c0,.6,0,1.1,0,1.6h-1.4v-.6h-7.6v.6h-1.4c0-.5,0-1,0-1.6v-5.4c0-.5,0-.9,0-1.3h1.4c0,.3,0,.5,0,1.1v5.5h7.6v-5.6c0-.5,0-.7,0-1h1.4ZM299.4,205.5v1.3h1.2v-1.3h-1.2ZM299.4,207.9v1.5h1.2v-1.5h-1.2ZM301.8,206.8h1.2v-1.3h-1.2v1.3ZM301.8,209.3h1.2v-1.5h-1.2v1.5Z"/>
    <path d="M311.7,203.3c.5,0,.7,0,1,0q0,.3,0,.7c-.1,2.4-.4,3.7-1.2,5.3.5.8,1,1.2,1.6,1.5.8.4,2,.5,3.7.5s1.3,0,2.3,0c-.2.6-.3.8-.4,1.4-.4,0-1.2,0-1.6,0-1.1,0-2.4-.1-3.3-.3-1.2-.2-2.2-.9-3-2-.7,1-1.4,1.7-2.5,2.6-.2-.5-.4-.9-.8-1.2,1.2-.9,1.9-1.6,2.5-2.6-.4-.9-.5-1.2-.8-2.1-.3.6-.5,1-.9,1.6-.2-.6-.4-.8-.8-1.2.6-.8,1.1-1.7,1.4-2.9.3-.9.4-2,.4-2.6s0,0,0-.2h1.3c0,.3,0,.5-.1.8,0,.2,0,.4-.1.7h1.3ZM310.1,204.4c0,.4-.2.6-.3,1,.4,1.4.5,1.6.8,2.4.4-1,.6-1.8.7-3.5h-1.2ZM314.6,203.6c0,2,0,3-.3,4.1-.2,1.1-.5,1.8-1.1,2.7-.3-.4-.6-.6-1.1-.9,1-1.2,1.2-2.3,1.2-6.2s0-.7,0-.9c.2,0,.4,0,.9,0h1.6c.5,0,.9,0,1.1,0,0,.3,0,.6,0,1.1v5.2c0,.2,0,.2.3.2s.3,0,.4-.4c0-.3,0-.8.1-1.9.4.2.7.3,1,.4,0,1.5-.1,2.3-.3,2.7-.2.4-.5.5-1.3.5-1.1,0-1.4-.2-1.4-.9v-5.6h-1.1Z"/>
    <path d="M320.6,203.6c-.4,0-.6,0-.9,0v-1.3c.3,0,.6,0,1.1,0h1.7c.5,0,.8,0,1.1,0v1.3c-.3,0-.6,0-.9,0h-.4v2.3h.3c.3,0,.5,0,.8,0v1.2c-.2,0-.5,0-.8,0h-.3v2.4c.5-.2.6-.3,1.2-.5v1.3c-1,.5-1.5.7-3.3,1.5,0,0-.1,0-.2,0l-.3-1.4c.4,0,.7-.2,1.5-.5v-2.9h-.4c-.3,0-.5,0-.8,0v-1.2c.3,0,.5,0,.8,0h.4v-2.3h-.5ZM326.4,210.1h-1.3c-.7,0-.9,0-1.2,0v-1.2c.3,0,.5,0,1.2,0h1.3v-1h-1.1c-.8,0-1.1,0-1.4,0q0-.3,0-1.5v-2.7c0-.8,0-1.2,0-1.6.5,0,.8,0,1.6,0h3.3c.9,0,1.2,0,1.5,0,0,.3,0,.9,0,1.6v2.6c0,.8,0,1.3,0,1.6-.4,0-.6,0-1.3,0h-1.4v1h1.5c.7,0,.9,0,1.3,0v1.2c-.3,0-.6,0-1.3,0h-1.5v1.2h1.9c.6,0,.9,0,1.3,0v1.3c-.4,0-.7,0-1.4,0h-5c-.6,0-.9,0-1.4,0v-1.3c.3,0,.6,0,1.2,0h2.1v-1.2ZM325,203.4v1.2h1.3v-1.2h-1.3ZM325,205.7v1.2h1.3v-1.2h-1.3ZM327.6,204.6h1.4v-1.2h-1.4v1.2ZM327.6,206.9h1.4v-1.2h-1.4v1.2Z"/>
  </g>
  <g>
    <path d="M10,7.8c.3,0,.5,0,1,0h2.5c.5,0,.7,0,1,0v1.2c-.3,0-.4,0-.9,0h-2.5c-.4,0-.7,0-1,0v-1.2ZM20.3,11.4q0,.1-.2.5c-.5,1.1-1,1.8-1.6,2.5.8.5,1.4.7,2.7,1.1-.3.5-.4.8-.6,1.3-1.4-.5-2.2-.9-3-1.5-.8.6-1.7,1.1-2.9,1.5-.2-.4-.4-.7-.6-1,0,.4,0,.6,0,.9h-1.2v-.4h-1.4v.6h-1.2c0-.4,0-.8,0-1.2v-1.8c0-.4,0-.7,0-.9.3,0,.6,0,.9,0h2.1c.5,0,.6,0,.8,0,0,.3,0,.4,0,.9v1.8c1.1-.3,1.8-.7,2.6-1.2-.7-.8-1.1-1.3-1.5-2.5-.2,0-.3,0-.5,0v-1.3c.2,0,.5,0,.8,0h3.5c.5,0,.7,0,.8,0l.7.6ZM10.4,6.1c.3,0,.5,0,1,0h1.7c.5,0,.7,0,1,0v1.2c-.3,0-.6,0-1,0h-1.7c-.4,0-.7,0-1,0v-1.2ZM10.4,9.6c.2,0,.4,0,.8,0h2.1c.4,0,.6,0,.8,0v1.1c-.3,0-.4,0-.8,0h-2.1c-.4,0-.6,0-.8,0v-1.1ZM10.4,11.3c.2,0,.4,0,.8,0h2.1c.4,0,.6,0,.8,0v1.1c-.3,0-.4,0-.8,0h-2.1c-.4,0-.5,0-.8,0v-1.1ZM11.5,15.2h1.4v-1.2h-1.4v1.2ZM16.6,7.4c0,1-.2,1.6-.5,2.3-.2.5-.5.8-.9,1.1-.3-.3-.7-.6-1-.8.9-.7,1.2-1.4,1.2-3s0-.5,0-.8c.3,0,.6,0,.9,0h1.8c.4,0,.7,0,1,0,0,.3,0,.6,0,1v1.8c0,.2,0,.2.4.2q.5,0,.6-1.4c.4.2.7.3,1.1.4-.1,2-.3,2.1-1.8,2.1s-1.4-.1-1.4-.8v-2.1h-1.3ZM16.3,12c.3.7.6,1.2,1.2,1.7.5-.5.8-.9,1.2-1.7h-2.4Z"/>
    <path d="M26.9,10.4h-1.8c-.5,0-.9,0-1.2,0v-1.3c.3,0,.7,0,1.2,0h4.6c.6,0,.9,0,1.2,0v1.3c-.3,0-.7,0-1.2,0h-1.6v1.5h2.3c.6,0,.9,0,1.2,0v1.3c-.4,0-.6,0-1.2,0h-2.3v2.1c.6,0,1.2.1,2,.1s1.5,0,2.7-.1c-.2.5-.3.8-.3,1.4-1,0-1.6,0-2.6,0-2.8,0-4.4-.6-5.4-2.1-.4.8-.8,1.5-1.6,2.4-.3-.4-.5-.6-1-1,1-.9,1.7-2,2.1-3.4.1-.5.2-1,.2-1.3l1.3.3c0,.2,0,.2-.2.7,0,.2-.1.5-.3,1.1.5.9,1,1.3,1.8,1.7v-4.4ZM26.7,6.6c0-.3,0-.5,0-.8h1.5c0,.3,0,.4,0,.8v.5h3.2c.5,0,.9,0,1.3,0,0,.3,0,.5,0,.9v.9c0,.3,0,.6,0,.9h-1.3v-1.5h-7.7v1.5h-1.3c0-.3,0-.5,0-.9v-.9c0-.3,0-.6,0-.9.4,0,.8,0,1.3,0h3.1v-.4Z"/>
    <path d="M37.8,11.3c0,.8-.6,1.4-1.4,1.4s-1.4-.6-1.4-1.4.6-1.4,1.4-1.4,1.4.6,1.4,1.4Z"/>
    <path d="M49.6,11.9c.5,0,.8,0,1.1,0v1.2c-.3,0-.6,0-1.2,0h-3.6v.7h3.5c.6,0,1,0,1.4,0v1.3c-.4,0-.8,0-1.5,0h-3.3v.7c0,.6,0,1,0,1.4h-1.5c0-.5,0-.8,0-1.4v-.7h-3.2c-.7,0-1.1,0-1.5,0v-1.3c.4,0,.7,0,1.3,0h3.4v-.7c-.4,0-.7,0-1,0,0-.4,0-.6,0-1.1v-1.6c0-.4,0-.7,0-1-.3.3-.4.5-.7.8-.2-.3-.2-.4-.5-.7l-.7,1c-.7-.5-1.2-.9-2-1.3l.9-1c.7.3,1,.5,1.5.9,1.2-.9,2-2,2.5-3.3l1.3.3c0,0,0,.2-.1.2q-.2.3-.5.8h1.5c.3-.5.5-.9.7-1.3l1.2.3c0,0-.1.2-.1.2-.2.4-.3.4-.5.8h1.2c.4,0,.9,0,1.2,0v1.2c-.3,0-.6,0-1,0h-1.6v.6h1.2c.6,0,.8,0,1.1,0v1.1c-.3,0-.5,0-1.1,0h-1.2v.6h1.2c.6,0,.8,0,1.1,0v1.1c-.3,0-.6,0-1.1,0h-1.2v.6h1.7ZM43.3,11.3c-.8.8-1.4,1.3-2.6,2.1l-.8-1.2c.2,0,.4-.2.6-.3.9-.5,1.3-.9,2.2-1.7l.6,1.1ZM41.2,5.8c.9.4,1.2.7,1.9,1.2l-.8,1.1c-.7-.7-1.1-.9-2-1.3l.8-1ZM46.7,8.7v-.6h-1.8v.6h1.8ZM44.9,10.3h1.8v-.6h-1.8v.6ZM44.9,11.9h1.8v-.6h-1.8v.6Z"/>
    <path d="M56.2,9.9c0,1.6,0,2.9-.2,3.9-.2,1.3-.4,2.1-1,3-.2-.3-.5-.7-.9-.9,0,.4,0,.6,0,1h-1.4c0-.5,0-.8,0-1.4v-3.3c0-.5,0-.9,0-1.6-.2.5-.5.9-.8,1.3q-.2-.8-.5-1.4c.7-.7,1.2-1.6,1.6-2.7.3-.8.5-1.4.6-2l1.3.3c0,.2-.1.4-.2.6-.2.8-.4,1.2-.8,1.9v7c.3-.5.4-.9.6-1.6.2-.9.3-2.1.3-4s0-.8,0-1.2c.4,0,.7,0,1.3,0h5.4c.7,0,.9,0,1.3,0v1.2c-.3,0-.7,0-1.2,0h-5.5ZM56.7,6.5c0-.4,0-.5,0-.7h1.3c0,.2,0,.4,0,.7v.3h1.6v-.3c0-.4,0-.5,0-.7h1.3c0,.2,0,.4,0,.7v.3h.8c.5,0,1,0,1.2,0v1.2c-.3,0-.6,0-1.2,0h-.8c0,.4,0,.5,0,.7h-1.3c0-.2,0-.4,0-.6h0c0-.1-1.6-.1-1.6-.1h0c0,.4,0,.5,0,.7h-1.3c0-.2,0-.4,0-.6h0c0-.1-.5-.1-.5-.1-.6,0-.9,0-1.2,0v-1.2c.3,0,.7,0,1.2,0h.5v-.3ZM57.6,14.8v.7c0,.8,0,1,0,1.3h-1.3c0-.3,0-.7,0-1.3v-3.8c0-.6,0-.9,0-1.3.4,0,.6,0,1.3,0h3.6c.6,0,.8,0,1.2,0,0,.3,0,.6,0,1.3v4.1c0,.8-.3,1-1.4,1s0,0-.5,0c0-.5,0-.7-.2-1,.3,0,.5,0,.7,0s.3,0,.3-.3v-.7h-1.3v.6c0,.7,0,1,0,1.3h-1.2c0-.4,0-.7,0-1.3v-.6h-1.3ZM58.9,11.5h-1.3v.7h1.3v-.7ZM58.9,13.1h-1.3v.7h1.3v-.7ZM61.3,12.2v-.7h-1.3v.7h1.3ZM61.3,13.8v-.7h-1.3v.7h1.3Z"/>
  </g>
  <g>
    <path d="M60.7,114v2.8c0,.7,0,1.1,0,1.5h-1.4c0-.4,0-.9,0-1.5v-2.6q0-.1,0-.3c-.4.4-.8.7-1.4,1.1-.1-.5-.3-.8-.6-1.2.7-.4,1.2-.9,1.8-1.4.7-.7,1-1.2,1.5-2.2h-1.7c-.4,0-.8,0-1.1,0v-1.3c.3,0,.5,0,1.1,0h.4v-.9c0-.4,0-.7,0-1h1.4c0,.3,0,.5,0,1v.9h.2c.4,0,.6,0,.9,0l.6.7c0,.1-.1.2-.3.5-.3.7-.7,1.4-1.3,2.2.1.1.2.2.4.4.6-.7.9-1.1,1.2-1.7l.9.7c-.8,1.1-.8,1.1-1.3,1.6.2.2.4.3.8.5-.3.3-.5.6-.7,1-.6-.4-1-.8-1.5-1.2v.2ZM63.8,109.2c-.6,0-1.1,0-1.4,0v-1.3c.4,0,.9,0,1.4,0h3.5c.5,0,.9,0,1.2,0q0,.3,0,2.6c0,3.3-.2,5.5-.5,6.4-.1.4-.3.7-.6.9-.3.1-.6.2-1.2.2s-.5,0-1.3,0c0-.7-.1-.9-.3-1.3.6,0,1.1.1,1.5.1s.6-.1.8-1c0-.5.2-1.8.3-2.8,0-1.2,0-1.6,0-3.7h-1.7c0,2-.2,3.2-.5,4.5-.3,1.2-.8,2.1-1.5,3.1-.4.5-.7.8-1.3,1.4-.3-.5-.6-.8-.9-1.1.8-.7,1.4-1.3,1.8-2.1.6-1.2.9-2.4,1-4.1,0-.5,0-.6,0-1.5h-.3Z"/>
    <path d="M71.7,111.9c0-.3,0-.4,0-.7.3,0,.5,0,.8,0h2.6v-1.6h-2.5c-.6,1-1.2,1.7-2,2.4-.3-.5-.5-.7-.9-1.1,1.2-1,1.8-1.8,2.3-3,.2-.4.3-.6.3-.9l1.4.3c0,.1,0,.2-.2.4,0,0-.1.3-.3.8h5.6c.6,0,.9,0,1.2,0v1.3c-.4,0-.7,0-1.2,0h-2.4v1.6h1.9c.6,0,.9,0,1.2,0v1.3c-.4,0-.7,0-1.2,0h-2v1.9h2.8c.6,0,.9,0,1.3,0v1.4c-.4,0-.8,0-1.3,0h-2.8v1.5c0,.6,0,.9,0,1.3h-1.5c0-.3,0-.7,0-1.3v-1.5h-4c-.5,0-.9,0-1.3,0v-1.4c.4,0,.8,0,1.3,0h.6v-2.4ZM75.2,114.4v-1.9h-2.2v1.9h2.2Z"/>
    <path d="M85.4,113.7c-.8,1-1.5,1.8-2.5,2.7-.2.2-.3.3-.4.4l-.9-1.3c.3-.1.5-.3,1-.8.8-.7,1.2-1.1,1.9-2l.8,1ZM82.9,107.8c.9.7,1.3,1.1,2.1,1.9l-1,1c-.7-.9-1.1-1.3-2.1-2l1-.9ZM88.8,110.7c0,.2,0,.3,0,.5,0,.9.1,1.8.4,2.4.3.8.9,1.6,1.7,2.2.6.5,1,.7,2,1.1-.3.4-.6.8-.8,1.3-1.2-.6-1.8-1.1-2.4-1.7-.7-.7-1.2-1.5-1.5-2.5-.3.9-.7,1.7-1.2,2.4-.6.7-1.4,1.3-2.6,1.8-.2-.4-.4-.7-.8-1.1,1-.4,1.6-.8,2.3-1.5,1-1,1.6-2.6,1.6-4.4s0-.3,0-.5h1.4ZM90.7,109c.6,0,.9,0,1.2,0l.7.7c0,.2-.1.3-.3.6-.5,1.2-.9,1.9-1.7,2.9-.4-.4-.5-.4-1.1-.8.7-.7,1.1-1.4,1.5-2.2h-4c-.5,1-1,1.7-1.8,2.5-.3-.4-.6-.7-1-1,1.3-1.1,2.1-2.6,2.4-4.5l1.4.3c0,.2-.1.3-.4.9,0,.2-.1.3-.2.6h3.2Z"/>
    <path d="M98.7,114.5c-.7,1.5-1.5,2.3-2.4,2.3s-2.4-1.4-2.4-3.3.5-2.6,1.3-3.5c1-1.1,2.4-1.7,4.1-1.7,2.9,0,4.7,1.8,4.7,4.4s-1.1,3.7-2.9,4.5c-.6.2-1,.4-1.9.5-.2-.6-.3-.9-.7-1.4,1.1-.1,1.8-.3,2.4-.7,1-.6,1.7-1.7,1.7-3s-.5-2.1-1.5-2.7c-.4-.2-.7-.3-1.2-.4-.2,1.9-.6,3.5-1.2,4.9ZM96.9,110.2c-1,.7-1.6,2-1.6,3.2s.4,1.8.9,1.8.8-.5,1.2-1.5c.5-1.1.9-2.7,1-4.1-.6,0-1.1.2-1.5.6Z"/>
    <path d="M114.8,108.7c.6,0,1.1,0,1.4,0v1.4c-.4,0-.8,0-1.4,0h-4.9c-.5,1-.9,1.7-1.6,2.5v4.4c0,.6,0,1.1,0,1.4h-1.5c0-.4,0-.8,0-1.4v-3c-.5.4-.5.5-.9.8-.3-.5-.5-.8-.9-1.2.7-.5,1.3-1,1.8-1.6q0-.5,0-.7h.6c.3-.4.6-.8.9-1.3h-1.5c-.6,0-1.1,0-1.4,0v-1.4c.3,0,.8,0,1.4,0h2.1c.3-.7.4-1.2.5-1.6l1.5.3c0,.1,0,.2-.2.5,0,.3-.2.6-.3.8h4.4ZM114.4,112.6c.6,0,.9,0,1.3,0v1.4c-.4,0-.7,0-1.3,0h-1.5v2.8h1.9c.6,0,1,0,1.3,0v1.4c-.5,0-.8,0-1.3,0h-4.8c-.6,0-.9,0-1.3,0v-1.4c.4,0,.8,0,1.3,0h1.6v-2.8h-1.2c-.6,0-.9,0-1.3,0v-1.4c.3,0,.7,0,1.3,0h1.3v-.8c0-.6,0-.9,0-1.2h1.5c0,.3,0,.6,0,1.3v.7h1.5Z"/>
    <path d="M121.2,112.8c0,.8-.6,1.4-1.4,1.4s-1.4-.6-1.4-1.4.6-1.4,1.4-1.4,1.4.6,1.4,1.4Z"/>
    <path d="M125,109.2c-.5,0-1.2,0-1.6,0v-1.4c.5,0,1,0,1.6,0h7.6c.7,0,1.2,0,1.6,0v1.4c-.5,0-1,0-1.6,0h-2.4c-.2.5-.4.7-.9,1.3v6.3c0,.6,0,1.1,0,1.5h-1.5c0-.5,0-1,0-1.5v-3.6c0-.4,0-.6,0-1.1-.4.6-1,1.1-1.8,1.8-.6.5-1.2.9-2.3,1.6-.2-.4-.4-.7-.8-1.2,1.5-.8,2.7-1.6,3.8-2.8.8-.8,1.2-1.3,1.7-2.2h-3.6ZM130.3,110.8c.6.7,1.1,1.1,1.8,1.7.9.7,1.6,1.2,2.5,1.5-.3.5-.6.8-.8,1.3-1.8-1-3.1-2.1-4.3-3.6l.9-1Z"/>
    <path d="M144.8,108.7c.6,0,1.1,0,1.4,0v1.4c-.4,0-.8,0-1.4,0h-4.9c-.5,1-.9,1.7-1.6,2.5v4.4c0,.6,0,1.1,0,1.4h-1.5c0-.4,0-.8,0-1.4v-3c-.5.4-.5.5-.9.8-.3-.5-.5-.8-.9-1.2.7-.5,1.3-1,1.8-1.6q0-.5,0-.7h.6c.3-.4.6-.8.9-1.3h-1.5c-.6,0-1.1,0-1.4,0v-1.4c.3,0,.8,0,1.4,0h2.1c.3-.7.4-1.2.5-1.6l1.5.3c0,.1,0,.2-.2.5,0,.3-.2.6-.3.8h4.4ZM144.4,112.6c.6,0,.9,0,1.3,0v1.4c-.4,0-.7,0-1.3,0h-1.5v2.8h1.9c.6,0,1,0,1.3,0v1.4c-.5,0-.8,0-1.3,0h-4.8c-.6,0-.9,0-1.3,0v-1.4c.4,0,.8,0,1.3,0h1.6v-2.8h-1.2c-.6,0-.9,0-1.3,0v-1.4c.3,0,.7,0,1.3,0h1.3v-.8c0-.6,0-.9,0-1.2h1.5c0,.3,0,.6,0,1.3v.7h1.5Z"/>
    <path d="M150.5,112.6c-.4,0-.7,0-1,0v-.9c-.6.6-.9.9-1.5,1.3-.2-.4-.5-.8-.9-1.2,1.5-1,2.4-2,3.2-3.4.3-.5.4-.9.5-1.2l1.4.5c-.1.2-.2.3-.3.6-.4.9-1.2,2-1.9,2.9.3,0,.4,0,.6,0h4.4c.3,0,.5,0,.7,0-.8-.9-1.5-1.9-2-3,0-.1-.2-.4-.3-.5l1.3-.5c0,.3.2.6.5,1,.8,1.4,1.8,2.5,3.3,3.5-.5.6-.6.7-.9,1.3-.7-.5-1-.7-1.5-1.3v.4c0,2.5-.2,4.4-.5,5-.3.5-.7.7-1.8.7s-.4,0-1.2,0c0-.5-.1-.8-.4-1.4.6,0,1.1.2,1.5.2s.6,0,.7-.2c.2-.4.4-1.9.4-3.2v-.7h-2.3c0,1.2-.4,2.1-.9,3.1-.7,1.1-1.6,1.9-3,2.6-.2-.4-.4-.7-.9-1.2.7-.3,1.2-.6,1.9-1.1.8-.7,1.4-1.6,1.6-2.7,0-.2,0-.3,0-.7h-.6Z"/>
    <path d="M162.7,113.2v2.9c0,.7,0,1,0,1.4h-1.4c0-.4,0-.8,0-1.4v-2.5c-.5.5-.9.8-1.6,1.3-.2-.4-.4-.9-.7-1.2,1.5-1,2.6-2.1,3.5-3.7h-1.8c-.7,0-1.1,0-1.5,0v-1.4c.4,0,.8,0,1.5,0h2.3c.3-.7.4-1.1.4-1.6l1.5.2q-.1.3-.2.6c0,.3-.2.5-.3.9h4.2c.7,0,1.1,0,1.5,0v1.4c-.4,0-.8,0-1.5,0h-4.7c-.3.7-.7,1.4-1.2,2h1.8c0-.7,0-1.1,0-1.5h1.4c0,.3,0,.7,0,1.4h0c0,0,2.3,0,2.3,0,.5,0,.8,0,1.1,0,0,.3,0,.6,0,1v3c0,.6-.2.9-.6,1.1-.3.1-.6.2-1.3.2s-.4,0-.7,0c0-.5-.1-.8-.4-1.3.5,0,.9.1,1.1.1.4,0,.6,0,.6-.4v-2.5h-2.1v3.7c0,.7,0,1.1,0,1.4h-1.5c0-.3,0-.8,0-1.4v-3.7h-1.9Z"/>
    <path d="M171.6,118.3c0-.4,0-.8,0-1.6v-7.6c0-.6,0-1,0-1.4.4,0,.8,0,1.4,0h7.5c.6,0,1,0,1.4,0,0,.5,0,.8,0,1.4v7.6c0,.7,0,1.2,0,1.6h-1.4v-.7h-7.6v.7h-1.4ZM173,116.5h7.6v-7.6h-7.6v7.6ZM174.8,112.2q0-.1-.2-.4c-.3-.6-.5-1-1-1.7l1-.5c.6.8.8,1.2,1.2,2.1l-1,.6c.9.4,1.1.5,2,.9.9-.9,1.7-2.1,2-3.1,0-.3.1-.3.2-.6l1.2.6c-.1.2-.2.3-.3.6-.6,1.2-1.2,2.2-2,3.1.7.4,1.5.9,2.2,1.4l-.8,1.2c-1-.7-1.4-1.1-2.4-1.6-.9.8-1.5,1.2-2.7,1.8-.3-.5-.5-.7-.9-1,1.1-.5,1.8-.8,2.5-1.4-.9-.5-1.3-.6-2.5-1.1l.7-1,.8.3ZM176.9,111.7c-.3-.9-.6-1.5-1-2.1l1-.5c.5.7.7,1.2,1,2.1l-1.1.5Z"/>
  </g>
  <g>
    <path d="M66.2,142.1c-.4,0-.6.1-1.2.2,0-.4-.2-.6-.5-1.1,1.2-.1,2-.3,2.9-.7.3-.1.5-.2.7-.4l.7,1.1q-.8.4-1.4.6v1.6h.4c.4,0,.6,0,.8,0v1.2c-.2,0-.5,0-.8,0h-.3c.4.8.6,1,1.3,1.6-.2.3-.3.6-.6,1.2-.3-.4-.4-.5-.8-1.2,0,.3,0,.9,0,1.3v2.5c0,.7,0,1.1,0,1.5h-1.4c0-.4,0-.8,0-1.5v-2.1c0-.3,0-.9,0-1.4-.3,1-.8,1.8-1.4,2.7-.2-.5-.3-.9-.6-1.3.7-.8,1.5-2.1,1.8-3.3h-.6c-.4,0-.6,0-.9,0v-1.3c.3,0,.5,0,.9,0h.8v-1.3ZM73.4,145q0,0-.2.3c0,0-.1.2-.3.4h1.1c.4,0,.7,0,.9,0l.7.7q-.2.3-.3.6c0,.2-.6.9-.7,1.1-.7.9-1.8,1.8-3,2.4-.9.4-1.6.7-2.8.9-.2-.5-.3-.8-.6-1.2,1.4-.2,2.2-.5,3.4-1.1-.4-.4-.4-.5-1-.8l.9-.7c.6.5.7.5,1.1.8.6-.5,1-.9,1.5-1.7h-2.1c-.9.9-1.7,1.4-2.9,2-.2-.3-.4-.6-.8-1,1.5-.6,3-1.6,3.6-2.6-.9.6-1.7,1-2.8,1.4-.2-.4-.4-.7-.7-1.1,1.2-.3,1.6-.5,2.6-1.1,0,0,0,0,0,0-.2-.2-.2-.3-.4-.4,0,0,0,0-.2-.1,0,0-.1-.1-.2-.2l.9-.6c.5.4.6.5.9.8.7-.5,1-.9,1.5-1.5h-2.2c-.6.6-1.2,1.1-2.1,1.7-.2-.4-.4-.6-.8-.9.9-.5,1.8-1.1,2.4-1.8.2-.3.5-.7.5-.9l1.3.4q0,0-.2.3s0,0,0,.1c0,0,0,0-.1.1h1.4c.4,0,.7,0,.9,0l.7.7q-.1.2-.3.5c-.6,1-1.2,1.6-2.3,2.4l.9.3Z"/>
    <path d="M81,141.5c0-.6,0-.9,0-1.2h1.5c0,.3,0,.6,0,1.2v2.6h2.6v-2c0-.4,0-.7,0-.9h1.4c0,.4,0,.6,0,1v2.4c0,.3,0,.6,0,.8-.3,0-.6,0-.8,0h-3.1v3.9h3v-2c0-.4,0-.7,0-1h1.5c0,.3,0,.7,0,1.1v2.6c0,.6,0,.9,0,1.2h-1.4v-.6h-7.1v.6h-1.4c0-.4,0-.7,0-1.2v-2.5c0-.5,0-.8,0-1.2h1.5c0,.3,0,.6,0,1v1.9h2.8v-3.9h-2.9c-.3,0-.6,0-.9,0,0-.3,0-.5,0-.8v-2.4c0-.4,0-.8,0-1.1h1.4c0,.3,0,.6,0,1v1.9h2.4v-2.6Z"/>
    <path d="M92,145.8c0,.8-.6,1.4-1.4,1.4s-1.4-.6-1.4-1.4.6-1.4,1.4-1.4,1.4.6,1.4,1.4Z"/>
    <path d="M95.9,142.1c-.4,0-.6.1-1.2.2,0-.4-.2-.6-.5-1.1,1.2-.1,2-.3,2.9-.7.3-.1.5-.2.7-.4l.7,1.1q-.8.4-1.4.6v1.6h.4c.4,0,.6,0,.8,0v1.2c-.2,0-.5,0-.8,0h-.3c.4.8.6,1,1.3,1.6-.2.3-.3.6-.6,1.2-.3-.4-.4-.5-.8-1.2,0,.3,0,.9,0,1.3v2.5c0,.7,0,1.1,0,1.5h-1.4c0-.4,0-.8,0-1.5v-2.1c0-.3,0-.9,0-1.4-.3,1-.8,1.8-1.4,2.7-.2-.5-.3-.9-.6-1.3.7-.8,1.5-2.1,1.8-3.3h-.6c-.4,0-.6,0-.9,0v-1.3c.3,0,.5,0,.9,0h.8v-1.3ZM103.1,145q0,0-.2.3c0,0-.1.2-.3.4h1.1c.4,0,.7,0,.9,0l.7.7q-.2.3-.3.6c0,.2-.6.9-.7,1.1-.7.9-1.8,1.8-3,2.4-.9.4-1.6.7-2.8.9-.2-.5-.3-.8-.6-1.2,1.4-.2,2.2-.5,3.4-1.1-.4-.4-.4-.5-1-.8l.9-.7c.6.5.7.5,1.1.8.6-.5,1-.9,1.5-1.7h-2.1c-.9.9-1.7,1.4-2.9,2-.2-.3-.4-.6-.8-1,1.5-.6,3-1.6,3.6-2.6-.9.6-1.7,1-2.8,1.4-.2-.4-.4-.7-.7-1.1,1.2-.3,1.6-.5,2.6-1.1,0,0,0,0,0,0-.2-.2-.2-.3-.4-.4,0,0,0,0-.2-.1,0,0-.1-.1-.2-.2l.9-.6c.5.4.6.5.9.8.7-.5,1-.9,1.5-1.5h-2.2c-.6.6-1.2,1.1-2.1,1.7-.2-.4-.4-.6-.8-.9.9-.5,1.8-1.1,2.4-1.8.2-.3.5-.7.5-.9l1.3.4q0,0-.2.3s0,0,0,.1c0,0,0,0-.1.1h1.4c.4,0,.7,0,.9,0l.7.7q-.1.2-.3.5c-.6,1-1.2,1.6-2.3,2.4l.9.3Z"/>
    <path d="M109.3,142.1c-.3,0-.7,0-1.2,0v-1.4c.3,0,.6,0,1.1,0h1.9c.5,0,.8,0,1.1,0,0,.3,0,.5,0,.8,0,1.7.4,3.3,1.3,4.8.5.8,1.1,1.6,1.9,2.3.6.6,1,.8,1.8,1.3-.5.4-.7.8-1,1.4-1.2-.8-2.1-1.7-2.9-2.8-.4-.6-.7-1-1.1-1.8-.3-.7-.4-1-.6-1.7-.4,1.5-.9,2.6-1.7,3.6-.8,1-1.7,1.8-3,2.7-.3-.5-.5-.9-1-1.3,1-.6,1.6-1,2.4-1.9.9-1,1.7-2.3,2.1-3.5.2-.8.3-1.5.4-2.4h-1.5Z"/>
    <path d="M121.9,149.6c0,.5,0,.7,0,.9h-1.1v-.5h-.9v1.1h-1.2c0-.4,0-.7,0-1.2v-2.5c0-.2,0-.6,0-.9-.2.6-.3.7-.6,1.1-.1-.7-.2-1-.5-1.5.6-.7,1-1.5,1.3-2.5.2-.6.3-1,.4-1.7h-.3c-.5,0-.7,0-1,0v-1.3c.3,0,.7,0,1.2,0h1.4c.5,0,.8,0,1.2,0v1.3c-.3,0-.4,0-.7,0h-.5c-.2,1-.3,1.6-.7,2.6h1.2c.3,0,.5,0,.7,0,0,.3,0,.5,0,.9v.3c.9-.8,1.6-1.8,2.1-3.2h-.7v1.2h-1.2c0-.3,0-.5,0-.8v-1c0-.2,0-.3,0-.6.3,0,.3,0,.9,0h1.4c.1-.5.2-.8.3-1.2l1.4.2c0,0-.1.4-.3,1h2.2c.4,0,.8,0,1.1,0,0,.2,0,.5,0,.9v.7c0,.3,0,.5,0,.8h-1.3v-1.2h-2.4c-.3.6-.4,1-.8,1.7h1.2c.2-.4.4-.8.5-1.3l1.2.3c-.2.5-.3.7-.5,1.1h.9c.5,0,.7,0,1,0v1.2c-.3,0-.6,0-1,0h-1.1v.9h.9c.5,0,.7,0,1,0v1.1c-.3,0-.6,0-1,0h-.9v.9h.9c.5,0,.7,0,1,0v1.1c-.3,0-.6,0-1,0h-.9v.9h1.2c.6,0,.8,0,1.1,0v1.2c-.4,0-.7,0-1.2,0h-3.7v.5h-1.3c0-.4,0-.7,0-1.3v-3c0-.5,0-.7,0-.8-.2.2-.3.4-.5.7-.1-.3-.2-.5-.4-.8v3.5ZM120,148.8h.9v-3.2h-.9v3.2ZM125.5,146v-.9h-1.5v.9h1.5ZM124,147.9h1.5v-.9h-1.5v.9ZM124,149.8h1.5v-.9h-1.5v.9Z"/>
    <path d="M131.5,148.9c-.5,0-.9,0-1.4,0v-1.3c.3,0,.8,0,1.3,0h3.5c0-.4,0-.6,0-.8h1.4c0,.2,0,.4,0,.7h0c0,0,3.7,0,3.7,0,.5,0,.9,0,1.2,0v1.3c-.4,0-.9,0-1.4,0h-3.5v1.3c0,.5,0,.8,0,1.2h-1.5c0-.4,0-.7,0-1.2v-1.3h-3.3ZM133.7,142.6c.2.2.3.2.5.3.2-.3.3-.4.4-.7h-3.1c-.5,0-.9,0-1.2,0v-1.3c.4,0,.8,0,1.4,0h3.2c0-.4,0-.6,0-.9h1.5c0,.3,0,.5,0,.7h0c0,.1,3.4.1,3.4.1.6,0,1,0,1.4,0v1.3c-.4,0-.7,0-1.2,0h-3.9c-.3.6-.6.9-1,1.4.2.2.3.3.5.5.5-.6.7-.9,1.2-1.5l1,.6c-.7.9-1.4,1.5-2.5,2.5.9,0,1.1,0,1.7-.1-.2-.3-.3-.4-.5-.7l.9-.4c.7.8.7.9,1.5,2.2l-1,.4c-.2-.4-.2-.5-.3-.7-1.2.2-1.9.3-3.9.4-.3,0-.5,0-.6,0v-.8c-.7.4-1.2.7-2.2,1.2l-.5-1.2c.9-.3,1.9-.7,2.7-1.4l.6.9-.3.2h.1s.3,0,.4,0c.4-.4.6-.5,1-.9-.5-.5-1-1-1.7-1.5l.8-.8ZM131.4,142.4c.7.5,1.2.9,1.7,1.5l-.9.9c-.6-.7-.9-1-1.7-1.6l.9-.8ZM140.4,143.3c-.7.7-1.3,1.2-2.1,1.7l-.8-.9c.9-.6,1.4-1,2-1.7l.9.8ZM138.8,144.9c1,.6,1.2.8,2.1,1.5l-.9,1c-.7-.7-1.2-1.2-2-1.7l.7-.8Z"/>
    <path d="M147,147.6c-.7,1.5-1.5,2.3-2.4,2.3s-2.4-1.4-2.4-3.3.5-2.6,1.3-3.5c1-1.1,2.4-1.7,4.1-1.7,2.9,0,4.7,1.8,4.7,4.4s-1.1,3.7-2.9,4.5c-.6.2-1,.4-1.9.5-.2-.6-.3-.9-.7-1.4,1.1-.1,1.8-.3,2.4-.7,1-.6,1.7-1.7,1.7-3s-.5-2.1-1.5-2.7c-.4-.2-.7-.3-1.2-.4-.2,1.9-.6,3.5-1.2,4.9ZM145.3,143.3c-1,.7-1.6,2-1.6,3.2s.4,1.8.9,1.8.8-.5,1.2-1.5c.5-1.1.9-2.7,1-4.1-.6,0-1.1.2-1.5.6Z"/>
    <path d="M153.7,142.2c.3,0,.5,0,1,0h2.5c.5,0,.7,0,1,0v1.2c-.3,0-.4,0-.9,0h-2.5c-.4,0-.7,0-1,0v-1.2ZM164.1,145.9q0,.1-.2.5c-.5,1.1-1,1.8-1.6,2.5.8.5,1.4.7,2.7,1.1-.3.5-.4.8-.6,1.3-1.4-.5-2.2-.9-3-1.5-.8.6-1.7,1.1-2.9,1.5-.2-.4-.4-.7-.6-1,0,.4,0,.6,0,.9h-1.2v-.4h-1.4v.6h-1.2c0-.4,0-.8,0-1.2v-1.8c0-.4,0-.7,0-.9.3,0,.6,0,.9,0h2.1c.5,0,.6,0,.8,0,0,.3,0,.4,0,.9v1.8c1.1-.3,1.8-.7,2.6-1.2-.7-.8-1.1-1.3-1.5-2.5-.2,0-.3,0-.5,0v-1.3c.2,0,.5,0,.8,0h3.5c.5,0,.7,0,.8,0l.7.6ZM154.1,140.5c.3,0,.5,0,1,0h1.7c.5,0,.7,0,1,0v1.2c-.3,0-.6,0-1,0h-1.7c-.4,0-.7,0-1,0v-1.2ZM154.1,144.1c.2,0,.4,0,.8,0h2.1c.4,0,.6,0,.8,0v1.1c-.3,0-.4,0-.8,0h-2.1c-.4,0-.6,0-.8,0v-1.1ZM154.1,145.7c.2,0,.4,0,.8,0h2.1c.4,0,.6,0,.8,0v1.1c-.3,0-.4,0-.8,0h-2.1c-.4,0-.5,0-.8,0v-1.1ZM155.3,149.7h1.4v-1.2h-1.4v1.2ZM160.3,141.8c0,1-.2,1.6-.5,2.3-.2.5-.5.8-.9,1.1-.3-.3-.7-.6-1-.8.9-.7,1.2-1.4,1.2-3s0-.5,0-.8c.3,0,.6,0,.9,0h1.8c.4,0,.7,0,1,0,0,.3,0,.6,0,1v1.8c0,.2,0,.2.4.2q.5,0,.6-1.4c.4.2.7.3,1.1.4-.1,2-.3,2.1-1.8,2.1s-1.4-.1-1.4-.8v-2.1h-1.3ZM160,146.5c.3.7.6,1.2,1.2,1.7.5-.5.8-.9,1.2-1.7h-2.4Z"/>
    <path d="M170.6,144.9h-1.8c-.5,0-.9,0-1.2,0v-1.3c.3,0,.7,0,1.2,0h4.6c.6,0,.9,0,1.2,0v1.3c-.3,0-.7,0-1.2,0h-1.6v1.5h2.3c.6,0,.9,0,1.2,0v1.3c-.4,0-.6,0-1.2,0h-2.3v2.1c.6,0,1.2.1,2,.1s1.5,0,2.7-.1c-.2.5-.3.8-.3,1.4-1,0-1.6,0-2.6,0-2.8,0-4.4-.6-5.4-2.1-.4.8-.8,1.5-1.6,2.4-.3-.4-.5-.6-1-1,1-.9,1.7-2,2.1-3.4.1-.5.2-1,.2-1.3l1.3.3c0,.2,0,.2-.2.7,0,.2-.1.5-.3,1.1.5.9,1,1.3,1.8,1.7v-4.4ZM170.4,141.1c0-.3,0-.5,0-.8h1.5c0,.3,0,.4,0,.8v.5h3.2c.5,0,.9,0,1.3,0,0,.3,0,.5,0,.9v.9c0,.3,0,.6,0,.9h-1.3v-1.5h-7.7v1.5h-1.3c0-.3,0-.5,0-.9v-.9c0-.3,0-.6,0-.9.4,0,.8,0,1.3,0h3.1v-.4Z"/>
  </g>
  <g>
    <path d="M79.1,173.1q0,.3-.1,2.7c0,2.3-.3,3.7-1,4.9-.4.8-.9,1.4-1.7,2.2-.5-.6-.6-.8-1.2-1.2.6-.5.9-.8,1.2-1.4.9-1.4,1.1-2.9,1.1-6.3s0-.8,0-1.1h1.6ZM82.3,173c0,.3,0,.6,0,1.1v6.8c.8-.4,1.3-.8,1.8-1.4.6-.6.9-1.3,1.2-2.2.4.5.6.7,1.1,1.1-.5,1.2-1.1,2.1-1.9,2.8-.7.6-1.3.9-2.6,1.4-.3,0-.4.1-.5.2l-.8-.8c0-.3,0-.6.1-1.3v-6.8c0,0,0-.4,0-.4,0-.3,0-.6,0-.8h1.6Z"/>
    <path d="M87.4,177c.5,0,.8,0,1.9,0h6.4c1.2,0,1.4,0,1.9,0v1.7c-.5,0-.6,0-2,0h-6.4c-1.3,0-1.5,0-2,0v-1.7Z"/>
    <path d="M105.1,173.7c.4,0,.5,0,.7,0,0-.8.6-1.4,1.4-1.4s1.4.6,1.4,1.4-.6,1.4-1.4,1.4-.1,0-.2,0c-1,3.9-3.1,6.4-6.9,8-.3-.6-.5-.9-1.1-1.4,3.3-1,5.5-3.3,6.3-6.5h-5.7c-.9,0-1.1,0-1.5,0v-1.6c.4,0,.7,0,1.5,0h5.5ZM106.5,173.7c0,.4.3.8.8.8s.8-.4.8-.8-.3-.8-.8-.8-.8.3-.8.8Z"/>
    <path d="M111.1,177c0-.3,0-.4,0-.7.3,0,.5,0,.8,0h2.6v-1.6h-2.5c-.6,1-1.2,1.7-2,2.4-.3-.5-.5-.7-.9-1.1,1.2-1,1.8-1.8,2.3-3,.2-.4.3-.6.3-.9l1.4.3c0,.1,0,.2-.2.4,0,0-.1.3-.3.8h5.6c.6,0,.9,0,1.2,0v1.3c-.4,0-.7,0-1.2,0h-2.4v1.6h1.9c.6,0,.9,0,1.2,0v1.3c-.4,0-.7,0-1.2,0h-2v1.9h2.8c.6,0,.9,0,1.3,0v1.4c-.4,0-.8,0-1.3,0h-2.8v1.5c0,.6,0,.9,0,1.3h-1.5c0-.3,0-.7,0-1.3v-1.5h-4c-.5,0-.9,0-1.3,0v-1.4c.4,0,.8,0,1.3,0h.6v-2.4ZM114.6,179.5v-1.9h-2.2v1.9h2.2Z"/>
    <path d="M126.3,174.6c.4,0,.6,0,.8,0v1.1c-.2,0-.4,0-.8,0h-.8c.2.3.5.4,1.1.8-.3.3-.4.4-.7,1-.6-.5-.8-.7-1.1-1.1,0,.3,0,.4,0,.5v.4c0,.2,0,.3,0,.4h-1.3c0-.1,0-.3,0-.4v-.5c0-.1,0-.3,0-.5-.6.9-1,1.2-2,1.9-.3-.4-.4-.6-.8-1,1-.5,1.5-.9,1.9-1.5h-.6c-.4,0-.7,0-1,0v-1.2c.3,0,.6,0,1,0h1.4v-1.4c0-.4,0-.6,0-.8h1.3c0,.2,0,.4,0,.8v1.4h1.5ZM125.7,182.7c-.4-.3-.6-.5-1.1-.7-.8.7-1.5,1-2.9,1.4-.2-.4-.4-.7-.6-1.1,1.1-.2,1.7-.5,2.4-.9-.6-.3-.9-.4-1.8-.7.4-.5.5-.7.8-1.2h-.3c-.4,0-.7,0-.9,0v-1.2c.3,0,.5,0,.9,0h.9c.1-.3.2-.4.3-.9l1.2.2c-.1.3-.2.4-.3.6h1.9c.4,0,.7,0,.9,0v1.2c-.3,0-.5,0-1,0-.2.8-.3,1-.7,1.5.5.2.6.3,1,.5l-.7,1.1ZM122.5,172.5c.5.7.6.9.8,1.6l-1.1.4c-.2-.7-.4-1-.8-1.6l1-.4ZM123.8,179.6c-.2.3-.2.3-.4.7.5.2.7.2,1,.4.3-.3.4-.6.5-1.1h-1.1ZM127,172.9c-.5.9-.5,1.1-.9,1.6l-1-.5c.4-.5.6-1,.9-1.6l1.1.4ZM132.2,175.6c-.2,0-.4,0-.8,0,0,2-.5,3.4-1.2,4.7.6.8,1.3,1.4,2.3,1.9-.3.4-.5.7-.7,1.3-.9-.5-1.7-1.2-2.3-2.1-.8.9-1.7,1.6-2.7,2.1-.2-.6-.3-.8-.6-1.2.5-.3.7-.3.9-.5.7-.5,1.2-.9,1.7-1.5-.6-1-.8-1.7-1-2.8-.2.3-.3.5-.6.8-.3-.3-.5-.6-.9-.9.7-.9,1.2-2,1.6-3.5.2-.6.3-1.3.3-1.6l1.3.3c0,.1,0,.3-.2.7,0,.3-.2.7-.3,1.2h2.1c.6,0,.8,0,1.1,0v1.3ZM128.6,175.6q0,.2-.2.4c.2,1.3.4,2.1,1,3.2.5-1,.7-2,.7-3.5h-1.5Z"/>
    <path d="M138.1,179.6c-.7,1.5-1.5,2.3-2.4,2.3s-2.4-1.4-2.4-3.3.5-2.6,1.3-3.5c1-1.1,2.4-1.7,4.1-1.7,2.9,0,4.7,1.8,4.7,4.5s-1.1,3.7-2.9,4.5c-.6.2-1,.4-1.9.5-.2-.6-.3-.9-.7-1.4,1.1-.1,1.8-.3,2.4-.7,1-.6,1.7-1.7,1.7-3s-.5-2.1-1.5-2.7c-.4-.2-.7-.3-1.2-.4-.2,1.9-.6,3.5-1.2,4.9ZM136.3,175.3c-1,.7-1.6,2-1.6,3.2s.4,1.8.9,1.8.8-.5,1.2-1.5c.5-1.1.9-2.7,1-4.1-.6,0-1.1.2-1.5.6Z"/>
    <path d="M144.7,174.3c.3,0,.5,0,1,0h2.5c.5,0,.7,0,1,0v1.2c-.3,0-.4,0-.9,0h-2.5c-.4,0-.7,0-1,0v-1.2ZM155.1,178q0,.1-.2.5c-.5,1.1-1,1.8-1.6,2.5.8.5,1.4.7,2.7,1.1-.3.5-.4.8-.6,1.3-1.4-.5-2.2-.9-3-1.5-.8.6-1.7,1.1-2.9,1.5-.2-.4-.4-.7-.6-1,0,.4,0,.6,0,.9h-1.2v-.4h-1.4v.6h-1.2c0-.4,0-.8,0-1.2v-1.8c0-.4,0-.7,0-.9.3,0,.6,0,.9,0h2.1c.5,0,.6,0,.8,0,0,.3,0,.4,0,.9v1.8c1.1-.3,1.8-.7,2.6-1.2-.7-.8-1.1-1.3-1.5-2.5-.2,0-.3,0-.5,0v-1.3c.2,0,.5,0,.8,0h3.5c.5,0,.7,0,.8,0l.7.6ZM145.1,172.6c.3,0,.5,0,1,0h1.7c.5,0,.7,0,1,0v1.2c-.3,0-.6,0-1,0h-1.7c-.4,0-.7,0-1,0v-1.2ZM145.2,176.1c.2,0,.4,0,.8,0h2.1c.4,0,.6,0,.8,0v1.1c-.3,0-.4,0-.8,0h-2.1c-.4,0-.6,0-.8,0v-1.1ZM145.2,177.8c.2,0,.4,0,.8,0h2.1c.4,0,.6,0,.8,0v1.1c-.3,0-.4,0-.8,0h-2.1c-.4,0-.5,0-.8,0v-1.1ZM146.3,181.8h1.4v-1.2h-1.4v1.2ZM151.4,173.9c0,1-.2,1.6-.5,2.3-.2.5-.5.8-.9,1.1-.3-.3-.7-.6-1-.8.9-.7,1.2-1.4,1.2-3s0-.5,0-.8c.3,0,.6,0,.9,0h1.8c.4,0,.7,0,1,0,0,.3,0,.6,0,1v1.8c0,.2,0,.2.4.2q.5,0,.6-1.4c.4.2.7.3,1.1.4-.1,2-.3,2.1-1.8,2.1s-1.4-.1-1.4-.8v-2.1h-1.3ZM151.1,178.5c.3.7.6,1.2,1.2,1.7.5-.5.8-.9,1.2-1.7h-2.4Z"/>
    <path d="M161.7,177h-1.8c-.5,0-.9,0-1.2,0v-1.3c.3,0,.7,0,1.2,0h4.6c.6,0,.9,0,1.2,0v1.3c-.3,0-.7,0-1.2,0h-1.6v1.5h2.3c.6,0,.9,0,1.2,0v1.3c-.4,0-.6,0-1.2,0h-2.3v2.1c.6,0,1.2.1,2,.1s1.5,0,2.7-.1c-.2.5-.3.8-.3,1.4-1,0-1.6,0-2.6,0-2.8,0-4.4-.6-5.4-2.1-.4.8-.8,1.5-1.6,2.4-.3-.4-.5-.6-1-1,1-.9,1.7-2,2.1-3.4.1-.5.2-1,.2-1.3l1.3.3c0,.2,0,.2-.2.7,0,.2-.1.5-.3,1.1.5.9,1,1.3,1.8,1.7v-4.5ZM161.5,173.1c0-.3,0-.5,0-.8h1.5c0,.3,0,.4,0,.8v.5h3.2c.5,0,.9,0,1.3,0,0,.3,0,.5,0,.9v.9c0,.3,0,.6,0,.9h-1.3v-1.5h-7.7v1.5h-1.3c0-.3,0-.5,0-.9v-.9c0-.3,0-.6,0-.9.4,0,.8,0,1.3,0h3.1v-.4Z"/>
  </g>
  <g>
    <path d="M33.7,218.4c-.1.2-.1.3-.2.5-.6,2.3-1.3,3.7-2.5,5-1.2,1.3-2.5,2.2-4.5,3.1-.3-.6-.5-.9-1.1-1.4,1.1-.3,1.7-.6,2.6-1.2,1.9-1.2,3-2.9,3.6-5.2h-5.7c-.8,0-1.1,0-1.5,0v-1.6c.5,0,.7,0,1.5,0h5.5c.7,0,.9,0,1.3-.1l.8.8Z"/>
    <path d="M40,221.1c0,.2,0,.3,0,.8,0,.2,0,.3,0,.4,1-.5,1.7-1,2.2-1.8,0,0,0,0,0,0,0,0,0,0,0,0h0c0,0-.2,0-.3,0h-4.7c-.6,0-.9,0-1.3,0v-1.4c.4,0,.7,0,1.3,0h5.1c.6,0,.7,0,1-.1l.7.8q-.1.2-.4.6c-.4.7-.9,1.4-1.5,1.9-.4.3-.7.6-1.3.9-.4-.5-.5-.6-.9-.9,0,1-.2,1.7-.5,2.3-.5,1.1-1.4,1.8-3,2.4-.3-.6-.4-.8-.9-1.2,1.3-.4,2.1-.9,2.6-1.8.3-.6.5-1.4.5-2.6s0-.3,0-.4h1.5Z"/>
    <path d="M55,217.7c-.2.2-.3.2-.4.4-.9.9-1.8,1.7-2.8,2.5v5.1c0,.7,0,1,0,1.3h-1.7c0-.3,0-.6,0-1.3v-4.2c-1.4.8-2.1,1.2-4.3,1.9-.3-.6-.4-.8-.8-1.4,2.4-.6,4.4-1.6,6.3-3.1,1.1-.8,1.9-1.7,2.2-2.2l1.4,1Z"/>
    <path d="M59.3,217.2q0,.3-.1,2.7c0,2.3-.3,3.7-1,4.9-.4.8-.9,1.4-1.7,2.2-.5-.6-.6-.8-1.2-1.2.6-.5.9-.8,1.2-1.4.9-1.4,1.1-2.9,1.1-6.3s0-.8,0-1.1h1.6ZM62.5,217c0,.3,0,.6,0,1.1v6.8c.8-.4,1.3-.8,1.8-1.4.6-.6.9-1.3,1.2-2.2.4.5.6.7,1.1,1.1-.5,1.2-1.1,2.1-1.9,2.8-.7.6-1.3.9-2.6,1.4-.3,0-.4.1-.5.2l-.8-.8c0-.3,0-.6.1-1.3v-6.8c0,0,0-.4,0-.4,0-.3,0-.6,0-.8h1.6Z"/>
    <path d="M72.1,223.7c-.7,1.5-1.5,2.3-2.4,2.3s-2.4-1.4-2.4-3.3.5-2.6,1.3-3.5c1-1.1,2.4-1.7,4.1-1.7,2.9,0,4.7,1.8,4.7,4.5s-1.1,3.7-2.9,4.5c-.6.2-1,.4-1.9.5-.2-.6-.3-.9-.7-1.4,1.1-.1,1.8-.3,2.4-.7,1-.6,1.7-1.7,1.7-3s-.5-2.1-1.5-2.7c-.4-.2-.7-.3-1.2-.4-.2,1.9-.6,3.5-1.2,4.9ZM70.4,219.4c-1,.7-1.6,2-1.6,3.2s.4,1.8.9,1.8.8-.5,1.2-1.5c.5-1.1.9-2.7,1-4.1-.6,0-1.1.2-1.5.6Z"/>
    <path d="M82,218.2c-.3,0-.7,0-1.2,0v-1.4c.3,0,.6,0,1.1,0h1.9c.5,0,.8,0,1.1,0,0,.3,0,.5,0,.8,0,1.7.4,3.3,1.3,4.7.5.8,1.1,1.6,1.9,2.3.6.6,1,.8,1.8,1.3-.5.4-.7.8-1,1.4-1.2-.8-2.1-1.7-2.9-2.8-.4-.6-.7-1-1.1-1.8-.3-.7-.4-1-.6-1.7-.4,1.5-.9,2.6-1.7,3.6-.8,1-1.7,1.8-3,2.7-.3-.5-.5-.9-1-1.3,1-.6,1.6-1,2.4-1.9.9-1,1.7-2.3,2.1-3.5.2-.8.3-1.5.4-2.4h-1.5Z"/>
    <path d="M95.3,217.6c0-.6,0-.9,0-1.2h1.5c0,.3,0,.6,0,1.2v2.6h2.6v-2c0-.4,0-.7,0-.9h1.4c0,.4,0,.6,0,1v2.4c0,.3,0,.6,0,.8-.3,0-.6,0-.8,0h-3.1v3.9h3v-2c0-.4,0-.7,0-1h1.5c0,.3,0,.7,0,1.1v2.6c0,.6,0,.9,0,1.2h-1.4v-.6h-7.1v.6h-1.4c0-.4,0-.7,0-1.2v-2.5c0-.5,0-.8,0-1.2h1.5c0,.3,0,.6,0,1v1.9h2.8v-3.9h-2.9c-.3,0-.6,0-.9,0,0-.3,0-.5,0-.8v-2.4c0-.4,0-.8,0-1.1h1.4c0,.3,0,.6,0,1v1.9h2.4v-2.6Z"/>
    <path d="M110.8,218.7c.7,0,1.1,0,1.5,0q0,.5,0,1.8c0,1.6-.2,3.7-.3,4.5-.2,1.1-.3,1.5-.7,1.8-.3.2-.8.3-1.4.3s-1.1,0-1.8-.1c0-.6-.2-1-.3-1.5.8.2,1.5.2,2.1.2s.7-.2.9-1c.2-.9.3-2.8.3-4.7h-3.3c-.2,1.8-.5,3-1.1,4-.7,1.3-1.8,2.3-3.5,3.2-.3-.5-.6-.9-1-1.2,1.6-.7,2.7-1.7,3.4-3,.4-.7.6-1.7.8-3h-2.1c-.6,0-1.1,0-1.5,0v-1.4c.4,0,.8,0,1.5,0h2.1c0-.5,0-.6,0-1.2s0-.9,0-1.2h1.6q0,.3-.1,2.4h3Z"/>
    <path d="M120,221.6c-.1,3-1.3,4.5-4,5.6-.3-.6-.5-.9-1-1.3,2.4-.7,3.3-1.9,3.4-4.3h-2.9c-.9,0-1.1,0-1.5,0v-1.4c.4,0,.7,0,1.5,0h7c.9,0,1.1,0,1.5,0v1.4c-.4,0-.6,0-1.5,0h-2.6ZM121.8,218.7c-.4,0-.5,0-1.5,0h-3.6c-1,0-1.1,0-1.5,0v-1.5c.4,0,.6,0,1.5,0h3.5c.9,0,1.2,0,1.5,0v1.5ZM122.5,216.4c.5.6.7,1.1,1.1,1.9l-.9.3c-.3-.8-.6-1.3-1.1-1.9l.9-.3ZM124.2,218.1c-.3-.7-.6-1.3-1-1.9l.9-.3c.5.6.8,1.1,1.1,1.8l-.9.3Z"/>
    <path d="M133.6,219.6q-.2.1-.4.4c-.6.6-1.5,1.4-2.2,2v4.1c0,.6,0,.9,0,1.2h-1.5c0-.4,0-.6,0-1.2v-3.2c-1.1.6-1.9,1-3.4,1.5-.3-.6-.4-.8-.7-1.2,1.1-.3,1.9-.6,2.8-1.1,1.3-.7,2.4-1.5,3.4-2.4.4-.4.5-.6.7-.9l1.2.9Z"/>
    <path d="M138.1,217c0,.3,0,.6,0,1.2v6.8c1.2-.2,2.3-.7,3.2-1.3,1.1-.8,1.8-1.6,2.4-2.7.5.6.6.8,1.1,1.2-.8,1.3-1.6,2.1-2.7,2.8-1.2.8-2.4,1.3-4.4,1.6-.3,0-.5.1-.7.2l-.8-.9c0-.3.1-.5.1-1.2v-6.5q0-.8,0-1.2h1.7Z"/>
    <path d="M155.4,218.8c-.1.2-.2.3-.3.7-.6,1.8-1.4,3.4-2.5,4.6-1.1,1.3-2.4,2.2-4.3,3-.3-.6-.5-.8-1-1.3,1.2-.5,1.9-.9,2.6-1.4,1.7-1.3,2.8-2.9,3.5-5.1h-3.6c-.7,1.2-1.7,2.3-2.8,3.1-.4-.5-.5-.6-1.2-1,1.4-.9,2.2-1.9,3.1-3.5.4-.7.6-1.2.6-1.6l1.6.3q0,.1-.2.4t-.2.3-.2.3-.2.4c.2,0,.3,0,.6,0h2.6c.5,0,.6,0,.9-.2l.8.8Z"/>
    <path d="M158.1,227c0-.4,0-.7,0-1.3v-7.7c0-.6,0-.9,0-1.2h1.6c0,.4,0,.5,0,1.3v2.2c1.6.6,3.5,1.5,5.4,2.5l-.8,1.4c-1-.7-2.2-1.4-4.2-2.3-.3-.1-.3-.1-.4-.2,0,.3,0,.5,0,.8v3.2c0,.6,0,.9,0,1.3h-1.6Z"/>
    <path d="M169.3,217c0,.3,0,.4,0,1.1v3.3c0,.6,0,.8,0,1.1h-1.6c0-.3,0-.6,0-1.1v-3.3c0-.6,0-.8,0-1.1h1.6ZM174.7,217c0,.3,0,.4,0,1.1v1.6c0,1.9,0,2.9-.3,3.6-.3,1.2-1.1,2.1-2.4,2.8-.6.4-1.2.6-2.3.9-.2-.6-.3-.8-.8-1.4,1.2-.2,1.9-.5,2.6-1,1.1-.7,1.5-1.5,1.7-3.1,0-.5,0-1,0-2v-1.5c0-.6,0-.9,0-1.1h1.7Z"/>
    <path d="M181.7,223.7c-.7,1.5-1.5,2.3-2.4,2.3s-2.4-1.4-2.4-3.3.5-2.6,1.3-3.5c1-1.1,2.4-1.7,4.1-1.7,2.9,0,4.7,1.8,4.7,4.5s-1.1,3.7-2.9,4.5c-.6.2-1,.4-1.9.5-.2-.6-.3-.9-.7-1.4,1.1-.1,1.8-.3,2.4-.7,1-.6,1.7-1.7,1.7-3s-.5-2.1-1.5-2.7c-.4-.2-.7-.3-1.2-.4-.2,1.9-.6,3.5-1.2,4.9ZM179.9,219.4c-1,.7-1.6,2-1.6,3.2s.4,1.8.9,1.8.8-.5,1.2-1.5c.5-1.1.9-2.7,1-4.1-.6,0-1.1.2-1.5.6Z"/>
    <path d="M190.3,218.2c-.4.5-.6.7-1.2,1.2-.3-.4-.4-.5-.9-.9.9-.6,1.5-1.4,1.8-2.2l1.3.2c-.2.3-.2.4-.4.7h1.6c.5,0,.8,0,1.1,0v.9c.5-.6.9-1.1,1-1.8l1.3.2c-.2.4-.2.5-.3.7h2.4c.6,0,.8,0,1.2,0v1.2c-.3,0-.6,0-1.1,0h-1.1c.3.4.3.5.5.8l-1.2.3c-.2-.5-.3-.7-.6-1.2h-.7c-.2.3-.3.4-.7.8v.4s3.4,0,3.4,0c.7,0,.9,0,1.3,0,0,.2,0,.4,0,.7v.8c0,.4,0,.6,0,.8h-1.3v-1.3h-7.7v1.3h-1.3c0-.2,0-.5,0-.8v-.8c0-.4,0-.5,0-.8.4,0,.6,0,1.3,0h3.1v-.2c0-.3,0-.4,0-.6h.8c-.3-.2-.3-.2-.6-.4h.2c-.2-.1-.3-.1-.5-.1h-.8c.2.3.3.5.4.8l-1.2.4c-.1-.5-.2-.8-.4-1.2h-.6ZM190.2,227.4c0-.4,0-.8,0-1.3v-4.3c0-.3,0-.6,0-.8.3,0,.6,0,1,0h4.9c.4,0,.7,0,1,0,0,.3,0,.5,0,.8v.9c0,.4,0,.6,0,.9-.3,0-.6,0-1,0h-4.6v.6h5.1c.4,0,.7,0,1,0,0,.3,0,.6,0,1v1.2c0,.4,0,.7,0,1.1h-1.3v-.5h-4.8v.5h-1.3ZM191.6,222.7h4.3v-.6h-4.3v.6ZM191.6,225.9h4.8v-.8h-4.8v.8Z"/>
    <path d="M201.2,218.1c-.4,0-.6,0-.9,0v-1.3c.3,0,.6,0,1.1,0h1.7c.5,0,.8,0,1.1,0v1.3c-.3,0-.6,0-.9,0h-.4v2.3h.3c.3,0,.5,0,.8,0v1.2c-.2,0-.5,0-.8,0h-.3v2.4c.5-.2.6-.3,1.2-.5v1.3c-1,.5-1.5.7-3.3,1.5,0,0-.1,0-.2,0l-.3-1.4c.4,0,.7-.2,1.5-.5v-2.9h-.4c-.3,0-.5,0-.8,0v-1.2c.3,0,.5,0,.8,0h.4v-2.3h-.5ZM207,224.6h-1.3c-.7,0-.9,0-1.2,0v-1.2c.3,0,.5,0,1.2,0h1.3v-1h-1.1c-.8,0-1.1,0-1.4,0q0-.3,0-1.5v-2.7c0-.8,0-1.2,0-1.6.5,0,.8,0,1.6,0h3.3c.9,0,1.2,0,1.5,0,0,.3,0,.9,0,1.6v2.6c0,.8,0,1.3,0,1.6-.4,0-.6,0-1.3,0h-1.4v1h1.5c.7,0,.9,0,1.3,0v1.2c-.3,0-.6,0-1.3,0h-1.5v1.2h1.9c.6,0,.9,0,1.3,0v1.3c-.4,0-.7,0-1.4,0h-5c-.6,0-.9,0-1.4,0v-1.3c.3,0,.6,0,1.2,0h2.1v-1.2ZM205.6,218v1.2h1.3v-1.2h-1.3ZM205.6,220.2v1.2h1.3v-1.2h-1.3ZM208.2,219.2h1.4v-1.2h-1.4v1.2ZM208.2,221.4h1.4v-1.2h-1.4v1.2Z"/>
  </g>
  <g>
    <path d="M264.3,10c0-.3,0-.4,0-.7.3,0,.5,0,.8,0h2.6v-1.6h-2.5c-.6,1-1.2,1.7-2,2.4-.3-.5-.5-.7-.9-1.1,1.2-1,1.8-1.8,2.3-3,.2-.4.3-.6.3-.9l1.4.3c0,.1,0,.2-.2.4,0,0-.1.3-.3.8h5.6c.6,0,.9,0,1.2,0v1.3c-.4,0-.7,0-1.2,0h-2.4v1.6h1.9c.6,0,.9,0,1.2,0v1.3c-.4,0-.7,0-1.2,0h-2v1.9h2.8c.6,0,.9,0,1.3,0v1.4c-.4,0-.8,0-1.3,0h-2.8v1.5c0,.6,0,.9,0,1.3h-1.5c0-.3,0-.7,0-1.3v-1.5h-4c-.5,0-.9,0-1.3,0v-1.4c.4,0,.8,0,1.3,0h.6v-2.4ZM267.7,12.5v-1.9h-2.2v1.9h2.2Z"/>
    <path d="M276.6,12.5c-.5,0-.9,0-1.3,0,0-.4,0-.7,0-1.2v-2.5c0-.6,0-.9,0-1.3.3,0,.6,0,1.1,0-.3-.6-.6-1-1.1-1.6l1.2-.5c.6.6.8,1,1.2,1.7l-.9.4h4.5c.6-.8.9-1.4,1.2-2.1l1.4.4c-.5.8-.8,1.3-1.1,1.7.6,0,.9,0,1.3,0,0,.3,0,.6,0,1.3v2.5c0,.6,0,.9,0,1.2-.4,0-.8,0-1.3,0h-2.5v.8h3.5c.6,0,.9,0,1.3,0v1.3c-.3,0-.8,0-1.4,0h-3.4v.8c0,.6,0,.8,0,1.2h-1.5c0-.3,0-.6,0-1.2v-.8h-3.2c-.6,0-1.1,0-1.4,0v-1.3c.4,0,.7,0,1.3,0h3.4v-.8h-2.4ZM279,8.7h-2.3v.8h2.3v-.8ZM279,10.5h-2.3v.9h2.3v-.9ZM279.4,7.5c-.3-.7-.4-1.1-.9-1.9l1.2-.3c.5.7.6,1,1,1.8l-1.3.4ZM282.8,9.5v-.8h-2.5v.8h2.5ZM282.8,11.4v-.9h-2.5v.9h2.5Z"/>
    <path d="M287.4,11.6c0-.4,0-.8,0-1.3-.4.6-.6.9-.9,1.3-.1-.5-.3-1-.5-1.4.8-.9,1.5-2,2-3.3.2-.6.4-1.2.5-1.6l1.4.3c-.4,1.1-.7,1.9-1.1,2.8v6.6c0,.5,0,.9,0,1.4h-1.5c0-.5,0-.8,0-1.4v-3.4ZM293.3,14.7c.7-1.9,1.3-4.1,1.5-5.6l1.5.3q-.2.6-.4,1.7c-.3,1.1-.7,2.3-1.2,3.7h1.3c.6,0,1,0,1.4,0v1.4c-.4,0-.8,0-1.4,0h-5.2c-.6,0-1.1,0-1.4,0v-1.4c.4,0,.8,0,1.4,0h2.6ZM292.5,6.4c0-.4,0-.6,0-.9h1.5c0,.3,0,.5,0,.9v1h1.8c.6,0,1,0,1.4,0v1.3c-.4,0-.8,0-1.4,0h-4.7c-.7,0-1.1,0-1.4,0v-1.3c.3,0,.7,0,1.4,0h1.6v-1ZM291.3,14.2c-.3-1.9-.7-3.1-1.3-4.6l1.2-.4c.6,1.7.9,2.7,1.3,4.7l-1.3.4Z"/>
    <path d="M301.7,16.5c-.7-1-1-1.5-1.3-2.4-.4-1.1-.6-2.2-.6-3.3s.2-2.1.6-3.2c.3-.9.6-1.4,1.3-2.4h1.7c-.8,1.1-1.2,1.6-1.5,2.4-.4,1-.6,2-.6,3.2s.2,2.3.6,3.3c.3.8.7,1.3,1.5,2.4h-1.7Z"/>
    <path d="M314.7,12.7c-.9,1-1.1,1.2-1.9,1.8.8.3,1.8.5,2.7.6-.3.5-.4.7-.5,1.2-1.2-.2-2.4-.6-3.4-1.1-1,.6-2.3,1-3.7,1.2-.1-.4-.2-.6-.6-1.1,1.2-.1,2.1-.4,3.2-.8-.4-.3-.7-.5-1-.9-.6.4-.9.6-1.4.9-.2-.3-.5-.6-.8-.8,1.1-.5,2.2-1.3,2.7-2h-.3q-.2,0-.5,0s-.1,0-.3,0c0-.4,0-.7,0-1.1v-1.8c-.1.2-.2.2-.3.4-.4-.4-.5-.4-.7-.6-.3.6-.6,1.2-1,1.8.1.2.2.2.3.4.3-.3.6-.8.8-1.2l.8.6c-.3.5-.6.8-1,1.2.3.2.4.3.7.5-.3.5-.3.5-.6,1-.5-.4-.7-.6-1.1-1.1v3.2c0,.6,0,1,0,1.4h-1.4c0-.4,0-.9,0-1.4v-3.1c-.4.4-.6.6-1.2,1.1-.2-.6-.3-.9-.5-1.3,1.2-.9,2.1-2,2.7-3.4h-1.4c-.4,0-.7,0-1,0v-1.3c.2,0,.5,0,1,0h.2v-1c0-.4,0-.7,0-1h1.4c0,.2,0,.5,0,.9v1c.4,0,.6,0,.8,0l.5.5c.7-.9,1.2-1.8,1.3-2.4l1.3.3q0,.1-.2.4c0,0,0,.2-.2.3h3.5c.6,0,.9,0,1.2,0v1.2c-.3,0-.6,0-1.2,0h-4.1c-.1.2-.2.3-.3.5h.4s3.4,0,3.4,0c.5,0,.9,0,1.2,0,0,.3,0,.6,0,1.2v1.4c0,.6,0,.9,0,1.2-.3,0-.6,0-1.1,0h-2.1c-.2.2-.2.3-.3.5h2.1c.4,0,.7,0,.9,0l.6.6ZM310.1,9.4h3.2v-.5h-3.2v.5ZM310.1,10.7h3.2v-.5h-3.2v.5ZM310.5,13.1c.3.3.6.5,1.1.8.5-.3.7-.4,1.1-.8h-2.3Z"/>
    <path d="M321.5,7.6c.4,0,.6,0,.8,0v1.1c-.2,0-.4,0-.8,0h-.8c.2.3.5.4,1.1.8-.3.3-.4.4-.7,1-.6-.5-.8-.7-1.1-1.1,0,.3,0,.4,0,.5v.4c0,.2,0,.3,0,.4h-1.3c0-.1,0-.3,0-.4v-.5c0-.1,0-.3,0-.5-.6.9-1,1.2-2,1.9-.3-.4-.4-.6-.8-1,1-.5,1.5-.9,1.9-1.5h-.6c-.4,0-.7,0-1,0v-1.2c.3,0,.6,0,1,0h1.4v-1.4c0-.4,0-.6,0-.8h1.3c0,.2,0,.4,0,.8v1.4h1.5ZM320.9,15.8c-.4-.3-.6-.5-1.1-.7-.8.7-1.5,1-2.9,1.4-.2-.4-.4-.7-.6-1.1,1.1-.2,1.7-.5,2.4-.9-.6-.3-.9-.4-1.8-.7.4-.5.5-.7.8-1.2h-.3c-.4,0-.7,0-.9,0v-1.2c.3,0,.5,0,.9,0h.9c.1-.3.2-.4.3-.9l1.2.2c-.1.3-.2.4-.3.6h1.9c.4,0,.7,0,.9,0v1.2c-.3,0-.5,0-1,0-.2.8-.3,1-.7,1.5.5.2.6.3,1,.5l-.7,1.1ZM317.7,5.5c.5.7.6.9.8,1.6l-1.1.4c-.2-.7-.4-1-.8-1.6l1-.4ZM318.9,12.6c-.2.3-.2.3-.4.7.5.2.7.2,1,.4.3-.3.4-.6.5-1.1h-1.1ZM322.2,5.9c-.5.9-.5,1.1-.9,1.6l-1-.5c.4-.5.6-1,.9-1.6l1.1.4ZM327.4,8.6c-.2,0-.4,0-.8,0,0,2-.5,3.4-1.2,4.7.6.8,1.3,1.4,2.3,1.9-.3.4-.5.7-.7,1.3-.9-.5-1.7-1.2-2.3-2.1-.8.9-1.7,1.6-2.7,2.1-.2-.6-.3-.8-.6-1.2.5-.3.7-.3.9-.5.7-.5,1.2-.9,1.7-1.5-.6-1-.8-1.7-1-2.8-.2.3-.3.5-.6.8-.3-.3-.5-.6-.9-.9.7-.9,1.2-2,1.6-3.5.2-.6.3-1.3.3-1.6l1.3.3c0,.1,0,.3-.2.7,0,.3-.2.7-.3,1.2h2.1c.6,0,.8,0,1.1,0v1.3ZM323.8,8.6q0,.2-.2.4c.2,1.3.4,2.1,1,3.2.5-1,.7-2,.7-3.5h-1.5Z"/>
    <path d="M330.3,10c0-.3,0-.4,0-.7.3,0,.5,0,.8,0h2.6v-1.6h-2.5c-.6,1-1.2,1.7-2,2.4-.3-.5-.5-.7-.9-1.1,1.2-1,1.8-1.8,2.3-3,.2-.4.3-.6.3-.9l1.4.3c0,.1,0,.2-.2.4,0,0-.1.3-.3.8h5.6c.6,0,.9,0,1.2,0v1.3c-.4,0-.7,0-1.2,0h-2.4v1.6h1.9c.6,0,.9,0,1.2,0v1.3c-.4,0-.7,0-1.2,0h-2v1.9h2.8c.6,0,.9,0,1.3,0v1.4c-.4,0-.8,0-1.3,0h-2.8v1.5c0,.6,0,.9,0,1.3h-1.5c0-.3,0-.7,0-1.3v-1.5h-4c-.5,0-.9,0-1.3,0v-1.4c.4,0,.8,0,1.3,0h.6v-2.4ZM333.7,12.5v-1.9h-2.2v1.9h2.2Z"/>
    <path d="M340.1,16.5c.9-1.1,1.2-1.6,1.5-2.4.4-1,.6-2.1.6-3.3s-.2-2.2-.6-3.2c-.3-.8-.7-1.3-1.5-2.4h1.7c.7.9,1,1.5,1.3,2.4.4,1.1.6,2.1.6,3.2s-.2,2.2-.6,3.3c-.3.9-.6,1.4-1.3,2.4h-1.7Z"/>
    <path d="M351.2,12.7c-.7,1.5-1.5,2.3-2.4,2.3s-2.4-1.4-2.4-3.3.5-2.6,1.3-3.5c1-1.1,2.4-1.7,4.1-1.7,2.9,0,4.7,1.8,4.7,4.5s-1.1,3.7-2.9,4.5c-.6.2-1,.4-1.9.5-.2-.6-.3-.9-.7-1.4,1.1-.1,1.8-.3,2.4-.7,1-.6,1.7-1.7,1.7-3s-.5-2.1-1.5-2.7c-.4-.2-.7-.3-1.2-.4-.2,1.9-.6,3.5-1.2,4.9ZM349.5,8.4c-1,.7-1.6,2-1.6,3.2s.4,1.8.9,1.8.8-.5,1.2-1.5c.5-1.1.9-2.7,1-4.1-.6,0-1.1.2-1.5.6Z"/>
    <path d="M358,7.4c.3,0,.6,0,1,0h3.1c.5,0,.7,0,1,0v1.2c-.3,0-.5,0-1,0h-3.1c-.4,0-.7,0-1,0v-1.2ZM358.5,5.7c.3,0,.5,0,1,0h2.1c.5,0,.7,0,1,0v1.2c-.3,0-.6,0-1,0h-2.1c-.4,0-.7,0-1,0v-1.2ZM359.7,16.4h-1.3c0-.3,0-.7,0-1.2v-1.8c0-.4,0-.6,0-.9.2,0,.4,0,.8,0h2.6c.4,0,.6,0,.8,0,0,.3,0,.5,0,.9v1.8c0,.5,0,.7,0,1h-1.3v-.4h-1.7v.5ZM358.5,9.1c.3,0,.4,0,.8,0h2.5c.4,0,.5,0,.8,0v1.1c-.3,0-.4,0-.8,0h-2.5c-.4,0-.5,0-.8,0v-1.1ZM358.5,10.8c.2,0,.4,0,.8,0h2.5c.4,0,.5,0,.8,0v1.1c-.2,0-.4,0-.8,0h-2.5c-.4,0-.5,0-.8,0v-1.1ZM359.7,14.8h1.7v-1.2h-1.7v1.2ZM365.3,6.9c0-.7,0-1,0-1.4h1.5c0,.4,0,.8,0,1.4v2.2h.9c.6,0,1.1,0,1.5,0v1.4c-.5,0-.9,0-1.5,0h-.8v4.4c0,.8,0,1.3,0,1.8h-1.5c0-.5,0-.9,0-1.8v-4.4h-.7c-.5,0-1,0-1.5,0v-1.4c.4,0,.8,0,1.5,0h.8v-2.2Z"/>
    <path d="M371.9,7.2c-.5.7-.8,1-1.3,1.5-.2-.3-.5-.7-.9-1,.6-.5.9-.8,1.3-1.4.3-.5.5-.8.6-1.1l1.3.3c0,0-.1.3-.3.6h1.5c.5,0,.8,0,1.1,0v1c.6-.6.9-1.3,1.1-1.9l1.2.3-.3.6h2.3c.6,0,.9,0,1.2,0v1.2c-.3,0-.7,0-1.2,0h-.9c.3.4.3.5.5.8l-.8.3c.6,0,.8,0,1.2,0,0,.3,0,.7,0,1.3v2.2c0,.7,0,1,0,1.3-.4,0-.6,0-1.3,0h-.3v.5h1.5c.6,0,1.1,0,1.4,0v1.2c-.4,0-.8,0-1.4,0h-1.5v.8c0,.4,0,.7,0,1.1h-1.4c0-.3,0-.6,0-1.1v-.8h-2.4c-.3.6-.6,1.1-1.2,1.4-.5.3-1,.5-1.9.6-.2-.4-.4-.6-.8-1.1.9-.1,1.1-.1,1.4-.2.5-.2.8-.4,1.1-.7h-1.6c-.5,0-.9,0-1.4,0v-1.2c.4,0,.8,0,1.4,0h1.9c0-.2,0-.3,0-.5h-.5c-.6,0-.9,0-1.3,0,0-.3,0-.6,0-1.2v-2.8c0-.4,0-.6,0-.9.3,0,.5,0,1,0h.7c-.2-.4-.3-.7-.5-1h-.6ZM372.7,9.5h5.5v-.4h-5.5v.4ZM372.7,10.8h5.5v-.4h-5.5v.4ZM372.7,12h5.5v-.4h-5.5v.4ZM373.8,7.2c.2.3.3.4.4.8l-.9.3h2.2c-.3-.3-.4-.4-.8-.6.2-.2.2-.2.4-.4-.2,0-.5,0-.9,0h-.4ZM376.6,13.5v-.5h-2.2c0,.2,0,.3,0,.5h2.2ZM377.9,8.2c-.2-.5-.3-.6-.6-1h-.7c-.3.4-.5.7-.8,1h2.1Z"/>
    <path d="M385.5,6.2q0,.3-.1,2.7c0,2.3-.3,3.7-1,4.9-.4.8-.9,1.4-1.7,2.2-.5-.6-.6-.8-1.2-1.2.6-.5.9-.8,1.2-1.4.9-1.4,1.1-2.9,1.1-6.3s0-.8,0-1.1h1.6ZM388.7,6c0,.3,0,.6,0,1.1v6.8c.8-.4,1.3-.8,1.8-1.4.6-.6.9-1.3,1.2-2.2.4.5.6.7,1.1,1.1-.5,1.2-1.1,2.1-1.9,2.8-.7.6-1.3.9-2.6,1.4-.3,0-.4.1-.5.2l-.8-.8c0-.3,0-.6.1-1.3v-6.8c0,0,0-.4,0-.4,0-.3,0-.6,0-.8h1.6Z"/>
    <path d="M393.8,10c.5,0,.8,0,1.9,0h6.4c1.2,0,1.4,0,1.9,0v1.7c-.5,0-.6,0-2,0h-6.4c-1.3,0-1.5,0-2,0v-1.7Z"/>
    <path d="M411.5,6.7c.4,0,.5,0,.7,0,0-.8.6-1.4,1.4-1.4s1.4.6,1.4,1.4-.6,1.4-1.4,1.4-.1,0-.2,0c-1,3.9-3.1,6.4-6.9,8-.3-.6-.5-.9-1.1-1.4,3.3-1,5.5-3.3,6.3-6.5h-5.7c-.9,0-1.1,0-1.5,0v-1.6c.4,0,.7,0,1.5,0h5.5ZM412.8,6.7c0,.4.3.8.8.8s.8-.4.8-.8-.3-.8-.8-.8-.8.3-.8.8Z"/>
  </g>
  <g>
    <path d="M289.6,32.4c-.6,0-1.1,0-1.8,0h-7.1c-.7,0-1.3,0-1.8,0v-1.6c.5,0,1.1,0,1.8,0h7.1c.8,0,1.4,0,1.8,0v1.6Z"/>
    <path d="M292.7,31c0-.3,0-.4,0-.7.3,0,.5,0,.8,0h2.6v-1.6h-2.5c-.6,1-1.2,1.7-2,2.4-.3-.5-.5-.7-.9-1.1,1.2-1,1.8-1.8,2.3-3,.2-.4.3-.6.3-.9l1.4.3c0,.1,0,.2-.2.4,0,0-.1.3-.3.8h5.6c.6,0,.9,0,1.2,0v1.3c-.4,0-.7,0-1.2,0h-2.4v1.6h1.9c.6,0,.9,0,1.2,0v1.3c-.4,0-.7,0-1.2,0h-2v1.9h2.8c.6,0,.9,0,1.3,0v1.4c-.4,0-.8,0-1.3,0h-2.8v1.5c0,.6,0,.9,0,1.3h-1.5c0-.3,0-.7,0-1.3v-1.5h-4c-.5,0-.9,0-1.3,0v-1.4c.4,0,.8,0,1.3,0h.6v-2.4ZM296.2,33.4v-1.9h-2.2v1.9h2.2Z"/>
    <path d="M307.7,33.6c-.7,1.5-1.5,2.3-2.4,2.3s-2.4-1.4-2.4-3.3.5-2.6,1.3-3.5c1-1.1,2.4-1.7,4.1-1.7,2.9,0,4.7,1.8,4.7,4.5s-1.1,3.7-2.9,4.5c-.6.2-1,.4-1.9.5-.2-.6-.3-.9-.7-1.4,1.1-.1,1.8-.3,2.4-.7,1-.6,1.7-1.7,1.7-3s-.5-2.1-1.5-2.7c-.4-.2-.7-.3-1.2-.4-.2,1.9-.6,3.5-1.2,4.9ZM305.9,29.3c-1,.7-1.6,2-1.6,3.2s.4,1.8.9,1.8.8-.5,1.2-1.5c.5-1.1.9-2.7,1-4.1-.6,0-1.1.2-1.5.6Z"/>
    <path d="M314.4,28.3c.3,0,.6,0,1,0h3.1c.5,0,.7,0,1,0v1.2c-.3,0-.5,0-1,0h-3.1c-.4,0-.7,0-1,0v-1.2ZM314.9,26.7c.3,0,.5,0,1,0h2.1c.5,0,.7,0,1,0v1.2c-.3,0-.6,0-1,0h-2.1c-.4,0-.7,0-1,0v-1.2ZM316.2,37.4h-1.3c0-.3,0-.7,0-1.2v-1.8c0-.4,0-.6,0-.9.2,0,.4,0,.8,0h2.6c.4,0,.6,0,.8,0,0,.3,0,.5,0,.9v1.8c0,.5,0,.7,0,1h-1.3v-.4h-1.7v.5ZM314.9,30.1c.3,0,.4,0,.8,0h2.5c.4,0,.5,0,.8,0v1.1c-.3,0-.4,0-.8,0h-2.5c-.4,0-.5,0-.8,0v-1.1ZM314.9,31.8c.2,0,.4,0,.8,0h2.5c.4,0,.5,0,.8,0v1.1c-.2,0-.4,0-.8,0h-2.5c-.4,0-.5,0-.8,0v-1.1ZM316.1,35.8h1.7v-1.2h-1.7v1.2ZM321.7,27.8c0-.7,0-1,0-1.4h1.5c0,.4,0,.8,0,1.4v2.2h.9c.6,0,1.1,0,1.5,0v1.4c-.5,0-.9,0-1.5,0h-.8v4.4c0,.8,0,1.3,0,1.8h-1.5c0-.5,0-.9,0-1.8v-4.4h-.7c-.5,0-1,0-1.5,0v-1.4c.4,0,.8,0,1.5,0h.8v-2.2Z"/>
    <path d="M328.4,28.1c-.5.7-.8,1-1.3,1.5-.2-.3-.5-.7-.9-1,.6-.5.9-.8,1.3-1.4.3-.5.5-.8.6-1.1l1.3.3c0,0-.1.3-.3.6h1.5c.5,0,.8,0,1.1,0v1c.6-.6.9-1.3,1.1-1.9l1.2.3-.3.6h2.3c.6,0,.9,0,1.2,0v1.2c-.3,0-.7,0-1.2,0h-.9c.3.4.3.5.5.8l-.8.3c.6,0,.8,0,1.2,0,0,.3,0,.7,0,1.3v2.2c0,.7,0,1,0,1.3-.4,0-.6,0-1.3,0h-.3v.5h1.5c.6,0,1.1,0,1.4,0v1.2c-.4,0-.8,0-1.4,0h-1.5v.8c0,.4,0,.7,0,1.1h-1.4c0-.3,0-.6,0-1.1v-.8h-2.4c-.3.6-.6,1.1-1.2,1.4-.5.3-1,.5-1.9.6-.2-.4-.4-.6-.8-1.1.9-.1,1.1-.1,1.4-.2.5-.2.8-.4,1.1-.7h-1.6c-.5,0-.9,0-1.4,0v-1.2c.4,0,.8,0,1.4,0h1.9c0-.2,0-.3,0-.5h-.5c-.6,0-.9,0-1.3,0,0-.3,0-.6,0-1.2v-2.8c0-.4,0-.6,0-.9.3,0,.5,0,1,0h.7c-.2-.4-.3-.7-.5-1h-.6ZM329.1,30.4h5.5v-.4h-5.5v.4ZM329.1,31.7h5.5v-.4h-5.5v.4ZM329.1,33h5.5v-.4h-5.5v.4ZM330.2,28.1c.2.3.3.4.4.8l-.9.3h2.2c-.3-.3-.4-.4-.8-.6.2-.2.2-.2.4-.4-.2,0-.5,0-.9,0h-.4ZM333,34.4v-.5h-2.2c0,.2,0,.3,0,.5h2.2ZM334.4,29.1c-.2-.5-.3-.6-.6-1h-.7c-.3.4-.5.7-.8,1h2.1Z"/>
    <path d="M342,27.1q0,.3-.1,2.7c0,2.3-.3,3.7-1,4.9-.4.8-.9,1.4-1.7,2.2-.5-.6-.6-.8-1.2-1.2.6-.5.9-.8,1.2-1.4.9-1.4,1.1-2.9,1.1-6.3s0-.8,0-1.1h1.6ZM345.1,27c0,.3,0,.6,0,1.1v6.8c.8-.4,1.3-.8,1.8-1.4.6-.6.9-1.3,1.2-2.2.4.5.6.7,1.1,1.1-.5,1.2-1.1,2.1-1.9,2.8-.7.6-1.3.9-2.6,1.4-.3,0-.4.1-.5.2l-.8-.8c0-.3,0-.6.1-1.3v-6.8c0,0,0-.4,0-.4,0-.3,0-.6,0-.8h1.6Z"/>
    <path d="M350.2,31c.5,0,.8,0,1.9,0h6.4c1.2,0,1.4,0,1.9,0v1.7c-.5,0-.6,0-2,0h-6.4c-1.3,0-1.5,0-2,0v-1.7Z"/>
    <path d="M368,27.7c.4,0,.5,0,.7,0,0-.8.6-1.4,1.4-1.4s1.4.6,1.4,1.4-.6,1.4-1.4,1.4-.1,0-.2,0c-1,3.9-3.1,6.4-6.9,8-.3-.6-.5-.9-1.1-1.4,3.3-1,5.5-3.3,6.3-6.5h-5.7c-.9,0-1.1,0-1.5,0v-1.6c.4,0,.7,0,1.5,0h5.5ZM369.3,27.6c0,.4.3.8.8.8s.8-.4.8-.8-.3-.8-.8-.8-.8.3-.8.8Z"/>
  </g>
  <g>
    <path d="M403.6,54.5c.6,0,.9,0,1.3,0,0,.4,0,.7,0,1.4v8c0,1-.4,1.2-1.9,1.2s-.8,0-1.3,0c0-.5-.2-.8-.4-1.3.8,0,1.4.1,1.8.1s.6,0,.6-.3v-7.8h-6.8v1.4c0,3.1-.1,4.9-.5,6.1-.2.8-.4,1.3-.9,2.1-.3-.4-.6-.7-1.1-1.1.4-.6.6-1.1.8-1.8.3-1.1.4-3,.4-5.8s0-1.5,0-2.1c.4,0,.7,0,1.3,0h6.9ZM399.5,57.6h-1.2c-.4,0-.7,0-.9,0v-1.2c.3,0,.5,0,.9,0h1.1c0-.4,0-.5,0-.7h1.3c0,.2,0,.3,0,.7h1.2c.4,0,.6,0,.9,0v1.2c-.3,0-.5,0-.9,0h-1.2v.8h1.5c.5,0,.8,0,1.1,0v1.2c-.3,0-.6,0-1.1,0h-4.1c-.5,0-.8,0-1.1,0v-1.2c.3,0,.5,0,1.1,0h1.4v-.8ZM402.5,62.6c0,.3,0,.6,0,.8-.3,0-.6,0-.9,0h-2.8v.7h-1.3c0-.3,0-.6,0-1v-2.1c0-.4,0-.6,0-.8.4,0,.5,0,.9,0h3.2c.5,0,.7,0,.9,0,0,.3,0,.4,0,.8v1.6ZM398.8,62.2h2.5v-1h-2.5v1Z"/>
    <path d="M415.7,65.2v-.7h-7.7v.7h-1.4c0-.4,0-.9,0-1.6v-7.7c0-.6,0-1,0-1.4.4,0,.8,0,1.4,0h7.6c.6,0,1,0,1.4,0,0,.4,0,.8,0,1.4v7.7c0,.7,0,1.2,0,1.5h-1.4ZM408,63.3h7.7v-7.7h-7.7v7.7ZM409.4,60.9c-.4,0-.6,0-.9,0v-1.2c.3,0,.5,0,.9,0h.6c0-.5,0-.8,0-1.4h-.5c-.4,0-.6,0-.9,0v-1.2c.2,0,.5,0,.9,0h.5v-.4c0-.3,0-.6,0-.9h1.3c0,.2,0,.4,0,.8v.4h1.4v-.4c0-.4,0-.6,0-.9h1.3c0,.3,0,.5,0,.9v.4h.4c.5,0,.7,0,.9,0v1.2c-.3,0-.5,0-.9,0h-.4v1.4h.6c.5,0,.7,0,.9,0v1.2c-.3,0-.5,0-.9,0h-.6v1.1c0,.4,0,.7,0,1h-1.3c0-.3,0-.6,0-1v-1.1h-1.6c-.2,1.1-.6,1.7-1.3,2.3-.4-.3-.6-.4-1.1-.6.7-.6,1-1,1.2-1.7h-.5ZM411.2,58.4c0,.7,0,.9,0,1.4h1.5v-1.4h-1.4Z"/>
    <path d="M423.3,61.4c-.7,1.5-1.5,2.3-2.4,2.3s-2.4-1.4-2.4-3.3.5-2.6,1.3-3.5c1-1.1,2.4-1.7,4.1-1.7,2.9,0,4.7,1.8,4.7,4.5s-1.1,3.7-2.9,4.5c-.6.2-1,.4-1.9.5-.2-.6-.3-.9-.7-1.4,1.1-.1,1.8-.3,2.4-.7,1-.6,1.7-1.7,1.7-3s-.5-2.1-1.5-2.7c-.4-.2-.7-.3-1.2-.4-.2,1.9-.6,3.5-1.2,4.9ZM421.6,57.1c-1,.7-1.6,2-1.6,3.2s.4,1.8.9,1.8.8-.5,1.2-1.5c.5-1.1.9-2.7,1-4.1-.6,0-1.1.2-1.5.6Z"/>
    <path d="M439.2,55.6q-.1,0-1,.3c-.7.2-1.1.3-2,.5q0,1.6,0,2h2.5c.8,0,1,0,1.5,0v1.4c-.4,0-.7,0-1.4,0h-2.7c-.1,1.1-.4,1.9-.8,2.6-.4.7-1.1,1.4-2,1.9-.3.2-.6.3-1.1.6-.3-.6-.5-.8-1-1.3.9-.3,1.3-.6,1.9-1,.7-.6,1.2-1.3,1.4-2,0-.2,0-.4.1-.8h-3c-.8,0-1,0-1.4,0v-1.4c.4,0,.6,0,1.5,0h3.1c0-.5,0-1,0-1.8-1,.1-1.3.2-3.3.3-.1-.5-.2-.7-.4-1.3.4,0,.6,0,.7,0,1.6,0,3.7-.3,5.1-.7.7-.2,1-.3,1.5-.6l1,1.2Z"/>
    <path d="M446.8,63.1h2.4c.6,0,.8,0,1.1,0v1.3c-.3,0-.6,0-1.1,0h-6.2c-.5,0-.8,0-1.1,0v-1.3c.3,0,.6,0,1.1,0h2.4v-3.9h-1.6c-.4,0-.7,0-1.1,0v-1.4c.3,0,.6,0,1.1,0h4.7c.5,0,.8,0,1.1,0v1.4c-.3,0-.5,0-1.1,0h-1.7v3.9Z"/>
    <path d="M453.7,57.3c.5.9.7,1.5,1.2,2.8l-1.4.4c-.3-1.2-.6-1.8-1.1-2.9l1.3-.4ZM460.6,57.3c0,.2,0,.2-.2.6-.3,1.6-.9,3-1.7,4-.9,1.2-1.9,2-3.7,2.9-.3-.5-.5-.7-1-1.2.8-.3,1.3-.6,2-1.1,1.4-1,2.2-2.2,2.7-4.2.2-.6.2-1,.2-1.4l1.5.3ZM456.2,56.8c.6,1.2.9,1.7,1.2,2.8l-1.3.4c-.2-.9-.6-1.8-1.1-2.8l1.3-.4Z"/>
    <path d="M471.5,56.5c-.1.2-.2.3-.3.7-.6,1.8-1.4,3.4-2.5,4.6-1.1,1.3-2.4,2.2-4.3,3-.3-.6-.5-.8-1-1.3,1.2-.5,1.9-.9,2.6-1.4,1.7-1.3,2.8-2.9,3.5-5.1h-3.6c-.7,1.2-1.7,2.3-2.8,3.1-.4-.5-.5-.6-1.2-1,1.4-.9,2.2-1.9,3.1-3.5.4-.7.6-1.2.6-1.6l1.6.3q0,.1-.2.4t-.2.3l-.2.3q0,.2-.2.4c.2,0,.3,0,.6,0h2.6c.5,0,.6,0,.9-.2l.8.8Z"/>
  </g>
  <g>
    <path d="M391.8,87.8c-.4,0-.6.1-1.2.2,0-.4-.2-.6-.5-1.1,1.2-.1,2-.3,2.9-.7.3-.1.5-.2.7-.4l.7,1.1q-.8.4-1.4.6v1.6h.4c.4,0,.6,0,.8,0v1.2c-.2,0-.5,0-.8,0h-.3c.4.8.6,1,1.3,1.6-.2.3-.3.6-.6,1.2-.3-.4-.4-.5-.8-1.2,0,.3,0,.9,0,1.3v2.5c0,.7,0,1.1,0,1.5h-1.4c0-.4,0-.8,0-1.5v-2.1c0-.3,0-.9,0-1.4-.3,1-.8,1.8-1.4,2.7-.2-.5-.3-.9-.6-1.3.7-.8,1.5-2.1,1.8-3.3h-.6c-.4,0-.6,0-.9,0v-1.3c.3,0,.5,0,.9,0h.8v-1.3ZM399,90.7q0,0-.2.3c0,0-.1.2-.3.4h1.1c.4,0,.7,0,.9,0l.7.7q-.2.3-.3.6c0,.2-.6.9-.7,1.1-.7.9-1.8,1.8-3,2.4-.9.4-1.6.7-2.8.9-.2-.5-.3-.8-.6-1.2,1.4-.2,2.2-.5,3.4-1.1-.4-.4-.4-.5-1-.8l.9-.7c.6.5.7.5,1.1.8.6-.5,1-.9,1.5-1.7h-2.1c-.9.9-1.7,1.4-2.9,2-.2-.3-.4-.6-.8-1,1.5-.6,3-1.6,3.6-2.6-.9.6-1.7,1-2.8,1.4-.2-.4-.4-.7-.7-1.1,1.2-.3,1.6-.5,2.6-1.1,0,0,0,0,0,0-.2-.2-.2-.3-.4-.4,0,0,0,0-.2-.1,0,0-.1-.1-.2-.2l.9-.6c.5.4.6.5.9.8.7-.5,1-.9,1.5-1.5h-2.2c-.6.6-1.2,1.1-2.1,1.7-.2-.4-.4-.6-.8-.9.9-.5,1.8-1.1,2.4-1.8.2-.3.5-.7.5-.9l1.3.4q0,0-.2.3s0,0,0,.1c0,0,0,0-.1.1h1.4c.4,0,.7,0,.9,0l.7.7q-.1.2-.3.5c-.6,1-1.2,1.6-2.3,2.4l.9.3Z"/>
    <path d="M406.5,87.2c0-.6,0-.9,0-1.2h1.5c0,.3,0,.6,0,1.2v2.6h2.6v-2c0-.4,0-.7,0-.9h1.4c0,.4,0,.6,0,1v2.4c0,.3,0,.6,0,.8-.3,0-.6,0-.8,0h-3.1v3.9h3v-2c0-.4,0-.7,0-1h1.5c0,.3,0,.7,0,1.1v2.6c0,.6,0,.9,0,1.2h-1.4v-.6h-7.1v.6h-1.4c0-.4,0-.7,0-1.2v-2.5c0-.5,0-.8,0-1.2h1.5c0,.3,0,.6,0,1v1.9h2.8v-3.9h-2.9c-.3,0-.6,0-.9,0,0-.3,0-.5,0-.8v-2.4c0-.4,0-.8,0-1.1h1.4c0,.3,0,.6,0,1v1.9h2.4v-2.6Z"/>
    <path d="M414.6,93.3c1.1.8,1.8,1.5,2.7,2.6l-1.1,1c-.9-1.2-1.6-1.9-2.6-2.7l1-.9Z"/>
    <path d="M421.5,87.8c-.4,0-.6.1-1.2.2,0-.4-.2-.6-.5-1.1,1.2-.1,2-.3,2.9-.7.3-.1.5-.2.7-.4l.7,1.1q-.8.4-1.4.6v1.6h.4c.4,0,.6,0,.8,0v1.2c-.2,0-.5,0-.8,0h-.3c.4.8.6,1,1.3,1.6-.2.3-.3.6-.6,1.2-.3-.4-.4-.5-.8-1.2,0,.3,0,.9,0,1.3v2.5c0,.7,0,1.1,0,1.5h-1.4c0-.4,0-.8,0-1.5v-2.1c0-.3,0-.9,0-1.4-.3,1-.8,1.8-1.4,2.7-.2-.5-.3-.9-.6-1.3.7-.8,1.5-2.1,1.8-3.3h-.6c-.4,0-.6,0-.9,0v-1.3c.3,0,.5,0,.9,0h.8v-1.3ZM428.6,90.7q0,0-.2.3c0,0-.1.2-.3.4h1.1c.4,0,.7,0,.9,0l.7.7q-.2.3-.3.6c0,.2-.6.9-.7,1.1-.7.9-1.8,1.8-3,2.4-.9.4-1.6.7-2.8.9-.2-.5-.3-.8-.6-1.2,1.4-.2,2.2-.5,3.4-1.1-.4-.4-.4-.5-1-.8l.9-.7c.6.5.7.5,1.1.8.6-.5,1-.9,1.5-1.7h-2.1c-.9.9-1.7,1.4-2.9,2-.2-.3-.4-.6-.8-1,1.5-.6,3-1.6,3.6-2.6-.9.6-1.7,1-2.8,1.4-.2-.4-.4-.7-.7-1.1,1.2-.3,1.6-.5,2.6-1.1,0,0,0,0,0,0-.2-.2-.2-.3-.4-.4,0,0,0,0-.2-.1,0,0-.1-.1-.2-.2l.9-.6c.5.4.6.5.9.8.7-.5,1-.9,1.5-1.5h-2.2c-.6.6-1.2,1.1-2.1,1.7-.2-.4-.4-.6-.8-.9.9-.5,1.8-1.1,2.4-1.8.2-.3.5-.7.5-.9l1.3.4q0,0-.2.3s0,0,0,.1c0,0,0,0-.1.1h1.4c.4,0,.7,0,.9,0l.7.7q-.1.2-.3.5c-.6,1-1.2,1.6-2.3,2.4l.9.3Z"/>
    <path d="M434.9,87.8c-.3,0-.7,0-1.2,0v-1.4c.3,0,.6,0,1.1,0h1.9c.5,0,.8,0,1.1,0,0,.3,0,.5,0,.8,0,1.7.4,3.3,1.3,4.7.5.8,1.1,1.6,1.9,2.3.6.6,1,.8,1.8,1.3-.5.4-.7.8-1,1.4-1.2-.8-2.1-1.7-2.9-2.8-.4-.6-.7-1-1.1-1.8-.3-.7-.4-1-.6-1.7-.4,1.5-.9,2.6-1.7,3.6-.8,1-1.7,1.8-3,2.7-.3-.5-.5-.9-1-1.3,1-.6,1.6-1,2.4-1.9.9-1,1.7-2.3,2.1-3.5.2-.8.3-1.5.4-2.4h-1.5Z"/>
    <path d="M448.6,93.2c-.7,1.5-1.5,2.3-2.4,2.3s-2.4-1.4-2.4-3.3.5-2.6,1.3-3.5c1-1.1,2.4-1.7,4.1-1.7,2.9,0,4.7,1.8,4.7,4.5s-1.1,3.7-2.9,4.5c-.6.2-1,.4-1.9.5-.2-.6-.3-.9-.7-1.4,1.1-.1,1.8-.3,2.4-.7,1-.6,1.7-1.7,1.7-3s-.5-2.1-1.5-2.7c-.4-.2-.7-.3-1.2-.4-.2,1.9-.6,3.5-1.2,4.9ZM446.8,89c-1,.7-1.6,2-1.6,3.2s.4,1.8.9,1.8.8-.5,1.2-1.5c.5-1.1.9-2.7,1-4.1-.6,0-1.1.2-1.5.6Z"/>
    <path d="M455.3,88c.3,0,.6,0,1,0h3.1c.5,0,.7,0,1,0v1.2c-.3,0-.5,0-1,0h-3.1c-.4,0-.7,0-1,0v-1.2ZM455.8,86.3c.3,0,.5,0,1,0h2.1c.5,0,.7,0,1,0v1.2c-.3,0-.6,0-1,0h-2.1c-.4,0-.7,0-1,0v-1.2ZM457.1,97h-1.3c0-.3,0-.7,0-1.2v-1.8c0-.4,0-.6,0-.9.2,0,.4,0,.8,0h2.6c.4,0,.6,0,.8,0,0,.3,0,.5,0,.9v1.8c0,.5,0,.7,0,1h-1.3v-.4h-1.7v.5ZM455.8,89.7c.3,0,.4,0,.8,0h2.5c.4,0,.5,0,.8,0v1.1c-.3,0-.4,0-.8,0h-2.5c-.4,0-.5,0-.8,0v-1.1ZM455.8,91.4c.2,0,.4,0,.8,0h2.5c.4,0,.5,0,.8,0v1.1c-.2,0-.4,0-.8,0h-2.5c-.4,0-.5,0-.8,0v-1.1ZM457.1,95.4h1.7v-1.2h-1.7v1.2ZM462.6,87.4c0-.7,0-1,0-1.4h1.5c0,.4,0,.8,0,1.4v2.2h.9c.6,0,1.1,0,1.5,0v1.4c-.5,0-.9,0-1.5,0h-.8v4.4c0,.8,0,1.3,0,1.8h-1.5c0-.5,0-.9,0-1.8v-4.4h-.7c-.5,0-1,0-1.5,0v-1.4c.4,0,.8,0,1.5,0h.8v-2.2Z"/>
    <path d="M469.3,87.8c-.5.7-.8,1-1.3,1.5-.2-.3-.5-.7-.9-1,.6-.5.9-.8,1.3-1.4.3-.5.5-.8.6-1.1l1.3.3c0,0-.1.3-.3.6h1.5c.5,0,.8,0,1.1,0v1c.6-.6.9-1.3,1.1-1.9l1.2.3-.3.6h2.3c.6,0,.9,0,1.2,0v1.2c-.3,0-.7,0-1.2,0h-.9c.3.4.3.5.5.8l-.8.3c.6,0,.8,0,1.2,0,0,.3,0,.7,0,1.3v2.2c0,.7,0,1,0,1.3-.4,0-.6,0-1.3,0h-.3v.5h1.5c.6,0,1.1,0,1.4,0v1.2c-.4,0-.8,0-1.4,0h-1.5v.8c0,.4,0,.7,0,1.1h-1.4c0-.3,0-.6,0-1.1v-.8h-2.4c-.3.6-.6,1.1-1.2,1.4-.5.3-1,.5-1.9.6-.2-.4-.4-.6-.8-1.1.9-.1,1.1-.1,1.4-.2.5-.2.8-.4,1.1-.7h-1.6c-.5,0-.9,0-1.4,0v-1.2c.4,0,.8,0,1.4,0h1.9c0-.2,0-.3,0-.5h-.5c-.6,0-.9,0-1.3,0,0-.3,0-.6,0-1.2v-2.8c0-.4,0-.6,0-.9.3,0,.5,0,1,0h.7c-.2-.4-.3-.7-.5-1h-.6ZM470,90.1h5.5v-.4h-5.5v.4ZM470,91.4h5.5v-.4h-5.5v.4ZM470,92.6h5.5v-.4h-5.5v.4ZM471.1,87.8c.2.3.3.4.4.8l-.9.3h2.2c-.3-.3-.4-.4-.8-.6.2-.2.2-.2.4-.4-.2,0-.5,0-.9,0h-.4ZM474,94v-.5h-2.2c0,.2,0,.3,0,.5h2.2ZM475.3,88.8c-.2-.5-.3-.6-.6-1h-.7c-.3.4-.5.7-.8,1h2.1Z"/>
  </g>
  <g>
    <path d="M347.3,124.7c-.8,1-1.5,1.8-2.5,2.7-.2.2-.3.3-.4.4l-.9-1.3c.3-.1.5-.3,1-.8.8-.7,1.2-1.1,1.9-2l.8,1ZM344.8,118.7c.9.7,1.3,1.1,2.1,1.9l-1,1c-.7-.9-1.1-1.3-2.1-2l1-.9ZM350.7,121.7c0,.2,0,.3,0,.5,0,.9.1,1.8.4,2.4.3.8.9,1.6,1.7,2.2.6.5,1,.7,2,1.1-.3.4-.6.8-.8,1.3-1.2-.6-1.8-1.1-2.4-1.7-.7-.7-1.2-1.5-1.5-2.5-.3.9-.7,1.7-1.2,2.4-.6.7-1.4,1.3-2.6,1.8-.2-.4-.4-.7-.8-1.1,1-.4,1.6-.8,2.3-1.5,1-1,1.6-2.6,1.6-4.4s0-.3,0-.5h1.4ZM352.6,120c.6,0,.9,0,1.2,0l.7.7c0,.2-.1.3-.3.6-.5,1.2-.9,1.9-1.7,2.9-.4-.4-.5-.4-1.1-.8.7-.7,1.1-1.4,1.5-2.2h-4c-.5,1-1,1.7-1.8,2.5-.3-.4-.6-.7-1-1,1.3-1.1,2.1-2.6,2.4-4.5l1.4.3c0,.2-.1.3-.4.9,0,.2-.1.3-.2.6h3.2Z"/>
    <path d="M357.7,122.8c0-.3,0-.4,0-.7.3,0,.5,0,.8,0h2.6v-1.6h-2.5c-.6,1-1.2,1.7-2,2.4-.3-.5-.5-.7-.9-1.1,1.2-1,1.8-1.8,2.3-3,.2-.4.3-.6.3-.9l1.4.3c0,.1,0,.2-.2.4,0,0-.1.3-.3.8h5.6c.6,0,.9,0,1.2,0v1.3c-.4,0-.7,0-1.2,0h-2.4v1.6h1.9c.6,0,.9,0,1.2,0v1.3c-.4,0-.7,0-1.2,0h-2v1.9h2.8c.6,0,.9,0,1.3,0v1.4c-.4,0-.8,0-1.3,0h-2.8v1.5c0,.6,0,.9,0,1.3h-1.5c0-.3,0-.7,0-1.3v-1.5h-4c-.5,0-.9,0-1.3,0v-1.4c.4,0,.8,0,1.3,0h.6v-2.4ZM361.1,125.3v-1.9h-2.2v1.9h2.2Z"/>
    <path d="M369.8,122.1c0,1.8-.1,3.1-.3,4.2-.2,1.1-.5,1.9-1,2.9-.3-.5-.6-.8-1-1.1.4-.7.6-1.3.7-2.1.3-1.2.3-2.6.3-5.4s0-1.2,0-1.6c.4,0,.8,0,1.4,0h3v-.3c0-.3,0-.5,0-.7h1.4c0,.2,0,.4,0,.7v.3h3c.7,0,1.1,0,1.5,0v1.2c-.4,0-.7,0-1.3,0h-.9v.8h1.2c.5,0,.8,0,1.1,0v1.2c-.3,0-.5,0-1.1,0h-1.2v1.1c0,.3,0,.6,0,.8-.3,0-.3,0-.8,0h-3.3c-.5,0-.6,0-.8,0,0-.2,0-.5,0-.8v-1.1h-1.7ZM377.4,125.3c-.1.1-.1.1-.2.2-.6.8-1.3,1.3-2,1.8,1,.4,2.1.5,3.5.6-.2.4-.4.8-.5,1.4-2-.3-3.2-.6-4.3-1.2-1.2.6-2.3.9-4.1,1.2,0-.5-.2-.7-.5-1.2,1.5-.1,2.4-.3,3.4-.7-.7-.5-1-.9-1.6-1.7-.4,0-.6,0-.9,0v-1.1c.3,0,.6,0,1.3,0h4.2c.5,0,.7,0,1,0l.6.7ZM371.5,121v-.8h-1.7v.8h1.7ZM372.5,125.7c.4.4.7.7,1.4,1.1.6-.4.9-.6,1.5-1.1h-2.9ZM375.1,121v-.8h-2.4v.8h2.4ZM372.8,122.9h2.4v-.8h-2.4v.8Z"/>
    <path d="M384.6,125.5c-.7,1.5-1.5,2.3-2.4,2.3s-2.4-1.4-2.4-3.3.5-2.6,1.3-3.5c1-1.1,2.4-1.7,4.1-1.7,2.9,0,4.7,1.8,4.7,4.5s-1.1,3.7-2.9,4.5c-.6.2-1,.4-1.9.5-.2-.6-.3-.9-.7-1.4,1.1-.1,1.8-.3,2.4-.7,1-.6,1.7-1.7,1.7-3s-.5-2.1-1.5-2.7c-.4-.2-.7-.3-1.2-.4-.2,1.9-.6,3.5-1.2,4.9ZM382.9,121.2c-1,.7-1.6,2-1.6,3.2s.4,1.8.9,1.8.8-.5,1.2-1.5c.5-1.1.9-2.7,1-4.1-.6,0-1.1.2-1.5.6Z"/>
    <path d="M400.7,119.6c.6,0,1.1,0,1.4,0v1.4c-.4,0-.8,0-1.4,0h-4.9c-.5,1-.9,1.7-1.6,2.5v4.4c0,.6,0,1.1,0,1.4h-1.5c0-.4,0-.8,0-1.4v-3c-.5.4-.5.5-.9.8-.3-.5-.5-.8-.9-1.2.7-.5,1.3-1,1.8-1.6q0-.5,0-.7h.6c.3-.4.6-.8.9-1.3h-1.5c-.6,0-1.1,0-1.4,0v-1.4c.3,0,.8,0,1.4,0h2.1c.3-.7.4-1.2.5-1.6l1.5.3c0,.1,0,.2-.2.5,0,.3-.2.6-.3.8h4.4ZM400.3,123.5c.6,0,.9,0,1.3,0v1.4c-.4,0-.7,0-1.3,0h-1.5v2.8h1.9c.6,0,1,0,1.3,0v1.4c-.5,0-.8,0-1.3,0h-4.8c-.6,0-.9,0-1.3,0v-1.4c.4,0,.8,0,1.3,0h1.6v-2.8h-1.2c-.6,0-.9,0-1.3,0v-1.4c.3,0,.7,0,1.3,0h1.3v-.8c0-.6,0-.9,0-1.2h1.5c0,.3,0,.6,0,1.3v.7h1.5Z"/>
    <path d="M407.1,123.7c0,.8-.6,1.4-1.4,1.4s-1.4-.6-1.4-1.4.6-1.4,1.4-1.4,1.4.6,1.4,1.4Z"/>
    <path d="M410.9,120.1c-.5,0-1.2,0-1.6,0v-1.4c.5,0,1,0,1.6,0h7.6c.7,0,1.2,0,1.6,0v1.4c-.5,0-1,0-1.6,0h-2.4c-.2.5-.4.7-.9,1.3v6.3c0,.6,0,1.1,0,1.5h-1.5c0-.5,0-1,0-1.5v-3.6c0-.4,0-.6,0-1.1-.4.6-1,1.1-1.8,1.8-.6.5-1.2.9-2.3,1.6-.2-.4-.4-.7-.8-1.2,1.5-.8,2.7-1.6,3.8-2.8.8-.8,1.2-1.3,1.7-2.2h-3.6ZM416.2,121.8c.6.7,1.1,1.1,1.8,1.7.9.7,1.6,1.2,2.5,1.5-.3.5-.6.8-.8,1.3-1.8-1-3.1-2.1-4.3-3.6l.9-1Z"/>
    <path d="M430.7,119.6c.6,0,1.1,0,1.4,0v1.4c-.4,0-.8,0-1.4,0h-4.9c-.5,1-.9,1.7-1.6,2.5v4.4c0,.6,0,1.1,0,1.4h-1.5c0-.4,0-.8,0-1.4v-3c-.5.4-.5.5-.9.8-.3-.5-.5-.8-.9-1.2.7-.5,1.3-1,1.8-1.6q0-.5,0-.7h.6c.3-.4.6-.8.9-1.3h-1.5c-.6,0-1.1,0-1.4,0v-1.4c.3,0,.8,0,1.4,0h2.1c.3-.7.4-1.2.5-1.6l1.5.3c0,.1,0,.2-.2.5,0,.3-.2.6-.3.8h4.4ZM430.3,123.5c.6,0,.9,0,1.3,0v1.4c-.4,0-.7,0-1.3,0h-1.5v2.8h1.9c.6,0,1,0,1.3,0v1.4c-.5,0-.8,0-1.3,0h-4.8c-.6,0-.9,0-1.3,0v-1.4c.4,0,.8,0,1.3,0h1.6v-2.8h-1.2c-.6,0-.9,0-1.3,0v-1.4c.3,0,.7,0,1.3,0h1.3v-.8c0-.6,0-.9,0-1.2h1.5c0,.3,0,.6,0,1.3v.7h1.5Z"/>
    <path d="M436.4,123.5c-.4,0-.7,0-1,0v-.9c-.6.6-.9.9-1.5,1.3-.2-.4-.5-.8-.9-1.2,1.5-1,2.4-2,3.2-3.4.3-.5.4-.9.5-1.2l1.4.5c-.1.2-.2.3-.3.6-.4.9-1.2,2-1.9,2.9.3,0,.4,0,.6,0h4.4c.3,0,.5,0,.7,0-.8-.9-1.5-1.9-2-3,0-.1-.2-.4-.3-.5l1.3-.5c0,.3.2.6.5,1,.8,1.4,1.8,2.5,3.3,3.5-.5.6-.6.7-.9,1.3-.7-.5-1-.7-1.5-1.3v.4c0,2.5-.2,4.4-.5,5-.3.5-.7.7-1.8.7s-.4,0-1.2,0c0-.5-.1-.8-.4-1.4.6,0,1.1.2,1.5.2s.6,0,.7-.2c.2-.4.4-1.9.4-3.2v-.7h-2.3c0,1.2-.4,2.1-.9,3.1-.7,1.1-1.6,1.9-3,2.6-.2-.4-.4-.7-.9-1.2.7-.3,1.2-.6,1.9-1.1.8-.7,1.4-1.6,1.6-2.7,0-.2,0-.3,0-.7h-.6Z"/>
    <path d="M448.6,124.1v2.9c0,.7,0,1,0,1.4h-1.4c0-.4,0-.8,0-1.4v-2.5c-.5.5-.9.8-1.6,1.3-.2-.4-.4-.9-.7-1.2,1.5-1,2.6-2.1,3.5-3.7h-1.8c-.7,0-1.1,0-1.5,0v-1.4c.4,0,.8,0,1.5,0h2.3c.3-.7.4-1.1.4-1.6l1.5.2q-.1.3-.2.6c0,.3-.2.5-.3.9h4.2c.7,0,1.1,0,1.5,0v1.4c-.4,0-.8,0-1.5,0h-4.7c-.3.7-.7,1.4-1.2,2h1.8c0-.7,0-1.1,0-1.5h1.4c0,.3,0,.7,0,1.4h0c0,0,2.3,0,2.3,0,.5,0,.8,0,1.1,0,0,.3,0,.6,0,1v3c0,.6-.2.9-.6,1.1-.3.1-.6.2-1.3.2s-.4,0-.7,0c0-.5-.1-.8-.4-1.3.5,0,.9.1,1.1.1.4,0,.6,0,.6-.4v-2.5h-2.1v3.7c0,.7,0,1.1,0,1.4h-1.5c0-.3,0-.8,0-1.4v-3.7h-1.9Z"/>
    <path d="M460.7,129.3c-.7-1-1-1.5-1.3-2.4-.4-1.1-.6-2.2-.6-3.3s.2-2.1.6-3.2c.3-.9.6-1.4,1.3-2.4h1.7c-.8,1.1-1.2,1.6-1.5,2.4-.4,1-.6,2-.6,3.2s.2,2.3.6,3.3c.3.8.7,1.3,1.5,2.4h-1.7Z"/>
    <path d="M465.9,118.8c0,.3,0,.4,0,1.1v3.3c0,.6,0,.8,0,1.1h-1.6c0-.3,0-.6,0-1.1v-3.3c0-.6,0-.8,0-1.1h1.6ZM471.3,118.8c0,.3,0,.4,0,1.1v1.6c0,1.9,0,2.9-.3,3.6-.3,1.2-1.1,2.1-2.4,2.8-.6.4-1.2.6-2.3.9-.2-.6-.3-.8-.8-1.4,1.2-.2,1.9-.5,2.6-1,1.1-.7,1.5-1.5,1.7-3.1,0-.5,0-1,0-2v-1.5c0-.6,0-.9,0-1.1h1.7Z"/>
    <path d="M482.1,128.6c-1-1.2-2.4-2.6-3.7-3.6-1.4,1.5-2.7,2.6-4.6,3.5-.3-.6-.5-.8-1-1.3.9-.4,1.5-.7,2.4-1.3,1.8-1.3,3.3-3,4-4.9v-.3q0,0-3.8,0c-.6,0-.9,0-1.3,0v-1.5c.3,0,.5,0,1,0h4.5c.7,0,.8,0,1.1-.2l.8.8c-.2.2-.3.3-.4.6-.6,1.3-1.1,2.3-1.9,3.3.8.5,1.4,1,2.2,1.7q.3.3,1.8,1.7l-1.2,1.2Z"/>
    <path d="M485.7,128.8c0-.4,0-.7,0-1.3v-7.7c0-.6,0-.9,0-1.2h1.6c0,.4,0,.5,0,1.3v2.2c1.6.6,3.5,1.5,5.4,2.5l-.8,1.4c-1-.7-2.2-1.4-4.2-2.3-.3-.1-.3-.1-.4-.2,0,.3,0,.5,0,.8v3.2c0,.6,0,.9,0,1.3h-1.6Z"/>
    <path d="M494,129.3c.9-1.1,1.2-1.6,1.5-2.4.4-1,.6-2.1.6-3.3s-.2-2.2-.6-3.2c-.3-.8-.7-1.3-1.5-2.4h1.7c.7.9,1,1.5,1.3,2.4.4,1.1.6,2.1.6,3.2s-.2,2.2-.6,3.3c-.3.9-.6,1.4-1.3,2.4h-1.7Z"/>
    <path d="M505.1,125.5c-.7,1.5-1.5,2.3-2.4,2.3s-2.4-1.4-2.4-3.3.5-2.6,1.3-3.5c1-1.1,2.4-1.7,4.1-1.7,2.9,0,4.7,1.8,4.7,4.5s-1.1,3.7-2.9,4.5c-.6.2-1,.4-1.9.5-.2-.6-.3-.9-.7-1.4,1.1-.1,1.8-.3,2.4-.7,1-.6,1.7-1.7,1.7-3s-.5-2.1-1.5-2.7c-.4-.2-.7-.3-1.2-.4-.2,1.9-.6,3.5-1.2,4.9ZM503.3,121.2c-1,.7-1.6,2-1.6,3.2s.4,1.8.9,1.8.8-.5,1.2-1.5c.5-1.1.9-2.7,1-4.1-.6,0-1.1.2-1.5.6Z"/>
    <path d="M515.6,118.5c-.1.3-.2.4-.3.7q-.2.5-.8,1.9v6.6c0,.6,0,1,0,1.5h-1.4c0-.5,0-.9,0-1.5v-3.4c0-.3,0-.4,0-1.4-.4.6-.7.9-1.2,1.4-.2-.6-.3-.9-.6-1.4.9-.8,1.7-1.9,2.3-3.3.3-.6.4-1.1.5-1.6l1.3.5ZM517.5,121.1c-.5,1.1-1.2,2-2,2.9-.3-.5-.5-.7-.9-1.1.9-.9,1.5-1.8,2-3.1.3-.7.5-1.3.5-1.7l1.4.4c-.1.3-.2.4-.2.6-.2.5-.2.5-.3.8h3.3c.6,0,1,0,1.3,0v1.3c-.3,0-.8,0-1.3,0h-2.3v1.5h2c.5,0,.8,0,1.2,0v1.3c-.4,0-.7,0-1.2,0h-1.9v1.5h2c.5,0,.8,0,1.2,0v1.3c-.4,0-.7,0-1.2,0h-2v1.4c0,.7,0,1.1,0,1.4h-1.5c0-.3,0-.7,0-1.4v-6.8h-.2Z"/>
    <path d="M534,122.4q0,.2-.3.6c-.5,1.3-1,2.2-1.6,3,.2.4.5.8.7,1,.2.2.5.4.5.4s0,0,.2-.2q0-.3.2-1.4c.4.4.6.5,1.1.8-.3,1.6-.7,2.3-1.4,2.3s-1.6-.8-2.3-1.9c-.9.9-1.8,1.6-2.9,2.1-.4-.6-.5-.7-.9-1,1.3-.5,2.3-1.2,3.2-2.2-.5-1.2-.8-2.7-.9-4.8h-3.7q0,1.2,0,1.6h2.2c.4,0,.6,0,.9,0,0,.2,0,.6,0,1-.1,2.2-.2,2.8-.4,3.3-.2.5-.6.7-1.5.7s-.5,0-.9,0c0-.5-.1-.8-.3-1.3.6,0,.8,0,1.2,0s.5,0,.5-.4c0-.4.2-1.2.2-2.2h-1.8c0,1.4-.2,2.2-.4,3-.2,1-.5,1.5-1,2.3-.4-.5-.6-.7-1-1,.4-.6.7-1.2.8-1.9.2-1,.4-2.6.4-4.7s0-1.2,0-1.7c.4,0,.9,0,1.5,0h3.5c0,0,0-.4,0-.9,0-.4,0-.5,0-.8h1.4c0,.3,0,.7,0,1.1v.6h1.6c-.3-.4-.6-.7-1.1-1.1l.9-.6c.6.5.8.7,1.2,1.3l-.6.4h.4c.6,0,1,0,1.3,0v1.3c-.4,0-.9,0-1.5,0h-2.2c.1,1.6.3,2.7.6,3.6.6-1,1-2,1.2-2.8l1.3.5Z"/>
  </g>
  <g>
    <path d="M305.6,166.2c.4,0,.6,0,1.2,0,1.1,0,2.6,0,3.6-.1.6,0,.9,0,1.1-.2l.8,1c-.3.2-.3.2-.7.6-.9.8-2.2,1.9-3.3,2.6.6,0,1.5-.2,2.9-.3.8,0,1.3,0,1.6-.1.4,0,.7,0,.9,0,.2,0,.2,0,.4,0v1.4h-.3c-1.4,0-2.4.2-3.3.6-1,.4-1.6,1.2-1.6,1.8s.9,1.2,2.4,1.2.8,0,1.1-.1v1.5c0,0-.2,0-.4,0s-.3,0-.6,0h-.2c-.7,0-1.6-.1-2.2-.3-1-.3-1.7-1.2-1.7-2.1s.2-1.1.6-1.6c.3-.4.6-.6,1.3-.9-.5,0-.9.2-1.5.2-.5,0-1,.1-1.3.2-.5,0-1.1.1-1.9.3-.2,0-.3,0-.6.1v-1.5c0,0,0,0,0,0,.2,0,.7,0,1,0,0,0,.2,0,.5,0,.3,0,.4,0,.7,0,1.1-.6,2.8-2,3.7-3-.9.1-1.4.2-3.3.3-.3,0-.5,0-.8,0v-1.4Z"/>
    <path d="M320,172.7c-.7,1.5-1.5,2.3-2.4,2.3s-2.4-1.4-2.4-3.3.5-2.6,1.3-3.5c1-1.1,2.4-1.7,4.1-1.7,2.9,0,4.7,1.8,4.7,4.5s-1.1,3.7-2.9,4.5c-.6.2-1,.4-1.9.5-.2-.6-.3-.9-.7-1.4,1.1-.1,1.8-.3,2.4-.7,1-.6,1.7-1.7,1.7-3s-.5-2.1-1.5-2.7c-.4-.2-.7-.3-1.2-.4-.2,1.9-.6,3.5-1.2,4.9ZM318.3,168.4c-1,.7-1.6,2-1.6,3.2s.4,1.8.9,1.8.8-.5,1.2-1.5c.5-1.1.9-2.7,1-4.1-.6,0-1.1.2-1.5.6Z"/>
    <path d="M328.7,170c0-.3,0-.4,0-.7.3,0,.5,0,.8,0h2.6v-1.6h-2.5c-.6,1-1.2,1.7-2,2.4-.3-.5-.5-.7-.9-1.1,1.2-1,1.8-1.8,2.3-3,.2-.4.3-.6.3-.9l1.4.3c0,.1,0,.2-.2.4,0,0-.1.3-.3.8h5.6c.6,0,.9,0,1.2,0v1.3c-.4,0-.7,0-1.2,0h-2.4v1.6h1.9c.6,0,.9,0,1.2,0v1.3c-.4,0-.7,0-1.2,0h-2v1.9h2.8c.6,0,.9,0,1.3,0v1.4c-.4,0-.8,0-1.3,0h-2.8v1.5c0,.6,0,.9,0,1.3h-1.5c0-.3,0-.7,0-1.3v-1.5h-4c-.5,0-.9,0-1.3,0v-1.4c.4,0,.8,0,1.3,0h.6v-2.4ZM332.1,172.5v-1.9h-2.2v1.9h2.2Z"/>
    <path d="M343.6,172.7c-.7,1.5-1.5,2.3-2.4,2.3s-2.4-1.4-2.4-3.3.5-2.6,1.3-3.5c1-1.1,2.4-1.7,4.1-1.7,2.9,0,4.7,1.8,4.7,4.5s-1.1,3.7-2.9,4.5c-.6.2-1,.4-1.9.5-.2-.6-.3-.9-.7-1.4,1.1-.1,1.8-.3,2.4-.7,1-.6,1.7-1.7,1.7-3s-.5-2.1-1.5-2.7c-.4-.2-.7-.3-1.2-.4-.2,1.9-.6,3.5-1.2,4.9ZM341.8,168.4c-1,.7-1.6,2-1.6,3.2s.4,1.8.9,1.8.8-.5,1.2-1.5c.5-1.1.9-2.7,1-4.1-.6,0-1.1.2-1.5.6Z"/>
    <path d="M359.7,166.9c.6,0,1.1,0,1.4,0v1.4c-.4,0-.8,0-1.4,0h-4.9c-.5,1-.9,1.7-1.6,2.5v4.4c0,.6,0,1.1,0,1.4h-1.5c0-.4,0-.8,0-1.4v-3c-.5.4-.5.5-.9.8-.3-.5-.5-.8-.9-1.2.7-.5,1.3-1,1.8-1.6q0-.5,0-.7h.6c.3-.4.6-.8.9-1.3h-1.5c-.6,0-1.1,0-1.4,0v-1.4c.3,0,.8,0,1.4,0h2.1c.3-.7.4-1.2.5-1.6l1.5.3c0,.1,0,.2-.2.5,0,.3-.2.6-.3.8h4.4ZM359.3,170.7c.6,0,.9,0,1.3,0v1.4c-.4,0-.7,0-1.3,0h-1.5v2.8h1.9c.6,0,1,0,1.3,0v1.4c-.5,0-.8,0-1.3,0h-4.8c-.6,0-.9,0-1.3,0v-1.4c.4,0,.8,0,1.3,0h1.6v-2.8h-1.2c-.6,0-.9,0-1.3,0v-1.4c.3,0,.7,0,1.3,0h1.3v-.8c0-.6,0-.9,0-1.2h1.5c0,.3,0,.6,0,1.3v.7h1.5Z"/>
    <path d="M366.1,170.9c0,.8-.6,1.4-1.4,1.4s-1.4-.6-1.4-1.4.6-1.4,1.4-1.4,1.4.6,1.4,1.4Z"/>
    <path d="M369.9,167.3c-.5,0-1.2,0-1.6,0v-1.4c.5,0,1,0,1.6,0h7.6c.7,0,1.2,0,1.6,0v1.4c-.5,0-1,0-1.6,0h-2.4c-.2.5-.4.7-.9,1.3v6.3c0,.6,0,1.1,0,1.5h-1.5c0-.5,0-1,0-1.5v-3.6c0-.4,0-.6,0-1.1-.4.6-1,1.1-1.8,1.8-.6.5-1.2.9-2.3,1.6-.2-.4-.4-.7-.8-1.2,1.5-.8,2.7-1.6,3.8-2.8.8-.8,1.2-1.3,1.7-2.2h-3.6ZM375.2,169c.6.7,1.1,1.1,1.8,1.7.9.7,1.6,1.2,2.5,1.5-.3.5-.6.8-.8,1.3-1.8-1-3.1-2.1-4.3-3.6l.9-1Z"/>
    <path d="M389.7,166.9c.6,0,1.1,0,1.4,0v1.4c-.4,0-.8,0-1.4,0h-4.9c-.5,1-.9,1.7-1.6,2.5v4.4c0,.6,0,1.1,0,1.4h-1.5c0-.4,0-.8,0-1.4v-3c-.5.4-.5.5-.9.8-.3-.5-.5-.8-.9-1.2.7-.5,1.3-1,1.8-1.6q0-.5,0-.7h.6c.3-.4.6-.8.9-1.3h-1.5c-.6,0-1.1,0-1.4,0v-1.4c.3,0,.8,0,1.4,0h2.1c.3-.7.4-1.2.5-1.6l1.5.3c0,.1,0,.2-.2.5,0,.3-.2.6-.3.8h4.4ZM389.3,170.7c.6,0,.9,0,1.3,0v1.4c-.4,0-.7,0-1.3,0h-1.5v2.8h1.9c.6,0,1,0,1.3,0v1.4c-.5,0-.8,0-1.3,0h-4.8c-.6,0-.9,0-1.3,0v-1.4c.4,0,.8,0,1.3,0h1.6v-2.8h-1.2c-.6,0-.9,0-1.3,0v-1.4c.3,0,.7,0,1.3,0h1.3v-.8c0-.6,0-.9,0-1.2h1.5c0,.3,0,.6,0,1.3v.7h1.5Z"/>
    <path d="M395.4,170.7c-.4,0-.7,0-1,0v-.9c-.6.6-.9.9-1.5,1.3-.2-.4-.5-.8-.9-1.2,1.5-1,2.4-2,3.2-3.4.3-.5.4-.9.5-1.2l1.4.5c-.1.2-.2.3-.3.6-.4.9-1.2,2-1.9,2.9.3,0,.4,0,.6,0h4.4c.3,0,.5,0,.7,0-.8-.9-1.5-1.9-2-3,0-.1-.2-.4-.3-.5l1.3-.5c0,.3.2.6.5,1,.8,1.4,1.8,2.5,3.3,3.5-.5.6-.6.7-.9,1.3-.7-.5-1-.7-1.5-1.3v.4c0,2.5-.2,4.4-.5,5-.3.5-.7.7-1.8.7s-.4,0-1.2,0c0-.5-.1-.8-.4-1.4.6,0,1.1.2,1.5.2s.6,0,.7-.2c.2-.4.4-1.9.4-3.2v-.7h-2.3c0,1.2-.4,2.1-.9,3.1-.7,1.1-1.6,1.9-3,2.6-.2-.4-.4-.7-.9-1.2.7-.3,1.2-.6,1.9-1.1.8-.7,1.4-1.6,1.6-2.7,0-.2,0-.3,0-.7h-.6Z"/>
    <path d="M407.6,171.4v2.9c0,.7,0,1,0,1.4h-1.4c0-.4,0-.8,0-1.4v-2.5c-.5.5-.9.8-1.6,1.3-.2-.4-.4-.9-.7-1.2,1.5-1,2.6-2.1,3.5-3.7h-1.8c-.7,0-1.1,0-1.5,0v-1.4c.4,0,.8,0,1.5,0h2.3c.3-.7.4-1.1.4-1.6l1.5.2q-.1.3-.2.6c0,.3-.2.5-.3.9h4.2c.7,0,1.1,0,1.5,0v1.4c-.4,0-.8,0-1.5,0h-4.7c-.3.7-.7,1.4-1.2,2h1.8c0-.7,0-1.1,0-1.5h1.4c0,.3,0,.7,0,1.4h0c0,0,2.3,0,2.3,0,.5,0,.8,0,1.1,0,0,.3,0,.6,0,1v3c0,.6-.2.9-.6,1.1-.3.1-.6.2-1.3.2s-.4,0-.7,0c0-.5-.1-.8-.4-1.3.5,0,.9.1,1.1.1.4,0,.6,0,.6-.4v-2.5h-2.1v3.7c0,.7,0,1.1,0,1.4h-1.5c0-.3,0-.8,0-1.4v-3.7h-1.9Z"/>
    <path d="M416.5,176.4c0-.4,0-.8,0-1.6v-7.6c0-.6,0-1,0-1.4.4,0,.8,0,1.4,0h7.5c.6,0,1,0,1.4,0,0,.5,0,.8,0,1.4v7.6c0,.7,0,1.2,0,1.6h-1.4v-.7h-7.6v.7h-1.4ZM417.9,174.6h7.6v-7.6h-7.6v7.6ZM419.7,170.4q0-.1-.2-.4c-.3-.6-.5-1-1-1.7l1-.5c.6.8.8,1.2,1.2,2.1l-1,.6c.9.4,1.1.5,2,.9.9-.9,1.7-2.1,2-3.1,0-.3.1-.3.2-.6l1.2.6c-.1.2-.2.3-.3.6-.6,1.2-1.2,2.2-2,3.1.7.4,1.5.9,2.2,1.4l-.8,1.2c-1-.7-1.4-1.1-2.4-1.6-.9.8-1.5,1.2-2.7,1.8-.3-.5-.5-.7-.9-1,1.1-.5,1.8-.8,2.5-1.4-.9-.5-1.3-.6-2.5-1.1l.7-1,.8.3ZM421.8,169.8c-.3-.9-.6-1.5-1-2.1l1-.5c.5.7.7,1.2,1,2.1l-1.1.5Z"/>
    <path d="M433.2,172.7c-.7,1.5-1.5,2.3-2.4,2.3s-2.4-1.4-2.4-3.3.5-2.6,1.3-3.5c1-1.1,2.4-1.7,4.1-1.7,2.9,0,4.7,1.8,4.7,4.5s-1.1,3.7-2.9,4.5c-.6.2-1,.4-1.9.5-.2-.6-.3-.9-.7-1.4,1.1-.1,1.8-.3,2.4-.7,1-.6,1.7-1.7,1.7-3s-.5-2.1-1.5-2.7c-.4-.2-.7-.3-1.2-.4-.2,1.9-.6,3.5-1.2,4.9ZM431.4,168.4c-1,.7-1.6,2-1.6,3.2s.4,1.8.9,1.8.8-.5,1.2-1.5c.5-1.1.9-2.7,1-4.1-.6,0-1.1.2-1.5.6Z"/>
    <path d="M442.5,175.2c0,.6,0,1,0,1.3h-1.4c0-.4,0-.8,0-1.3v-2.9c-.4.4-.7.6-1.3,1.1-.1-.5-.3-.9-.6-1.3.7-.4,1.2-.9,1.8-1.5.5-.6.9-1.2,1.3-2h-1.8c-.4,0-.6,0-1,0v-1.3c.3,0,.6,0,.9,0h.5v-1c0-.3,0-.6,0-.9h1.4c0,.3,0,.6,0,.9v1h.5c.3,0,.5,0,.6,0l.6.7c0,.2-.1.2-.3.6-.3.6-.6,1.3-1.1,2,.5.5.9.9,1.5,1.2-.2.4-.4.8-.5,1.3-.6-.5-.8-.7-1.2-1.2v3.4ZM445.5,172.4c-.4,0-.8,0-1.1,0,0-.3,0-.8,0-1.2v-4.3c0-.6,0-.9,0-1.2.3,0,.5,0,1.2,0h3.5c.6,0,.8,0,1.2,0,0,.3,0,.6,0,1.2v4.3c0,.6,0,.8,0,1.2-.3,0-.8,0-1.1,0h-.4v2.5c0,.2,0,.2.5.2s.5,0,.6-.3c0-.2,0-.7,0-1.4.4.2.6.3,1.1.5,0,1.2-.2,1.7-.4,2-.2.3-.6.3-1.5.3s-1.5-.1-1.5-.8v-3.1h-.6c0,.9-.2,1.4-.6,2.1-.5.9-1.2,1.5-2.4,2-.3-.5-.4-.7-.8-1.1.9-.3,1.7-.9,2.1-1.5.2-.4.4-.9.4-1.4h0ZM445.7,167.7h3.2v-.8h-3.2v.8ZM445.7,169.5h3.2v-.8h-3.2v.8ZM445.7,171.3h3.2v-.9h-3.2v.9Z"/>
    <path d="M454.9,173.8c-.5,0-.8,0-1.2,0,0-.3,0-.6,0-1.2v-2.8c0-.6,0-.9,0-1.2.4,0,.6,0,1.2,0h4.7c.6,0,.9,0,1.2,0,0,.4,0,.7,0,1.2v2.9c0,.6,0,.8,0,1-.3,0-.6,0-1,0h-.8v1.1c0,.3.1.4.9.4s1.3,0,1.4-.2c0-.2.1-.5.1-1.3.5.2.7.3,1.3.4,0,1.3-.2,1.8-.7,2-.3.2-.9.3-2.2.3-1.8,0-2.1-.1-2.1-.9v-1.7h-1.2c-.2.8-.7,1.5-1.5,1.9-.6.4-1.5.6-2.7.8-.2-.4-.3-.7-.6-1.2.9,0,1.7-.2,2.3-.4.6-.2.9-.6,1.1-1.1h-.2ZM454.1,167c-.3-.5-.5-.8-.9-1.3l1.2-.3c.5.7.8,1.2,1,1.6h1.3c-.2-.5-.4-.8-.8-1.4l1.3-.2c.3.6.6,1.2.8,1.7h1c.4-.6.6-1,.9-1.6l1.3.3c-.2.4-.6,1-.8,1.3h.8c.7,0,1,0,1.2,0,0,.4,0,.7,0,1.1v.9c0,.3,0,.5,0,.8h-1.2v-1.7h-7.9v1.7h-1.3c0-.3,0-.6,0-.9v-.9c0-.5,0-.7,0-1.1.4,0,.7,0,1.2,0h.8ZM455,170.1h4.5v-.5h-4.5v.5ZM455,171.4h4.5v-.5h-4.5v.5ZM455,172.8h4.5v-.5h-4.5v.5Z"/>
    <path d="M465.5,171.6c0-.4,0-.5,0-1.3-.3.4-.8,1.1-1.2,1.6-.2-.7-.3-.8-.6-1.4.8-.8,1.2-1.3,1.7-2.1.6-1.1,1.1-2.2,1.2-3l1.4.4c-.1.2-.2.4-.3.7-.3.8-.3.9-.9,2.1v6.4c0,.5,0,1,0,1.5h-1.5c0-.5,0-1,0-1.6v-3.3ZM470.3,174.5c0,.3.2.4,1.2.4s1.5,0,1.7-.3c.2-.3.3-.7.3-2.2.5.2.9.4,1.3.5,0,1.5-.3,2.3-.6,2.6-.4.5-1,.6-3,.6s-2.3-.2-2.3-1.3v-7.9c0-.6,0-1.1,0-1.4h1.5c0,.4,0,.8,0,1.4v2.7c1.4-.7,2.6-1.7,3.3-2.6l1,1.1c0,0-.1.1-.3.2-1.3,1.2-2.4,2-4.1,2.8v3.4Z"/>
    <path d="M486.1,169.3c0,.1-.1.3-.3.6-.6,1.4-1.2,2.5-2.1,3.5,1,.8,1.8,1.2,3.3,1.7-.3.4-.5.9-.6,1.4-1.3-.5-2.3-1.1-3.5-2.1-1.1,1-2.3,1.6-3.8,2.1-.2-.5-.5-.9-.7-1.2,1.4-.4,2.6-1,3.6-1.8-1.1-1.1-1.8-2.2-2.4-3.6-.2,1.6-.4,2.6-.9,3.7-.5,1.1-1.1,1.9-2,2.8-.3-.5-.6-.8-1-1.1.8-.7,1.3-1.3,1.7-2.2.7-1.4,1.1-3.4,1.1-6h-.8c-.5,0-.9,0-1.3,0v-1.4c.3,0,.9,0,1.5,0h4.9c.4,0,1,0,1.5,0q0,.2-.1.6c-.2.9-.3,1.3-.6,2.3h1.2c.5,0,.8,0,1,0l.6.6ZM479.7,167.2c.3,1.5.7,2.3,1.4,3.4.5.7,1,1.3,1.6,1.9.8-.9,1.2-1.5,1.7-2.7h-1.5q0,0-.2.5h-1.3c.5-1.4.7-2,1-3.2h-2.8,0Z"/>
    <path d="M488,166.6c.2,0,.3,0,.6,0,1.4,0,2.9-.2,3.4-.4l.8,1.3c-.6.4-1,.7-1.5,1.3-1,1.2-1.5,2.4-1.5,3.6s.8,2.2,2.1,2.2,1.8-.6,2.2-1.5c.3-.7.4-1.5.4-2.6s-.3-2.8-.6-3.6l1.4-.4c.5,1.7,1.9,3.6,3.2,4.4l-.7,1.4s0,0,0-.1c0,0,0,0-.2-.2-.8-.7-1.2-1.3-1.9-2.5.2.9.3,1.3.3,2.1,0,2.6-1.6,4.4-3.9,4.4s-1.5-.2-2.1-.6c-.9-.6-1.5-1.8-1.5-3.1s.3-2,.8-2.9c.3-.5.8-1.1,1.2-1.5t.2-.2s0,0,.1-.1c0,0-.2,0-.2,0h-.2q-.7.2-2,.3c-.2,0-.2,0-.3,0v-1.4ZM496.2,165.7c.5.6.9,1,1.3,1.8l-.8.4c-.4-.7-.7-1.2-1.3-1.8l.8-.4ZM498.1,167.1c-.4-.7-.8-1.2-1.2-1.7l.8-.4c.5.6.9,1,1.2,1.7l-.8.5Z"/>
    <path d="M508.8,167.4c-.1.2-.1.3-.2.5-.6,2.3-1.3,3.7-2.5,5-1.2,1.3-2.5,2.2-4.5,3.1-.3-.6-.5-.9-1.1-1.4,1.1-.3,1.7-.6,2.6-1.2,1.9-1.2,3-2.9,3.6-5.2h-5.7c-.8,0-1.1,0-1.5,0v-1.6c.5,0,.7,0,1.5,0h5.5c.7,0,.9,0,1.3-.1l.8.8Z"/>
    <path d="M515,170.1c0,.2,0,.3,0,.8,0,.2,0,.3,0,.4,1-.5,1.7-1,2.2-1.8,0,0,0,0,0,0,0,0,0,0,0,0h0c0,0-.2,0-.3,0h-4.8c-.6,0-.9,0-1.3,0v-1.4c.4,0,.7,0,1.3,0h5.1c.6,0,.7,0,1-.1l.7.8q-.1.2-.4.6c-.4.7-.9,1.4-1.5,1.9-.4.3-.7.6-1.3.9-.4-.5-.5-.6-.9-.9,0,1-.2,1.7-.5,2.3-.5,1.1-1.4,1.8-3,2.4-.3-.6-.4-.8-.9-1.2,1.3-.4,2.1-.9,2.6-1.8.3-.6.5-1.4.5-2.6s0-.3,0-.4h1.5Z"/>
    <path d="M530,166.7c-.2.2-.3.2-.4.4-.9.9-1.8,1.7-2.8,2.5v5.1c0,.7,0,1,0,1.3h-1.7c0-.3,0-.6,0-1.3v-4.2c-1.4.8-2.1,1.2-4.3,1.9-.3-.6-.4-.8-.8-1.4,2.4-.6,4.4-1.6,6.3-3.1,1.1-.8,1.9-1.7,2.2-2.2l1.4,1Z"/>
    <path d="M534.4,166.2q0,.3-.1,2.7c0,2.3-.3,3.7-1,4.9-.4.8-.9,1.4-1.7,2.2-.5-.6-.6-.8-1.2-1.2.6-.5.9-.8,1.2-1.4.9-1.4,1.1-2.9,1.1-6.3s0-.8,0-1.1h1.6ZM537.5,166c0,.3,0,.6,0,1.1v6.8c.8-.4,1.3-.8,1.8-1.4.6-.6.9-1.3,1.2-2.2.4.5.6.7,1.1,1.1-.5,1.2-1.1,2.1-1.9,2.8-.7.6-1.3.9-2.6,1.4-.3,0-.4.1-.5.2l-.8-.8c0-.3,0-.6.1-1.3v-6.8c0,0,0-.4,0-.4,0-.3,0-.6,0-.8h1.6Z"/>
    <path d="M547.2,172.7c-.7,1.5-1.5,2.3-2.4,2.3s-2.4-1.4-2.4-3.3.5-2.6,1.3-3.5c1-1.1,2.4-1.7,4.1-1.7,2.9,0,4.7,1.8,4.7,4.5s-1.1,3.7-2.9,4.5c-.6.2-1,.4-1.9.5-.2-.6-.3-.9-.7-1.4,1.1-.1,1.8-.3,2.4-.7,1-.6,1.7-1.7,1.7-3s-.5-2.1-1.5-2.7c-.4-.2-.7-.3-1.2-.4-.2,1.9-.6,3.5-1.2,4.9ZM545.4,168.4c-1,.7-1.6,2-1.6,3.2s.4,1.8.9,1.8.8-.5,1.2-1.5c.5-1.1.9-2.7,1-4.1-.6,0-1.1.2-1.5.6Z"/>
    <path d="M556.7,166c0-.2,0-.4,0-.6h1.3c0,.2,0,.4,0,.6h0c0,.1,2.7.1,2.7.1h0c0-.3,0-.5,0-.8h1.4c0,.2,0,.4,0,.6h0c0,.1,1.5.1,1.5.1.6,0,1,0,1.4,0v1.2c-.4,0-.7,0-1.4,0h-1.5c0,.2,0,.3,0,.5h-1.3c0-.2,0-.3,0-.5h-2.7c0,.2,0,.3,0,.5h-1.3c0-.2,0-.3,0-.5h-1.4c-.7,0-1,0-1.4,0v-1.2c.4,0,.8,0,1.4,0h1.4ZM561.9,169.6c-.5.5-1.4,1.1-1.8,1.4,1,0,1.7,0,2.2,0-.3-.2-.4-.3-.7-.6l.9-.6c1,.7,1.6,1.2,2.4,2.1l-.9.8c-.3-.4-.5-.6-.7-.8-2.7.2-4,.2-8.4.4-.3,0-.5,0-.7,0l-.2-1.2c.4,0,1.1,0,2.9,0s0,0,.6,0c-.4-.2-1.6-.7-2.2-1l.8-.8c.6.3.7.3,1.1.5.3-.2.4-.3.8-.7h-2.5c-.6,0-1,0-1.4,0v-1.2c.3,0,.8,0,1.4,0h3.1c0-.3,0-.4,0-.7h1.3c0,.2,0,.3,0,.7h3.3c.6,0,1.1,0,1.4,0v1.2c-.3,0-.8,0-1.4,0h-2.2l.9.5ZM555.1,173.4c0-.4,0-.8,0-1.1.3,0,.6,0,1.2,0h6.2c.6,0,.9,0,1.2,0,0,.3,0,.6,0,1.2v1.8c0,.4,0,.8,0,1.2h-1.3v-.5h-6.1v.5h-1.3c0-.4,0-.8,0-1.2v-1.8ZM556.3,173.7h2.4v-.5h-2.4v.5ZM556.3,175.1h2.4v-.5h-2.4v.5ZM559.4,169.1c-.4.4-.9.8-1.3,1.1.3.2.4.2.7.4.7-.5,1.4-1,1.8-1.5h-1.3ZM559.9,173.7h2.5v-.5h-2.5v.5ZM559.9,175.1h2.5v-.5h-2.5v.5Z"/>
    <path d="M569.6,169.5c-.2,0-.4,0-.7,0h-.2c.1.3.2.5.4.8.3.5.6.8,1,1.2-.2.3-.4.5-.6,1-.4-.4-.6-.7-.9-1.4q0,.4,0,1.4v2.6c0,.7,0,1.1,0,1.4h-1.4c0-.4,0-.8,0-1.4v-1.7c0-.6,0-1.2,0-1.8-.3.9-.7,1.7-1.2,2.4-.2-.4-.3-.7-.7-1.1.5-.6.9-1.2,1.2-2,.2-.5.4-1,.5-1.3h-.5c-.4,0-.6,0-.9,0v-1.3c.3,0,.5,0,.9,0h.6v-1.2c-.4,0-.5.1-1.1.2-.1-.4-.2-.6-.5-1.1,1.2-.1,2-.4,2.9-.7.2,0,.4-.2.5-.2l.7,1.1c0,0,0,0-.2,0-.3.1-.6.2-1,.4v1.5h.3c.4,0,.6,0,.8,0v.4c.3,0,.5,0,1,0h1.8v-.4h-1.3c-.5,0-.7,0-1,0v-.9c.3,0,.5,0,1,0h1.3v-.4h-1.5c-.5,0-.7,0-1.1,0v-1c.3,0,.7,0,1.1,0h1.4c0-.4,0-.5,0-.8h1.4c0,.2,0,.4,0,.8h1.6c.5,0,.8,0,1.2,0v1.1c-.4,0-.6,0-1.1,0h-1.7v.4h1.5c.5,0,.7,0,1,0v.9c-.3,0-.5,0-1,0h-1.5v.4h2c.5,0,.8,0,1.1,0v1.1c-.4,0-.6,0-1.1,0h-5c-.5,0-.8,0-1.1,0v-.2ZM571.2,174.6q-.8,0-1,0c0-.3,0-.6,0-1.1v-2.6c0-.6,0-.7,0-1,.3,0,.5,0,1,0h4c.6,0,.8,0,1,0,0,.3,0,.5,0,1.1v2.5c0,.6,0,.8,0,1.1-.3,0-.6,0-1,0h-.4c.8.4,1.5.6,2.4.8-.4.5-.5.7-.7,1.1-1.2-.3-1.9-.6-2.8-1.3l.5-.6h-2.2l.6.6c-.9.7-1.5,1-2.8,1.3-.3-.6-.4-.7-.6-1.1,1-.2,1.6-.4,2.4-.8h-.3ZM571.4,171.4h3.5v-.4h-3.5v.4ZM571.4,172.5h3.5v-.4h-3.5v.4ZM571.4,173.7h3.5v-.4h-3.5v.4Z"/>
  </g>
</svg>