<?xml version="1.0" encoding="UTF-8"?>
<svg id="Layer_1" xmlns="http://www.w3.org/2000/svg" version="1.1" viewBox="0 0 618.7 265.3">
  <!-- Generator: Adobe Illustrator 29.2.1, SVG Export Plug-In . SVG Version: 2.1.0 Build 116)  -->
  <defs>
    <style>
      .st0 {
        fill: #7ec01b;
      }

      .st1 {
        stroke: #0481ae;
      }

      .st1, .st2, .st3, .st4 {
        fill: none;
      }

      .st2 {
        stroke: #000;
      }

      .st2, .st4 {
        stroke-width: .5px;
      }

      .st5 {
        fill: #0481ae;
      }

      .st3 {
        stroke: #7ec01b;
        stroke-dasharray: 12 6;
        stroke-width: 2px;
      }

      .st4 {
        stroke: gray;
        stroke-dasharray: 6 4;
      }
    </style>
  </defs>
  <path class="st3" d="M93.8,230S186.8,63.5,344.8,63.5h85"/>
  <path class="st3" d="M93.8,230s169-15,221-47c52-32,115-110,115-110"/>
  <polyline class="st2" points="88.8 50 93.8 40 93.8 230 473.8 230 463.8 235"/>
  <path d="M70.5,68c-.7,0-1.2,0-1.6,0v-1.4c.4,0,.9,0,1.7,0h2.2c.2-.6.4-1,.4-1.4l1.6.2c0,.2,0,.2-.2.5,0,.1-.2.4-.3.8h4.6c.8,0,1.3,0,1.6,0v1.4c-.4,0-1.1,0-1.6,0h-5.3c-.5,1.1-1.1,2-1.8,2.9v5.2c0,.6,0,.9,0,1.4h-1.6c0-.4,0-.7,0-1.4v-3.6c-.4.3-.6.5-1.2,1-.2-.5-.4-.9-.8-1.3.8-.6,1.4-1.1,1.9-1.7,0-.4,0-.5,0-.8h.7c.4-.6.7-1,1-1.6h-1.7ZM76.1,72c0-.2,0-.4,0-.6h.5c.5-.3.8-.5,1.3-1h-3.3c-.5,0-.8,0-1.2,0v-1.4c.3,0,.6,0,1.2,0h3.7c.5,0,.8,0,1.1,0l.8.8q-.1.1-.4.4c-.7.7-1.3,1.2-2.3,1.9v.2h1.8c.6,0,1.1,0,1.5,0v1.4c-.4,0-.9,0-1.5,0h-1.7v2.4c0,1-.4,1.3-1.7,1.3s-.8,0-1.2,0c-.1-.7-.2-.9-.4-1.4.6,0,1,.1,1.4.1s.5,0,.5-.3v-2.1h-2.1c-.6,0-1.1,0-1.5,0v-1.4c.4,0,.8,0,1.5,0h2.1v-.4Z"/>
  <path d="M79.1,80.1c.7,0,1.2,0,1.6,0v1.5c-.4,0-.9,0-1.6,0h-5.4c-.5,1.1-1,1.8-1.7,2.7v4.8c0,.7,0,1.1,0,1.5h-1.6c0-.4,0-.8,0-1.5v-3.2c-.5.5-.6.6-1,.9-.3-.5-.5-.9-1-1.3.8-.6,1.4-1.1,2-1.7q0-.5,0-.7h.7c.4-.5.6-.9.9-1.4h-1.6c-.6,0-1.2,0-1.6,0v-1.5c.4,0,.9,0,1.6,0h2.2c.3-.7.5-1.3.5-1.7l1.6.3c0,.1,0,.2-.2.5-.1.3-.2.6-.3.9h4.7ZM78.7,84.3c.7,0,1,0,1.4,0v1.5c-.4,0-.8,0-1.4,0h-1.6v3.1h2.1c.7,0,1.1,0,1.4,0v1.5c-.5,0-.9,0-1.5,0h-5.2c-.6,0-1,0-1.5,0v-1.5c.4,0,.8,0,1.4,0h1.7v-3.1h-1.4c-.6,0-1,0-1.4,0v-1.5c.4,0,.7,0,1.4,0h1.4v-.8c0-.7,0-1,0-1.4h1.6c0,.3,0,.6,0,1.4v.8h1.6Z"/>
  <path d="M76.6,96.6c0,0,0,.2,0,.3.3.6.4,1.1.4,1.8,0,1.4-.7,2.6-1.9,3.5-.5.4-1.1.6-2.4,1.1-.4-.8-.5-1-.9-1.5,1.1-.2,1.6-.4,2.2-.8.9-.5,1.4-1.2,1.5-1.9-.4.6-1.1.9-1.9.9s-1.1-.1-1.5-.5c-.6-.4-.9-1-.9-1.8,0-1.4,1.1-2.4,2.6-2.4s1.1.1,1.4.4q0,0,0-.2s0-.8,0-1.1c-1.9,0-3.1,0-3.7.1q-2,.1-2.3.2v-1.5c.2,0,.4,0,.6,0s.5,0,2.2,0c.8,0,1,0,2,0q.4,0,1.1,0t0-1.6h1.6c0,.4,0,.4,0,1.5,2.3,0,3.3,0,3.8,0v1.5c-.5,0-1.1,0-2.2,0s-.5,0-1.6,0v2ZM74,96.8c-.7,0-1.2.5-1.2,1s.5,1,1.1,1,1.3-.5,1.3-1.2-.5-.9-1.2-.9Z"/>
  <path d="M73.4,110c1.2-.5,1.8-.6,2.7-.6,2.2,0,3.7,1.1,3.7,2.9s-.6,2.2-1.8,2.9c-.8.5-1.9.7-3.1.7s-2-.2-2.5-.6c-.5-.4-.8-.9-.8-1.5,0-1.1.9-1.9,2.2-1.9s1.7.4,2.2,1.1c.3.3.4.6.6,1.2,1.1-.4,1.5-1,1.5-1.9s-1-1.7-2.6-1.7-3.8.8-5.4,2.2l-.9-1.4c.5-.2,1-.6,1.8-1.2,1.2-.9,2.9-2.4,3.9-3.4,0,0,.2-.2.2-.2h0c-.5,0-1.3.1-3.7.2-.3,0-.4,0-.6,0v-1.6c.4,0,.8,0,1.5,0,1.1,0,2.7,0,4-.2.5,0,.6,0,.8-.2l.8,1.1c-.2.1-.3.2-.7.5-.6.6-1.6,1.4-2,1.8-.2.2-1.2.9-1.4,1.1q-.3.2-.5.3h0ZM73.8,113.3c-.5,0-.8.2-.8.6,0,.5.6.8,1.5.8s.3,0,.7,0c-.2-.9-.7-1.4-1.5-1.4Z"/>
  <path d="M73.6,119c0,.1,0,.2,0,.3v.2s0,.4,0,.4v.3c-.6,3.7-1.6,6.3-3.3,8.3-.6-.6-.9-.8-1.5-1.1.8-.8,1.3-1.6,1.9-2.8.6-1.2,1-2.8,1.2-4.5,0-.5.1-1,.1-1.3v-.2l1.8.3ZM77.3,118.7c0,.6.2,1.9.5,3,.6,2.4,1.5,4.2,2.9,5.6-.7.4-.9.6-1.4,1.2-1.7-2.1-2.9-5.1-3.4-8.6,0-.5-.1-.7-.2-.9l1.6-.3ZM81,119.4c0,.8-.7,1.5-1.5,1.5s-1.5-.7-1.5-1.5.7-1.5,1.5-1.5,1.5.7,1.5,1.5ZM78.7,119.4c0,.5.4.9.8.9s.9-.4.9-.9-.4-.8-.9-.8-.8.4-.8.8Z"/>
  <path d="M71.7,133.9c.5,1,.8,1.6,1.3,3.1l-1.5.5c-.3-1.3-.6-2-1.2-3.1l1.4-.4ZM79.2,134c0,.2-.1.3-.2.7-.4,1.8-1,3.2-1.8,4.3-1,1.3-2,2.2-4,3.1-.3-.6-.5-.8-1-1.3.9-.4,1.4-.6,2.2-1.2,1.5-1.1,2.4-2.4,3-4.5.2-.6.2-1.1.2-1.5l1.6.4ZM74.5,133.4c.7,1.3.9,1.9,1.3,3l-1.4.5c-.2-1-.6-2-1.2-3.1l1.4-.4Z"/>
  <path d="M79.2,145.2q-.2,0-1.1.4c-.7.2-1.2.3-2.2.5q0,1.8,0,2.2h2.8c.9,0,1.1,0,1.6,0v1.6c-.5,0-.7,0-1.6,0h-2.9c-.1,1.2-.4,2.1-.9,2.8s-1.2,1.5-2.1,2.1c-.4.2-.6.4-1.2.6-.4-.7-.6-.9-1.1-1.4.9-.3,1.4-.6,2-1.1.8-.6,1.3-1.4,1.5-2.2,0-.2,0-.4.1-.9h-3.2c-.8,0-1.1,0-1.6,0v-1.6c.5,0,.7,0,1.6,0h3.3c0-.5,0-1.1,0-2-1.1.2-1.5.2-3.6.3-.1-.6-.2-.8-.5-1.4.4,0,.6,0,.8,0,1.7,0,4-.3,5.6-.8.8-.2,1.1-.4,1.6-.6l1,1.3Z"/>
  <path d="M74.4,164.4c-.7,1.7-1.6,2.4-2.6,2.4s-2.5-1.5-2.5-3.6.5-2.8,1.4-3.8c1.1-1.2,2.6-1.8,4.5-1.8,3.1,0,5.1,1.9,5.1,4.8s-1.2,4-3.2,4.8c-.6.3-1.1.4-2,.5-.2-.7-.4-1-.8-1.5,1.2-.2,2-.4,2.6-.7,1.1-.6,1.8-1.9,1.8-3.3s-.6-2.3-1.6-2.9c-.4-.2-.7-.3-1.3-.4-.2,2-.7,3.8-1.4,5.3ZM72.5,159.7c-1.1.8-1.8,2.1-1.8,3.5s.5,1.9,1,1.9.9-.5,1.3-1.7c.5-1.2.9-2.9,1.1-4.4-.7,0-1.1.3-1.7.6Z"/>
  <path d="M70.9,173.5c-.5,0-.8,0-1.2,0v-.6h-.8c0-.3,0-.5,0-.9v-.7c0-.4,0-.7,0-.9.4,0,.7,0,1.3,0h1.6c0-.5,0-.7,0-1h1.5c0,.3,0,.5,0,.9h0c0,0,1.3,0,1.3,0,.7,0,1,0,1.4,0,0,.3,0,.5,0,.9v.6c0,.4,0,.6,0,.9h-.7v.6c-.4,0-.6,0-1.1,0h-1v.6h1.2c.5,0,.7,0,1,0v1.1c-.3,0-.5,0-1,0h-1.2v.6h1.7c.5,0,.8,0,1.1,0v1.3c-.3,0-.6,0-1.1,0h-4.9c-.5,0-.8,0-1.2,0v-1.3c.3,0,.6,0,1.2,0h1.9v-.6h-1.3c-.5,0-.7,0-1.1,0v-1.1c.3,0,.6,0,1.1,0h1.3v-.6h-1ZM74.4,177.4c.4,0,.7,0,1,0,0,.3,0,.6,0,1.1v1.6c0,.6,0,.8,0,1.2h-1.4v-.4h-2.9v.5h-1.4c0-.4,0-.7,0-1.2v-1.7c0-.5,0-.8,0-1.2.3,0,.6,0,1.1,0h3.6ZM72,172.4c0-.3,0-.4,0-.6h1.4c0,.2,0,.3,0,.6h1c.3,0,.4,0,.6,0v-.8h-4.6v.8c.2,0,.4,0,.7,0h1ZM71.1,179.8h2.9v-1.3h-2.9v1.3ZM78,170.4c0,.3,0,.7,0,1.4v5.3c0,.8,0,1,0,1.4h-1.5c0-.4,0-.6,0-1.4v-5.2c0-.7,0-1,0-1.4h1.5ZM80.4,169.6c0,.4,0,.8,0,1.6v8.7c0,1.2-.4,1.5-2,1.5s-.5,0-1.2,0c0-.6-.2-.9-.4-1.4.8,0,1.2.1,1.5.1.6,0,.7,0,.7-.4v-8.5c0-.8,0-1.2,0-1.6h1.5Z"/>
  <path d="M71.4,186.8c-.8.5-1.2.7-2.1,1.1-.2-.5-.4-.8-.8-1.3,1.2-.5,2.3-1.1,3.3-1.9.9-.7,1.5-1.4,2-2.2h1.5c.6.8,1.1,1.4,2.2,2.2,1,.8,2,1.3,3.3,1.8-.3.5-.5.8-.7,1.4-.9-.4-1.3-.6-2.1-1.1v.9c-.3,0-.7,0-1.2,0h-4.4c-.4,0-.8,0-1.1,0v-.9ZM70.4,194.4c0-.4,0-.8,0-1.4v-3c0-.5,0-.9,0-1.3.3,0,.6,0,1.1,0h6.5c.5,0,.8,0,1.1,0,0,.4,0,.7,0,1.3v3c0,.6,0,1,0,1.4h-1.5v-.7h-5.7v.7h-1.5ZM71.9,192.5h5.7v-2.4h-5.7v2.4ZM77,186.3h.4c-1.1-.8-1.9-1.5-2.7-2.5-.8,1.1-1.4,1.7-2.5,2.5h4.8Z"/>
  <g>
    <path d="M264.8,250.2c0-.6,0-.9,0-1.3.3,0,.5,0,1.1,0h1.6c.6,0,.8,0,1.1,0,0,.3,0,.5,0,1.3v7.4c0,.7,0,1,0,1.3h-1.3v-.7h-1.2v1.1h-1.4c0-.4,0-.9,0-1.5v-7.6ZM266.1,252.9h1.2v-2.7h-1.2v2.7ZM266.1,257h1.2v-2.9h-1.2v2.9ZM270.6,250.8q-1.1,0-1.4,0v-1.4c.4,0,.8,0,1.4,0h1.1v-.4c0-.4,0-.6,0-1h1.5c0,.3,0,.6,0,1v.4h1.4c.6,0,1,0,1.4,0v1.4c-.4,0-.8,0-1.3,0h-1.4v1.2h1.8c.6,0,1.1,0,1.4,0v1.4c-.4,0-.7,0-1.3,0h-.2v1.1h.2c.6,0,1,0,1.3,0v1.4c-.4,0-.7,0-1.3,0h-.2v2.9c0,.8-.1,1.1-.5,1.2-.3.1-.8.2-1.4.2s-.1,0-1,0c0-.6-.1-.9-.3-1.4.3,0,1,.1,1.5.1s.5,0,.5-.4v-2.8h-3.1c-.5,0-1,0-1.4,0v-1.4c.3,0,.7,0,1.4,0h3.1v-1.1h-3.1c-.5,0-1,0-1.4,0v-1.4c.3,0,.8,0,1.4,0h1.3v-1.2h-1.1ZM271.1,258.7c-.5-.9-1-1.5-1.7-2.1l1.1-.7c.6.6,1.2,1.2,1.7,2l-1.1.9Z"/>
    <path d="M279.2,258.5c0,.8,0,1.2,0,1.6h-1.5c0-.4,0-.8,0-1.6v-8.5c0-.7,0-1,0-1.5.4,0,.7,0,1.3,0h2.3c.7,0,1,0,1.3,0,0,.4,0,.7,0,1.2v2c0,.6,0,.9,0,1.2-.3,0-.7,0-1.2,0h-2.4v5.6ZM279.2,250.3h2.2v-.7h-2.2v.7ZM279.2,251.9h2.2v-.7h-2.2v.7ZM285.9,257.5c0,.5,0,.8,0,1.1.3,0,.8,0,1,0,.4,0,.5,0,.5-.4v-5.4h-2.6c-.5,0-.9,0-1.2,0,0-.4,0-.6,0-1.2v-2c0-.4,0-.8,0-1.2.4,0,.7,0,1.3,0h2.5c.7,0,1,0,1.3,0,0,.5,0,.8,0,1.4v8.5c0,.8-.2,1.1-.6,1.3-.3.1-.7.2-1.5.2s-.2,0-.9,0c0-.6-.1-.8-.3-1.3-.4,0-.6,0-.7,0h-2.8v.7h-1.4c0-.3,0-.8,0-1.3v-3.2c0-.5,0-.8,0-1.2.4,0,.7,0,1.2,0h2.9c.5,0,.8,0,1.2,0,0,.3,0,.7,0,1.2v2.6ZM281.9,255.6h2.7v-.8h-2.7v.8ZM281.9,257.5h2.7v-.8h-2.7v.8ZM284.9,250.3h2.4v-.7h-2.4v.7ZM284.9,251.9h2.4v-.7h-2.4v.7Z"/>
  </g>
  <g>
    <path d="M437.8,244.9c-.8,0-.9,0-1.3,0,.1-.9.2-1.1.3-1.6.3-.8.8-1.4,1.6-2.1.4-.4.4-.4,1.8-1.3,1.2-.8,1.6-1.3,1.6-2.1s-.8-1.5-2-1.5-1.4.3-1.7.8c-.2.3-.3.6-.4,1.2l-1-.2c.2-.9.4-1.3.8-1.7.5-.6,1.4-.9,2.4-.9,1.8,0,3,.9,3,2.3s-.2,1.2-.7,1.7c-.4.4-.7.6-2,1.5-.9.6-1.3,1-1.7,1.5-.4.5-.5.8-.7,1.4h3.8c.6,0,1,0,1.5,0v1c-.5,0-.9,0-1.5,0h-3.6Z"/>
    <path d="M445.4,244.2c-.3-.3-.6-.7-.7-1.1-.3-.8-.5-1.8-.5-2.8s.3-2.6.7-3.3c.6-1,1.5-1.5,2.7-1.5s1.7.3,2.2.9c.3.3.6.7.7,1.1.3.8.5,1.8.5,2.8,0,1.5-.3,2.7-.8,3.5-.6.8-1.4,1.3-2.5,1.3s-1.6-.3-2.2-.9ZM446.1,237.1c-.3.3-.4.6-.5.9-.3.7-.4,1.5-.4,2.4s.2,2.3.6,2.9c.4.7,1,1,1.9,1s1.1-.2,1.5-.6c.3-.3.5-.6.6-.9.3-.7.4-1.5.4-2.4s-.2-2.2-.5-2.8c-.4-.7-1-1.1-1.9-1.1s-1.1.2-1.5.6Z"/>
  </g>
  <path d="M90.5,244.2c-.3-.3-.6-.7-.7-1.1-.3-.8-.5-1.8-.5-2.8s.3-2.6.7-3.3c.6-1,1.5-1.5,2.7-1.5s1.7.3,2.2.9c.3.3.6.7.7,1.1.3.8.5,1.8.5,2.8,0,1.5-.3,2.7-.8,3.5-.6.8-1.4,1.3-2.5,1.3s-1.6-.3-2.2-.9ZM91.2,237.1c-.3.3-.4.6-.5.9-.3.7-.4,1.5-.4,2.4s.2,2.3.6,2.9c.4.7,1,1,1.9,1s1.1-.2,1.5-.6c.3-.3.5-.6.6-.9.3-.7.4-1.5.4-2.4s-.2-2.2-.5-2.8c-.4-.7-1-1.1-1.9-1.1s-1.1.2-1.5.6Z"/>
  <line class="st4" x1="443.8" y1="45" x2="443.8" y2="230"/>
  <circle class="st0" cx="443.8" cy="60" r="4"/>
  <circle class="st0" cx="443.8" cy="215" r="4"/>
  <circle class="st0" cx="443.8" cy="120" r="4"/>
  <g>
    <path class="st5" d="M209.5,10.6c.4,0,.7,0,1.3,0h1.2c.5,0,.8,0,1.2,0,0,.5,0,.8,0,1.7v3.4c.3.5.5.7.8.9.7.5,1.5.6,3.3.6,3.4,0,5.5,0,7.2-.4-.3.8-.4,1-.5,1.9-1.4,0-3.4,0-5.1,0-2.8,0-3.9,0-4.7-.3-.8-.3-1.4-.7-2-1.5-.7.6-1,.9-1.8,1.5-.3.2-.4.3-.5.4l-.8-1.8c.5-.2,1.5-.9,2.3-1.6v-3.5h-.9c-.4,0-.7,0-1.1,0v-1.7ZM210.8,4.7c1.2,1.1,1.9,1.8,2.7,2.8l-1.4,1.3c-.8-1.1-1.5-1.8-2.6-2.9l1.3-1.2ZM216.8,9.6c-.6,0-.8,0-1.2,0v-.9c-.5.3-.8.5-1.6.9-.3-.7-.5-.9-.9-1.5,1.3-.5,2-1,3-1.8.8-.7,1.2-1.1,1.7-1.8h1.7c.7.8,1.2,1.3,2.1,2,.9.6,1.6,1,2.8,1.5-.4.5-.6,1-.8,1.7-.9-.4-1.2-.6-1.8-1v1c-.4,0-.6,0-1.3,0h-.9v1.2h2.8c.6,0,1,0,1.5,0v1.6c-.5,0-.8,0-1.5,0h-2.8v3c0,1.2-.5,1.5-2,1.5s-.4,0-1.1,0c-.1-.6-.3-1-.5-1.6.6,0,1.1.1,1.5.1s.5,0,.5-.3v-2.8h-2.9c-.6,0-.9,0-1.3,0v-1.6c.4,0,.7,0,1.3,0h2.8v-1.2h-1.1ZM216.9,13.3c-.7,1.2-1.3,2-2.5,3-.4-.6-.6-.8-1.2-1.2,1.2-.9,1.6-1.4,2.3-2.5l1.4.7ZM220.4,8.2h.5c-1-.7-1.6-1.2-2.4-2.1-.8.9-1.3,1.4-2.2,2.1h4.1ZM221.7,12.6c.9,1.3,1.3,1.7,2.5,2.6-.6.4-.8.6-1.3,1.2-1.2-1.1-1.8-1.8-2.5-3.1l1.4-.7Z"/>
    <path class="st5" d="M231.8,6.2c0-.8,0-1.2,0-1.7h2c0,.5,0,.9,0,1.7v1h4.4c.7,0,1,0,1.5,0,0,.4,0,.8,0,1.4v4.9c0,.7,0,1.1,0,1.6h-1.9v-1h-4v3.2c0,1,0,1.4.1,2h-2c0-.6.1-1.1.1-2v-3.2h-3.8v1h-1.9c0-.5,0-.9,0-1.6v-4.9c0-.6,0-.9,0-1.4.5,0,.8,0,1.4,0h4.2v-1ZM228,8.9v3.5h3.8v-3.5h-3.8ZM237.6,12.4v-3.5h-4v3.5h4Z"/>
    <path class="st5" d="M241.5,11.3c.3,0,.4,0,.8,0s.4,0,.6,0c.3-.3.4-.6.8-1-.7-.9-1.4-1.8-2.2-2.5l.8-1.4.6.6c.6-1,1.1-2.1,1.2-2.7l1.6.7q-.1.2-.6,1.1c-.4.7-.8,1.4-1.2,2.1.3.4.4.4.6.7,1-1.6,1.2-2,1.5-2.8l1.4.8q-.2.2-1,1.5c-.5.8-1.4,2.1-2,2.8.8,0,1.2,0,1.7-.1-.2-.5-.2-.7-.5-1.3l1.1-.5c.7,1.5.9,2.1,1.3,3.3l-1.2.6c0-.4-.1-.6-.2-.8-.5,0-.7,0-1.1.1v5.1c0,.8,0,1.2,0,1.7h-1.8c0-.5,0-.9,0-1.7v-4.9q-.8,0-1.3,0c-.7,0-.8,0-1,.1l-.2-1.7ZM243.5,13.7c0,2.2-.2,3.1-.6,4.8l-1.5-.6c.4-1.4.6-2.4.6-4.5l1.4.3ZM247.3,13.4c.2.9.3,1.5.5,3.4l-1.4.4c0-1.4,0-2.1-.3-3.5l1.2-.3ZM253.9,13.4c.7,0,1.1,0,1.5,0v1.7c-.5,0-.9,0-1.6,0h-1.4v2.2h2c.8,0,1.3,0,1.7,0v1.7c-.5,0-1,0-1.8,0h-5.2c-.7,0-1.2,0-1.8,0v-1.7c.4,0,.8,0,1.5,0h1.9v-2.2h-1.1c-.6,0-1.1,0-1.6,0v-1.7c.4,0,.8,0,1.6,0h1.1v-.3c0-.8,0-1.2,0-1.5h1.8c0,.4,0,.8,0,1.5v.3h1.5ZM255.6,6c-.6.8-1.1,1.7-1.3,1.9-.4.5-.8,1-1.4,1.6,1.1.6,2,.9,3.4,1.2-.4.6-.5,1-.8,1.7-1.7-.5-2.9-1.1-4-1.8-1,.7-1.7,1.1-3,1.6-.3-.6-.5-.9-1-1.5,1.1-.3,1.9-.7,2.7-1.2-.9-.9-1.5-1.7-2-2.8-.4,0-.6,0-.9,0v-1.7c.4,0,.9,0,1.8,0h4.2c.6,0,.9,0,1.2,0l1,1ZM250,6.7c.4.8.8,1.2,1.6,1.8.8-.7,1.1-1.1,1.6-1.8h-3.2Z"/>
    <path class="st5" d="M257.4,10.6c.4,0,.7,0,1.3,0h1.1c.6,0,.8,0,1.2,0,0,.5,0,.7,0,1.7v3.5c.3.4.4.6.7.8.3.2.7.4,1.1.5.7.2,1.6.2,2.6.2,3.3,0,5.2,0,7.1-.3-.3.7-.4,1-.5,1.8-1.5,0-3.8,0-6,0s-3.4-.1-4.3-.5c-.6-.3-1-.7-1.5-1.2-.6.6-1.5,1.3-2.3,1.9l-.8-1.8c.6-.3,1.3-.7,2.2-1.6v-3.4h-.8c-.4,0-.7,0-1.1,0v-1.7ZM258.8,4.7c1.3,1.1,1.7,1.6,2.7,2.9l-1.3,1.3c-1-1.4-1.4-1.9-2.7-3l1.3-1.2ZM270.7,9.7c.5,0,.8,0,1,0,0,.4,0,.8,0,1.4v4.5c0,.6-.1.9-.5,1.1-.3.2-.7.2-1.6.2h-1c0-.6-.2-1-.4-1.5.6,0,1.1.1,1.4.1.5,0,.6,0,.6-.3v-4.1h-6.4v4.2c0,.7,0,1,0,1.4h-1.8c0-.4,0-.7,0-1.4v-4.4c0-.6,0-.8,0-1.3.3,0,.5,0,1.1,0v-3.3c0-.6,0-1,0-1.5.5,0,.9,0,1.5,0h4.7c.9,0,1.1,0,1.5,0,0,.4,0,.7,0,1.5v3.3h0ZM269.1,14.2c0,.5,0,.7,0,.9-.4,0-.6,0-1,0h-2.2v.5h-1.5c0-.3,0-.5,0-.9v-2.1c0-.3,0-.5,0-.9.2,0,.4,0,1,0h2.7c.6,0,.7,0,1,0,0,.4,0,.5,0,.9v1.6ZM265.8,8.4c0-.7,0-.8,0-1.2.3,0,.8,0,1.3,0h2v-.8h-4.4v3.2h1.2v-1.3ZM265.9,13.8h1.7v-.9h-1.7v.9ZM269,9.7v-1.2h-1.6v1.2h1.6Z"/>
    <path class="st5" d="M280.4,14.3c-.9,2.1-1.9,3-3.2,3s-3.1-1.9-3.1-4.4.6-3.4,1.8-4.7c1.3-1.5,3.2-2.2,5.5-2.2,3.8,0,6.3,2.3,6.3,5.9s-1.4,5-3.9,6c-.8.3-1.4.5-2.5.7-.3-.8-.5-1.2-1-1.9,1.5-.2,2.4-.4,3.2-.9,1.4-.8,2.2-2.3,2.2-4s-.7-2.8-2-3.6c-.5-.3-.9-.4-1.6-.5-.3,2.5-.9,4.7-1.7,6.5ZM278,8.5c-1.3,1-2.2,2.6-2.2,4.3s.6,2.4,1.3,2.4,1.1-.7,1.6-2c.6-1.4,1.1-3.6,1.3-5.4-.8,0-1.4.3-2.1.8Z"/>
    <path class="st5" d="M292.4,17.4c0,.8,0,1.3,0,1.9h-1.8c0-.6,0-1.1,0-1.9v-4.5c0-.7,0-1.3,0-1.9-.4.8-.6,1.1-1.1,1.7-.2-.8-.4-1.2-.8-1.9.8-.9,1.3-1.8,1.9-3.2.5-1.2.8-2.2,1-3.2l1.7.5c0,.2-.2.6-.3.9-.3.9-.5,1.5-.9,2.5v9.1ZM297.2,9.6c-.9.7-1.5,1.2-2.4,1.7v3.2c0,.4,0,.5.3.5s.4,0,.4-.4c0-.4.1-1.1.1-2.1.5.4.8.6,1.2.8-.1,2.8-.4,3.3-1.8,3.3s-1.7-.2-1.7-1.4v-7.3c0-.9,0-1.1,0-1.5h1.6c0,.4,0,.8,0,1.5v1.8c.8-.6,1.1-.9,1.6-1.5l.8,1.2c0-.7,0-1.2,0-1.6.4,0,.6,0,1.4,0h.5c.2-.5.4-.8.5-1.2h-1.6c-.8,0-1.2,0-1.7,0v-1.7c.5,0,1,0,1.8,0h4.4c.8,0,1.4,0,1.8,0v1.7c-.5,0-.9,0-1.7,0h-1.3c-.1.4-.3.8-.5,1.2h1.3c.8,0,1.2,0,1.6,0,0,.5,0,.8,0,1.4v5.4c0,.5,0,1.1,0,1.6-.4,0-.9,0-1.4,0h-.4c.9.9,1.6,1.3,2.8,1.8-.4.5-.7,1-1,1.5-1.4-.8-2.2-1.4-3.2-2.5l1.2-.8h-3.2l1.2.9c-1.1,1.1-1.8,1.7-3.5,2.5-.3-.5-.7-1-1.1-1.4,1.7-.6,2.3-1,3.2-2-.5,0-.8,0-1.2,0,0-.5,0-1,0-1.5v-5ZM298.8,10.1h3.1v-1h-3.1v1ZM298.8,12.4h3.1v-1h-3.1v1ZM298.8,14.7h3.1v-1h-3.1v1Z"/>
    <path class="st5" d="M310.7,6.7c.4-.7.8-1.7.9-2.3l2,.2c0,.2-.2.5-.4.8-.2.6-.4.9-.6,1.3h5.2c.7,0,1.1,0,1.6,0,0,.5,0,1,0,1.6v9.1c0,.8-.2,1.2-.7,1.4-.3.2-.9.2-1.8.2s-.7,0-1.7,0c0-.7-.1-1-.4-1.7.7,0,1.5.1,2.1.1s.7,0,.7-.4v-8.5h-9.6v8.9c0,.9,0,1.3.1,1.8h-2c0-.5,0-.9,0-1.8v-9c0-.6,0-1,0-1.6.5,0,.8,0,1.5,0h3ZM315.9,14.2c0,.6,0,.9,0,1.3-.4,0-.9,0-1.3,0h-3.4v1.1h-1.8c0-.5,0-.9,0-1.3v-4.3c0-.4,0-.8,0-1.2.4,0,.7,0,1.1,0h4.2c.5,0,.8,0,1.2,0,0,.4,0,.7,0,1.2v3.2ZM311.2,13.9h3v-2.5h-3v2.5Z"/>
  </g>
  <g>
    <path class="st5" d="M438.7,16.9q-.9.2-2,.3c-.8.1-1.1.2-1.4.2l-.2-1c0,0,.1,0,.2,0,.2,0,.4,0,.9,0v-3.1c-.4,0-.7,0-1,0v-1c.3,0,.5,0,1,0h7.1c.5,0,.8,0,1,0v1c-.3,0-.6,0-1,0h-3.5v3.7c.5-.2,1-.4,1.3-.7-.4-.4-.5-.7-.9-1.3l.8-.4h-.3c-.3,0-.5,0-.7,0v-.9c.2,0,.4,0,.8,0h1.7c.3,0,.6,0,.7,0l.5.6c0,.1,0,.1-.2.3-.3.7-.7,1.3-1.1,1.7.5.3,1,.5,1.8.7-.2.3-.4.6-.5,1-1.1-.4-1.3-.6-2-1-.5.4-.9.7-1.5,1-.1-.3-.3-.6-.5-.8,0,.4,0,.7,0,1h-1.1c0-.2,0-.5,0-1h0ZM443.2,11.2c0,.4,0,.6,0,.9-.2,0-.6,0-.9,0h-5.1c-.5,0-.7,0-1,0,0-.2,0-.5,0-.9v-1.3c0-.4,0-.6,0-.9.3,0,.6,0,1.1,0h4.9c.5,0,.7,0,1.1,0,0,.2,0,.5,0,.9v1.3ZM438.7,13.2h-1.7v.4h1.7v-.4ZM438.7,14.4h-1.7v.5h1.7v-.5ZM438.7,15.6h-1.7v.6c.5,0,.7,0,1.7-.2v-.4ZM437.2,10.2h4.9v-.4h-4.9v.4ZM437.2,11.3h4.9v-.4h-4.9v.4ZM441.1,14.5c.3.5.4.7.7,1,.3-.3.5-.6.7-1h-1.4Z"/>
    <path class="st5" d="M446.1,13.7c-.2.2-.4.4-.7.7-.2-.5-.2-.7-.5-1.1.6-.4,1.2-1,1.7-1.6.3-.4.5-.7.6-1l.9.6c0,.1-.2.3-.3.4,0,0,0,0-.1.2-.2.3-.4.6-.5.7v4c0,.6,0,.8,0,1.2h-1.2c0-.3,0-.6,0-1.1v-3.1ZM447.9,9.2c-.4.5-.4.5-.6.8-.5.5-1.1,1-1.7,1.5-.2-.4-.3-.6-.6-.9,1-.5,1.6-1.2,2-2l.9.6ZM451.1,9.1q0,.1-.3.3c-.2.3-.7.9-1.1,1.3.3.2.4.3.6.5.8-.9,1.3-1.5,1.5-1.9l1,.5c0,0-.1.2-.4.4-.5.6-1.3,1.4-2,2q.8,0,1.9-.1c-.2-.2-.2-.3-.5-.7l.8-.5c.6.7,1,1.3,1.5,2.2l-.9.6c-.2-.4-.3-.5-.4-.8q-1.4.2-2.3.2c-.1.2-.2.3-.3.5h1.5c.3,0,.6,0,.8,0l.6.6c0,0,0,.1-.2.2-.4.5-.9,1.1-1.5,1.5.8.4,1.7.6,2.7.7-.2.4-.3.6-.5,1.1-1.2-.2-2.3-.6-3.1-1.1-.9.6-1.8.9-3,1.2-.2-.5-.3-.6-.5-1,1-.2,1.8-.4,2.6-.9-.4-.3-.6-.6-.8-.8-.4.3-.7.5-1.2.8-.3-.5-.3-.5-.7-.9,1.1-.5,1.8-1.1,2.3-1.8q-1.5,0-1.8.1v-1.1c0,0,.2,0,.5,0h.4q.2,0,.7,0l.5-.4c-.6-.6-.9-.8-1.8-1.5l.7-.8c.3.2.3.2.5.4.5-.5.9-1.1,1-1.5l1,.5ZM449.8,14.6c.3.4.5.6.9.9.4-.3.7-.5,1-.9h-1.9Z"/>
    <path class="st5" d="M458.8,15.1c0-.2,0-.3,0-.4v-.2c0-.5.1-.9.4-1.3.2-.2.3-.3.9-.7.6-.4.9-.7.9-1.2s-.5-1-1.4-1-1,.2-1.2.6c-.1.2-.2.4-.2.8l-1.5-.2c.2-.7.4-1.1.8-1.5.5-.5,1.3-.7,2.2-.7s1.5.2,2,.6c.5.4.7.8.7,1.4s-.1.9-.3,1.2c-.2.3-.4.5-1.2,1-.6.4-.8.7-.8,1.2s0,.3,0,.5h-1.3ZM460.2,15.9v1.4h-1.4v-1.4h1.4Z"/>
  </g>
  <polyline class="st1" points="101.8 33 101.8 27 431.8 27 431.8 33"/>
  <polyline class="st1" points="438.8 33 438.8 27 451.8 27 451.8 33"/>
  <g>
    <path d="M158,121.7c-.9,1.2-1.5,2.7-1.5,4.9s.7,3.7,1.5,4.9h-.8c-.8-1-1.6-2.5-1.6-4.9,0-2.4.8-3.9,1.6-4.9h.8Z"/>
    <path d="M162.3,130v-.7h-.1c-.3.5-.9.9-1.8.9-1.2,0-1.8-.8-1.8-1.7,0-1.4,1.2-2.2,3.5-2.2h0c0-.6-.1-1.5-1.3-1.5s-1.1.2-1.5.4l-.2-.7c.5-.3,1.2-.5,1.9-.5,1.8,0,2.2,1.2,2.2,2.4v2.2c0,.5,0,1,0,1.4h-1ZM162.2,127c-1.2,0-2.5.2-2.5,1.3s.5,1,1,1,1.2-.5,1.4-1c0-.1,0-.2,0-.3v-1Z"/>
    <path d="M164.3,131.4c.9-1.2,1.5-2.7,1.5-4.9s-.6-3.7-1.5-4.9h.8c.8,1,1.6,2.5,1.6,4.9s-.8,3.9-1.6,4.9h-.8Z"/>
  </g>
  <g>
    <path d="M339.6,174.2c-.9,1.2-1.5,2.7-1.5,4.9s.7,3.7,1.5,4.9h-.8c-.8-1-1.6-2.5-1.6-4.9,0-2.4.8-3.9,1.6-4.9h.8Z"/>
    <path d="M340.6,182.5c0-.4,0-1,0-1.5v-7h1v3.6h0c.4-.6,1-1.1,2-1.1,1.4,0,2.5,1.2,2.4,3,0,2.1-1.3,3.1-2.6,3.1s-1.5-.3-1.9-1.1h0v1h-1ZM341.7,180.2c0,.1,0,.3,0,.4.2.7.8,1.2,1.6,1.2,1.1,0,1.8-.9,1.8-2.2s-.6-2.2-1.7-2.2-1.4.5-1.6,1.3c0,.1,0,.3,0,.4v1Z"/>
    <path d="M346.8,184c.9-1.2,1.5-2.7,1.5-4.9s-.6-3.7-1.5-4.9h.8c.8,1,1.6,2.5,1.6,4.9s-.8,3.9-1.6,4.9h-.8Z"/>
  </g>
  <g>
    <path d="M491.7,42.6c-.9,1.2-1.5,2.7-1.5,4.9s.7,3.7,1.5,4.9h-.8c-.8-1-1.6-2.5-1.6-4.9,0-2.4.8-3.9,1.6-4.9h.8Z"/>
    <path d="M493.3,45.1l.8,1.2c.2.3.4.6.6.9h0c.2-.3.4-.6.6-1l.8-1.2h1.1l-2,2.8,2,3h-1.2l-.9-1.3c-.2-.3-.4-.7-.6-1h0c-.2.3-.4.7-.6,1l-.8,1.3h-1.2l2.1-3-2-2.8h1.2Z"/>
    <path d="M497.8,52.4c.9-1.2,1.5-2.7,1.5-4.9s-.6-3.7-1.5-4.9h.8c.8,1,1.6,2.5,1.6,4.9s-.8,3.9-1.6,4.9h-.8Z"/>
  </g>
  <g>
    <path d="M520.3,70c-.9,1.2-1.5,2.7-1.5,4.9s.7,3.7,1.5,4.9h-.8c-.8-1-1.6-2.5-1.6-4.9,0-2.4.8-3.9,1.6-4.9h.8Z"/>
    <path d="M521.8,72.6l1.3,3.4c.1.4.3.8.4,1.2h0c.1-.3.2-.8.4-1.2l1.2-3.4h1.1l-1.6,4.1c-.8,2-1.3,3-2,3.6-.5.5-1,.6-1.3.7l-.3-.9c.3,0,.6-.3.9-.5.3-.2.6-.6.9-1.2,0-.1,0-.2,0-.3s0-.1,0-.3l-2.1-5.3h1.2Z"/>
    <path d="M526.4,79.8c.9-1.2,1.5-2.7,1.5-4.9s-.6-3.7-1.5-4.9h.8c.8,1,1.6,2.5,1.6,4.9s-.8,3.9-1.6,4.9h-.8Z"/>
  </g>
  <g>
    <path d="M545.5,159.5c-.9,1.2-1.5,2.7-1.5,4.9s.7,3.7,1.5,4.9h-.8c-.8-1-1.6-2.5-1.6-4.9,0-2.4.8-3.9,1.6-4.9h.8Z"/>
    <path d="M546,167.2l2.6-3.4c.3-.3.5-.6.8-.9h0s-3.1,0-3.1,0v-.9h4.4v.7s-2.6,3.4-2.6,3.4c-.2.3-.5.6-.7.9h0s3.4,0,3.4,0v.8h-4.7v-.6Z"/>
    <path d="M551.2,169.3c.9-1.2,1.5-2.7,1.5-4.9s-.6-3.7-1.5-4.9h.8c.8,1,1.6,2.5,1.6,4.9s-.8,3.9-1.6,4.9h-.8Z"/>
  </g>
  <path class="st3" d="M454,62.4s42.3,3.9,70.6-8.8,37.3-26.4,37.3-26.4"/>
  <path class="st3" d="M562,71.5s6.4-.7-10.5-3.5-97.4-2.7-97.4-2.7c0,0,39.6,17.7,48.3,42.8,8.7,25,32.8,56.3,43.3,65.9,10.5,9.7,17.6,19.4,17.6,19.4"/>
</svg>