<?xml version="1.0" encoding="UTF-8"?>
<svg id="Layer_1" xmlns="http://www.w3.org/2000/svg" version="1.1" viewBox="0 0 618.7 96.5">
  <!-- Generator: Adobe Illustrator 29.1.0, SVG Export Plug-In . SVG Version: 2.1.0 Build 142)  -->
  <defs>
    <style>
      .st0 {
        isolation: isolate;
      }

      .st1, .st2 {
        fill: #fff;
      }

      .st2 {
        stroke: #fff;
        stroke-miterlimit: 10;
      }

      .st3 {
        fill: #71c062;
      }
    </style>
  </defs>
  <rect class="st3" x="101" y="30.2" width="420.2" height="40"/>
  <g>
    <line class="st2" x1="491.2" y1="30.2" x2="491.2" y2="35.2"/>
    <line class="st2" x1="471.2" y1="30.2" x2="471.2" y2="35.2"/>
    <line class="st2" x1="451.2" y1="30.2" x2="451.2" y2="35.2"/>
    <line class="st2" x1="431.2" y1="30.2" x2="431.2" y2="35.2"/>
    <line class="st2" x1="391.2" y1="30.2" x2="391.2" y2="35.2"/>
    <line class="st2" x1="371.2" y1="30.2" x2="371.2" y2="35.2"/>
    <line class="st2" x1="351.2" y1="30.2" x2="351.2" y2="35.2"/>
    <line class="st2" x1="331.2" y1="30.2" x2="331.2" y2="35.2"/>
    <line class="st2" x1="291.2" y1="30.2" x2="291.2" y2="35.2"/>
    <line class="st2" x1="271.2" y1="30.2" x2="271.2" y2="35.2"/>
    <line class="st2" x1="251.2" y1="30.2" x2="251.2" y2="35.2"/>
    <line class="st2" x1="231.2" y1="30.2" x2="231.2" y2="35.2"/>
    <line class="st2" x1="191.2" y1="30.2" x2="191.2" y2="35.2"/>
    <line class="st2" x1="171.2" y1="30.2" x2="171.2" y2="35.2"/>
    <line class="st2" x1="151.2" y1="30.2" x2="151.2" y2="35.2"/>
    <line class="st2" x1="131.2" y1="30.2" x2="131.2" y2="35.2"/>
    <line class="st2" x1="511.2" y1="30.2" x2="511.2" y2="40.2"/>
    <line class="st2" x1="411.2" y1="30.2" x2="411.2" y2="40.2"/>
    <line class="st2" x1="311.2" y1="30.2" x2="311.2" y2="40.2"/>
    <line class="st2" x1="211.2" y1="30.2" x2="211.2" y2="40.2"/>
    <line class="st2" x1="111.2" y1="30.2" x2="111.2" y2="40.2"/>
  </g>
  <g class="st0">
    <path d="M151.8,91.2v-16.5h3.5v1.3h-1.9v13.8h1.9v1.3h-3.5Z"/>
    <path d="M156.2,83.7v-1.6h4.9v1.6h-4.9Z"/>
    <path d="M167.4,87.6v-3.1h-5.6v-1.5l5.9-8.3h1.3v8.3h1.7v1.5h-1.7v3.1h-1.6ZM167.4,83.1v-5.8l-4,5.8h4Z"/>
    <path d="M175.5,91.2h-3.5v-1.3h1.9v-13.8h-1.9v-1.3h3.5v16.5Z"/>
  </g>
  <g class="st0">
    <path d="M254.8,91.2v-16.5h3.5v1.3h-1.9v13.8h1.9v1.3h-3.5Z"/>
    <path d="M259.2,83.7v-1.6h4.9v1.6h-4.9Z"/>
    <path d="M265.4,84.2l1.6-.2c.2.9.5,1.5.9,1.9.4.4,1,.6,1.6.6s1.4-.3,1.9-.8.8-1.2.8-1.9-.2-1.3-.7-1.8c-.5-.5-1.1-.7-1.8-.7s-.7,0-1.1.2l.2-1.4c.1,0,.2,0,.3,0,.7,0,1.3-.2,1.8-.5s.8-.9.8-1.6-.2-1.1-.6-1.4-.9-.6-1.5-.6-1.1.2-1.5.6-.7,1-.8,1.7l-1.6-.3c.2-1.1.6-1.9,1.3-2.5s1.5-.9,2.6-.9,1.4.2,1.9.5,1,.7,1.4,1.2.5,1.1.5,1.7-.1,1.1-.4,1.5-.7.8-1.3,1.1c.8.2,1.4.5,1.8,1.1.4.6.6,1.2.6,2.1s-.4,2.1-1.2,2.9c-.8.8-1.9,1.2-3.1,1.2s-2.1-.3-2.8-1-1.2-1.5-1.3-2.6Z"/>
    <path d="M278.5,91.2h-3.5v-1.3h1.9v-13.8h-1.9v-1.3h3.5v16.5Z"/>
  </g>
  <g class="st0">
    <path d="M354.8,91.2v-16.5h3.5v1.3h-1.9v13.8h1.9v1.3h-3.5Z"/>
    <path d="M359.2,83.7v-1.6h4.9v1.6h-4.9Z"/>
    <path d="M373.7,86.1v1.5h-8.5c0-.4,0-.7.2-1.1.2-.6.6-1.2,1-1.7s1.2-1.2,2.1-2c1.4-1.1,2.3-2.1,2.8-2.7s.7-1.3.7-1.9-.2-1.2-.7-1.6c-.4-.4-1-.6-1.8-.6s-1.4.2-1.8.7-.7,1.1-.7,1.9l-1.6-.2c.1-1.2.5-2.1,1.3-2.8.7-.6,1.7-1,2.9-1s2.2.3,2.9,1,1.1,1.5,1.1,2.5-.1,1-.3,1.5-.6,1-1.1,1.6-1.3,1.3-2.4,2.3c-.9.8-1.6,1.3-1.8,1.6s-.5.6-.7.9h6.3Z"/>
    <path d="M378.5,91.2h-3.5v-1.3h1.9v-13.8h-1.9v-1.3h3.5v16.5Z"/>
  </g>
  <g class="st0">
    <path d="M456.8,91.2v-16.5h3.5v1.3h-1.9v13.8h1.9v1.3h-3.5Z"/>
    <path d="M461.2,83.7v-1.6h4.9v1.6h-4.9Z"/>
    <path d="M473.3,87.6h-1.6v-10.1c-.4.4-.9.7-1.5,1.1s-1.2.6-1.7.8v-1.5c.9-.4,1.7-.9,2.3-1.5s1.1-1.2,1.4-1.7h1v12.9Z"/>
    <path d="M480.5,91.2h-3.5v-1.3h1.9v-13.8h-1.9v-1.3h3.5v16.5Z"/>
  </g>
  <g class="st0">
    <path d="M153.8,23.1V6.6h3.5v1.3h-1.9v13.8h1.9v1.3h-3.5Z"/>
    <path d="M158.4,13.1c0-1.5.2-2.7.5-3.7.3-.9.8-1.6,1.4-2.1s1.4-.8,2.3-.8,1.3.1,1.8.4,1,.7,1.3,1.2c.3.5.6,1.2.8,1.9.2.8.3,1.8.3,3s-.2,2.7-.5,3.7-.8,1.6-1.4,2.2c-.6.5-1.4.8-2.3.8s-2.2-.4-2.9-1.3c-.8-1.1-1.3-2.8-1.3-5.2ZM160,13.1c0,2.1.2,3.5.7,4.2s1.1,1,1.8,1,1.3-.4,1.8-1.1.7-2.1.7-4.2-.2-3.5-.7-4.2-1.1-1-1.9-1-1.3.3-1.7.9c-.5.8-.8,2.2-.8,4.4Z"/>
    <path d="M171.5,23.1h-3.5v-1.3h1.9V7.9h-1.9v-1.3h3.5v16.5Z"/>
  </g>
  <g class="st0">
    <path d="M256.8,23.1V6.6h3.5v1.3h-1.9v13.8h1.9v1.3h-3.5Z"/>
    <path d="M267.3,19.5h-1.6v-10.1c-.4.4-.9.7-1.5,1.1s-1.2.6-1.7.8v-1.5c.9-.4,1.7-.9,2.3-1.5s1.1-1.2,1.4-1.7h1v12.9Z"/>
    <path d="M274.5,23.1h-3.5v-1.3h1.9V7.9h-1.9v-1.3h3.5v16.5Z"/>
  </g>
  <g class="st0">
    <path d="M356.8,23.1V6.6h3.5v1.3h-1.9v13.8h1.9v1.3h-3.5Z"/>
    <path d="M369.7,18v1.5h-8.5c0-.4,0-.7.2-1.1.2-.6.6-1.2,1-1.7s1.2-1.2,2.1-2c1.4-1.1,2.3-2.1,2.8-2.7s.7-1.3.7-1.9-.2-1.2-.7-1.6c-.4-.4-1-.6-1.8-.6s-1.4.2-1.8.7-.7,1.1-.7,1.9l-1.6-.2c.1-1.2.5-2.1,1.3-2.8.7-.6,1.7-1,2.9-1s2.2.3,2.9,1,1.1,1.5,1.1,2.5-.1,1-.3,1.5-.6,1-1.1,1.6-1.3,1.3-2.4,2.3c-.9.8-1.6,1.3-1.8,1.6s-.5.6-.7.9h6.3Z"/>
    <path d="M374.5,23.1h-3.5v-1.3h1.9V7.9h-1.9v-1.3h3.5v16.5Z"/>
  </g>
  <g class="st0">
    <path d="M458.8,23.1V6.6h3.5v1.3h-1.9v13.8h1.9v1.3h-3.5Z"/>
    <path d="M463.4,16.1l1.6-.2c.2.9.5,1.5.9,1.9.4.4,1,.6,1.6.6s1.4-.3,1.9-.8.8-1.2.8-1.9-.2-1.3-.7-1.8c-.5-.5-1.1-.7-1.8-.7s-.7,0-1.1.2l.2-1.4c.1,0,.2,0,.3,0,.7,0,1.3-.2,1.8-.5s.8-.9.8-1.6-.2-1.1-.6-1.4-.9-.6-1.5-.6-1.1.2-1.5.6-.7,1-.8,1.7l-1.6-.3c.2-1.1.6-1.9,1.3-2.5s1.5-.9,2.6-.9,1.4.2,1.9.5,1,.7,1.4,1.2.5,1.1.5,1.7-.1,1.1-.4,1.5-.7.8-1.3,1.1c.8.2,1.4.5,1.8,1.1.4.6.6,1.2.6,2.1s-.4,2.1-1.2,2.9c-.8.8-1.9,1.2-3.1,1.2s-2.1-.3-2.8-1-1.2-1.5-1.3-2.6Z"/>
    <path d="M476.5,23.1h-3.5v-1.3h1.9V7.9h-1.9v-1.3h3.5v16.5Z"/>
  </g>
  <g class="st0">
    <path class="st1" d="M107.6,50.7c0-1.2.1-2.1.4-2.9.2-.7.6-1.3,1.1-1.7s1.1-.6,1.8-.6,1,.1,1.4.3c.4.2.7.5,1,.9.3.4.5.9.6,1.5.2.6.2,1.4.2,2.4s-.1,2.1-.4,2.8c-.2.7-.6,1.3-1.1,1.7-.5.4-1.1.6-1.8.6s-1.7-.3-2.3-1c-.7-.8-1-2.2-1-4.1ZM108.9,50.7c0,1.6.2,2.7.6,3.3.4.5.9.8,1.4.8s1-.3,1.4-.8.6-1.6.6-3.3-.2-2.7-.6-3.3-.9-.8-1.4-.8-1,.2-1.4.7c-.4.6-.6,1.7-.6,3.4Z"/>
  </g>
  <g class="st0">
    <path class="st1" d="M212.3,55.6h-1.2v-7.8c-.3.3-.7.6-1.2.8-.5.3-.9.5-1.3.6v-1.2c.7-.3,1.3-.7,1.8-1.2.5-.5.9-.9,1.1-1.3h.8v10.1Z"/>
  </g>
  <g class="st0">
    <path class="st1" d="M314.1,54.4v1.2h-6.6c0-.3,0-.6.1-.9.2-.5.4-.9.8-1.3.4-.4.9-.9,1.6-1.5,1.1-.9,1.8-1.6,2.2-2.1.4-.5.6-1,.6-1.5s-.2-.9-.5-1.2c-.3-.3-.8-.5-1.4-.5s-1.1.2-1.4.5-.5.8-.5,1.5h-1.3c0-1.1.4-1.8,1-2.3.6-.5,1.3-.7,2.3-.7s1.7.3,2.3.8.8,1.2.8,2,0,.8-.2,1.2-.4.8-.8,1.2c-.4.4-1,1-1.9,1.8-.7.6-1.2,1-1.4,1.3-.2.2-.4.4-.5.7h4.9Z"/>
  </g>
  <g class="st0">
    <path class="st1" d="M407.6,53l1.2-.2c.1.7.4,1.2.7,1.5.3.3.8.5,1.2.5s1.1-.2,1.5-.6c.4-.4.6-.9.6-1.5s-.2-1-.6-1.4c-.4-.4-.8-.6-1.4-.6s-.5,0-.9.1v-1.1c.2,0,.3,0,.3,0,.5,0,1-.1,1.4-.4.4-.3.6-.7.6-1.3s-.2-.8-.5-1.1c-.3-.3-.7-.4-1.2-.4s-.9.2-1.2.5c-.3.3-.5.8-.6,1.4l-1.2-.2c.2-.8.5-1.5,1-1.9.5-.5,1.2-.7,2-.7s1,.1,1.5.4c.5.2.8.6,1.1,1,.2.4.4.8.4,1.3s-.1.8-.3,1.2-.6.6-1,.8c.6.1,1.1.4,1.4.9.3.4.5,1,.5,1.6s-.3,1.6-1,2.2c-.6.6-1.4.9-2.4.9s-1.6-.3-2.2-.8-.9-1.2-1-2Z"/>
  </g>
  <g class="st0">
    <path class="st1" d="M511.6,55.6v-2.4h-4.3v-1.1l4.6-6.5h1v6.5h1.4v1.1h-1.4v2.4h-1.2ZM511.6,52.1v-4.5l-3.1,4.5h3.1Z"/>
  </g>
</svg>