<?xml version="1.0" encoding="UTF-8"?>
<svg id="Layer_1" xmlns="http://www.w3.org/2000/svg" xmlns:xlink="http://www.w3.org/1999/xlink" version="1.1" viewBox="0 0 576 313.3">
  <!-- Generator: Adobe Illustrator 29.1.0, SVG Export Plug-In . SVG Version: 2.1.0 Build 142)  -->
  <defs>
    <style>
      .st0 {
        fill: none;
      }

      .st1 {
        fill: #98fb98;
        stroke: #98fb98;
      }

      .st1, .st2, .st3 {
        isolation: isolate;
        opacity: .4;
      }

      .st2 {
        fill: #ffa07a;
        stroke: #ffa07a;
      }

      .st4 {
        clip-path: url(#clippath-1);
      }

      .st5 {
        clip-path: url(#clippath-2);
      }

      .st3 {
        fill: #87cefa;
        stroke: #87cefa;
      }

      .st6 {
        fill: #333;
      }

      .st7 {
        clip-path: url(#clippath);
      }
    </style>
    <clipPath id="clippath">
      <rect class="st0" x="85" width="420.5" height="332.6"/>
    </clipPath>
    <clipPath id="clippath-1">
      <rect class="st0" x="85" width="420.5" height="332.6"/>
    </clipPath>
    <clipPath id="clippath-2">
      <rect class="st0" x="85" width="420.5" height="332.6"/>
    </clipPath>
  </defs>
  <g id="patch_2">
    <g class="st7">
      <path class="st2" d="M295.3,296.6c-27.3-9.2-51-26.7-67.7-50.1-16.8-23.4-25.8-51.4-25.8-80.2s9-56.8,25.8-80.2c16.8-23.4,40.5-40.9,67.7-50.1-20.7-7-42.7-8.9-64.3-5.7-21.6,3.2-42.1,11.6-59.8,24.3-17.7,12.7-32.2,29.5-42.1,48.9-10,19.4-15.2,40.9-15.2,62.8s5.2,43.3,15.2,62.8c10,19.4,24.4,36.2,42.1,48.9,17.7,12.7,38.2,21.1,59.8,24.3,21.6,3.2,43.6,1.3,64.3-5.7"/>
    </g>
  </g>
  <g id="patch_3">
    <g class="st4">
      <path class="st3" d="M295.3,36c27.3,9.2,51,26.7,67.7,50.1s25.8,51.4,25.8,80.2-9,56.8-25.8,80.2-40.5,40.9-67.7,50.1c20.7,7,42.7,8.9,64.3,5.7,21.6-3.2,42.1-11.6,59.8-24.3,17.7-12.7,32.2-29.5,42.1-48.9,10-19.4,15.2-40.9,15.2-62.8s-5.2-43.3-15.2-62.8c-10-19.4-24.4-36.2-42.1-48.9-17.7-12.7-38.2-21.1-59.8-24.3-21.6-3.2-43.6-1.3-64.3,5.7"/>
    </g>
  </g>
  <g id="patch_4">
    <g class="st5">
      <path class="st1" d="M295.3,296.6c27.3-9.2,51-26.7,67.7-50.1s25.8-51.4,25.8-80.2-9-56.8-25.8-80.2-40.5-40.9-67.7-50.1c-27.3,9.2-51,26.7-67.7,50.1-16.8,23.4-25.8,51.4-25.8,80.2s9,56.8,25.8,80.2c16.8,23.4,40.5,40.9,67.7,50.1"/>
    </g>
  </g>
  <g id="text_1">
    <g>
      <path id="DejaVuSans-31" class="st6" d="M149.5,168.2h1.6v-5.6l-1.8.4v-.9l1.7-.4h1v6.5h1.6v.8h-4.2v-.8Z"/>
      <path id="DejaVuSans-2c" class="st6" d="M155.8,167.8h1v.8l-.8,1.6h-.6l.4-1.6v-.8Z"/>
      <path id="DejaVuSans-20" class="st6" d="M157.8,169.1"/>
      <path id="DejaVuSans-34" class="st6" d="M164.8,162.6l-2.5,3.9h2.5v-3.9ZM164.5,161.8h1.2v4.8h1v.8h-1v1.7h-1v-1.7h-3.3v-1l3-4.6Z"/>
    </g>
  </g>
  <g id="text_2">
    <g>
      <path id="DejaVuSans-37" class="st6" d="M424.1,161.8h4.7v.4l-2.6,6.9h-1l2.5-6.5h-3.5v-.8Z"/>
      <path id="DejaVuSans-2c1" data-name="DejaVuSans-2c" class="st6" d="M430.8,167.8h1v.8l-.8,1.6h-.6l.4-1.6v-.8Z"/>
      <path id="DejaVuSans-201" data-name="DejaVuSans-20" class="st6" d="M432.8,169.1"/>
      <path id="DejaVuSans-39" class="st6" d="M437.1,168.9v-.9c.2.1.5.2.8.3.3,0,.5,0,.7,0,.7,0,1.1-.2,1.5-.7.3-.4.5-1.1.6-2-.2.3-.4.5-.7.6-.3.2-.6.2-1,.2-.7,0-1.3-.2-1.7-.7-.4-.4-.6-1-.6-1.8s.2-1.3.7-1.8c.4-.5,1-.7,1.8-.7s1.5.3,1.9,1c.4.6.7,1.6.7,2.8s-.3,2.1-.8,2.8c-.5.7-1.3,1-2.2,1s-.5,0-.8,0c-.3,0-.5-.1-.8-.2ZM439,165.8c.4,0,.8-.2,1.1-.5.3-.3.4-.7.4-1.2s-.1-.9-.4-1.2c-.3-.3-.6-.5-1.1-.5s-.8.2-1.1.5c-.3.3-.4.7-.4,1.2s.1.9.4,1.2c.3.3.6.5,1.1.5Z"/>
    </g>
  </g>
  <g id="text_3">
    <g>
      <path id="DejaVuSans-32" class="st6" d="M281.3,168.2h3.4v.8h-4.6v-.8c.4-.4.9-.9,1.5-1.6.6-.7,1.1-1.1,1.2-1.3.3-.4.5-.7.7-.9.1-.2.2-.5.2-.7,0-.4-.1-.7-.4-.9-.3-.2-.6-.4-1.1-.4s-.6,0-1,.2c-.3.1-.7.3-1.1.5v-1c.4-.2.8-.3,1.1-.4.3,0,.7-.1.9-.1.8,0,1.4.2,1.8.6.4.4.7.9.7,1.5s0,.6-.2.9c-.1.3-.3.6-.6.9,0,0-.3.4-.8.8-.4.5-1.1,1.1-1.8,1.9Z"/>
      <path id="DejaVuSans-2c2" data-name="DejaVuSans-2c" class="st6" d="M287,167.8h1v.8l-.8,1.6h-.6l.4-1.6v-.8Z"/>
      <path id="DejaVuSans-202" data-name="DejaVuSans-20" class="st6" d="M289,169.1"/>
      <path id="DejaVuSans-33" class="st6" d="M296.2,165.1c.5.1.8.3,1.1.6.3.3.4.7.4,1.2,0,.7-.2,1.3-.7,1.7-.5.4-1.2.6-2.1.6s-.6,0-.9,0c-.3,0-.7-.2-1-.3v-1c.3.2.6.3.9.4.3,0,.7.1,1,.1.6,0,1.1-.1,1.4-.4s.5-.6.5-1.1-.2-.8-.5-1c-.3-.2-.7-.4-1.3-.4h-.9v-.8h.9c.5,0,.9,0,1.1-.3s.4-.5.4-.8-.1-.7-.4-.9c-.3-.2-.6-.3-1.1-.3s-.6,0-.9,0c-.3,0-.6.1-1,.3v-.9c.4-.1.7-.2,1.1-.2s.6,0,.9,0c.7,0,1.3.2,1.8.5.4.3.7.8.7,1.4s-.1.7-.3,1-.6.5-1,.6Z"/>
      <path id="DejaVuSans-2c3" data-name="DejaVuSans-2c" class="st6" d="M299.7,167.8h1v.8l-.8,1.6h-.6l.4-1.6v-.8Z"/>
      <path id="DejaVuSans-203" data-name="DejaVuSans-20" class="st6" d="M301.7,169.1"/>
      <path id="DejaVuSans-35" class="st6" d="M305.9,161.8h3.9v.8h-3v1.8c.1,0,.3,0,.4-.1.1,0,.3,0,.4,0,.8,0,1.5.2,1.9.7.5.4.7,1,.7,1.8s-.2,1.4-.7,1.8c-.5.4-1.2.7-2.1.7s-.6,0-.9,0c-.3,0-.6-.1-1-.2v-1c.3.2.6.3.9.4s.6.1,1,.1c.6,0,1-.1,1.3-.4.3-.3.5-.7.5-1.2s-.2-.9-.5-1.2c-.3-.3-.8-.4-1.3-.4s-.5,0-.8,0c-.3,0-.5.1-.8.3v-3.7Z"/>
    </g>
  </g>
  <g id="text_4">
    <g>
      <path id="DejaVuSans-53" class="st6" d="M226.1,15.6v1.2c-.4-.2-.9-.4-1.3-.5-.4-.1-.8-.2-1.2-.2-.6,0-1.1.1-1.5.4-.3.2-.5.6-.5,1.1s.1.7.3.9c.2.2.7.4,1.3.5h.7c.9.3,1.5.6,2,1s.6,1,.6,1.7-.3,1.5-.9,1.9c-.6.4-1.4.7-2.5.7s-.9,0-1.3-.1c-.5,0-.9-.2-1.4-.4v-1.2c.5.3,1,.5,1.4.6.5.1.9.2,1.4.2.7,0,1.2-.1,1.6-.4.4-.3.6-.6.6-1.1s-.1-.8-.4-1-.7-.4-1.3-.5h-.7c-.9-.3-1.5-.6-1.9-1-.4-.4-.6-.9-.6-1.6s.3-1.4.8-1.8c.5-.4,1.3-.7,2.3-.7s.8,0,1.3.1c.4,0,.9.2,1.3.3Z"/>
      <path id="DejaVuSans-65" class="st6" d="M234,20.6v.5h-5c0,.7.3,1.3.7,1.7.4.4,1,.6,1.7.6s.8,0,1.2-.2.8-.3,1.2-.5v1c-.4.2-.8.3-1.2.4s-.8.1-1.2.1c-1,0-1.9-.3-2.5-.9-.6-.6-.9-1.4-.9-2.5s.3-1.9.9-2.6c.6-.6,1.4-.9,2.3-.9s1.6.3,2.1.9c.5.6.8,1.3.8,2.3ZM232.9,20.2c0-.6-.2-1.1-.5-1.4-.3-.4-.7-.5-1.3-.5s-1.1.2-1.4.5-.6.8-.6,1.4h3.8Z"/>
      <path id="DejaVuSans-74" class="st6" d="M236.8,15.7v1.9h2.2v.8h-2.2v3.6c0,.5,0,.9.2,1s.4.2.9.2h1.1v.9h-1.1c-.8,0-1.4-.2-1.7-.5-.3-.3-.5-.9-.5-1.7v-3.6h-.8v-.8h.8v-1.9h1.1Z"/>
      <path id="DejaVuSans-204" data-name="DejaVuSans-20" class="st6" d="M239.3,24.1"/>
      <path id="DejaVuSans-41" class="st6" d="M247.3,16.5l-1.6,4.4h3.2l-1.6-4.4ZM246.6,15.4h1.3l3.3,8.7h-1.2l-.8-2.2h-3.9l-.8,2.2h-1.2l3.3-8.7Z"/>
    </g>
  </g>
  <g id="text_5">
    <g>
      <path id="DejaVuSans-531" data-name="DejaVuSans-53" class="st6" d="M345.7,15.6v1.2c-.4-.2-.9-.4-1.3-.5-.4-.1-.8-.2-1.2-.2-.6,0-1.1.1-1.5.4-.3.2-.5.6-.5,1.1s.1.7.3.9c.2.2.7.4,1.3.5h.7c.9.3,1.5.6,2,1s.6,1,.6,1.7-.3,1.5-.9,1.9c-.6.4-1.4.7-2.5.7s-.9,0-1.3-.1c-.5,0-.9-.2-1.4-.4v-1.2c.5.3,1,.5,1.4.6.5.1.9.2,1.4.2.7,0,1.2-.1,1.6-.4.4-.3.6-.6.6-1.1s-.1-.8-.4-1-.7-.4-1.3-.5h-.7c-.9-.3-1.5-.6-1.9-1-.4-.4-.6-.9-.6-1.6s.3-1.4.8-1.8c.5-.4,1.3-.7,2.3-.7s.8,0,1.3.1c.4,0,.9.2,1.3.3Z"/>
      <path id="DejaVuSans-651" data-name="DejaVuSans-65" class="st6" d="M353.6,20.6v.5h-5c0,.7.3,1.3.7,1.7.4.4,1,.6,1.7.6s.8,0,1.2-.2.8-.3,1.2-.5v1c-.4.2-.8.3-1.2.4s-.8.1-1.2.1c-1,0-1.9-.3-2.5-.9-.6-.6-.9-1.4-.9-2.5s.3-1.9.9-2.6c.6-.6,1.4-.9,2.3-.9s1.6.3,2.1.9c.5.6.8,1.3.8,2.3ZM352.6,20.2c0-.6-.2-1.1-.5-1.4-.3-.4-.7-.5-1.3-.5s-1.1.2-1.4.5-.6.8-.6,1.4h3.8Z"/>
      <path id="DejaVuSans-741" data-name="DejaVuSans-74" class="st6" d="M356.5,15.7v1.9h2.2v.8h-2.2v3.6c0,.5,0,.9.2,1s.4.2.9.2h1.1v.9h-1.1c-.8,0-1.4-.2-1.7-.5-.3-.3-.5-.9-.5-1.7v-3.6h-.8v-.8h.8v-1.9h1.1Z"/>
      <path id="DejaVuSans-205" data-name="DejaVuSans-20" class="st6" d="M359,24.1"/>
      <path id="DejaVuSans-42" class="st6" d="M365.2,19.9v3.2h1.9c.6,0,1.1-.1,1.4-.4.3-.3.5-.7.5-1.2s-.2-1-.5-1.2c-.3-.3-.8-.4-1.4-.4h-1.9ZM365.2,16.3v2.6h1.8c.6,0,1-.1,1.3-.3.3-.2.4-.5.4-1s-.1-.8-.4-1c-.3-.2-.7-.3-1.3-.3h-1.8ZM364,15.4h3c.9,0,1.6.2,2.1.6.5.4.7.9.7,1.6s-.1,1-.4,1.3-.6.5-1.1.6c.6.1,1,.4,1.4.8.3.4.5.9.5,1.5s-.3,1.4-.8,1.8c-.5.4-1.3.6-2.3.6h-3.1v-8.7Z"/>
    </g>
  </g>
</svg>